<svg width="50" height="50" viewBox="0 0 50 50" fill="none" xmlns="http://www.w3.org/2000/svg">
<circle cx="25" cy="25" r="25" fill="#FA4B5F"/>
<g clip-path="url(#clip0_3955_115742)">
<path d="M27.7246 32.5H22.2701C21.9007 32.5 21.581 32.6352 21.311 32.9049C21.0413 33.1748 20.9062 33.4942 20.9062 33.8636V38.6362C20.9062 39.0055 21.0413 39.3252 21.311 39.5955C21.5813 39.8649 21.9006 40 22.2701 40H27.7251C28.0939 40 28.4137 39.8649 28.6839 39.5955C28.9533 39.3253 29.0884 39.0056 29.0884 38.6362V33.8636C29.0884 33.4943 28.9531 33.1749 28.6834 32.9049C28.4134 32.6349 28.0937 32.5 27.7246 32.5Z" fill="white"/>
<path d="M29.3537 10.4048C29.0909 10.1352 28.775 10 28.4054 10H21.5875C21.2183 10 20.9025 10.1352 20.6396 10.4048C20.3768 10.6747 20.2525 10.9945 20.2667 11.3637L20.8631 27.7269C20.8773 28.0961 21.0228 28.4162 21.2999 28.6856C21.5768 28.9559 21.8999 29.0909 22.2693 29.0909H27.7244C28.0932 29.0909 28.4162 28.9559 28.6938 28.6856C28.9707 28.4162 29.1157 28.0962 29.1306 27.7269L29.7266 11.3637C29.7414 10.9945 29.6165 10.675 29.3537 10.4048Z" fill="white"/>
</g>
<defs>
<clipPath id="clip0_3955_115742">
<rect width="30.0001" height="30" fill="white" transform="translate(10 10)"/>
</clipPath>
</defs>
</svg>
