<svg width="12" height="8" viewBox="0 0 12 8" fill="none" xmlns="http://www.w3.org/2000/svg">
<path d="M6.00004 7.53021C5.85877 7.53021 5.71763 7.48781 5.61177 7.41013L0.317657 3.88082C0.127011 3.75376 -4.19251e-05 3.54192 -4.1928e-05 3.29492L-4.19533e-05 1.17728C-4.19579e-05 0.789012 0.317657 0.471314 0.705926 0.471314C0.847068 0.471314 0.98821 0.513708 1.09407 0.591387L6.00004 3.85962L10.9059 0.591387C11.0117 0.513708 11.1529 0.471313 11.2942 0.471313C11.6823 0.471313 12 0.789012 12 1.17728L12 3.29492C12 3.54192 11.8729 3.75376 11.6823 3.88082L6.38818 7.41013C6.28233 7.48781 6.14119 7.53021 6.00004 7.53021Z" fill="#1AACFF"/>
</svg>
