<svg width="1600" height="921" viewBox="0 0 1600 921"  preserveAspectRatio="none" fill="none" xmlns="http://www.w3.org/2000/svg">
<g clip-path="url(#clip0_178_1036)">
<path d="M122 0H322V245C322 250.523 317.523 255 312 255H132C126.477 255 122 250.523 122 245V0Z" fill="#0A4566" fill-opacity="0.2"/>
<path d="M1561 1004H1361V759C1361 753.477 1365.48 749 1371 749H1551C1556.52 749 1561 753.477 1561 759V1004Z" fill="#0A4566" fill-opacity="0.2"/>
<path d="M275 -72H475V173C475 178.523 470.523 183 465 183H285C279.477 183 275 178.523 275 173V-72Z" fill="#0A4566" fill-opacity="0.2"/>
<path d="M1408 1076H1208V831C1208 825.477 1212.48 821 1218 821H1398C1403.52 821 1408 825.477 1408 831V1076Z" fill="#0A4566" fill-opacity="0.2"/>
<path d="M1068 -35H1268V323C1268 328.523 1263.52 333 1258 333H1078C1072.48 333 1068 328.523 1068 323V-35Z" fill="#0A4566" fill-opacity="0.2"/>
<path d="M615 929H415V571C415 565.477 419.477 561 425 561H605C610.523 561 615 565.477 615 571V929Z" fill="#0A4566" fill-opacity="0.2"/>
<path d="M671 -138H871V220C871 225.523 866.523 230 861 230H681C675.477 230 671 225.523 671 220V-138Z" fill="#0A4566" fill-opacity="0.2"/>
<path d="M1012 1142H812V784C812 778.477 816.477 774 822 774H1002C1007.52 774 1012 778.477 1012 784V1142Z" fill="#0A4566" fill-opacity="0.2"/>
<path d="M1325 -167H1525V191C1525 196.523 1520.52 201 1515 201H1335C1329.48 201 1325 196.523 1325 191V-167Z" fill="#0A4566" fill-opacity="0.2"/>
<path d="M358 1171H158V813C158 807.477 162.477 803 168 803H348C353.523 803 358 807.477 358 813V1171Z" fill="#0A4566" fill-opacity="0.2"/>
<path d="M1443 -4H1643V354C1643 359.523 1638.52 364 1633 364H1453C1447.48 364 1443 359.523 1443 354V-4Z" fill="#0A4566" fill-opacity="0.2"/>
<path d="M240 1008H40V650C40 644.477 44.4772 640 50 640H230C235.523 640 240 644.477 240 650V1008Z" fill="#0A4566" fill-opacity="0.2"/>
</g>
<defs>
<clipPath id="clip0_178_1036">
<rect width="1600" height="921" fill="white"/>
</clipPath>
</defs>
</svg>
