<svg width="1600" height="420" viewBox="0 0 1600 420" fill="none" xmlns="http://www.w3.org/2000/svg">
<g opacity="0.1">
<path d="M1844 -441.532C1844 -463.291 1834.34 -483.922 1817.63 -497.834L1756.14 -549.023V-307.636L1479.84 -533.496C1453.11 -555.348 1414.76 -555.517 1387.83 -533.902L1059.6 -270.383C1037.09 -252.316 1024 -224.998 1024 -196.118V213.982C1024 251.065 1067.06 271.469 1095.7 247.96L1399.2 -1.11192C1421.23 -19.1926 1434 -46.211 1434 -74.7321V-139.397L1111.86 120.835V45.8924C1111.86 28.4587 1119.61 11.9309 1133.02 0.801717L1399.62 -220.568C1421.4 -238.653 1434 -265.511 1434 -293.841V-358.839L1111.86 -94.95V-169.336C1111.86 -187.028 1119.84 -203.772 1133.59 -214.894L1420.18 -446.821C1428.24 -453.343 1439.75 -453.331 1447.8 -446.792L1772.46 -182.913C1801.14 -159.602 1844 -180.037 1844 -217.023V-441.532Z" fill="#C4C4C4"/>
<path d="M2044 166.468C2044 144.709 2034.34 124.078 2017.63 110.166L1956.14 58.977V300.364L1679.84 74.504C1653.11 52.6518 1614.76 52.4827 1587.83 74.0982L1259.6 337.617C1237.09 355.684 1224 383.002 1224 411.882V821.982C1224 859.065 1267.06 879.469 1295.7 855.96L1599.2 606.888C1621.23 588.807 1634 561.789 1634 533.268V468.603L1311.86 728.835V653.892C1311.86 636.459 1319.61 619.931 1333.02 608.802L1599.62 387.432C1621.4 369.347 1634 342.489 1634 314.159V249.161L1311.86 513.05V438.664C1311.86 420.972 1319.84 404.228 1333.59 393.106L1620.18 161.179C1628.24 154.657 1639.75 154.669 1647.8 161.208L1972.46 425.087C2001.14 448.398 2044 427.963 2044 390.977V166.468Z" fill="#C4C4C4"/>
<path d="M824 166.468C824 144.709 814.335 124.078 797.626 110.166L736.143 58.977V300.364L459.84 74.504C433.107 52.6518 394.756 52.4827 367.832 74.0982L39.5985 337.617C17.0949 355.684 4 383.002 4 411.882V821.982C4 859.065 47.0557 879.469 75.7008 855.96L379.196 606.888C401.227 588.807 414 561.789 414 533.268V468.603L91.8571 728.835V653.892C91.8571 636.459 99.6128 619.931 113.016 608.802L379.617 387.432C401.397 369.347 414 342.489 414 314.159V249.161L91.8571 513.05V438.664C91.8571 420.972 99.8435 404.228 113.587 393.106L400.177 161.179C408.236 154.657 419.754 154.669 427.799 161.208L752.46 425.087C781.141 448.398 824 427.963 824 390.977V166.468Z" fill="#C4C4C4"/>
<path d="M624 -441.532C624 -463.291 614.335 -483.922 597.626 -497.834L536.143 -549.023V-307.636L259.84 -533.496C233.107 -555.348 194.756 -555.517 167.832 -533.902L-160.402 -270.383C-182.905 -252.316 -196 -224.998 -196 -196.118V213.982C-196 251.065 -152.944 271.469 -124.299 247.96L179.196 -1.11192C201.227 -19.1926 214 -46.211 214 -74.7321V-139.397L-108.143 120.835V45.8924C-108.143 28.4587 -100.387 11.9309 -86.9841 0.801717L179.617 -220.568C201.397 -238.653 214 -265.511 214 -293.841V-358.839L-108.143 -94.95V-169.336C-108.143 -187.028 -100.156 -203.772 -86.4135 -214.894L200.177 -446.821C208.236 -453.343 219.754 -453.331 227.799 -446.792L552.46 -182.913C581.141 -159.602 624 -180.037 624 -217.023V-441.532Z" fill="#C4C4C4"/>
</g>
</svg>
