<svg width="30" height="30" viewBox="0 0 30 30" fill="none" xmlns="http://www.w3.org/2000/svg">
<path d="M29.1211 28.2422H28.5174V9.05326C28.5174 8.56787 28.1239 8.17436 27.6385 8.17436H15.8789V0.878906C15.8789 0.393516 15.4854 0 15 0H2.36145C1.87605 0 1.48254 0.393516 1.48254 0.878906V28.2422H0.878906C0.393516 28.2422 0 28.6357 0 29.1211C0 29.6065 0.393516 30 0.878906 30H29.1211C29.6065 30 30 29.6065 30 29.1211C30 28.6357 29.6065 28.2422 29.1211 28.2422ZM3.24035 1.75781H14.1211V9.05326V28.2422H11.8532V21.3714C11.8532 20.886 11.4597 20.4925 10.9743 20.4925H6.38707C5.90168 20.4925 5.50816 20.886 5.50816 21.3714V28.2422H3.24035V1.75781ZM7.26604 28.2422V22.2503H10.0955V28.2422H7.26604ZM19.9045 28.2422V22.2503H22.734V28.2422H19.9045ZM24.4918 28.2422V21.3714C24.4918 20.886 24.0983 20.4925 23.6129 20.4925H19.0256C18.5402 20.4925 18.1467 20.886 18.1467 21.3714V28.2422H15.8789V9.93217H26.7596V28.2422H24.4918Z" fill="#1AACFF"/>
<path d="M6.38672 9.95067H10.974C11.4594 9.95067 11.8529 9.55716 11.8529 9.07176V4.76465C11.8529 4.27926 11.4594 3.88574 10.974 3.88574H6.38672C5.90133 3.88574 5.50781 4.27926 5.50781 4.76465V9.07182C5.50781 9.55721 5.90133 9.95067 6.38672 9.95067ZM7.26562 5.64356H10.0951V8.19291H7.26562V5.64356Z" fill="#1AACFF"/>
<path d="M6.38672 18.1326H10.974C11.4594 18.1326 11.8529 17.739 11.8529 17.2537V12.9465C11.8529 12.4611 11.4594 12.0676 10.974 12.0676H6.38672C5.90133 12.0676 5.50781 12.4611 5.50781 12.9465V17.2537C5.50781 17.739 5.90133 18.1326 6.38672 18.1326ZM7.26562 13.8254H10.0951V16.3747H7.26562V13.8254Z" fill="#1AACFF"/>
<path d="M23.6146 12.0676H19.0273C18.542 12.0676 18.1484 12.4611 18.1484 12.9465V17.2537C18.1484 17.739 18.542 18.1326 19.0273 18.1326H23.6146C24.1 18.1326 24.4935 17.739 24.4935 17.2537V12.9465C24.4935 12.4611 24.1 12.0676 23.6146 12.0676ZM22.7357 16.3747H19.9062V13.8254H22.7357V16.3747Z" fill="#1AACFF"/>
</svg>
