<svg width="325" height="257" viewBox="0 0 325 257" fill="none" xmlns="http://www.w3.org/2000/svg">
<path d="M112.514 238.081L114.5 237.4V239.5V254V255.5H113H8H4.37862L6.93935 252.939L13.9394 245.939L14.7055 245.173L15.6737 245.66L16.5169 246.084C20.2622 247.966 24.8207 246.837 27.2547 243.425L27.4655 243.129L27.886 242.539L28.6092 242.502L42.4752 241.784C44.7309 241.667 46.5 239.804 46.5 237.545V235.328L48.5583 236.153L80.7289 249.055V230V225.942L83.3683 229.024L92.2232 239.367C94.4892 242.013 98.1409 243.009 101.437 241.879L112.514 238.081Z" fill="#ADEDD7" stroke="#24C991" stroke-width="3"/>
<path d="M242.636 244.642L241.683 244.195L240.939 244.939L232.939 252.939L230.379 255.5H234H295.5H300.045L296.393 252.795L282.893 242.795L281.979 242.117L281.08 242.815L280.414 243.332C277.116 245.893 272.446 245.679 269.396 242.828L262.524 236.404L261.431 235.382L260.407 236.473L253.87 243.434C251.353 246.114 247.399 246.872 244.07 245.313L242.636 244.642Z" fill="#ADEDD7" stroke="#24C991" stroke-width="3"/>
<path d="M218.385 247.236L217.697 247.019L217.098 247.422L209.163 252.755L205.079 255.5H210H271H275.698L271.869 252.778L264.369 247.444L263.849 247.074L263.222 247.193L253.846 248.962C251.74 249.36 249.562 248.947 247.747 247.807L238.074 241.73L237.222 241.194L236.403 241.78L229.057 247.038C226.884 248.593 224.107 249.036 221.558 248.234L218.385 247.236Z" fill="white" stroke="#24C991" stroke-width="3"/>
<path d="M76.5 255.5V8.1424L81.7283 1.5H97.2717L102.5 8.1424V255.5H98H81H76.5Z" fill="white" stroke="#9FA1AB" stroke-width="3"/>
<circle cx="150.5" cy="56.5" r="6" stroke="#9FA1AB" stroke-width="3"/>
<rect x="149" y="59" width="3" height="15" rx="1.5" fill="#9FA1AB"/>
<circle cx="257.5" cy="56.5" r="6" stroke="#9FA1AB" stroke-width="3"/>
<rect x="256" y="59" width="3" height="15" rx="1.5" fill="#9FA1AB"/>
<path d="M277.445 55.5L56.5549 55.5L50.5 50.3101V34.6899L56.5549 29.5L277.445 29.5L283.5 34.6899V50.3101L277.445 55.5Z" fill="white" stroke="#9FA1AB" stroke-width="3"/>
<path d="M57 31H277V54H57V31Z" fill="url(#paint0_linear_988_16091)"/>
<path d="M101 8V28H78V8L101 8Z" fill="url(#paint1_linear_988_16091)"/>
<path d="M78 254L78 57H101L101 254H78Z" fill="url(#paint2_linear_988_16091)"/>
<g opacity="0.3">
<path opacity="0.3" d="M76.5 126.5L83.0711 119.929C84.9464 118.054 86 115.51 86 112.858V96.6421C86 93.99 87.0536 91.4464 88.9289 89.5711L102 76.5" stroke="#9FA1AB" stroke-width="3" stroke-linecap="round"/>
<path opacity="0.3" d="M76.5 138L90.0711 124.429C91.9464 122.554 93 120.01 93 117.358V100.837C93 98.3669 93.9144 95.984 95.5671 94.1477L102 87" stroke="#9FA1AB" stroke-width="3" stroke-linecap="round"/>
</g>
<g opacity="0.3">
<path opacity="0.3" d="M163.5 30L170.071 36.5711C171.946 38.4464 174.49 39.5 177.142 39.5H193.358C196.01 39.5 198.554 40.5536 200.429 42.4289L213.5 55.5" stroke="#9FA1AB" stroke-width="3" stroke-linecap="round"/>
<path opacity="0.3" d="M220.231 46.8639L216.072 42.5L220.231 38.1361C221.835 36.4527 224.059 35.5 226.384 35.5H246.616C248.941 35.5 251.165 36.4527 252.769 38.1361L256.928 42.5L252.769 46.8639C251.165 48.5473 248.941 49.5 246.616 49.5H226.384C224.059 49.5 221.835 48.5473 220.231 46.8639Z" stroke="#9FA1AB" stroke-width="3" stroke-linecap="round"/>
<g opacity="0.3">
<mask id="path-17-inside-1_988_16091" fill="white">
<path d="M245.101 44H227.899C226.153 44 224.447 43.4776 223 42.5C224.447 41.5224 226.153 41 227.899 41H245.101C246.847 41 248.553 41.5224 250 42.5C248.553 43.4776 246.847 44 245.101 44Z"/>
</mask>
<path d="M223 42.5L221.32 40.0142L217.641 42.5L221.32 44.9858L223 42.5ZM250 42.5L251.68 44.9858L255.359 42.5L251.68 40.0142L250 42.5ZM227.899 47H245.101V41H227.899V47ZM245.101 38H227.899V44H245.101V38ZM227.899 38C225.554 38 223.263 38.7015 221.32 40.0142L224.68 44.9858C225.63 44.3433 226.752 44 227.899 44V38ZM251.68 40.0142C249.737 38.7015 247.446 38 245.101 38V44C246.248 44 247.37 44.3433 248.32 44.9858L251.68 40.0142ZM245.101 47C247.446 47 249.737 46.2985 251.68 44.9858L248.32 40.0142C247.37 40.6567 246.248 41 245.101 41V47ZM221.32 44.9858C223.263 46.2985 225.554 47 227.899 47V41C226.752 41 225.63 40.6567 224.68 40.0142L221.32 44.9858Z" fill="#9FA1AB" mask="url(#path-17-inside-1_988_16091)"/>
</g>
<path opacity="0.3" d="M84.1361 140.231L88.5 136.072L92.8639 140.231C94.5473 141.835 95.5 144.059 95.5 146.384V166.616C95.5 168.941 94.5473 171.165 92.8639 172.769L88.5 176.928L84.1361 172.769C82.4527 171.165 81.5 168.941 81.5 166.616V146.384C81.5 144.059 82.4527 141.835 84.1361 140.231Z" stroke="#9FA1AB" stroke-width="3" stroke-linecap="round"/>
<g opacity="0.3">
<mask id="path-20-inside-2_988_16091" fill="white">
<path d="M87 165.101V147.899C87 146.153 87.5224 144.447 88.5 143C89.4776 144.447 90 146.153 90 147.899V165.101C90 166.847 89.4776 168.553 88.5 170C87.5224 168.553 87 166.847 87 165.101Z"/>
</mask>
<path d="M88.5 143L90.9858 141.32L88.5 137.641L86.0142 141.32L88.5 143ZM88.5 170L86.0142 171.68L88.5 175.359L90.9858 171.68L88.5 170ZM84 147.899V165.101H90V147.899H84ZM93 165.101V147.899H87V165.101H93ZM93 147.899C93 145.554 92.2985 143.263 90.9858 141.32L86.0142 144.68C86.6567 145.63 87 146.752 87 147.899H93ZM90.9858 171.68C92.2985 169.737 93 167.446 93 165.101H87C87 166.248 86.6567 167.37 86.0142 168.32L90.9858 171.68ZM84 165.101C84 167.446 84.7015 169.737 86.0142 171.68L90.9858 168.32C90.3433 167.37 90 166.248 90 165.101H84ZM86.0142 141.32C84.7015 143.263 84 145.554 84 147.899H90C90 146.752 90.3433 145.63 90.9858 144.68L86.0142 141.32Z" fill="#9FA1AB" mask="url(#path-20-inside-2_988_16091)"/>
</g>
<path opacity="0.3" d="M152 30L165.571 43.5711C167.446 45.4464 169.99 46.5 172.642 46.5H189.163C191.633 46.5 194.016 47.4144 195.852 49.0671L203 55.5" stroke="#9FA1AB" stroke-width="3" stroke-linecap="round"/>
</g>
<g opacity="0.3">
<path opacity="0.3" d="M102 231L95.4289 224.429C93.5536 222.554 92.5 220.01 92.5 217.358V201.142C92.5 198.49 91.4464 195.946 89.5711 194.071L76.5 181" stroke="#9FA1AB" stroke-width="3" stroke-linecap="round"/>
<path opacity="0.3" d="M102 242.5L88.4289 228.929C86.5536 227.054 85.5 224.51 85.5 221.858V205.337C85.5 202.867 84.5856 200.484 82.9329 198.648L76.5 191.5" stroke="#9FA1AB" stroke-width="3" stroke-linecap="round"/>
</g>
<path d="M48.7161 242.682L47.613 242.083L46.8287 243.063L38.8287 253.063L36.8791 255.5H40H149H153.97L149.83 252.75L138.878 245.478L138.305 245.097L137.644 245.283L133.161 246.539C131.48 247.01 129.813 245.746 129.813 244V242.179L128.026 242.528L105.392 246.939C103.544 247.299 101.825 245.883 101.825 244V242.014L99.9147 242.557L81.3554 247.839C78.8064 248.565 76.2711 246.65 76.2711 244V241.478L74.055 242.682L65.4435 247.361C62.9129 248.736 59.8582 248.736 57.3276 247.361L48.7161 242.682Z" fill="white" stroke="#24C991" stroke-width="3"/>
<line x1="12.5" y1="255.5" x2="323.5" y2="255.5" stroke="#24C991" stroke-width="3" stroke-linecap="round"/>
<circle cx="148.18" cy="78.8661" r="6" transform="rotate(61.739 148.18 78.8661)" stroke="#9FA1AB" stroke-width="3"/>
<circle cx="198.84" cy="173.112" r="6" transform="rotate(61.739 198.84 173.112)" stroke="#9FA1AB" stroke-width="3"/>
<rect x="42.0314" y="105.274" width="97" height="160" rx="11.5" transform="rotate(-28.261 42.0314 105.274)" fill="#DADBDF" stroke="#9FA1AB" stroke-width="3"/>
<rect x="48.1955" y="101.96" width="97" height="160" rx="11.5" transform="rotate(-28.261 48.1955 101.96)" fill="white" stroke="#9FA1AB" stroke-width="3"/>
<path d="M150.383 221.301L133.648 230.297C129.756 232.389 124.905 230.93 122.813 227.039L60.7863 111.654C58.6943 107.762 60.1532 102.911 64.0448 100.819L80.78 91.8232L150.383 221.301Z" fill="#FFB8C0"/>
<rect x="189.559" y="184.348" width="4" height="4" rx="1" transform="rotate(61.739 189.559 184.348)" fill="#E0E0E4"/>
<rect x="194.294" y="193.156" width="4" height="4" rx="1" transform="rotate(61.739 194.294 193.156)" fill="#E0E0E4"/>
<rect x="188.403" y="190.646" width="4" height="4" rx="1" transform="rotate(61.739 188.403 190.646)" fill="#E0E0E4"/>
<rect x="182.512" y="188.136" width="4" height="4" rx="1" transform="rotate(61.739 182.512 188.136)" fill="#E0E0E4"/>
<rect x="187.247" y="196.944" width="4" height="4" rx="1" transform="rotate(61.739 187.247 196.944)" fill="#E0E0E4"/>
<rect x="181.356" y="194.434" width="4" height="4" rx="1" transform="rotate(61.739 181.356 194.434)" fill="#E0E0E4"/>
<rect x="175.466" y="191.924" width="4" height="4" rx="1" transform="rotate(61.739 175.466 191.924)" fill="#E0E0E4"/>
<rect x="180.2" y="200.732" width="4" height="4" rx="1" transform="rotate(61.739 180.2 200.732)" fill="#E0E0E4"/>
<rect x="174.31" y="198.222" width="4" height="4" rx="1" transform="rotate(61.739 174.31 198.222)" fill="#E0E0E4"/>
<rect x="168.419" y="195.712" width="4" height="4" rx="1" transform="rotate(61.739 168.419 195.712)" fill="#E0E0E4"/>
<rect x="173.154" y="204.52" width="4" height="4" rx="1" transform="rotate(61.739 173.154 204.52)" fill="#E0E0E4"/>
<rect x="167.264" y="202.01" width="4" height="4" rx="1" transform="rotate(61.739 167.264 202.01)" fill="#E0E0E4"/>
<rect x="161.373" y="199.5" width="4" height="4" rx="1" transform="rotate(61.739 161.373 199.5)" fill="#E0E0E4"/>
<rect x="166.107" y="208.308" width="4" height="4" rx="1" transform="rotate(61.739 166.107 208.308)" fill="#E0E0E4"/>
<rect x="160.217" y="205.798" width="4" height="4" rx="1" transform="rotate(61.739 160.217 205.798)" fill="#E0E0E4"/>
<rect x="154.326" y="203.288" width="4" height="4" rx="1" transform="rotate(61.739 154.326 203.288)" fill="#E0E0E4"/>
<rect x="159.062" y="212.096" width="4" height="4" rx="1" transform="rotate(61.739 159.062 212.096)" fill="#E0E0E4"/>
<rect x="126.582" y="67.2018" width="4" height="4" rx="1" transform="rotate(61.739 126.582 67.2018)" fill="#E0E0E4"/>
<rect x="131.317" y="76.0098" width="4" height="4" rx="1" transform="rotate(61.739 131.317 76.0098)" fill="#E0E0E4"/>
<rect x="125.427" y="73.4998" width="4" height="4" rx="1" transform="rotate(61.739 125.427 73.4998)" fill="#E0E0E4"/>
<rect x="119.535" y="70.9897" width="4" height="4" rx="1" transform="rotate(61.739 119.535 70.9897)" fill="#E0E0E4"/>
<rect x="124.271" y="79.7977" width="4" height="4" rx="1" transform="rotate(61.739 124.271 79.7977)" fill="#E0E0E4"/>
<rect x="118.38" y="77.2877" width="4" height="4" rx="1" transform="rotate(61.739 118.38 77.2877)" fill="#E0E0E4"/>
<rect x="112.489" y="74.7776" width="4" height="4" rx="1" transform="rotate(61.739 112.489 74.7776)" fill="#E0E0E4"/>
<rect x="117.224" y="83.5856" width="4" height="4" rx="1" transform="rotate(61.739 117.224 83.5856)" fill="#E0E0E4"/>
<rect x="111.333" y="81.0756" width="4" height="4" rx="1" transform="rotate(61.739 111.333 81.0756)" fill="#E0E0E4"/>
<rect x="105.442" y="78.5655" width="4" height="4" rx="1" transform="rotate(61.739 105.442 78.5655)" fill="#E0E0E4"/>
<rect x="110.178" y="87.3735" width="4" height="4" rx="1" transform="rotate(61.739 110.178 87.3735)" fill="#E0E0E4"/>
<rect x="104.287" y="84.8635" width="4" height="4" rx="1" transform="rotate(61.739 104.287 84.8635)" fill="#E0E0E4"/>
<rect x="98.3965" y="82.3534" width="4" height="4" rx="1" transform="rotate(61.739 98.3965 82.3534)" fill="#E0E0E4"/>
<rect x="103.131" y="91.1614" width="4" height="4" rx="1" transform="rotate(61.739 103.131 91.1614)" fill="#E0E0E4"/>
<rect x="97.2402" y="88.6514" width="4" height="4" rx="1" transform="rotate(61.739 97.2402 88.6514)" fill="#E0E0E4"/>
<rect x="91.3496" y="86.1413" width="4" height="4" rx="1" transform="rotate(61.739 91.3496 86.1413)" fill="#E0E0E4"/>
<rect x="96.085" y="94.9493" width="4" height="4" rx="1" transform="rotate(61.739 96.085 94.9493)" fill="#E0E0E4"/>
<path d="M78.0002 187.5L78.0004 175L101 218L101 229.5L78.0002 187.5Z" fill="#9FA1AB"/>
<defs>
<linearGradient id="paint0_linear_988_16091" x1="386" y1="202" x2="185" y2="10" gradientUnits="userSpaceOnUse">
<stop stop-color="#9FA1AB"/>
<stop offset="1" stop-color="white"/>
</linearGradient>
<linearGradient id="paint1_linear_988_16091" x1="50" y1="73.5" x2="111" y2="-3.50001" gradientUnits="userSpaceOnUse">
<stop stop-color="#9FA1AB"/>
<stop offset="1" stop-color="white"/>
</linearGradient>
<linearGradient id="paint2_linear_988_16091" x1="89" y1="-25" x2="158.689" y2="62.006" gradientUnits="userSpaceOnUse">
<stop stop-color="#9FA1AB"/>
<stop offset="1" stop-color="white"/>
</linearGradient>
</defs>
</svg>
