<svg width="128" height="33" viewBox="0 0 128 33" fill="none" xmlns="http://www.w3.org/2000/svg">
<g filter="url(#filter0_d_3063_76269)">
<path d="M16.4544 16.2606C16.4544 14.3723 15.8722 12.8564 14.7331 11.6596C13.5939 10.4628 12.1764 9.87766 10.455 9.87766C8.53118 9.87766 6.96172 10.516 5.77197 11.766C4.58222 13.016 4 14.5851 4 16.5266C4 18.4415 4.60753 20.0372 5.79728 21.2872C7.01235 22.5372 8.5818 23.1755 10.5057 23.1755C13.3661 23.1755 15.6697 21.6064 16.3025 19.1596H12.632C12.2523 19.7979 11.5688 20.117 10.5816 20.117C8.98682 20.117 7.97427 19.3723 7.54394 17.8564H16.3785C16.4291 17.5106 16.4544 16.9787 16.4544 16.2606ZM10.3538 12.9096C11.7967 12.9096 12.7586 13.7872 12.9611 15.2766H7.49331C7.87301 13.7074 8.83494 12.9096 10.3538 12.9096Z" fill="white"/>
<path d="M30.0823 10.1436H26.3612L23.0451 18.2021L19.729 10.1436H16.0079L21.4756 22.883H24.6146L30.0823 10.1436Z" fill="white"/>
<path d="M42.8025 16.2606C42.8025 14.3723 42.2203 12.8564 41.0812 11.6596C39.9421 10.4628 38.5245 9.87766 36.8032 9.87766C34.8793 9.87766 33.3099 10.516 32.1201 11.766C30.9304 13.016 30.3481 14.5851 30.3481 16.5266C30.3481 18.4415 30.9557 20.0372 32.1454 21.2872C33.3605 22.5372 34.9299 23.1755 36.8538 23.1755C39.7143 23.1755 42.0178 21.6064 42.6507 19.1596H38.9801C38.6004 19.7979 37.917 20.117 36.9297 20.117C35.335 20.117 34.3224 19.3723 33.8921 17.8564H42.7266C42.7772 17.5106 42.8025 16.9787 42.8025 16.2606ZM36.7019 12.9096C38.1448 12.9096 39.1067 13.7872 39.3092 15.2766H33.8414C34.2211 13.7074 35.1831 12.9096 36.7019 12.9096Z" fill="white"/>
<path d="M47.712 10.1436H44.1934V22.883H47.712V15.2766C48.6993 14.133 50.1168 13.5213 51.9648 13.4415V9.93085C50.2687 9.93085 48.8512 10.4894 47.712 11.5798V10.1436Z" fill="white"/>
<path d="M67.5974 10.117H63.9016L60.3577 18.8138L56.434 10.117H52.6876L58.5857 23.2021L56.2315 29H59.9273L67.5974 10.117Z" fill="white"/>
<path d="M75.9451 9.74468C74.6794 9.74468 73.5149 10.1702 72.4771 11.0479V10.1436H68.9584V22.883H72.4771V14.6915C73.3124 13.6277 74.1984 13.0957 75.135 13.0957C76.7804 13.0957 77.7423 14.1862 77.7423 16.2074V22.883H81.261V15.8883C81.261 14.0266 80.78 12.5372 79.7928 11.4202C78.8308 10.3032 77.5398 9.74468 75.9451 9.74468Z" fill="white"/>
<path d="M89.0724 9.87766C87.1992 9.87766 85.6551 10.516 84.4147 11.766C83.1743 13.016 82.5668 14.5851 82.5668 16.5266C82.5668 18.4681 83.1743 20.0904 84.4147 21.367C85.6551 22.6436 87.1992 23.2819 89.0724 23.2819C90.9204 23.2819 92.4645 22.6436 93.6796 21.367C94.92 20.0904 95.5275 18.4681 95.5275 16.5266C95.5275 14.5851 94.92 13.016 93.6796 11.766C92.4645 10.516 90.9204 9.87766 89.0724 9.87766ZM89.0724 19.984C87.2498 19.984 86.0348 18.4681 86.0348 16.5266C86.0348 14.6117 87.2498 13.1755 89.0724 13.1755C90.8697 13.1755 92.0595 14.6117 92.0595 16.5266C92.0595 18.4681 90.8697 19.984 89.0724 19.984Z" fill="white"/>
<path d="M102.942 9.87766C101.068 9.87766 99.5243 10.516 98.2839 11.766C97.0435 13.016 96.436 14.5851 96.436 16.5266C96.436 18.4681 97.0435 20.0904 98.2839 21.367C99.5243 22.6436 101.068 23.2819 102.942 23.2819C104.79 23.2819 106.334 22.6436 107.549 21.367C108.789 20.0904 109.397 18.4681 109.397 16.5266C109.397 14.5851 108.789 13.016 107.549 11.766C106.334 10.516 104.79 9.87766 102.942 9.87766ZM102.942 19.984C101.119 19.984 99.904 18.4681 99.904 16.5266C99.904 14.6117 101.119 13.1755 102.942 13.1755C104.739 13.1755 105.929 14.6117 105.929 16.5266C105.929 18.4681 104.739 19.984 102.942 19.984Z" fill="white"/>
<path d="M116.355 18.0957L119.57 22.883H124L118.76 15.4096L123.468 10.1436H119.089L114.406 15.4362V4H110.887V22.883H114.406V20.25L116.355 18.0957Z" fill="white"/>
</g>
<defs>
<filter id="filter0_d_3063_76269" x="0" y="0" width="128" height="33" filterUnits="userSpaceOnUse" color-interpolation-filters="sRGB">
<feFlood flood-opacity="0" result="BackgroundImageFix"/>
<feColorMatrix in="SourceAlpha" type="matrix" values="0 0 0 0 0 0 0 0 0 0 0 0 0 0 0 0 0 0 127 0" result="hardAlpha"/>
<feOffset/>
<feGaussianBlur stdDeviation="2"/>
<feComposite in2="hardAlpha" operator="out"/>
<feColorMatrix type="matrix" values="0 0 0 0 0 0 0 0 0 0 0 0 0 0 0 0 0 0 0.5 0"/>
<feBlend mode="normal" in2="BackgroundImageFix" result="effect1_dropShadow_3063_76269"/>
<feBlend mode="normal" in="SourceGraphic" in2="effect1_dropShadow_3063_76269" result="shape"/>
</filter>
</defs>
</svg>
