<svg width="150" height="150" viewBox="0 0 150 150" fill="none" xmlns="http://www.w3.org/2000/svg">
<circle cx="75" cy="75" r="75" fill="#FA4B5F" fill-opacity="0.2"/>
<path d="M133.946 75.8057C109.584 104.926 66.723 67.7462 43.1599 99.6764L41.8064 94.8776V94.8571C37.1102 78.0615 32.414 61.259 27.7178 44.4497C27.2666 42.8502 26.8359 41.2506 26.3848 39.651C49.9479 7.72084 92.829 44.9009 117.171 15.7803C118.361 14.3448 119.489 14.96 119.243 17.0517C119.12 18.0361 118.976 19.0205 118.853 19.9843C117.438 30.2381 115.715 39.3434 113.747 47.5874C113.193 49.9047 112.639 52.14 112.045 54.3343C112.007 54.4897 111.98 54.6472 111.962 54.806C111.941 55.3808 112.173 55.936 112.598 56.3236C118.706 61.8647 125.469 66.6374 132.737 70.5353C133.311 70.8224 133.864 71.089 134.418 71.335C135.362 71.7452 135.136 74.3702 133.946 75.8057Z" fill="#E64C3C"/>
<path d="M133.947 75.8057C109.584 104.926 66.7238 67.7462 43.1607 99.6764C42.7096 98.0768 39.1618 97.8922 38.7106 96.2926V96.2721C34.0144 79.4765 29.3182 62.6741 24.622 45.8648C24.1708 44.2652 26.8368 41.2506 26.3856 39.651C49.9487 7.72084 92.8298 44.9009 117.172 15.7803C118.362 14.3448 119.49 14.96 119.243 17.0517C119.12 18.0361 118.977 19.0205 118.854 19.9843C117.439 30.2381 115.716 39.3434 113.747 47.5874C113.194 49.9047 112.64 52.14 112.045 54.3343C112.008 54.4897 111.981 54.6472 111.963 54.806C111.941 55.3808 112.174 55.936 112.599 56.3236C118.707 61.8647 125.47 66.6374 132.737 70.5353C133.312 70.8224 133.865 71.089 134.419 71.335C135.362 71.7452 135.137 74.3702 133.947 75.8057Z" fill="#E64C3C"/>
<path d="M19.7669 35.503L20.0499 35.4239C21.3142 35.0708 22.6669 35.2343 23.8105 35.8785C24.9542 36.5228 25.7951 37.5949 26.1482 38.8591L51.1725 128.444C51.7609 130.551 50.5304 132.735 48.4243 133.323L46.2346 133.935C44.1284 134.523 41.9442 133.293 41.3559 131.187L16.3315 41.6013C15.5961 38.9687 17.1341 36.2384 19.7667 35.503L19.7669 35.503Z" fill="#CF976A"/>
</svg>
