<svg width="80" height="72" viewBox="0 0 80 72" fill="none" xmlns="http://www.w3.org/2000/svg">
<path d="M73.6536 7.34033C69.5123 2.84875 63.83 0.375 57.652 0.375C53.0341 0.375 48.8049 1.83496 45.0818 4.71399C43.2031 6.16724 41.5009 7.94519 40 10.0204C38.4998 7.9458 36.7969 6.16724 34.9176 4.71399C31.1951 1.83496 26.9659 0.375 22.348 0.375C16.17 0.375 10.4871 2.84875 6.34583 7.34033C2.25403 11.7794 0 17.8439 0 24.4174C0 31.1831 2.52136 37.3763 7.93457 43.9083C12.7771 49.7512 19.7369 55.6826 27.7966 62.5509C30.5487 64.8965 33.6682 67.5552 36.9073 70.3872C37.7631 71.1367 38.8611 71.5493 40 71.5493C41.1383 71.5493 42.2369 71.1367 43.0914 70.3884C46.3306 67.5558 49.4519 64.8959 52.2052 62.5491C60.2637 55.682 67.2235 49.7512 72.066 43.9077C77.4792 37.3763 80 31.1831 80 24.4167C80 17.8439 77.746 11.7794 73.6536 7.34033Z" fill="url(#paint0_linear_2598_61766)"/>
<defs>
<linearGradient id="paint0_linear_2598_61766" x1="40" y1="0.375" x2="40" y2="71.5493" gradientUnits="userSpaceOnUse">
<stop stop-color="#FD003A"/>
<stop offset="1" stop-color="#FA4B5F"/>
</linearGradient>
</defs>
</svg>
