<svg width="150" height="150" viewBox="0 0 150 150" fill="none" xmlns="http://www.w3.org/2000/svg">
<circle cx="75" cy="75" r="75" fill="#1AACFF" fill-opacity="0.2"/>
<g clip-path="url(#clip0_5701_167255)">
<path d="M83.1091 29.0298H66.887C62.668 29.0298 59.248 32.4498 59.248 36.6688V52.3522H90.748V36.6688C90.748 32.4498 87.3278 29.0298 83.1091 29.0298Z" fill="#FE76A8"/>
<path d="M75.1363 29.0298C70.9176 29.0298 67.498 32.4493 67.498 36.6681V52.3524H59.248V36.6681C59.248 32.4493 62.6676 29.0298 66.8863 29.0298H75.1363Z" fill="#FE5694"/>
<path d="M84.3234 26.0835C84.3234 31.2351 80.1492 35.4116 74.9977 35.4116C69.8461 35.4116 65.6719 31.2351 65.6719 26.0835C65.6719 24.853 65.9109 23.6788 66.3445 22.603C70.1386 24.1579 71.0766 23.301 74.9977 23.301C78.9187 23.301 79.3378 24.426 83.6508 22.603C84.0844 23.6788 84.3234 24.853 84.3234 26.0835Z" fill="#FFDFCF"/>
<path d="M83.652 22.6031C82.2738 26.032 78.9199 28.4508 74.9988 28.4508C71.0777 28.4508 67.7238 26.032 66.3457 22.6031C67.7238 19.1766 71.0777 16.7578 74.9988 16.7578C78.9199 16.7578 82.2738 19.1766 83.652 22.6031Z" fill="#7A6D79"/>
<path d="M83.1091 120.97H66.887C62.668 120.97 59.248 117.55 59.248 113.331V97.6475H90.748V113.331C90.748 117.55 87.3278 120.97 83.1091 120.97Z" fill="#8AC9FE"/>
<path d="M75.1363 120.97C70.9176 120.97 67.498 117.551 67.498 113.332V97.6475H59.248V113.332C59.248 117.551 62.6676 120.97 66.8863 120.97H75.1363Z" fill="#60B7FF"/>
<path d="M84.3254 123.917C84.3254 118.765 80.1512 114.588 74.9996 114.588C69.848 114.588 65.6738 118.765 65.6738 123.917C65.6738 125.147 65.9129 126.321 66.3465 127.397C70.1405 125.842 71.0785 126.699 74.9996 126.699C78.9207 126.699 79.3398 125.574 83.6527 127.397C84.0863 126.321 84.3254 125.147 84.3254 123.917Z" fill="#FFDFCF"/>
<path d="M83.652 127.397C82.2738 123.968 78.9199 121.549 74.9988 121.549C71.0777 121.549 67.7238 123.968 66.3457 127.397C67.7238 130.824 71.0777 133.242 74.9988 133.242C78.9199 133.242 82.2738 130.824 83.652 127.397Z" fill="#7A6D79"/>
<path d="M39.2431 44.9907L31.1321 59.0394C29.0227 62.693 30.2745 67.3651 33.9282 69.4744L47.5104 77.3161L63.2604 50.0363L49.6782 42.1946C46.0245 40.0852 41.3525 41.337 39.2431 44.9907Z" fill="#8AC9FE"/>
<path d="M35.2571 51.895C33.1477 55.5485 34.3993 60.2198 38.053 62.3292L51.6359 70.1713L47.5109 77.316L33.928 69.4738C30.2745 67.3645 29.0227 62.6934 31.1321 59.0397L35.2571 51.895Z" fill="#60B7FF"/>
<path d="M37.2984 42.4654C41.7598 45.0412 43.2898 50.7445 40.714 55.2058C38.1382 59.6671 32.434 61.1939 27.9727 58.6181C26.907 58.0029 26.0098 57.2088 25.2949 56.2954C28.5384 53.7869 28.2654 52.5464 30.2259 49.1505C32.1865 45.7546 33.3703 45.9543 33.948 41.3076C35.0962 41.47 36.2327 41.8502 37.2984 42.4654Z" fill="#AE6C6C"/>
<path d="M33.9484 41.3076C36.2289 44.2155 36.6466 48.3295 34.686 51.7254C32.7255 55.1212 28.9539 56.8162 25.2953 56.2954C23.0169 53.3887 22.5991 49.2747 24.5596 45.8789C26.5204 42.483 30.2919 40.788 33.9484 41.3076Z" fill="#7A6D79"/>
<path d="M118.867 90.9609L110.756 105.01C108.646 108.663 103.974 109.915 100.321 107.806L86.7383 99.9639L102.488 72.6841L116.071 80.5258C119.724 82.6354 120.976 87.3072 118.867 90.9609Z" fill="#9BE69D"/>
<path d="M114.88 97.8657C112.771 101.519 108.1 102.771 104.446 100.662L90.8633 92.8193L86.7383 99.964L100.321 107.806C103.975 109.916 108.646 108.664 110.755 105.01L114.88 97.8657Z" fill="#6FD7A3"/>
<path d="M122.025 91.3821C117.564 88.8063 111.86 90.333 109.284 94.7943C106.708 99.2557 108.238 104.959 112.7 107.535C113.765 108.15 114.902 108.53 116.05 108.692C116.601 104.629 117.812 104.245 119.772 100.85C121.733 97.4538 120.968 96.5285 124.703 93.7047C123.989 92.7914 123.091 91.9973 122.025 91.3821Z" fill="#FFDFCF"/>
<path d="M124.704 93.7045C121.046 93.1835 117.274 94.8788 115.313 98.2746C113.353 101.67 113.771 105.784 116.051 108.692C119.707 109.212 123.479 107.517 125.44 104.121C127.4 100.725 126.982 96.6115 124.704 93.7045Z" fill="#7A6D79"/>
<path d="M31.1321 90.9609L39.2431 105.01C41.3525 108.663 46.0245 109.915 49.6782 107.806L63.2604 99.9639L47.5104 72.6841L33.9282 80.5258C30.2745 82.6354 29.0227 87.3072 31.1321 90.9609Z" fill="#7A6D79"/>
<path d="M35.1191 97.8657C37.2285 101.519 41.8996 102.771 45.5533 100.662L59.1363 92.8193L63.2612 99.964L49.6783 107.806C46.0248 109.916 41.3535 108.664 39.2441 105.01L35.1191 97.8657Z" fill="#685E68"/>
<path d="M27.9727 91.3821C32.434 88.8063 38.1382 90.333 40.714 94.7943C43.2898 99.2557 41.7598 104.959 37.2984 107.535C36.2327 108.15 35.0965 108.53 33.948 108.692C33.3975 104.629 32.1865 104.245 30.2259 100.85C28.2654 97.4538 29.0302 96.5285 25.2949 93.7047C26.0095 92.7914 26.907 91.9973 27.9727 91.3821Z" fill="#FFDFCF"/>
<path d="M25.2952 93.7045C28.9538 93.1835 32.7254 94.8788 34.6859 98.2746C36.6465 101.67 36.2288 105.784 33.9483 108.692C30.2918 109.212 26.5201 107.517 24.5595 104.121C22.5992 100.725 23.0168 96.6115 25.2952 93.7045Z" fill="#7A6D79"/>
<path d="M110.756 44.9907L118.867 59.0394C120.976 62.693 119.724 67.3651 116.071 69.4744L102.488 77.3161L86.7383 50.0363L100.321 42.1946C103.974 40.0852 108.646 41.337 110.756 44.9907Z" fill="#FFE177"/>
<path d="M114.742 51.895C116.851 55.5485 115.6 60.2198 111.946 62.3292L98.3633 70.1713L102.488 77.316L116.071 69.4738C119.725 67.3645 120.976 62.6934 118.867 59.0397L114.742 51.895Z" fill="#FECE85"/>
<path d="M112.7 42.4654C108.238 45.0412 106.708 50.7445 109.284 55.2058C111.86 59.6671 117.564 61.1939 122.025 58.6181C123.091 58.0029 123.988 57.2088 124.703 56.2954C121.46 53.7869 121.733 52.5464 119.772 49.1505C117.812 45.7546 116.628 45.9543 116.05 41.3076C114.902 41.47 113.765 41.8502 112.7 42.4654Z" fill="#AE6C6C"/>
<path d="M116.051 41.3076C113.771 44.2155 113.353 48.3295 115.313 51.7254C117.274 55.1212 121.046 56.8162 124.704 56.2954C126.982 53.3887 127.4 49.2747 125.44 45.8789C123.479 42.483 119.707 40.788 116.051 41.3076Z" fill="#7A6D79"/>
<path d="M74.9986 106.692C92.5016 106.692 106.691 92.503 106.691 75.0001C106.691 57.4971 92.5016 43.3081 74.9986 43.3081C57.4956 43.3081 43.3066 57.4971 43.3066 75.0001C43.3066 92.503 57.4956 106.692 74.9986 106.692Z" fill="#DC8758"/>
<path d="M79.965 67.3735L74.7258 79.8008C74.4019 80.5693 73.5164 80.9295 72.7479 80.6056L55.2246 73.2181C54.4561 72.8942 54.0958 72.0087 54.4197 71.2402L59.659 58.813C59.9829 58.0445 60.8683 57.6842 61.6369 58.0081L79.1601 65.3956C79.9287 65.7195 80.2889 66.6052 79.965 67.3735Z" fill="#D8ECFE"/>
<path d="M95.9364 81.6125L83.5677 86.9886C82.8029 87.321 81.9135 86.9706 81.5811 86.2058L74.0005 68.765C73.6682 68.0003 74.0186 67.1108 74.7833 66.7785L87.152 61.4024C87.9168 61.07 88.8062 61.4204 89.1386 62.1852L96.7192 79.626C97.0515 80.3907 96.7011 81.2802 95.9364 81.6125Z" fill="#F5F8F9"/>
<path d="M93.7723 90.9272L81.4036 96.3033C80.6389 96.6357 79.7494 96.2853 79.4171 95.5205L71.8364 78.0797C71.5041 77.315 71.8545 76.4255 72.6193 76.0932L84.9879 70.7173C85.7527 70.385 86.6422 70.7354 86.9745 71.5001L94.5551 88.9409C94.8875 89.7054 94.5371 90.5949 93.7723 90.9272Z" fill="#F5F8F9"/>
<path d="M77.7418 106.46C76.8371 106.539 75.9207 106.579 74.9949 106.579C57.4918 106.579 43.3027 92.3901 43.3027 74.887C43.3027 57.3839 57.4918 43.1948 74.9949 43.1948C75.9207 43.1948 76.8371 43.2347 77.7418 43.3144C61.5254 44.7042 48.7965 58.3097 48.7965 74.887C48.7965 91.4644 61.5254 105.07 77.7418 106.46Z" fill="#C57A44"/>
<path d="M80.0312 101.162L82.8062 103.937V113.331H90.7492V102.123C90.7492 101.176 90.3719 100.267 89.7016 99.5968L85.6492 95.5444L81.6559 97.2401L80.0312 101.162Z" fill="#8AC9FE"/>
<path d="M78.9666 100.098L80.0307 101.162L85.6486 95.5444L84.5846 94.4804C83.8088 93.7046 82.7916 93.3179 81.7768 93.3179C80.7596 93.3179 79.7424 93.7046 78.9666 94.4804C77.4174 96.0319 77.4174 98.5468 78.9666 100.098Z" fill="#FFDFCF"/>
<path d="M104.292 49.0735L96.1573 53.7704L95.2379 57.1993L92.1062 58.5495C91.5383 60.6678 88.3618 59.9651 88.9297 57.8457L87.5645 55.1415L88.9508 49.9674C89.1959 49.0522 89.7948 48.2719 90.6153 47.7983L100.321 42.1948" fill="#FFE177"/>
<path d="M90.9184 61.9572C90.5786 61.9572 90.2317 61.9127 89.8872 61.8213C87.7708 61.2518 86.5122 59.0744 87.0794 56.958L87.5645 55.1416L95.238 57.1994L94.7528 59.0135C94.277 60.7877 92.6739 61.9572 90.9184 61.9572Z" fill="#9B5E5E"/>
<path d="M37.8992 87.4044L46.0344 82.7075L49.4614 83.6251C49.4614 83.6251 53.2421 82.7947 53.8102 80.6764C54.3786 78.5572 51.5192 75.9519 51.5192 75.9519L46.344 74.5651C45.4287 74.3199 44.4537 74.4481 43.6332 74.922L33.9277 80.5255L37.8992 87.4044Z" fill="#7A6D79"/>
<path d="M56.2766 80.2722C56.2766 80.612 56.232 80.9589 56.1406 81.3034C55.5711 83.4198 53.3937 84.6784 51.2773 84.1112L49.4609 83.6261L51.5187 75.9526L53.3328 76.4378C55.107 76.9136 56.2766 78.5167 56.2766 80.2722Z" fill="#FFDFCF"/>
<path d="M69.966 101.164L67.191 103.939V113.333H59.248V102.125C59.248 101.178 59.6254 100.269 60.2957 99.5987L64.348 95.5464L68.3413 97.2421L69.966 101.164Z" fill="#60B7FF"/>
<path d="M71.0297 100.1L69.9656 101.164L64.3477 95.5464L65.4117 94.4823C66.1875 93.7065 67.2047 93.3198 68.2195 93.3198C69.2367 93.3198 70.2539 93.7065 71.0297 94.4823C72.5789 96.0339 72.5789 98.5487 71.0297 100.1Z" fill="#FFDFCF"/>
<path d="M122.904 89.8582C122.425 89.5816 121.933 89.3466 121.434 89.1488C122.309 85.2204 120.58 81.0996 116.949 79.0036L110.015 75L116.95 70.9962C120.58 68.9002 122.31 64.7787 121.434 60.8496C121.935 60.6502 122.427 60.4167 122.903 60.1418C126.587 58.0153 128.75 53.8992 128.412 49.6556C128.335 48.6879 127.485 47.9651 126.521 48.0429C125.553 48.12 124.831 48.9668 124.908 49.9345C125.041 51.6073 124.603 53.2493 123.727 54.6195C120.914 54.7507 118.265 53.3241 116.834 50.8462C115.404 48.3684 115.493 45.3602 117.013 42.9905C118.638 42.9176 120.279 43.3596 121.662 44.3121C122.462 44.8629 123.556 44.6613 124.107 43.8619C124.658 43.0624 124.456 41.9679 123.657 41.4171C120.15 39.0014 115.504 38.8148 111.819 40.9413C111.343 41.2165 110.892 41.5233 110.468 41.8584C107.503 39.138 103.071 38.576 99.4417 40.6713L92.5236 44.6655L92.507 44.6752V36.668C92.507 32.4762 89.803 28.9184 85.9632 27.712C86.0418 27.1807 86.0837 26.6374 86.0837 26.0845C86.0837 19.9725 81.1112 15 74.9992 15C68.8871 15 63.9146 19.9725 63.9146 26.0845C63.9146 26.6374 63.9566 27.1805 64.0351 27.712C60.1954 28.9184 57.4914 32.4762 57.4914 36.668V44.6756L50.5567 40.6718C46.9264 38.5758 42.4932 39.1388 39.5286 41.8608C39.1077 41.527 38.6584 41.2191 38.1796 40.9427C32.8862 37.8867 26.0938 39.7069 23.0375 45C19.9815 50.2931 21.8017 57.0858 27.0948 60.1418C27.5736 60.4184 28.0656 60.6511 28.565 60.8487C27.6887 64.778 29.4177 68.8999 33.0486 70.9962L39.9836 75L33.0486 79.0038C29.4184 81.0996 27.6892 85.2204 28.5643 89.149C28.0649 89.3466 27.5734 89.5819 27.0946 89.8584C21.8024 92.9145 19.9818 99.7071 23.0375 105C25.0883 108.552 28.8219 110.54 32.6558 110.54C34.535 110.54 36.4384 110.062 38.1793 109.057C38.6586 108.78 39.1084 108.472 39.5298 108.138C41.2785 109.744 43.5357 110.601 45.8408 110.601C47.4432 110.601 49.0679 110.188 50.5567 109.328L57.4914 105.324V109.23C57.4914 110.201 58.2784 110.988 59.2492 110.988C60.22 110.988 61.007 110.201 61.007 109.23V102.506V102.124C61.007 101.647 61.2013 101.178 61.5374 100.841L64.3468 98.0311L67.4797 101.164L65.949 102.696C65.6195 103.025 65.4346 103.472 65.4346 103.938V110.191C65.4346 111.162 66.2216 111.949 67.1924 111.949C68.1632 111.949 68.9502 111.162 68.9502 110.191V107.902C70.9342 108.265 72.9604 108.45 74.9994 108.45C77.0336 108.45 79.0597 108.264 81.0486 107.901V110.19C81.0486 111.161 81.8357 111.948 82.8064 111.948C83.7772 111.948 84.5643 111.161 84.5643 110.19V103.937C84.5643 103.471 84.3791 103.024 84.0496 102.695L82.5175 101.162L85.6492 98.0304L88.46 100.841C88.8027 101.184 88.9916 101.64 88.9916 102.124V113.331V113.333C88.9911 115.956 87.2999 118.183 84.8982 118.937C83.0713 115.319 79.3215 112.831 74.9994 112.831C70.6789 112.831 66.9308 115.317 65.1029 118.932C63.763 118.504 62.5965 117.6 61.8552 116.374C61.3527 115.544 60.2722 115.277 59.4414 115.78C58.6107 116.282 58.3445 117.363 58.8468 118.193C60.0304 120.151 61.8943 121.595 64.0365 122.28C63.9573 122.814 63.9151 123.36 63.9151 123.916C63.9151 130.028 68.8876 135 74.9996 135C81.1117 135 86.0842 130.028 86.0842 123.916C86.0842 123.363 86.0422 122.82 85.9637 122.288C89.8035 121.082 92.5075 117.524 92.5075 113.332V105.325L99.4421 109.328C100.931 110.188 102.555 110.601 104.158 110.601C106.463 110.601 108.72 109.744 110.469 108.139C110.89 108.473 111.34 108.781 111.819 109.058C113.561 110.063 115.463 110.541 117.343 110.541C121.176 110.54 124.91 108.552 126.961 105C130.017 99.7069 128.197 92.9142 122.904 89.8582ZM74.9992 116.347C78.7482 116.347 81.8678 119.087 82.4638 122.67C80.4693 120.851 77.8342 119.791 74.9992 119.791C72.1644 119.791 69.5291 120.851 67.5346 122.67C68.1306 119.087 71.2501 116.347 74.9992 116.347ZM74.9992 131.484C72.0803 131.484 69.5439 129.823 68.2815 127.396C69.5732 124.892 72.1353 123.307 74.9992 123.307C77.8628 123.307 80.4252 124.892 81.7168 127.396C80.4545 129.823 77.9181 131.484 74.9992 131.484ZM112.55 44.6984C111.971 47.3358 112.372 50.1485 113.79 52.6043C115.208 55.0615 117.447 56.8109 120.023 57.6277C118.553 58.1836 116.95 58.2684 115.402 57.8536C113.449 57.3302 111.817 56.0775 110.806 54.3255C109.795 52.575 109.526 50.5355 110.049 48.5827C110.464 47.0367 111.336 45.6933 112.55 44.6984ZM108.093 44.4567C107.454 45.4327 106.964 46.5131 106.654 47.6728C105.887 50.5329 106.281 53.52 107.761 56.0836C109.242 58.6484 111.632 60.483 114.492 61.2497C115.447 61.5056 116.416 61.6322 117.379 61.6322C117.587 61.6322 117.794 61.6235 118.001 61.6118C118.544 64.0669 117.462 66.6412 115.192 67.9519L108.308 71.9259C107.683 65.0456 104.964 58.5839 100.467 53.3114L102.626 52.0648C103.467 51.5794 103.755 50.5043 103.269 49.6636C102.784 48.8227 101.709 48.5348 100.868 49.0202L95.2771 52.2483C94.8735 52.4812 94.5789 52.8652 94.4582 53.3154L93.9939 55.0467L89.7156 53.9006L90.6475 50.4225C90.7729 49.9542 91.0731 49.563 91.4929 49.3205L101.198 43.717C101.199 43.7168 101.199 43.7168 101.199 43.7166C103.47 42.4059 106.239 42.7582 108.093 44.4567ZM80.2119 95.7251C80.63 95.3067 81.186 95.0763 81.7775 95.0763C82.2831 95.0763 82.7619 95.2458 83.1517 95.5556L80.0427 98.6646C79.3546 97.7962 79.4101 96.5273 80.2119 95.7251ZM85.2343 92.7209C84.2443 91.9688 83.0427 91.5607 81.7778 91.5607C81.7775 91.5607 81.7773 91.5607 81.7773 91.5607C81.0807 91.5607 80.4039 91.6856 79.7704 91.9221L73.5458 77.6058L85.4603 72.4296L92.8447 89.4148L85.2343 92.7209ZM71.9157 74.4806C70.6768 75.0204 69.94 76.2436 69.9543 77.5205L56.1367 71.6955L61.1823 59.7237L74.0861 65.1645L74.0814 65.1666C72.4304 65.8856 71.6708 67.8143 72.3885 69.4662L74.1463 73.5115L71.9157 74.4806ZM88.5875 70.8049C88.2418 70.0029 87.6041 69.3844 86.7918 69.0633C85.9782 68.7415 85.0883 68.757 84.2879 69.1057L77.3711 72.1106L75.7114 68.2915L87.6257 63.1123L95.0073 80.0986L93.006 80.9679L88.5875 70.8049ZM90.3414 60.1233C89.77 59.9702 89.2923 59.6039 88.9965 59.0916C88.7007 58.5792 88.622 57.9825 88.7753 57.4113L88.806 57.2962L93.0836 58.4421L93.0526 58.5579C92.7367 59.7366 91.5196 60.4392 90.3414 60.1233ZM74.9992 18.5156C77.9181 18.5156 80.4545 20.1773 81.7168 22.6036C80.4252 25.1084 77.863 26.693 74.9992 26.693C72.1356 26.693 69.5732 25.1084 68.2815 22.6036C69.5439 20.1773 72.0803 18.5156 74.9992 18.5156ZM82.4638 27.3305C81.8678 30.9131 78.7482 33.6534 74.9992 33.6534C71.2501 33.6534 68.1306 30.9129 67.5346 27.3305C69.5291 29.1495 72.1642 30.2086 74.9992 30.2086C77.8339 30.2086 80.4693 29.1495 82.4638 27.3305ZM65.1003 31.0631C66.9273 34.6809 70.6771 37.1691 74.9992 37.1691C79.3213 37.1691 83.0711 34.6809 84.898 31.0631C87.2999 31.8176 88.9914 34.0444 88.9914 36.668V44.6135C84.6261 42.6033 79.8475 41.55 74.9992 41.55C70.0825 41.55 65.3357 42.6023 61.007 44.5971V36.668C61.007 34.0444 62.6985 31.8178 65.1003 31.0631ZM39.1921 54.3267C37.3161 57.5756 33.3789 58.9066 29.9767 57.6272C32.5518 56.8102 34.7903 55.061 36.2085 52.6043C37.626 50.1492 38.0263 47.3377 37.4483 44.7007C40.2531 47.0081 41.0666 51.0799 39.1921 54.3267ZM26.0823 46.7578C27.4827 44.3323 30.032 42.9748 32.65 42.9748C32.7606 42.9748 32.8714 42.9804 32.9823 42.9853C34.505 45.356 34.5957 48.3668 33.1642 50.8465C31.7312 53.3285 29.0753 54.7552 26.2579 54.6192C25.8463 53.9735 25.5304 53.2622 25.3264 52.5012C24.8029 50.5484 25.0714 48.5086 26.0823 46.7578ZM26.0823 103.242C25.0714 101.491 24.8031 99.4516 25.3262 97.4988C25.5301 96.7378 25.8461 96.0267 26.2579 95.3808C29.0757 95.2446 31.7314 96.6717 33.1642 99.1535C34.596 101.633 34.505 104.645 32.9816 107.016C30.2493 107.136 27.5418 105.77 26.0823 103.242ZM37.4486 105.299C38.0265 102.662 37.6262 99.8508 36.2087 97.3957C34.7919 94.9418 32.5586 93.1898 29.9875 92.3714C30.8467 92.0496 31.7389 91.8902 32.6244 91.8902C35.2421 91.8902 37.7917 93.248 39.1921 95.6733C41.0666 98.9201 40.2531 102.992 37.4486 105.299ZM48.7986 106.284C46.5266 107.595 43.7542 107.241 41.8998 105.539C44.1179 102.148 44.3971 97.6577 42.2366 93.9155C40.0754 90.1725 36.0458 88.1691 31.9991 88.3957C31.4516 85.9385 32.5344 83.3602 34.8064 82.0484L34.8071 82.0479L44.5129 76.4445C44.9326 76.2021 45.4218 76.1377 45.8898 76.2631L49.3672 77.1947L48.2211 81.473L46.4898 81.0094C46.04 80.8889 45.56 80.952 45.1562 81.1852L39.9925 84.1664C39.1518 84.6518 38.8637 85.7269 39.3491 86.5676C39.6746 87.1315 40.2655 87.4467 40.873 87.4467C41.1711 87.4467 41.4735 87.3708 41.7503 87.2109L43.4793 86.2127C45.7834 92.6595 50.0912 98.3325 55.6846 102.308L48.7986 106.284ZM52.8789 78.1359C53.4503 78.289 53.9277 78.6555 54.2235 79.1679C54.5193 79.6802 54.5978 80.277 54.4445 80.8481C54.1283 82.027 52.9114 82.729 51.7332 82.4135L51.6175 82.3826L52.7633 78.105L52.8789 78.1359ZM69.9538 98.6663L66.8439 95.5563C67.2339 95.246 67.7136 95.0766 68.2211 95.0766C68.8138 95.0766 69.3688 95.306 69.786 95.7244C70.2043 96.1427 70.435 96.6989 70.435 97.2902C70.4347 97.7965 70.2648 98.2758 69.9538 98.6663ZM69.2385 104.377L72.2718 101.342C73.3543 100.26 73.9504 98.8207 73.9504 97.2902C73.9504 95.7598 73.3541 94.3207 72.2736 93.2402C71.1941 92.1574 69.7548 91.5609 68.2211 91.5609C66.6889 91.5609 65.2496 92.1567 64.168 93.2384L59.0493 98.3571C58.6574 98.7504 58.333 99.2037 58.0825 99.694C52.7992 96.0577 48.752 90.7465 46.6733 84.6982L50.8239 85.8096C53.8747 86.6264 57.0221 84.8093 57.8404 81.7589C58.2367 80.2805 58.0337 78.7362 57.2685 77.4103C56.5032 76.0847 55.2676 75.1362 53.7889 74.7401L46.7999 72.8674C46.2564 72.7216 45.7037 72.6666 45.1574 72.693C45.4984 68.2737 46.8118 63.9722 49.0131 60.1341C49.4961 59.292 49.205 58.2176 48.3629 57.7348C47.5206 57.252 46.4467 57.5428 45.9636 58.3849C43.5847 62.5329 42.1321 67.163 41.6933 71.9276L34.8069 67.9516C32.5351 66.6401 31.4523 64.0622 31.9993 61.605C32.2058 61.6165 32.4125 61.6247 32.6188 61.6247C36.4522 61.6247 40.1863 59.6365 42.2371 56.0845C44.3975 52.3423 44.1184 47.8523 41.9003 44.4614C43.7547 42.7587 46.5268 42.4045 48.7991 43.7163L55.6745 47.6857C54.0674 48.8283 52.5484 50.1209 51.1358 51.5583C50.4554 52.2506 50.465 53.3637 51.1574 54.0441C51.4996 54.3804 51.9446 54.5482 52.3893 54.5482C52.8442 54.5482 53.2989 54.3727 53.6432 54.0225C59.3197 48.2463 66.9043 45.0654 74.9996 45.0654C79.49 45.0654 83.9115 46.0765 87.9252 47.9988C87.628 48.4596 87.3986 48.967 87.2523 49.512L85.3796 56.501C85.0508 57.7277 85.1364 58.9995 85.6117 60.1542L78.5432 63.2278L62.3195 56.3871C60.6592 55.6889 58.7401 56.4698 58.0398 58.1285L52.8013 70.5584C52.1038 72.2159 52.8836 74.1349 54.5425 74.838L71.6439 82.0472L76.9396 94.2274C75.5385 96.4413 75.7979 99.4123 77.7257 101.341L80.7597 104.376C76.9684 105.112 73.0077 105.11 69.2385 104.377ZM87.9601 95.3695L94.4746 92.5397C96.1272 91.8199 96.8865 89.8905 96.1675 88.2398L94.4078 84.1922L96.6339 83.2252C97.435 82.8785 98.053 82.2401 98.3736 81.4273C98.6945 80.6142 98.679 79.7255 98.3307 78.926L91.6951 63.6562C93.9074 63.348 95.8344 61.7576 96.4482 59.4682L97.5596 55.3235C102.326 60.7812 104.934 67.7053 104.934 75C104.934 84.889 100.001 94.1402 91.9185 99.6916C91.6682 99.2048 91.3438 98.7534 90.9456 98.3552L87.9601 95.3695ZM101.2 106.284L94.3147 102.309C102.271 96.6677 107.402 87.7793 108.304 78.0717L115.192 82.0486C117.464 83.3604 118.547 85.9388 117.999 88.3959C113.953 88.1693 109.923 90.1725 107.762 93.9155C105.601 97.6577 105.88 102.148 108.098 105.539C106.244 107.241 103.472 107.595 101.2 106.284ZM110.806 95.6733C112.207 93.2477 114.756 91.8902 117.374 91.8902C118.259 91.8902 119.152 92.0496 120.011 92.3714C117.44 93.1896 115.206 94.9418 113.79 97.3957C112.372 99.8508 111.972 102.662 112.55 105.299C109.745 102.992 108.932 98.9201 110.806 95.6733ZM123.916 103.242C122.457 105.77 119.749 107.136 117.017 107.016C115.493 104.645 115.402 101.634 116.834 99.1535C118.267 96.6717 120.924 95.2448 123.741 95.3808C124.152 96.0265 124.468 96.7378 124.672 97.4988C125.196 99.4516 124.927 101.491 123.916 103.242Z" fill="black"/>
</g>
<defs>
<clipPath id="clip0_5701_167255">
<rect width="120" height="120" fill="white" transform="translate(15 15)"/>
</clipPath>
</defs>
</svg>
