<svg width="10" height="10" viewBox="0 0 10 10" fill="none" xmlns="http://www.w3.org/2000/svg">
<g clip-path="url(#clip0_4848_144511)">
<path d="M0.314102 4.23958L4.29298 0.260773C4.46594 0.087738 4.64264 0 4.81819 0C5.06187 0 5.34637 0.182571 5.34637 0.696945V3.15018C6.56075 3.23288 7.69066 3.74893 8.55408 4.62128C9.48654 5.56343 10 6.81236 10 8.13797C10 8.70895 9.90417 9.26971 9.71504 9.80469C9.67369 9.92172 9.56299 10 9.43886 10C9.31465 10 9.20403 9.92172 9.1626 9.80469C8.58093 8.15903 7.07008 7.01195 5.3463 6.87576V9.30298C5.3463 9.81735 5.0618 9.99992 4.81819 9.99992H4.81812C4.64264 9.99992 4.46594 9.91226 4.29298 9.7393L0.314026 5.76035C0.111542 5.55779 7.62939e-05 5.28778 7.62939e-05 4.99992C7.62939e-05 4.71214 0.111618 4.44206 0.314102 4.23958Z" fill="white"/>
</g>
<defs>
<clipPath id="clip0_4848_144511">
<rect width="10" height="10" fill="white" transform="matrix(-1 0 0 1 10 0)"/>
</clipPath>
</defs>
</svg>
