<svg width="34" height="33" viewBox="0 0 34 33" fill="none" xmlns="http://www.w3.org/2000/svg">
<path d="M34 4.42999C34 3.54135 33.5993 2.69873 32.9064 2.13054L30.3571 0.0399008V9.89853L18.9007 0.674049C17.7923 -0.218427 16.2021 -0.225336 15.0857 0.657474L1.47603 11.42C0.542958 12.1579 0 13.2736 0 14.4531V31.2022C0 32.7168 1.78523 33.5501 2.97296 32.59L15.5569 22.4175C16.4704 21.679 17 20.5755 17 19.4107V16.7697L3.64286 27.398V24.3372C3.64286 23.6252 3.96443 22.9501 4.52017 22.4956L15.5744 13.4545C16.4774 12.7159 17 11.619 17 10.462V7.80731L3.64286 18.585V15.5469C3.64286 14.8244 3.974 14.1405 4.54383 13.6863L16.4269 4.21398C16.761 3.94762 17.2386 3.94812 17.5721 4.21518L31.0337 14.9924C32.2229 15.9445 34 15.1099 34 13.5993V4.42999Z" fill="#FA4B5F"/>
</svg>
