<svg width="100" height="100" viewBox="0 0 100 100" fill="none" xmlns="http://www.w3.org/2000/svg">
<circle cx="50" cy="50" r="50" fill="white"/>
<circle cx="50" cy="50" r="47.5" stroke="#7BABF1" stroke-opacity="0.3" stroke-width="5"/>
<circle cx="50" cy="50" r="40" fill="#7BABF1" fill-opacity="0.3"/>
<g clip-path="url(#clip0_1972_36256)">
<path d="M46.3256 68.8718C45.5343 65.9697 43.5003 63.3837 40.5794 61.9921C41.5782 60.8839 42.1874 59.4181 42.1874 57.8123V55.4685C42.1874 52.0223 39.3837 49.2186 35.9374 49.2186C32.4912 49.2186 29.6875 52.0223 29.6875 55.4685V57.8123C29.6875 59.4191 30.2973 60.8858 31.2972 61.9942C28.5397 63.3164 26.3903 65.7864 25.5493 68.8715C25.0167 70.8225 25 70.8129 25 71.0934C25 73.2839 27.9575 74.0234 28.9293 74.2663C32.8406 75.2442 39.0315 75.2448 42.9455 74.2663C43.9173 74.0234 46.8747 73.2838 46.8747 71.0934C46.8748 70.8152 46.8664 70.8534 46.3256 68.8718ZM32.8124 57.8123V55.4685C32.8124 53.7454 34.2143 52.3436 35.9374 52.3436C37.6605 52.3436 39.0624 53.7454 39.0624 55.4685V57.8123C39.0624 59.5354 37.6605 60.9372 35.9374 60.9372C34.2143 60.9372 32.8124 59.5354 32.8124 57.8123ZM28.2716 70.7659L28.5641 69.6938C29.9787 64.5053 36.2529 62.3275 40.5766 65.6309C42.7684 67.3054 43.1913 69.256 43.6033 70.7659C40.6082 72.2373 31.2778 72.2429 28.2716 70.7659Z" fill="#7BABF1"/>
<path d="M74.9447 70.682C74.3841 68.6278 73.5786 64.3142 68.7044 61.9921C69.7032 60.8839 70.3124 59.4181 70.3124 57.8123V55.4685C70.3124 52.0223 67.5087 49.2186 64.0624 49.2186C60.6162 49.2186 57.8125 52.0223 57.8125 55.4685V57.8123C57.8125 59.4191 58.4223 60.8858 59.4222 61.9942C56.6647 63.3164 54.5154 65.7863 53.6742 68.8715C53.1418 70.8225 53.125 70.8129 53.125 71.0934C53.125 74.53 60.643 74.9996 64.0624 74.9996C67.4826 74.9996 74.9998 74.5298 74.9998 71.0934C74.9998 70.9544 74.9813 70.8161 74.9447 70.682ZM60.9374 57.8123V55.4685C60.9374 53.7454 62.3393 52.3435 64.0624 52.3435C65.7856 52.3435 67.1874 53.7454 67.1874 55.4685V57.8123C67.1874 59.5354 65.7856 60.9372 64.0624 60.9372C62.3393 60.9372 60.9374 59.5354 60.9374 57.8123ZM56.3966 70.7659L56.689 69.6939C58.1036 64.5052 64.3777 62.3275 68.7016 65.6309C70.8933 67.3054 71.3164 69.256 71.7283 70.7659C68.7332 72.2373 59.4028 72.2429 56.3966 70.7659Z" fill="#7BABF1"/>
<path d="M42.9927 50.0478C46.9037 51.0256 53.0947 51.0264 57.0089 50.0478C57.9807 49.8048 60.9382 49.0652 60.9382 46.8748C60.9382 46.7359 60.9198 46.5975 60.8831 46.4634C60.3226 44.4092 59.517 40.0956 54.6428 37.7735C55.6417 36.6653 56.2508 35.1995 56.2508 33.5937V31.25C56.2508 27.8037 53.4472 25 50.0009 25C46.5546 25 43.7509 27.8037 43.7509 31.25V33.5937C43.7509 35.2005 44.3608 36.6672 45.3607 37.7756C42.6032 39.0978 40.4538 41.5678 39.6128 44.653C39.0803 46.6039 39.0635 46.5944 39.0635 46.8748C39.0635 49.0653 42.0209 49.8048 42.9927 50.0478ZM46.8759 33.5937V31.25C46.8759 29.5268 48.2778 28.125 50.0009 28.125C51.724 28.125 53.1259 29.5268 53.1259 31.25V33.5937C53.1259 35.3168 51.724 36.7187 50.0009 36.7187C48.2778 36.7187 46.8759 35.3168 46.8759 33.5937ZM42.6275 45.4752C44.0421 40.2866 50.3163 38.109 54.64 41.4124C56.8317 43.0869 57.2547 45.0374 57.6667 46.5473C54.6717 48.0189 45.3412 48.0243 42.3349 46.5473L42.6275 45.4752Z" fill="#7BABF1"/>
<path d="M53.9066 62.4999C55.3793 62.4999 56.0336 60.6372 54.8836 59.7172L51.5638 57.0613V53.906C51.5638 53.043 50.8643 52.3435 50.0013 52.3435C49.1384 52.3435 48.4388 53.043 48.4388 53.906V57.0613L45.119 59.7172C43.9689 60.6373 44.6233 62.4999 46.096 62.4999C46.4383 62.4999 46.7831 62.3879 47.0711 62.1574L50.0013 59.8133L52.9315 62.1574C53.2196 62.3879 53.5642 62.4999 53.9066 62.4999Z" fill="#7BABF1"/>
</g>
<defs>
<clipPath id="clip0_1972_36256">
<rect width="50" height="50" fill="white" transform="translate(25 25)"/>
</clipPath>
</defs>
</svg>
