<svg width="120" height="120" viewBox="0 0 120 120" fill="none" xmlns="http://www.w3.org/2000/svg">
<path d="M57.9901 85.8605L56.1229 92.5615L49.022 118.027L39.6409 107.573L26.207 111.666L33.8523 84.2456L35.5014 78.3361L48.5671 79.7299L57.9901 85.8605Z" fill="white"/>
<path d="M94.0669 111.666L80.6305 107.573L71.252 118.027L64.1485 92.5615L62.2812 85.863L71.7043 79.7299L84.7726 78.3361L86.4216 84.2456L94.0669 111.666Z" fill="white"/>
<path d="M97.5588 44.1297C97.5588 39.8374 101.499 34.9727 100.241 31.0996C98.9381 27.0855 92.8476 25.4754 90.416 22.1343C87.9602 18.7596 88.2942 12.4783 84.9194 10.0223C81.5784 7.59067 75.7195 9.83294 71.7054 8.52958C67.8319 7.27192 64.4297 1.97247 60.1371 1.97247C55.8445 1.97247 52.4423 7.27192 48.5695 8.52958C44.5554 9.83294 38.6967 7.59067 35.3552 10.0223C31.9805 12.4781 32.3144 18.7596 29.8587 22.1343C27.427 25.4754 21.3366 27.0855 20.0332 31.0994C18.7755 34.9725 22.7154 39.8374 22.7154 44.1297C22.7154 48.4221 18.7755 53.2868 20.0327 57.1598C21.3361 61.1739 27.4266 62.7841 29.8582 66.1251C32.314 69.4999 31.98 75.7811 35.3548 78.2371C38.6958 80.6688 44.5547 78.4265 48.5688 79.7299C52.4419 80.9875 55.8443 86.287 60.1366 86.287C64.429 86.287 67.8314 80.9875 71.7042 79.7299C75.7183 78.4265 81.577 80.6688 84.9185 78.2371C88.2933 75.7813 87.9593 69.4999 90.4151 66.1251C92.8467 62.7841 98.9372 61.1739 100.241 57.16C101.499 53.2868 97.5588 48.4221 97.5588 44.1297Z" fill="#1AACFF"/>
<path d="M48.57 79.7299L57.993 85.8605L56.1258 92.5617C53.5458 90.8995 51.1631 88.2459 48.57 87.4043C44.5566 86.0998 38.6972 88.3432 35.3571 85.9104C34.7496 85.466 34.2605 84.9005 33.8555 84.2456L35.5045 78.3361L48.57 79.7299Z" fill="#D1D2D7"/>
<path d="M86.4214 84.2456C86.0164 84.9004 85.5273 85.466 84.9198 85.9104C81.5771 88.3432 75.7175 86.0997 71.7043 87.4043C69.1112 88.2459 66.7285 90.8995 64.1485 92.5617L62.2812 85.8633L71.7043 79.7301L84.7726 78.3363L86.4214 84.2456Z" fill="#D1D2D7"/>
<path d="M60.138 70.6828C74.8024 70.6828 86.6902 58.795 86.6902 44.1307C86.6902 29.4664 74.8024 17.5786 60.138 17.5786C45.4737 17.5786 33.5859 29.4664 33.5859 44.1307C33.5859 58.795 45.4737 70.6828 60.138 70.6828Z" fill="white"/>
<path d="M99.3944 44.1295C99.3944 42.6197 100.055 40.871 100.755 39.0197C101.812 36.2248 102.904 33.3345 101.98 30.4901C101.018 27.5266 98.2532 25.7255 95.8139 24.1359C94.2117 23.092 92.6981 22.106 91.8735 20.973C91.0314 19.8159 90.5526 18.0537 90.0454 16.188C89.2872 13.3978 88.4278 10.2354 85.9427 8.42695C83.4827 6.6368 80.366 6.78375 77.3524 6.92578C75.4057 7.01766 73.567 7.10437 72.1771 6.65297C70.8836 6.23297 69.5006 5.115 68.0364 3.93141C65.7562 2.08898 63.1717 0 60.0002 0C56.8284 0 54.2439 2.08898 51.9637 3.93211C50.4996 5.1157 49.1165 6.23344 47.8235 6.65344C46.4336 7.10484 44.5947 7.01789 42.648 6.92625C39.6344 6.78398 36.5175 6.63703 34.0575 8.42742C31.5724 10.2359 30.7132 13.3983 29.9547 16.1885C29.4478 18.0541 28.9687 19.8162 28.1266 20.9735C27.3021 22.1065 25.7885 23.0925 24.1863 24.1364C21.7467 25.7257 18.9817 27.5271 18.0199 30.4903C17.0962 33.3347 18.1886 36.225 19.2452 39.0202C19.9448 40.8715 20.6057 42.6202 20.6057 44.13C20.6057 45.6398 19.9448 47.3885 19.245 49.2398C18.1884 52.035 17.096 54.9253 18.0196 57.7697C18.982 60.7329 21.7469 62.5343 24.1863 64.1236C25.7885 65.1675 27.3021 66.1535 28.1266 67.2865C28.9687 68.4436 29.4475 70.2061 29.9547 72.0715C30.7129 74.8617 31.5724 78.0241 34.0575 79.8326C36.5172 81.6227 39.6339 81.4758 42.6478 81.3337C44.5942 81.2416 46.4332 81.1552 47.823 81.6066C49.1165 82.0266 50.4996 83.1445 51.9639 84.3281C53.0657 85.2185 54.2397 86.1647 55.5154 86.9067L47.9531 114.033L40.9739 106.256C40.4615 105.685 39.6649 105.463 38.9308 105.686L28.9382 108.731L35.2033 86.2638C35.4958 85.2145 34.8825 84.1268 33.8332 83.8341C32.7834 83.5418 31.6959 84.1549 31.4034 85.2042L24.1717 111.137C23.9784 111.83 24.1783 112.575 24.6937 113.078C25.2091 113.581 25.9582 113.763 26.6467 113.553L38.8774 109.826L47.4187 119.345C47.7975 119.767 48.3337 120 48.8868 120C49.0361 120 49.1868 119.983 49.3361 119.948C50.0376 119.784 50.5935 119.251 50.7871 118.557L59.2453 88.215C59.4935 88.241 59.744 88.2588 59.9997 88.2588C60.2547 88.2588 60.505 88.2408 60.7528 88.215L69.2144 118.557C69.4078 119.251 69.9642 119.784 70.6654 119.948C70.8145 119.983 70.965 120 71.1142 120C71.6676 120 72.2039 119.767 72.5826 119.345L81.1211 109.826L93.3543 113.553C94.0429 113.763 94.7915 113.581 95.3071 113.077C95.8223 112.574 96.0225 111.83 95.8291 111.137L86.8727 79.0155C88.6579 77.1628 89.3903 74.4792 90.0447 72.0708C90.5517 70.2052 91.0307 68.4429 91.8728 67.2858C92.6974 66.1528 94.211 65.1668 95.8132 64.1229C98.2528 62.5336 101.018 60.7322 101.98 57.7692C102.903 54.9248 101.811 52.0345 100.754 49.2394C100.055 47.388 99.3944 45.6396 99.3944 44.1295ZM81.0679 105.686C80.3341 105.462 79.537 105.684 79.0246 106.255L72.0482 114.033L64.4833 86.9062C65.7597 86.164 66.9339 85.2178 68.0362 84.3267C69.5003 83.1431 70.8834 82.0254 72.1769 81.6052C73.5672 81.1538 75.4059 81.2407 77.3524 81.3323C79.3792 81.428 81.4516 81.5231 83.3404 81.0323L91.0635 108.73L81.0679 105.686ZM97.065 50.6341C97.9181 52.8914 98.7241 55.0238 98.2281 56.5509C97.6966 58.188 95.736 59.4654 93.6602 60.8177C91.8292 62.0107 89.9357 63.2442 88.6837 64.9648C87.4146 66.7088 86.8164 68.9088 86.2385 71.0365C85.5937 73.4093 84.9846 75.6502 83.6214 76.6425C82.2827 77.6163 79.9783 77.5078 77.538 77.3927C75.3236 77.2887 73.0335 77.1802 70.9584 77.854C68.9709 78.4995 67.2351 79.9024 65.5563 81.2595C63.6124 82.8307 61.7767 84.3145 60 84.3145C58.2232 84.3145 56.3871 82.8305 54.4434 81.2592C52.7648 79.9024 51.0285 78.499 49.0413 77.854C47.7325 77.4291 46.3382 77.3152 44.9315 77.3152C44.1079 77.3152 43.2796 77.3541 42.4619 77.3927C40.0221 77.5078 37.7175 77.6166 36.3787 76.6425C35.0156 75.6504 34.4064 73.4093 33.7617 71.0365C33.1837 68.9088 32.5856 66.7085 31.3164 64.9648C30.0646 63.2445 28.1714 62.0109 26.34 60.8177C24.2641 59.4654 22.3035 58.1878 21.772 56.5507C21.2763 55.024 22.0823 52.8916 22.9354 50.6344C23.7297 48.533 24.551 46.3603 24.551 44.13C24.551 41.8995 23.7297 39.7266 22.9357 37.6256C22.0823 35.3684 21.2765 33.236 21.7722 31.7091C22.3038 30.072 24.2643 28.7946 26.3402 27.4423C28.1711 26.2493 30.0646 25.0158 31.3167 23.2957C32.5858 21.5517 33.1839 19.3516 33.7619 17.224C34.4067 14.8512 35.0158 12.6103 36.3789 11.618C37.7172 10.6439 40.0225 10.7524 42.4624 10.8677C44.6765 10.972 46.9668 11.0803 49.042 10.4065C51.0295 9.76102 52.7653 8.35805 54.4441 7.00125C56.3875 5.42953 58.2236 3.94547 60.0002 3.94547C61.7767 3.94547 63.6131 5.42953 65.5565 7.00055C67.2351 8.35758 68.9714 9.76078 70.9586 10.406C73.0338 11.0798 75.3234 10.972 77.538 10.8673C79.9778 10.7524 82.2827 10.6437 83.6212 11.6175C84.9843 12.6096 85.5935 14.8507 86.2382 17.2235C86.8162 19.3512 87.4143 21.5515 88.6835 23.2952C89.9353 25.0155 91.8285 26.2491 93.6597 27.4418C95.7356 28.7941 97.6961 30.0715 98.2279 31.7088C98.7236 33.2358 97.9178 35.3679 97.0645 37.6254C96.2702 39.7266 95.4489 41.8995 95.4489 44.1298C95.4489 46.3603 96.2704 48.5327 97.065 50.6341Z" fill="#181E39"/>
<path d="M67.6155 35.8069C68.7048 35.8069 69.588 34.9238 69.588 33.8344C69.588 32.745 68.7048 31.8619 67.6155 31.8619H52.3788C51.2894 31.8619 50.4062 32.745 50.4062 33.8344C50.4062 34.9238 51.2894 35.8069 52.3788 35.8069H67.6155Z" fill="#D1D2D7"/>
<path d="M52.3788 56.397H67.6155C68.7048 56.397 69.588 55.5138 69.588 54.4245C69.588 53.3351 68.7048 52.452 67.6155 52.452H52.3788C51.2894 52.452 50.4062 53.3351 50.4062 54.4245C50.4062 55.5138 51.2894 56.397 52.3788 56.397Z" fill="#D1D2D7"/>
<path d="M75.0507 44.1295C75.0507 43.0402 74.1676 42.157 73.0782 42.157H67.1366C66.0472 42.157 65.1641 43.0402 65.1641 44.1295C65.1641 45.2189 66.0472 46.102 67.1366 46.102H73.0782C74.1676 46.102 75.0507 45.2192 75.0507 44.1295Z" fill="#D1D2D7"/>
<path d="M44.9453 44.1295C44.9453 45.2189 45.8284 46.102 46.9178 46.102H60.9602C62.0495 46.102 62.9327 45.2189 62.9327 44.1295C62.9327 43.0402 62.0495 42.157 60.9602 42.157H46.9178C45.8284 42.157 44.9453 43.0402 44.9453 44.1295Z" fill="#D1D2D7"/>
</svg>
