<svg width="150" height="150" viewBox="0 0 150 150" fill="none" xmlns="http://www.w3.org/2000/svg">
<circle cx="75" cy="75" r="75" fill="#D4E1F4" fill-opacity="0.4"/>
<g clip-path="url(#clip0_92_4441)">
<path d="M110.998 55.2393C110.065 54.5874 108.89 54.3849 107.792 54.6866L41.6436 16.5668H41.6279L33.8428 21.0515V28.5206L41.4893 32.9334L33.8428 37.3479V93.3589L103.229 133.421L110.998 128.936V72.9252L108.019 71.2068L114.393 67.5246L114.456 67.4773C115.656 66.7996 116.329 65.4656 116.162 64.0979C115.957 60.4891 114.037 57.1961 110.998 55.2393Z" fill="url(#paint0_linear_92_4441)"/>
<path d="M110.999 72.9251V128.936L103.23 133.421V77.4099L33.8438 37.3479L41.5023 32.9264L107.746 71.046L107.999 71.204H108.014L110.999 72.9251Z" fill="#A4C2F7"/>
<path d="M62.1873 92.3071L65.5887 90.3695L53.095 68.8527L40.6484 75.9714L44.0498 81.8346L46.3174 80.5428V90.9459L59.9214 98.8004V88.3973L62.1873 92.3071Z" fill="#A4C2F7"/>
<path d="M50.7289 56.7947C50.5773 54.0912 49.1453 51.622 46.8742 50.1476C44.7452 48.9185 43.0195 49.9018 43.0195 52.3435C43.1712 55.047 44.6031 57.5162 46.8742 58.9906C49.003 60.2198 50.7289 59.2367 50.7289 56.7947Z" fill="#A4C2F7"/>
<path d="M91.8461 80.534C91.6944 77.8304 90.2625 75.3613 87.9914 73.8869C85.8624 72.6577 84.1367 73.641 84.1367 76.0827C84.2884 78.7863 85.7203 81.2555 87.9914 82.7298C90.1202 83.959 91.8461 82.976 91.8461 80.534Z" fill="#A4C2F7"/>
<path d="M108.377 68.5984C108.467 69.7586 108.026 70.8974 107.177 71.6934L107.161 71.7091L106.688 71.9775C105.531 72.4132 104.233 72.2414 103.229 71.5194C101.187 70.2066 99.6245 68.2676 98.7762 65.9926C98.35 64.9321 98.1199 63.8033 98.0971 62.6606C97.949 61.336 98.5598 60.0409 99.6763 59.3129L99.771 59.2656C100.93 58.846 102.22 59.0169 103.229 59.7236C106.263 61.6909 108.176 64.9882 108.377 68.5984Z" fill="#D4E1F4"/>
<path d="M116.162 64.0979C116.329 65.4656 115.656 66.7996 114.456 67.4772L114.393 67.5246L107.177 71.6934C108.026 70.8973 108.467 69.7586 108.377 68.5984C108.175 64.9882 106.263 61.6909 103.229 59.7238C102.219 59.0173 100.929 58.8464 99.7705 59.2658L99.8495 59.2184H99.8652L107.224 54.9549L107.461 54.8286C107.564 54.7653 107.676 54.7175 107.793 54.6866C108.89 54.3849 110.065 54.5874 110.998 55.2393C114.037 57.196 115.957 60.4891 116.162 64.0979Z" fill="#E3E7F2"/>
<path d="M99.8495 59.2187L99.7705 59.266L99.6758 59.3134C98.5594 60.0414 97.9485 61.3365 98.0967 62.661C98.1194 63.8037 98.3496 64.9326 98.7757 65.993L33.8428 28.5206V21.0515L99.8495 59.2187Z" fill="#E3E7F2"/>
<path d="M107.793 54.6866C107.676 54.7175 107.564 54.7653 107.461 54.8286L107.224 54.955L99.8652 59.2185H99.8495L33.8428 21.0515L41.6279 16.5668H41.6436L107.793 54.6866Z" fill="#A4C2F7"/>
<path d="M38.5802 24.2098L46.3653 19.7251H46.381L112.53 57.8446C113.627 57.543 114.802 57.7455 115.735 58.3973C115.77 58.4175 115.803 58.4468 115.837 58.4677C115.01 57.1574 113.895 56.0534 112.577 55.2393C111.644 54.5874 110.469 54.3849 109.371 54.6866L43.2227 16.5668H43.207L35.4219 21.0515V28.5206L38.5802 30.3431V24.2098Z" fill="white"/>
<path d="M38.5809 40.5062L46.227 36.0911L41.9112 33.6008L35.4229 37.3479V93.3589L38.5809 95.1828V40.5062Z" fill="white"/>
<path d="M35.4247 37.3558V57.8842V93.3605H32.2666V57.8842V37.3558H35.4247Z" fill="white"/>
<path d="M32.2656 93.3607H32.2912C32.2818 93.9207 32.5736 94.4429 33.0558 94.7279L102.441 134.789L102.448 134.792C102.521 134.828 102.597 134.86 102.674 134.885C102.786 134.945 102.911 134.976 103.038 134.975C103.102 134.987 103.166 134.995 103.231 135H103.231H103.232C103.509 135 103.78 134.927 104.02 134.789L111.801 130.296C111.862 130.25 111.919 130.2 111.972 130.145C112.147 130.022 112.286 129.856 112.378 129.664C112.415 129.6 112.448 129.534 112.475 129.465C112.52 129.334 112.548 129.197 112.557 129.059C112.561 129.013 112.583 128.975 112.583 128.928V72.9274C112.583 72.8979 112.573 72.8705 112.572 72.8412C112.568 72.7652 112.558 72.6898 112.542 72.6152C112.516 72.4924 112.476 72.3729 112.422 72.2596C112.403 72.2184 112.403 72.1736 112.38 72.1335C112.357 72.0951 112.32 72.0738 112.295 72.0379C112.222 71.931 112.136 71.8337 112.039 71.7482C111.984 71.6999 111.926 71.6556 111.866 71.6157C111.839 71.5982 111.818 71.5743 111.79 71.5583L111.176 71.2055L115.252 68.8519C115.265 68.8444 115.272 68.8313 115.285 68.8234C116.945 67.8515 117.898 66.0113 117.733 64.0946C117.531 59.9296 115.319 56.1215 111.802 53.8814C110.683 53.17 109.354 52.8631 108.037 53.012L42.424 15.199C42.3563 15.1706 42.2864 15.1472 42.2152 15.1289C42.1228 15.0874 42.0267 15.0551 41.9282 15.0326C41.6376 14.9681 41.334 14.9995 41.0628 15.1219C40.9853 15.1413 40.9093 15.1671 40.8357 15.1988L33.0797 19.6772L33.0574 19.6863C32.8938 19.7852 32.7497 19.9135 32.6325 20.0644C32.6062 20.0965 32.5821 20.1272 32.5584 20.161C32.4522 20.3075 32.3723 20.4711 32.3221 20.645L32.3177 20.6776C32.286 20.8007 32.2691 20.927 32.2677 21.054V28.5164C32.2675 29.0806 32.5685 29.6021 33.0572 29.8843L38.3389 32.9327L33.0558 35.9834C33.022 36.0028 33.0035 36.0359 32.9719 36.0574C32.8085 36.1866 32.6618 36.3357 32.5352 36.5012C32.5188 36.5262 32.4928 36.5403 32.4778 36.5663C32.4553 36.6216 32.4363 36.6781 32.4208 36.7358C32.3725 36.8394 32.3359 36.9482 32.3118 37.06C32.2954 37.157 32.2886 37.2552 32.2912 37.3534V37.3551H32.2659V43.6714C32.2659 44.5436 32.9728 45.2506 33.845 45.2506C34.7172 45.2506 35.4241 44.5436 35.4241 43.6714V40.0907L45.9353 46.1591C45.6526 47.2235 45.4674 48.3116 45.3823 49.4097C45.0575 49.4838 44.7453 49.6052 44.4555 49.7698C43.1689 50.6066 42.4376 52.0756 42.5447 53.6064C42.7048 56.8725 44.4354 59.8592 47.1896 61.6222C47.953 62.0853 48.8245 62.3401 49.7171 62.3607C50.3434 62.3659 50.9601 62.2053 51.5044 61.895C52.7896 61.057 53.5202 59.5887 53.4136 58.0584C53.2544 54.792 51.5234 51.8048 48.7687 50.0426C48.6843 49.9939 48.5995 49.973 48.5149 49.9289C48.5486 49.2142 48.6379 48.5033 48.7821 47.8027L86.2017 69.4063C85.8607 70.7346 85.6823 72.0995 85.6706 73.4708C85.6394 73.4874 85.6031 73.4909 85.5724 73.5087C84.2872 74.3467 83.5565 75.815 83.6632 77.3454C83.8223 80.6117 85.5534 83.5989 88.308 85.3611C89.0712 85.8245 89.943 86.0793 90.8356 86.0997C91.4616 86.1056 92.0779 85.9448 92.6212 85.634C93.9069 84.7962 94.6375 83.3279 94.5304 81.7973C94.371 78.5314 92.6409 75.5445 89.8872 73.7816C89.5529 73.5908 89.2009 73.4335 88.8357 73.3119C88.8507 72.5573 88.9304 71.8054 89.0736 71.0642L101.652 78.3261V130.685L35.4239 92.4479V56.3043C35.4239 55.4321 34.717 54.7252 33.8448 54.7252C32.9726 54.7252 32.2656 55.4321 32.2656 56.3043V93.3607V93.3607ZM50.2548 58.0586C50.2548 58.6877 50.0881 59.0656 49.9248 59.1596C49.7536 59.2582 49.331 59.2121 48.7682 58.8867C46.9889 57.6918 45.8582 55.7444 45.7028 53.6066C45.7028 52.9775 45.8694 52.5997 46.0344 52.5057C46.1012 52.4719 46.1756 52.456 46.2503 52.4595C46.585 52.4862 46.9078 52.5959 47.1896 52.7788C48.9689 53.973 50.0996 55.9206 50.2548 58.0586ZM91.3716 81.7976C91.3716 82.4267 91.205 82.8045 91.0416 82.8985C90.8705 82.9956 90.4462 82.9494 89.8865 82.6257C88.1067 81.431 86.9759 79.4836 86.8208 77.3456C86.8208 76.7165 86.9874 76.3386 87.1508 76.2447C87.2181 76.2109 87.2931 76.195 87.3683 76.1985C87.703 76.2254 88.0258 76.3351 88.3076 76.5177C90.0864 77.7127 91.2165 79.6601 91.3716 81.7976ZM41.6322 18.3866L104.58 54.6633L100.642 56.9368C100.538 56.9822 100.439 57.0394 100.347 57.1069L99.8618 57.387L37.0075 21.0569L41.6322 18.3866ZM100.251 65.3962L100.25 65.3943C99.893 64.5245 99.6963 63.597 99.6698 62.657C99.5739 61.9391 99.8367 61.2197 100.373 60.7324C100.542 60.6421 100.732 60.5974 100.924 60.603C101.463 60.6365 101.985 60.8064 102.441 61.0964C104.984 62.7768 106.594 65.5509 106.791 68.5925C106.819 69.1473 106.689 69.6984 106.416 70.1819L106.415 70.1824L106.414 70.184C106.344 70.2919 106.254 70.3859 106.149 70.4609L106.01 70.5408C105.322 70.7168 104.591 70.5741 104.02 70.1517C102.285 69.0127 100.964 67.3452 100.251 65.3962ZM109.425 75.6624V128.021L104.809 130.685V78.3271L109.425 75.6624ZM114.576 64.0944C114.576 65.0966 114.292 65.823 113.816 66.0373C113.762 66.0614 113.709 66.0886 113.658 66.1191L113.583 66.1639L113.568 66.177L109.924 68.2812C109.624 64.3248 107.528 60.7242 104.236 58.5096L108.111 56.2729C108.56 55.9778 109.343 56.0999 110.22 56.6138C112.765 58.2855 114.378 61.0551 114.576 64.0944ZM35.426 23.7916L97.3031 59.5564C96.7673 60.5008 96.4939 61.5715 96.5115 62.6573C96.5115 62.7271 96.5272 62.8005 96.5289 62.8708L35.426 27.6053V23.7916ZM37 37.3534L41.4984 34.7561L49.103 39.1452C48.2758 40.4011 47.5655 41.7304 46.9814 43.1161L37 37.3534ZM51.8501 40.7307L89.3038 62.3474C88.4827 63.6106 87.7813 64.9476 87.2092 66.3413L49.7398 44.7086C50.3024 43.3126 51.0096 41.9793 51.8501 40.7307ZM89.9868 67.9451C90.5292 66.5377 91.22 65.192 92.0472 63.931L97.5241 67.0921C98.5302 69.4822 100.247 71.5053 102.441 72.8874C103.379 73.4579 104.45 73.7724 105.548 73.8003C105.885 73.7973 106.22 73.7558 106.547 73.677L103.231 75.5914L89.9868 67.9451Z" fill="#428DFF"/>
<path d="M33.8449 51.5671C34.4834 51.5645 35.0582 51.1794 35.3029 50.5897C35.5478 49.9999 35.4149 49.3209 34.9661 48.8668L34.7293 48.6772C34.6412 48.6172 34.5456 48.5691 34.4448 48.5345C34.3552 48.489 34.2594 48.4573 34.1602 48.4405C34.0559 48.4226 33.9507 48.4121 33.8449 48.4088C33.4268 48.4147 33.0264 48.5783 32.7238 48.8668C32.3408 49.236 32.1725 49.7751 32.278 50.2964C32.3835 50.8177 32.7477 51.2493 33.2442 51.4405C33.4343 51.5216 33.6382 51.5645 33.8449 51.5671Z" fill="#428DFF"/>
<path d="M45.5266 92.3131L59.1308 100.167C59.6196 100.449 60.2215 100.449 60.71 100.167C61.1985 99.8849 61.4994 99.3636 61.4994 98.7994V93.7289C61.9675 93.9551 62.5172 93.9366 62.9691 93.6794L66.3695 91.7426C66.7354 91.5342 67.0031 91.1885 67.1128 90.7818C67.2225 90.3754 67.1653 89.9417 66.9539 89.5775L54.4597 68.0606C54.0238 67.3101 53.0639 67.0518 52.3101 67.4823L39.8654 74.6008C39.5002 74.8094 39.2332 75.1552 39.1237 75.5614C39.0143 75.9676 39.0715 76.4005 39.2824 76.7645L42.6828 82.6276C43.0982 83.3415 43.9929 83.6155 44.7369 83.2567V90.9452C44.7369 91.5096 45.0378 92.0309 45.5266 92.3131ZM44.6291 79.6863L42.8125 76.5529L52.5154 71.0028L63.4227 89.7856L62.7673 90.1588L61.2868 87.605C60.9284 86.9874 60.1999 86.6869 59.5103 86.8725C58.8207 87.0582 58.3414 87.6835 58.3414 88.3977V96.0635L47.8952 90.0338V80.5437C47.8949 79.9812 47.5958 79.4613 47.1095 79.1786C46.6231 78.8959 46.0233 78.8931 45.5343 79.1713L44.6291 79.6863Z" fill="#428DFF"/>
<path d="M97.4274 98.9642L74.4223 85.682C73.9336 85.3995 73.3314 85.3993 72.8424 85.6815C72.3535 85.9637 72.0525 86.4852 72.0527 87.0497C72.053 87.6141 72.3542 88.1356 72.8431 88.4174L95.8482 101.699C96.3369 101.982 96.9391 101.982 97.4281 101.7C97.917 101.418 98.218 100.896 98.2178 100.332C98.2178 99.7674 97.9163 99.2459 97.4274 98.9642Z" fill="#428DFF"/>
<path d="M97.4282 107.296L86.5317 101.006C86.0429 100.723 85.4408 100.723 84.9518 101.005C84.4628 101.288 84.1619 101.809 84.1621 102.374C84.1623 102.938 84.4635 103.459 84.9525 103.741L95.849 110.032C96.3377 110.314 96.9399 110.314 97.4289 110.032C97.9178 109.75 98.2188 109.228 98.2186 108.664C98.2186 108.099 97.9171 107.578 97.4282 107.296Z" fill="#428DFF"/>
<path d="M72.8441 96.7497L80.1088 100.944C80.8643 101.38 81.8295 101.121 82.2655 100.365C82.7015 99.6102 82.443 98.6448 81.688 98.2085L74.4232 94.014C73.9345 93.7315 73.3324 93.7313 72.8434 94.0135C72.3544 94.2957 72.0535 94.8173 72.0537 95.3817C72.0537 95.9464 72.3549 96.4679 72.8441 96.7497Z" fill="#428DFF"/>
<path d="M97.4278 115.63L91.3735 112.134C90.8847 111.851 90.2826 111.851 89.7936 112.133C89.3046 112.415 89.0037 112.937 89.0039 113.501C89.0041 114.066 89.3053 114.587 89.7943 114.869L95.8486 118.365C96.3373 118.647 96.9395 118.648 97.4285 118.365C97.9174 118.083 98.2184 117.562 98.2181 116.997C98.2181 116.433 97.9167 115.912 97.4278 115.63Z" fill="#428DFF"/>
<path d="M72.8441 105.083L84.9527 112.073C85.4414 112.356 86.0436 112.356 86.5325 112.074C87.0215 111.792 87.3225 111.27 87.3222 110.706C87.322 110.141 87.0208 109.62 86.5318 109.338L74.4232 102.348C73.9345 102.065 73.3324 102.065 72.8434 102.347C72.3544 102.629 72.0535 103.151 72.0537 103.715C72.0537 104.28 72.3549 104.801 72.8441 105.083Z" fill="#428DFF"/>
</g>
<defs>
<linearGradient id="paint0_linear_92_4441" x1="40.2608" y1="17.3495" x2="134.72" y2="98.585" gradientUnits="userSpaceOnUse">
<stop stop-color="#D4E1F4"/>
<stop offset="0.1717" stop-color="#D4E1F4"/>
<stop offset="0.2" stop-color="#D4E1F4"/>
<stop offset="0.2001" stop-color="#DAE4F4"/>
<stop offset="0.2007" stop-color="#EBEBF4"/>
<stop offset="0.2014" stop-color="#F6F1F4"/>
<stop offset="0.2023" stop-color="#FDF4F4"/>
<stop offset="0.205" stop-color="#FFF5F4"/>
<stop offset="0.2522" stop-color="#FFF5F4"/>
<stop offset="0.26" stop-color="#D4E1F4"/>
<stop offset="0.3974" stop-color="#D4E1F4"/>
<stop offset="0.42" stop-color="#D4E1F4"/>
<stop offset="0.4201" stop-color="#DAE4F4"/>
<stop offset="0.4207" stop-color="#EBEBF4"/>
<stop offset="0.4214" stop-color="#F6F1F4"/>
<stop offset="0.4223" stop-color="#FDF4F4"/>
<stop offset="0.425" stop-color="#FFF5F4"/>
<stop offset="0.4894" stop-color="#FFF5F4"/>
<stop offset="0.5" stop-color="#F9F2F4"/>
<stop offset="0.5001" stop-color="#E8EBF4"/>
<stop offset="0.5003" stop-color="#DDE5F4"/>
<stop offset="0.5005" stop-color="#D6E2F4"/>
<stop offset="0.501" stop-color="#D4E1F4"/>
<stop offset="0.7062" stop-color="#D4E1F4"/>
<stop offset="0.74" stop-color="#D4E1F4"/>
<stop offset="0.741" stop-color="#FFF5F4"/>
<stop offset="0.8346" stop-color="#FFF5F4"/>
<stop offset="0.85" stop-color="#FFF5F4"/>
<stop offset="0.851" stop-color="#D4E1F4"/>
</linearGradient>
<clipPath id="clip0_92_4441">
<rect width="120" height="120" fill="white" transform="translate(15 15)"/>
</clipPath>
</defs>
</svg>
