<svg width="10" height="10" viewBox="0 0 10 10" fill="none" xmlns="http://www.w3.org/2000/svg">
<g clip-path="url(#clip0_5083_146234)">
<path d="M5.71038 7.71393C5.76096 7.6637 5.80365 7.6081 5.84078 7.55034L9.71651 3.67443C10.0944 3.29615 10.0946 2.68307 9.71633 2.30461C9.33823 1.92633 8.72498 1.92633 8.34652 2.30461L5.0087 5.64279L1.6533 2.28775C1.27538 1.90929 0.661949 1.90929 0.283487 2.28775C0.0946149 2.47698 8.94758e-05 2.72469 8.94758e-05 2.97239C8.94758e-05 3.2201 0.0946154 3.46834 0.283846 3.65703L4.17662 7.55034C4.21375 7.6081 4.25626 7.66352 4.30702 7.71393C4.50074 7.90764 4.75508 8.00055 5.0087 7.99625C5.2625 8.00073 5.5172 7.90764 5.71038 7.71393Z" fill="#1AACFF"/>
</g>
<defs>
<clipPath id="clip0_5083_146234">
<rect width="10" height="10" fill="white" transform="translate(10) rotate(90)"/>
</clipPath>
</defs>
</svg>
