<svg width="20" height="20" viewBox="0 0 20 20" fill="none" xmlns="http://www.w3.org/2000/svg">
<g clip-path="url(#clip0_3621_105836)">
<path d="M19.9473 3.48469C19.9048 3.18653 19.7001 2.94194 19.4133 2.84642C19.126 2.75059 18.8148 2.82368 18.6014 3.03715L17.5464 4.09214C17.4139 4.22444 17.2366 4.29676 17.0518 4.29692C16.8669 4.29661 16.6934 4.22428 16.562 4.09214L15.9134 3.44349C15.7811 3.31104 15.7083 3.13542 15.7086 2.94895C15.7089 2.76402 15.7812 2.59068 15.9141 2.45869L16.9684 1.4011C17.1792 1.19023 17.2534 0.882609 17.1618 0.598338C17.0698 0.312694 16.8286 0.105174 16.5324 0.0569563L16.5243 0.055583C15.253 -0.133473 13.9517 0.295756 13.0424 1.20487C12.1416 2.10957 11.7203 3.35316 11.8867 4.61857C11.9234 4.89094 11.8286 5.17002 11.6333 5.36534L0.624979 16.3727C-0.201743 17.1991 -0.203268 18.5456 0.621317 19.374C1.02247 19.777 1.55638 19.9993 2.12492 19.9999H2.12751C2.69499 19.9999 3.22859 19.7789 3.63005 19.3776L14.6365 8.37208C14.8321 8.17646 15.1112 8.08155 15.3851 8.11863C16.649 8.28495 17.8927 7.86381 18.7984 6.96201C19.7067 6.05381 20.1361 4.75254 19.9473 3.48469Z" fill="#A3A5B0"/>
<path d="M1.36001 4.90632C1.4392 5.05845 1.56158 5.18052 1.71401 5.25925L4.20181 6.5445L6.54815 8.87772L8.90594 6.52024L6.56189 4.18732L5.27496 1.70716C5.19577 1.55457 5.07308 1.4322 4.92004 1.35316L2.47421 0.0926291C2.15362 -0.0727761 1.7665 -0.0128091 1.51122 0.241707L0.243676 1.50483C-0.0131299 1.76072 -0.0734021 2.1486 0.0936817 2.47025L1.36001 4.90632Z" fill="#A3A5B0"/>
<path d="M14.27 10.291L10.2656 14.2951L15.1596 19.171C15.7122 19.7217 16.4381 19.9971 17.164 19.9971C17.8901 19.9971 18.6161 19.7216 19.1688 19.1707C19.7047 18.6365 19.9998 17.9261 19.9997 17.1704C19.9995 16.4148 19.7043 15.7045 19.1682 15.1705L14.27 10.291Z" fill="#A3A5B0"/>
</g>
<defs>
<clipPath id="clip0_3621_105836">
<rect width="20" height="20" fill="white"/>
</clipPath>
</defs>
</svg>
