<svg width="30" height="22" viewBox="0 0 30 22" fill="none" xmlns="http://www.w3.org/2000/svg">
<path d="M26.1469 12.6406C26.8113 11.9463 27.1838 11.0235 27.1875 10.0625V9.125C27.1875 8.13044 26.7924 7.17661 26.0891 6.47335C25.3859 5.77009 24.4321 5.375 23.4375 5.375C22.4429 5.375 21.4891 5.77009 20.7859 6.47335C20.0826 7.17661 19.6875 8.13044 19.6875 9.125V10.0625C19.6913 11.028 20.0674 11.9548 20.7375 12.65H20.6812C19.9683 11.8246 19.0858 11.1627 18.0938 10.7094C18.5904 10.2795 18.9895 9.74848 19.2644 9.15188C19.5392 8.55528 19.6835 7.90686 19.6875 7.25V5.375C19.6875 4.1318 19.1936 2.93951 18.3146 2.06044C17.4355 1.18136 16.2432 0.6875 15 0.6875C13.7568 0.6875 12.5645 1.18136 11.6854 2.06044C10.8064 2.93951 10.3125 4.1318 10.3125 5.375V7.25C10.3125 7.9116 10.4548 8.56546 10.7298 9.16721C11.0048 9.76895 11.406 10.3045 11.9062 10.7375C10.9142 11.1908 10.0317 11.8527 9.31875 12.6781H9.2625C9.9393 11.976 10.3159 11.0377 10.3125 10.0625V9.125C10.3125 8.13044 9.91741 7.17661 9.21415 6.47335C8.51089 5.77009 7.55706 5.375 6.5625 5.375C5.56794 5.375 4.61411 5.77009 3.91085 6.47335C3.20759 7.17661 2.8125 8.13044 2.8125 9.125V10.0625C2.81623 11.0235 3.18873 11.9463 3.85313 12.6406C2.97136 13.1253 2.23572 13.8376 1.72291 14.7032C1.21009 15.5689 0.938863 16.5563 0.9375 17.5625V20.375C0.9375 20.6236 1.03627 20.8621 1.21209 21.0379C1.3879 21.2137 1.62636 21.3125 1.875 21.3125H28.125C28.3736 21.3125 28.6121 21.2137 28.7879 21.0379C28.9637 20.8621 29.0625 20.6236 29.0625 20.375V17.5625C29.0611 16.5563 28.7899 15.5689 28.2771 14.7032C27.7643 13.8376 27.0286 13.1253 26.1469 12.6406ZM21.5625 10.0625V9.125C21.5625 8.62772 21.76 8.15081 22.1117 7.79918C22.4633 7.44754 22.9402 7.25 23.4375 7.25C23.9348 7.25 24.4117 7.44754 24.7633 7.79918C25.115 8.15081 25.3125 8.62772 25.3125 9.125V10.0625C25.3125 10.5598 25.115 11.0367 24.7633 11.3883C24.4117 11.74 23.9348 11.9375 23.4375 11.9375C22.9402 11.9375 22.4633 11.74 22.1117 11.3883C21.76 11.0367 21.5625 10.5598 21.5625 10.0625ZM12.1875 7.25V5.375C12.1875 4.62908 12.4838 3.91371 13.0113 3.38626C13.5387 2.85882 14.2541 2.5625 15 2.5625C15.7459 2.5625 16.4613 2.85882 16.9887 3.38626C17.5162 3.91371 17.8125 4.62908 17.8125 5.375V7.25C17.8125 7.99592 17.5162 8.71129 16.9887 9.23874C16.4613 9.76618 15.7459 10.0625 15 10.0625C14.2541 10.0625 13.5387 9.76618 13.0113 9.23874C12.4838 8.71129 12.1875 7.99592 12.1875 7.25ZM4.6875 10.0625V9.125C4.6875 8.62772 4.88504 8.15081 5.23667 7.79918C5.58831 7.44754 6.06522 7.25 6.5625 7.25C7.05978 7.25 7.53669 7.44754 7.88832 7.79918C8.23996 8.15081 8.4375 8.62772 8.4375 9.125V10.0625C8.4375 10.5598 8.23996 11.0367 7.88832 11.3883C7.53669 11.74 7.05978 11.9375 6.5625 11.9375C6.06522 11.9375 5.58831 11.74 5.23667 11.3883C4.88504 11.0367 4.6875 10.5598 4.6875 10.0625ZM2.8125 17.5625C2.8125 16.5679 3.20759 15.6141 3.91085 14.9109C4.61411 14.2076 5.56794 13.8125 6.5625 13.8125C7.16175 13.8173 7.75073 13.9686 8.27812 14.2531C7.76598 15.2811 7.49961 16.414 7.5 17.5625V19.4375H2.8125V17.5625ZM20.625 19.4375H9.375V17.5625C9.375 16.0707 9.96763 14.6399 11.0225 13.585C12.0774 12.5301 13.5082 11.9375 15 11.9375C16.4918 11.9375 17.9226 12.5301 18.9775 13.585C20.0324 14.6399 20.625 16.0707 20.625 17.5625V19.4375ZM27.1875 19.4375H22.5V17.5625C22.5004 16.414 22.234 15.2811 21.7219 14.2531C22.2493 13.9686 22.8383 13.8173 23.4375 13.8125C24.4321 13.8125 25.3859 14.2076 26.0891 14.9109C26.7924 15.6141 27.1875 16.5679 27.1875 17.5625V19.4375Z" fill="#1AACFF"/>
</svg>
