<svg width="100" height="100" viewBox="0 0 100 100" fill="none" xmlns="http://www.w3.org/2000/svg">
<path d="M42.1875 23.4375H48.4375C48.8519 23.4375 49.2493 23.2729 49.5424 22.9799C49.8354 22.6868 50 22.2894 50 21.875V12.5C50 12.0856 49.8354 11.6882 49.5424 11.3951C49.2493 11.1021 48.8519 10.9375 48.4375 10.9375H42.1875C41.7731 10.9375 41.3757 11.1021 41.0826 11.3951C40.7896 11.6882 40.625 12.0856 40.625 12.5V21.875C40.625 22.2894 40.7896 22.6868 41.0826 22.9799C41.3757 23.2729 41.7731 23.4375 42.1875 23.4375ZM43.75 14.0625H46.875V20.3125H43.75V14.0625Z" fill="#99A0B1"/>
<path d="M54.6875 23.4375H60.9375C61.3519 23.4375 61.7493 23.2729 62.0424 22.9799C62.3354 22.6868 62.5 22.2894 62.5 21.875V12.5C62.5 12.0856 62.3354 11.6882 62.0424 11.3951C61.7493 11.1021 61.3519 10.9375 60.9375 10.9375H54.6875C54.2731 10.9375 53.8757 11.1021 53.5826 11.3951C53.2896 11.6882 53.125 12.0856 53.125 12.5V21.875C53.125 22.2894 53.2896 22.6868 53.5826 22.9799C53.8757 23.2729 54.2731 23.4375 54.6875 23.4375ZM56.25 14.0625H59.375V20.3125H56.25V14.0625Z" fill="#99A0B1"/>
<path d="M67.1875 23.4375H73.4375C73.8519 23.4375 74.2493 23.2729 74.5424 22.9799C74.8354 22.6868 75 22.2894 75 21.875V12.5C75 12.0856 74.8354 11.6882 74.5424 11.3951C74.2493 11.1021 73.8519 10.9375 73.4375 10.9375H67.1875C66.7731 10.9375 66.3757 11.1021 66.0826 11.3951C65.7896 11.6882 65.625 12.0856 65.625 12.5V21.875C65.625 22.2894 65.7896 22.6868 66.0826 22.9799C66.3757 23.2729 66.7731 23.4375 67.1875 23.4375ZM68.75 14.0625H71.875V20.3125H68.75V14.0625Z" fill="#99A0B1"/>
<path d="M42.1875 39.0625H48.4375C48.8519 39.0625 49.2493 38.8979 49.5424 38.6049C49.8354 38.3118 50 37.9144 50 37.5V28.125C50 27.7106 49.8354 27.3132 49.5424 27.0201C49.2493 26.7271 48.8519 26.5625 48.4375 26.5625H42.1875C41.7731 26.5625 41.3757 26.7271 41.0826 27.0201C40.7896 27.3132 40.625 27.7106 40.625 28.125V37.5C40.625 37.9144 40.7896 38.3118 41.0826 38.6049C41.3757 38.8979 41.7731 39.0625 42.1875 39.0625ZM43.75 29.6875H46.875V35.9375H43.75V29.6875Z" fill="#99A0B1"/>
<path d="M54.6875 39.0625H60.9375C61.3519 39.0625 61.7493 38.8979 62.0424 38.6049C62.3354 38.3118 62.5 37.9144 62.5 37.5V28.125C62.5 27.7106 62.3354 27.3132 62.0424 27.0201C61.7493 26.7271 61.3519 26.5625 60.9375 26.5625H54.6875C54.2731 26.5625 53.8757 26.7271 53.5826 27.0201C53.2896 27.3132 53.125 27.7106 53.125 28.125V37.5C53.125 37.9144 53.2896 38.3118 53.5826 38.6049C53.8757 38.8979 54.2731 39.0625 54.6875 39.0625ZM56.25 29.6875H59.375V35.9375H56.25V29.6875Z" fill="#99A0B1"/>
<path d="M67.1875 39.0625H73.4375C73.8519 39.0625 74.2493 38.8979 74.5424 38.6049C74.8354 38.3118 75 37.9144 75 37.5V28.125C75 27.7106 74.8354 27.3132 74.5424 27.0201C74.2493 26.7271 73.8519 26.5625 73.4375 26.5625H67.1875C66.7731 26.5625 66.3757 26.7271 66.0826 27.0201C65.7896 27.3132 65.625 27.7106 65.625 28.125V37.5C65.625 37.9144 65.7896 38.3118 66.0826 38.6049C66.3757 38.8979 66.7731 39.0625 67.1875 39.0625ZM68.75 29.6875H71.875V35.9375H68.75V29.6875Z" fill="#99A0B1"/>
<path d="M29.6875 23.4375H35.9375C36.3519 23.4375 36.7493 23.2729 37.0424 22.9799C37.3354 22.6868 37.5 22.2894 37.5 21.875V12.5C37.5 12.0856 37.3354 11.6882 37.0424 11.3951C36.7493 11.1021 36.3519 10.9375 35.9375 10.9375H29.6875C29.2731 10.9375 28.8757 11.1021 28.5826 11.3951C28.2896 11.6882 28.125 12.0856 28.125 12.5V21.875C28.125 22.2894 28.2896 22.6868 28.5826 22.9799C28.8757 23.2729 29.2731 23.4375 29.6875 23.4375ZM31.25 14.0625H34.375V20.3125H31.25V14.0625Z" fill="#99A0B1"/>
<path d="M29.6875 39.0625H35.9375C36.3519 39.0625 36.7493 38.8979 37.0424 38.6049C37.3354 38.3118 37.5 37.9144 37.5 37.5V28.125C37.5 27.7106 37.3354 27.3132 37.0424 27.0201C36.7493 26.7271 36.3519 26.5625 35.9375 26.5625H29.6875C29.2731 26.5625 28.8757 26.7271 28.5826 27.0201C28.2896 27.3132 28.125 27.7106 28.125 28.125V37.5C28.125 37.9144 28.2896 38.3118 28.5826 38.6049C28.8757 38.8979 29.2731 39.0625 29.6875 39.0625ZM31.25 29.6875H34.375V35.9375H31.25V29.6875Z" fill="#99A0B1"/>
<path d="M42.1875 54.6875H48.4375C48.8519 54.6875 49.2493 54.5229 49.5424 54.2299C49.8354 53.9368 50 53.5394 50 53.125V43.75C50 43.3356 49.8354 42.9382 49.5424 42.6451C49.2493 42.3521 48.8519 42.1875 48.4375 42.1875H42.1875C41.7731 42.1875 41.3757 42.3521 41.0826 42.6451C40.7896 42.9382 40.625 43.3356 40.625 43.75V53.125C40.625 53.5394 40.7896 53.9368 41.0826 54.2299C41.3757 54.5229 41.7731 54.6875 42.1875 54.6875ZM43.75 45.3125H46.875V51.5625H43.75V45.3125Z" fill="#99A0B1"/>
<path d="M29.6875 54.6875H35.9375C36.3519 54.6875 36.7493 54.5229 37.0424 54.2299C37.3354 53.9368 37.5 53.5394 37.5 53.125V43.75C37.5 43.3356 37.3354 42.9382 37.0424 42.6451C36.7493 42.3521 36.3519 42.1875 35.9375 42.1875H29.6875C29.2731 42.1875 28.8757 42.3521 28.5826 42.6451C28.2896 42.9382 28.125 43.3356 28.125 43.75V53.125C28.125 53.5394 28.2896 53.9368 28.5826 54.2299C28.8757 54.5229 29.2731 54.6875 29.6875 54.6875ZM31.25 45.3125H34.375V51.5625H31.25V45.3125Z" fill="#99A0B1"/>
<path d="M54.6875 54.6875H60.9375C61.3519 54.6875 61.7493 54.5229 62.0424 54.2299C62.3354 53.9368 62.5 53.5394 62.5 53.125V43.75C62.5 43.3356 62.3354 42.9382 62.0424 42.6451C61.7493 42.3521 61.3519 42.1875 60.9375 42.1875H54.6875C54.2731 42.1875 53.8757 42.3521 53.5826 42.6451C53.2896 42.9382 53.125 43.3356 53.125 43.75V53.125C53.125 53.5394 53.2896 53.9368 53.5826 54.2299C53.8757 54.5229 54.2731 54.6875 54.6875 54.6875ZM56.25 45.3125H59.375V51.5625H56.25V45.3125Z" fill="#99A0B1"/>
<path d="M67.1875 54.6875H73.4375C73.8519 54.6875 74.2493 54.5229 74.5424 54.2299C74.8354 53.9368 75 53.5394 75 53.125V43.75C75 43.3356 74.8354 42.9382 74.5424 42.6451C74.2493 42.3521 73.8519 42.1875 73.4375 42.1875H67.1875C66.7731 42.1875 66.3757 42.3521 66.0826 42.6451C65.7896 42.9382 65.625 43.3356 65.625 43.75V53.125C65.625 53.5394 65.7896 53.9368 66.0826 54.2299C66.3757 54.5229 66.7731 54.6875 67.1875 54.6875ZM68.75 45.3125H71.875V51.5625H68.75V45.3125Z" fill="#99A0B1"/>
<path d="M42.1875 70.3125H48.4375C48.8519 70.3125 49.2493 70.1479 49.5424 69.8549C49.8354 69.5618 50 69.1644 50 68.75V59.375C50 58.9606 49.8354 58.5632 49.5424 58.2701C49.2493 57.9771 48.8519 57.8125 48.4375 57.8125H42.1875C41.7731 57.8125 41.3757 57.9771 41.0826 58.2701C40.7896 58.5632 40.625 58.9606 40.625 59.375V68.75C40.625 69.1644 40.7896 69.5618 41.0826 69.8549C41.3757 70.1479 41.7731 70.3125 42.1875 70.3125ZM43.75 60.9375H46.875V67.1875H43.75V60.9375Z" fill="#99A0B1"/>
<path d="M29.6875 70.3125H35.9375C36.3519 70.3125 36.7493 70.1479 37.0424 69.8549C37.3354 69.5618 37.5 69.1644 37.5 68.75V59.375C37.5 58.9606 37.3354 58.5632 37.0424 58.2701C36.7493 57.9771 36.3519 57.8125 35.9375 57.8125H29.6875C29.2731 57.8125 28.8757 57.9771 28.5826 58.2701C28.2896 58.5632 28.125 58.9606 28.125 59.375V68.75C28.125 69.1644 28.2896 69.5618 28.5826 69.8549C28.8757 70.1479 29.2731 70.3125 29.6875 70.3125ZM31.25 60.9375H34.375V67.1875H31.25V60.9375Z" fill="#99A0B1"/>
<path d="M54.6875 70.3125H60.9375C61.3519 70.3125 61.7493 70.1479 62.0424 69.8549C62.3354 69.5618 62.5 69.1644 62.5 68.75V59.375C62.5 58.9606 62.3354 58.5632 62.0424 58.2701C61.7493 57.9771 61.3519 57.8125 60.9375 57.8125H54.6875C54.2731 57.8125 53.8757 57.9771 53.5826 58.2701C53.2896 58.5632 53.125 58.9606 53.125 59.375V68.75C53.125 69.1644 53.2896 69.5618 53.5826 69.8549C53.8757 70.1479 54.2731 70.3125 54.6875 70.3125ZM56.25 60.9375H59.375V67.1875H56.25V60.9375Z" fill="#99A0B1"/>
<path d="M67.1875 70.3125H73.4375C73.8519 70.3125 74.2493 70.1479 74.5424 69.8549C74.8354 69.5618 75 69.1644 75 68.75V59.375C75 58.9606 74.8354 58.5632 74.5424 58.2701C74.2493 57.9771 73.8519 57.8125 73.4375 57.8125H67.1875C66.7731 57.8125 66.3757 57.9771 66.0826 58.2701C65.7896 58.5632 65.625 58.9606 65.625 59.375V68.75C65.625 69.1644 65.7896 69.5618 66.0826 69.8549C66.3757 70.1479 66.7731 70.3125 67.1875 70.3125ZM68.75 60.9375H71.875V67.1875H68.75V60.9375Z" fill="#99A0B1"/>
<path d="M95.3135 60.9375H81.251V6.25C81.251 5.8356 81.0863 5.43817 80.7933 5.14515C80.5003 4.85212 80.1029 4.6875 79.6885 4.6875H23.4385C23.0241 4.6875 22.6266 4.85212 22.3336 5.14515C22.0406 5.43817 21.876 5.8356 21.876 6.25V62.3187C20.5622 61.4736 19.0449 60.9983 17.4837 60.9427C15.9226 60.8871 14.3753 61.2533 13.0047 62.0028C11.6341 62.7523 10.4909 63.8574 9.69528 65.2017C8.89969 66.5461 8.48118 68.0801 8.48376 69.6422C8.4854 70.5101 8.61977 71.3727 8.8822 72.2C6.95499 72.8908 5.3337 74.2401 4.30446 76.0098C3.27521 77.7795 2.90416 79.856 3.25678 81.8726C3.6094 83.8893 4.66302 85.7166 6.23173 87.0321C7.80043 88.3476 9.78337 89.0667 11.8306 89.0625C13.1495 89.0544 14.4485 88.741 15.626 88.1469V93.75C15.626 94.1644 15.7906 94.5618 16.0836 94.8549C16.3766 95.1479 16.7741 95.3125 17.1885 95.3125C17.6029 95.3125 18.0003 95.1479 18.2933 94.8549C18.5863 94.5618 18.751 94.1644 18.751 93.75V88.1469C19.7284 88.6295 20.7891 88.9207 21.876 89.0047V93.75C21.876 94.1644 22.0406 94.5618 22.3336 94.8549C22.6266 95.1479 23.0241 95.3125 23.4385 95.3125H92.1885C92.6029 95.3125 93.0003 95.1479 93.2933 94.8549C93.5863 94.5618 93.751 94.1644 93.751 93.75V70.3125H95.3135C95.7279 70.3125 96.1253 70.1479 96.4183 69.8549C96.7113 69.5618 96.876 69.1644 96.876 68.75V62.5C96.876 62.0856 96.7113 61.6882 96.4183 61.3951C96.1253 61.1021 95.7279 60.9375 95.3135 60.9375ZM17.1885 79.6875C16.7741 79.6875 16.3766 79.8521 16.0836 80.1451C15.7906 80.4382 15.626 80.8356 15.626 81.25V84.375C14.6129 85.3706 13.2511 85.9313 11.8306 85.9375C10.4023 85.943 9.02663 85.3987 7.98872 84.4175C6.95082 83.4362 6.33029 82.0932 6.25576 80.6668C6.18122 79.2404 6.6584 77.84 7.58838 76.7559C8.51836 75.6718 9.82983 74.9871 11.251 74.8438C11.5115 74.8158 11.7609 74.7228 11.9762 74.5732C12.1914 74.4236 12.3655 74.2223 12.4825 73.9878C12.5996 73.7533 12.6557 73.4931 12.6458 73.2312C12.6359 72.9693 12.5603 72.7141 12.426 72.4891C11.9004 71.6322 11.6205 70.6474 11.6166 69.6422C11.6166 68.1624 12.2044 66.7431 13.2508 65.6968C14.2972 64.6504 15.7164 64.0625 17.1963 64.0625C18.6761 64.0625 20.0953 64.6504 21.1417 65.6968C22.1881 66.7431 22.776 68.1624 22.776 69.6422C22.7721 70.6474 22.4921 71.6322 21.9666 72.4891C21.8322 72.7141 21.7566 72.9693 21.7467 73.2312C21.7368 73.4931 21.793 73.7533 21.91 73.9878C22.027 74.2223 22.2012 74.4236 22.4164 74.5732C22.6316 74.7228 22.881 74.8158 23.1416 74.8438C24.5634 74.9871 25.8756 75.6723 26.8057 76.7573C27.7358 77.8423 28.2125 79.2437 28.1369 80.6707C28.0614 82.0978 27.4393 83.441 26.3998 84.4217C25.3603 85.4023 23.9831 85.9451 22.5541 85.9375C21.131 85.9333 19.7659 85.3725 18.751 84.375V81.25C18.751 80.8356 18.5863 80.4382 18.2933 80.1451C18.0003 79.8521 17.6029 79.6875 17.1885 79.6875ZM59.376 92.1875H43.751V76.5625H59.376V92.1875ZM78.126 92.1875H62.501V75C62.501 74.5856 62.3363 74.1882 62.0433 73.8951C61.7503 73.6021 61.3529 73.4375 60.9385 73.4375H42.1885C41.7741 73.4375 41.3766 73.6021 41.0836 73.8951C40.7906 74.1882 40.626 74.5856 40.626 75V92.1875H25.001V88.7047C26.7612 88.1912 28.3136 87.1335 29.4356 85.6832C30.5576 84.2329 31.1914 82.4646 31.2462 80.6318C31.3011 78.799 30.7741 76.9959 29.7408 75.4812C28.7075 73.9664 27.2211 72.8178 25.4947 72.2C25.7571 71.3727 25.8915 70.5101 25.8931 69.6422C25.8918 68.3193 25.5866 67.0144 25.001 65.8281V7.8125H78.126V92.1875ZM90.626 92.1875H81.251V70.3125H90.626V92.1875ZM93.751 67.1875H81.251V64.0625H93.751V67.1875Z" fill="#99A0B1"/>
</svg>
