<svg width="250" height="251" viewBox="0 0 250 251" fill="none" xmlns="http://www.w3.org/2000/svg">
<path d="M250 126C250 195.036 194.036 251 125 251C55.9636 251 0 195.036 0 126C0 56.9636 55.9636 1 125 1C194.036 1 250 56.9636 250 126Z" fill="#D1E6FF" fill-opacity="0.35"/>
<path d="M189.919 216.231H47.9661C46.0764 216.231 44.5452 214.699 44.5452 212.81V7.08301C44.5452 5.19336 46.0769 3.66211 47.9661 3.66211H189.92C191.809 3.66211 193.341 5.19385 193.341 7.08301V212.81C193.341 214.699 191.809 216.231 189.919 216.231Z" fill="#DEF2FC"/>
<path d="M193.341 27.6836H44.5447V7.08301C44.5447 5.19336 46.0764 3.66211 47.9656 3.66211H189.919C191.809 3.66211 193.34 5.19385 193.34 7.08301L193.341 27.6836Z" fill="#04A1EE"/>
<path d="M193.34 7.08496V212.808C193.34 214.697 191.806 216.23 189.917 216.23H47.9636C46.074 216.23 44.5457 214.697 44.5457 212.808V7.08496C44.5457 5.19531 46.074 3.66211 47.9636 3.66211H189.917C191.806 3.66211 193.34 5.19531 193.34 7.08496Z" fill="#DEF2FC"/>
<path d="M193.34 114.15V212.808C193.34 214.697 191.806 216.23 189.917 216.23H132.104V194.878L125.732 188.398C121.352 183.945 118.945 178.052 118.945 171.807V142.251C118.945 133.589 125.898 126.514 134.521 126.328V95.0049C134.521 88.7549 139.604 83.6768 145.849 83.6768H152.422C158.672 83.6768 163.75 88.7549 163.75 95.0049V103.481H169.384C174.16 103.481 178.257 106.45 179.917 110.64H185.151C188.369 110.64 191.279 111.987 193.34 114.15Z" fill="#BCCED5"/>
<path d="M193.34 7.08496V34.0332H44.5457V7.08496C44.5457 5.19531 46.074 3.66211 47.9636 3.66211H189.917C191.806 3.66211 193.34 5.19531 193.34 7.08496Z" fill="#BCCED5"/>
<path d="M193.341 27.6836H44.5447V7.08301C44.5447 5.19336 46.0764 3.66211 47.9656 3.66211H189.919C191.809 3.66211 193.34 5.19385 193.34 7.08301L193.341 27.6836Z" fill="#04A1EE"/>
<path d="M168.081 93.5547C168.081 96.958 167.73 100.278 167.061 103.481C162.486 125.435 143.023 141.929 119.707 141.929C119.453 141.929 119.204 141.929 118.95 141.919C92.5832 141.519 71.3381 120.015 71.3381 93.5547C71.3381 66.8408 92.9934 45.1807 119.707 45.1807C146.426 45.1807 168.081 66.8408 168.081 93.5547Z" fill="#FCB043"/>
<path d="M167.06 103.481C162.485 125.435 143.022 141.929 119.707 141.929C119.453 141.929 119.204 141.929 118.95 141.919C119.126 133.408 126.011 126.514 134.521 126.328V95.0049C134.521 88.7549 139.604 83.6768 145.849 83.6768H152.422C158.672 83.6768 163.75 88.7549 163.75 95.0049V103.481H167.06Z" fill="#DF781B"/>
<path d="M205.456 130.313C205.456 126.543 202.4 123.487 198.63 123.487H190.134V121.968C190.134 119.218 187.904 116.988 185.154 116.988H174.366V114.809C174.366 112.058 172.136 109.828 169.386 109.828H157.405V95.0029C157.405 92.2524 155.175 90.0225 152.424 90.0225H145.85C143.099 90.0225 140.869 92.2524 140.869 95.0029V132.674H134.87C129.58 132.674 125.292 136.962 125.292 142.251V171.805C125.292 176.348 127.077 180.708 130.261 183.947L138.453 192.281V242.33C138.453 244.543 140.247 246.337 142.461 246.337H191.564C193.778 246.337 195.571 244.543 195.571 242.33V190.171L202.103 181.266C204.281 178.295 205.456 174.707 205.456 171.022V130.313H205.456Z" fill="#FFE6CA"/>
<path d="M195.572 204.984V242.327C195.572 244.541 193.778 246.335 191.564 246.335H142.464C140.25 246.335 138.456 244.541 138.456 242.327V204.984H195.572Z" fill="#FFCE94"/>
<path d="M195.57 211.408V242.329C195.57 244.542 193.776 246.336 191.563 246.336H142.461C140.248 246.336 138.454 244.542 138.454 242.329V211.408H195.57Z" fill="#04A1EE"/>
<path d="M44.5452 52.2432C46.5676 52.2432 48.2073 50.6035 48.2073 48.5811V31.3457H189.678V47.2788C189.678 49.3013 191.318 50.9409 193.341 50.9409C195.363 50.9409 197.003 49.3013 197.003 47.2788V7.08301C197.003 3.17725 193.825 0 189.919 0H47.9661C44.0603 0 40.883 3.17725 40.883 7.08301V48.5806C40.883 50.6035 42.5222 52.2432 44.5452 52.2432ZM189.678 7.32422V24.0215H48.2073V7.32422H189.678Z" fill="black"/>
<path d="M61.3448 19.335H61.8507C63.8732 19.335 65.5128 17.6953 65.5128 15.6729C65.5128 13.6504 63.8732 12.0107 61.8507 12.0107H61.3448C59.3224 12.0107 57.6827 13.6504 57.6827 15.6729C57.6827 17.6953 59.3224 19.335 61.3448 19.335Z" fill="black"/>
<path d="M73.1847 19.335H73.6905C75.713 19.335 77.3526 17.6953 77.3526 15.6729C77.3526 13.6504 75.713 12.0107 73.6905 12.0107H73.1847C71.1622 12.0107 69.5226 13.6504 69.5226 15.6729C69.5226 17.6953 71.1622 19.335 73.1847 19.335Z" fill="black"/>
<path d="M85.025 19.335H85.5308C87.5533 19.335 89.1929 17.6953 89.1929 15.6729C89.1929 13.6504 87.5533 12.0107 85.5308 12.0107H85.025C83.0025 12.0107 81.3629 13.6504 81.3629 15.6729C81.3629 17.6953 83.0025 19.335 85.025 19.335Z" fill="black"/>
<path d="M129.286 79.4203C129.417 82.8792 127.751 86.0497 124.829 87.9017C119.33 91.3871 116.046 97.4686 116.046 104.17V106.114C116.046 108.136 117.686 109.776 119.708 109.776C121.731 109.776 123.371 108.136 123.371 106.114V104.17C123.371 100.054 125.432 96.1913 128.75 94.0882C133.823 90.8734 136.833 85.1463 136.605 79.1424C136.272 70.368 129.138 63.2342 120.364 62.9012C115.723 62.7293 111.323 64.3988 107.982 67.6156C104.64 70.8329 102.8 75.1595 102.8 79.7977C102.8 81.8202 104.439 83.4598 106.462 83.4598C108.484 83.4598 110.124 81.8202 110.124 79.7977C110.124 77.1683 111.167 74.7157 113.062 72.8915C114.955 71.0687 117.452 70.1205 120.086 70.2201C125.056 70.4085 129.098 74.45 129.286 79.4203Z" fill="black"/>
<path d="M123.371 120.559V119.769C123.371 117.746 121.731 116.106 119.708 116.106C117.686 116.106 116.046 117.746 116.046 119.769V120.559C116.046 122.582 117.686 124.221 119.708 124.221C121.731 124.221 123.371 122.582 123.371 120.559Z" fill="black"/>
<path d="M198.63 119.825H197.003V63.7236C197.003 61.7012 195.363 60.0615 193.341 60.0615C191.318 60.0615 189.678 61.7012 189.678 63.7236V114.616C188.361 113.802 186.813 113.326 185.154 113.326H177.901C177.24 109.522 174.085 106.564 170.188 106.204C171.217 102.085 171.743 97.8462 171.743 93.5552C171.743 64.8633 148.4 41.521 119.708 41.521C91.0163 41.521 67.6741 64.8638 67.6741 93.5552C67.6741 122.247 91.0168 145.59 119.708 145.59C120.347 145.59 120.988 145.569 121.629 145.546V158.056H112.46C110.438 158.056 108.798 159.696 108.798 161.718C108.798 163.741 110.438 165.38 112.46 165.38H121.629V170.951H83.3791C81.3567 170.951 79.717 172.59 79.717 174.613C79.717 176.635 81.3567 178.275 83.3791 178.275H122.648C123.288 180.255 124.222 182.129 125.428 183.845H83.3791C81.3567 183.845 79.717 185.485 79.717 187.507C79.717 189.53 81.3567 191.169 83.3791 191.169H132.223L134.79 193.78V212.569H48.2073V65.0259C48.2073 63.0034 46.5676 61.3638 44.5452 61.3638C42.5227 61.3638 40.883 63.0034 40.883 65.0259V212.81C40.883 216.716 44.0603 219.893 47.9661 219.893H134.79V242.331C134.79 246.56 138.231 250 142.46 250H157.956C159.978 250 161.618 248.36 161.618 246.338C161.618 244.315 159.978 242.676 157.956 242.676H142.46C142.269 242.676 142.114 242.521 142.114 242.331V215.07H191.908V242.331C191.908 242.521 191.754 242.676 191.563 242.676H174.401C172.379 242.676 170.739 244.315 170.739 246.338C170.739 248.36 172.379 250 174.401 250H191.563C195.792 250 199.233 246.56 199.233 242.331V191.37L205.055 183.431C207.713 179.807 209.117 175.517 209.117 171.022V130.313C209.117 124.53 204.413 119.825 198.63 119.825ZM74.9988 93.5552C74.9988 68.9019 95.0559 48.8452 119.709 48.8452C144.362 48.8452 164.419 68.9023 164.419 93.5552C164.419 97.8535 163.808 102.088 162.611 106.167H161.067V95.0034C161.067 94.877 161.06 94.7515 161.048 94.6284C160.849 90.0376 157.063 86.3608 152.424 86.3608H145.85C141.084 86.3608 137.207 90.2378 137.207 95.0034V129.012H134.869C128.988 129.012 123.992 132.869 122.271 138.185C121.418 138.233 120.562 138.266 119.709 138.266C95.0554 138.265 74.9988 118.208 74.9988 93.5552ZM201.793 171.022C201.793 173.948 200.879 176.741 199.149 179.1L192.617 188.005C192.157 188.634 191.908 189.392 191.908 190.171V207.746H142.114V192.282C142.114 191.321 141.737 190.399 141.064 189.714L132.872 181.381C130.345 178.811 128.954 175.41 128.954 171.806V142.252C128.954 138.99 131.608 136.336 134.869 136.336H137.207V164.033C137.207 166.056 138.847 167.695 140.869 167.695C142.892 167.695 144.531 166.056 144.531 164.033V132.674V95.0034C144.531 94.2764 145.123 93.6851 145.85 93.6851H152.424C153.151 93.6851 153.743 94.2764 153.743 95.0034V109.829V124.408C153.743 126.43 155.383 128.07 157.405 128.07C159.427 128.07 161.067 126.43 161.067 124.408V113.491H169.386C170.113 113.491 170.704 114.082 170.704 114.809V116.988V132.417C170.704 134.439 172.344 136.079 174.366 136.079C176.389 136.079 178.029 134.439 178.029 132.417V120.65H185.154C185.881 120.65 186.472 121.242 186.472 121.969V123.487C186.472 123.609 186.479 123.729 186.49 123.847C186.479 123.965 186.472 124.085 186.472 124.207V138.786C186.472 140.809 188.112 142.448 190.135 142.448C192.157 142.448 193.797 140.809 193.797 138.786V127.149H198.63C200.374 127.149 201.794 128.568 201.794 130.313L201.793 171.022Z" fill="black"/>
<path d="M83.3795 165.38H99.7775C101.8 165.38 103.44 163.741 103.44 161.718C103.44 159.696 101.8 158.056 99.7775 158.056H83.3795C81.3571 158.056 79.7174 159.696 79.7174 161.718C79.7174 163.741 81.3571 165.38 83.3795 165.38Z" fill="black"/>
</svg>
