<?xml version="1.0" encoding="utf-8"?>
<!-- Generator: Adobe Illustrator 22.0.0, SVG Export Plug-In . SVG Version: 6.00 Build 0)  -->
<svg version="1.1" id="Слой_1" xmlns="http://www.w3.org/2000/svg" xmlns:xlink="http://www.w3.org/1999/xlink" x="0px" y="0px"
	 viewBox="0 0 1600 242" style="enable-background:new 0 0 1600 242;" xml:space="preserve">
<style type="text/css">
	.st0{opacity:0.5;}
	.st1{fill:#A3A5B0;}
</style>
<g class="st0">
	<path class="st1" d="M291.2,231.7h11.5c0.6,0,1-0.4,1-1v-18c0-0.6-0.4-1-1-1h-11.5c-0.6,0-1,0.4-1,1v18
		C290.2,231.3,290.6,231.7,291.2,231.7z M292.2,229.7v-12h9.5v12H292.2z M301.7,213.7v2h-9.5v-2H301.7z"/>
	<path class="st1" d="M307.7,231.7h11.5c0.6,0,1-0.4,1-1v-18c0-0.6-0.4-1-1-1h-11.5c-0.6,0-1,0.4-1,1v18
		C306.7,231.3,307.1,231.7,307.7,231.7z M308.7,229.7v-12h9.5v12H308.7z M318.2,213.7v2h-9.5v-2H318.2z"/>
	<path class="st1" d="M261.4,176.7h11.5c0.6,0,1-0.4,1-1v-18c0-0.6-0.4-1-1-1h-11.5c-0.6,0-1,0.4-1,1v18
		C260.4,176.3,260.9,176.7,261.4,176.7z M262.4,174.7v-12h9.5v12H262.4z M271.9,158.7v2h-9.5v-2H271.9z"/>
	<path class="st1" d="M277.9,176.7h11.5c0.6,0,1-0.4,1-1v-18c0-0.6-0.4-1-1-1h-11.5c-0.6,0-1,0.4-1,1v18
		C276.9,176.3,277.4,176.7,277.9,176.7z M278.9,174.7v-12h9.5v12H278.9z M288.4,158.7v2h-9.5v-2H288.4z"/>
	<path class="st1" d="M333.3,176.7h11.5c0.6,0,1-0.4,1-1v-18c0-0.6-0.4-1-1-1h-11.5c-0.6,0-1,0.4-1,1v18
		C332.3,176.3,332.8,176.7,333.3,176.7z M334.3,174.7v-12h9.5v12H334.3z M343.8,158.7v2h-9.5v-2H343.8z"/>
	<path class="st1" d="M316.8,176.7h11.5c0.6,0,1-0.4,1-1v-18c0-0.6-0.4-1-1-1h-11.5c-0.6,0-1,0.4-1,1v18
		C315.8,176.3,316.3,176.7,316.8,176.7z M317.8,174.7v-12h9.5v12H317.8z M327.3,158.7v2h-9.5v-2H327.3z"/>
	<path class="st1" d="M297.4,152.2h11.5c0.6,0,1-0.4,1-1v-11.5c0-0.6-0.4-1-1-1h-11.5c-0.6,0-1,0.4-1,1v11.5
		C296.4,151.8,296.8,152.2,297.4,152.2z M298.4,140.7h9.5v9.5h-9.5V140.7z"/>
	<path class="st1" d="M369,234.1h-8c-0.6,0-1,0.4-1,1c0,0.6,0.4,1,1,1h8c0.6,0,1-0.4,1-1C370,234.5,369.5,234.1,369,234.1z"/>
	<path class="st1" d="M40.2,195.2h1.5h15h1.5c0.6,0,1-0.4,1-1c0-0.6-0.4-1-1-1h-0.5v-20c0-0.6-0.4-1-1-1h-15c-0.6,0-1,0.4-1,1v20
		h-0.5c-0.6,0-1,0.4-1,1C39.2,194.8,39.6,195.2,40.2,195.2z M55.7,174.2v8.5h-13v-8.5H55.7z M42.7,184.7h13v8.5h-13V184.7z"/>
	<path class="st1" d="M82,195.2h1.5h15h1.5c0.6,0,1-0.4,1-1c0-0.6-0.4-1-1-1h-0.5v-30c0-0.6-0.4-1-1-1h-15c-0.6,0-1,0.4-1,1v30H82
		c-0.6,0-1,0.4-1,1C81,194.8,81.5,195.2,82,195.2z M84.5,174.7h13v8h-13V174.7z M97.5,164.2v8.5h-13v-8.5H97.5z M84.5,184.7h13v8.5
		h-13V184.7z"/>
	<path class="st1" d="M125.2,195.2h1.5h15h1.5c0.6,0,1-0.4,1-1c0-0.6-0.4-1-1-1h-0.5v-20c0-0.6-0.4-1-1-1h-15c-0.6,0-1,0.4-1,1v20
		h-0.5c-0.6,0-1,0.4-1,1C124.2,194.8,124.6,195.2,125.2,195.2z M140.7,174.2v8.5h-13v-8.5H140.7z M127.7,184.7h13v8.5h-13V184.7z"/>
	<path class="st1" d="M58.2,225.2h-0.5v-20c0-0.6-0.4-1-1-1h-15c-0.6,0-1,0.4-1,1v20h-0.5c-0.6,0-1,0.4-1,1c0,0.6,0.4,1,1,1h1.5h15
		h1.5c0.6,0,1-0.4,1-1C59.2,225.7,58.7,225.2,58.2,225.2z M55.7,206.2v8.5h-13v-8.5H55.7z M42.7,225.2v-8.5h13v8.5H42.7z"/>
	<path class="st1" d="M125.2,227.2h1.5h15h1.5c0.6,0,1-0.4,1-1c0-0.6-0.4-1-1-1h-0.5v-20c0-0.6-0.4-1-1-1h-15c-0.6,0-1,0.4-1,1v20
		h-0.5c-0.6,0-1,0.4-1,1C124.2,226.8,124.6,227.2,125.2,227.2z M140.7,206.2v8.5h-13v-8.5H140.7z M127.7,216.7h13v8.5h-13V216.7z"/>
	<path class="st1" d="M83,205.7h-3c-0.6,0-1,0.4-1,1v24c0,0.6,0.4,1,1,1h3c0.6,0,1-0.4,1-1v-24C84,206.2,83.6,205.7,83,205.7z
		 M82,229.7h-1v-22h1V229.7z"/>
	<path class="st1" d="M96,205.7H86c-0.6,0-1,0.4-1,1v15.5c0,0.6,0.4,1,1,1h10c0.6,0,1-0.4,1-1v-15.5C97,206.2,96.6,205.7,96,205.7z
		 M95,221.2h-8v-13.5h8V221.2z"/>
	<path class="st1" d="M96,224.2H86c-0.6,0-1,0.4-1,1v5.5c0,0.6,0.4,1,1,1h10c0.6,0,1-0.4,1-1v-5.5C97,224.7,96.6,224.2,96,224.2z
		 M95,229.7h-8v-3.5h8V229.7z"/>
	<path class="st1" d="M102,205.7h-3c-0.6,0-1,0.4-1,1v24c0,0.6,0.4,1,1,1h3c0.6,0,1-0.4,1-1v-24C103,206.2,102.6,205.7,102,205.7z
		 M101,229.7h-1v-22h1V229.7z"/>
	<path class="st1" d="M789.8,178.6h-15c-0.6,0-1,0.4-1,1v21.5c0,0.6,0.4,1,1,1h15c0.6,0,1-0.4,1-1v-21.5
		C790.8,179.1,790.3,178.6,789.8,178.6z M788.8,180.6v6.5h-13v-6.5H788.8z M775.8,189.1h5.5v11h-5.5V189.1z M783.3,200.1v-11h5.5v11
		H783.3z"/>
	<path class="st1" d="M789.8,205.6h-15c-0.6,0-1,0.4-1,1v21.5c0,0.6,0.4,1,1,1h15c0.6,0,1-0.4,1-1v-21.5
		C790.8,206.1,790.3,205.6,789.8,205.6z M788.8,207.6v6.5h-13v-6.5H788.8z M775.8,216.1h5.5v11h-5.5V216.1z M783.3,227.1v-11h5.5v11
		H783.3z"/>
	<path class="st1" d="M797.8,202.1h15c0.6,0,1-0.4,1-1v-21.5c0-0.6-0.4-1-1-1h-15c-0.6,0-1,0.4-1,1v21.5
		C796.8,201.7,797.2,202.1,797.8,202.1z M798.8,189.1h5.5v11h-5.5V189.1z M806.3,200.1v-11h5.5v11H806.3z M811.8,180.6v6.5h-13v-6.5
		H811.8z"/>
	<path class="st1" d="M723.3,193.6h-1v-21c0-0.6-0.4-1-1-1h-14c-0.6,0-1,0.4-1,1v21h-1c-0.6,0-1,0.4-1,1c0,0.6,0.4,1,1,1h2h14h2
		c0.6,0,1-0.4,1-1C724.3,194.1,723.9,193.6,723.3,193.6z M720.3,173.6v9h-12v-9H720.3z M708.3,193.6v-9h12v9H708.3z"/>
	<path class="st1" d="M764.8,193.6h-1v-21c0-0.6-0.4-1-1-1h-14c-0.6,0-1,0.4-1,1v21h-1c-0.6,0-1,0.4-1,1c0,0.6,0.4,1,1,1h2h14h2
		c0.6,0,1-0.4,1-1C765.8,194.1,765.3,193.6,764.8,193.6z M761.8,173.6v9h-12v-9H761.8z M749.8,193.6v-9h12v9H749.8z"/>
	<path class="st1" d="M744,193.6h-1v-21c0-0.6-0.4-1-1-1h-14c-0.6,0-1,0.4-1,1v21h-1c-0.6,0-1,0.4-1,1c0,0.6,0.4,1,1,1h2h14h2
		c0.6,0,1-0.4,1-1C745,194.1,744.6,193.6,744,193.6z M741,173.6v9h-12v-9H741z M729,193.6v-9h12v9H729z"/>
	<path class="st1" d="M723.3,226.1h-1v-21c0-0.6-0.4-1-1-1h-14c-0.6,0-1,0.4-1,1v21h-1c-0.6,0-1,0.4-1,1c0,0.6,0.4,1,1,1h2h14h2
		c0.6,0,1-0.4,1-1C724.3,226.6,723.9,226.1,723.3,226.1z M720.3,206.1v9h-12v-9H720.3z M708.3,226.1v-9h12v9H708.3z"/>
	<path class="st1" d="M764.8,226.1h-1v-21c0-0.6-0.4-1-1-1h-14c-0.6,0-1,0.4-1,1v21h-1c-0.6,0-1,0.4-1,1c0,0.6,0.4,1,1,1h2h14h2
		c0.6,0,1-0.4,1-1C765.8,226.6,765.3,226.1,764.8,226.1z M761.8,206.1v9h-12v-9H761.8z M749.8,226.1v-9h12v9H749.8z"/>
	<path class="st1" d="M744,226.1h-1v-21c0-0.6-0.4-1-1-1h-14c-0.6,0-1,0.4-1,1v21h-1c-0.6,0-1,0.4-1,1c0,0.6,0.4,1,1,1h2h14h2
		c0.6,0,1-0.4,1-1C745,226.6,744.6,226.1,744,226.1z M741,206.1v9h-12v-9H741z M729,226.1v-9h12v9H729z"/>
	<path class="st1" d="M735,155.2c4,0,7.2-3.3,7.2-7.2c0-4-3.3-7.2-7.2-7.2c-4,0-7.2,3.3-7.2,7.2C727.8,152,731,155.2,735,155.2z
		 M729.9,149h4.1v4.1C732,152.7,730.3,151.1,729.9,149z M736,153.1V149h4.1C739.8,151.1,738.1,152.7,736,153.1z M740.2,147h-4.1
		v-4.1C738.1,143.2,739.8,144.9,740.2,147z M734,142.8v4.1h-4.1C730.3,144.9,732,143.2,734,142.8z"/>
	<path class="st1" d="M805.2,218.1c2.2,0,4-1.8,4-4c0-2.2-1.8-4-4-4s-4,1.8-4,4C801.2,216.3,803,218.1,805.2,218.1z M805.2,212.1
		c1.1,0,2,0.9,2,2c0,1.1-0.9,2-2,2c-1.1,0-2-0.9-2-2C803.2,213,804.1,212.1,805.2,212.1z"/>
	<path class="st1" d="M511.4,174.9l-13.6-8.3c-0.3-0.2-0.7-0.2-1,0l-13.6,8.3c-0.5,0.3-0.6,0.9-0.3,1.4l2.3,3.8
		c0.1,0.2,0.4,0.4,0.6,0.5c0.1,0,0.2,0,0.2,0c0.2,0,0.4,0,0.5-0.1l0.7-0.4v14.7c0,0.6,0.4,1,1,1h18c0.6,0,1-0.4,1-1V180l0.7,0.4
		c0.2,0.1,0.5,0.2,0.8,0.1c0.3-0.1,0.5-0.2,0.6-0.5l2.3-3.8C512,175.8,511.8,175.2,511.4,174.9z M505.2,193.7h-16v-14.9l8-4.9l8,4.9
		V193.7z M508.2,178.2l-1.3-0.8c0,0,0,0-0.1,0l-9-5.5c0,0-0.1,0-0.1-0.1c-0.2-0.1-0.5-0.1-0.8,0c0,0-0.1,0-0.1,0.1l-9,5.5
		c0,0,0,0-0.1,0l-1.3,0.8l-1.3-2.1l12.2-7.5l12.2,7.5L508.2,178.2z"/>
	<path class="st1" d="M587.7,166.6l-13.6,8.3c-0.5,0.3-0.6,0.9-0.3,1.4l2.3,3.8c0.1,0.2,0.4,0.4,0.6,0.5c0.1,0,0.2,0,0.2,0
		c0.2,0,0.4,0,0.5-0.1l0.7-0.4v14.7c0,0.6,0.4,1,1,1h18c0.6,0,1-0.4,1-1V180l0.7,0.4c0.2,0.1,0.5,0.2,0.8,0.1s0.5-0.2,0.6-0.5
		l2.3-3.8c0.3-0.5,0.1-1.1-0.3-1.4l-13.6-8.3C588.4,166.4,588,166.4,587.7,166.6z M596.2,193.7h-16v-14.9l8-4.9l8,4.9V193.7z
		 M600.5,176.1l-1.3,2.1l-1.3-0.8c0,0,0,0-0.1,0l-9-5.5c0,0-0.1,0-0.1-0.1c-0.2-0.1-0.5-0.1-0.8,0c0,0-0.1,0-0.1,0.1l-9,5.5
		c0,0,0,0-0.1,0l-1.3,0.8l-1.3-2.1l12.2-7.5L600.5,176.1z"/>
	<path class="st1" d="M493.2,212.2h-10c-0.6,0-1,0.4-1,1v18c0,0.6,0.4,1,1,1h10c0.6,0,1-0.4,1-1v-18
		C494.2,212.7,493.8,212.2,493.2,212.2z M492.2,230.2h-8v-16h8V230.2z"/>
	<path class="st1" d="M509.2,212.2h-10c-0.6,0-1,0.4-1,1v18c0,0.6,0.4,1,1,1h10c0.6,0,1-0.4,1-1v-18
		C510.2,212.7,509.8,212.2,509.2,212.2z M508.2,230.2h-8v-16h8V230.2z"/>
	<path class="st1" d="M602.2,212.2h-10c-0.6,0-1,0.4-1,1v18c0,0.6,0.4,1,1,1h10c0.6,0,1-0.4,1-1v-18
		C603.2,212.7,602.8,212.2,602.2,212.2z M601.2,230.2h-8v-16h8V230.2z"/>
	<path class="st1" d="M586.2,212.2h-10c-0.6,0-1,0.4-1,1v18c0,0.6,0.4,1,1,1h10c0.6,0,1-0.4,1-1v-18
		C587.2,212.7,586.8,212.2,586.2,212.2z M585.2,230.2h-8v-16h8V230.2z"/>
	<path class="st1" d="M894.1,239.2h-14.3V196c0-13-10.5-23.5-23.5-23.5c-8.2,0-15.8,4.3-20,11.2c-2-0.7-4.1-1-6.2-1
		c-3.7,0-7.2,1-10.3,2.9v-8.9h3c0.6,0,1-0.4,1-1v-38.9c0-0.6-0.4-1-1-1h-75l-12-10.9c-0.4-0.3-1-0.3-1.3,0l-40,36.2
		c-0.2,0.2-0.3,0.5-0.3,0.8c0,0.3,0.1,0.6,0.4,0.8l3.5,2.8c0.2,0.1,0.4,0.2,0.6,0.2s0.5-0.1,0.7-0.3l1.1-1v11.8
		c-1.7-1-3.6-1.5-5.6-1.5c-2.7,0-5.2,1-7.2,2.7c-2.6-5.7-8.2-9.4-14.6-9.4c-8.5,0-15.4,6.6-16,15c-1-0.2-2.1-0.4-3.2-0.4
		c-7.4,0-13.5,6.1-13.5,13.5v43.1h-29v-36h7c0.1,0,0.2,0,0.4-0.1c0.1,0,0.1-0.1,0.2-0.1c0,0,0.1,0,0.1-0.1c0,0,0.1-0.1,0.1-0.2
		c0-0.1,0.1-0.1,0.1-0.2c0,0,0-0.1,0-0.2s0-0.2,0-0.2c0-0.1,0-0.1,0-0.2c0-0.1,0-0.1,0-0.2l-16-42c-0.1-0.4-0.5-0.6-0.9-0.6h-13v-5
		h1c0.6,0,1-0.4,1-1v-3c0-0.6-0.4-1-1-1h-14c-0.6,0-1,0.4-1,1v3c0,0.6,0.4,1,1,1h1v5h-69v-5h1c0.6,0,1-0.4,1-1v-3c0-0.6-0.4-1-1-1
		h-14c-0.6,0-1,0.4-1,1v3c0,0.6,0.4,1,1,1h1v5h-7.3c-1.3-2-3-3.8-4.9-5.3c1.5-2.3,2.2-4.8,2.2-7.5c0-7.7-6.2-13.9-13.9-13.9
		c-3.5,0-7,1.4-9.5,3.8c-3.8-4.5-9.3-7-15.2-7c-11,0-20,9-20,20c0,6.6,3.3,12.8,8.7,16.5v0.4c0,6.8,5.5,12.4,12.4,12.4h0.4
		c1.3,4,3.8,7.6,7.1,10.2c-1.9,8.2-3.5,17.4-4.6,27.4c-3.2-8.1-5.9-11.9-7-13.2c1-2.2,1.5-4.5,1.5-6.9c0-9-7.2-16.5-16.2-16.9
		c-2.4-3.5-6.3-5.5-10.5-5.5c-7,0-12.8,5.7-12.8,12.8c0,4.3,2.1,8.2,5.6,10.6c0.5,8.9,7.9,16,16.9,16c4.6,0,9-1.9,12.2-5.2
		c2.2,3.4,8.6,14.9,8.6,28.3c-0.1,1.4-0.1,2.5-0.1,3.2h-49.5v-35.4l4.1,1.9c0.1,0.1,0.3,0.1,0.4,0.1c0.3,0,0.5-0.1,0.7-0.3l3.1-3.1
		c0.2-0.2,0.3-0.6,0.3-0.9c-0.1-0.3-0.3-0.6-0.6-0.7L365.2,181c-0.3-0.1-0.6-0.1-0.8,0l-11.3,5.2v-34.1l8.1,3.7
		c0.1,0.1,0.3,0.1,0.4,0.1c0.3,0,0.5-0.1,0.7-0.3l3.1-3.1c0.2-0.2,0.3-0.6,0.3-0.9c-0.1-0.3-0.3-0.6-0.6-0.7l-61.6-28.4
		c-0.3-0.1-0.6-0.1-0.8,0L277.4,134v-10.7h0.5c0.6,0,1-0.4,1-1v-4c0-0.6-0.4-1-1-1h-18c-0.6,0-1,0.4-1,1v4c0,0.6,0.4,1,1,1h0.5v18.5
		l-19.3,8.9c-0.3,0.1-0.5,0.4-0.6,0.7c-0.1,0.3,0,0.7,0.3,0.9l3.1,3.1c0.3,0.3,0.7,0.4,1.1,0.2l7.2-3.3v33.3l-5,16.4
		c-0.1,0.3,0,0.6,0.2,0.9c0.2,0.3,0.5,0.4,0.8,0.4h4v36h-21.3v-15h11c0.4,0,0.7-0.2,0.9-0.5c0.2-0.3,0.2-0.7,0-1l-8.7-14.5h3.6
		c0.4,0,0.7-0.2,0.9-0.5s0.2-0.7,0-1l-7.9-13.2h2.3c0.3,0,0.7-0.2,0.9-0.5s0.2-0.7,0-1l-6-12c-0.3-0.7-1.5-0.7-1.8,0l-6,12
		c-0.2,0.3-0.1,0.7,0,1c0.2,0.3,0.5,0.5,0.9,0.5h2.3l-7.9,13.2c-0.2,0.3-0.2,0.7,0,1s0.5,0.5,0.9,0.5h3.6l-8.7,14.5
		c-0.2,0.3-0.2,0.7,0,1s0.5,0.5,0.9,0.5h11v15h-16.7v-34c0-0.6-0.4-1-1-1h-3.6c1.2-3.3,1.2-6.8-0.2-10c-1.4-3.3-4-5.9-7.3-7.3
		c-4.1-1.7-8.8-1.2-12.5,1.2c-2.2-3.1-5.2-5.5-8.7-6.9c-5.4-2.2-11.6-1.9-16.7,0.8v-17.9h3c0.6,0,1-0.4,1-1v-4c0-0.6-0.4-1-1-1
		l-34.6-22.6c-0.2-0.1-0.4-0.2-0.5-0.2H98.9l-6.5-4.8c-0.4-0.3-0.8-0.3-1.2,0l-6.5,4.8H59.3c-0.2,0-0.4,0.1-0.5,0.2l-34.9,22.8
		c0,0,0,0-0.1,0.1c-0.1,0-0.1,0.1-0.1,0.1s-0.1,0.1-0.1,0.2s-0.1,0.1-0.1,0.2c0,0.1,0,0.1,0,0.2v4.1c0,0.6,0.4,1,1,1h3v17.9
		c-3.5-3-8.1-4.7-12.8-4.7c-5.9,0-11.1,2.5-14.8,6.6c0.1,0.9,0.1,1.8,0,2.7c3.2-4.5,8.5-7.3,14.3-7.3c4.8,0,9.4,2,12.8,5.4v19.3
		H-0.1c0.2,0.7,0.4,1.4,0.5,2.1h1.8v33H0.1c0,0.6,0,1.3-0.1,1.9h894c0.6,0.1,1.1-0.3,1.1-0.9C895.1,239.6,894.7,239.2,894.1,239.2z
		 M7.2,239.2h-3v-33h3V239.2z M12.2,239.2h-3v-33h3V239.2z M17.2,239.2h-3v-33h3V239.2z M22.2,239.2h-3v-33h3V239.2z M27.2,239.2h-3
		v-33h3V239.2z M123.7,137.5l31.8,20.8h-25.9l-28.3-20.8H123.7z M59.3,137.5h22.4l-28.3,20.8H27.5L59.3,137.5z M25.1,162.3v-2.1
		h28.7c0.2,0,0.4-0.1,0.6-0.2l37.1-27.3l37.1,27.3c0.2,0.1,0.4,0.2,0.6,0.2h28.9v2h-29.9l-36.1-26.5c-0.4-0.3-0.8-0.3-1.2,0
		l-36.2,26.6H25.1z M108.5,239.2h-35v-1h35V239.2z M78,204.2h26v29H78V204.2z M74.5,202.2v-1h33v1H74.5z M106.5,235.2v1h-31v-1
		H106.5z M154.1,239.2h-43.6v-2c0-0.6-0.4-1-1-1h-1v-2c0-0.6-0.4-1-1-1H106v-29h2.5c0.6,0,1-0.4,1-1v-3c0-0.6-0.4-1-1-1h-35
		c-0.6,0-1,0.4-1,1v3c0,0.6,0.4,1,1,1H76v29h-1.5c-0.6,0-1,0.4-1,1v2h-1c-0.6,0-1,0.4-1,1v2H29.1v-34h0.1v-41h25.9
		c0.2,0,0.4-0.1,0.6-0.2l35.8-26.3l35.8,26.3c0.2,0.1,0.4,0.2,0.6,0.2h26.2V239.2z M159.2,239.2h-3v-33h3V239.2z M164.2,239.2h-3
		v-33h3V239.2z M169.2,239.2h-3v-33h3V239.2z M174.2,239.2h-3v-33h3V239.2z M179.2,239.2h-3v-33h3V239.2z M184.2,239.2h-3v-33h3
		V239.2z M189.2,239.2h-3v-33h3V239.2z M194.2,239.2h-3v-33h3V239.2z M199.2,239.2h-3v-33h3V239.2z M199.6,203.8
		c-0.1,0.2-0.1,0.3-0.2,0.5h-43.2v-19.8c4.8-3.1,10.7-3.6,15.9-1.4c3.5,1.4,6.3,3.8,8.3,7c0.2,0.2,0.4,0.4,0.7,0.5
		c0.3,0.1,0.6,0,0.8-0.2c3.2-2.5,7.6-3.1,11.4-1.6c2.8,1.2,5.1,3.4,6.3,6.2S200.8,201,199.6,203.8z M204.2,239.2h-3v-33h3V239.2z
		 M228.9,223.2v16h-4v-16c0-0.6-0.4-1-1-1h-10.2l8.7-14.5c0.2-0.3,0.2-0.7,0-1c-0.2-0.3-0.5-0.5-0.9-0.5h-3.6l7.9-13.2
		c0.2-0.3,0.2-0.7,0-1c-0.2-0.3-0.5-0.5-0.9-0.5h-2.4l4.4-8.8l4.4,8.8h-2.4c-0.4,0-0.7,0.2-0.9,0.5c-0.2,0.3-0.2,0.7,0,1l7.9,13.2
		h-3.6c-0.4,0-0.7,0.2-0.9,0.5c-0.2,0.3-0.2,0.7,0,1l8.7,14.5h-10.2C229.3,222.2,228.9,222.6,228.9,223.2z M260.9,119.3h16v2h-16
		V119.3z M275.4,123.3v11.6l-13,6v-17.6H275.4z M244.8,153.5l-1.6-1.6l59.9-27.6l59.9,27.6l-1.6,1.6l-57.9-26.7
		c-0.1-0.1-0.3-0.1-0.4-0.1s-0.3,0-0.4,0.1l-49.8,22.9c-0.1,0-0.2,0.1-0.2,0.1L244.8,153.5z M351.1,150.9v33.8h-97v-33.3l49-22.6
		L351.1,150.9z M249.5,201.2l4.4-14.5h97.3v0.2l-30,13.8c-0.2,0.1-0.4,0.3-0.5,0.5H249.5z M281.7,239.2h-12.5v-25.5h12.5V239.2z
		 M329.2,239.1h-45.5v-26.5c0-0.6-0.4-1-1-1h-14.5c-0.6,0-1,0.4-1,1v26.5h-13v-35.9h67.6l2.2,2.2c0.3,0.3,0.7,0.4,1.1,0.2l4.1-1.9
		V239.1z M388.9,239.2h-48v-25.5h48V239.2z M398.7,239.2h-7.8v-26.5c0-0.6-0.4-1-1-1h-50c-0.6,0-1,0.4-1,1v26.5h-7.8v-36.4
		l33.8-15.5l33.8,15.5V239.2z M365.3,185.3c-0.3-0.1-0.6-0.1-0.8,0l-34.7,16l-4.8,2.2l-1.6-1.6l41.5-19.1l41.6,19.1l-1.6,1.6
		l-4.8-2.2L365.3,185.3z M577.2,152.2v-1h12v1H577.2z M587.2,154.2v5h-8v-5H587.2z M496.2,152.2v-1h12v1H496.2z M506.2,154.2v5h-8
		v-5H506.2z M601.5,161.1l15.3,40.1h-36.5l-37.1-20.8c-0.3-0.2-0.7-0.2-1,0l-37,20.7h-36.6l3.2-8.3l12.1-31.7H601.5z M452.2,239.4
		v-0.2c0-0.7,0.1-1.8,0.1-3.2v-0.1c0-15.6-8.3-28.3-9.5-30.2c-0.1-0.2-0.2-0.4-0.4-0.5c-0.4-0.3-1-0.2-1.4,0.2
		c-2.9,3.5-7.1,5.5-11.6,5.5c-8,0-14.7-6.6-14.9-14.6c0-0.3-0.2-0.7-0.5-0.8c-3.2-2-5.1-5.4-5.1-9.2c0-5.9,4.8-10.8,10.8-10.8
		c3.7,0,7.1,1.9,9.1,5c0.2,0.3,0.5,0.5,0.8,0.5c8.1,0.1,14.8,6.8,14.8,14.9c0,2.4-0.5,4.6-1.6,6.8c-0.2,0.5-0.1,1.1,0.4,1.3
		c0.1,0,0.1,0.1,0.2,0.1c1,1.2,4.3,5.8,8.1,16.5c0.1,0.5,0.4,0.8,0.9,0.9c0.6,0,1-0.4,1.1-0.9c1.1-11.9,2.9-22.7,5.2-32.1
		c0.1-0.4-0.1-0.8-0.4-1c-3.4-2.6-6-6.3-7.2-10.4c-0.1-0.5-0.6-0.8-1.1-0.7c-0.3,0-0.7,0.1-1.1,0.1c-5.7,0-10.4-4.7-10.4-10.4v-0.8
		c0-0.4-0.1-0.7-0.5-0.9c-5.2-3.3-8.3-9-8.3-15.1c0-9.9,8.1-18,18-18c5.7,0,10.9,2.6,14.3,7.1c0.2,0.2,0.5,0.4,0.8,0.4
		s0.6-0.1,0.8-0.3c2.3-2.5,5.5-4,8.9-4c6.6,0,11.9,5.3,11.9,11.9c0,2.6-0.8,5.1-2.4,7.2c-0.2,0.2-0.2,0.5-0.2,0.8
		c0,0.3,0.2,0.5,0.4,0.7c1.7,1.2,3.2,2.7,4.4,4.3h-3.3c-0.4,0-0.8,0.3-0.9,0.6l-12.1,31.7c-3.2,0-6.4-0.8-9.3-2.3
		c-0.3-0.1-0.6-0.2-0.9,0c-0.3,0.1-0.5,0.4-0.6,0.7c-5.3,21.8-5,44.3-4.9,49.3H452.2z M474.2,239.3h-17.6
		c-0.1-4.8-0.4-26.4,4.6-47.7c2.6,1.2,5.4,1.9,8.3,2l-3.2,8.3c0,0.1,0,0.1,0,0.2c0,0.1,0,0.1,0,0.2s0,0.2,0,0.2v0.1
		c0,0.1,0.1,0.1,0.1,0.2s0.1,0.1,0.1,0.2l0.1,0.1c0.1,0,0.1,0.1,0.2,0.1c0.1,0,0.2,0.1,0.4,0.1h7V239.3z M516.7,239.3h-40.5v-36.1
		h28.6l2.7,4.8c0.1,0.2,0.3,0.4,0.6,0.5h0.3c0.2,0,0.3,0,0.5-0.1l7.8-4.4V239.3z M517.1,201.4l-8.4,4.7l-2-3.5l35.9-20.1l36,20.1
		l-2,3.5l-33.4-18.8c-0.3-0.2-0.7-0.2-1,0l-0.5,0.3L517.1,201.4L517.1,201.4z M549.2,239.2h-13v-25h13V239.2z M566.7,239.1h-15.5
		v-26c0-0.4-0.4-0.9-1-0.9h-15c-0.6,0-1,0.4-1,1v26h-15.5v-36.4l24-13.5l24,13.4V239.1z M609.3,239.2h-40.6v-35.3l7.9,4.4
		c0.5,0.3,1.1,0.1,1.4-0.4l2.7-4.7h28.6V239.2z M646.3,239.2h-4v-32.5c0-1.1,0.9-2,2-2c1.1,0,2,0.9,2,2V239.2z M650.3,239.2h-2v-4h2
		V239.2z M650.3,233.2h-2v-1h2V233.2z M650.3,230.2h-2v-13.5h2V230.2z M650.3,214.7h-2v-1h2V214.7z M656.3,239.2h-4v-32.5
		c0-1.1,0.9-2,2-2c1.1,0,2,0.9,2,2V239.2z M660.3,239.2h-2v-4h2V239.2z M660.3,233.2h-2v-1h2V233.2z M660.3,230.2h-2v-13.5h2V230.2z
		 M660.3,214.7h-2v-1h2V214.7z M666.3,239.2h-4v-32.5c0-1.1,0.9-2,2-2c1.1,0,2,0.9,2,2V239.2z M670.3,239.2h-2v-4h2V239.2z
		 M670.3,233.2h-2v-1h2V233.2z M670.3,230.2h-2v-13.5h2V230.2z M670.3,214.7h-2v-1h2V214.7z M676.3,239.2h-4v-32.5c0-1.1,0.9-2,2-2
		c1.1,0,2,0.9,2,2V239.2z M680.3,239.2h-2v-4h2V239.2z M680.3,233.2h-2v-1h2V233.2z M680.3,230.2h-2v-13.5h2V230.2z M680.3,214.7h-2
		v-1h2V214.7z M686.3,239.2h-4v-32.5c0-1.1,0.9-2,2-2c1.1,0,2,0.9,2,2V239.2z M690.3,239.2h-2v-4h2V239.2z M690.3,233.2h-2v-1h2
		V233.2z M690.3,230.2h-2v-13.5h2V230.2z M690.3,214.7h-2v-1h2V214.7z M696.3,239.2h-4v-32.5c0-1.1,0.9-2,2-2c1.1,0,2,0.9,2,2V239.2
		z M694.2,202.8c-2.2,0-4,1.8-4,4v5h-2v-5c0-2.2-1.8-4-4-4s-4,1.8-4,4v5h-2v-5c0-2.2-1.8-4-4-4s-4,1.8-4,4v5h-2v-5c0-2.2-1.8-4-4-4
		s-4,1.8-4,4v5h-2v-5c0-2.2-1.8-4-4-4s-4,1.8-4,4v5h-2v-5c0-2.2-1.8-4-4-4c-0.7,0-1.4,0.2-2,0.6v-7.1c0.1-6.5,5.3-11.7,11.6-11.7
		c1.3,0,2.6,0.2,3.8,0.6c0.3,0.1,0.7,0.1,0.9-0.1c0.3-0.2,0.4-0.5,0.4-0.8V184c0-7.7,6.3-14,14-14c6,0,11.3,3.8,13.2,9.5
		c0.1,0.3,0.4,0.6,0.8,0.7c0.4,0.1,0.7-0.1,0.9-0.3c1.7-2,4.2-3.1,6.8-3.1c2.1,0,4,0.7,5.6,2v33h-2v-5
		C698.2,204.6,696.4,202.8,694.2,202.8z M700.3,239.2h-2v-4h2V239.2z M700.3,233.2h-2v-1h2V233.2z M700.3,230.2h-2v-13.5h2V230.2z
		 M700.3,214.7h-2v-1h2V214.7z M821.6,174.7h-51.8v-1.9l1,0.8c0.4,0.3,0.9,0.3,1.3,0l3-2.5l3,2.5c0.4,0.3,0.9,0.3,1.3,0l3-2.5l3,2.5
		c0.4,0.3,0.9,0.3,1.3,0l3-2.5l3,2.5c0.4,0.3,0.9,0.3,1.3,0l3-2.5l3,2.5c0.4,0.3,0.9,0.3,1.3,0l3-2.5l3,2.5c0.4,0.3,0.9,0.3,1.3,0
		l3-2.5l3,2.5c0.4,0.3,0.9,0.3,1.3,0l3-2.5l2.7,2.2V174.7z M821.6,170.7l-2-1.7c-0.4-0.3-0.9-0.3-1.3,0l-3,2.5l-3-2.5
		c-0.4-0.3-0.9-0.3-1.3,0l-3,2.5l-3-2.5c-0.4-0.3-0.9-0.3-1.3,0l-3,2.5l-3-2.5c-0.4-0.3-0.9-0.3-1.3,0l-3,2.5l-3-2.5
		c-0.4-0.3-0.9-0.3-1.3,0l-3,2.5l-3-2.5c-0.4-0.3-0.9-0.3-1.3,0l-3,2.5l-3-2.5c-0.4-0.3-0.9-0.3-1.3,0l-3,2.5l-1.6-1.3v-2.3l0.9,0.7
		c0.4,0.3,0.9,0.3,1.3,0l3-2.5l3,2.5c0.4,0.3,0.9,0.3,1.3,0l3-2.5l3,2.5c0.4,0.3,0.9,0.3,1.3,0l3-2.5l3,2.5c0.4,0.3,0.9,0.3,1.3,0
		l3-2.5l3,2.5c0.4,0.3,0.9,0.3,1.3,0l3-2.5l3,2.5c0.4,0.3,0.9,0.3,1.3,0l3-2.5l3,2.5c0.4,0.3,0.9,0.3,1.3,0l3-2.5l2.7,2.2V170.7z
		 M821.6,165.7l-2-1.7c-0.4-0.3-0.9-0.3-1.3,0l-3,2.5l-3-2.5c-0.4-0.3-0.9-0.3-1.3,0l-3,2.5l-3-2.5c-0.4-0.3-0.9-0.3-1.3,0l-3,2.5
		l-3-2.5c-0.4-0.3-0.9-0.3-1.3,0l-3,2.5l-3-2.5c-0.4-0.3-0.9-0.3-1.3,0l-3,2.5l-3-2.5c-0.4-0.3-0.9-0.3-1.3,0l-3,2.5l-3-2.5
		c-0.4-0.3-0.9-0.3-1.3,0l-3,2.5l-1.6-1.3v-0.8l0.4,0.5c0.4,0.3,0.9,0.3,1.3,0l3.5-2.8c0.2-0.2,0.3-0.4,0.4-0.7l2.6,2.2
		c0.4,0.3,0.9,0.3,1.3,0l3-2.5l3,2.5c0.4,0.3,0.9,0.3,1.3,0l3-2.5l3,2.5c0.4,0.3,0.9,0.3,1.3,0l3-2.5l3,2.5c0.4,0.3,0.9,0.3,1.3,0
		l3-2.5l3,2.5c0.4,0.3,0.9,0.3,1.3,0l3-2.5l3,2.5c0.4,0.3,0.9,0.3,1.3,0l3-2.5l2.7,2.2V165.7z M821.6,160.8l-2-1.7
		c-0.4-0.3-0.9-0.3-1.3,0l-3,2.5l-3-2.5c-0.4-0.3-0.9-0.3-1.3,0l-3,2.5l-3-2.5c-0.4-0.3-0.9-0.3-1.3,0l-3,2.5l-3-2.5
		c-0.4-0.3-0.9-0.3-1.3,0l-3,2.5l-3-2.5c-0.4-0.3-0.9-0.3-1.3,0l-3,2.5l-3-2.5c-0.4-0.3-0.9-0.3-1.3,0l-3,2.5l-3-2.5
		c-0.4-0.3-0.9-0.3-1.3,0l-0.5,0.4l-1.4-1.3l2.5-2l3,2.5c0.4,0.3,0.9,0.3,1.3,0l3-2.5l3,2.5c0.4,0.3,0.9,0.3,1.3,0l3-2.5l3,2.5
		c0.4,0.3,0.9,0.3,1.3,0l3-2.5l3,2.5c0.4,0.3,0.9,0.3,1.3,0l3-2.5l3,2.5c0.4,0.3,0.9,0.3,1.3,0l3-2.5l3,2.5c0.4,0.3,0.9,0.3,1.3,0
		l3-2.5l2.7,2.2V160.8z M771,156.9l-4.9-4.4l1.6-1.3l3,2.5c0.4,0.3,0.9,0.3,1.3,0l3-2.5l3,2.5c0.4,0.3,0.9,0.3,1.3,0l3-2.5l3,2.5
		c0.4,0.3,0.9,0.3,1.3,0l3-2.5l3,2.5c0.4,0.3,0.9,0.3,1.3,0l3-2.5l3,2.5c0.4,0.3,0.9,0.3,1.3,0l3-2.5l3,2.5c0.4,0.3,0.9,0.3,1.3,0
		l3-2.5l3,2.5c0.4,0.3,0.9,0.3,1.3,0l3-2.5l2.7,2.2v2.4l-2-1.7c-0.4-0.3-0.9-0.3-1.3,0l-3,2.5l-3-2.5c-0.4-0.3-0.9-0.3-1.3,0l-3,2.5
		l-3-2.5c-0.4-0.3-0.9-0.3-1.3,0l-3,2.5l-3-2.5c-0.4-0.3-0.9-0.3-1.3,0l-3,2.5l-3-2.5c-0.4-0.3-0.9-0.3-1.3,0l-3,2.5l-3-2.5
		c-0.4-0.3-0.9-0.3-1.3,0l-3,2.5l-3-2.5c-0.4-0.3-0.9-0.3-1.3,0L771,156.9z M821.6,150.7l-2-1.7c-0.4-0.3-0.9-0.3-1.3,0l-3,2.5
		l-3-2.5c-0.4-0.3-0.9-0.3-1.3,0l-3,2.5l-3-2.5c-0.4-0.3-0.9-0.3-1.3,0l-3,2.5l-3-2.5c-0.4-0.3-0.9-0.3-1.3,0l-3,2.5l-3-2.5
		c-0.4-0.3-0.9-0.3-1.3,0l-3,2.5l-3-2.5c-0.4-0.3-0.9-0.3-1.3,0l-3,2.5l-3-2.5c-0.4-0.3-0.9-0.3-1.3,0l-3,2.5l-3-2.5
		c-0.4-0.3-0.9-0.3-1.3,0l-2.5,2l-4.8-4.3l0.9-0.6l3.2,2.5c0.4,0.3,0.9,0.3,1.3,0l2.6-2.4l2.9,2.4c0.4,0.3,0.9,0.3,1.3,0l3-2.5
		l3,2.5c0.4,0.3,0.9,0.3,1.3,0l3-2.5l3,2.5c0.4,0.3,0.9,0.3,1.3,0l3-2.5l3,2.5c0.4,0.3,0.9,0.3,1.3,0l3-2.5l3,2.5
		c0.4,0.3,0.9,0.3,1.3,0l3-2.5l3,2.5c0.4,0.3,0.9,0.3,1.3,0l3-2.5l3,2.5c0.4,0.3,0.9,0.3,1.3,0l3-2.5l2.7,2.2V150.7z M821.9,145.8
		L821.9,145.8l-2.1-1.7c-0.4-0.3-0.9-0.3-1.3,0l-3,2.5l-3-2.5c-0.4-0.3-0.9-0.3-1.3,0l-3,2.5l-3-2.5c-0.4-0.3-0.9-0.3-1.3,0l-3,2.5
		l-3-2.5c-0.4-0.3-0.9-0.3-1.3,0l-3,2.5l-3-2.5c-0.4-0.3-0.9-0.3-1.3,0l-3,2.5l-3-2.5c-0.4-0.3-0.9-0.3-1.3,0l-3,2.5l-3-2.5
		c-0.4-0.3-0.9-0.3-1.3,0l-3,2.5l-2.9-2.5c-0.4-0.3-1-0.3-1.3,0l-2.6,2.4l-3.1-2.5c-0.4-0.3-0.9-0.3-1.2,0l-1.8,1.4l-4.7-4.2
		l0.4-0.2l3.1,2.6c0.4,0.3,1,0.3,1.3-0.1l2.3-2.2l2.7,2.4c0.4,0.3,0.9,0.3,1.3,0l2.9-2.5l3,2.5c0.4,0.3,0.9,0.3,1.3,0l3-2.5l3,2.5
		c0.4,0.3,0.9,0.3,1.3,0l3-2.5l3,2.5c0.4,0.3,0.9,0.3,1.3,0l3-2.5l3,2.5c0.4,0.3,0.9,0.3,1.3,0l3-2.5l3,2.5c0.4,0.3,0.9,0.3,1.3,0
		l3-2.5l3,2.5c0.4,0.3,0.9,0.3,1.3,0l3-2.5l3,2.5c0.4,0.3,0.9,0.3,1.3,0l3-2.5l2.7,2.2V145.8z M821.8,137.9v2.9l-2-1.7
		c-0.4-0.3-0.9-0.3-1.3,0l-3,2.5l-3-2.5c-0.4-0.3-0.9-0.3-1.3,0l-3,2.5l-3-2.5c-0.4-0.3-0.9-0.3-1.3,0l-3,2.5l-3-2.5
		c-0.4-0.3-0.9-0.3-1.3,0l-3,2.5l-3-2.5c-0.4-0.3-0.9-0.3-1.3,0l-3,2.5l-3-2.5c-0.4-0.3-0.9-0.3-1.3,0l-3,2.5l-3-2.5
		c-0.4-0.3-0.9-0.3-1.3,0l-3,2.5l-3-2.5c-0.4-0.3-0.9-0.3-1.3,0l-2.9,2.4l-2.7-2.4c-0.4-0.3-1-0.3-1.4,0l-2.3,2.3l-3-2.4
		c-0.3-0.3-0.8-0.3-1.1-0.1l-1.6,0.9l-2.1-1.9H821.8z M767.8,239.2h-65.5v-76.6l32.8-29.6l32.7,29.6V239.2z M735.9,130.9
		c-0.4-0.3-1-0.3-1.3,0l-33.8,30.5l-2.3,2l-1.9-1.5l38.5-34.8l37.9,34.2l-1.9,1.5l-1.5-1.4L735.9,130.9z M815.3,239.2h-20v-1.5h20
		V239.2z M813.8,233.7v2h-17v-2H813.8z M798.8,231.7v-24h13v24H798.8z M817.8,239.2h-0.5v-2.5c0-0.6-0.4-1-1-1h-0.5v-3
		c0-0.6-0.4-1-1-1h-1v-25c0-0.6-0.4-1-1-1h-15c-0.6,0-1,0.4-1,1v25h-1c-0.6,0-1,0.4-1,1v3h-0.5c-0.6,0-1,0.4-1,1v2.5h-23.5v-62.5h48
		V239.2z M821.8,239.2h-2v-4h2V239.2z M821.8,233.2h-2v-1h2V233.2z M821.8,230.2h-2v-13.5h2V230.2z M821.8,214.7h-2v-1h2V214.7z
		 M827.8,239.2h-4v-32.5c0-1.1,0.9-2,2-2c1.1,0,2,0.9,2,2V239.2z M831.8,239.2h-2v-4h2V239.2z M831.8,233.2h-2v-1h2V233.2z
		 M831.8,230.2h-2v-13.5h2V230.2z M831.8,214.7h-2v-1h2V214.7z M837.8,239.2h-4v-32.5c0-1.1,0.9-2,2-2c1.1,0,2,0.9,2,2V239.2z
		 M841.8,239.2h-2v-4h2V239.2z M841.8,233.2h-2v-1h2V233.2z M841.8,230.2h-2v-13.5h2V230.2z M841.8,214.7h-2v-1h2V214.7z
		 M847.8,239.2h-4v-32.5c0-1.1,0.9-2,2-2c1.1,0,2,0.9,2,2V239.2z M851.8,239.2h-2v-4h2V239.2z M851.8,233.2h-2v-1h2V233.2z
		 M851.8,230.2h-2v-13.5h2V230.2z M851.8,214.7h-2v-1h2V214.7z M857.8,239.2h-4v-32.5c0-1.1,0.9-2,2-2c1.1,0,2,0.9,2,2V239.2z
		 M861.8,239.2h-2v-4h2V239.2z M861.8,233.2h-2v-1h2V233.2z M861.8,230.2h-2v-13.5h2V230.2z M861.8,214.7h-2v-1h2V214.7z
		 M867.8,239.2h-4v-32.5c0-1.1,0.9-2,2-2c1.1,0,2,0.9,2,2V239.2z M871.8,239.2h-2v-4h2V239.2z M871.8,233.2h-2v-1h2V233.2z
		 M871.8,230.2h-2v-13.5h2V230.2z M871.8,214.7h-2v-1h2V214.7z M877.8,239.2h-4v-32.5c0-1.1,0.9-2,2-2c1.1,0,2,0.9,2,2V239.2z
		 M877.8,203.3c-0.6-0.3-1.3-0.6-2-0.6c-2.2,0-4,1.8-4,4v5h-2v-5c0-2.2-1.8-4-4-4c-2.2,0-4,1.8-4,4v5h-2v-5c0-2.2-1.8-4-4-4
		c-2.2,0-4,1.8-4,4v5h-2v-5c0-2.2-1.8-4-4-4c-2.2,0-4,1.8-4,4v5h-2v-5c0-2.2-1.8-4-4-4c-2.2,0-4,1.8-4,4v5h-2v-5c0-2.2-1.8-4-4-4
		c-2.2,0-4,1.8-4,4v5h-2V188c3-2.1,6.5-3.3,10.3-3.3c2.2,0,4.3,0.4,6.3,1.2c0.5,0.2,1,0,1.2-0.4c3.8-6.7,11-10.9,18.7-10.9
		c11.9,0,21.5,9.6,21.5,21.5V203.3z"/>
	<path class="st1" d="M37.4,19.6V19c0-6.5-5.2-11.7-11.7-11.7c-0.4,0-0.7,0-1.1,0.1C21.5,2.8,16.4,0,10.7,0C6.8,0,3.1,1.4,0.1,3.9
		c0,0.9-0.1,1.8-0.1,2.7c2.7-2.9,6.6-4.7,10.7-4.7c5.1,0,9.8,2.6,12.5,7c0.2,0.3,0.6,0.5,1,0.5c0.6-0.1,1-0.1,1.5-0.1
		c5.4,0,9.7,4.4,9.7,9.7c0,0.4,0,0.8-0.1,1.3c0,0.3,0,0.5,0.2,0.7s0.4,0.3,0.7,0.4c8.4,1,15.5,6.6,18.5,14.5H0V38H56
		c0.3,0,0.6-0.2,0.8-0.4C57,37.3,57,37,57,36.7C54.3,27.7,46.6,21.1,37.4,19.6z"/>
	<path class="st1" d="M197.2,75.3h115.3c0.3,0,0.6-0.1,0.8-0.4c0.2-0.2,0.3-0.6,0.2-0.9c-2.1-8.3-9.5-14.1-18.1-14.1
		c-2.5,0-4.9,0.5-7.3,1.5c-3.7-10.7-13.9-18.1-25.3-18.1c-14,0-25.6,11-26.7,24.8c-3.3-1-6.9-1.3-10.4-0.9
		c-2.3-5.9-7.9-9.8-14.3-9.8c-8.5,0-15.3,6.9-15.3,15.3c0,0.6,0,1.2,0.1,1.8C196.2,75,196.7,75.3,197.2,75.3z M211.4,59.3
		c5.8,0,10.9,3.7,12.7,9.3c0.2,0.5,0.6,0.8,1.1,0.7c3.9-0.6,7.9-0.2,11.5,1.1c0.3,0.1,0.6,0.1,0.9-0.1c0.3-0.2,0.4-0.5,0.4-0.8
		c0.3-13.3,11.4-24.2,24.7-24.2c10.9,0,20.7,7.3,23.8,17.8c0.1,0.3,0.3,0.5,0.6,0.6c0.3,0.1,0.6,0.1,0.8,0c2.3-1.2,4.8-1.8,7.4-1.8
		c7.2,0,13.5,4.6,15.8,11.3h-113c0-0.2,0-0.4,0-0.7C198.1,65.3,204.1,59.3,211.4,59.3z"/>
	<path class="st1" d="M430.9,43.7h114c0.4,0,0.7-0.2,0.9-0.5s0.2-0.7-0.1-1c-4-5.9-10.7-9.4-17.8-9.4c-0.2,0-0.4,0-0.5,0
		c0.5-1.2,0.7-2.5,0.7-3.8c0-6-4.9-10.8-10.8-10.8c-6,0-10.8,4.9-10.8,10.8c0,0.6,0,1.2,0.1,1.8c-4.3-2.1-9.3-2.5-14-1.2
		c-2.7-7.1-9.3-11.6-16.7-11.6c-5.8,0-11.2,2.8-14.5,7.5c-2.7-1-5.4-1.5-8.3-1.5c-11.1,0-20.7,7.6-23.1,18.4c-0.1,0.3,0,0.6,0.2,0.8
		C430.3,43.5,430.6,43.7,430.9,43.7z M453.1,26c2.9,0,5.7,0.6,8.3,1.6c0.4,0.2,1,0,1.2-0.4c2.9-4.5,7.9-7.3,13.3-7.3
		c6.9,0,12.9,4.4,15.1,10.9c0.1,0.3,0.3,0.5,0.5,0.6s0.5,0.1,0.8,0.1c5.2-1.7,10.9-1,15.4,1.9c0.4,0.2,0.8,0.2,1.2-0.1
		c0.3-0.3,0.4-0.8,0.3-1.2c-0.5-1.1-0.7-2.3-0.7-3.5c0-4.9,4-8.8,8.8-8.8c4.9,0,8.8,4,8.8,8.8c0,1.6-0.4,3.1-1.2,4.4
		c-0.2,0.3-0.2,0.7,0,1c0.2,0.3,0.6,0.5,0.9,0.5c0.7-0.1,1.4-0.1,2.1-0.1c5.8,0,11.3,2.6,15,7H432.2C434.9,32.4,443.3,26,453.1,26z"
		/>
</g>
<g class="st0">
	<path class="st1" d="M1457.2,231.7h11.5c0.6,0,1-0.4,1-1v-18c0-0.6-0.4-1-1-1h-11.5c-0.6,0-1,0.4-1,1v18
		C1456.2,231.3,1456.6,231.7,1457.2,231.7z M1458.2,229.7v-12h9.5v12H1458.2z M1467.7,213.7v2h-9.5v-2H1467.7z"/>
	<path class="st1" d="M1473.7,231.7h11.5c0.6,0,1-0.4,1-1v-18c0-0.6-0.4-1-1-1h-11.5c-0.6,0-1,0.4-1,1v18
		C1472.7,231.3,1473.1,231.7,1473.7,231.7z M1474.7,229.7v-12h9.5v12H1474.7z M1484.2,213.7v2h-9.5v-2H1484.2z"/>
	<path class="st1" d="M1427.4,176.7h11.5c0.6,0,1-0.4,1-1v-18c0-0.6-0.4-1-1-1h-11.5c-0.6,0-1,0.4-1,1v18
		C1426.4,176.3,1426.9,176.7,1427.4,176.7z M1428.4,174.7v-12h9.5v12H1428.4z M1437.9,158.7v2h-9.5v-2H1437.9z"/>
	<path class="st1" d="M1443.9,176.7h11.5c0.6,0,1-0.4,1-1v-18c0-0.6-0.4-1-1-1h-11.5c-0.6,0-1,0.4-1,1v18
		C1442.9,176.3,1443.4,176.7,1443.9,176.7z M1444.9,174.7v-12h9.5v12H1444.9z M1454.4,158.7v2h-9.5v-2H1454.4z"/>
	<path class="st1" d="M1499.3,176.7h11.5c0.6,0,1-0.4,1-1v-18c0-0.6-0.4-1-1-1h-11.5c-0.6,0-1,0.4-1,1v18
		C1498.3,176.3,1498.8,176.7,1499.3,176.7z M1500.3,174.7v-12h9.5v12H1500.3z M1509.8,158.7v2h-9.5v-2H1509.8z"/>
	<path class="st1" d="M1482.8,176.7h11.5c0.6,0,1-0.4,1-1v-18c0-0.6-0.4-1-1-1h-11.5c-0.6,0-1,0.4-1,1v18
		C1481.8,176.3,1482.3,176.7,1482.8,176.7z M1483.8,174.7v-12h9.5v12H1483.8z M1493.3,158.7v2h-9.5v-2H1493.3z"/>
	<path class="st1" d="M1463.4,152.2h11.5c0.6,0,1-0.4,1-1v-11.5c0-0.6-0.4-1-1-1h-11.5c-0.6,0-1,0.4-1,1v11.5
		C1462.4,151.8,1462.8,152.2,1463.4,152.2z M1464.4,140.7h9.5v9.5h-9.5V140.7z"/>
	<path class="st1" d="M1535,234.1h-8c-0.6,0-1,0.4-1,1c0,0.6,0.4,1,1,1h8c0.6,0,1-0.4,1-1C1536,234.5,1535.5,234.1,1535,234.1z"/>
	<path class="st1" d="M1206.2,195.2h1.5h15h1.5c0.6,0,1-0.4,1-1c0-0.6-0.4-1-1-1h-0.5v-20c0-0.6-0.4-1-1-1h-15c-0.6,0-1,0.4-1,1v20
		h-0.5c-0.6,0-1,0.4-1,1C1205.2,194.8,1205.6,195.2,1206.2,195.2z M1221.7,174.2v8.5h-13v-8.5H1221.7z M1208.7,184.7h13v8.5h-13
		V184.7z"/>
	<path class="st1" d="M1248,195.2h1.5h15h1.5c0.6,0,1-0.4,1-1c0-0.6-0.4-1-1-1h-0.5v-30c0-0.6-0.4-1-1-1h-15c-0.6,0-1,0.4-1,1v30
		h-0.5c-0.6,0-1,0.4-1,1C1247,194.8,1247.5,195.2,1248,195.2z M1250.5,174.7h13v8h-13V174.7z M1263.5,164.2v8.5h-13v-8.5H1263.5z
		 M1250.5,184.7h13v8.5h-13V184.7z"/>
	<path class="st1" d="M1291.2,195.2h1.5h15h1.5c0.6,0,1-0.4,1-1c0-0.6-0.4-1-1-1h-0.5v-20c0-0.6-0.4-1-1-1h-15c-0.6,0-1,0.4-1,1v20
		h-0.5c-0.6,0-1,0.4-1,1C1290.2,194.8,1290.6,195.2,1291.2,195.2z M1306.7,174.2v8.5h-13v-8.5H1306.7z M1293.7,184.7h13v8.5h-13
		V184.7z"/>
	<path class="st1" d="M1224.2,225.2h-0.5v-20c0-0.6-0.4-1-1-1h-15c-0.6,0-1,0.4-1,1v20h-0.5c-0.6,0-1,0.4-1,1c0,0.6,0.4,1,1,1h1.5
		h15h1.5c0.6,0,1-0.4,1-1C1225.2,225.7,1224.7,225.2,1224.2,225.2z M1221.7,206.2v8.5h-13v-8.5H1221.7z M1208.7,225.2v-8.5h13v8.5
		H1208.7z"/>
	<path class="st1" d="M1291.2,227.2h1.5h15h1.5c0.6,0,1-0.4,1-1c0-0.6-0.4-1-1-1h-0.5v-20c0-0.6-0.4-1-1-1h-15c-0.6,0-1,0.4-1,1v20
		h-0.5c-0.6,0-1,0.4-1,1C1290.2,226.8,1290.6,227.2,1291.2,227.2z M1306.7,206.2v8.5h-13v-8.5H1306.7z M1293.7,216.7h13v8.5h-13
		V216.7z"/>
	<path class="st1" d="M1249,205.7h-3c-0.6,0-1,0.4-1,1v24c0,0.6,0.4,1,1,1h3c0.6,0,1-0.4,1-1v-24
		C1250,206.2,1249.6,205.7,1249,205.7z M1248,229.7h-1v-22h1V229.7z"/>
	<path class="st1" d="M1262,205.7h-10c-0.6,0-1,0.4-1,1v15.5c0,0.6,0.4,1,1,1h10c0.6,0,1-0.4,1-1v-15.5
		C1263,206.2,1262.6,205.7,1262,205.7z M1261,221.2h-8v-13.5h8V221.2z"/>
	<path class="st1" d="M1262,224.2h-10c-0.6,0-1,0.4-1,1v5.5c0,0.6,0.4,1,1,1h10c0.6,0,1-0.4,1-1v-5.5
		C1263,224.7,1262.6,224.2,1262,224.2z M1261,229.7h-8v-3.5h8V229.7z"/>
	<path class="st1" d="M1268,205.7h-3c-0.6,0-1,0.4-1,1v24c0,0.6,0.4,1,1,1h3c0.6,0,1-0.4,1-1v-24
		C1269,206.2,1268.6,205.7,1268,205.7z M1267,229.7h-1v-22h1V229.7z"/>
	<path class="st1" d="M937.7,181.7h22.5c0.6,0,1-0.4,1-1v-22.5c0-0.6-0.4-1-1-1h-22.5c-0.6,0-1,0.4-1,1v22.5
		C936.7,181.3,937.2,181.7,937.7,181.7z M938.7,159.2h20.5v20.5h-20.5V159.2z"/>
	<path class="st1" d="M937.7,228.7h15c0.6,0,1-0.4,1-1v-22.5c0-0.6-0.4-1-1-1h-15c-0.6,0-1,0.4-1,1v22.5
		C936.7,228.3,937.2,228.7,937.7,228.7z M938.7,206.2h13v20.5h-13V206.2z"/>
	<path class="st1" d="M1020.2,181.7h22.5c0.6,0,1-0.4,1-1v-22.5c0-0.6-0.4-1-1-1h-22.5c-0.6,0-1,0.4-1,1v22.5
		C1019.2,181.3,1019.7,181.7,1020.2,181.7z M1021.2,159.2h20.5v20.5h-20.5V159.2z"/>
	<path class="st1" d="M1026.7,205.2v22.5c0,0.6,0.4,1,1,1h15c0.6,0,1-0.4,1-1v-22.5c0-0.6-0.4-1-1-1h-15
		C1027.2,204.2,1026.7,204.7,1026.7,205.2z M1028.7,206.2h13v20.5h-13V206.2z"/>
	<path class="st1" d="M984.5,170.8H996c0.6,0,1-0.4,1-1v-11.5c0-0.6-0.4-1-1-1h-11.5c-0.6,0-1,0.4-1,1v11.5
		C983.5,170.3,983.9,170.8,984.5,170.8z M985.5,159.3h9.5v9.5h-9.5V159.3z"/>
	<path class="st1" d="M995.7,210.2h-11c-0.6,0-1,0.4-1,1v21.5c0,0.6,0.4,1,1,1h11c0.6,0,1-0.4,1-1v-21.5
		C996.7,210.7,996.3,210.2,995.7,210.2z M994.7,231.7h-9v-19.5h9V231.7z"/>
	<path class="st1" d="M1082.7,190.7c-1.9,0-3.5,1.6-3.5,3.5c0,1.9,1.6,3.5,3.5,3.5s3.5-1.6,3.5-3.5
		C1086.2,192.3,1084.6,190.7,1082.7,190.7z M1082.7,195.7c-0.8,0-1.5-0.7-1.5-1.5s0.7-1.5,1.5-1.5s1.5,0.7,1.5,1.5
		S1083.5,195.7,1082.7,195.7z"/>
	<path class="st1" d="M1600,160.9c-2.7-3.2-4.3-7.3-4.3-11.6c0-4.4,1.6-8.5,4.3-11.6c0,0,0,0,0,0c0-1,0-1.9,0-2.9
		c-3.8,3.6-6.2,8.8-6.2,14.4c0,5.5,2.3,10.7,6.2,14.4V160.9z"/>
	<path class="st1" d="M1599.9,239.5c0-0.1,0-0.1,0-0.2h-33.3v-35.4l4.1,1.9c0.1,0.1,0.3,0.1,0.4,0.1c0.3,0,0.5-0.1,0.7-0.3l3.1-3.1
		c0.2-0.2,0.3-0.6,0.3-0.9c-0.1-0.3-0.3-0.6-0.6-0.7l-43.3-19.9c-0.3-0.1-0.6-0.1-0.8,0l-11.3,5.2v-34.1l8.1,3.7
		c0.1,0.1,0.3,0.1,0.4,0.1c0.3,0,0.5-0.1,0.7-0.3l3.1-3.1c0.2-0.2,0.3-0.6,0.3-0.9c-0.1-0.3-0.3-0.6-0.6-0.7l-61.6-28.4
		c-0.3-0.1-0.6-0.1-0.8,0l-25.3,11.5v-10.7h0.5c0.6,0,1-0.4,1-1v-4c0-0.6-0.4-1-1-1h-18c-0.6,0-1,0.4-1,1v4c0,0.6,0.4,1,1,1h0.5
		v18.5l-19.3,8.9c-0.3,0.1-0.5,0.4-0.6,0.7c-0.1,0.3,0,0.7,0.3,0.9l3.1,3.1c0.3,0.3,0.7,0.4,1.1,0.2l7.2-3.3v33.3l-5,16.4
		c-0.1,0.3,0,0.6,0.2,0.9c0.2,0.3,0.5,0.4,0.8,0.4h4v36h-21.3v-15h11c0.4,0,0.7-0.2,0.9-0.5c0.2-0.3,0.2-0.7,0-1l-8.7-14.5h3.6
		c0.4,0,0.7-0.2,0.9-0.5c0.2-0.3,0.2-0.7,0-1l-7.9-13.2h2.3c0.3,0,0.7-0.2,0.9-0.5c0.2-0.3,0.2-0.7,0-1l-6-12
		c-0.3-0.7-1.5-0.7-1.8,0l-6,12c-0.2,0.3-0.1,0.7,0,1c0.2,0.3,0.5,0.5,0.9,0.5h2.3l-7.9,13.2c-0.2,0.3-0.2,0.7,0,1
		c0.2,0.3,0.5,0.5,0.9,0.5h3.6l-8.7,14.5c-0.2,0.3-0.2,0.7,0,1s0.5,0.5,0.9,0.5h11v15h-16.7v-34c0-0.6-0.4-1-1-1h-3.6
		c1.2-3.3,1.2-6.8-0.2-10c-1.4-3.3-4-5.9-7.3-7.3c-4.1-1.7-8.8-1.2-12.5,1.2c-2.2-3.1-5.2-5.5-8.7-6.9c-5.4-2.2-11.6-1.9-16.7,0.8
		v-17.9h3c0.6,0,1-0.4,1-1v-4c0-0.6-0.4-1-1-1l-34.6-22.6c-0.2-0.1-0.4-0.2-0.5-0.2h-25.4l-6.5-4.8c-0.4-0.3-0.8-0.3-1.2,0l-6.5,4.8
		h-25.4c-0.2,0-0.4,0.1-0.5,0.2l-34.9,22.8c0,0,0,0-0.1,0.1c-0.1,0-0.1,0.1-0.1,0.1s-0.1,0.1-0.1,0.2s-0.1,0.1-0.1,0.2
		c0,0.1,0,0.1,0,0.2v4.1c0,0.6,0.4,1,1,1h3v17.9c-3.5-3-8.1-4.7-12.8-4.7c-9.4,0-17.3,6.4-19.3,15.5c-0.8-0.2-1.7-0.2-2.5-0.2
		c-6.7,0-12.4,5-13.3,11.5h-1.1c-0.6,0-1,0.4-1,1v34H1119v-39.5l3.2,1.4c0.1,0.1,0.3,0.1,0.4,0.1s0.3,0,0.4-0.1
		c0.2-0.1,0.4-0.3,0.5-0.5l2.2-5.1c0.2-0.5,0-1.1-0.5-1.3l-13.2-5.7v-12.9c2,1.8,4.6,2.9,7.3,2.9c5.9,0,10.7-4.8,10.7-10.7
		c0-0.9-0.1-1.9-0.4-2.8c4.8-1.5,8.2-6.1,8.2-11.2c0-3.9-1.9-7.5-5.1-9.7c2.6-3,4-6.7,4-10.7c0-9-7.3-16.3-16.3-16.3
		c-4,0-7.8,1.4-10.8,4.1c-3.6-0.9-7.5-0.9-11.1-0.3c-1.5-3.5-5-5.8-8.8-5.8c-5.3,0-9.6,4.3-9.6,9.6c0,2.3,0.8,4.4,2.2,6.2
		c-2.2,2.9-3.8,6.3-4.7,9.8c-7.1,2-11.9,8.3-11.9,15.7c0,9,7.3,16.3,16.3,16.3c3.1,0,6-0.8,8.6-2.5c2.9,1.6,6.1,2.6,9.4,3.1v9.9
		l-16.6-7.1c-0.3-0.1-0.5-0.1-0.8,0l-23.6,10.1v-37.2h6c0.4,0,0.7-0.2,0.9-0.5c0.2-0.3,0.2-0.7,0-1l-16-26c-0.2-0.3-0.5-0.5-0.9-0.5
		h-11v-9.5h1c0.6,0,1-0.4,1-1v-4c0-0.6-0.4-1-1-1h-19c-0.6,0-1,0.4-1,1v4c0,0.6,0.4,1,1,1h1v9.5h-89c-0.3,0-0.7,0.2-0.9,0.5l-16,26
		c-0.2,0.3-0.2,0.7,0,1s0.5,0.5,0.9,0.5h6V222h-0.6c-3.3,0-6.3,1.2-8.7,3.3c-2.3-1.7-5.1-2.7-8-2.7c-7.3,0-13.2,5.9-13.2,13.2
		c0,1.1,0.1,2.2,0.4,3.3h-3.8c-0.6,0-1,0.4-1,1c0,0.6,0.4,1,1,1h711.7V239.5z M1090.8,168.5c-0.3-0.2-0.7-0.2-1.1,0
		c-2.4,1.6-5.2,2.5-8,2.5c-7.9,0-14.3-6.4-14.3-14.3c0-6.7,4.5-12.4,11-13.9c0.4-0.1,0.7-0.4,0.7-0.8c0.8-3.7,2.5-7.3,4.9-10.2
		c0.3-0.4,0.3-1-0.1-1.3c-1.4-1.4-2.2-3.4-2.2-5.4c0-4.2,3.4-7.6,7.6-7.6c3.3,0,6.2,2.1,7.2,5.2c0.2,0.5,0.7,0.8,1.2,0.7
		c3.8-0.8,7.8-0.8,11.5,0.2c0.3,0.1,0.7,0,0.9-0.2c2.7-2.5,6.1-3.9,9.8-3.9c7.9,0,14.3,6.4,14.3,14.3c0,3.8-1.5,7.5-4.2,10.2
		c-0.2,0.2-0.3,0.5-0.3,0.9c0,0.3,0.2,0.6,0.5,0.7c3.2,1.7,5.1,5,5.1,8.6c0,4.5-3.2,8.5-7.6,9.5c-0.3,0.1-0.5,0.2-0.7,0.5
		c-0.1,0.3-0.2,0.6-0.1,0.8c0.4,1,0.6,2,0.6,3.1c0,4.8-3.9,8.7-8.7,8.7c-3.1,0-5.9-1.6-7.5-4.3c-0.2-0.4-0.7-0.6-1.1-0.5
		c-0.4,0.1-0.7,0.5-0.7,1v14.8l-5.9-2.5l-1.9-1v-11.6c0-0.5-0.4-0.9-0.9-1C1097.3,171.4,1093.9,170.3,1090.8,168.5z M1020.7,109.7
		v-2h17v2H1020.7z M1035.7,111.7v9.5h-13v-9.5H1035.7z M917.5,147.2l14.8-24h115.8l14.8,24H917.5z M931.4,239.1h-8.7v0.1h-28.9
		c-0.3-1.1-0.5-2.2-0.5-3.3c0-6.2,5-11.2,11.2-11.2c2.7,0,5.3,1,7.4,2.8c0.4,0.4,1,0.3,1.4-0.1c2.1-2.2,4.9-3.4,7.9-3.4
		c6.1,0,11,4.9,11,11C932.2,236.4,931.9,237.8,931.4,239.1z M998.2,239.2h-16v-30.5h16V239.2z M1014.2,239.2h-14v-31.5
		c0-0.6-0.4-1-1-1h-18c-0.6,0-1,0.4-1,1v31.5h-14v-40.4l24-14.4l24,14.4V239.2z M961.3,199.4l-1.8-3l30.7-18.4l30.7,18.4l-1.8,3
		l-28.4-17c-0.3-0.2-0.7-0.2-1,0L961.3,199.4z M1046.7,239.3h-30.5V200l2.7,1.6c0.2,0.1,0.3,0.1,0.5,0.1c0.3,0,0.7-0.2,0.9-0.5
		l2.8-4.7c0.1-0.2,0.2-0.5,0.1-0.8c-0.1-0.3-0.2-0.5-0.5-0.6l-32-19.1c-0.3-0.2-0.7-0.2-1,0l-32.1,19.2c-0.2,0.1-0.4,0.4-0.5,0.6
		c-0.1,0.3,0,0.5,0.1,0.8l2.8,4.7c0.3,0.5,0.9,0.6,1.4,0.3l2.7-1.6v39.2h-30.6c0.4-1.3,0.7-2.7,0.7-4.1c0-6.3-4.5-11.5-10.4-12.7
		v-73.2h132.9v38.1l-16.2,7c-0.5,0.2-0.7,0.8-0.5,1.3l2.2,5.1c0.1,0.2,0.3,0.4,0.5,0.5c0.2,0.1,0.5,0.1,0.8,0l3.2-1.4V239.3z
		 M1043.6,198.9l-1.4-3.2l40.5-17.4l24,10.3l3.6,1.6l12.9,5.5l-1.4,3.2l-38.7-16.6c-0.1-0.1-0.3-0.1-0.4-0.1s-0.3,0-0.4,0.1l-35,15
		L1043.6,198.9z M1106.7,239.2h-48v-1.5h48V239.2z M1106.7,235.7h-48v-1.5h48V235.7z M1106.7,232.2h-48v-1.5h48V232.2z
		 M1106.7,228.7h-48v-1.5h48V228.7z M1106.7,225.2h-48v-1.5h48V225.2z M1106.7,221.7h-48v-1.5h48V221.7z M1106.7,218.2h-48v-1.5h48
		V218.2z M1106.7,214.7h-48v-1.5h48V214.7z M1106.7,211.2h-48v-1.5h48V211.2z M1106.7,207.7h-48v-1.5h48V207.7z M1116.7,239.2h-8
		v-34c0-0.6-0.4-1-1-1h-50c-0.6,0-1,0.4-1,1v34h-8v-40.3l34-14.6l34,14.6V239.2z M1158.6,194.7c1,0,2,0.1,3,0.4
		c0.3,0.1,0.6,0,0.8-0.1c0.2-0.2,0.4-0.4,0.4-0.7c1.4-8.6,8.8-14.9,17.5-14.9c4.8,0,9.4,2,12.8,5.4v19.3h-45.9
		C1148.3,198.8,1153.1,194.7,1158.6,194.7z M1148.2,239.2h-3v-33h3V239.2z M1153.2,239.2h-3v-33h3V239.2z M1158.2,239.2h-3v-33h3
		V239.2z M1163.2,239.2h-3v-33h3V239.2z M1168.2,239.2h-3v-33h3V239.2z M1173.2,239.2h-3v-33h3V239.2z M1178.2,239.2h-3v-33h3V239.2
		z M1183.2,239.2h-3v-33h3V239.2z M1188.2,239.2h-3v-33h3V239.2z M1193.2,239.2h-3v-33h3V239.2z M1289.7,137.5l31.8,20.8h-25.9
		l-28.3-20.8H1289.7z M1225.3,137.5h22.4l-28.3,20.8h-25.9L1225.3,137.5z M1191.1,162.3v-2.1h28.7c0.2,0,0.4-0.1,0.6-0.2l37.1-27.3
		l37.1,27.3c0.2,0.1,0.4,0.2,0.6,0.2h28.9v2h-29.9l-36.1-26.5c-0.4-0.3-0.8-0.3-1.2,0l-36.2,26.6H1191.1z M1274.5,239.2h-35v-1h35
		V239.2z M1244,204.2h26v29h-26V204.2z M1240.5,202.2v-1h33v1H1240.5z M1272.5,235.2v1h-31v-1H1272.5z M1320.1,239.2h-43.6v-2
		c0-0.6-0.4-1-1-1h-1v-2c0-0.6-0.4-1-1-1h-1.5v-29h2.5c0.6,0,1-0.4,1-1v-3c0-0.6-0.4-1-1-1h-35c-0.6,0-1,0.4-1,1v3c0,0.6,0.4,1,1,1
		h2.5v29h-1.5c-0.6,0-1,0.4-1,1v2h-1c-0.6,0-1,0.4-1,1v2h-42.4v-34h0.1v-41h25.9c0.2,0,0.4-0.1,0.6-0.2l35.8-26.3l35.8,26.3
		c0.2,0.1,0.4,0.2,0.6,0.2h26.2V239.2z M1325.2,239.2h-3v-33h3V239.2z M1330.2,239.2h-3v-33h3V239.2z M1335.2,239.2h-3v-33h3V239.2z
		 M1340.2,239.2h-3v-33h3V239.2z M1345.2,239.2h-3v-33h3V239.2z M1350.2,239.2h-3v-33h3V239.2z M1355.2,239.2h-3v-33h3V239.2z
		 M1360.2,239.2h-3v-33h3V239.2z M1365.2,239.2h-3v-33h3V239.2z M1365.6,203.8c-0.1,0.2-0.1,0.3-0.2,0.5h-43.2v-19.8
		c4.8-3.1,10.7-3.6,15.9-1.4c3.5,1.4,6.3,3.8,8.3,7c0.2,0.2,0.4,0.4,0.7,0.5c0.3,0.1,0.6,0,0.8-0.2c3.2-2.5,7.6-3.1,11.4-1.6
		c2.8,1.2,5.1,3.4,6.3,6.2C1366.8,197.8,1366.8,201,1365.6,203.8z M1370.2,239.2h-3v-33h3V239.2z M1394.9,223.2v16h-4v-16
		c0-0.6-0.4-1-1-1h-10.2l8.7-14.5c0.2-0.3,0.2-0.7,0-1c-0.2-0.3-0.5-0.5-0.9-0.5h-3.6l7.9-13.2c0.2-0.3,0.2-0.7,0-1
		c-0.2-0.3-0.5-0.5-0.9-0.5h-2.4l4.4-8.8l4.4,8.8h-2.4c-0.4,0-0.7,0.2-0.9,0.5c-0.2,0.3-0.2,0.7,0,1l7.9,13.2h-3.6
		c-0.4,0-0.7,0.2-0.9,0.5c-0.2,0.3-0.2,0.7,0,1l8.7,14.5h-10.2C1395.3,222.2,1394.9,222.6,1394.9,223.2z M1426.9,119.3h16v2h-16
		V119.3z M1441.4,123.3v11.6l-13,6v-17.6H1441.4z M1410.8,153.5l-1.6-1.6l59.9-27.6l59.9,27.6l-1.6,1.6l-57.9-26.7
		c-0.1-0.1-0.3-0.1-0.4-0.1s-0.3,0-0.4,0.1l-49.8,22.9c-0.1,0-0.2,0.1-0.2,0.1L1410.8,153.5z M1517.1,150.9v33.8h-97v-33.3l49-22.6
		L1517.1,150.9z M1415.5,201.2l4.4-14.5h97.3v0.2l-30,13.8c-0.2,0.1-0.4,0.3-0.5,0.5H1415.5z M1447.7,239.2h-12.5v-25.5h12.5V239.2z
		 M1495.2,239.1h-45.5v-26.5c0-0.6-0.4-1-1-1h-14.5c-0.6,0-1,0.4-1,1v26.5h-13v-35.9h67.6l2.2,2.2c0.3,0.3,0.7,0.4,1.1,0.2l4.1-1.9
		V239.1z M1554.9,239.2h-48v-25.5h48V239.2z M1564.7,239.2h-7.8v-26.5c0-0.6-0.4-1-1-1h-50c-0.6,0-1,0.4-1,1v26.5h-7.8v-36.4
		l33.8-15.5l33.8,15.5V239.2z M1531.3,185.3c-0.3-0.1-0.6-0.1-0.8,0l-34.7,16l-4.8,2.2l-1.6-1.6l41.5-19.1l41.6,19.1l-1.6,1.6
		l-4.8-2.2L1531.3,185.3z"/>
	<path class="st1" d="M1600.2,210.1c-1.5,0.5-3.1,0.8-4.8,0.8c-8,0-14.7-6.6-14.9-14.6c0-0.3-0.2-0.7-0.5-0.8
		c-3.2-2-5.1-5.4-5.1-9.2c0-5.9,4.8-10.8,10.8-10.8c3.7,0,7.1,1.9,9.1,5c0.2,0.3,0.5,0.5,0.8,0.5c1.5,0,2.9,0.3,4.2,0.7c0,0,0,0,0,0
		v-2c-1.2-0.3-2.4-0.6-3.7-0.6c-2.4-3.5-6.3-5.5-10.5-5.5c-7,0-12.8,5.7-12.8,12.8c0,4.3,2.1,8.2,5.6,10.6c0.5,8.9,7.9,16,16.9,16
		c1.7,0,3.4-0.3,4.9-0.8C1600.3,211.5,1600.2,210.8,1600.2,210.1z"/>
	<path class="st1" d="M1111.4,38H1222c0.3,0,0.6-0.2,0.8-0.4c0.2-0.3,0.2-0.6,0.2-0.9c-2.7-9-10.4-15.6-19.6-17.1c0-0.2,0-0.4,0-0.6
		c0-6.5-5.2-11.7-11.7-11.7c-0.4,0-0.7,0-1.1,0.1c-3.1-4.6-8.2-7.4-13.9-7.4c-6.6,0-12.6,4-15.3,10c-2.1-0.9-4.3-1.3-6.6-1.3
		c-8,0-14.9,5.5-16.7,13.2c-2.1-0.6-4.2-0.9-6.3-0.9c-9.9,0-18.5,6.3-21.5,15.7c-0.1,0.3,0,0.6,0.1,0.9
		C1110.7,37.8,1111,38,1111.4,38z M1131.9,23c2.3,0,4.5,0.4,6.7,1.1c0.3,0.1,0.6,0.1,0.8-0.1c0.3-0.2,0.4-0.4,0.5-0.7
		c1.2-7.4,7.5-12.7,14.9-12.7c2.3,0,4.5,0.5,6.7,1.6c0.3,0.1,0.5,0.1,0.8,0c0.3-0.1,0.5-0.3,0.6-0.6c2.1-5.8,7.7-9.7,13.8-9.7
		c5.1,0,9.8,2.6,12.5,7c0.2,0.3,0.6,0.5,1,0.5c0.6-0.1,1-0.1,1.5-0.1c5.4,0,9.7,4.4,9.7,9.7c0,0.4,0,0.8-0.1,1.3
		c0,0.3,0,0.5,0.2,0.7c0.2,0.2,0.4,0.3,0.7,0.4c8.4,1,15.5,6.6,18.5,14.5h-107.9C1115.9,28.2,1123.4,23,1131.9,23z"/>
</g>
</svg>
