<svg width="1600" height="209" viewBox="0 0 1600 209" fill="none" xmlns="http://www.w3.org/2000/svg">
<mask mask-type="alpha" maskUnits="userSpaceOnUse" x="0" y="0" width="1600" height="209">
<rect width="1600" height="209" transform="matrix(1 0 0 -1 0 209)" fill="#50556C"/>
</mask>
<g mask="url(#mask0)">
<rect x="-6" y="-14" width="1606" height="221" fill="#2F344C"/>
<g opacity="0.5">
<g opacity="0.5">
<path d="M500.24 199.7H511.74C512.34 199.7 512.74 199.3 512.74 198.7V180.7C512.74 180.1 512.34 179.7 511.74 179.7H500.24C499.64 179.7 499.24 180.1 499.24 180.7V198.7C499.24 199.3 499.64 199.7 500.24 199.7ZM501.24 197.7V185.7H510.74V197.7H501.24ZM510.74 181.7V183.7H501.24V181.7H510.74Z" fill="#5D6174"/>
<path d="M516.74 199.7H528.24C528.84 199.7 529.24 199.3 529.24 198.7V180.7C529.24 180.1 528.84 179.7 528.24 179.7H516.74C516.14 179.7 515.74 180.1 515.74 180.7V198.7C515.74 199.3 516.14 199.7 516.74 199.7ZM517.74 197.7V185.7H527.24V197.7H517.74ZM527.24 181.7V183.7H517.74V181.7H527.24Z" fill="#5D6174"/>
<path d="M470.44 144.7H481.94C482.54 144.7 482.94 144.3 482.94 143.7V125.7C482.94 125.1 482.54 124.7 481.94 124.7H470.44C469.84 124.7 469.44 125.1 469.44 125.7V143.7C469.44 144.3 469.94 144.7 470.44 144.7ZM471.44 142.7V130.7H480.94V142.7H471.44ZM480.94 126.7V128.7H471.44V126.7H480.94Z" fill="#5D6174"/>
<path d="M486.94 144.7H498.44C499.04 144.7 499.44 144.3 499.44 143.7V125.7C499.44 125.1 499.04 124.7 498.44 124.7H486.94C486.34 124.7 485.94 125.1 485.94 125.7V143.7C485.94 144.3 486.44 144.7 486.94 144.7ZM487.94 142.7V130.7H497.44V142.7H487.94ZM497.44 126.7V128.7H487.94V126.7H497.44Z" fill="#5D6174"/>
<path d="M542.34 144.7H553.84C554.44 144.7 554.84 144.3 554.84 143.7V125.7C554.84 125.1 554.44 124.7 553.84 124.7H542.34C541.74 124.7 541.34 125.1 541.34 125.7V143.7C541.34 144.3 541.84 144.7 542.34 144.7ZM543.34 142.7V130.7H552.84V142.7H543.34ZM552.84 126.7V128.7H543.34V126.7H552.84Z" fill="#5D6174"/>
<path d="M525.84 144.7H537.34C537.94 144.7 538.34 144.3 538.34 143.7V125.7C538.34 125.1 537.94 124.7 537.34 124.7H525.84C525.24 124.7 524.84 125.1 524.84 125.7V143.7C524.84 144.3 525.34 144.7 525.84 144.7ZM526.84 142.7V130.7H536.34V142.7H526.84ZM536.34 126.7V128.7H526.84V126.7H536.34Z" fill="#5D6174"/>
<path d="M506.44 120.2H517.94C518.54 120.2 518.94 119.8 518.94 119.2V107.7C518.94 107.1 518.54 106.7 517.94 106.7H506.44C505.84 106.7 505.44 107.1 505.44 107.7V119.2C505.44 119.8 505.84 120.2 506.44 120.2ZM507.44 108.7H516.94V118.2H507.44V108.7Z" fill="#5D6174"/>
<path d="M578.04 202.1H570.04C569.44 202.1 569.04 202.5 569.04 203.1C569.04 203.7 569.44 204.1 570.04 204.1H578.04C578.64 204.1 579.04 203.7 579.04 203.1C579.04 202.5 578.54 202.1 578.04 202.1Z" fill="#5D6174"/>
<path d="M249.24 163.2H250.74H265.74H267.24C267.84 163.2 268.24 162.8 268.24 162.2C268.24 161.6 267.84 161.2 267.24 161.2H266.74V141.2C266.74 140.6 266.34 140.2 265.74 140.2H250.74C250.14 140.2 249.74 140.6 249.74 141.2V161.2H249.24C248.64 161.2 248.24 161.6 248.24 162.2C248.24 162.8 248.64 163.2 249.24 163.2ZM264.74 142.2V150.7H251.74V142.2H264.74ZM251.74 152.7H264.74V161.2H251.74V152.7Z" fill="#5D6174"/>
<path d="M291.04 163.2H292.54H307.54H309.04C309.64 163.2 310.04 162.8 310.04 162.2C310.04 161.6 309.64 161.2 309.04 161.2H308.54V131.2C308.54 130.6 308.14 130.2 307.54 130.2H292.54C291.94 130.2 291.54 130.6 291.54 131.2V161.2H291.04C290.44 161.2 290.04 161.6 290.04 162.2C290.04 162.8 290.54 163.2 291.04 163.2ZM293.54 142.7H306.54V150.7H293.54V142.7ZM306.54 132.2V140.7H293.54V132.2H306.54ZM293.54 152.7H306.54V161.2H293.54V152.7Z" fill="#5D6174"/>
<path d="M334.24 163.2H335.74H350.74H352.24C352.84 163.2 353.24 162.8 353.24 162.2C353.24 161.6 352.84 161.2 352.24 161.2H351.74V141.2C351.74 140.6 351.34 140.2 350.74 140.2H335.74C335.14 140.2 334.74 140.6 334.74 141.2V161.2H334.24C333.64 161.2 333.24 161.6 333.24 162.2C333.24 162.8 333.64 163.2 334.24 163.2ZM349.74 142.2V150.7H336.74V142.2H349.74ZM336.74 152.7H349.74V161.2H336.74V152.7Z" fill="#5D6174"/>
<path d="M267.24 193.2H266.74V173.2C266.74 172.6 266.34 172.2 265.74 172.2H250.74C250.14 172.2 249.74 172.6 249.74 173.2V193.2H249.24C248.64 193.2 248.24 193.6 248.24 194.2C248.24 194.8 248.64 195.2 249.24 195.2H250.74H265.74H267.24C267.84 195.2 268.24 194.8 268.24 194.2C268.24 193.7 267.74 193.2 267.24 193.2ZM264.74 174.2V182.7H251.74V174.2H264.74ZM251.74 193.2V184.7H264.74V193.2H251.74Z" fill="#5D6174"/>
<path d="M334.24 195.2H335.74H350.74H352.24C352.84 195.2 353.24 194.8 353.24 194.2C353.24 193.6 352.84 193.2 352.24 193.2H351.74V173.2C351.74 172.6 351.34 172.2 350.74 172.2H335.74C335.14 172.2 334.74 172.6 334.74 173.2V193.2H334.24C333.64 193.2 333.24 193.6 333.24 194.2C333.24 194.8 333.64 195.2 334.24 195.2ZM349.74 174.2V182.7H336.74V174.2H349.74ZM336.74 184.7H349.74V193.2H336.74V184.7Z" fill="#5D6174"/>
<path d="M292.04 173.7H289.04C288.44 173.7 288.04 174.1 288.04 174.7V198.7C288.04 199.3 288.44 199.7 289.04 199.7H292.04C292.64 199.7 293.04 199.3 293.04 198.7V174.7C293.04 174.2 292.64 173.7 292.04 173.7ZM291.04 197.7H290.04V175.7H291.04V197.7Z" fill="#5D6174"/>
<path d="M305.04 173.7H295.04C294.44 173.7 294.04 174.1 294.04 174.7V190.2C294.04 190.8 294.44 191.2 295.04 191.2H305.04C305.64 191.2 306.04 190.8 306.04 190.2V174.7C306.04 174.2 305.64 173.7 305.04 173.7ZM304.04 189.2H296.04V175.7H304.04V189.2Z" fill="#5D6174"/>
<path d="M305.04 192.2H295.04C294.44 192.2 294.04 192.6 294.04 193.2V198.7C294.04 199.3 294.44 199.7 295.04 199.7H305.04C305.64 199.7 306.04 199.3 306.04 198.7V193.2C306.04 192.7 305.64 192.2 305.04 192.2ZM304.04 197.7H296.04V194.2H304.04V197.7Z" fill="#5D6174"/>
<path d="M311.04 173.7H308.04C307.44 173.7 307.04 174.1 307.04 174.7V198.7C307.04 199.3 307.44 199.7 308.04 199.7H311.04C311.64 199.7 312.04 199.3 312.04 198.7V174.7C312.04 174.2 311.64 173.7 311.04 173.7ZM310.04 197.7H309.04V175.7H310.04V197.7Z" fill="#5D6174"/>
<path d="M998.84 146.6H983.84C983.24 146.6 982.84 147 982.84 147.6V169.1C982.84 169.7 983.24 170.1 983.84 170.1H998.84C999.44 170.1 999.84 169.7 999.84 169.1V147.6C999.84 147.1 999.34 146.6 998.84 146.6ZM997.84 148.6V155.1H984.84V148.6H997.84ZM984.84 157.1H990.34V168.1H984.84V157.1ZM992.34 168.1V157.1H997.84V168.1H992.34Z" fill="#5D6174"/>
<path d="M998.84 173.6H983.84C983.24 173.6 982.84 174 982.84 174.6V196.1C982.84 196.7 983.24 197.1 983.84 197.1H998.84C999.44 197.1 999.84 196.7 999.84 196.1V174.6C999.84 174.1 999.34 173.6 998.84 173.6ZM997.84 175.6V182.1H984.84V175.6H997.84ZM984.84 184.1H990.34V195.1H984.84V184.1ZM992.34 195.1V184.1H997.84V195.1H992.34Z" fill="#5D6174"/>
<path d="M1006.84 170.1H1021.84C1022.44 170.1 1022.84 169.7 1022.84 169.1V147.6C1022.84 147 1022.44 146.6 1021.84 146.6H1006.84C1006.24 146.6 1005.84 147 1005.84 147.6V169.1C1005.84 169.7 1006.24 170.1 1006.84 170.1ZM1007.84 157.1H1013.34V168.1H1007.84V157.1ZM1015.34 168.1V157.1H1020.84V168.1H1015.34ZM1020.84 148.6V155.1H1007.84V148.6H1020.84Z" fill="#5D6174"/>
<path d="M932.34 161.6H931.34V140.6C931.34 140 930.94 139.6 930.34 139.6H916.34C915.74 139.6 915.34 140 915.34 140.6V161.6H914.34C913.74 161.6 913.34 162 913.34 162.6C913.34 163.2 913.74 163.6 914.34 163.6H916.34H930.34H932.34C932.94 163.6 933.34 163.2 933.34 162.6C933.34 162.1 932.94 161.6 932.34 161.6ZM929.34 141.6V150.6H917.34V141.6H929.34ZM917.34 161.6V152.6H929.34V161.6H917.34Z" fill="#5D6174"/>
<path d="M973.84 161.6H972.84V140.6C972.84 140 972.44 139.6 971.84 139.6H957.84C957.24 139.6 956.84 140 956.84 140.6V161.6H955.84C955.24 161.6 954.84 162 954.84 162.6C954.84 163.2 955.24 163.6 955.84 163.6H957.84H971.84H973.84C974.44 163.6 974.84 163.2 974.84 162.6C974.84 162.1 974.34 161.6 973.84 161.6ZM970.84 141.6V150.6H958.84V141.6H970.84ZM958.84 161.6V152.6H970.84V161.6H958.84Z" fill="#5D6174"/>
<path d="M953.04 161.6H952.04V140.6C952.04 140 951.64 139.6 951.04 139.6H937.04C936.44 139.6 936.04 140 936.04 140.6V161.6H935.04C934.44 161.6 934.04 162 934.04 162.6C934.04 163.2 934.44 163.6 935.04 163.6H937.04H951.04H953.04C953.64 163.6 954.04 163.2 954.04 162.6C954.04 162.1 953.64 161.6 953.04 161.6ZM950.04 141.6V150.6H938.04V141.6H950.04ZM938.04 161.6V152.6H950.04V161.6H938.04Z" fill="#5D6174"/>
<path d="M932.34 194.1H931.34V173.1C931.34 172.5 930.94 172.1 930.34 172.1H916.34C915.74 172.1 915.34 172.5 915.34 173.1V194.1H914.34C913.74 194.1 913.34 194.5 913.34 195.1C913.34 195.7 913.74 196.1 914.34 196.1H916.34H930.34H932.34C932.94 196.1 933.34 195.7 933.34 195.1C933.34 194.6 932.94 194.1 932.34 194.1ZM929.34 174.1V183.1H917.34V174.1H929.34ZM917.34 194.1V185.1H929.34V194.1H917.34Z" fill="#5D6174"/>
<path d="M973.84 194.1H972.84V173.1C972.84 172.5 972.44 172.1 971.84 172.1H957.84C957.24 172.1 956.84 172.5 956.84 173.1V194.1H955.84C955.24 194.1 954.84 194.5 954.84 195.1C954.84 195.7 955.24 196.1 955.84 196.1H957.84H971.84H973.84C974.44 196.1 974.84 195.7 974.84 195.1C974.84 194.6 974.34 194.1 973.84 194.1ZM970.84 174.1V183.1H958.84V174.1H970.84ZM958.84 194.1V185.1H970.84V194.1H958.84Z" fill="#5D6174"/>
<path d="M953.04 194.1H952.04V173.1C952.04 172.5 951.64 172.1 951.04 172.1H937.04C936.44 172.1 936.04 172.5 936.04 173.1V194.1H935.04C934.44 194.1 934.04 194.5 934.04 195.1C934.04 195.7 934.44 196.1 935.04 196.1H937.04H951.04H953.04C953.64 196.1 954.04 195.7 954.04 195.1C954.04 194.6 953.64 194.1 953.04 194.1ZM950.04 174.1V183.1H938.04V174.1H950.04ZM938.04 194.1V185.1H950.04V194.1H938.04Z" fill="#5D6174"/>
<path d="M944.04 123.2C948.04 123.2 951.24 119.9 951.24 116C951.24 112 947.94 108.8 944.04 108.8C940.04 108.8 936.84 112.1 936.84 116C936.84 120 940.04 123.2 944.04 123.2ZM938.94 117H943.04V121.1C941.04 120.7 939.34 119.1 938.94 117ZM945.04 121.1V117H949.14C948.84 119.1 947.14 120.7 945.04 121.1ZM949.24 115H945.14V110.9C947.14 111.2 948.84 112.9 949.24 115ZM943.04 110.8V114.9H938.94C939.34 112.9 941.04 111.2 943.04 110.8Z" fill="#5D6174"/>
<path d="M1014.24 186.1C1016.44 186.1 1018.24 184.3 1018.24 182.1C1018.24 179.9 1016.44 178.1 1014.24 178.1C1012.04 178.1 1010.24 179.9 1010.24 182.1C1010.24 184.3 1012.04 186.1 1014.24 186.1ZM1014.24 180.1C1015.34 180.1 1016.24 181 1016.24 182.1C1016.24 183.2 1015.34 184.1 1014.24 184.1C1013.14 184.1 1012.24 183.2 1012.24 182.1C1012.24 181 1013.14 180.1 1014.24 180.1Z" fill="#5D6174"/>
<path d="M-19.2604 149.7H3.23962C3.83962 149.7 4.23962 149.3 4.23962 148.7V126.2C4.23962 125.6 3.83962 125.2 3.23962 125.2H-19.2604C-19.8604 125.2 -20.2604 125.6 -20.2604 126.2V148.7C-20.2604 149.3 -19.7604 149.7 -19.2604 149.7ZM-18.2604 127.2H2.23962V147.7H-18.2604V127.2Z" fill="#5D6174"/>
<path d="M63.2398 149.7H85.7398C86.3398 149.7 86.7398 149.3 86.7398 148.7V126.2C86.7398 125.6 86.3398 125.2 85.7398 125.2H63.2398C62.6398 125.2 62.2398 125.6 62.2398 126.2V148.7C62.2398 149.3 62.7398 149.7 63.2398 149.7ZM64.2398 127.2H84.7398V147.7H64.2398V127.2Z" fill="#5D6174"/>
<path d="M69.7398 173.2V195.7C69.7398 196.3 70.1398 196.7 70.7398 196.7H85.7398C86.3398 196.7 86.7398 196.3 86.7398 195.7V173.2C86.7398 172.6 86.3398 172.2 85.7398 172.2H70.7398C70.2398 172.2 69.7398 172.7 69.7398 173.2ZM71.7398 174.2H84.7398V194.7H71.7398V174.2Z" fill="#5D6174"/>
<path d="M27.5396 138.8H39.0396C39.6396 138.8 40.0396 138.4 40.0396 137.8V126.3C40.0396 125.7 39.6396 125.3 39.0396 125.3H27.5396C26.9396 125.3 26.5396 125.7 26.5396 126.3V137.8C26.5396 138.3 26.9396 138.8 27.5396 138.8ZM28.5396 127.3H38.0396V136.8H28.5396V127.3Z" fill="#5D6174"/>
<path d="M38.7397 178.2H27.7397C27.1397 178.2 26.7397 178.6 26.7397 179.2V200.7C26.7397 201.3 27.1397 201.7 27.7397 201.7H38.7397C39.3397 201.7 39.7397 201.3 39.7397 200.7V179.2C39.7397 178.7 39.3397 178.2 38.7397 178.2ZM37.7397 199.7H28.7397V180.2H37.7397V199.7Z" fill="#5D6174"/>
<path d="M125.74 158.7C123.84 158.7 122.24 160.3 122.24 162.2C122.24 164.1 123.84 165.7 125.74 165.7C127.64 165.7 129.24 164.1 129.24 162.2C129.24 160.3 127.64 158.7 125.74 158.7ZM125.74 163.7C124.94 163.7 124.24 163 124.24 162.2C124.24 161.4 124.94 160.7 125.74 160.7C126.54 160.7 127.24 161.4 127.24 162.2C127.24 163 126.54 163.7 125.74 163.7Z" fill="#5D6174"/>
<path d="M720.44 142.9L706.84 134.6C706.54 134.4 706.14 134.4 705.84 134.6L692.24 142.9C691.74 143.2 691.64 143.8 691.94 144.3L694.24 148.1C694.34 148.3 694.64 148.5 694.84 148.6C694.94 148.6 695.04 148.6 695.04 148.6C695.24 148.6 695.44 148.6 695.54 148.5L696.24 148.1V162.8C696.24 163.4 696.64 163.8 697.24 163.8H715.24C715.84 163.8 716.24 163.4 716.24 162.8V148L716.94 148.4C717.14 148.5 717.44 148.6 717.74 148.5C718.04 148.4 718.24 148.3 718.34 148L720.64 144.2C721.04 143.8 720.84 143.2 720.44 142.9ZM714.24 161.7H698.24V146.8L706.24 141.9L714.24 146.8V161.7ZM717.24 146.2L715.94 145.4C715.94 145.4 715.94 145.4 715.84 145.4L706.84 139.9C706.84 139.9 706.74 139.9 706.74 139.8C706.54 139.7 706.24 139.7 705.94 139.8C705.94 139.8 705.84 139.8 705.84 139.9L696.84 145.4C696.84 145.4 696.84 145.4 696.74 145.4L695.44 146.2L694.14 144.1L706.34 136.6L718.54 144.1L717.24 146.2Z" fill="#5D6174"/>
<path d="M796.74 134.6L783.14 142.9C782.64 143.2 782.54 143.8 782.84 144.3L785.14 148.1C785.24 148.3 785.54 148.5 785.74 148.6C785.84 148.6 785.94 148.6 785.94 148.6C786.14 148.6 786.34 148.6 786.44 148.5L787.14 148.1V162.8C787.14 163.4 787.54 163.8 788.14 163.8H806.14C806.74 163.8 807.14 163.4 807.14 162.8V148L807.84 148.4C808.04 148.5 808.34 148.6 808.64 148.5C808.94 148.4 809.14 148.3 809.24 148L811.54 144.2C811.84 143.7 811.64 143.1 811.24 142.8L797.64 134.5C797.44 134.4 797.04 134.4 796.74 134.6ZM805.24 161.7H789.24V146.8L797.24 141.9L805.24 146.8V161.7ZM809.54 144.1L808.24 146.2L806.94 145.4C806.94 145.4 806.94 145.4 806.84 145.4L797.84 139.9C797.84 139.9 797.74 139.9 797.74 139.8C797.54 139.7 797.24 139.7 796.94 139.8C796.94 139.8 796.84 139.8 796.84 139.9L787.84 145.4C787.84 145.4 787.84 145.4 787.74 145.4L786.44 146.2L785.14 144.1L797.34 136.6L809.54 144.1Z" fill="#5D6174"/>
<path d="M702.24 180.2H692.24C691.64 180.2 691.24 180.6 691.24 181.2V199.2C691.24 199.8 691.64 200.2 692.24 200.2H702.24C702.84 200.2 703.24 199.8 703.24 199.2V181.2C703.24 180.7 702.84 180.2 702.24 180.2ZM701.24 198.2H693.24V182.2H701.24V198.2Z" fill="#5D6174"/>
<path d="M718.24 180.2H708.24C707.64 180.2 707.24 180.6 707.24 181.2V199.2C707.24 199.8 707.64 200.2 708.24 200.2H718.24C718.84 200.2 719.24 199.8 719.24 199.2V181.2C719.24 180.7 718.84 180.2 718.24 180.2ZM717.24 198.2H709.24V182.2H717.24V198.2Z" fill="#5D6174"/>
<path d="M811.24 180.2H801.24C800.64 180.2 800.24 180.6 800.24 181.2V199.2C800.24 199.8 800.64 200.2 801.24 200.2H811.24C811.84 200.2 812.24 199.8 812.24 199.2V181.2C812.24 180.7 811.84 180.2 811.24 180.2ZM810.24 198.2H802.24V182.2H810.24V198.2Z" fill="#5D6174"/>
<path d="M795.24 180.2H785.24C784.64 180.2 784.24 180.6 784.24 181.2V199.2C784.24 199.8 784.64 200.2 785.24 200.2H795.24C795.84 200.2 796.24 199.8 796.24 199.2V181.2C796.24 180.7 795.84 180.2 795.24 180.2ZM794.24 198.2H786.24V182.2H794.24V198.2Z" fill="#5D6174"/>
<path d="M1104.14 208.2C1104.14 207.6 1103.74 207.2 1103.14 207.2H1088.84V174.7V164C1088.84 151 1078.34 140.5 1065.34 140.5C1057.14 140.5 1049.54 144.8 1045.34 151.7C1043.34 151 1041.24 150.7 1039.14 150.7C1035.44 150.7 1031.94 151.7 1028.84 153.6V144.7H1031.84C1032.44 144.7 1032.84 144.3 1032.84 143.7V104.8C1032.84 104.2 1032.44 103.8 1031.84 103.8H956.84L944.84 92.9C944.44 92.6 943.84 92.6 943.54 92.9L903.54 129.1C903.34 129.3 903.24 129.6 903.24 129.9C903.24 130.2 903.34 130.5 903.64 130.7L907.14 133.5C907.34 133.6 907.54 133.7 907.74 133.7C907.94 133.7 908.24 133.6 908.44 133.4L909.54 132.4V144.2C907.84 143.2 905.94 142.7 903.94 142.7C901.24 142.7 898.74 143.7 896.74 145.4C894.14 139.7 888.54 136 882.14 136C873.64 136 866.74 142.6 866.14 151C865.14 150.8 864.04 150.6 862.94 150.6C855.54 150.6 849.44 156.7 849.44 164.1V174.7V207.2H820.44V171.2H827.44C827.54 171.2 827.64 171.2 827.84 171.1C827.94 171.1 827.94 171 828.04 171C828.04 171 828.14 171 828.14 170.9C828.14 170.9 828.24 170.8 828.24 170.7C828.24 170.6 828.34 170.6 828.34 170.5C828.34 170.5 828.34 170.4 828.34 170.3C828.34 170.2 828.34 170.1 828.34 170.1C828.34 170 828.34 170 828.34 169.9C828.34 169.8 828.34 169.8 828.34 169.7L812.34 127.7C812.24 127.3 811.84 127.1 811.44 127.1H798.44V122.1H799.44C800.04 122.1 800.44 121.7 800.44 121.1V118.1C800.44 117.5 800.04 117.1 799.44 117.1H785.44C784.84 117.1 784.44 117.5 784.44 118.1V121.1C784.44 121.7 784.84 122.1 785.44 122.1H786.44V127.1H717.44V122.1H718.44C719.04 122.1 719.44 121.7 719.44 121.1V118.1C719.44 117.5 719.04 117.1 718.44 117.1H704.44C703.84 117.1 703.44 117.5 703.44 118.1V121.1C703.44 121.7 703.84 122.1 704.44 122.1H705.44V127.1H698.14C696.84 125.1 695.14 123.3 693.24 121.8C694.74 119.5 695.44 117 695.44 114.3C695.44 106.6 689.24 100.4 681.54 100.4C678.04 100.4 674.54 101.8 672.04 104.2C668.24 99.7 662.74 97.2 656.84 97.2C645.84 97.2 636.84 106.2 636.84 117.2C636.84 123.8 640.14 130 645.54 133.7C645.54 133.8 645.54 133.9 645.54 134.1C645.54 140.9 651.04 146.5 657.94 146.5C658.04 146.5 658.24 146.5 658.34 146.5C659.64 150.5 662.14 154.1 665.44 156.7C663.54 164.9 661.94 174.1 660.84 184.1C657.64 176 654.94 172.2 653.84 170.9C654.84 168.7 655.34 166.4 655.34 164C655.34 155 648.14 147.5 639.14 147.1C636.74 143.6 632.84 141.6 628.64 141.6C621.64 141.6 615.84 147.3 615.84 154.4C615.84 158.7 617.94 162.6 621.44 165C621.94 173.9 629.34 181 638.34 181C642.94 181 647.34 179.1 650.54 175.8C652.74 179.2 659.14 190.7 659.14 204.1C659.04 205.5 659.04 206.6 659.04 207.3H609.54V171.9L613.64 173.8C613.74 173.9 613.94 173.9 614.04 173.9C614.34 173.9 614.54 173.8 614.74 173.6L617.84 170.5C618.04 170.3 618.14 169.9 618.14 169.6C618.04 169.3 617.84 169 617.54 168.9L574.24 149C573.94 148.9 573.64 148.9 573.44 149L562.14 154.2V120.1L570.24 123.8C570.34 123.9 570.54 123.9 570.64 123.9C570.94 123.9 571.14 123.8 571.34 123.6L574.44 120.5C574.64 120.3 574.74 119.9 574.74 119.6C574.64 119.3 574.44 119 574.14 118.9L512.54 90.5C512.24 90.4 511.94 90.4 511.74 90.5L486.44 102V91.3H486.94C487.54 91.3 487.94 90.9 487.94 90.3V86.3C487.94 85.7 487.54 85.3 486.94 85.3H468.94C468.34 85.3 467.94 85.7 467.94 86.3V90.3C467.94 90.9 468.34 91.3 468.94 91.3H469.44V109.8L450.14 118.7C449.84 118.8 449.64 119.1 449.54 119.4C449.44 119.7 449.54 120.1 449.84 120.3L452.94 123.4C453.24 123.7 453.64 123.8 454.04 123.6L461.24 120.3V153.6L456.24 170C456.14 170.3 456.24 170.6 456.44 170.9C456.64 171.2 456.94 171.3 457.24 171.3H461.24V207.3H439.94V192.3H450.94C451.34 192.3 451.64 192.1 451.84 191.8C452.04 191.5 452.04 191.1 451.84 190.8L443.14 176.3H446.74C447.14 176.3 447.44 176.1 447.64 175.8C447.84 175.5 447.84 175.1 447.64 174.8L439.74 161.6H442.04C442.34 161.6 442.74 161.4 442.94 161.1C443.14 160.8 443.14 160.4 442.94 160.1L436.94 148.1C436.64 147.4 435.44 147.4 435.14 148.1L429.14 160.1C428.94 160.4 429.04 160.8 429.14 161.1C429.34 161.4 429.64 161.6 430.04 161.6H432.34L424.44 174.8C424.24 175.1 424.24 175.5 424.44 175.8C424.64 176.1 424.94 176.3 425.34 176.3H428.94L420.24 190.8C420.04 191.1 420.04 191.5 420.24 191.8C420.44 192.1 420.74 192.3 421.14 192.3H432.14V207.3H415.44V173.3C415.44 172.7 415.04 172.3 414.44 172.3H410.84C412.04 169 412.04 165.5 410.64 162.3C409.24 159 406.64 156.4 403.34 155C399.24 153.3 394.54 153.8 390.84 156.2C388.64 153.1 385.64 150.7 382.14 149.3C376.74 147.1 370.54 147.4 365.44 150.1V132.2H368.44C369.04 132.2 369.44 131.8 369.44 131.2V127.2C369.44 126.6 369.04 126.2 368.44 126.2L333.84 103.6C333.64 103.5 333.44 103.4 333.34 103.4H307.94L301.44 98.6C301.04 98.3 300.64 98.3 300.24 98.6L293.74 103.4H268.34C268.14 103.4 267.94 103.5 267.84 103.6L232.94 126.4C232.94 126.4 232.94 126.4 232.84 126.5C232.74 126.5 232.74 126.6 232.74 126.6C232.74 126.6 232.64 126.7 232.64 126.8C232.64 126.9 232.54 126.9 232.54 127C232.54 127.1 232.54 127.1 232.54 127.2V127.3V131.3C232.54 131.9 232.94 132.3 233.54 132.3H236.54V150.2C233.04 147.2 228.44 145.5 223.74 145.5C214.34 145.5 206.44 151.9 204.44 161C203.64 160.8 202.74 160.8 201.94 160.8C195.24 160.8 189.54 165.8 188.64 172.3H187.54C186.94 172.3 186.54 172.7 186.54 173.3V207.3H162.04V167.8L165.24 169.2C165.34 169.3 165.54 169.3 165.64 169.3C165.74 169.3 165.94 169.3 166.04 169.2C166.24 169.1 166.44 168.9 166.54 168.7L168.74 163.6C168.94 163.1 168.74 162.5 168.24 162.3L155.04 156.6V143.7C157.04 145.5 159.64 146.6 162.34 146.6C168.24 146.6 173.04 141.8 173.04 135.9C173.04 135 172.94 134 172.64 133.1C177.44 131.6 180.84 127 180.84 121.9C180.84 118 178.94 114.4 175.74 112.2C178.34 109.2 179.74 105.5 179.74 101.5C179.74 92.5 172.44 85.2 163.44 85.2C159.44 85.2 155.64 86.6 152.64 89.3C149.04 88.4 145.14 88.4 141.54 89C140.04 85.5 136.54 83.2 132.74 83.2C127.44 83.2 123.14 87.5 123.14 92.8C123.14 95.1 123.94 97.2 125.34 99C123.14 101.9 121.54 105.3 120.64 108.8C113.54 110.8 108.74 117.1 108.74 124.5C108.74 133.5 116.04 140.8 125.04 140.8C128.14 140.8 131.04 140 133.64 138.3C136.54 139.9 139.74 140.9 143.04 141.4V151.3L126.44 144.2C126.14 144.1 125.94 144.1 125.64 144.2L102.04 154.3V117.1H108.04C108.44 117.1 108.74 116.9 108.94 116.6C109.14 116.3 109.14 115.9 108.94 115.6L92.9397 89.6C92.7397 89.3 92.4396 89.1 92.0396 89.1H81.0396V79.6H82.0396C82.6396 79.6 83.0396 79.2 83.0396 78.6V74.6C83.0396 74 82.6396 73.6 82.0396 73.6H63.0396C62.4396 73.6 62.0396 74 62.0396 74.6V78.6C62.0396 79.2 62.4396 79.6 63.0396 79.6H64.0396V89.1H-24.9604C-25.2603 89.1 -25.6604 89.3 -25.8604 89.6L-41.8604 115.6C-42.0604 115.9 -42.0604 116.3 -41.8604 116.6C-41.6604 116.9 -41.3604 117.1 -40.9604 117.1H-34.9604V190C-35.1604 190 -35.3604 190 -35.5604 190C-38.8604 190 -41.8604 191.2 -44.2604 193.3C-46.5604 191.6 -49.3604 190.6 -52.2604 190.6C-59.5604 190.6 -65.4604 196.5 -65.4604 203.8C-65.4604 204.9 -65.3604 206 -65.0604 207.1H-68.8604C-69.4604 207.1 -69.8604 207.5 -69.8604 208.1C-69.8604 208.7 -69.4604 209.1 -68.8604 209.1H-63.8604H-34.2604H-24.9604H8.23965H24.2396H42.2396H58.2397H90.7397H100.74H150.74H160.74H187.24H192.24H197.24H202.24H207.24H212.24H217.24H222.24H227.24H232.24H237.24H281.64H318.64H364.24H369.24H374.24H379.24H384.24H389.24H394.24H399.24H404.24H409.24H414.24H432.94H438.94H462.24H477.24H491.74H539.24H549.04H599.04H608.84H660.14H664.64H684.24H726.74H744.24H759.24H776.74H819.24H850.24H856.24H860.24H866.24H870.24H876.24H880.24H886.24H890.24H896.24H900.24H906.24H910.24H977.74H1003.24H1025.24H1027.74H1031.74H1037.74H1041.74H1047.74H1051.74H1057.74H1061.74H1067.74H1071.74H1077.74H1081.74H1087.74H1103.04C1103.64 209.2 1104.14 208.8 1104.14 208.2ZM1039.14 152.7C1041.34 152.7 1043.44 153.1 1045.44 153.9C1045.94 154.1 1046.44 153.9 1046.64 153.5C1050.44 146.8 1057.64 142.6 1065.34 142.6C1077.24 142.6 1086.84 152.2 1086.84 164.1V171.3C1086.24 171 1085.54 170.7 1084.84 170.7C1082.64 170.7 1080.84 172.5 1080.84 174.7V179.7H1078.84V174.7C1078.84 172.5 1077.04 170.7 1074.84 170.7C1072.64 170.7 1070.84 172.5 1070.84 174.7V179.7H1068.84V174.7C1068.84 172.5 1067.04 170.7 1064.84 170.7C1062.64 170.7 1060.84 172.5 1060.84 174.7V179.7H1058.84V174.7C1058.84 172.5 1057.04 170.7 1054.84 170.7C1052.64 170.7 1050.84 172.5 1050.84 174.7V179.7H1048.84V174.7C1048.84 172.5 1047.04 170.7 1044.84 170.7C1042.64 170.7 1040.84 172.5 1040.84 174.7V179.7H1038.84V174.7C1038.84 172.5 1037.04 170.7 1034.84 170.7C1032.64 170.7 1030.84 172.5 1030.84 174.7V179.7H1028.84V156C1031.84 153.9 1035.34 152.7 1039.14 152.7ZM1078.84 200.2H1080.84V201.2H1078.84V200.2ZM1080.84 198.2H1078.84V184.7H1080.84V198.2ZM1080.84 182.7H1078.84V181.7H1080.84V182.7ZM1078.84 203.2H1080.84V207.2H1078.84V203.2ZM1068.84 200.2H1070.84V201.2H1068.84V200.2ZM1070.84 198.2H1068.84V184.7H1070.84V198.2ZM1070.84 182.7H1068.84V181.7H1070.84V182.7ZM1068.84 203.2H1070.84V207.2H1068.84V203.2ZM1058.84 200.2H1060.84V201.2H1058.84V200.2ZM1060.84 198.2H1058.84V184.7H1060.84V198.2ZM1060.84 182.7H1058.84V181.7H1060.84V182.7ZM1058.84 203.2H1060.84V207.2H1058.84V203.2ZM1048.84 200.2H1050.84V201.2H1048.84V200.2ZM1050.84 198.2H1048.84V184.7H1050.84V198.2ZM1050.84 182.7H1048.84V181.7H1050.84V182.7ZM1048.84 203.2H1050.84V207.2H1048.84V203.2ZM1038.84 200.2H1040.84V201.2H1038.84V200.2ZM1040.84 198.2H1038.84V184.7H1040.84V198.2ZM1040.84 182.7H1038.84V181.7H1040.84V182.7ZM1038.84 203.2H1040.84V207.2H1038.84V203.2ZM1030.84 182.7H1028.84V181.7H1030.84V182.7ZM1028.84 184.7H1030.84V198.2H1028.84V184.7ZM1028.84 200.2H1030.84V201.2H1028.84V200.2ZM1027.84 142.7H978.84V140.8L979.84 141.6C980.24 141.9 980.74 141.9 981.14 141.6L984.14 139.1L987.14 141.6C987.54 141.9 988.04 141.9 988.44 141.6L991.44 139.1L994.44 141.6C994.84 141.9 995.34 141.9 995.74 141.6L998.74 139.1L1001.74 141.6C1002.14 141.9 1002.64 141.9 1003.04 141.6L1006.04 139.1L1009.04 141.6C1009.44 141.9 1009.94 141.9 1010.34 141.6L1013.34 139.1L1016.34 141.6C1016.74 141.9 1017.24 141.9 1017.64 141.6L1020.64 139.1L1023.64 141.6C1024.04 141.9 1024.54 141.9 1024.94 141.6L1027.94 139.1L1030.64 141.3V142.7H1027.84ZM979.34 132.9C979.74 133.2 980.24 133.2 980.64 132.9L984.14 130.1C984.34 129.9 984.44 129.7 984.54 129.4L987.14 131.6C987.54 131.9 988.04 131.9 988.44 131.6L991.44 129.1L994.44 131.6C994.84 131.9 995.34 131.9 995.74 131.6L998.74 129.1L1001.74 131.6C1002.14 131.9 1002.64 131.9 1003.04 131.6L1006.04 129.1L1009.04 131.6C1009.44 131.9 1009.94 131.9 1010.34 131.6L1013.34 129.1L1016.34 131.6C1016.74 131.9 1017.24 131.9 1017.64 131.6L1020.64 129.1L1023.64 131.6C1024.04 131.9 1024.54 131.9 1024.94 131.6L1027.94 129.1L1030.64 131.3V133.7L1028.64 132C1028.24 131.7 1027.74 131.7 1027.34 132L1024.34 134.5L1021.34 132C1020.94 131.7 1020.44 131.7 1020.04 132L1017.04 134.5L1014.04 132C1013.64 131.7 1013.14 131.7 1012.74 132L1009.74 134.5L1006.74 132C1006.34 131.7 1005.84 131.7 1005.44 132L1002.44 134.5L999.44 132C999.04 131.7 998.54 131.7 998.14 132L995.14 134.5L992.14 132C991.74 131.7 991.24 131.7 990.84 132L987.84 134.5L984.84 132C984.44 131.7 983.94 131.7 983.54 132L980.54 134.5L978.94 133.2V132.4L979.34 132.9ZM978.84 135.8L979.84 136.6C980.24 136.9 980.74 136.9 981.14 136.6L984.14 134.1L987.14 136.6C987.54 136.9 988.04 136.9 988.44 136.6L991.44 134.1L994.44 136.6C994.84 136.9 995.34 136.9 995.74 136.6L998.74 134.1L1001.74 136.6C1002.14 136.9 1002.64 136.9 1003.04 136.6L1006.04 134.1L1009.04 136.6C1009.44 136.9 1009.94 136.9 1010.34 136.6L1013.34 134.1L1016.34 136.6C1016.74 136.9 1017.24 136.9 1017.64 136.6L1020.64 134.1L1023.64 136.6C1024.04 136.9 1024.54 136.9 1024.94 136.6L1027.94 134.1L1030.64 136.3V138.7L1028.64 137C1028.24 136.7 1027.74 136.7 1027.34 137L1024.34 139.5L1021.34 137C1020.94 136.7 1020.44 136.7 1020.04 137L1017.04 139.5L1014.04 137C1013.64 136.7 1013.14 136.7 1012.74 137L1009.74 139.5L1006.74 137C1006.34 136.7 1005.84 136.7 1005.44 137L1002.44 139.5L999.44 137C999.04 136.7 998.54 136.7 998.14 137L995.14 139.5L992.14 137C991.74 136.7 991.24 136.7 990.84 137L987.84 139.5L984.84 137C984.44 136.7 983.94 136.7 983.54 137L980.54 139.5L978.94 138.2V135.8H978.84ZM1030.84 113.8L1028.84 112.1C1028.44 111.8 1027.94 111.8 1027.54 112.1L1024.54 114.6L1021.54 112.1C1021.14 111.8 1020.64 111.8 1020.24 112.1L1017.24 114.6L1014.24 112.1C1013.84 111.8 1013.34 111.8 1012.94 112.1L1009.94 114.6L1006.94 112.1C1006.54 111.8 1006.04 111.8 1005.64 112.1L1002.64 114.6L999.64 112.1C999.24 111.8 998.74 111.8 998.34 112.1L995.34 114.6L992.34 112.1C991.94 111.8 991.44 111.8 991.04 112.1L988.04 114.6L985.04 112.1C984.64 111.8 984.14 111.8 983.74 112.1L980.74 114.6L977.84 112.1C977.44 111.8 976.84 111.8 976.54 112.1L973.94 114.5L970.84 112C970.44 111.7 969.94 111.7 969.64 112L967.84 113.4L963.14 109.2L963.54 109L966.64 111.6C967.04 111.9 967.64 111.9 967.94 111.5L970.24 109.3L972.94 111.7C973.34 112 973.84 112 974.24 111.7L977.14 109.2L980.14 111.7C980.54 112 981.04 112 981.44 111.7L984.44 109.2L987.44 111.7C987.84 112 988.34 112 988.74 111.7L991.74 109.2L994.74 111.7C995.14 112 995.64 112 996.04 111.7L999.04 109.2L1002.04 111.7C1002.44 112 1002.94 112 1003.34 111.7L1006.34 109.2L1009.34 111.7C1009.74 112 1010.24 112 1010.64 111.7L1013.64 109.2L1016.64 111.7C1017.04 112 1017.54 112 1017.94 111.7L1020.94 109.2L1023.94 111.7C1024.34 112 1024.84 112 1025.24 111.7L1028.24 109.2L1030.94 111.4V113.8H1030.84ZM969.84 114.1L973.04 116.6C973.44 116.9 973.94 116.9 974.34 116.6L976.94 114.2L979.84 116.6C980.24 116.9 980.74 116.9 981.14 116.6L984.14 114.1L987.14 116.6C987.54 116.9 988.04 116.9 988.44 116.6L991.44 114.1L994.44 116.6C994.84 116.9 995.34 116.9 995.74 116.6L998.74 114.1L1001.74 116.6C1002.14 116.9 1002.64 116.9 1003.04 116.6L1006.04 114.1L1009.04 116.6C1009.44 116.9 1009.94 116.9 1010.34 116.6L1013.34 114.1L1016.34 116.6C1016.74 116.9 1017.24 116.9 1017.64 116.6L1020.64 114.1L1023.64 116.6C1024.04 116.9 1024.54 116.9 1024.94 116.6L1027.94 114.1L1030.64 116.3V118.7L1028.64 117C1028.24 116.7 1027.74 116.7 1027.34 117L1024.34 119.5L1021.34 117C1020.94 116.7 1020.44 116.7 1020.04 117L1017.04 119.5L1014.04 117C1013.64 116.7 1013.14 116.7 1012.74 117L1009.74 119.5L1006.74 117C1006.34 116.7 1005.84 116.7 1005.44 117L1002.44 119.5L999.44 117C999.04 116.7 998.54 116.7 998.14 117L995.14 119.5L992.14 117C991.74 116.7 991.24 116.7 990.84 117L987.84 119.5L984.84 117C984.44 116.7 983.94 116.7 983.54 117L980.54 119.5L977.54 117C977.14 116.7 976.64 116.7 976.24 117L973.74 119L968.94 114.7L969.84 114.1ZM976.74 119.2L979.74 121.7C980.14 122 980.64 122 981.04 121.7L984.04 119.2L987.04 121.7C987.44 122 987.94 122 988.34 121.7L991.34 119.2L994.34 121.7C994.74 122 995.24 122 995.64 121.7L998.64 119.2L1001.64 121.7C1002.04 122 1002.54 122 1002.94 121.7L1005.94 119.2L1008.94 121.7C1009.34 122 1009.84 122 1010.24 121.7L1013.24 119.2L1016.24 121.7C1016.64 122 1017.14 122 1017.54 121.7L1020.54 119.2L1023.54 121.7C1023.94 122 1024.44 122 1024.84 121.7L1027.84 119.2L1030.54 121.4V123.8L1028.54 122.1C1028.14 121.8 1027.64 121.8 1027.24 122.1L1024.24 124.6L1021.24 122.1C1020.84 121.8 1020.34 121.8 1019.94 122.1L1016.94 124.6L1013.94 122.1C1013.54 121.8 1013.04 121.8 1012.64 122.1L1009.64 124.6L1006.64 122.1C1006.24 121.8 1005.74 121.8 1005.34 122.1L1002.34 124.6L999.34 122.1C998.94 121.8 998.44 121.8 998.04 122.1L995.04 124.6L992.04 122.1C991.64 121.8 991.14 121.8 990.74 122.1L987.74 124.6L984.74 122.1C984.34 121.8 983.84 121.8 983.44 122.1L980.04 124.9L975.14 120.5L976.74 119.2ZM984.14 124.2L987.14 126.7C987.54 127 988.04 127 988.44 126.7L991.44 124.2L994.44 126.7C994.84 127 995.34 127 995.74 126.7L998.74 124.2L1001.74 126.7C1002.14 127 1002.64 127 1003.04 126.7L1006.04 124.2L1009.04 126.7C1009.44 127 1009.94 127 1010.34 126.7L1013.34 124.2L1016.34 126.7C1016.74 127 1017.24 127 1017.64 126.7L1020.64 124.2L1023.64 126.7C1024.04 127 1024.54 127 1024.94 126.7L1027.94 124.2L1030.64 126.4V128.8L1028.64 127.1C1028.24 126.8 1027.74 126.8 1027.34 127.1L1024.34 129.6L1021.34 127.1C1020.94 126.8 1020.44 126.8 1020.04 127.1L1017.04 129.6L1014.04 127.1C1013.64 126.8 1013.14 126.8 1012.74 127.1L1009.74 129.6L1006.74 127.1C1006.34 126.8 1005.84 126.8 1005.44 127.1L1002.44 129.6L999.44 127.1C999.04 126.8 998.54 126.8 998.14 127.1L995.14 129.6L992.14 127.1C991.74 126.8 991.24 126.8 990.84 127.1L987.84 129.6L984.84 127.1C984.44 126.8 983.94 126.8 983.54 127.1L983.04 127.5L981.64 126.2L984.14 124.2ZM1030.84 105.9V108.8L1028.84 107.1C1028.44 106.8 1027.94 106.8 1027.54 107.1L1024.54 109.6L1021.54 107.1C1021.14 106.8 1020.64 106.8 1020.24 107.1L1017.24 109.6L1014.24 107.1C1013.84 106.8 1013.34 106.8 1012.94 107.1L1009.94 109.6L1006.94 107.1C1006.54 106.8 1006.04 106.8 1005.64 107.1L1002.64 109.6L999.64 107.1C999.24 106.8 998.74 106.8 998.34 107.1L995.34 109.6L992.34 107.1C991.94 106.8 991.44 106.8 991.04 107.1L988.04 109.6L985.04 107.1C984.64 106.8 984.14 106.8 983.74 107.1L980.74 109.6L977.74 107.1C977.34 106.8 976.84 106.8 976.44 107.1L973.54 109.5L970.84 107.1C970.44 106.8 969.84 106.8 969.44 107.1L967.14 109.4L964.14 107C963.84 106.7 963.34 106.7 963.04 106.9L961.44 107.8L959.34 105.9H1030.84ZM907.54 131.4L905.64 129.9L944.14 95.1L982.04 129.3L980.14 130.8L978.64 129.4L944.94 98.9C944.54 98.6 943.94 98.6 943.64 98.9L909.84 129.4L907.54 131.4ZM907.34 200.2H909.34V201.2H907.34V200.2ZM909.34 198.2H907.34V184.7H909.34V198.2ZM909.34 182.7H907.34V181.7H909.34V182.7ZM907.34 203.2H909.34V207.2H907.34V203.2ZM862.84 152.6C864.14 152.6 865.44 152.8 866.64 153.2C866.94 153.3 867.34 153.3 867.54 153.1C867.84 152.9 867.94 152.6 867.94 152.3V152C867.94 144.3 874.24 138 881.94 138C887.94 138 893.24 141.8 895.14 147.5C895.24 147.8 895.54 148.1 895.94 148.2C896.34 148.3 896.64 148.1 896.84 147.9C898.54 145.9 901.04 144.8 903.64 144.8C905.74 144.8 907.64 145.5 909.24 146.8V179.8H907.24V174.8C907.24 172.6 905.44 170.8 903.24 170.8C901.04 170.8 899.24 172.6 899.24 174.8V179.8H897.24V174.8C897.24 172.6 895.44 170.8 893.24 170.8C891.04 170.8 889.24 172.6 889.24 174.8V179.8H887.24V174.8C887.24 172.6 885.44 170.8 883.24 170.8C881.04 170.8 879.24 172.6 879.24 174.8V179.8H877.24V174.8C877.24 172.6 875.44 170.8 873.24 170.8C871.04 170.8 869.24 172.6 869.24 174.8V179.8H867.24V174.8C867.24 172.6 865.44 170.8 863.24 170.8C861.04 170.8 859.24 172.6 859.24 174.8V179.8H857.24V174.8C857.24 172.6 855.44 170.8 853.24 170.8C852.54 170.8 851.84 171 851.24 171.4V164.3C851.34 157.8 856.54 152.6 862.84 152.6ZM897.34 200.2H899.34V201.2H897.34V200.2ZM899.34 198.2H897.34V184.7H899.34V198.2ZM899.34 182.7H897.34V181.7H899.34V182.7ZM897.34 203.2H899.34V207.2H897.34V203.2ZM887.34 200.2H889.34V201.2H887.34V200.2ZM889.34 198.2H887.34V184.7H889.34V198.2ZM889.34 182.7H887.34V181.7H889.34V182.7ZM887.34 203.2H889.34V207.2H887.34V203.2ZM877.34 200.2H879.34V201.2H877.34V200.2ZM879.34 198.2H877.34V184.7H879.34V198.2ZM879.34 182.7H877.34V181.7H879.34V182.7ZM877.34 203.2H879.34V207.2H877.34V203.2ZM867.34 200.2H869.34V201.2H867.34V200.2ZM869.34 198.2H867.34V184.7H869.34V198.2ZM869.34 182.7H867.34V181.7H869.34V182.7ZM867.34 203.2H869.34V207.2H867.34V203.2ZM857.34 200.2H859.34V201.2H857.34V200.2ZM859.34 198.2H857.34V184.7H859.34V198.2ZM859.34 182.7H857.34V181.7H859.34V182.7ZM857.34 203.2H859.34V207.2H857.34V203.2ZM825.84 169.2H789.34L752.24 148.4C751.94 148.2 751.54 148.2 751.24 148.4L714.24 169.1H677.64L680.84 160.8L692.94 129.1H697.44H706.24H716.24H787.24H797.24H810.54L825.84 169.2ZM759.24 180.2H744.24C743.64 180.2 743.24 180.6 743.24 181.2V207.2H727.74V170.8L751.74 157.3L775.74 170.7V207.1H760.24V181.1C760.24 180.7 759.84 180.2 759.24 180.2ZM752.24 155.3C751.94 155.1 751.54 155.1 751.24 155.3L750.74 155.6L726.24 169.3L726.14 169.4L717.74 174.1L715.74 170.6L751.64 150.5L787.64 170.6L785.64 174.1L752.24 155.3ZM670.24 159.6C672.84 160.8 675.64 161.5 678.54 161.6L675.34 169.9C675.34 170 675.34 170 675.34 170.1C675.34 170.2 675.34 170.2 675.34 170.3C675.34 170.4 675.34 170.5 675.34 170.5V170.6C675.34 170.7 675.44 170.7 675.44 170.8C675.44 170.9 675.54 170.9 675.54 171L675.64 171.1C675.74 171.1 675.74 171.2 675.84 171.2C675.94 171.2 676.04 171.3 676.24 171.3H683.24V207.3H665.64C665.54 202.5 665.24 180.9 670.24 159.6ZM786.24 119.2H798.24V120.2H797.24H787.24H786.24V119.2ZM788.24 122.2H796.24V127.2H788.24V122.2ZM705.24 119.2H717.24V120.2H716.24H706.24H705.24V119.2ZM707.24 122.2H715.24V127.2H707.24V122.2ZM573.94 150.8L615.54 169.9L613.94 171.5L609.14 169.3L574.34 153.3C574.04 153.2 573.74 153.2 573.54 153.3L538.84 169.3L534.04 171.5L532.44 169.9L573.94 150.8ZM469.94 87.3H485.94V89.3H485.44H470.44H469.94V87.3ZM471.44 91.3H484.44V102.9L471.44 108.9V91.3ZM453.84 121.5L452.24 119.9L512.14 92.3L572.04 119.9L570.44 121.5L512.54 94.8C512.44 94.7 512.24 94.7 512.14 94.7C512.04 94.7 511.84 94.7 511.74 94.8L461.94 117.7C461.84 117.7 461.74 117.8 461.74 117.8L453.84 121.5ZM512.14 96.8L560.14 118.9V152.7H463.14V119.4L512.14 96.8ZM462.94 154.7H560.24V154.9L530.24 168.7C530.04 168.8 529.84 169 529.74 169.2H458.54L462.94 154.7ZM381.14 151.1C384.64 152.5 387.44 154.9 389.44 158.1C389.64 158.3 389.84 158.5 390.14 158.6C390.44 158.7 390.74 158.6 390.94 158.4C394.14 155.9 398.54 155.3 402.34 156.8C405.14 158 407.44 160.2 408.64 163C409.84 165.8 409.84 169 408.64 171.8C408.54 172 408.54 172.1 408.44 172.3H404.24H399.24H394.24H389.24H384.24H379.24H374.24H369.24H365.24V152.5C370.04 149.4 375.94 148.9 381.14 151.1ZM332.74 105.5L364.54 126.3H338.64L310.34 105.5H332.74ZM268.34 105.5H290.74L262.44 126.3H236.54L268.34 105.5ZM234.24 128.2H262.84C263.04 128.2 263.24 128.1 263.44 128L300.54 100.7L337.64 128C337.84 128.1 338.04 128.2 338.24 128.2H367.14V130.2H364.14H337.24L301.14 103.7C300.74 103.4 300.34 103.4 299.94 103.7L263.74 130.3H237.14H234.14V128.2H234.24ZM201.64 162.7C202.64 162.7 203.64 162.8 204.64 163.1C204.94 163.2 205.24 163.1 205.44 163C205.64 162.8 205.84 162.6 205.84 162.3C207.24 153.7 214.64 147.4 223.34 147.4C228.14 147.4 232.74 149.4 236.14 152.8V172.1H232.14H227.14H222.14H217.14H212.14H207.14H202.14H197.14H192.14H190.24C191.34 166.8 196.14 162.7 201.64 162.7ZM144.74 152.3V140.7C144.74 140.2 144.34 139.8 143.84 139.7C140.34 139.4 136.94 138.3 133.84 136.5C133.54 136.3 133.14 136.3 132.74 136.5C130.34 138.1 127.54 139 124.74 139C116.84 139 110.44 132.6 110.44 124.7C110.44 118 114.94 112.3 121.44 110.8C121.84 110.7 122.14 110.4 122.14 110C122.94 106.3 124.64 102.7 127.04 99.8C127.34 99.4 127.34 98.8 126.94 98.5C125.54 97.1 124.74 95.1 124.74 93.1C124.74 88.9 128.14 85.5 132.34 85.5C135.64 85.5 138.54 87.6 139.54 90.7C139.74 91.2 140.24 91.5 140.74 91.4C144.54 90.6 148.54 90.6 152.24 91.6C152.54 91.7 152.94 91.6 153.14 91.4C155.84 88.9 159.24 87.5 162.94 87.5C170.84 87.5 177.24 93.9 177.24 101.8C177.24 105.6 175.74 109.3 173.04 112C172.84 112.2 172.74 112.5 172.74 112.9C172.74 113.2 172.94 113.5 173.24 113.6C176.44 115.3 178.34 118.6 178.34 122.2C178.34 126.7 175.14 130.7 170.74 131.7C170.44 131.8 170.24 131.9 170.04 132.2C169.94 132.5 169.84 132.8 169.94 133C170.34 134 170.54 135 170.54 136.1C170.54 140.9 166.64 144.8 161.84 144.8C158.74 144.8 155.94 143.2 154.34 140.5C154.14 140.1 153.64 139.9 153.24 140C152.84 140.1 152.54 140.5 152.54 141V155.8L146.64 153.3L144.74 152.3ZM125.74 146.3L149.74 156.6L153.34 158.2L166.24 163.7L164.84 166.9L126.14 150.3C126.04 150.2 125.84 150.2 125.74 150.2C125.64 150.2 125.44 150.2 125.34 150.3L90.3396 165.3L86.6396 166.9L85.2397 163.7L125.74 146.3ZM63.7397 75.7H80.7397V77.7H79.7397H64.7397H63.7397V75.7ZM65.7397 79.7H78.7397V89.2H65.7397V79.7ZM-24.6604 91.2H64.7397H79.7397H91.1396L105.94 115.2H100.74H-34.2604H-39.4604L-24.6604 91.2ZM-33.2604 117.2H99.7397V155.3L83.5396 162.3C83.0396 162.5 82.8396 163.1 83.0396 163.6L85.2397 168.7C85.3397 168.9 85.5397 169.1 85.7397 169.2C85.9397 169.3 86.2396 169.3 86.5396 169.2L89.7397 167.8V207.3H59.2397V168L61.9397 169.6C62.1396 169.7 62.2397 169.7 62.4397 169.7C62.7397 169.7 63.1396 169.5 63.3396 169.2L66.1396 164.5C66.2397 164.3 66.3397 164 66.2397 163.7C66.1396 163.4 66.0397 163.2 65.7397 163.1L33.7396 144C33.4396 143.8 33.0396 143.8 32.7396 144L0.639648 163.2C0.439651 163.3 0.239647 163.6 0.139648 163.8C0.03965 164.1 0.139648 164.3 0.239647 164.6L3.03965 169.3C3.33965 169.8 3.93965 169.9 4.43965 169.6L7.13965 168V207.2H-23.4604C-23.0603 205.9 -22.7604 204.5 -22.7604 203.1C-22.7604 196.8 -27.2603 191.6 -33.1604 190.4V117.2H-33.2604ZM4.33965 167.4L2.53965 164.4L33.2396 146L63.9397 164.4L62.1396 167.4L33.7396 150.4C33.4396 150.2 33.0396 150.2 32.7396 150.4L4.33965 167.4ZM-34.2604 207.2H-63.1604C-63.4604 206.1 -63.6604 205 -63.6604 203.9C-63.6604 197.7 -58.6604 192.7 -52.4604 192.7C-49.7604 192.7 -47.1604 193.7 -45.0604 195.5C-44.6604 195.9 -44.0604 195.8 -43.6604 195.4C-41.5604 193.2 -38.7604 192 -35.7604 192C-29.6604 192 -24.7604 196.9 -24.7604 203C-24.7604 204.4 -25.0604 205.8 -25.5604 207.1H-34.2604V207.2ZM25.2396 207.2V176.7H41.2396V207.2H25.2396ZM43.2396 207.2V175.7C43.2396 175.1 42.8396 174.7 42.2396 174.7H24.2396C23.6396 174.7 23.2396 175.1 23.2396 175.7V207.2H9.23965V166.8L33.2396 152.4L57.2396 166.8V207.2H43.2396ZM149.74 184.7V186.2H101.74V184.7H149.74ZM101.74 182.7V181.2H149.74V182.7H101.74ZM149.74 188.2V189.7H101.74V188.2H149.74ZM149.74 191.7V193.2H101.74V191.7H149.74ZM149.74 195.2V196.7H101.74V195.2H149.74ZM149.74 198.7V200.2H101.74V198.7H149.74ZM149.74 179.2H101.74V177.7H149.74V179.2ZM101.74 202.2H149.74V203.7H101.74V202.2ZM149.74 175.7H101.74V174.2H149.74V175.7ZM101.74 207.2V205.7H149.74V207.2H101.74ZM151.74 207.2V173.2C151.74 172.6 151.34 172.2 150.74 172.2H100.74C100.14 172.2 99.7397 172.6 99.7397 173.2V207.2H91.7397V166.9L125.74 152.3L159.74 166.9V207.2H151.74ZM188.24 174.2H191.24V207.2H188.24V174.2ZM193.24 174.2H196.24V207.2H193.24V174.2ZM198.24 174.2H201.24V207.2H198.24V174.2ZM203.24 174.2H206.24V207.2H203.24V174.2ZM208.24 174.2H211.24V207.2H208.24V174.2ZM213.24 174.2H216.24V207.2H213.24V174.2ZM218.24 174.2H221.24V207.2H218.24V174.2ZM223.24 174.2H226.24V207.2H223.24V174.2ZM228.24 174.2H231.24V207.2H228.24V174.2ZM233.24 174.2H236.24V207.2H233.24V174.2ZM238.24 173.2V132.2H264.14C264.34 132.2 264.54 132.1 264.74 132L300.54 105.7L336.34 132C336.54 132.1 336.74 132.2 336.94 132.2H363.14V173.2V207.2H319.54V205.2C319.54 204.6 319.14 204.2 318.54 204.2H317.54V202.2C317.54 201.6 317.14 201.2 316.54 201.2H315.04V172.2H317.54C318.14 172.2 318.54 171.8 318.54 171.2V168.2C318.54 167.6 318.14 167.2 317.54 167.2H282.54C281.94 167.2 281.54 167.6 281.54 168.2V171.2C281.54 171.8 281.94 172.2 282.54 172.2H285.04V201.2H283.54C282.94 201.2 282.54 201.6 282.54 202.2V204.2H281.54C280.94 204.2 280.54 204.6 280.54 205.2V207.2H238.14V173.2H238.24ZM314.04 170.2H286.04H283.54V169.2H316.54V170.2H314.04ZM287.04 172.2H313.04V201.2H287.04V172.2ZM286.04 203.2H314.04H315.54V204.2H284.54V203.2H286.04ZM282.54 207.2V206.2H283.54H316.54H317.54V207.2H282.54ZM365.24 174.2H368.24V207.2H365.24V174.2ZM370.24 174.2H373.24V207.2H370.24V174.2ZM375.24 174.2H378.24V207.2H375.24V174.2ZM380.24 174.2H383.24V207.2H380.24V174.2ZM385.24 174.2H388.24V207.2H385.24V174.2ZM390.24 174.2H393.24V207.2H390.24V174.2ZM395.24 174.2H398.24V207.2H395.24V174.2ZM400.24 174.2H403.24V207.2H400.24V174.2ZM405.24 174.2H408.24V207.2H405.24V174.2ZM410.24 207.2V174.2H413.24V207.2H410.24ZM433.94 207.2V191.2C433.94 190.6 433.54 190.2 432.94 190.2H422.74L431.44 175.7C431.64 175.4 431.64 175 431.44 174.7C431.24 174.4 430.94 174.2 430.54 174.2H426.94L434.84 161C435.04 160.7 435.04 160.3 434.84 160C434.64 159.7 434.34 159.5 433.94 159.5H431.54L435.94 150.7L440.34 159.5H437.94C437.54 159.5 437.24 159.7 437.04 160C436.84 160.3 436.84 160.7 437.04 161L444.94 174.2H441.34C440.94 174.2 440.64 174.4 440.44 174.7C440.24 175 440.24 175.4 440.44 175.7L449.14 190.2H438.94C438.34 190.2 437.94 190.6 437.94 191.2V207.2H433.94ZM463.24 171.2H530.84L533.04 173.4C533.34 173.7 533.74 173.8 534.14 173.6L538.24 171.7V207.1H492.74V180.6C492.74 180 492.34 179.6 491.74 179.6H477.24C476.64 179.6 476.24 180 476.24 180.6V207.1H463.24V171.2ZM478.24 207.2V181.7H490.74V207.2H478.24ZM549.94 207.2V181.7H597.94V207.2H549.94ZM599.94 207.2V180.7C599.94 180.1 599.54 179.7 598.94 179.7H548.94C548.34 179.7 547.94 180.1 547.94 180.7V207.2H540.14V170.8L573.94 155.3L607.74 170.8V207.2H599.94ZM661.24 207.2C661.24 206.5 661.34 205.4 661.34 204V203.9C661.34 188.3 653.04 175.6 651.84 173.7C651.74 173.5 651.64 173.3 651.44 173.2C651.04 172.9 650.44 173 650.04 173.4C647.14 176.9 642.94 178.9 638.44 178.9C630.44 178.9 623.74 172.3 623.54 164.3C623.54 164 623.34 163.6 623.04 163.5C619.84 161.5 617.94 158.1 617.94 154.3C617.94 148.4 622.74 143.5 628.74 143.5C632.44 143.5 635.84 145.4 637.84 148.5C638.04 148.8 638.34 149 638.64 149C646.74 149.1 653.44 155.8 653.44 163.9C653.44 166.3 652.94 168.5 651.84 170.7C651.64 171.2 651.74 171.8 652.24 172C652.34 172 652.34 172.1 652.44 172.1C653.44 173.3 656.74 177.9 660.54 188.6C660.64 189.1 660.94 189.4 661.44 189.5C662.04 189.5 662.44 189.1 662.54 188.6C663.64 176.7 665.44 165.9 667.74 156.5C667.84 156.1 667.64 155.7 667.34 155.5C663.94 152.9 661.34 149.2 660.14 145.1C660.04 144.6 659.54 144.3 659.04 144.4C658.74 144.4 658.34 144.5 657.94 144.5C652.24 144.5 647.54 139.8 647.54 134.1C647.54 133.8 647.54 133.6 647.54 133.3C647.54 132.9 647.44 132.6 647.04 132.4C641.84 129.1 638.74 123.4 638.74 117.3C638.74 107.4 646.84 99.3 656.74 99.3C662.44 99.3 667.64 101.9 671.04 106.4C671.24 106.6 671.54 106.8 671.84 106.8C672.14 106.8 672.44 106.7 672.64 106.5C674.94 104 678.14 102.5 681.54 102.5C688.14 102.5 693.44 107.8 693.44 114.4C693.44 117 692.64 119.5 691.04 121.6C690.84 121.8 690.84 122.1 690.84 122.4C690.84 122.7 691.04 122.9 691.24 123.1C692.94 124.3 694.44 125.8 695.64 127.4H692.34C691.94 127.4 691.54 127.7 691.44 128L679.34 159.7C676.14 159.7 672.94 158.9 670.04 157.4C669.74 157.3 669.44 157.2 669.14 157.4C668.84 157.5 668.64 157.8 668.54 158.1C663.24 179.9 663.54 202.4 663.64 207.4H661.24V207.2ZM685.24 171.2H713.84L716.54 176C716.64 176.2 716.84 176.4 717.14 176.5C717.24 176.5 717.34 176.5 717.44 176.5C717.64 176.5 717.74 176.5 717.94 176.4L725.74 172V207.3H685.24V171.2ZM745.24 207.2V182.2H758.24V207.2H745.24ZM777.74 207.2V171.9L785.64 176.3C786.14 176.6 786.74 176.4 787.04 175.9L789.74 171.2H818.34V207.2H777.74ZM851.34 207.2V174.7C851.34 173.6 852.24 172.7 853.34 172.7C854.44 172.7 855.34 173.6 855.34 174.7V180.7V183.7V199.2V202.2V207.2H851.34ZM861.34 207.2V202.2V199.2V183.7V180.7V174.7C861.34 173.6 862.24 172.7 863.34 172.7C864.44 172.7 865.34 173.6 865.34 174.7V180.7V183.7V199.2V202.2V207.2H861.34ZM871.34 207.2V202.2V199.2V183.7V180.7V174.7C871.34 173.6 872.24 172.7 873.34 172.7C874.44 172.7 875.34 173.6 875.34 174.7V180.7V183.7V199.2V202.2V207.2H871.34ZM881.34 207.2V202.2V199.2V183.7V180.7V174.7C881.34 173.6 882.24 172.7 883.34 172.7C884.44 172.7 885.34 173.6 885.34 174.7V180.7V183.7V199.2V202.2V207.2H881.34ZM891.34 207.2V202.2V199.2V183.7V180.7V174.7C891.34 173.6 892.24 172.7 893.34 172.7C894.44 172.7 895.34 173.6 895.34 174.7V180.7V183.7V199.2V202.2V207.2H891.34ZM901.34 207.2V202.2V199.2V183.7V180.7V174.7C901.34 173.6 902.24 172.7 903.34 172.7C904.44 172.7 905.34 173.6 905.34 174.7V180.7V183.7V199.2V202.2V207.2H901.34ZM911.34 202.2V199.2V183.7V180.7V130.6L944.14 101L976.84 130.6V143.7V207.2H911.34V202.2ZM978.84 144.7H1026.84V155.5V207.2H1026.34V204.7C1026.34 204.1 1025.94 203.7 1025.34 203.7H1024.84V200.7C1024.84 200.1 1024.44 199.7 1023.84 199.7H1022.84V174.7C1022.84 174.1 1022.44 173.7 1021.84 173.7H1006.84C1006.24 173.7 1005.84 174.1 1005.84 174.7V199.7H1004.84C1004.24 199.7 1003.84 200.1 1003.84 200.7V203.7H1003.34C1002.74 203.7 1002.34 204.1 1002.34 204.7V207.2H978.84V144.7ZM1020.84 199.7H1007.84V175.7H1020.84V199.7ZM1006.84 201.7H1021.84H1022.84V203.7H1005.84V201.7H1006.84ZM1004.34 207.2V205.7H1004.84H1023.84H1024.34V207.2H1004.34ZM1028.84 203.2H1030.84V207.2H1028.84V203.2ZM1032.84 207.2V202.2V199.2V183.7V180.7V174.7C1032.84 173.6 1033.74 172.7 1034.84 172.7C1035.94 172.7 1036.84 173.6 1036.84 174.7V180.7V183.7V199.2V202.2V207.2H1032.84ZM1042.84 207.2V202.2V199.2V183.7V180.7V174.7C1042.84 173.6 1043.74 172.7 1044.84 172.7C1045.94 172.7 1046.84 173.6 1046.84 174.7V180.7V183.7V199.2V202.2V207.2H1042.84ZM1052.84 207.2V202.2V199.2V183.7V180.7V174.7C1052.84 173.6 1053.74 172.7 1054.84 172.7C1055.94 172.7 1056.84 173.6 1056.84 174.7V180.7V183.7V199.2V202.2V207.2H1052.84ZM1062.84 207.2V202.2V199.2V183.7V180.7V174.7C1062.84 173.6 1063.74 172.7 1064.84 172.7C1065.94 172.7 1066.84 173.6 1066.84 174.7V180.7V183.7V199.2V202.2V207.2H1062.84ZM1072.84 207.2V202.2V199.2V183.7V180.7V174.7C1072.84 173.6 1073.74 172.7 1074.84 172.7C1075.94 172.7 1076.84 173.6 1076.84 174.7V180.7V183.7V199.2V202.2V207.2H1072.84ZM1082.84 207.2V202.2V199.2V183.7V180.7V174.7C1082.84 173.6 1083.74 172.7 1084.84 172.7C1085.94 172.7 1086.84 173.6 1086.84 174.7V207.2H1082.84Z" fill="#5D6174"/>
<path d="M133.141 6H243.741C244.041 6 244.341 5.8 244.541 5.6C244.741 5.3 244.741 5 244.741 4.7C242.041 -4.3 234.341 -10.9 225.141 -12.4C225.141 -12.6 225.141 -12.8 225.141 -13C225.141 -19.5 219.941 -24.7 213.441 -24.7C213.041 -24.7 212.741 -24.7 212.341 -24.6C209.241 -29.2 204.141 -32 198.441 -32C191.841 -32 185.841 -28 183.141 -22C181.041 -22.9 178.841 -23.3 176.541 -23.3C168.541 -23.3 161.641 -17.8 159.841 -10.1C157.741 -10.7 155.641 -11 153.541 -11C143.641 -11 135.041 -4.7 132.041 4.7C131.941 5 132.041 5.3 132.141 5.6C132.441 5.8 132.741 6 133.141 6ZM153.641 -9C155.941 -9 158.141 -8.6 160.341 -7.9C160.641 -7.8 160.941 -7.8 161.141 -8C161.441 -8.2 161.541 -8.4 161.641 -8.7C162.841 -16.1 169.141 -21.4 176.541 -21.4C178.841 -21.4 181.041 -20.9 183.241 -19.8C183.541 -19.7 183.741 -19.7 184.041 -19.8C184.341 -19.9 184.541 -20.1 184.641 -20.4C186.741 -26.2 192.341 -30.1 198.441 -30.1C203.541 -30.1 208.241 -27.5 210.941 -23.1C211.141 -22.8 211.541 -22.6 211.941 -22.6C212.541 -22.7 212.941 -22.7 213.441 -22.7C218.841 -22.7 223.141 -18.3 223.141 -13C223.141 -12.6 223.141 -12.2 223.041 -11.7C223.041 -11.4 223.041 -11.2 223.241 -11C223.441 -10.8 223.641 -10.7 223.941 -10.6C232.341 -9.6 239.441 -4 242.441 3.9H134.541C137.641 -3.8 145.141 -9 153.641 -9Z" fill="#5D6174"/>
<path d="M389.1 31H504.4C504.7 31 505 30.9 505.2 30.6C505.4 30.4 505.5 30 505.4 29.7C503.3 21.4 495.9 15.6 487.3 15.6C484.8 15.6 482.4 16.1 480 17.1C476.3 6.4 466.1 -1 454.7 -1C440.7 -1 429.1 10 428 23.8C424.7 22.8 421.1 22.5 417.6 22.9C415.3 17 409.7 13.1 403.3 13.1C394.8 13.1 388 20 388 28.4C388 29 388 29.6 388.1 30.2C388.1 30.7 388.6 31 389.1 31ZM403.3 15C409.1 15 414.2 18.7 416 24.3C416.2 24.8 416.6 25.1 417.1 25C421 24.4 425 24.8 428.6 26.1C428.9 26.2 429.2 26.2 429.5 26C429.8 25.8 429.9 25.5 429.9 25.2C430.2 11.9 441.3 1 454.6 1C465.5 1 475.3 8.3 478.4 18.8C478.5 19.1 478.7 19.3 479 19.4C479.3 19.5 479.6 19.5 479.8 19.4C482.1 18.2 484.6 17.6 487.2 17.6C494.4 17.6 500.7 22.2 503 28.9H390C390 28.7 390 28.5 390 28.2C390 21 396 15 403.3 15Z" fill="#5D6174"/>
<path d="M663.939 11.7H777.939C778.339 11.7 778.639 11.5 778.839 11.2C779.039 10.9 779.039 10.5 778.739 10.2C774.739 4.3 768.039 0.8 760.939 0.8C760.739 0.8 760.539 0.8 760.439 0.8C760.939 -0.4 761.139 -1.7 761.139 -3C761.139 -9 756.239 -13.8 750.339 -13.8C744.339 -13.8 739.539 -8.9 739.539 -3C739.539 -2.4 739.539 -1.8 739.639 -1.2C735.339 -3.3 730.339 -3.7 725.639 -2.4C722.939 -9.5 716.339 -14 708.939 -14C703.139 -14 697.739 -11.2 694.439 -6.5C691.739 -7.5 689.039 -8 686.139 -8C675.039 -8 665.439 -0.400001 663.039 10.4C662.939 10.7 663.039 11 663.239 11.2C663.339 11.5 663.639 11.7 663.939 11.7ZM686.139 -6C689.039 -6 691.839 -5.4 694.439 -4.4C694.839 -4.2 695.439 -4.4 695.639 -4.8C698.539 -9.3 703.539 -12.1 708.939 -12.1C715.839 -12.1 721.839 -7.7 724.039 -1.2C724.139 -0.9 724.339 -0.700001 724.539 -0.6C724.739 -0.5 725.039 -0.5 725.339 -0.5C730.539 -2.2 736.239 -1.5 740.739 1.4C741.139 1.6 741.539 1.6 741.939 1.3C742.239 1 742.339 0.5 742.239 0.1C741.739 -1 741.539 -2.2 741.539 -3.4C741.539 -8.3 745.539 -12.2 750.339 -12.2C755.239 -12.2 759.139 -8.2 759.139 -3.4C759.139 -1.8 758.739 -0.3 757.939 1C757.739 1.3 757.739 1.7 757.939 2C758.139 2.3 758.539 2.5 758.839 2.5C759.539 2.4 760.239 2.4 760.939 2.4C766.739 2.4 772.239 5 775.939 9.4H665.239C667.939 0.4 676.339 -6 686.139 -6Z" fill="#5D6174"/>
</g>
<g opacity="0.5">
<path d="M1415.24 163.2H1416.74H1431.74H1433.24C1433.84 163.2 1434.24 162.8 1434.24 162.2C1434.24 161.6 1433.84 161.2 1433.24 161.2H1432.74V141.2C1432.74 140.6 1432.34 140.2 1431.74 140.2H1416.74C1416.14 140.2 1415.74 140.6 1415.74 141.2V161.2H1415.24C1414.64 161.2 1414.24 161.6 1414.24 162.2C1414.24 162.8 1414.64 163.2 1415.24 163.2ZM1430.74 142.2V150.7H1417.74V142.2H1430.74ZM1417.74 152.7H1430.74V161.2H1417.74V152.7Z" fill="#5D6174"/>
<path d="M1457.04 163.2H1458.54H1473.54H1475.04C1475.64 163.2 1476.04 162.8 1476.04 162.2C1476.04 161.6 1475.64 161.2 1475.04 161.2H1474.54V131.2C1474.54 130.6 1474.14 130.2 1473.54 130.2H1458.54C1457.94 130.2 1457.54 130.6 1457.54 131.2V161.2H1457.04C1456.44 161.2 1456.04 161.6 1456.04 162.2C1456.04 162.8 1456.54 163.2 1457.04 163.2ZM1459.54 142.7H1472.54V150.7H1459.54V142.7ZM1472.54 132.2V140.7H1459.54V132.2H1472.54ZM1459.54 152.7H1472.54V161.2H1459.54V152.7Z" fill="#5D6174"/>
<path d="M1500.24 163.2H1501.74H1516.74H1518.24C1518.84 163.2 1519.24 162.8 1519.24 162.2C1519.24 161.6 1518.84 161.2 1518.24 161.2H1517.74V141.2C1517.74 140.6 1517.34 140.2 1516.74 140.2H1501.74C1501.14 140.2 1500.74 140.6 1500.74 141.2V161.2H1500.24C1499.64 161.2 1499.24 161.6 1499.24 162.2C1499.24 162.8 1499.64 163.2 1500.24 163.2ZM1515.74 142.2V150.7H1502.74V142.2H1515.74ZM1502.74 152.7H1515.74V161.2H1502.74V152.7Z" fill="#5D6174"/>
<path d="M1433.24 193.2H1432.74V173.2C1432.74 172.6 1432.34 172.2 1431.74 172.2H1416.74C1416.14 172.2 1415.74 172.6 1415.74 173.2V193.2H1415.24C1414.64 193.2 1414.24 193.6 1414.24 194.2C1414.24 194.8 1414.64 195.2 1415.24 195.2H1416.74H1431.74H1433.24C1433.84 195.2 1434.24 194.8 1434.24 194.2C1434.24 193.7 1433.74 193.2 1433.24 193.2ZM1430.74 174.2V182.7H1417.74V174.2H1430.74ZM1417.74 193.2V184.7H1430.74V193.2H1417.74Z" fill="#5D6174"/>
<path d="M1500.24 195.2H1501.74H1516.74H1518.24C1518.84 195.2 1519.24 194.8 1519.24 194.2C1519.24 193.6 1518.84 193.2 1518.24 193.2H1517.74V173.2C1517.74 172.6 1517.34 172.2 1516.74 172.2H1501.74C1501.14 172.2 1500.74 172.6 1500.74 173.2V193.2H1500.24C1499.64 193.2 1499.24 193.6 1499.24 194.2C1499.24 194.8 1499.64 195.2 1500.24 195.2ZM1515.74 174.2V182.7H1502.74V174.2H1515.74ZM1502.74 184.7H1515.74V193.2H1502.74V184.7Z" fill="#5D6174"/>
<path d="M1458.04 173.7H1455.04C1454.44 173.7 1454.04 174.1 1454.04 174.7V198.7C1454.04 199.3 1454.44 199.7 1455.04 199.7H1458.04C1458.64 199.7 1459.04 199.3 1459.04 198.7V174.7C1459.04 174.2 1458.64 173.7 1458.04 173.7ZM1457.04 197.7H1456.04V175.7H1457.04V197.7Z" fill="#5D6174"/>
<path d="M1471.04 173.7H1461.04C1460.44 173.7 1460.04 174.1 1460.04 174.7V190.2C1460.04 190.8 1460.44 191.2 1461.04 191.2H1471.04C1471.64 191.2 1472.04 190.8 1472.04 190.2V174.7C1472.04 174.2 1471.64 173.7 1471.04 173.7ZM1470.04 189.2H1462.04V175.7H1470.04V189.2Z" fill="#5D6174"/>
<path d="M1471.04 192.2H1461.04C1460.44 192.2 1460.04 192.6 1460.04 193.2V198.7C1460.04 199.3 1460.44 199.7 1461.04 199.7H1471.04C1471.64 199.7 1472.04 199.3 1472.04 198.7V193.2C1472.04 192.7 1471.64 192.2 1471.04 192.2ZM1470.04 197.7H1462.04V194.2H1470.04V197.7Z" fill="#5D6174"/>
<path d="M1477.04 173.7H1474.04C1473.44 173.7 1473.04 174.1 1473.04 174.7V198.7C1473.04 199.3 1473.44 199.7 1474.04 199.7H1477.04C1477.64 199.7 1478.04 199.3 1478.04 198.7V174.7C1478.04 174.2 1477.64 173.7 1477.04 173.7ZM1476.04 197.7H1475.04V175.7H1476.04V197.7Z" fill="#5D6174"/>
<path d="M1146.74 149.7H1169.24C1169.84 149.7 1170.24 149.3 1170.24 148.7V126.2C1170.24 125.6 1169.84 125.2 1169.24 125.2H1146.74C1146.14 125.2 1145.74 125.6 1145.74 126.2V148.7C1145.74 149.3 1146.24 149.7 1146.74 149.7ZM1147.74 127.2H1168.24V147.7H1147.74V127.2Z" fill="#5D6174"/>
<path d="M1146.74 196.7H1161.74C1162.34 196.7 1162.74 196.3 1162.74 195.7V173.2C1162.74 172.6 1162.34 172.2 1161.74 172.2H1146.74C1146.14 172.2 1145.74 172.6 1145.74 173.2V195.7C1145.74 196.3 1146.24 196.7 1146.74 196.7ZM1147.74 174.2H1160.74V194.7H1147.74V174.2Z" fill="#5D6174"/>
<path d="M1229.24 149.7H1251.74C1252.34 149.7 1252.74 149.3 1252.74 148.7V126.2C1252.74 125.6 1252.34 125.2 1251.74 125.2H1229.24C1228.64 125.2 1228.24 125.6 1228.24 126.2V148.7C1228.24 149.3 1228.74 149.7 1229.24 149.7ZM1230.24 127.2H1250.74V147.7H1230.24V127.2Z" fill="#5D6174"/>
<path d="M1235.74 173.2V195.7C1235.74 196.3 1236.14 196.7 1236.74 196.7H1251.74C1252.34 196.7 1252.74 196.3 1252.74 195.7V173.2C1252.74 172.6 1252.34 172.2 1251.74 172.2H1236.74C1236.24 172.2 1235.74 172.7 1235.74 173.2ZM1237.74 174.2H1250.74V194.7H1237.74V174.2Z" fill="#5D6174"/>
<path d="M1193.54 138.8H1205.04C1205.64 138.8 1206.04 138.4 1206.04 137.8V126.3C1206.04 125.7 1205.64 125.3 1205.04 125.3H1193.54C1192.94 125.3 1192.54 125.7 1192.54 126.3V137.8C1192.54 138.3 1192.94 138.8 1193.54 138.8ZM1194.54 127.3H1204.04V136.8H1194.54V127.3Z" fill="#5D6174"/>
<path d="M1204.74 178.2H1193.74C1193.14 178.2 1192.74 178.6 1192.74 179.2V200.7C1192.74 201.3 1193.14 201.7 1193.74 201.7H1204.74C1205.34 201.7 1205.74 201.3 1205.74 200.7V179.2C1205.74 178.7 1205.34 178.2 1204.74 178.2ZM1203.74 199.7H1194.74V180.2H1203.74V199.7Z" fill="#5D6174"/>
<path d="M1291.74 158.7C1289.84 158.7 1288.24 160.3 1288.24 162.2C1288.24 164.1 1289.84 165.7 1291.74 165.7C1293.64 165.7 1295.24 164.1 1295.24 162.2C1295.24 160.3 1293.64 158.7 1291.74 158.7ZM1291.74 163.7C1290.94 163.7 1290.24 163 1290.24 162.2C1290.24 161.4 1290.94 160.7 1291.74 160.7C1292.54 160.7 1293.24 161.4 1293.24 162.2C1293.24 163 1292.54 163.7 1291.74 163.7Z" fill="#5D6174"/>
<path d="M2270.14 208.2C2270.14 207.6 2269.74 207.2 2269.14 207.2H2254.84V174.7V164C2254.84 151 2244.34 140.5 2231.34 140.5C2223.14 140.5 2215.54 144.8 2211.34 151.7C2209.34 151 2207.24 150.7 2205.14 150.7C2201.44 150.7 2197.94 151.7 2194.84 153.6V144.7H2197.84C2198.44 144.7 2198.84 144.3 2198.84 143.7V104.8C2198.84 104.2 2198.44 103.8 2197.84 103.8H2122.84L2110.84 92.9C2110.44 92.6 2109.84 92.6 2109.54 92.9L2069.54 129.1C2069.34 129.3 2069.24 129.6 2069.24 129.9C2069.24 130.2 2069.34 130.5 2069.64 130.7L2073.14 133.5C2073.34 133.6 2073.54 133.7 2073.74 133.7C2073.94 133.7 2074.24 133.6 2074.44 133.4L2075.54 132.4V144.2C2073.84 143.2 2071.94 142.7 2069.94 142.7C2067.24 142.7 2064.74 143.7 2062.74 145.4C2060.14 139.7 2054.54 136 2048.14 136C2039.64 136 2032.74 142.6 2032.14 151C2031.14 150.8 2030.04 150.6 2028.94 150.6C2021.54 150.6 2015.44 156.7 2015.44 164.1V174.7V207.2H1986.44V171.2H1993.44C1993.54 171.2 1993.64 171.2 1993.84 171.1C1993.94 171.1 1993.94 171 1994.04 171C1994.04 171 1994.14 171 1994.14 170.9C1994.14 170.9 1994.24 170.8 1994.24 170.7C1994.24 170.6 1994.34 170.6 1994.34 170.5C1994.34 170.5 1994.34 170.4 1994.34 170.3C1994.34 170.2 1994.34 170.1 1994.34 170.1C1994.34 170 1994.34 170 1994.34 169.9C1994.34 169.8 1994.34 169.8 1994.34 169.7L1978.34 127.7C1978.24 127.3 1977.84 127.1 1977.44 127.1H1964.44V122.1H1965.44C1966.04 122.1 1966.44 121.7 1966.44 121.1V118.1C1966.44 117.5 1966.04 117.1 1965.44 117.1H1951.44C1950.84 117.1 1950.44 117.5 1950.44 118.1V121.1C1950.44 121.7 1950.84 122.1 1951.44 122.1H1952.44V127.1H1883.44V122.1H1884.44C1885.04 122.1 1885.44 121.7 1885.44 121.1V118.1C1885.44 117.5 1885.04 117.1 1884.44 117.1H1870.44C1869.84 117.1 1869.44 117.5 1869.44 118.1V121.1C1869.44 121.7 1869.84 122.1 1870.44 122.1H1871.44V127.1H1864.14C1862.84 125.1 1861.14 123.3 1859.24 121.8C1860.74 119.5 1861.44 117 1861.44 114.3C1861.44 106.6 1855.24 100.4 1847.54 100.4C1844.04 100.4 1840.54 101.8 1838.04 104.2C1834.24 99.7 1828.74 97.2 1822.84 97.2C1811.84 97.2 1802.84 106.2 1802.84 117.2C1802.84 123.8 1806.14 130 1811.54 133.7C1811.54 133.8 1811.54 133.9 1811.54 134.1C1811.54 140.9 1817.04 146.5 1823.94 146.5C1824.04 146.5 1824.24 146.5 1824.34 146.5C1825.64 150.5 1828.14 154.1 1831.44 156.7C1829.54 164.9 1827.94 174.1 1826.84 184.1C1823.64 176 1820.94 172.2 1819.84 170.9C1820.84 168.7 1821.34 166.4 1821.34 164C1821.34 155 1814.14 147.5 1805.14 147.1C1802.74 143.6 1798.84 141.6 1794.64 141.6C1787.64 141.6 1781.84 147.3 1781.84 154.4C1781.84 158.7 1783.94 162.6 1787.44 165C1787.94 173.9 1795.34 181 1804.34 181C1808.94 181 1813.34 179.1 1816.54 175.8C1818.74 179.2 1825.14 190.7 1825.14 204.1C1825.04 205.5 1825.04 206.6 1825.04 207.3H1775.54V171.9L1779.64 173.8C1779.74 173.9 1779.94 173.9 1780.04 173.9C1780.34 173.9 1780.54 173.8 1780.74 173.6L1783.84 170.5C1784.04 170.3 1784.14 169.9 1784.14 169.6C1784.04 169.3 1783.84 169 1783.54 168.9L1740.24 149C1739.94 148.9 1739.64 148.9 1739.44 149L1728.14 154.2V120.1L1736.24 123.8C1736.34 123.9 1736.54 123.9 1736.64 123.9C1736.94 123.9 1737.14 123.8 1737.34 123.6L1740.44 120.5C1740.64 120.3 1740.74 119.9 1740.74 119.6C1740.64 119.3 1740.44 119 1740.14 118.9L1678.54 90.5C1678.24 90.4 1677.94 90.4 1677.74 90.5L1652.44 102V91.3H1652.94C1653.54 91.3 1653.94 90.9 1653.94 90.3V86.3C1653.94 85.7 1653.54 85.3 1652.94 85.3H1634.94C1634.34 85.3 1633.94 85.7 1633.94 86.3V90.3C1633.94 90.9 1634.34 91.3 1634.94 91.3H1635.44V109.8L1616.14 118.7C1615.84 118.8 1615.64 119.1 1615.54 119.4C1615.44 119.7 1615.54 120.1 1615.84 120.3L1618.94 123.4C1619.24 123.7 1619.64 123.8 1620.04 123.6L1627.24 120.3V153.6L1622.24 170C1622.14 170.3 1622.24 170.6 1622.44 170.9C1622.64 171.2 1622.94 171.3 1623.24 171.3H1627.24V207.3H1605.94V192.3H1616.94C1617.34 192.3 1617.64 192.1 1617.84 191.8C1618.04 191.5 1618.04 191.1 1617.84 190.8L1609.14 176.3H1612.74C1613.14 176.3 1613.44 176.1 1613.64 175.8C1613.84 175.5 1613.84 175.1 1613.64 174.8L1605.74 161.6H1608.04C1608.34 161.6 1608.74 161.4 1608.94 161.1C1609.14 160.8 1609.14 160.4 1608.94 160.1L1602.94 148.1C1602.64 147.4 1601.44 147.4 1601.14 148.1L1595.14 160.1C1594.94 160.4 1595.04 160.8 1595.14 161.1C1595.34 161.4 1595.64 161.6 1596.04 161.6H1598.34L1590.44 174.8C1590.24 175.1 1590.24 175.5 1590.44 175.8C1590.64 176.1 1590.94 176.3 1591.34 176.3H1594.94L1586.24 190.8C1586.04 191.1 1586.04 191.5 1586.24 191.8C1586.44 192.1 1586.74 192.3 1587.14 192.3H1598.14V207.3H1581.44V173.3C1581.44 172.7 1581.04 172.3 1580.44 172.3H1576.84C1578.04 169 1578.04 165.5 1576.64 162.3C1575.24 159 1572.64 156.4 1569.34 155C1565.24 153.3 1560.54 153.8 1556.84 156.2C1554.64 153.1 1551.64 150.7 1548.14 149.3C1542.74 147.1 1536.54 147.4 1531.44 150.1V132.2H1534.44C1535.04 132.2 1535.44 131.8 1535.44 131.2V127.2C1535.44 126.6 1535.04 126.2 1534.44 126.2L1499.84 103.6C1499.64 103.5 1499.44 103.4 1499.34 103.4H1473.94L1467.44 98.6C1467.04 98.3 1466.64 98.3 1466.24 98.6L1459.74 103.4H1434.34C1434.14 103.4 1433.94 103.5 1433.84 103.6L1398.94 126.4C1398.94 126.4 1398.94 126.4 1398.84 126.5C1398.74 126.5 1398.74 126.6 1398.74 126.6C1398.74 126.6 1398.64 126.7 1398.64 126.8C1398.64 126.9 1398.54 126.9 1398.54 127C1398.54 127.1 1398.54 127.1 1398.54 127.2V127.3V131.3C1398.54 131.9 1398.94 132.3 1399.54 132.3H1402.54V150.2C1399.04 147.2 1394.44 145.5 1389.74 145.5C1380.34 145.5 1372.44 151.9 1370.44 161C1369.64 160.8 1368.74 160.8 1367.94 160.8C1361.24 160.8 1355.54 165.8 1354.64 172.3H1353.54C1352.94 172.3 1352.54 172.7 1352.54 173.3V207.3H1328.04V167.8L1331.24 169.2C1331.34 169.3 1331.54 169.3 1331.64 169.3C1331.74 169.3 1331.94 169.3 1332.04 169.2C1332.24 169.1 1332.44 168.9 1332.54 168.7L1334.74 163.6C1334.94 163.1 1334.74 162.5 1334.24 162.3L1321.04 156.6V143.7C1323.04 145.5 1325.64 146.6 1328.34 146.6C1334.24 146.6 1339.04 141.8 1339.04 135.9C1339.04 135 1338.94 134 1338.64 133.1C1343.44 131.6 1346.84 127 1346.84 121.9C1346.84 118 1344.94 114.4 1341.74 112.2C1344.34 109.2 1345.74 105.5 1345.74 101.5C1345.74 92.5 1338.44 85.2 1329.44 85.2C1325.44 85.2 1321.64 86.6 1318.64 89.3C1315.04 88.4 1311.14 88.4 1307.54 89C1306.04 85.5 1302.54 83.2 1298.74 83.2C1293.44 83.2 1289.14 87.5 1289.14 92.8C1289.14 95.1 1289.94 97.2 1291.34 99C1289.14 101.9 1287.54 105.3 1286.64 108.8C1279.54 110.8 1274.74 117.1 1274.74 124.5C1274.74 133.5 1282.04 140.8 1291.04 140.8C1294.14 140.8 1297.04 140 1299.64 138.3C1302.54 139.9 1305.74 140.9 1309.04 141.4V151.3L1292.44 144.2C1292.14 144.1 1291.94 144.1 1291.64 144.2L1268.04 154.3V117.1H1274.04C1274.44 117.1 1274.74 116.9 1274.94 116.6C1275.14 116.3 1275.14 115.9 1274.94 115.6L1258.94 89.6C1258.74 89.3 1258.44 89.1 1258.04 89.1H1247.04V79.6H1248.04C1248.64 79.6 1249.04 79.2 1249.04 78.6V74.6C1249.04 74 1248.64 73.6 1248.04 73.6H1229.04C1228.44 73.6 1228.04 74 1228.04 74.6V78.6C1228.04 79.2 1228.44 79.6 1229.04 79.6H1230.04V89.1H1141.04C1140.74 89.1 1140.34 89.3 1140.14 89.6L1124.14 115.6C1123.94 115.9 1123.94 116.3 1124.14 116.6C1124.34 116.9 1124.64 117.1 1125.04 117.1H1131.04V190C1130.84 190 1130.64 190 1130.44 190C1127.14 190 1124.14 191.2 1121.74 193.3C1119.44 191.6 1116.64 190.6 1113.74 190.6C1106.44 190.6 1100.54 196.5 1100.54 203.8C1100.54 204.9 1100.64 206 1100.94 207.1H1097.14C1096.54 207.1 1096.14 207.5 1096.14 208.1C1096.14 208.7 1096.54 209.1 1097.14 209.1H1102.14H1131.74H1141.04H1174.24H1190.24H1208.24H1224.24H1256.74H1266.74H1316.74H1326.74H1353.24H1358.24H1363.24H1368.24H1373.24H1378.24H1383.24H1388.24H1393.24H1398.24H1403.24H1447.64H1484.64H1530.24H1535.24H1540.24H1545.24H1550.24H1555.24H1560.24H1565.24H1570.24H1575.24H1580.24H1598.94H1604.94H1628.24H1643.24H1657.74H1705.24H1715.04H1765.04H1774.84H1826.14H1830.64H1850.24H1892.74H1910.24H1925.24H1942.74H1985.24H2016.24H2022.24H2026.24H2032.24H2036.24H2042.24H2046.24H2052.24H2056.24H2062.24H2066.24H2072.24H2076.24H2143.74H2169.24H2191.24H2193.74H2197.74H2203.74H2207.74H2213.74H2217.74H2223.74H2227.74H2233.74H2237.74H2243.74H2247.74H2253.74H2269.04C2269.64 209.2 2270.14 208.8 2270.14 208.2ZM2205.14 152.7C2207.34 152.7 2209.44 153.1 2211.44 153.9C2211.94 154.1 2212.44 153.9 2212.64 153.5C2216.44 146.8 2223.64 142.6 2231.34 142.6C2243.24 142.6 2252.84 152.2 2252.84 164.1V171.3C2252.24 171 2251.54 170.7 2250.84 170.7C2248.64 170.7 2246.84 172.5 2246.84 174.7V179.7H2244.84V174.7C2244.84 172.5 2243.04 170.7 2240.84 170.7C2238.64 170.7 2236.84 172.5 2236.84 174.7V179.7H2234.84V174.7C2234.84 172.5 2233.04 170.7 2230.84 170.7C2228.64 170.7 2226.84 172.5 2226.84 174.7V179.7H2224.84V174.7C2224.84 172.5 2223.04 170.7 2220.84 170.7C2218.64 170.7 2216.84 172.5 2216.84 174.7V179.7H2214.84V174.7C2214.84 172.5 2213.04 170.7 2210.84 170.7C2208.64 170.7 2206.84 172.5 2206.84 174.7V179.7H2204.84V174.7C2204.84 172.5 2203.04 170.7 2200.84 170.7C2198.64 170.7 2196.84 172.5 2196.84 174.7V179.7H2194.84V156C2197.84 153.9 2201.34 152.7 2205.14 152.7ZM2244.84 200.2H2246.84V201.2H2244.84V200.2ZM2246.84 198.2H2244.84V184.7H2246.84V198.2ZM2246.84 182.7H2244.84V181.7H2246.84V182.7ZM2244.84 203.2H2246.84V207.2H2244.84V203.2ZM2234.84 200.2H2236.84V201.2H2234.84V200.2ZM2236.84 198.2H2234.84V184.7H2236.84V198.2ZM2236.84 182.7H2234.84V181.7H2236.84V182.7ZM2234.84 203.2H2236.84V207.2H2234.84V203.2ZM2224.84 200.2H2226.84V201.2H2224.84V200.2ZM2226.84 198.2H2224.84V184.7H2226.84V198.2ZM2226.84 182.7H2224.84V181.7H2226.84V182.7ZM2224.84 203.2H2226.84V207.2H2224.84V203.2ZM2214.84 200.2H2216.84V201.2H2214.84V200.2ZM2216.84 198.2H2214.84V184.7H2216.84V198.2ZM2216.84 182.7H2214.84V181.7H2216.84V182.7ZM2214.84 203.2H2216.84V207.2H2214.84V203.2ZM2204.84 200.2H2206.84V201.2H2204.84V200.2ZM2206.84 198.2H2204.84V184.7H2206.84V198.2ZM2206.84 182.7H2204.84V181.7H2206.84V182.7ZM2204.84 203.2H2206.84V207.2H2204.84V203.2ZM2196.84 182.7H2194.84V181.7H2196.84V182.7ZM2194.84 184.7H2196.84V198.2H2194.84V184.7ZM2194.84 200.2H2196.84V201.2H2194.84V200.2ZM2193.84 142.7H2144.84V140.8L2145.84 141.6C2146.24 141.9 2146.74 141.9 2147.14 141.6L2150.14 139.1L2153.14 141.6C2153.54 141.9 2154.04 141.9 2154.44 141.6L2157.44 139.1L2160.44 141.6C2160.84 141.9 2161.34 141.9 2161.74 141.6L2164.74 139.1L2167.74 141.6C2168.14 141.9 2168.64 141.9 2169.04 141.6L2172.04 139.1L2175.04 141.6C2175.44 141.9 2175.94 141.9 2176.34 141.6L2179.34 139.1L2182.34 141.6C2182.74 141.9 2183.24 141.9 2183.64 141.6L2186.64 139.1L2189.64 141.6C2190.04 141.9 2190.54 141.9 2190.94 141.6L2193.94 139.1L2196.64 141.3V142.7H2193.84ZM2145.34 132.9C2145.74 133.2 2146.24 133.2 2146.64 132.9L2150.14 130.1C2150.34 129.9 2150.44 129.7 2150.54 129.4L2153.14 131.6C2153.54 131.9 2154.04 131.9 2154.44 131.6L2157.44 129.1L2160.44 131.6C2160.84 131.9 2161.34 131.9 2161.74 131.6L2164.74 129.1L2167.74 131.6C2168.14 131.9 2168.64 131.9 2169.04 131.6L2172.04 129.1L2175.04 131.6C2175.44 131.9 2175.94 131.9 2176.34 131.6L2179.34 129.1L2182.34 131.6C2182.74 131.9 2183.24 131.9 2183.64 131.6L2186.64 129.1L2189.64 131.6C2190.04 131.9 2190.54 131.9 2190.94 131.6L2193.94 129.1L2196.64 131.3V133.7L2194.64 132C2194.24 131.7 2193.74 131.7 2193.34 132L2190.34 134.5L2187.34 132C2186.94 131.7 2186.44 131.7 2186.04 132L2183.04 134.5L2180.04 132C2179.64 131.7 2179.14 131.7 2178.74 132L2175.74 134.5L2172.74 132C2172.34 131.7 2171.84 131.7 2171.44 132L2168.44 134.5L2165.44 132C2165.04 131.7 2164.54 131.7 2164.14 132L2161.14 134.5L2158.14 132C2157.74 131.7 2157.24 131.7 2156.84 132L2153.84 134.5L2150.84 132C2150.44 131.7 2149.94 131.7 2149.54 132L2146.54 134.5L2144.94 133.2V132.4L2145.34 132.9ZM2144.84 135.8L2145.84 136.6C2146.24 136.9 2146.74 136.9 2147.14 136.6L2150.14 134.1L2153.14 136.6C2153.54 136.9 2154.04 136.9 2154.44 136.6L2157.44 134.1L2160.44 136.6C2160.84 136.9 2161.34 136.9 2161.74 136.6L2164.74 134.1L2167.74 136.6C2168.14 136.9 2168.64 136.9 2169.04 136.6L2172.04 134.1L2175.04 136.6C2175.44 136.9 2175.94 136.9 2176.34 136.6L2179.34 134.1L2182.34 136.6C2182.74 136.9 2183.24 136.9 2183.64 136.6L2186.64 134.1L2189.64 136.6C2190.04 136.9 2190.54 136.9 2190.94 136.6L2193.94 134.1L2196.64 136.3V138.7L2194.64 137C2194.24 136.7 2193.74 136.7 2193.34 137L2190.34 139.5L2187.34 137C2186.94 136.7 2186.44 136.7 2186.04 137L2183.04 139.5L2180.04 137C2179.64 136.7 2179.14 136.7 2178.74 137L2175.74 139.5L2172.74 137C2172.34 136.7 2171.84 136.7 2171.44 137L2168.44 139.5L2165.44 137C2165.04 136.7 2164.54 136.7 2164.14 137L2161.14 139.5L2158.14 137C2157.74 136.7 2157.24 136.7 2156.84 137L2153.84 139.5L2150.84 137C2150.44 136.7 2149.94 136.7 2149.54 137L2146.54 139.5L2144.94 138.2V135.8H2144.84ZM2196.84 113.8L2194.84 112.1C2194.44 111.8 2193.94 111.8 2193.54 112.1L2190.54 114.6L2187.54 112.1C2187.14 111.8 2186.64 111.8 2186.24 112.1L2183.24 114.6L2180.24 112.1C2179.84 111.8 2179.34 111.8 2178.94 112.1L2175.94 114.6L2172.94 112.1C2172.54 111.8 2172.04 111.8 2171.64 112.1L2168.64 114.6L2165.64 112.1C2165.24 111.8 2164.74 111.8 2164.34 112.1L2161.34 114.6L2158.34 112.1C2157.94 111.8 2157.44 111.8 2157.04 112.1L2154.04 114.6L2151.04 112.1C2150.64 111.8 2150.14 111.8 2149.74 112.1L2146.74 114.6L2143.84 112.1C2143.44 111.8 2142.84 111.8 2142.54 112.1L2139.94 114.5L2136.84 112C2136.44 111.7 2135.94 111.7 2135.64 112L2133.84 113.4L2129.14 109.2L2129.54 109L2132.64 111.6C2133.04 111.9 2133.64 111.9 2133.94 111.5L2136.24 109.3L2138.94 111.7C2139.34 112 2139.84 112 2140.24 111.7L2143.14 109.2L2146.14 111.7C2146.54 112 2147.04 112 2147.44 111.7L2150.44 109.2L2153.44 111.7C2153.84 112 2154.34 112 2154.74 111.7L2157.74 109.2L2160.74 111.7C2161.14 112 2161.64 112 2162.04 111.7L2165.04 109.2L2168.04 111.7C2168.44 112 2168.94 112 2169.34 111.7L2172.34 109.2L2175.34 111.7C2175.74 112 2176.24 112 2176.64 111.7L2179.64 109.2L2182.64 111.7C2183.04 112 2183.54 112 2183.94 111.7L2186.94 109.2L2189.94 111.7C2190.34 112 2190.84 112 2191.24 111.7L2194.24 109.2L2196.94 111.4V113.8H2196.84ZM2135.84 114.1L2139.04 116.6C2139.44 116.9 2139.94 116.9 2140.34 116.6L2142.94 114.2L2145.84 116.6C2146.24 116.9 2146.74 116.9 2147.14 116.6L2150.14 114.1L2153.14 116.6C2153.54 116.9 2154.04 116.9 2154.44 116.6L2157.44 114.1L2160.44 116.6C2160.84 116.9 2161.34 116.9 2161.74 116.6L2164.74 114.1L2167.74 116.6C2168.14 116.9 2168.64 116.9 2169.04 116.6L2172.04 114.1L2175.04 116.6C2175.44 116.9 2175.94 116.9 2176.34 116.6L2179.34 114.1L2182.34 116.6C2182.74 116.9 2183.24 116.9 2183.64 116.6L2186.64 114.1L2189.64 116.6C2190.04 116.9 2190.54 116.9 2190.94 116.6L2193.94 114.1L2196.64 116.3V118.7L2194.64 117C2194.24 116.7 2193.74 116.7 2193.34 117L2190.34 119.5L2187.34 117C2186.94 116.7 2186.44 116.7 2186.04 117L2183.04 119.5L2180.04 117C2179.64 116.7 2179.14 116.7 2178.74 117L2175.74 119.5L2172.74 117C2172.34 116.7 2171.84 116.7 2171.44 117L2168.44 119.5L2165.44 117C2165.04 116.7 2164.54 116.7 2164.14 117L2161.14 119.5L2158.14 117C2157.74 116.7 2157.24 116.7 2156.84 117L2153.84 119.5L2150.84 117C2150.44 116.7 2149.94 116.7 2149.54 117L2146.54 119.5L2143.54 117C2143.14 116.7 2142.64 116.7 2142.24 117L2139.74 119L2134.94 114.7L2135.84 114.1ZM2142.74 119.2L2145.74 121.7C2146.14 122 2146.64 122 2147.04 121.7L2150.04 119.2L2153.04 121.7C2153.44 122 2153.94 122 2154.34 121.7L2157.34 119.2L2160.34 121.7C2160.74 122 2161.24 122 2161.64 121.7L2164.64 119.2L2167.64 121.7C2168.04 122 2168.54 122 2168.94 121.7L2171.94 119.2L2174.94 121.7C2175.34 122 2175.84 122 2176.24 121.7L2179.24 119.2L2182.24 121.7C2182.64 122 2183.14 122 2183.54 121.7L2186.54 119.2L2189.54 121.7C2189.94 122 2190.44 122 2190.84 121.7L2193.84 119.2L2196.54 121.4V123.8L2194.54 122.1C2194.14 121.8 2193.64 121.8 2193.24 122.1L2190.24 124.6L2187.24 122.1C2186.84 121.8 2186.34 121.8 2185.94 122.1L2182.94 124.6L2179.94 122.1C2179.54 121.8 2179.04 121.8 2178.64 122.1L2175.64 124.6L2172.64 122.1C2172.24 121.8 2171.74 121.8 2171.34 122.1L2168.34 124.6L2165.34 122.1C2164.94 121.8 2164.44 121.8 2164.04 122.1L2161.04 124.6L2158.04 122.1C2157.64 121.8 2157.14 121.8 2156.74 122.1L2153.74 124.6L2150.74 122.1C2150.34 121.8 2149.84 121.8 2149.44 122.1L2146.04 124.9L2141.14 120.5L2142.74 119.2ZM2150.14 124.2L2153.14 126.7C2153.54 127 2154.04 127 2154.44 126.7L2157.44 124.2L2160.44 126.7C2160.84 127 2161.34 127 2161.74 126.7L2164.74 124.2L2167.74 126.7C2168.14 127 2168.64 127 2169.04 126.7L2172.04 124.2L2175.04 126.7C2175.44 127 2175.94 127 2176.34 126.7L2179.34 124.2L2182.34 126.7C2182.74 127 2183.24 127 2183.64 126.7L2186.64 124.2L2189.64 126.7C2190.04 127 2190.54 127 2190.94 126.7L2193.94 124.2L2196.64 126.4V128.8L2194.64 127.1C2194.24 126.8 2193.74 126.8 2193.34 127.1L2190.34 129.6L2187.34 127.1C2186.94 126.8 2186.44 126.8 2186.04 127.1L2183.04 129.6L2180.04 127.1C2179.64 126.8 2179.14 126.8 2178.74 127.1L2175.74 129.6L2172.74 127.1C2172.34 126.8 2171.84 126.8 2171.44 127.1L2168.44 129.6L2165.44 127.1C2165.04 126.8 2164.54 126.8 2164.14 127.1L2161.14 129.6L2158.14 127.1C2157.74 126.8 2157.24 126.8 2156.84 127.1L2153.84 129.6L2150.84 127.1C2150.44 126.8 2149.94 126.8 2149.54 127.1L2149.04 127.5L2147.64 126.2L2150.14 124.2ZM2196.84 105.9V108.8L2194.84 107.1C2194.44 106.8 2193.94 106.8 2193.54 107.1L2190.54 109.6L2187.54 107.1C2187.14 106.8 2186.64 106.8 2186.24 107.1L2183.24 109.6L2180.24 107.1C2179.84 106.8 2179.34 106.8 2178.94 107.1L2175.94 109.6L2172.94 107.1C2172.54 106.8 2172.04 106.8 2171.64 107.1L2168.64 109.6L2165.64 107.1C2165.24 106.8 2164.74 106.8 2164.34 107.1L2161.34 109.6L2158.34 107.1C2157.94 106.8 2157.44 106.8 2157.04 107.1L2154.04 109.6L2151.04 107.1C2150.64 106.8 2150.14 106.8 2149.74 107.1L2146.74 109.6L2143.74 107.1C2143.34 106.8 2142.84 106.8 2142.44 107.1L2139.54 109.5L2136.84 107.1C2136.44 106.8 2135.84 106.8 2135.44 107.1L2133.14 109.4L2130.14 107C2129.84 106.7 2129.34 106.7 2129.04 106.9L2127.44 107.8L2125.34 105.9H2196.84ZM2073.54 131.4L2071.64 129.9L2110.14 95.1L2148.04 129.3L2146.14 130.8L2144.64 129.4L2110.94 98.9C2110.54 98.6 2109.94 98.6 2109.64 98.9L2075.84 129.4L2073.54 131.4ZM2073.34 200.2H2075.34V201.2H2073.34V200.2ZM2075.34 198.2H2073.34V184.7H2075.34V198.2ZM2075.34 182.7H2073.34V181.7H2075.34V182.7ZM2073.34 203.2H2075.34V207.2H2073.34V203.2ZM2028.84 152.6C2030.14 152.6 2031.44 152.8 2032.64 153.2C2032.94 153.3 2033.34 153.3 2033.54 153.1C2033.84 152.9 2033.94 152.6 2033.94 152.3V152C2033.94 144.3 2040.24 138 2047.94 138C2053.94 138 2059.24 141.8 2061.14 147.5C2061.24 147.8 2061.54 148.1 2061.94 148.2C2062.34 148.3 2062.64 148.1 2062.84 147.9C2064.54 145.9 2067.04 144.8 2069.64 144.8C2071.74 144.8 2073.64 145.5 2075.24 146.8V179.8H2073.24V174.8C2073.24 172.6 2071.44 170.8 2069.24 170.8C2067.04 170.8 2065.24 172.6 2065.24 174.8V179.8H2063.24V174.8C2063.24 172.6 2061.44 170.8 2059.24 170.8C2057.04 170.8 2055.24 172.6 2055.24 174.8V179.8H2053.24V174.8C2053.24 172.6 2051.44 170.8 2049.24 170.8C2047.04 170.8 2045.24 172.6 2045.24 174.8V179.8H2043.24V174.8C2043.24 172.6 2041.44 170.8 2039.24 170.8C2037.04 170.8 2035.24 172.6 2035.24 174.8V179.8H2033.24V174.8C2033.24 172.6 2031.44 170.8 2029.24 170.8C2027.04 170.8 2025.24 172.6 2025.24 174.8V179.8H2023.24V174.8C2023.24 172.6 2021.44 170.8 2019.24 170.8C2018.54 170.8 2017.84 171 2017.24 171.4V164.3C2017.34 157.8 2022.54 152.6 2028.84 152.6ZM2063.34 200.2H2065.34V201.2H2063.34V200.2ZM2065.34 198.2H2063.34V184.7H2065.34V198.2ZM2065.34 182.7H2063.34V181.7H2065.34V182.7ZM2063.34 203.2H2065.34V207.2H2063.34V203.2ZM2053.34 200.2H2055.34V201.2H2053.34V200.2ZM2055.34 198.2H2053.34V184.7H2055.34V198.2ZM2055.34 182.7H2053.34V181.7H2055.34V182.7ZM2053.34 203.2H2055.34V207.2H2053.34V203.2ZM2043.34 200.2H2045.34V201.2H2043.34V200.2ZM2045.34 198.2H2043.34V184.7H2045.34V198.2ZM2045.34 182.7H2043.34V181.7H2045.34V182.7ZM2043.34 203.2H2045.34V207.2H2043.34V203.2ZM2033.34 200.2H2035.34V201.2H2033.34V200.2ZM2035.34 198.2H2033.34V184.7H2035.34V198.2ZM2035.34 182.7H2033.34V181.7H2035.34V182.7ZM2033.34 203.2H2035.34V207.2H2033.34V203.2ZM2023.34 200.2H2025.34V201.2H2023.34V200.2ZM2025.34 198.2H2023.34V184.7H2025.34V198.2ZM2025.34 182.7H2023.34V181.7H2025.34V182.7ZM2023.34 203.2H2025.34V207.2H2023.34V203.2ZM1991.84 169.2H1955.34L1918.24 148.4C1917.94 148.2 1917.54 148.2 1917.24 148.4L1880.24 169.1H1843.64L1846.84 160.8L1858.94 129.1H1863.44H1872.24H1882.24H1953.24H1963.24H1976.54L1991.84 169.2ZM1925.24 180.2H1910.24C1909.64 180.2 1909.24 180.6 1909.24 181.2V207.2H1893.74V170.8L1917.74 157.3L1941.74 170.7V207.1H1926.24V181.1C1926.24 180.7 1925.84 180.2 1925.24 180.2ZM1918.24 155.3C1917.94 155.1 1917.54 155.1 1917.24 155.3L1916.74 155.6L1892.24 169.3L1892.14 169.4L1883.74 174.1L1881.74 170.6L1917.64 150.5L1953.64 170.6L1951.64 174.1L1918.24 155.3ZM1836.24 159.6C1838.84 160.8 1841.64 161.5 1844.54 161.6L1841.34 169.9C1841.34 170 1841.34 170 1841.34 170.1C1841.34 170.2 1841.34 170.2 1841.34 170.3C1841.34 170.4 1841.34 170.5 1841.34 170.5V170.6C1841.34 170.7 1841.44 170.7 1841.44 170.8C1841.44 170.9 1841.54 170.9 1841.54 171L1841.64 171.1C1841.74 171.1 1841.74 171.2 1841.84 171.2C1841.94 171.2 1842.04 171.3 1842.24 171.3H1849.24V207.3H1831.64C1831.54 202.5 1831.24 180.9 1836.24 159.6ZM1952.24 119.2H1964.24V120.2H1963.24H1953.24H1952.24V119.2ZM1954.24 122.2H1962.24V127.2H1954.24V122.2ZM1871.24 119.2H1883.24V120.2H1882.24H1872.24H1871.24V119.2ZM1873.24 122.2H1881.24V127.2H1873.24V122.2ZM1739.94 150.8L1781.54 169.9L1779.94 171.5L1775.14 169.3L1740.34 153.3C1740.04 153.2 1739.74 153.2 1739.54 153.3L1704.84 169.3L1700.04 171.5L1698.44 169.9L1739.94 150.8ZM1635.94 87.3H1651.94V89.3H1651.44H1636.44H1635.94V87.3ZM1637.44 91.3H1650.44V102.9L1637.44 108.9V91.3ZM1619.84 121.5L1618.24 119.9L1678.14 92.3L1738.04 119.9L1736.44 121.5L1678.54 94.8C1678.44 94.7 1678.24 94.7 1678.14 94.7C1678.04 94.7 1677.84 94.7 1677.74 94.8L1627.94 117.7C1627.84 117.7 1627.74 117.8 1627.74 117.8L1619.84 121.5ZM1678.14 96.8L1726.14 118.9V152.7H1629.14V119.4L1678.14 96.8ZM1628.94 154.7H1726.24V154.9L1696.24 168.7C1696.04 168.8 1695.84 169 1695.74 169.2H1624.54L1628.94 154.7ZM1547.14 151.1C1550.64 152.5 1553.44 154.9 1555.44 158.1C1555.64 158.3 1555.84 158.5 1556.14 158.6C1556.44 158.7 1556.74 158.6 1556.94 158.4C1560.14 155.9 1564.54 155.3 1568.34 156.8C1571.14 158 1573.44 160.2 1574.64 163C1575.84 165.8 1575.84 169 1574.64 171.8C1574.54 172 1574.54 172.1 1574.44 172.3H1570.24H1565.24H1560.24H1555.24H1550.24H1545.24H1540.24H1535.24H1531.24V152.5C1536.04 149.4 1541.94 148.9 1547.14 151.1ZM1498.74 105.5L1530.54 126.3H1504.64L1476.34 105.5H1498.74ZM1434.34 105.5H1456.74L1428.44 126.3H1402.54L1434.34 105.5ZM1400.24 128.2H1428.84C1429.04 128.2 1429.24 128.1 1429.44 128L1466.54 100.7L1503.64 128C1503.84 128.1 1504.04 128.2 1504.24 128.2H1533.14V130.2H1530.14H1503.24L1467.14 103.7C1466.74 103.4 1466.34 103.4 1465.94 103.7L1429.74 130.3H1403.14H1400.14V128.2H1400.24ZM1367.64 162.7C1368.64 162.7 1369.64 162.8 1370.64 163.1C1370.94 163.2 1371.24 163.1 1371.44 163C1371.64 162.8 1371.84 162.6 1371.84 162.3C1373.24 153.7 1380.64 147.4 1389.34 147.4C1394.14 147.4 1398.74 149.4 1402.14 152.8V172.1H1398.14H1393.14H1388.14H1383.14H1378.14H1373.14H1368.14H1363.14H1358.14H1356.24C1357.34 166.8 1362.14 162.7 1367.64 162.7ZM1310.74 152.3V140.7C1310.74 140.2 1310.34 139.8 1309.84 139.7C1306.34 139.4 1302.94 138.3 1299.84 136.5C1299.54 136.3 1299.14 136.3 1298.74 136.5C1296.34 138.1 1293.54 139 1290.74 139C1282.84 139 1276.44 132.6 1276.44 124.7C1276.44 118 1280.94 112.3 1287.44 110.8C1287.84 110.7 1288.14 110.4 1288.14 110C1288.94 106.3 1290.64 102.7 1293.04 99.8C1293.34 99.4 1293.34 98.8 1292.94 98.5C1291.54 97.1 1290.74 95.1 1290.74 93.1C1290.74 88.9 1294.14 85.5 1298.34 85.5C1301.64 85.5 1304.54 87.6 1305.54 90.7C1305.74 91.2 1306.24 91.5 1306.74 91.4C1310.54 90.6 1314.54 90.6 1318.24 91.6C1318.54 91.7 1318.94 91.6 1319.14 91.4C1321.84 88.9 1325.24 87.5 1328.94 87.5C1336.84 87.5 1343.24 93.9 1343.24 101.8C1343.24 105.6 1341.74 109.3 1339.04 112C1338.84 112.2 1338.74 112.5 1338.74 112.9C1338.74 113.2 1338.94 113.5 1339.24 113.6C1342.44 115.3 1344.34 118.6 1344.34 122.2C1344.34 126.7 1341.14 130.7 1336.74 131.7C1336.44 131.8 1336.24 131.9 1336.04 132.2C1335.94 132.5 1335.84 132.8 1335.94 133C1336.34 134 1336.54 135 1336.54 136.1C1336.54 140.9 1332.64 144.8 1327.84 144.8C1324.74 144.8 1321.94 143.2 1320.34 140.5C1320.14 140.1 1319.64 139.9 1319.24 140C1318.84 140.1 1318.54 140.5 1318.54 141V155.8L1312.64 153.3L1310.74 152.3ZM1291.74 146.3L1315.74 156.6L1319.34 158.2L1332.24 163.7L1330.84 166.9L1292.14 150.3C1292.04 150.2 1291.84 150.2 1291.74 150.2C1291.64 150.2 1291.44 150.2 1291.34 150.3L1256.34 165.3L1252.64 166.9L1251.24 163.7L1291.74 146.3ZM1229.74 75.7H1246.74V77.7H1245.74H1230.74H1229.74V75.7ZM1231.74 79.7H1244.74V89.2H1231.74V79.7ZM1141.34 91.2H1230.74H1245.74H1257.14L1271.94 115.2H1266.74H1131.74H1126.54L1141.34 91.2ZM1132.74 117.2H1265.74V155.3L1249.54 162.3C1249.04 162.5 1248.84 163.1 1249.04 163.6L1251.24 168.7C1251.34 168.9 1251.54 169.1 1251.74 169.2C1251.94 169.3 1252.24 169.3 1252.54 169.2L1255.74 167.8V207.3H1225.24V168L1227.94 169.6C1228.14 169.7 1228.24 169.7 1228.44 169.7C1228.74 169.7 1229.14 169.5 1229.34 169.2L1232.14 164.5C1232.24 164.3 1232.34 164 1232.24 163.7C1232.14 163.4 1232.04 163.2 1231.74 163.1L1199.74 144C1199.44 143.8 1199.04 143.8 1198.74 144L1166.64 163.2C1166.44 163.3 1166.24 163.6 1166.14 163.8C1166.04 164.1 1166.14 164.3 1166.24 164.6L1169.04 169.3C1169.34 169.8 1169.94 169.9 1170.44 169.6L1173.14 168V207.2H1142.54C1142.94 205.9 1143.24 204.5 1143.24 203.1C1143.24 196.8 1138.74 191.6 1132.84 190.4V117.2H1132.74ZM1170.34 167.4L1168.54 164.4L1199.24 146L1229.94 164.4L1228.14 167.4L1199.74 150.4C1199.44 150.2 1199.04 150.2 1198.74 150.4L1170.34 167.4ZM1131.74 207.2H1102.84C1102.54 206.1 1102.34 205 1102.34 203.9C1102.34 197.7 1107.34 192.7 1113.54 192.7C1116.24 192.7 1118.84 193.7 1120.94 195.5C1121.34 195.9 1121.94 195.8 1122.34 195.4C1124.44 193.2 1127.24 192 1130.24 192C1136.34 192 1141.24 196.9 1141.24 203C1141.24 204.4 1140.94 205.8 1140.44 207.1H1131.74V207.2ZM1191.24 207.2V176.7H1207.24V207.2H1191.24ZM1209.24 207.2V175.7C1209.24 175.1 1208.84 174.7 1208.24 174.7H1190.24C1189.64 174.7 1189.24 175.1 1189.24 175.7V207.2H1175.24V166.8L1199.24 152.4L1223.24 166.8V207.2H1209.24ZM1315.74 184.7V186.2H1267.74V184.7H1315.74ZM1267.74 182.7V181.2H1315.74V182.7H1267.74ZM1315.74 188.2V189.7H1267.74V188.2H1315.74ZM1315.74 191.7V193.2H1267.74V191.7H1315.74ZM1315.74 195.2V196.7H1267.74V195.2H1315.74ZM1315.74 198.7V200.2H1267.74V198.7H1315.74ZM1315.74 179.2H1267.74V177.7H1315.74V179.2ZM1267.74 202.2H1315.74V203.7H1267.74V202.2ZM1315.74 175.7H1267.74V174.2H1315.74V175.7ZM1267.74 207.2V205.7H1315.74V207.2H1267.74ZM1317.74 207.2V173.2C1317.74 172.6 1317.34 172.2 1316.74 172.2H1266.74C1266.14 172.2 1265.74 172.6 1265.74 173.2V207.2H1257.74V166.9L1291.74 152.3L1325.74 166.9V207.2H1317.74ZM1354.24 174.2H1357.24V207.2H1354.24V174.2ZM1359.24 174.2H1362.24V207.2H1359.24V174.2ZM1364.24 174.2H1367.24V207.2H1364.24V174.2ZM1369.24 174.2H1372.24V207.2H1369.24V174.2ZM1374.24 174.2H1377.24V207.2H1374.24V174.2ZM1379.24 174.2H1382.24V207.2H1379.24V174.2ZM1384.24 174.2H1387.24V207.2H1384.24V174.2ZM1389.24 174.2H1392.24V207.2H1389.24V174.2ZM1394.24 174.2H1397.24V207.2H1394.24V174.2ZM1399.24 174.2H1402.24V207.2H1399.24V174.2ZM1404.24 173.2V132.2H1430.14C1430.34 132.2 1430.54 132.1 1430.74 132L1466.54 105.7L1502.34 132C1502.54 132.1 1502.74 132.2 1502.94 132.2H1529.14V173.2V207.2H1485.54V205.2C1485.54 204.6 1485.14 204.2 1484.54 204.2H1483.54V202.2C1483.54 201.6 1483.14 201.2 1482.54 201.2H1481.04V172.2H1483.54C1484.14 172.2 1484.54 171.8 1484.54 171.2V168.2C1484.54 167.6 1484.14 167.2 1483.54 167.2H1448.54C1447.94 167.2 1447.54 167.6 1447.54 168.2V171.2C1447.54 171.8 1447.94 172.2 1448.54 172.2H1451.04V201.2H1449.54C1448.94 201.2 1448.54 201.6 1448.54 202.2V204.2H1447.54C1446.94 204.2 1446.54 204.6 1446.54 205.2V207.2H1404.14V173.2H1404.24ZM1480.04 170.2H1452.04H1449.54V169.2H1482.54V170.2H1480.04ZM1453.04 172.2H1479.04V201.2H1453.04V172.2ZM1452.04 203.2H1480.04H1481.54V204.2H1450.54V203.2H1452.04ZM1448.54 207.2V206.2H1449.54H1482.54H1483.54V207.2H1448.54ZM1531.24 174.2H1534.24V207.2H1531.24V174.2ZM1536.24 174.2H1539.24V207.2H1536.24V174.2ZM1541.24 174.2H1544.24V207.2H1541.24V174.2ZM1546.24 174.2H1549.24V207.2H1546.24V174.2ZM1551.24 174.2H1554.24V207.2H1551.24V174.2ZM1556.24 174.2H1559.24V207.2H1556.24V174.2ZM1561.24 174.2H1564.24V207.2H1561.24V174.2ZM1566.24 174.2H1569.24V207.2H1566.24V174.2ZM1571.24 174.2H1574.24V207.2H1571.24V174.2ZM1576.24 207.2V174.2H1579.24V207.2H1576.24ZM1599.94 207.2V191.2C1599.94 190.6 1599.54 190.2 1598.94 190.2H1588.74L1597.44 175.7C1597.64 175.4 1597.64 175 1597.44 174.7C1597.24 174.4 1596.94 174.2 1596.54 174.2H1592.94L1600.84 161C1601.04 160.7 1601.04 160.3 1600.84 160C1600.64 159.7 1600.34 159.5 1599.94 159.5H1597.54L1601.94 150.7L1606.34 159.5H1603.94C1603.54 159.5 1603.24 159.7 1603.04 160C1602.84 160.3 1602.84 160.7 1603.04 161L1610.94 174.2H1607.34C1606.94 174.2 1606.64 174.4 1606.44 174.7C1606.24 175 1606.24 175.4 1606.44 175.7L1615.14 190.2H1604.94C1604.34 190.2 1603.94 190.6 1603.94 191.2V207.2H1599.94ZM1629.24 171.2H1696.84L1699.04 173.4C1699.34 173.7 1699.74 173.8 1700.14 173.6L1704.24 171.7V207.1H1658.74V180.6C1658.74 180 1658.34 179.6 1657.74 179.6H1643.24C1642.64 179.6 1642.24 180 1642.24 180.6V207.1H1629.24V171.2ZM1644.24 207.2V181.7H1656.74V207.2H1644.24ZM1715.94 207.2V181.7H1763.94V207.2H1715.94ZM1765.94 207.2V180.7C1765.94 180.1 1765.54 179.7 1764.94 179.7H1714.94C1714.34 179.7 1713.94 180.1 1713.94 180.7V207.2H1706.14V170.8L1739.94 155.3L1773.74 170.8V207.2H1765.94ZM1827.24 207.2C1827.24 206.5 1827.34 205.4 1827.34 204V203.9C1827.34 188.3 1819.04 175.6 1817.84 173.7C1817.74 173.5 1817.64 173.3 1817.44 173.2C1817.04 172.9 1816.44 173 1816.04 173.4C1813.14 176.9 1808.94 178.9 1804.44 178.9C1796.44 178.9 1789.74 172.3 1789.54 164.3C1789.54 164 1789.34 163.6 1789.04 163.5C1785.84 161.5 1783.94 158.1 1783.94 154.3C1783.94 148.4 1788.74 143.5 1794.74 143.5C1798.44 143.5 1801.84 145.4 1803.84 148.5C1804.04 148.8 1804.34 149 1804.64 149C1812.74 149.1 1819.44 155.8 1819.44 163.9C1819.44 166.3 1818.94 168.5 1817.84 170.7C1817.64 171.2 1817.74 171.8 1818.24 172C1818.34 172 1818.34 172.1 1818.44 172.1C1819.44 173.3 1822.74 177.9 1826.54 188.6C1826.64 189.1 1826.94 189.4 1827.44 189.5C1828.04 189.5 1828.44 189.1 1828.54 188.6C1829.64 176.7 1831.44 165.9 1833.74 156.5C1833.84 156.1 1833.64 155.7 1833.34 155.5C1829.94 152.9 1827.34 149.2 1826.14 145.1C1826.04 144.6 1825.54 144.3 1825.04 144.4C1824.74 144.4 1824.34 144.5 1823.94 144.5C1818.24 144.5 1813.54 139.8 1813.54 134.1C1813.54 133.8 1813.54 133.6 1813.54 133.3C1813.54 132.9 1813.44 132.6 1813.04 132.4C1807.84 129.1 1804.74 123.4 1804.74 117.3C1804.74 107.4 1812.84 99.3 1822.74 99.3C1828.44 99.3 1833.64 101.9 1837.04 106.4C1837.24 106.6 1837.54 106.8 1837.84 106.8C1838.14 106.8 1838.44 106.7 1838.64 106.5C1840.94 104 1844.14 102.5 1847.54 102.5C1854.14 102.5 1859.44 107.8 1859.44 114.4C1859.44 117 1858.64 119.5 1857.04 121.6C1856.84 121.8 1856.84 122.1 1856.84 122.4C1856.84 122.7 1857.04 122.9 1857.24 123.1C1858.94 124.3 1860.44 125.8 1861.64 127.4H1858.34C1857.94 127.4 1857.54 127.7 1857.44 128L1845.34 159.7C1842.14 159.7 1838.94 158.9 1836.04 157.4C1835.74 157.3 1835.44 157.2 1835.14 157.4C1834.84 157.5 1834.64 157.8 1834.54 158.1C1829.24 179.9 1829.54 202.4 1829.64 207.4H1827.24V207.2ZM1851.24 171.2H1879.84L1882.54 176C1882.64 176.2 1882.84 176.4 1883.14 176.5C1883.24 176.5 1883.34 176.5 1883.44 176.5C1883.64 176.5 1883.74 176.5 1883.94 176.4L1891.74 172V207.3H1851.24V171.2ZM1911.24 207.2V182.2H1924.24V207.2H1911.24ZM1943.74 207.2V171.9L1951.64 176.3C1952.14 176.6 1952.74 176.4 1953.04 175.9L1955.74 171.2H1984.34V207.2H1943.74ZM2017.34 207.2V174.7C2017.34 173.6 2018.24 172.7 2019.34 172.7C2020.44 172.7 2021.34 173.6 2021.34 174.7V180.7V183.7V199.2V202.2V207.2H2017.34ZM2027.34 207.2V202.2V199.2V183.7V180.7V174.7C2027.34 173.6 2028.24 172.7 2029.34 172.7C2030.44 172.7 2031.34 173.6 2031.34 174.7V180.7V183.7V199.2V202.2V207.2H2027.34ZM2037.34 207.2V202.2V199.2V183.7V180.7V174.7C2037.34 173.6 2038.24 172.7 2039.34 172.7C2040.44 172.7 2041.34 173.6 2041.34 174.7V180.7V183.7V199.2V202.2V207.2H2037.34ZM2047.34 207.2V202.2V199.2V183.7V180.7V174.7C2047.34 173.6 2048.24 172.7 2049.34 172.7C2050.44 172.7 2051.34 173.6 2051.34 174.7V180.7V183.7V199.2V202.2V207.2H2047.34ZM2057.34 207.2V202.2V199.2V183.7V180.7V174.7C2057.34 173.6 2058.24 172.7 2059.34 172.7C2060.44 172.7 2061.34 173.6 2061.34 174.7V180.7V183.7V199.2V202.2V207.2H2057.34ZM2067.34 207.2V202.2V199.2V183.7V180.7V174.7C2067.34 173.6 2068.24 172.7 2069.34 172.7C2070.44 172.7 2071.34 173.6 2071.34 174.7V180.7V183.7V199.2V202.2V207.2H2067.34ZM2077.34 202.2V199.2V183.7V180.7V130.6L2110.14 101L2142.84 130.6V143.7V207.2H2077.34V202.2ZM2144.84 144.7H2192.84V155.5V207.2H2192.34V204.7C2192.34 204.1 2191.94 203.7 2191.34 203.7H2190.84V200.7C2190.84 200.1 2190.44 199.7 2189.84 199.7H2188.84V174.7C2188.84 174.1 2188.44 173.7 2187.84 173.7H2172.84C2172.24 173.7 2171.84 174.1 2171.84 174.7V199.7H2170.84C2170.24 199.7 2169.84 200.1 2169.84 200.7V203.7H2169.34C2168.74 203.7 2168.34 204.1 2168.34 204.7V207.2H2144.84V144.7ZM2186.84 199.7H2173.84V175.7H2186.84V199.7ZM2172.84 201.7H2187.84H2188.84V203.7H2171.84V201.7H2172.84ZM2170.34 207.2V205.7H2170.84H2189.84H2190.34V207.2H2170.34ZM2194.84 203.2H2196.84V207.2H2194.84V203.2ZM2198.84 207.2V202.2V199.2V183.7V180.7V174.7C2198.84 173.6 2199.74 172.7 2200.84 172.7C2201.94 172.7 2202.84 173.6 2202.84 174.7V180.7V183.7V199.2V202.2V207.2H2198.84ZM2208.84 207.2V202.2V199.2V183.7V180.7V174.7C2208.84 173.6 2209.74 172.7 2210.84 172.7C2211.94 172.7 2212.84 173.6 2212.84 174.7V180.7V183.7V199.2V202.2V207.2H2208.84ZM2218.84 207.2V202.2V199.2V183.7V180.7V174.7C2218.84 173.6 2219.74 172.7 2220.84 172.7C2221.94 172.7 2222.84 173.6 2222.84 174.7V180.7V183.7V199.2V202.2V207.2H2218.84ZM2228.84 207.2V202.2V199.2V183.7V180.7V174.7C2228.84 173.6 2229.74 172.7 2230.84 172.7C2231.94 172.7 2232.84 173.6 2232.84 174.7V180.7V183.7V199.2V202.2V207.2H2228.84ZM2238.84 207.2V202.2V199.2V183.7V180.7V174.7C2238.84 173.6 2239.74 172.7 2240.84 172.7C2241.94 172.7 2242.84 173.6 2242.84 174.7V180.7V183.7V199.2V202.2V207.2H2238.84ZM2248.84 207.2V202.2V199.2V183.7V180.7V174.7C2248.84 173.6 2249.74 172.7 2250.84 172.7C2251.94 172.7 2252.84 173.6 2252.84 174.7V207.2H2248.84Z" fill="#5D6174"/>
<path d="M1320.44 6H1431.04C1431.34 6 1431.64 5.8 1431.84 5.6C1432.04 5.3 1432.04 5 1432.04 4.7C1429.34 -4.3 1421.64 -10.9 1412.44 -12.4C1412.44 -12.6 1412.44 -12.8 1412.44 -13C1412.44 -19.5 1407.24 -24.7 1400.74 -24.7C1400.34 -24.7 1400.04 -24.7 1399.64 -24.6C1396.54 -29.2 1391.44 -32 1385.74 -32C1379.14 -32 1373.14 -28 1370.44 -22C1368.34 -22.9 1366.14 -23.3 1363.84 -23.3C1355.84 -23.3 1348.94 -17.8 1347.14 -10.1C1345.04 -10.7 1342.94 -11 1340.84 -11C1330.94 -11 1322.34 -4.7 1319.34 4.7C1319.24 5 1319.34 5.3 1319.44 5.6C1319.74 5.8 1320.04 6 1320.44 6ZM1340.94 -9C1343.24 -9 1345.44 -8.6 1347.64 -7.9C1347.94 -7.8 1348.24 -7.8 1348.44 -8C1348.74 -8.2 1348.84 -8.4 1348.94 -8.7C1350.14 -16.1 1356.44 -21.4 1363.84 -21.4C1366.14 -21.4 1368.34 -20.9 1370.54 -19.8C1370.84 -19.7 1371.04 -19.7 1371.34 -19.8C1371.64 -19.9 1371.84 -20.1 1371.94 -20.4C1374.04 -26.2 1379.64 -30.1 1385.74 -30.1C1390.84 -30.1 1395.54 -27.5 1398.24 -23.1C1398.44 -22.8 1398.84 -22.6 1399.24 -22.6C1399.84 -22.7 1400.24 -22.7 1400.74 -22.7C1406.14 -22.7 1410.44 -18.3 1410.44 -13C1410.44 -12.6 1410.44 -12.2 1410.34 -11.7C1410.34 -11.4 1410.34 -11.2 1410.54 -11C1410.74 -10.8 1410.94 -10.7 1411.24 -10.6C1419.64 -9.6 1426.74 -4 1429.74 3.9H1321.84C1324.94 -3.8 1332.44 -9 1340.94 -9Z" fill="#5D6174"/>
</g>
</g>
</g>
</svg>
