<svg width="1600" height="415" viewBox="0 0 1600 415" fill="none" xmlns="http://www.w3.org/2000/svg">
<mask  mask-type="alpha" maskUnits="userSpaceOnUse" x="0" y="0" width="1600" height="415">
<rect width="1600" height="415" fill="#818181"/>
</mask>
<g mask="url(#mask0)">
<rect width="1758" height="416" transform="matrix(-1 0 0 1 1713 -1)" fill="#454A61"/>
<path d="M815 -377.306C815 -400.892 804.522 -423.257 786.406 -438.338L719.75 -493.827V-232.16L420.197 -476.996C391.215 -500.684 349.637 -500.867 320.447 -477.436L-35.406 -191.777C-59.8033 -172.192 -74 -142.579 -74 -111.272V333.283C-74 373.482 -27.3214 395.6 3.73416 370.117L332.767 100.118C356.652 80.5182 370.5 51.2298 370.5 20.3124V-49.785L21.25 232.311V151.072C21.25 132.173 29.6583 114.257 44.1892 102.192L333.224 -137.777C356.837 -157.381 370.5 -186.495 370.5 -217.205V-287.665L21.25 -1.60413V-82.2395C21.25 -101.418 29.9084 -119.57 44.8078 -131.626L355.514 -383.039C364.251 -390.109 376.738 -390.095 385.46 -383.007L737.44 -96.9579C768.535 -71.6881 815 -93.8402 815 -133.934V-377.306Z" fill="#50556C"/>
<path d="M1179.71 -3.41913C1179.71 -27.0055 1169.23 -49.3703 1151.11 -64.4511L1084.46 -119.941V141.727L784.905 -103.109C755.923 -126.797 714.344 -126.981 685.155 -103.549L329.301 182.11C304.904 201.695 290.707 231.308 290.707 262.614V707.17C290.707 747.369 337.386 769.487 368.442 744.003L697.474 474.005C721.359 454.405 735.207 425.116 735.207 394.199V324.102L385.957 606.198V524.958C385.957 506.06 394.366 488.143 408.897 476.079L697.931 236.11C721.544 216.506 735.207 187.391 735.207 156.681V86.2216L385.957 372.282V291.647C385.957 272.468 394.616 254.317 409.515 242.261L720.222 -9.1524C728.959 -16.2221 741.445 -16.2088 750.167 -9.1206L1102.15 276.929C1133.24 302.198 1179.71 280.046 1179.71 239.953V-3.41913Z" fill="#50556C"/>
<path d="M776 420.419C776 444.005 786.478 466.37 804.594 481.451L871.25 536.941V275.273L1170.8 520.109C1199.78 543.797 1241.36 543.981 1270.55 520.549L1626.41 234.89C1650.8 215.305 1665 185.692 1665 154.386V-290.17C1665 -330.369 1618.32 -352.487 1587.27 -327.003L1258.23 -57.0046C1234.35 -37.4048 1220.5 -8.11643 1220.5 22.801V92.8985L1569.75 -189.198V-107.958C1569.75 -89.0597 1561.34 -71.1432 1546.81 -59.079L1257.78 180.89C1234.16 200.494 1220.5 229.609 1220.5 260.319V330.778L1569.75 44.7175V125.353C1569.75 144.532 1561.09 162.683 1546.19 174.739L1235.49 426.152C1226.75 433.222 1214.26 433.209 1205.54 426.121L853.56 140.071C822.465 114.802 776 136.954 776 177.047V420.419Z" fill="#50556C"/>
</g>
</svg>
