<svg width="76" height="76" viewBox="0 0 76 76" fill="none" xmlns="http://www.w3.org/2000/svg">
<g clip-path="url(#clip0)">
<path d="M68.4883 38.2078C68.4883 39.0836 69.2008 39.7961 70.0766 39.7961H74.4109C75.2867 39.7961 75.9992 39.0836 75.9992 38.2078C75.9992 37.332 75.2867 36.6195 74.4109 36.6195H70.0766C69.2008 36.6195 68.4883 37.332 68.4883 38.2078Z" fill="#AAB0BB"/>
<path d="M7.91094 38.2078C7.91094 37.332 7.19844 36.6195 6.32266 36.6195H1.57266C0.696875 36.6195 -0.015625 37.332 -0.015625 38.2078C-0.015625 39.0836 0.696875 39.7961 1.57266 39.7961H6.32266C7.21328 39.7961 7.91094 39.0836 7.91094 38.2078Z" fill="#AAB0BB"/>
<path d="M66.6762 23.6016L70.3575 21.4789C71.1145 21.0484 71.3817 20.0688 70.9364 19.3117C70.5059 18.5547 69.5411 18.2875 68.7692 18.7328L65.088 20.8555C64.3309 21.2859 64.0637 22.2656 64.5091 23.0227C64.9395 23.7797 65.9192 24.032 66.6762 23.6016Z" fill="#AAB0BB"/>
<path d="M9.91418 52.7102L5.69855 55.1445C4.94152 55.5898 4.68918 56.5547 5.11965 57.3117C5.55012 58.0687 6.5298 58.3211 7.28683 57.8906L11.5025 55.4563C12.2595 55.0109 12.5118 54.0461 12.0814 53.2891C11.6361 52.532 10.6712 52.2797 9.91418 52.7102Z" fill="#AAB0BB"/>
<path d="M53.4368 11.8602C54.1939 12.3055 55.1587 12.0383 55.604 11.2813L57.697 7.6594C58.1275 6.90237 57.8751 5.93752 57.1181 5.49221C56.3611 5.0469 55.3962 5.31409 54.9509 6.07112L52.8579 9.69299C52.4275 10.45 52.6798 11.4149 53.4368 11.8602Z" fill="#AAB0BB"/>
<path d="M23.1864 64.2735C22.4294 63.8281 21.4645 64.0953 21.0192 64.8524L18.5403 69.1422C18.095 69.8992 18.3622 70.8641 19.1192 71.3094C19.8762 71.7547 20.8411 71.4875 21.2864 70.7305L23.7653 66.4407C24.1958 65.6836 23.9434 64.7188 23.1864 64.2735Z" fill="#AAB0BB"/>
<path d="M68.9047 54.7883C68.118 52.6508 66.3812 50.9883 64.1102 50.3055C63.5906 50.1422 63.0563 50.0531 62.5219 50.0086C64.3625 46.2977 65.3273 42.2156 65.3273 38.0148C65.3273 24.982 56.1539 13.8938 43.4477 11.4148C42.082 9.975 40.2562 9.15859 38.3711 9.11406C38.1781 8.57969 37.9109 8.075 37.5992 7.61484C37.7922 7.68906 37.9852 7.73359 38.2078 7.73359C39.0836 7.73359 39.7961 7.02109 39.7961 6.14531V1.58828C39.7961 0.7125 39.0836 0 38.2078 0C37.332 0 36.6195 0.7125 36.6195 1.58828V6.14531C36.6195 6.24922 36.6344 6.36797 36.6492 6.47187C34.2148 4.05234 30.5781 3.63672 27.7133 5.29922C25.7539 2.06328 22.2062 0 18.332 0C13.6562 0 9.55937 2.92422 8.01562 7.22891C3.50312 7.88203 0 11.8008 0 16.4766C0 19.4602 1.36562 22.1914 3.77031 23.9875C5.80391 25.5164 8.26797 26.1398 10.6875 25.7688C11.3406 26.6742 12.1125 27.4461 12.9734 28.0992C11.7266 31.2461 11.0883 34.5711 11.0883 38C11.0883 50.1719 19.1039 60.7258 30.6969 64.0359C31.35 67.2273 33.6211 69.8102 36.6047 70.9234V74.3969C36.6047 75.2727 37.3172 75.9852 38.193 75.9852C39.0687 75.9852 39.7812 75.2727 39.7812 74.3969V71.5023H39.8703C40.3156 71.5023 40.7609 71.4727 41.1914 71.4133C43.2398 74.2484 46.5648 75.9703 50.1125 75.9703C53.5414 75.9703 56.7328 74.3672 58.7961 71.7102C60.2359 72.393 61.8688 72.5859 63.4719 72.2594C65.2383 71.8883 66.782 70.9086 67.8656 69.4836C72.0367 69.9437 76 66.6633 76 62.1359C76 58.1281 72.7492 54.907 68.9047 54.7883ZM11.4148 22.3992C11.2664 22.3992 11.118 22.4141 10.9695 22.4586C9.15859 22.993 7.21406 22.6219 5.65547 21.4492C4.06719 20.2617 3.16172 18.4508 3.16172 16.4766C3.16172 13.1219 5.87813 10.3461 9.23281 10.3016C9.94531 10.2867 10.5688 9.79688 10.7469 9.09922C11.6078 5.61094 14.725 3.17656 18.332 3.17656C21.5977 3.17656 24.5516 5.23984 25.65 8.3125C25.843 8.83203 26.2883 9.21797 26.8227 9.32187C27.3719 9.42578 27.9211 9.24766 28.307 8.84688C30.6969 6.23437 35.0758 7.58516 35.6102 11.0289C35.6695 11.4445 35.907 11.8305 36.2633 12.0828C36.6047 12.3352 37.05 12.4242 37.4656 12.35C39.9297 11.9047 42.3195 13.9234 42.3195 16.4914C42.3195 16.5508 42.3047 16.6102 42.3047 16.6695C42.1414 19.4453 39.5438 21.2711 37.0203 20.5586C36.3227 20.3656 35.5508 20.6773 35.1945 21.3453C33.9328 23.7203 30.8305 24.2992 28.8117 22.6812C28.025 22.0578 26.8969 22.3102 26.4219 23.1562C23.4828 28.4406 15.8086 28.5297 12.7953 23.2305C12.5133 22.6961 11.9789 22.3992 11.4148 22.3992ZM14.2648 38C14.2648 35.1055 14.7695 32.3 15.7789 29.643C20.2172 31.2609 25.3977 29.8508 28.307 26.0508C31.4984 27.5352 35.2539 26.6 37.3617 23.8242C40.7461 24.1953 44.2195 22.0727 45.2437 18.3766C45.2734 18.2727 45.3031 18.1687 45.318 18.0648C45.5406 17.1 45.5703 16.1055 45.3922 15.1406C55.2781 18.1984 62.1805 27.3719 62.1805 38C62.1805 42.5867 60.8891 47.0398 58.425 50.8695C58.3656 50.8992 58.3062 50.9289 58.2469 50.9586C56.2875 47.7227 52.7398 45.6742 48.8656 45.6742C44.2047 45.6742 40.093 48.5836 38.5492 52.9031C34.4523 53.4969 31.2758 56.7773 30.6523 60.7109C20.9 57.5047 14.2648 48.4203 14.2648 38ZM67.5391 66.2328C66.8266 66.0398 66.0695 66.3516 65.7133 67.0195C65.1195 68.1328 64.0656 68.9344 62.8336 69.1867C61.5867 69.4391 60.3102 69.1422 59.3156 68.3555C58.9594 68.0734 58.4844 67.9547 58.0242 68.0437C57.5641 68.1328 57.1781 68.4148 56.9555 68.8305C55.575 71.3094 52.9625 72.8531 50.1273 72.8531C47.3219 72.8531 44.7094 71.3391 43.3289 68.9047C43.0469 68.4 42.5125 68.1031 41.9484 68.1031C41.8 68.1031 41.6516 68.118 41.5031 68.1625C37.8961 69.2164 34.0367 66.5891 33.725 62.6703C33.4281 58.9891 36.3375 56.05 39.7664 55.9906C40.4789 55.9758 41.1172 55.4859 41.2805 54.7734C42.1117 51.3297 45.2289 48.8508 48.8656 48.8508C52.1313 48.8508 55.0703 50.9141 56.1836 53.9719C56.525 54.907 57.6977 55.4711 58.8406 54.5063C61.2156 51.9086 65.6094 53.2 66.1438 56.6883C66.2031 57.1039 66.4406 57.4898 66.7969 57.7422C67.1383 57.9945 67.5836 58.0836 67.9992 58.0094C70.4336 57.5641 72.8531 59.5383 72.8531 62.1508C72.8383 64.9711 70.1367 66.9602 67.5391 66.2328Z" fill="#AAB0BB"/>
</g>
<defs>
<clipPath id="clip0">
<rect width="76" height="76" fill="white"/>
</clipPath>
</defs>
</svg>
