<svg width="80" height="80" viewBox="0 0 80 80" fill="none" xmlns="http://www.w3.org/2000/svg">
<g clip-path="url(#clip0)">
<path d="M2.34375 4.84385H9.75282C10.907 4.84385 11.8799 5.67026 12.0661 6.80918C12.0734 6.85068 12.0813 6.8928 12.0905 6.93369L23.1787 57.3537C20.7532 58.4633 19.0625 60.912 19.0625 63.7495C19.0625 66.9875 21.2628 69.72 24.2469 70.533C23.9276 71.3356 23.75 72.2096 23.75 73.1246C23.75 77.0015 26.9043 80.1558 30.7813 80.1558C34.6582 80.1558 37.8125 77.0015 37.8125 73.1246C37.8125 72.303 37.6691 71.5126 37.4091 70.779H56.9654C56.7054 71.5126 56.562 72.3012 56.562 73.1227C56.562 77.0003 59.7162 80.1558 63.5932 80.1558C67.4702 80.1558 70.6245 77.0015 70.6245 73.1246C70.6245 72.303 70.4816 71.5145 70.2216 70.7808H72.9682C74.2628 70.7808 75.312 69.7316 75.312 68.437C75.312 67.1425 74.2628 66.0933 72.9682 66.0933H26.0938C24.8011 66.0933 23.75 65.0417 23.75 63.7495C23.75 62.4287 24.8523 61.4241 25.9558 61.4241C26.048 61.4241 26.1414 61.4174 26.2348 61.4058H64.9024C67.9334 61.4058 70.6141 59.474 71.5723 56.5981L79.8792 31.6786C80.2882 30.4506 79.6247 29.123 78.3967 28.7135C77.1693 28.3046 75.8418 28.968 75.4322 30.196L67.1259 55.1155C66.8061 56.0744 65.9125 56.7183 64.9024 56.7183H27.8388L16.6803 5.98337C16.0938 2.60263 13.1915 0.156342 9.75282 0.156342H2.34375C1.0492 0.156342 0 1.20554 0 2.50009C0 3.79465 1.0492 4.84385 2.34375 4.84385ZM33.125 73.1246C33.125 74.4167 32.0734 75.4683 30.7813 75.4683C29.4886 75.4683 28.4375 74.4167 28.4375 73.1246C28.4375 71.8324 29.4886 70.7808 30.7813 70.7808C32.0734 70.7808 33.125 71.8324 33.125 73.1246ZM65.937 73.1246C65.937 74.4167 64.8859 75.4683 63.5932 75.4683C62.3011 75.4683 61.2495 74.4167 61.2495 73.1246C61.2495 71.8324 62.3011 70.7808 63.5932 70.7808C64.8859 70.7808 65.937 71.8324 65.937 73.1246Z" fill="#2F344C"/>
<path d="M33.125 52.0306H61.2494C62.544 52.0306 63.5932 50.9814 63.5932 49.6868V31.9079L64.2798 32.5945C65.1947 33.5101 66.6791 33.5101 67.5946 32.5945C68.5096 31.679 68.5096 30.1952 67.5946 29.2797L48.8446 10.5303C47.9291 9.61478 46.4453 9.61478 45.5298 10.5303L26.7804 29.2797C25.8649 30.1952 25.8649 31.679 26.7804 32.5945C27.6953 33.5101 29.1791 33.5101 30.0946 32.5945L30.7813 31.9079V49.6868C30.7813 50.9814 31.8305 52.0306 33.125 52.0306ZM49.5307 47.3431H44.8432V37.9681H49.5307V47.3431ZM47.1869 15.5022L58.9154 27.2302C58.9106 27.2936 58.9057 27.3571 58.9057 27.4218V47.3437H54.2182V35.6249C54.2182 34.3304 53.169 33.2812 51.8744 33.2812H42.4994C41.2055 33.2812 40.1557 34.3304 40.1557 35.6249V47.3437H35.4688V27.4218C35.4688 27.3571 35.4639 27.2936 35.459 27.2302L47.1869 15.5022Z" fill="#2F344C"/>
<path d="M49.5308 26.25C49.5308 27.5439 48.4816 28.5938 47.187 28.5938C45.8931 28.5938 44.8433 27.5439 44.8433 26.25C44.8433 24.9554 45.8931 23.9062 47.187 23.9062C48.4816 23.9062 49.5308 24.9554 49.5308 26.25Z" fill="#2F344C"/>
</g>
<defs>
<clipPath id="clip0">
<rect width="80" height="80" fill="white"/>
</clipPath>
</defs>
</svg>
