<svg width="70" height="70" viewBox="0 0 70 70" fill="none" xmlns="http://www.w3.org/2000/svg">
<g clip-path="url(#clip0)">
<path d="M14 30.9746V65.9746H56V30.9746H14Z" fill="#C49A6C"/>
<path d="M68.8333 65.9746H49C49 63.3975 51.0895 61.3079 53.6667 61.3079C53.7248 61.3079 53.7834 61.3199 53.8416 61.3199C53.7299 60.9365 53.6707 60.54 53.6667 60.1413C53.6667 57.5641 55.7562 55.4746 58.3333 55.4746C60.9105 55.4746 63 57.5641 63 60.1413C66.2214 60.1413 68.8333 62.7532 68.8333 65.9746Z" fill="#00CCB3"/>
<path d="M28 40.3076H35V43.8076H29.1667C28.5224 43.8076 28 43.2852 28 42.641V40.3076Z" fill="#D1D3D4"/>
<path d="M42 37.9743V40.3076H35V36.8076H40.8333C41.4776 36.8076 42 37.33 42 37.9743Z" fill="#D1D3D4"/>
<path d="M42 40.3076V42.641C42 43.2852 41.4776 43.8076 40.8333 43.8076H35V40.3076H42Z" fill="#E6E7E8"/>
<path d="M29.1667 36.8076H35V40.3076H28V37.9743C28 37.33 28.5224 36.8076 29.1667 36.8076Z" fill="#E6E7E8"/>
<path d="M45.5 49.6406H52.5V56.6406H45.5V49.6406Z" fill="#E6E7E8"/>
<path d="M17.5 49.6406H24.5V56.6406H17.5V49.6406Z" fill="#E6E7E8"/>
<path d="M28 47.3076H42V65.9743H28V47.3076Z" fill="#8B5E3C"/>
<path d="M56 30.9743H14L32.6667 12.3076V23.9743C32.6707 25.2612 33.7131 26.3036 35 26.3076H51.3333L56 30.9743Z" fill="#FFC477"/>
<path d="M63.584 31.5576C64.5507 32.5243 64.5507 34.0909 63.584 35.0576C62.6173 36.0243 61.0507 36.0243 60.084 35.0576L51.334 26.3076H58.334L63.584 31.5576Z" fill="#FF6243"/>
<path d="M35.0017 7.64046C33.7149 7.64445 32.6724 8.68693 32.6684 9.97379V12.3071L9.9184 35.0571C8.95168 36.0238 7.38511 36.0238 6.4184 35.0571C5.45168 34.0904 5.45168 32.5238 6.4184 31.5571L33.3565 4.61898C33.7929 4.18205 34.3848 3.93652 35.0017 3.93652C35.6187 3.93652 36.2106 4.18205 36.6469 4.61898L39.6684 7.64046H35.0017Z" fill="#FF6243"/>
<path d="M21 65.9744H14V58.7295C14.4375 59.1174 14.7673 59.6113 14.9565 60.1645C15.0265 60.1645 15.0966 60.1411 15.1667 60.1411C15.5586 60.1383 15.95 60.1776 16.3333 60.2579C19.0495 60.8122 21.0006 63.2019 21 65.9744Z" fill="#A97C50"/>
<path d="M35.6881 11.6191C35.8283 11.475 35.9901 11.3531 36.1667 11.2574C35.2563 10.7242 34.1011 10.8729 33.3548 11.6191L14 30.9739H16.3333L35.6881 11.6191Z" fill="#FFB655"/>
<path d="M14 30.9746V33.3079L16.3333 30.9746H14Z" fill="#A97C50"/>
<path d="M28 47.3076H30.3333V65.9743H28V47.3076Z" fill="#754C29"/>
<path d="M17.5 49.6406H19.8333V56.6406H17.5V49.6406Z" fill="#D1D3D4"/>
<path d="M45.5 49.6406H47.8333V56.6406H45.5V49.6406Z" fill="#D1D3D4"/>
<path d="M60.6673 28.6409H53.6673L51.334 26.3076H58.334L60.6673 28.6409Z" fill="#FF5023"/>
<path d="M13.9993 60.2581C16.7155 60.8124 18.6666 63.2021 18.666 65.9747H1.16602C1.16602 64.0418 2.73315 62.4747 4.66602 62.4747C5.2015 62.4781 5.72843 62.6057 6.20581 62.8478C5.9637 62.3704 5.8361 61.8435 5.83268 61.308C5.82756 59.6007 7.05859 58.1401 8.74251 57.8564C10.4264 57.5727 12.0682 58.5497 12.6225 60.1647C12.6925 60.1647 12.7626 60.1413 12.8327 60.1413C13.2246 60.1385 13.616 60.1778 13.9993 60.2581Z" fill="#00CCB3"/>
<path d="M34.9993 7.64062H65.3327C66.6213 7.64062 67.666 8.68538 67.666 9.97396V23.974C67.666 25.2625 66.6213 26.3073 65.3327 26.3073H34.9993C33.7108 26.3073 32.666 25.2625 32.666 23.974V9.97396C32.666 8.68538 33.7108 7.64062 34.9993 7.64062Z" fill="#FFA733"/>
<path d="M17.5 49.6406H24.5V50.8073H17.5V49.6406Z" fill="#D1D3D4"/>
<path d="M45.5 49.6406H52.5V50.8073H45.5V49.6406Z" fill="#D1D3D4"/>
<path d="M28 47.3076H42V49.6409H28V47.3076Z" fill="#754C29"/>
<path d="M24.5007 48.4746H17.5007C16.8564 48.4746 16.334 48.997 16.334 49.6413V56.6413C16.334 57.2856 16.8564 57.8079 17.5007 57.8079H24.5007C25.1449 57.8079 25.6673 57.2856 25.6673 56.6413V49.6413C25.6673 48.997 25.1449 48.4746 24.5007 48.4746ZM23.334 55.4746H18.6673V50.8079H23.334V55.4746Z" fill="black"/>
<path d="M40.834 35.6406H29.1673C27.8787 35.6406 26.834 36.6854 26.834 37.974V42.6406C26.834 43.9292 27.8787 44.974 29.1673 44.974H40.834C42.1226 44.974 43.1673 43.9292 43.1673 42.6406V37.974C43.1673 36.6854 42.1226 35.6406 40.834 35.6406ZM40.834 39.1406H36.1673V37.974H40.834V39.1406ZM33.834 37.974V39.1406H29.1673V37.974H33.834ZM29.1673 41.474H33.834V42.6406H29.1673V41.474ZM36.1673 42.6406V41.474H40.834V42.6406H36.1673Z" fill="black"/>
<path d="M64.0653 59.0542C63.7747 57.5201 62.8815 56.166 61.5844 55.2961C60.2878 54.4257 58.6968 54.1118 57.1667 54.424V33.7903L59.2585 35.8821C60.6803 37.304 62.9863 37.304 64.4082 35.8821C65.8301 34.4602 65.8301 32.1542 64.4082 30.7323L61.1497 27.4739H65.3333C67.2662 27.4739 68.8333 25.9067 68.8333 23.9739V9.97388C68.8333 8.04102 67.2662 6.47388 65.3333 6.47388H40.1497L37.4661 3.79077C36.1006 2.43042 33.8926 2.43042 32.5265 3.79077L5.5918 30.7323C4.16992 32.1542 4.16992 34.4602 5.5918 35.8821C7.01367 37.304 9.31966 37.304 10.7415 35.8821L12.8333 33.7903V58.2527C11.563 56.779 9.50822 56.2526 7.68587 56.9345C5.86296 57.6158 4.65812 59.3612 4.66667 61.3072C2.08952 61.3072 0 63.3967 0 65.9739C0 66.6182 0.522379 67.1405 1.16667 67.1405H68.8333C69.4776 67.1405 70 66.6182 70 65.9739C69.9954 62.5206 67.4775 59.5846 64.0653 59.0542ZM53.6576 56.6884C53.6576 56.6719 53.6667 56.6582 53.6667 56.6405V49.6405C53.6667 48.9963 53.1443 48.4739 52.5 48.4739H45.5C44.8557 48.4739 44.3333 48.9963 44.3333 49.6405V56.6405C44.3333 57.2848 44.8557 57.8072 45.5 57.8072H52.5C52.7125 57.8021 52.9193 57.7366 53.0964 57.6192C52.7085 58.4036 52.5046 59.2661 52.5 60.1405V60.2573C50.2128 60.729 48.4275 62.5189 47.9615 64.8072H43.1667V47.3072C43.1667 46.6629 42.6443 46.1405 42 46.1405H28C27.3557 46.1405 26.8333 46.6629 26.8333 47.3072V64.8072H19.7297C19.3018 62.3058 17.557 60.2305 15.1667 59.38V32.1405H54.8333V55.5041C54.3867 55.8407 53.9908 56.2395 53.6576 56.6884ZM51.3333 50.8072V55.4739H46.6667V50.8072H51.3333ZM62.7585 32.3821C63.2683 32.8936 63.2683 33.7214 62.7585 34.2323C62.2463 34.741 61.4203 34.741 60.9082 34.2323L54.1497 27.4739H57.8503L62.7585 32.3821ZM66.5 9.97388V23.9739C66.5 24.6182 65.9776 25.1405 65.3333 25.1405H35C34.3557 25.1405 33.8333 24.6182 33.8333 23.9739V9.97388C33.8333 9.32959 34.3557 8.80721 35 8.80721H65.3333C65.9776 8.80721 66.5 9.32959 66.5 9.97388ZM9.0918 34.2323C8.58024 34.7422 7.75309 34.7422 7.24154 34.2323C6.73283 33.7208 6.73283 32.8942 7.24154 32.3821L34.1831 5.44393C34.6377 4.99447 35.3691 4.99447 35.8237 5.44393L36.8537 6.47388H35C33.0671 6.47388 31.5 8.04102 31.5 9.97388V11.8241L9.0918 34.2323ZM31.5 15.1236V23.9739C31.5 25.9067 33.0671 27.4739 35 27.4739H50.8503L53.1836 29.8072H16.8164L31.5 15.1236ZM2.64722 64.8072C3.26131 63.7493 4.5909 63.3483 5.6875 63.8901C6.13582 64.1105 6.67472 64.0211 7.02791 63.6679C7.3811 63.3141 7.4694 62.7752 7.24837 62.3269C7.0883 62.0107 7.00342 61.6615 7 61.3072C6.99487 60.169 7.81519 59.1943 8.93799 59.0052C10.0608 58.8161 11.1551 59.4683 11.5231 60.5456C11.6769 61.0383 12.148 61.3613 12.663 61.3271C12.7205 61.3277 12.7775 61.3209 12.8333 61.3072C14.9604 61.3101 16.8181 62.7485 17.353 64.8072H2.64722ZM29.1667 64.8072V48.4739H40.8333V64.8072H29.1667ZM50.366 64.8072C50.8446 63.4281 52.1348 62.4955 53.5943 62.4739C53.6342 62.4796 53.7504 62.4927 53.7903 62.4938C54.1617 62.5177 54.5206 62.3542 54.7467 62.0586C54.9786 61.7698 55.0595 61.3887 54.9649 61.0309C54.8829 60.741 54.8385 60.4419 54.8333 60.1405C54.8333 58.2077 56.4005 56.6405 58.3333 56.6405C60.2662 56.6405 61.8333 58.2077 61.8333 60.1405C61.8333 60.7848 62.3557 61.3072 63 61.3072C65.1271 61.3101 66.9848 62.7485 67.5197 64.8072H50.366Z" fill="black"/>
<path d="M32.6673 51.9746H30.334V54.3079H31.5007V56.6413H30.334V58.9746H32.6673C33.3116 58.9746 33.834 58.4522 33.834 57.8079V53.1413C33.834 52.497 33.3116 51.9746 32.6673 51.9746Z" fill="black"/>
<path d="M37.3327 22.8073H40.8327C42.2158 22.8136 43.4719 22.0007 44.033 20.7366C44.5941 19.4725 44.3549 17.996 43.4229 16.974C44.3549 15.952 44.5941 14.4755 44.033 13.2114C43.4719 11.9473 42.2158 11.1344 40.8327 11.1407H37.3327C36.6884 11.1407 36.166 11.663 36.166 12.3073V21.6407C36.166 22.2849 36.6884 22.8073 37.3327 22.8073ZM40.8327 20.474H38.4993V18.1407H40.8327C41.477 18.1407 41.9993 18.663 41.9993 19.3073C41.9993 19.9516 41.477 20.474 40.8327 20.474ZM38.4993 13.474H40.8327C41.477 13.474 41.9993 13.9964 41.9993 14.6407C41.9993 15.2849 41.477 15.8073 40.8327 15.8073H38.4993V13.474Z" fill="black"/>
<path d="M49 22.8073H50.1667C52.0995 22.8073 53.6667 21.2402 53.6667 19.3073V11.1406H51.3333V19.3073C51.3333 19.9516 50.811 20.474 50.1667 20.474H49C48.3557 20.474 47.8333 19.9516 47.8333 19.3073V11.1406H45.5V19.3073C45.5 21.2402 47.0671 22.8073 49 22.8073Z" fill="black"/>
<path d="M58.3331 22.8077H60.6664V17.2974L63.9995 11.742L62 10.54L59.4998 14.7077L56.9995 10.54L55 11.742L58.3331 17.2974V22.8077Z" fill="black"/>
</g>
<defs>
<clipPath id="clip0">
<rect width="70" height="70" fill="white"/>
</clipPath>
</defs>
</svg>
