<svg width="48" height="48" viewBox="0 0 48 48" fill="none" xmlns="http://www.w3.org/2000/svg">
<path d="M4.21875 0C1.89375 0 0 1.89375 0 4.21875V21.375H21.375V0H4.21875ZM13.9688 12.0938H12.0938V13.9688C12.0938 14.7469 11.4656 15.375 10.6875 15.375C9.90938 15.375 9.28125 14.7469 9.28125 13.9688V12.0938H7.40625C6.62813 12.0938 6 11.4656 6 10.6875C6 9.90938 6.62813 9.28125 7.40625 9.28125H9.28125V7.40625C9.28125 6.62813 9.90938 6 10.6875 6C11.4656 6 12.0938 6.62813 12.0938 7.40625V9.28125H13.9688C14.7469 9.28125 15.375 9.90938 15.375 10.6875C15.375 11.4656 14.7469 12.0938 13.9688 12.0938Z" fill="#5D6174"/>
<path d="M44.7937 21.375H45.5625V4.21875C45.5625 1.89375 43.6688 0 41.3438 0H24.1875V20.8688C26.9719 18.7781 30.4312 17.5312 34.1719 17.5312C38.2125 17.5312 41.9156 18.975 44.7937 21.375ZM30.1875 10.6875C30.1875 9.90938 30.8156 9.28125 31.5938 9.28125H38.1562C38.9344 9.28125 39.5625 9.90938 39.5625 10.6875C39.5625 11.4656 38.9344 12.0938 38.1562 12.0938H31.5938C30.8156 12.0938 30.1875 11.4656 30.1875 10.6875Z" fill="#5D6174"/>
<path d="M20.8688 24.1875H0V41.3438C0 43.6688 1.89375 45.5625 4.21875 45.5625H21.375V44.7937C18.975 41.9062 17.5312 38.2031 17.5312 34.1719C17.5312 30.4312 18.7781 26.9719 20.8688 24.1875ZM14.025 36.225C14.5781 36.7781 14.5781 37.6688 14.025 38.2125C13.7531 38.4844 13.3875 38.625 13.0312 38.625C12.675 38.625 12.3094 38.4844 12.0375 38.2125L10.6875 36.8625L9.3375 38.2125C9.06563 38.4844 8.7 38.625 8.34375 38.625C7.9875 38.625 7.62188 38.4844 7.35 38.2125C6.79688 37.6594 6.79688 36.7687 7.35 36.225L8.7 34.875L7.35 33.525C6.79688 32.9719 6.79688 32.0812 7.35 31.5375C7.90313 30.9844 8.79375 30.9844 9.3375 31.5375L10.6875 32.8875L12.0375 31.5375C12.5906 30.9844 13.4813 30.9844 14.025 31.5375C14.5688 32.0906 14.5781 32.9813 14.025 33.525L12.675 34.875L14.025 36.225Z" fill="#5D6174"/>
<path d="M34.1719 20.3438C26.55 20.3438 20.3438 26.55 20.3438 34.1719C20.3438 41.7938 26.55 48 34.1719 48C41.7938 48 48 41.7938 48 34.1719C48 26.55 41.7938 20.3438 34.1719 20.3438ZM37.4531 37.9219H30.8906C30.1125 37.9219 29.4844 37.2938 29.4844 36.5156C29.4844 35.7375 30.1125 35.1094 30.8906 35.1094H37.4531C38.2313 35.1094 38.8594 35.7375 38.8594 36.5156C38.8594 37.2938 38.2313 37.9219 37.4531 37.9219ZM37.4531 33.2344H30.8906C30.1125 33.2344 29.4844 32.6062 29.4844 31.8281C29.4844 31.05 30.1125 30.4219 30.8906 30.4219H37.4531C38.2313 30.4219 38.8594 31.05 38.8594 31.8281C38.8594 32.6062 38.2313 33.2344 37.4531 33.2344Z" fill="#FF4D61"/>
</svg>
