<svg width="48" height="48" viewBox="0 0 48 48" fill="none" xmlns="http://www.w3.org/2000/svg">
<path d="M12.0027 0C11.0585 0 10.2852 0.76334 10.2852 1.71751V5.1425H13.7101V1.71751C13.7101 0.76334 12.9468 0 12.0027 0Z" fill="#5D6174"/>
<path d="M35.9976 0C35.0534 0 34.28 0.76334 34.28 1.71751V5.1425H37.705V1.71751C37.7151 0.76334 36.9417 0 35.9976 0Z" fill="#5D6174"/>
<path d="M42.8575 5.14233H37.715V12.0023C37.715 12.9465 36.9517 13.7199 35.9975 13.7199C35.0433 13.7199 34.28 12.9565 34.28 12.0023V5.14233H13.71V12.0023C13.71 12.9465 12.9466 13.7199 11.9925 13.7199C11.0383 13.7199 10.275 12.9565 10.275 12.0023V5.14233H5.1425C2.30006 5.14233 0 7.4424 0 10.2848V42.8573C0 45.6998 2.30006 47.9998 5.1425 47.9998H42.8575C45.6999 47.9998 48 45.6998 48 42.8573V10.2848C48 7.4424 45.6899 5.14233 42.8575 5.14233ZM44.565 42.8573C44.565 43.8015 43.8016 44.5748 42.8475 44.5748H5.1425C4.19837 44.5748 3.42498 43.8115 3.42498 42.8573V20.5698H44.565V42.8573Z" fill="#5D6174"/>
<path d="M13.7099 23.9951H10.2849C9.34077 23.9951 8.56738 24.7585 8.56738 25.7126C8.56738 26.6668 9.33072 27.4301 10.2849 27.4301H13.7099C14.654 27.4301 15.4274 26.6668 15.4274 25.7126C15.4274 24.7585 14.6641 23.9951 13.7099 23.9951Z" fill="#FF4D61"/>
<path d="M25.7126 23.9951H22.2876C21.3435 23.9951 20.5701 24.7585 20.5701 25.7126C20.5701 26.6668 21.3334 27.4301 22.2876 27.4301H25.7126C26.6567 27.4301 27.4301 26.6668 27.4301 25.7126C27.4301 24.7585 26.6567 23.9951 25.7126 23.9951Z" fill="#FF4D61"/>
<path d="M37.715 23.9951H34.29C33.3459 23.9951 32.5725 24.7585 32.5725 25.7126C32.5725 26.6668 33.3359 27.4301 34.29 27.4301H37.715C38.6591 27.4301 39.4325 26.6668 39.4325 25.7126C39.4325 24.7585 38.6591 23.9951 37.715 23.9951Z" fill="#FF4D61"/>
<path d="M13.7099 30.8547H10.2849C9.34077 30.8547 8.56738 31.6181 8.56738 32.5722C8.56738 33.5264 9.33072 34.2898 10.2849 34.2898H13.7099C14.654 34.2898 15.4274 33.5264 15.4274 32.5722C15.4274 31.6181 14.6641 30.8547 13.7099 30.8547Z" fill="#FF4D61"/>
<path d="M25.7126 30.8547H22.2876C21.3435 30.8547 20.5701 31.6181 20.5701 32.5722C20.5701 33.5264 21.3334 34.2898 22.2876 34.2898H25.7126C26.6567 34.2898 27.4301 33.5264 27.4301 32.5722C27.4301 31.6181 26.6567 30.8547 25.7126 30.8547Z" fill="#FF4D61"/>
<path d="M37.715 30.8547H34.29C33.3459 30.8547 32.5725 31.6181 32.5725 32.5722C32.5725 33.5264 33.3359 34.2898 34.29 34.2898H37.715C38.6591 34.2898 39.4325 33.5264 39.4325 32.5722C39.4225 31.6181 38.6591 30.8547 37.715 30.8547Z" fill="#FF4D61"/>
<path d="M13.7099 37.7151H10.2849C9.34077 37.7151 8.56738 38.4784 8.56738 39.4326C8.56738 40.3868 9.33072 41.1501 10.2849 41.1501H13.7099C14.654 41.1501 15.4274 40.3868 15.4274 39.4326C15.4274 38.4784 14.6641 37.7151 13.7099 37.7151Z" fill="#FF4D61"/>
<path d="M25.7126 37.7151H22.2876C21.3435 37.7151 20.5701 38.4784 20.5701 39.4326C20.5701 40.3868 21.3334 41.1501 22.2876 41.1501H25.7126C26.6567 41.1501 27.4301 40.3868 27.4301 39.4326C27.4301 38.4784 26.6567 37.7151 25.7126 37.7151Z" fill="#FF4D61"/>
<path d="M37.715 37.7151H34.29C33.3459 37.7151 32.5725 38.4784 32.5725 39.4326C32.5725 40.3868 33.3359 41.1501 34.29 41.1501H37.715C38.6591 41.1501 39.4325 40.3868 39.4325 39.4326C39.4325 38.4784 38.6591 37.7151 37.715 37.7151Z" fill="#FF4D61"/>
</svg>
