<svg width="48" height="42" viewBox="0 0 48 42" fill="none" xmlns="http://www.w3.org/2000/svg">
<path d="M20.2072 24.1926C20.4429 23.5819 20.5607 22.939 20.5715 22.2854C20.5715 19.4461 18.2679 17.1426 15.4286 17.1426C12.5893 17.1426 10.2857 19.4461 10.2857 22.2854C10.2857 22.939 10.4143 23.5819 10.65 24.1926C8.41075 24.8033 6.85718 26.8283 6.85718 29.1426V32.5711C6.85718 33.514 7.62861 34.2854 8.57146 34.2854H22.2857C23.2286 34.2854 24 33.514 24 32.5711V29.1426C24 26.8283 22.4465 24.8033 20.2072 24.1926ZM15.4286 20.5711C16.3715 20.5711 17.1429 21.3426 17.1429 22.2854C17.1429 23.2283 16.3715 23.9997 15.4286 23.9997C14.4857 23.9997 13.7143 23.2283 13.7143 22.2854C13.7143 21.3426 14.4857 20.5711 15.4286 20.5711ZM20.5715 30.8569H10.2857V29.1426C10.2857 28.1997 11.0572 27.4283 12 27.4283H18.8572C19.8 27.4283 20.5715 28.1997 20.5715 29.1426V30.8569Z" fill="#5D6174"/>
<path d="M46.2857 6.85714H32.5714V5.14286C32.5714 2.30357 30.2679 0 27.4286 0H20.5714C17.7321 0 15.4286 2.30357 15.4286 5.14286V6.85714H1.71429C0.771429 6.85714 0 7.62857 0 8.57143V39.4286C0 40.3714 0.771429 41.1429 1.71429 41.1429H46.2857C47.2286 41.1429 48 40.3714 48 39.4286V8.57143C48 7.62857 47.2286 6.85714 46.2857 6.85714ZM18.8571 5.14286C18.8571 4.2 19.6286 3.42857 20.5714 3.42857H22.2857V5.14286C22.2857 6.08571 23.0571 6.85714 24 6.85714C24.9429 6.85714 25.7143 6.08571 25.7143 5.14286V3.42857H27.4286C28.3714 3.42857 29.1429 4.2 29.1429 5.14286V8.57143C29.1429 9.51429 28.3714 10.2857 27.4286 10.2857H20.5714C19.6286 10.2857 18.8571 9.51429 18.8571 8.57143V5.14286ZM44.5714 37.7143H3.42857V10.2857H15.7179C16.4464 12.3429 18.3857 13.7143 20.5714 13.7143H27.4286C29.6143 13.7143 31.5536 12.3429 32.2821 10.2857H44.5714V37.7143Z" fill="#5D6174"/>
<path d="M29.143 17.1426C28.2001 17.1426 27.4287 17.914 27.4287 18.8569C27.4287 19.7997 28.2001 20.5711 29.143 20.5711H39.4287C40.3716 20.5711 41.143 19.7997 41.143 18.8569C41.143 17.914 40.3716 17.1426 39.4287 17.1426H29.143Z" fill="#5D6174"/>
<path d="M39.4287 24H29.143C28.2001 24 27.4287 24.7714 27.4287 25.7143C27.4287 26.6571 28.2001 27.4286 29.143 27.4286H39.4287C40.3716 27.4286 41.143 26.6571 41.143 25.7143C41.143 24.7714 40.3716 24 39.4287 24Z" fill="#5D6174"/>
<path d="M39.4287 30.8574H29.143C28.2001 30.8574 27.4287 31.6289 27.4287 32.5717C27.4287 33.5146 28.2001 34.286 29.143 34.286H39.4287C40.3716 34.286 41.143 33.5146 41.143 32.5717C41.143 31.6289 40.3716 30.8574 39.4287 30.8574Z" fill="#5D6174"/>
<path d="M20.2072 24.2463C20.4429 23.6356 20.5607 22.9927 20.5715 22.3391C20.5715 19.4999 18.2679 17.1963 15.4286 17.1963C12.5893 17.1963 10.2857 19.4999 10.2857 22.3391C10.2857 22.9927 10.4143 23.6356 10.65 24.2463C8.41075 24.857 6.85718 26.882 6.85718 29.1963V32.6249C6.85718 33.5677 7.62861 34.3391 8.57146 34.3391H22.2857C23.2286 34.3391 24 33.5677 24 32.6249V29.1963C24 26.882 22.4465 24.857 20.2072 24.2463ZM15.4286 20.6249C16.3715 20.6249 17.1429 21.3963 17.1429 22.3391C17.1429 23.282 16.3715 24.0534 15.4286 24.0534C14.4857 24.0534 13.7143 23.282 13.7143 22.3391C13.7143 21.3963 14.4857 20.6249 15.4286 20.6249ZM20.5715 30.9106H10.2857V29.1963C10.2857 28.2534 11.0572 27.482 12 27.482H18.8572C19.8 27.482 20.5715 28.2534 20.5715 29.1963V30.9106Z" fill="#FF4D61"/>
</svg>
