<svg width="140" height="140" viewBox="0 0 140 140" fill="none" xmlns="http://www.w3.org/2000/svg">
<g clip-path="url(#clip0)">
<path d="M62.3447 0L14.1125 27.849L62.3447 55.6936V0Z" fill="url(#paint0_linear)"/>
<path d="M53.6903 69.9998L5.46899 42.1594V97.8422L53.6903 69.9998Z" fill="url(#paint1_linear)"/>
<path d="M77.655 0V55.6872L125.88 27.8446L77.655 0Z" fill="url(#paint2_linear)"/>
<path d="M77.6577 84.3022V140L125.89 112.151L77.6577 84.3022Z" fill="url(#paint3_linear)"/>
<path d="M62.3443 84.3022L14.1055 112.147L62.3443 140V84.3022Z" fill="url(#paint4_linear)"/>
<path d="M86.2961 69.9984L134.53 97.8452V42.1513L86.2961 69.9984Z" fill="url(#paint5_linear)"/>
<path d="M53.6903 69.9998L5.46899 73.655V97.8422L53.6903 69.9998Z" fill="url(#paint6_linear)"/>
<path d="M86.2961 69.9974L134.53 97.8443V73.644L86.2961 69.9974Z" fill="url(#paint7_linear)"/>
</g>
<defs>
<linearGradient id="paint0_linear" x1="38.2287" y1="-1.45488" x2="38.2287" y2="112.901" gradientUnits="userSpaceOnUse">
<stop stop-color="#29D3DA"/>
<stop offset="0.519" stop-color="#0077FF"/>
<stop offset="0.999" stop-color="#064093"/>
<stop offset="1" stop-color="#084698"/>
</linearGradient>
<linearGradient id="paint1_linear" x1="18.8952" y1="116.236" x2="28.7586" y2="60.7066" gradientUnits="userSpaceOnUse">
<stop offset="0.012" stop-color="#E0B386"/>
<stop offset="0.519" stop-color="#DA498C"/>
<stop offset="1" stop-color="#961484"/>
</linearGradient>
<linearGradient id="paint2_linear" x1="101.768" y1="-1.45488" x2="101.768" y2="112.901" gradientUnits="userSpaceOnUse">
<stop stop-color="#29D3DA"/>
<stop offset="0.519" stop-color="#0077FF"/>
<stop offset="0.999" stop-color="#064093"/>
<stop offset="1" stop-color="#084698"/>
</linearGradient>
<linearGradient id="paint3_linear" x1="101.774" y1="171.351" x2="101.774" y2="122.242" gradientUnits="userSpaceOnUse">
<stop stop-color="#29D3DA"/>
<stop offset="0.519" stop-color="#0077FF"/>
<stop offset="0.999" stop-color="#064093"/>
<stop offset="1" stop-color="#084698"/>
</linearGradient>
<linearGradient id="paint4_linear" x1="38.225" y1="171.351" x2="38.225" y2="122.242" gradientUnits="userSpaceOnUse">
<stop stop-color="#29D3DA"/>
<stop offset="0.519" stop-color="#0077FF"/>
<stop offset="0.999" stop-color="#064093"/>
<stop offset="1" stop-color="#084698"/>
</linearGradient>
<linearGradient id="paint5_linear" x1="105.992" y1="108.788" x2="115.867" y2="53.2561" gradientUnits="userSpaceOnUse">
<stop offset="0.012" stop-color="#E0B386"/>
<stop offset="0.519" stop-color="#DA498C"/>
<stop offset="1" stop-color="#961484"/>
</linearGradient>
<linearGradient id="paint6_linear" x1="22.5606" y1="111.347" x2="29.0093" y2="75.0436" gradientUnits="userSpaceOnUse">
<stop offset="0.012" stop-color="#E0B386"/>
<stop offset="0.519" stop-color="#DA498C"/>
<stop offset="1" stop-color="#961484"/>
</linearGradient>
<linearGradient id="paint7_linear" x1="107.555" y1="100.016" x2="111.841" y2="75.8874" gradientUnits="userSpaceOnUse">
<stop offset="0.012" stop-color="#E0B386"/>
<stop offset="0.519" stop-color="#DA498C"/>
<stop offset="1" stop-color="#961484"/>
</linearGradient>
<clipPath id="clip0">
<rect width="140" height="140" fill="white"/>
</clipPath>
</defs>
</svg>
