<svg width="22" height="22" viewBox="0 0 22 22" fill="none" xmlns="http://www.w3.org/2000/svg">
<path d="M19.7742 17.2777H16.384V13.9648C17.0328 13.2301 17.4238 12.2762 17.4238 11.232C17.4238 8.92891 15.516 7.05977 13.1699 7.05977C10.8238 7.05977 8.91602 8.9332 8.91602 11.232C8.91602 12.2762 9.30703 13.2301 9.95586 13.9648V17.2777H2.22578V2.22578H19.7699V17.2777H19.7742V17.2777ZM13.1699 17.7117L11.7219 18.8246V15.1594C12.173 15.3184 12.6629 15.4086 13.1699 15.4086C13.677 15.4086 14.1668 15.3227 14.618 15.1594V18.8246L13.1699 17.7117ZM13.1699 13.6555C11.7906 13.6555 10.6691 12.5684 10.6691 11.232C10.6691 9.8957 11.7906 8.80859 13.1699 8.80859C14.5492 8.80859 15.6707 9.8957 15.6707 11.232C15.6707 12.5684 14.5492 13.6555 13.1699 13.6555ZM20.6508 0.472656H1.34922C0.863672 0.472656 0.472656 0.863672 0.472656 1.34922V18.1543C0.472656 18.6398 0.863672 19.0309 1.34922 19.0309H9.95586V20.668C9.95586 21.377 10.7723 21.7809 11.3352 21.3469L13.1699 19.9375L15.0047 21.3469C15.5676 21.7809 16.384 21.377 16.384 20.668V19.0309H20.6508C21.1363 19.0309 21.5273 18.6398 21.5273 18.1543V1.34922C21.5273 0.863672 21.1363 0.472656 20.6508 0.472656V0.472656Z" fill="#A3A5B0"/>
<path d="M6.49326 6.22609H15.5038C15.9894 6.22609 16.3804 5.83507 16.3804 5.34952C16.3804 4.86397 15.9894 4.47295 15.5038 4.47295H6.49326C6.00772 4.47295 5.6167 4.86397 5.6167 5.34952C5.6167 5.83077 6.01201 6.22609 6.49326 6.22609V6.22609Z" fill="#A3A5B0"/>
</svg>
