<svg width="71" height="71" viewBox="0 0 71 71" fill="none" xmlns="http://www.w3.org/2000/svg">
<path d="M69.5208 62.125H8.875V1.47917C8.875 0.662667 8.21233 0 7.39583 0C6.57933 0 5.91667 0.662667 5.91667 1.47917V62.125H1.47917C0.662667 62.125 0 62.7877 0 63.6042C0 64.4207 0.662667 65.0833 1.47917 65.0833H5.91667V69.5208C5.91667 70.3373 6.57933 71 7.39583 71C8.21233 71 8.875 70.3373 8.875 69.5208V65.0833H69.5208C70.3373 65.0833 71 64.4207 71 63.6042C71 62.7877 70.3373 62.125 69.5208 62.125Z" fill="#5D6174"/>
<path d="M69.5202 11.833H54.7285C54.1309 11.833 53.5896 12.1939 53.3618 12.7471C53.131 13.3003 53.2582 13.9364 53.6813 14.3594L60.0299 20.708L45.8506 34.8873L40.9811 30.0179C40.4043 29.441 39.4665 29.441 38.8896 30.0179L15.2229 53.6845C14.6461 54.2614 14.6461 55.1992 15.2229 55.7761C15.5129 56.063 15.8915 56.208 16.2702 56.208C16.6489 56.208 17.0275 56.063 17.3145 55.7761L39.9339 33.1567L44.8033 38.0261C45.3802 38.603 46.318 38.603 46.8949 38.0261L62.1214 22.7995L68.4729 29.1511C68.7569 29.4321 69.1356 29.583 69.5202 29.583C69.7095 29.583 69.9018 29.5475 70.0852 29.4706C70.6384 29.2428 70.9994 28.7014 70.9994 28.1038V13.3122C70.9994 12.4957 70.3367 11.833 69.5202 11.833ZM68.041 24.5331L58.2992 14.7913H68.041V24.5331Z" fill="#5D6174"/>
<rect x="18" width="3" height="41" rx="1.5" fill="#5D6174"/>
<rect x="31" width="3" height="25" rx="1.5" fill="#5D6174"/>
<rect x="44" width="3" height="27" rx="1.5" fill="#5D6174"/>
<rect x="31" y="49" width="3" height="9" rx="1.5" fill="#5D6174"/>
<rect x="44" y="43" width="3" height="15" rx="1.5" fill="#5D6174"/>
<rect x="57" y="35" width="3" height="23" rx="1.5" fill="#5D6174"/>
</svg>
