<svg width="450" height="167" viewBox="0 0 450 167" fill="none" xmlns="http://www.w3.org/2000/svg">
<rect width="450" height="167" rx="10" fill="#C4C4C4"/>
<path d="M80.032 99.252C78.0907 99.252 76.392 98.8413 74.936 98.02C73.48 97.1987 72.36 96.0227 71.576 94.492C70.792 92.9613 70.4 91.1693 70.4 89.116C70.4 87.0627 70.792 85.28 71.576 83.768C72.36 82.2373 73.48 81.0613 74.936 80.24C76.392 79.4187 78.0907 79.008 80.032 79.008C82.4773 79.008 84.5867 79.68 86.36 81.024C86.64 81.248 86.836 81.472 86.948 81.696C87.06 81.92 87.116 82.2 87.116 82.536C87.116 83.0213 86.976 83.4413 86.696 83.796C86.4347 84.132 86.108 84.3 85.716 84.3C85.4547 84.3 85.2213 84.272 85.016 84.216C84.8293 84.1413 84.6147 84.02 84.372 83.852C83.6253 83.3667 82.9347 83.0213 82.3 82.816C81.6653 82.592 80.984 82.48 80.256 82.48C78.464 82.48 77.1107 83.04 76.196 84.16C75.3 85.2613 74.852 86.9133 74.852 89.116C74.852 93.5587 76.6533 95.78 80.256 95.78C80.9467 95.78 81.6 95.6773 82.216 95.472C82.832 95.248 83.5507 94.8933 84.372 94.408C84.652 94.24 84.8853 94.128 85.072 94.072C85.2587 93.9973 85.4733 93.96 85.716 93.96C86.108 93.96 86.4347 94.1373 86.696 94.492C86.976 94.828 87.116 95.2387 87.116 95.724C87.116 96.06 87.0507 96.3493 86.92 96.592C86.808 96.816 86.6213 97.0307 86.36 97.236C84.5867 98.58 82.4773 99.252 80.032 99.252ZM105.414 79.12C106.067 79.12 106.59 79.316 106.982 79.708C107.374 80.1 107.57 80.6227 107.57 81.276V96.984C107.57 97.6373 107.374 98.1693 106.982 98.58C106.59 98.972 106.067 99.168 105.414 99.168C104.76 99.168 104.238 98.972 103.846 98.58C103.472 98.188 103.286 97.656 103.286 96.984V90.712H94.1856V96.984C94.1856 97.6373 93.9896 98.1693 93.5976 98.58C93.2056 98.972 92.6922 99.168 92.0576 99.168C91.4042 99.168 90.8816 98.972 90.4896 98.58C90.0976 98.188 89.9016 97.656 89.9016 96.984V81.276C89.9016 80.6227 90.0976 80.1 90.4896 79.708C90.8816 79.316 91.4042 79.12 92.0576 79.12C92.7109 79.12 93.2242 79.316 93.5976 79.708C93.9896 80.1 94.1856 80.6227 94.1856 81.276V87.24H103.286V81.276C103.286 80.6227 103.472 80.1 103.846 79.708C104.238 79.316 104.76 79.12 105.414 79.12ZM129.864 96.34C130.013 96.676 130.088 96.9747 130.088 97.236C130.088 97.7587 129.873 98.2067 129.444 98.58C129.033 98.9347 128.557 99.112 128.016 99.112C127.661 99.112 127.325 99.0187 127.008 98.832C126.691 98.6267 126.448 98.328 126.28 97.936L124.796 94.632H115.304L113.82 97.936C113.652 98.328 113.409 98.6267 113.092 98.832C112.793 99.0187 112.457 99.112 112.084 99.112C111.543 99.112 111.057 98.9347 110.628 98.58C110.199 98.2067 109.984 97.7587 109.984 97.236C109.984 96.9747 110.059 96.676 110.208 96.34L117.768 80.464C117.973 80.016 118.281 79.68 118.692 79.456C119.103 79.2133 119.541 79.092 120.008 79.092C120.493 79.092 120.941 79.2133 121.352 79.456C121.763 79.6987 122.08 80.0347 122.304 80.464L129.864 96.34ZM123.312 91.328L120.064 84.048L116.788 91.328H123.312ZM148.644 96.228C148.924 96.6387 149.064 97.04 149.064 97.432C149.064 97.9547 148.85 98.384 148.42 98.72C148.01 99.056 147.524 99.224 146.964 99.224C146.61 99.224 146.264 99.14 145.928 98.972C145.592 98.804 145.312 98.5427 145.088 98.188L141.392 92.7C141.075 92.2147 140.739 91.8693 140.384 91.664C140.03 91.44 139.582 91.328 139.04 91.328H136.772V96.984C136.772 97.656 136.576 98.188 136.184 98.58C135.811 98.972 135.298 99.168 134.644 99.168C133.972 99.168 133.44 98.972 133.048 98.58C132.656 98.188 132.46 97.656 132.46 96.984V81.304C132.46 80.6507 132.638 80.1467 132.992 79.792C133.347 79.4373 133.851 79.26 134.504 79.26H141.532C143.847 79.26 145.592 79.7733 146.768 80.8C147.963 81.808 148.56 83.2733 148.56 85.196C148.56 86.708 148.14 87.968 147.3 88.976C146.46 89.984 145.275 90.6467 143.744 90.964C144.304 91.076 144.799 91.3 145.228 91.636C145.676 91.9533 146.106 92.42 146.516 93.036L148.644 96.228ZM140.888 88.024C142.139 88.024 143.044 87.8093 143.604 87.38C144.164 86.932 144.444 86.2413 144.444 85.308C144.444 84.356 144.164 83.6653 143.604 83.236C143.044 82.8067 142.139 82.592 140.888 82.592H136.716V88.024H140.888ZM158.259 99.14C157.606 99.14 157.074 98.944 156.663 98.552C156.271 98.16 156.075 97.6373 156.075 96.984V82.816H151.539C150.158 82.816 149.467 82.2187 149.467 81.024C149.467 79.848 150.158 79.26 151.539 79.26H164.979C166.361 79.26 167.051 79.848 167.051 81.024C167.051 82.2187 166.361 82.816 164.979 82.816H160.443V96.984C160.443 97.6373 160.247 98.16 159.855 98.552C159.463 98.944 158.931 99.14 158.259 99.14ZM178.864 99.168C178.192 99.168 177.66 98.972 177.268 98.58C176.876 98.188 176.68 97.656 176.68 96.984V81.304C176.68 80.6507 176.857 80.1467 177.212 79.792C177.566 79.4373 178.07 79.26 178.724 79.26H185.752C187.898 79.26 189.569 79.8013 190.764 80.884C191.958 81.9667 192.556 83.4787 192.556 85.42C192.556 87.3613 191.958 88.8733 190.764 89.956C189.569 91.0387 187.898 91.58 185.752 91.58H181.048V96.984C181.048 97.656 180.852 98.188 180.46 98.58C180.068 98.972 179.536 99.168 178.864 99.168ZM185.192 88.276C187.376 88.276 188.468 87.3333 188.468 85.448C188.468 83.544 187.376 82.592 185.192 82.592H181.048V88.276H185.192ZM197.392 99C196.738 99 196.234 98.8227 195.88 98.468C195.525 98.1133 195.348 97.6093 195.348 96.956V81.276C195.348 80.6227 195.544 80.1 195.936 79.708C196.328 79.316 196.86 79.12 197.532 79.12C198.204 79.12 198.736 79.316 199.128 79.708C199.52 80.1 199.716 80.6227 199.716 81.276V95.444H206.884C208.246 95.444 208.928 96.0413 208.928 97.236C208.928 98.412 208.246 99 206.884 99H197.392ZM229.459 96.34C229.608 96.676 229.683 96.9747 229.683 97.236C229.683 97.7587 229.468 98.2067 229.039 98.58C228.628 98.9347 228.152 99.112 227.611 99.112C227.256 99.112 226.92 99.0187 226.603 98.832C226.285 98.6267 226.043 98.328 225.875 97.936L224.391 94.632H214.899L213.415 97.936C213.247 98.328 213.004 98.6267 212.687 98.832C212.388 99.0187 212.052 99.112 211.679 99.112C211.137 99.112 210.652 98.9347 210.223 98.58C209.793 98.2067 209.579 97.7587 209.579 97.236C209.579 96.9747 209.653 96.676 209.803 96.34L217.363 80.464C217.568 80.016 217.876 79.68 218.287 79.456C218.697 79.2133 219.136 79.092 219.603 79.092C220.088 79.092 220.536 79.2133 220.947 79.456C221.357 79.6987 221.675 80.0347 221.899 80.464L229.459 96.34ZM222.907 91.328L219.659 84.048L216.383 91.328H222.907ZM240.58 99.252C238.639 99.252 236.94 98.8413 235.484 98.02C234.028 97.1987 232.908 96.0227 232.124 94.492C231.34 92.9613 230.948 91.1693 230.948 89.116C230.948 87.0627 231.34 85.28 232.124 83.768C232.908 82.2373 234.028 81.0613 235.484 80.24C236.94 79.4187 238.639 79.008 240.58 79.008C243.026 79.008 245.135 79.68 246.908 81.024C247.188 81.248 247.384 81.472 247.496 81.696C247.608 81.92 247.664 82.2 247.664 82.536C247.664 83.0213 247.524 83.4413 247.244 83.796C246.983 84.132 246.656 84.3 246.264 84.3C246.003 84.3 245.77 84.272 245.564 84.216C245.378 84.1413 245.163 84.02 244.92 83.852C244.174 83.3667 243.483 83.0213 242.848 82.816C242.214 82.592 241.532 82.48 240.804 82.48C239.012 82.48 237.659 83.04 236.744 84.16C235.848 85.2613 235.4 86.9133 235.4 89.116C235.4 93.5587 237.202 95.78 240.804 95.78C241.495 95.78 242.148 95.6773 242.764 95.472C243.38 95.248 244.099 94.8933 244.92 94.408C245.2 94.24 245.434 94.128 245.62 94.072C245.807 93.9973 246.022 93.96 246.264 93.96C246.656 93.96 246.983 94.1373 247.244 94.492C247.524 94.828 247.664 95.2387 247.664 95.724C247.664 96.06 247.599 96.3493 247.468 96.592C247.356 96.816 247.17 97.0307 246.908 97.236C245.135 98.58 243.026 99.252 240.58 99.252ZM252.494 99C251.841 99 251.337 98.8227 250.982 98.468C250.627 98.1133 250.45 97.6093 250.45 96.956V81.304C250.45 80.6507 250.627 80.1467 250.982 79.792C251.337 79.4373 251.841 79.26 252.494 79.26H262.406C263.787 79.26 264.478 79.82 264.478 80.94C264.478 82.0787 263.787 82.648 262.406 82.648H254.706V87.268H261.846C263.227 87.268 263.918 87.8373 263.918 88.976C263.918 90.096 263.227 90.656 261.846 90.656H254.706V95.612H262.406C263.787 95.612 264.478 96.1813 264.478 97.32C264.478 98.44 263.787 99 262.406 99H252.494ZM282.525 79.12C283.178 79.12 283.701 79.316 284.093 79.708C284.485 80.1 284.681 80.6227 284.681 81.276V96.984C284.681 97.6373 284.485 98.1693 284.093 98.58C283.701 98.972 283.178 99.168 282.525 99.168C281.871 99.168 281.349 98.972 280.957 98.58C280.583 98.188 280.397 97.656 280.397 96.984V90.712H271.297V96.984C271.297 97.6373 271.101 98.1693 270.709 98.58C270.317 98.972 269.803 99.168 269.169 99.168C268.515 99.168 267.993 98.972 267.601 98.58C267.209 98.188 267.013 97.656 267.013 96.984V81.276C267.013 80.6227 267.209 80.1 267.601 79.708C267.993 79.316 268.515 79.12 269.169 79.12C269.822 79.12 270.335 79.316 270.709 79.708C271.101 80.1 271.297 80.6227 271.297 81.276V87.24H280.397V81.276C280.397 80.6227 280.583 80.1 280.957 79.708C281.349 79.316 281.871 79.12 282.525 79.12ZM297.651 99.252C295.691 99.252 293.983 98.8413 292.527 98.02C291.09 97.18 289.979 96.004 289.195 94.492C288.411 92.9613 288.019 91.1693 288.019 89.116C288.019 87.0627 288.411 85.28 289.195 83.768C289.979 82.2373 291.09 81.0613 292.527 80.24C293.983 79.4187 295.691 79.008 297.651 79.008C299.611 79.008 301.31 79.4187 302.747 80.24C304.203 81.0613 305.323 82.2373 306.107 83.768C306.891 85.28 307.283 87.0627 307.283 89.116C307.283 91.1693 306.891 92.9613 306.107 94.492C305.323 96.004 304.203 97.18 302.747 98.02C301.31 98.8413 299.611 99.252 297.651 99.252ZM297.651 95.864C299.294 95.864 300.582 95.2853 301.515 94.128C302.467 92.9707 302.943 91.3 302.943 89.116C302.943 86.932 302.476 85.2707 301.543 84.132C300.61 82.9747 299.312 82.396 297.651 82.396C295.99 82.396 294.692 82.9747 293.759 84.132C292.844 85.2707 292.387 86.932 292.387 89.116C292.387 91.3 292.854 92.9707 293.787 94.128C294.72 95.2853 296.008 95.864 297.651 95.864ZM312.627 99C311.974 99 311.47 98.8227 311.115 98.468C310.76 98.1133 310.583 97.6093 310.583 96.956V81.276C310.583 80.6227 310.779 80.1 311.171 79.708C311.563 79.316 312.095 79.12 312.767 79.12C313.439 79.12 313.971 79.316 314.363 79.708C314.755 80.1 314.951 80.6227 314.951 81.276V95.444H322.119C323.482 95.444 324.163 96.0413 324.163 97.236C324.163 98.412 323.482 99 322.119 99H312.627ZM328.369 99C327.716 99 327.212 98.8227 326.857 98.468C326.503 98.1133 326.325 97.6093 326.325 96.956V81.304C326.325 80.6507 326.503 80.1467 326.857 79.792C327.212 79.4373 327.716 79.26 328.369 79.26H333.997C336.144 79.26 337.992 79.652 339.541 80.436C341.091 81.22 342.276 82.3493 343.097 83.824C343.919 85.2987 344.329 87.0627 344.329 89.116C344.329 91.1693 343.919 92.9427 343.097 94.436C342.295 95.9107 341.119 97.04 339.569 97.824C338.02 98.608 336.163 99 333.997 99H328.369ZM333.689 95.472C337.889 95.472 339.989 93.3533 339.989 89.116C339.989 84.8973 337.889 82.788 333.689 82.788H330.693V95.472H333.689ZM349.69 99C349.037 99 348.533 98.8227 348.178 98.468C347.823 98.1133 347.646 97.6093 347.646 96.956V81.304C347.646 80.6507 347.823 80.1467 348.178 79.792C348.533 79.4373 349.037 79.26 349.69 79.26H359.602C360.983 79.26 361.674 79.82 361.674 80.94C361.674 82.0787 360.983 82.648 359.602 82.648H351.902V87.268H359.042C360.423 87.268 361.114 87.8373 361.114 88.976C361.114 90.096 360.423 90.656 359.042 90.656H351.902V95.612H359.602C360.983 95.612 361.674 96.1813 361.674 97.32C361.674 98.44 360.983 99 359.602 99H349.69ZM380.393 96.228C380.673 96.6387 380.813 97.04 380.813 97.432C380.813 97.9547 380.598 98.384 380.169 98.72C379.758 99.056 379.273 99.224 378.713 99.224C378.358 99.224 378.013 99.14 377.677 98.972C377.341 98.804 377.061 98.5427 376.837 98.188L373.141 92.7C372.823 92.2147 372.487 91.8693 372.133 91.664C371.778 91.44 371.33 91.328 370.789 91.328H368.521V96.984C368.521 97.656 368.325 98.188 367.933 98.58C367.559 98.972 367.046 99.168 366.393 99.168C365.721 99.168 365.189 98.972 364.797 98.58C364.405 98.188 364.209 97.656 364.209 96.984V81.304C364.209 80.6507 364.386 80.1467 364.741 79.792C365.095 79.4373 365.599 79.26 366.253 79.26H373.281C375.595 79.26 377.341 79.7733 378.517 80.8C379.711 81.808 380.309 83.2733 380.309 85.196C380.309 86.708 379.889 87.968 379.049 88.976C378.209 89.984 377.023 90.6467 375.493 90.964C376.053 91.076 376.547 91.3 376.977 91.636C377.425 91.9533 377.854 92.42 378.265 93.036L380.393 96.228ZM372.637 88.024C373.887 88.024 374.793 87.8093 375.353 87.38C375.913 86.932 376.193 86.2413 376.193 85.308C376.193 84.356 375.913 83.6653 375.353 83.236C374.793 82.8067 373.887 82.592 372.637 82.592H368.465V88.024H372.637Z" fill="white"/>
</svg>
