<svg width="80" height="80" viewBox="0 0 80 80" fill="none" xmlns="http://www.w3.org/2000/svg">
<path d="M36.5997 66.2769H27.3962C26.1017 66.2769 25.0519 67.3267 25.0519 68.6218C25.0519 69.9164 26.1017 70.9662 27.3962 70.9662H36.5997C37.8943 70.9662 38.9441 69.9164 38.9441 68.6218C38.9441 67.3267 37.8943 66.2769 36.5997 66.2769Z" fill="#2F344C"/>
<path d="M62.2314 20.8209H56.9653V9.01855C56.9647 4.04602 52.9193 0 47.9462 0H16.0498C11.0773 0 7.03125 4.04602 7.03125 9.01855V70.9814C7.03125 75.954 11.0773 80 16.0498 80H47.9462C52.9193 80 56.9647 75.954 56.9647 70.9814V50.9528H62.2314C68.1281 50.9528 72.9254 46.1554 72.9254 40.2582V31.5155C72.926 25.6189 68.1281 20.8209 62.2314 20.8209ZM38.974 4.68933V7.00806H25.022V4.68933H38.974ZM52.2754 70.9814C52.2754 73.3685 50.3333 75.3107 47.9462 75.3107H16.0498C13.6627 75.3107 11.7206 73.3685 11.7206 70.9814V9.01855C11.7206 6.63147 13.6627 4.68933 16.0498 4.68933H20.3326V7.1991C20.3326 9.67957 22.3505 11.6974 24.8309 11.6974H39.1656C41.6455 11.6974 43.6633 9.67957 43.6633 7.1991V4.68933H47.9462C50.3333 4.68933 52.2754 6.63147 52.2754 9.01855V20.8209H40.3479C34.4507 20.8209 29.6533 25.6183 29.6533 31.5155V52.2815C29.6533 53.3575 30.2466 54.3341 31.2012 54.8303C31.6199 55.0482 32.0746 55.1556 32.5275 55.1556C33.031 55.1556 33.5321 55.0226 33.9789 54.7601L41.5204 50.9528H52.2754V70.9814ZM68.2367 40.2582C68.2367 43.5699 65.5426 46.2634 62.2314 46.2634H41.076C40.5609 46.2634 40.0635 46.3995 39.6228 46.6577L34.3427 49.3237V31.5155C34.3427 28.2043 37.0367 25.5103 40.3479 25.5103H62.2314C65.5426 25.5103 68.2367 28.2043 68.2367 31.5155V40.2582Z" fill="#2F344C"/>
<path d="M61.5479 29.1998H41.0315C39.7369 29.1998 38.6871 30.2496 38.6871 31.5442C38.6871 32.8394 39.7369 33.8892 41.0315 33.8892H61.5479C62.8424 33.8892 63.8922 32.8394 63.8922 31.5442C63.8922 30.2496 62.8424 29.1998 61.5479 29.1998Z" fill="#2F344C"/>
<path d="M61.5479 37.2064H51.2897C49.9945 37.2064 48.9453 38.2562 48.9453 39.5508C48.9453 40.8459 49.9945 41.8958 51.2897 41.8958H61.5479C62.8424 41.8958 63.8922 40.8459 63.8922 39.5508C63.8922 38.2562 62.8424 37.2064 61.5479 37.2064Z" fill="#2F344C"/>
</svg>
