<svg width="250" height="250" viewBox="0 0 250 250" fill="none" xmlns="http://www.w3.org/2000/svg">
<path d="M250 125C250 194.036 194.036 250 125 250C55.9636 250 0 194.036 0 125C0 55.9636 55.9636 0 125 0C194.036 0 250 55.9636 250 125Z" fill="#D1E6FF"/>
<g clip-path="url(#clip0)">
<path fill-rule="evenodd" clip-rule="evenodd" d="M19.5089 79.4514L112.302 25.8772L205.095 79.4514C209.751 82.1487 215.713 80.5603 218.411 75.903C221.108 71.2462 219.52 65.2843 214.862 62.587L117.299 6.2588C114.361 4.5078 110.588 4.35741 107.418 6.19337L9.7412 62.587C5.08392 65.2843 3.49553 71.2462 6.19282 75.903C8.89011 80.5598 14.8521 82.1487 19.5089 79.4514Z" fill="#D1E6FF"/>
<path fill-rule="evenodd" clip-rule="evenodd" d="M112.302 25.877L19.5088 79.4512V186.278H87.8869V117.918H136.716V186.278H148.486C153.104 164.112 172.751 147.46 196.288 147.46C199.295 147.46 202.238 147.731 205.095 148.252V79.4507L112.302 25.877ZM112.302 64.2064C120.392 64.2064 126.95 70.7646 126.95 78.855C126.95 86.9454 120.392 93.5036 112.302 93.5036C104.211 93.5036 97.6531 86.9454 97.6531 78.855C97.6531 70.7646 104.211 64.2064 112.302 64.2064Z" fill="white"/>
<path d="M112.302 93.5031C120.392 93.5031 126.95 86.9447 126.95 78.8546C126.95 70.7645 120.392 64.2062 112.302 64.2062C104.212 64.2062 97.6533 70.7645 97.6533 78.8546C97.6533 86.9447 104.212 93.5031 112.302 93.5031Z" fill="#1AACFF"/>
<path fill-rule="evenodd" clip-rule="evenodd" d="M87.8867 117.919H136.716V186.279H87.8867V117.919Z" fill="#FA4B5F"/>
<path fill-rule="evenodd" clip-rule="evenodd" d="M196.288 147.46C172.751 147.46 153.104 164.112 148.486 186.279C147.813 189.51 147.459 192.858 147.459 196.288C147.459 199.719 147.813 203.067 148.486 206.298C153.104 228.464 172.751 245.117 196.288 245.117C223.255 245.117 245.116 223.256 245.116 196.288C245.116 172.328 227.858 152.398 205.094 148.252C202.238 147.732 199.294 147.46 196.288 147.46Z" fill="#1ACA8E"/>
<path fill-rule="evenodd" clip-rule="evenodd" d="M148.486 186.279H136.716H87.887H19.5089C14.0035 186.279 9.49902 190.783 9.49902 196.289C9.49902 201.794 14.0035 206.298 19.5089 206.298H148.486C147.813 203.067 147.459 199.719 147.459 196.289C147.459 192.858 147.813 189.51 148.486 186.279Z" fill="#D1E6FF"/>
<path fill-rule="evenodd" clip-rule="evenodd" d="M171.142 202.462C167.329 198.649 167.329 192.466 171.142 188.653C174.955 184.84 181.138 184.84 184.951 188.653L190.694 194.396L207.623 177.466C211.436 173.653 217.619 173.653 221.433 177.466C225.246 181.279 225.246 187.463 221.433 191.276L197.598 215.11C193.785 218.923 187.602 218.923 183.789 215.11L171.142 202.462Z" fill="white"/>
<path d="M209.978 144.348V85.6489C211.234 85.6469 212.499 85.4853 213.745 85.1533C217.521 84.1474 220.678 81.7314 222.636 78.35C226.679 71.3709 224.289 62.4035 217.304 58.3581L119.767 2.04504C115.214 -0.652255 109.548 -0.683017 104.977 1.96447L7.29438 58.3615C0.314817 62.404 -2.07437 71.3709 1.96766 78.3505C3.92569 81.7314 7.08344 84.1479 10.8589 85.1538C12.1055 85.4858 13.3701 85.6503 14.626 85.6523V182.223C8.80562 184.249 4.61613 189.787 4.61613 196.289C4.61613 204.501 11.2969 211.182 19.5089 211.182H144.68C151.152 233.577 171.837 250.001 196.288 250.001C225.905 250.001 250 225.906 250 196.289C250 171.402 232.985 150.416 209.978 144.348ZM10.4184 73.4559C9.07516 71.136 9.86911 68.156 12.1831 66.8157L109.866 10.4187C111.391 9.53534 113.282 9.54804 114.8 10.4533C114.819 10.4646 114.839 10.4763 114.858 10.4875L212.416 66.8123C214.735 68.1555 215.529 71.136 214.186 73.4559C213.535 74.5794 212.485 75.3822 211.23 75.7166C209.976 76.0506 208.666 75.8763 207.536 75.2225L114.744 21.6487C113.233 20.7767 111.372 20.7767 109.861 21.6487L82.4938 37.4492C80.1584 38.7973 79.3581 41.7837 80.7067 44.1192C82.0549 46.4547 85.0407 47.2545 87.3767 45.9063L112.302 31.5155L200.212 82.2704V142.721C198.916 142.627 197.608 142.577 196.288 142.577C171.837 142.577 151.152 159.001 144.68 181.396H141.599V117.919C141.599 115.222 139.413 113.036 136.717 113.036H87.8874C85.1906 113.036 83.0046 115.222 83.0046 117.919V181.396H24.3922V82.2704L49.3143 67.8816C51.6498 66.5335 52.4501 63.5471 51.1014 61.2116C49.7533 58.8757 46.7669 58.0759 44.4315 59.4245L17.062 75.2259C15.9385 75.8768 14.6294 76.0511 13.3735 75.7166C12.1186 75.3827 11.0693 74.5799 10.4184 73.4559ZM131.834 181.396H92.7703V122.802H131.834V181.396ZM19.5093 201.416C16.6822 201.416 14.3823 199.116 14.3823 196.289C14.3823 193.461 16.6822 191.162 19.5093 191.162H142.823C142.662 192.85 142.577 194.559 142.577 196.289C142.577 198.018 142.662 199.728 142.823 201.416H19.5093ZM196.288 240.234C172.057 240.234 152.343 220.52 152.343 196.289C152.343 172.057 172.057 152.343 196.288 152.343C220.52 152.343 240.234 172.057 240.234 196.289C240.234 220.52 220.52 240.234 196.288 240.234Z" fill="black"/>
<path d="M112.302 98.3857C123.071 98.3857 131.833 89.624 131.833 78.8545C131.833 68.085 123.071 59.3232 112.302 59.3232C101.532 59.3232 92.7705 68.085 92.7705 78.8545C92.7705 89.624 101.532 98.3857 112.302 98.3857ZM112.302 69.0889C117.687 69.0889 122.067 73.4697 122.067 78.8545C122.067 84.2393 117.687 88.6201 112.302 88.6201C106.917 88.6201 102.536 84.2393 102.536 78.8545C102.536 73.4697 106.917 69.0889 112.302 69.0889Z" fill="black"/>
<path d="M65.9048 57.5468C68.6016 57.5468 70.7876 55.3607 70.7876 52.6639C70.7876 49.9672 68.6016 47.7811 65.9048 47.7811H65.9014C63.2046 47.7811 61.0205 49.9672 61.0205 52.6639C61.0205 55.3607 63.208 57.5468 65.9048 57.5468Z" fill="black"/>
<path d="M224.886 174.014C222.119 171.247 218.441 169.724 214.528 169.724C210.616 169.724 206.938 171.248 204.171 174.014L190.694 187.491L188.404 185.201C185.638 182.434 181.959 180.911 178.047 180.911C174.134 180.911 170.456 182.434 167.689 185.201C161.979 190.912 161.979 200.205 167.689 205.916L180.337 218.563C183.103 221.33 186.782 222.853 190.694 222.853C194.607 222.853 198.285 221.329 201.052 218.563L224.886 194.729C227.653 191.962 229.176 188.284 229.176 184.371C229.176 180.459 227.653 176.781 224.886 174.014ZM217.98 187.823L194.146 211.657C193.224 212.579 191.998 213.087 190.694 213.087C189.391 213.087 188.164 212.579 187.243 211.657L174.595 199.01C172.692 197.106 172.692 194.009 174.595 192.106C175.517 191.184 176.743 190.676 178.047 190.676C179.351 190.676 180.577 191.184 181.499 192.106L187.242 197.849C189.148 199.755 192.24 199.755 194.147 197.849L211.077 180.919C212.98 179.016 216.077 179.015 217.981 180.919C218.903 181.841 219.41 183.067 219.41 184.371C219.41 185.676 218.903 186.901 217.98 187.823Z" fill="black"/>
</g>
<defs>
<clipPath id="clip0">
<rect width="250" height="250" fill="white"/>
</clipPath>
</defs>
</svg>
