<svg width="8" height="12" viewBox="0 0 8 12" fill="none" xmlns="http://www.w3.org/2000/svg">
<path fill-rule="evenodd" clip-rule="evenodd" d="M7.0293 5.83633C7.0293 5.61669 6.95579 5.42842 6.80877 5.27153L1.57126 0.235336C1.38748 0.0784433 1.17615 0 0.937239 0C0.698336 0 0.487001 0.0784433 0.303226 0.235336C-0.101075 0.580498 -0.101075 0.941341 0.303226 1.31788L4.98942 5.83633L0.303226 10.3077C0.119451 10.4646 0.0275676 10.645 0.0275676 10.849C0.0275676 11.053 0.119451 11.2334 0.303226 11.3903C0.707528 11.7668 1.1302 11.7668 1.57126 11.3903L6.80877 6.35407C6.95579 6.19718 7.0293 6.0246 7.0293 5.83633Z" fill="#747888"/>
</svg>
