<svg width="20" height="20" viewBox="0 0 20 20" fill="none" xmlns="http://www.w3.org/2000/svg">
<path d="M0.567525 17.2229L2.64418 19.3293C3.40862 20.1048 4.65678 20.1135 5.43204 19.3495L9.96604 14.8795L14.4343 19.4126C15.1992 20.1881 16.4474 20.1968 17.2224 19.4323L19.3279 17.3571C20.1034 16.5927 20.1126 15.3445 19.3476 14.5685L14.8791 10.0355L19.4136 5.56603C20.1886 4.80158 20.1982 3.55343 19.4328 2.77744L17.3572 0.670966C16.5923 -0.10398 15.3442 -0.113199 14.5691 0.650764L10.0344 5.12079L5.56608 0.587274C4.80115 -0.187752 3.55292 -0.196891 2.77773 0.567073L0.67246 2.64268C-0.103048 3.40761 -0.112427 4.65528 0.652258 5.43127L5.12101 9.96479L0.587726 14.4353C-0.187781 15.1993 -0.19716 16.4479 0.567525 17.2229Z" fill="#C4C4C4"/>
</svg>
