<svg width="48" height="48" viewBox="0 0 48 48" fill="none" xmlns="http://www.w3.org/2000/svg">
<path d="M35.3438 19.7812C28.3687 19.7812 22.6875 25.4625 22.6875 32.4375C22.6875 39.4125 28.3687 45.0938 35.3438 45.0938C42.3188 45.0938 48 39.4125 48 32.4375C48 25.4625 42.3188 19.7812 35.3438 19.7812ZM33.9375 31.0312H36.75C39.075 31.0312 40.9688 32.925 40.9688 35.25C40.9688 37.575 39.075 39.4688 36.75 39.4688V42.2812H33.9375V39.4688C31.6125 39.4688 29.7188 37.575 29.7188 35.25H32.5312C32.5312 36.0281 33.1594 36.6562 33.9375 36.6562H36.75C37.5281 36.6562 38.1562 36.0281 38.1562 35.25C38.1562 34.4719 37.5281 33.8438 36.75 33.8438H33.9375C31.6125 33.8438 29.7188 31.95 29.7188 29.625C29.7188 27.3 31.6125 25.4062 33.9375 25.4062V22.5938H36.75V25.4062C39.075 25.4062 40.9688 27.3 40.9688 29.625H38.1562C38.1562 28.8469 37.5281 28.2188 36.75 28.2188H33.9375C33.1594 28.2188 32.5312 28.8469 32.5312 29.625C32.5312 30.4031 33.1594 31.0312 33.9375 31.0312Z" fill="#FF4D61"/>
<path d="M0 9.9375H22.6875V14.1562H0V9.9375Z" fill="#5D6174"/>
<path d="M2.8125 2.90625H25.5V7.125H2.8125V2.90625Z" fill="#5D6174"/>
<path d="M2.8125 31.0312V35.25H20.1469C19.9781 34.3406 19.875 33.4031 19.875 32.4375C19.875 31.9594 19.9031 31.4906 19.95 31.0312H2.8125Z" fill="#5D6174"/>
<path d="M22.3969 24H0V28.2188H20.475C20.9062 26.7094 21.5531 25.2844 22.3969 24Z" fill="#5D6174"/>
<path d="M2.8125 21.1875H24.7594C25.0031 20.9625 25.2469 20.7281 25.5 20.5125V16.9688H2.8125V21.1875Z" fill="#5D6174"/>
</svg>
