<svg width="80" height="80" viewBox="0 0 80 80" fill="none" xmlns="http://www.w3.org/2000/svg">
<path d="M66.6666 34.1663C66.6399 34.1663 66.6132 34.1663 66.5866 34.1663C65.9466 34.143 65.3499 33.8297 64.9666 33.3197L61.3532 28.4997H60.4566C57.7232 28.4997 55.4966 26.2763 55.4966 23.5397V10.7897C55.4966 8.05634 57.7199 5.83301 60.4566 5.83301H73.7066C76.4399 5.83301 78.6666 8.05634 78.6666 10.7897V23.5397C78.6666 26.273 76.4432 28.4997 73.7066 28.4997H72.5866L68.2632 33.4397C67.8632 33.903 67.2766 34.1663 66.6666 34.1663Z" fill="white"/>
<path d="M12.5002 34.1663C12.4735 34.1663 12.4468 34.1663 12.4202 34.1663C11.7802 34.143 11.1835 33.8297 10.8002 33.3197L7.18683 28.4997H6.2935C3.55683 28.4997 1.3335 26.2763 1.3335 23.5397V10.7897C1.3335 8.05634 3.55683 5.83301 6.2935 5.83301H19.5435C22.2768 5.83301 24.5002 8.05634 24.5002 10.7897V23.5397C24.5002 26.273 22.2768 28.4997 19.5435 28.4997H18.4235L14.1002 33.4397C13.6968 33.903 13.1102 34.1663 12.5002 34.1663Z" fill="white"/>
<path d="M40 30.8333C39.9733 30.8333 39.9467 30.8333 39.92 30.8333C39.28 30.81 38.6833 30.4967 38.3 29.9867L34.6867 25.1667H27.9567C25.2233 25.1667 23 22.9433 23 20.2067V7.45667C23 4.72333 25.2233 2.5 27.9567 2.5H52.04C54.7733 2.5 57 4.72333 57 7.45667V20.2067C57 22.94 54.7767 25.1667 52.04 25.1667H45.92L41.6 30.1067C41.1967 30.57 40.61 30.8333 40 30.8333Z" fill="#DFEAEF"/>
<path d="M13.3334 54.7133C15.9366 54.7133 18.0468 52.6031 18.0468 50C18.0468 47.3968 15.9366 45.2866 13.3334 45.2866C10.7303 45.2866 8.62012 47.3968 8.62012 50C8.62012 52.6031 10.7303 54.7133 13.3334 54.7133Z" fill="#DFEAEF"/>
<path d="M66.6667 54.1668C68.9678 54.1668 70.8333 52.3013 70.8333 50.0002C70.8333 47.699 68.9678 45.8335 66.6667 45.8335C64.3655 45.8335 62.5 47.699 62.5 50.0002C62.5 52.3013 64.3655 54.1668 66.6667 54.1668Z" fill="#DFEAEF"/>
<path d="M40 55.833C44.1421 55.833 47.5 52.4751 47.5 48.333C47.5 44.1909 44.1421 40.833 40 40.833C35.8579 40.833 32.5 44.1909 32.5 48.333C32.5 52.4751 35.8579 55.833 40 55.833Z" fill="white"/>
<path d="M49.1665 65.8335H30.8332C27.1498 65.8335 24.1665 68.8168 24.1665 72.5002V80.0002H55.8332V72.5002C55.8332 68.8168 52.8498 65.8335 49.1665 65.8335Z" fill="white"/>
<path d="M17.5 62.5H9.16667C5.48333 62.5 2.5 65.4833 2.5 69.1667V73.3333H24.1667V69.1667C24.1667 65.4833 21.1833 62.5 17.5 62.5Z" fill="#DFEAEF"/>
<path d="M70.8335 62.5H62.5002C58.8168 62.5 55.8335 65.4833 55.8335 69.1667V73.3333H77.5002V69.1667C77.5002 65.4833 74.5168 62.5 70.8335 62.5Z" fill="#DFEAEF"/>
<path d="M40 33.3333C39.97 33.3333 39.9367 33.3333 39.9067 33.3333C39.1533 33.3033 38.4533 32.9367 38 32.3333L33.75 26.6667H25.8333C22.6167 26.6667 20 24.05 20 20.8333V5.83333C20 2.61667 22.6167 0 25.8333 0H54.1667C57.3833 0 60 2.61667 60 5.83333V20.8333C60 24.05 57.3833 26.6667 54.1667 26.6667H46.9667L41.88 32.48C41.4067 33.0233 40.72 33.3333 40 33.3333ZM25.8333 5C25.3733 5 25 5.37333 25 5.83333V20.8333C25 21.2933 25.3733 21.6667 25.8333 21.6667H35C35.7867 21.6667 36.5267 22.0367 37 22.6667L40.15 26.8667L43.9533 22.5233C44.4267 21.9767 45.1133 21.6667 45.8333 21.6667H54.1667C54.6267 21.6667 55 21.2933 55 20.8333V5.83333C55 5.37333 54.6267 5 54.1667 5H25.8333Z" fill="#5D6174"/>
<path d="M66.6663 36.6663C66.6329 36.6663 66.5996 36.6663 66.5696 36.6663C65.8129 36.6363 65.1129 36.2663 64.6629 35.663L62.0296 32.1297C61.2029 31.023 61.4329 29.4563 62.5396 28.6297C63.6496 27.803 65.2129 28.0363 66.0396 29.1397L66.8229 30.193L70.6196 25.8563C71.093 25.3097 71.7796 24.9997 72.4996 24.9997H74.1663C74.6196 24.9997 74.9996 24.6197 74.9996 24.1663V9.16634C74.9996 8.71301 74.6196 8.33301 74.1663 8.33301H69.1663C67.7863 8.33301 66.6663 7.21301 66.6663 5.83301C66.6663 4.45301 67.7863 3.33301 69.1663 3.33301H74.1663C77.383 3.33301 79.9996 5.94967 79.9996 9.16634V24.1663C79.9996 27.383 77.383 29.9997 74.1663 29.9997H73.633L68.5463 35.813C68.0729 36.3563 67.3863 36.6663 66.6663 36.6663Z" fill="#5D6174"/>
<path d="M13.3333 36.6663C12.6133 36.6663 11.9267 36.3563 11.4533 35.813L6.36667 29.9997H5.83333C2.61667 29.9997 0 27.383 0 24.1663V9.16634C0 5.94967 2.61667 3.33301 5.83333 3.33301H10.8333C12.2133 3.33301 13.3333 4.45301 13.3333 5.83301C13.3333 7.21301 12.2133 8.33301 10.8333 8.33301H5.83333C5.38 8.33301 5 8.71301 5 9.16634V24.1663C5 24.6197 5.38 24.9997 5.83333 24.9997H7.5C8.22 24.9997 8.90667 25.3097 9.38 25.853L13.1767 30.1897L13.96 29.1363C14.7867 28.033 16.35 27.7997 17.46 28.6263C18.5667 29.453 18.7967 31.0197 17.97 32.1263L15.3367 35.6597C14.8867 36.2663 14.1867 36.6363 13.43 36.6663C13.4 36.6663 13.3667 36.6663 13.3333 36.6663Z" fill="#5D6174"/>
<path d="M66.6667 56.6663C62.99 56.6663 60 53.6763 60 49.9997C60 46.323 62.99 43.333 66.6667 43.333C70.3433 43.333 73.3333 46.323 73.3333 49.9997C73.3333 53.6763 70.3433 56.6663 66.6667 56.6663ZM66.6667 48.333C65.7467 48.333 65 49.0797 65 49.9997C65 50.9197 65.7467 51.6663 66.6667 51.6663C67.5867 51.6663 68.3333 50.9197 68.3333 49.9997C68.3333 49.0797 67.5867 48.333 66.6667 48.333Z" fill="#5D6174"/>
<path d="M77.5 73.3333C76.12 73.3333 75 72.2133 75 70.8333V69.1667C75 66.87 73.13 65 70.8333 65H62.5C61.12 65 60 63.88 60 62.5C60 61.12 61.12 60 62.5 60H70.8333C75.89 60 80 64.11 80 69.1667V70.8333C80 72.2133 78.88 73.3333 77.5 73.3333Z" fill="#5D6174"/>
<path d="M13.3332 56.6663C9.6565 56.6663 6.6665 53.6763 6.6665 49.9997C6.6665 46.323 9.6565 43.333 13.3332 43.333C17.0098 43.333 19.9998 46.323 19.9998 49.9997C19.9998 53.6763 17.0098 56.6663 13.3332 56.6663ZM13.3332 48.333C12.4132 48.333 11.6665 49.0797 11.6665 49.9997C11.6665 50.9197 12.4132 51.6663 13.3332 51.6663C14.2532 51.6663 14.9998 50.9197 14.9998 49.9997C14.9998 49.0797 14.2532 48.333 13.3332 48.333Z" fill="#5D6174"/>
<path d="M2.5 73.3333C1.12 73.3333 0 72.2133 0 70.8333V69.1667C0 64.11 4.11 60 9.16667 60H17.5C18.88 60 20 61.12 20 62.5C20 63.88 18.88 65 17.5 65H9.16667C6.87 65 5 66.87 5 69.1667V70.8333C5 72.2133 3.88 73.3333 2.5 73.3333Z" fill="#5D6174"/>
<path d="M40 58.333C34.4867 58.333 30 53.8463 30 48.333C30 42.8197 34.4867 38.333 40 38.333C45.5133 38.333 50 42.8197 50 48.333C50 53.8463 45.5133 58.333 40 58.333ZM40 43.333C37.2433 43.333 35 45.5763 35 48.333C35 51.0897 37.2433 53.333 40 53.333C42.7567 53.333 45 51.0897 45 48.333C45 45.5763 42.7567 43.333 40 43.333Z" fill="#5D6174"/>
<path d="M55.8332 80.0002C54.4532 80.0002 53.3332 78.8802 53.3332 77.5002V72.5002C53.3332 70.2035 51.4632 68.3335 49.1665 68.3335H30.8332C28.5365 68.3335 26.6665 70.2035 26.6665 72.5002V77.5002C26.6665 78.8802 25.5465 80.0002 24.1665 80.0002C22.7865 80.0002 21.6665 78.8802 21.6665 77.5002V72.5002C21.6665 67.4435 25.7765 63.3335 30.8332 63.3335H49.1665C54.2232 63.3335 58.3332 67.4435 58.3332 72.5002V77.5002C58.3332 78.8802 57.2132 80.0002 55.8332 80.0002Z" fill="#5D6174"/>
</svg>
