<svg width="80" height="80" viewBox="0 0 80 80" fill="none" xmlns="http://www.w3.org/2000/svg">
<path d="M15.7912 16.892H56.5596C57.814 16.892 58.831 15.875 58.831 14.6206C58.831 13.3661 57.814 12.3491 56.5596 12.3491H15.7912C14.5368 12.3491 13.5198 13.3661 13.5198 14.6206C13.5198 15.875 14.5368 16.892 15.7912 16.892Z" fill="#2F344C"/>
<path d="M34.8278 50.4184H15.7912C14.5368 50.4184 13.5198 51.4354 13.5198 52.6899C13.5198 53.9443 14.5368 54.9613 15.7912 54.9613H34.8278C36.0823 54.9613 37.0993 53.9443 37.0993 52.6899C37.0993 51.4354 36.0823 50.4184 34.8278 50.4184Z" fill="#2F344C"/>
<path d="M34.8278 63.1079H15.7912C14.5368 63.1079 13.5198 64.1249 13.5198 65.3794C13.5198 66.6338 14.5368 67.6508 15.7912 67.6508H34.8278C36.0823 67.6508 37.0993 66.6338 37.0993 65.3794C37.0993 64.1249 36.0823 63.1079 34.8278 63.1079Z" fill="#2F344C"/>
<path d="M67.1948 16.6495V7.66116C67.1948 3.43686 63.758 0 59.5337 0H12.8172C8.59287 0 5.15601 3.43686 5.15601 7.66116V72.3388C5.15601 76.5631 8.59287 80 12.8172 80H59.5337C63.758 80 67.1948 76.5631 67.1948 72.3388V46.2535L74.3954 26.4703C76.1859 21.5497 72.3831 16.4169 67.1948 16.6495ZM62.6522 72.3388H62.6519C62.6519 74.0582 61.253 75.4571 59.5337 75.4571H12.8172C11.0978 75.4571 9.69891 74.0582 9.69891 72.3388V7.66116C9.69891 5.94182 11.0978 4.54291 12.8172 4.54291H59.5337C61.253 4.54291 62.6519 5.94182 62.6519 7.66116V18.4887C60.8484 20.0839 60.6358 21.4459 58.7363 26.6641C58.4576 25.7247 57.5893 25.0387 56.5593 25.0387H15.7913C14.5368 25.0387 13.5198 26.0557 13.5198 27.3101C13.5198 28.5646 14.5368 29.5816 15.7913 29.5816H56.5596C57.0227 29.5816 57.4527 29.4423 57.8119 29.2045L54.7094 37.7285H15.7913C14.5368 37.7285 13.5198 38.7456 13.5198 40C13.5198 41.2544 14.5368 42.2715 15.7913 42.2715H53.0558L48.1189 55.836C47.9641 56.2612 47.9399 56.723 48.0495 57.1622L50.2356 65.9288C50.625 67.49 52.4746 68.1609 53.7748 67.2169L61.0846 61.9062C61.8039 61.3835 61.8654 60.8971 62.6522 58.7346V72.3388ZM70.1262 24.9166L62.7888 45.0759V45.0762L57.8522 58.6392L53.8284 61.5625L52.6251 56.7367L64.8995 23.0144C65.4219 21.5782 67.0216 20.8271 68.4641 21.352C69.9085 21.8774 70.6523 23.472 70.1262 24.9166Z" fill="#2F344C"/>
</svg>
