<svg width="70" height="70" viewBox="0 0 70 70" fill="none" xmlns="http://www.w3.org/2000/svg">
<g clip-path="url(#clip0)">
<path d="M50.8063 14.6773V68.8708H1.12891V1.12891H38.387V14.6773H50.8063Z" fill="#E0E0E2"/>
<path d="M60.8755 18.6738L41.7734 50.8772L44.5756 52.5145L63.7366 20.3547L60.8755 18.6738Z" fill="#FF6243"/>
<path d="M44.5762 52.5152L47.4462 54.1939L66.5868 21.9399L63.7372 20.3555L44.5762 52.5152Z" fill="#AB2300"/>
<path d="M63.1879 14.7764L60.877 18.674L63.7381 20.3548V20.3537V20.3548L66.5877 21.9392L68.8458 18.1342L63.1879 14.7764Z" fill="#ACABB1"/>
<path d="M50.8061 14.6773L38.3867 1.12891V14.6773H50.8061Z" fill="#ACABB1"/>
<path d="M16.9364 6.77441L9.0332 13.5486H24.8397L16.9364 6.77441Z" fill="#D80027"/>
<path d="M40.7148 58.71L47.446 54.1939L41.7739 50.8779L40.7148 58.71Z" fill="#FFDA44"/>
<path d="M9.03138 21.4518C8.40787 21.4518 7.90234 21.9574 7.90234 22.5809C7.90234 23.2044 8.40787 23.7099 9.03138 23.7099H24.8378C25.4613 23.7099 25.9669 23.2044 25.9669 22.5809C25.9669 21.9574 25.4613 21.4518 24.8378 21.4518H22.5798V14.6776H24.8378C25.3097 14.6771 25.732 14.3827 25.8957 13.94C26.0595 13.4968 25.9299 12.999 25.5716 12.6919L17.6684 5.91772C17.2461 5.55607 16.6231 5.55607 16.2008 5.91772L8.29762 12.6919C7.93928 12.999 7.80973 13.4968 7.97346 13.94C8.13719 14.3827 8.55948 14.6771 9.03138 14.6776H11.2894V21.4518H9.03138ZM16.9346 8.26123L21.7892 12.4196H12.08L16.9346 8.26123ZM13.5475 14.6776H20.3217V21.4518H13.5475V14.6776Z" fill="black"/>
<path d="M9.03138 31.6126H42.9023C43.5258 31.6126 44.0314 31.107 44.0314 30.4835C44.0314 29.86 43.5258 29.3545 42.9023 29.3545H9.03138C8.40787 29.3545 7.90234 29.86 7.90234 30.4835C7.90234 31.107 8.40787 31.6126 9.03138 31.6126Z" fill="black"/>
<path d="M9.03138 40.6448H29.354C29.9775 40.6448 30.483 40.1393 30.483 39.5158C30.483 38.8922 29.9775 38.3867 29.354 38.3867H9.03138C8.40787 38.3867 7.90234 38.8922 7.90234 39.5158C7.90234 40.1393 8.40787 40.6448 9.03138 40.6448Z" fill="black"/>
<path d="M33.8701 47.4189H9.03138C8.40787 47.4189 7.90234 47.9245 7.90234 48.548C7.90234 49.1715 8.40787 49.677 9.03138 49.677H33.8701C34.4936 49.677 34.9991 49.1715 34.9991 48.548C34.9991 47.9245 34.4936 47.4189 33.8701 47.4189Z" fill="black"/>
<path d="M19.1927 56.4512H9.03138C8.40787 56.4512 7.90234 56.9567 7.90234 57.5802C7.90234 58.2037 8.40787 58.7092 9.03138 58.7092H19.1927C19.8162 58.7092 20.3217 58.2037 20.3217 57.5802C20.3217 56.9567 19.8162 56.4512 19.1927 56.4512Z" fill="black"/>
<path d="M37.2584 38.3867H32.7423C32.1188 38.3867 31.6133 38.8922 31.6133 39.5158C31.6133 40.1393 32.1188 40.6448 32.7423 40.6448H37.2584C37.8819 40.6448 38.3875 40.1393 38.3875 39.5158C38.3875 38.8922 37.8819 38.3867 37.2584 38.3867Z" fill="black"/>
<path d="M69.4206 17.1615L63.7644 13.8047C63.507 13.6504 63.1988 13.6063 62.9088 13.6818C62.6177 13.7551 62.3686 13.9409 62.2153 14.1989L51.9355 31.533V14.6774C51.9344 14.5319 51.9052 14.3885 51.8495 14.254C51.823 14.2022 51.7927 14.1526 51.758 14.1063C51.7249 14.0385 51.6847 13.974 51.6383 13.9144L39.219 0.366053C39.2135 0.359989 39.2058 0.357784 39.2002 0.352271C39.117 0.271784 39.0227 0.203975 38.9202 0.151052C38.8893 0.135616 38.8656 0.108603 38.8342 0.0937184C38.6931 0.0325259 38.5409 0.000551285 38.3871 0H1.12903C0.505529 0 0 0.505529 0 1.12903V68.871C0 69.4945 0.505529 70 1.12903 70H50.8064C51.43 70 51.9355 69.4945 51.9355 68.871V48.8417L69.8159 18.7101C69.9691 18.4526 70.0138 18.1445 69.9399 17.8539C69.8655 17.5634 69.6792 17.3142 69.4206 17.1615ZM64.9927 22.4103L47.0478 52.6522L46.1839 52.1466L64.1288 21.9031L64.9927 22.4103ZM42.6662 52.7067L45.3228 54.2592L42.1717 56.3739L42.6662 52.7067ZM44.2335 51.0077L43.3299 50.4757L61.2781 20.2096L62.1894 20.7504L44.2335 51.0077ZM39.5161 4.03045L48.2402 13.5484H39.5161V4.03045ZM49.6774 67.7419H2.25806V2.25806H37.2581V14.6774C37.2581 15.3009 37.7636 15.8065 38.3871 15.8065H49.6774V35C49.6846 35.086 49.7017 35.1709 49.7281 35.253L40.8034 50.3004C40.7731 50.366 40.7494 50.4338 40.7334 50.5038C40.7014 50.5733 40.6766 50.6455 40.6589 50.7193L39.5999 58.5515C39.5393 58.9925 39.7438 59.4275 40.1214 59.6628C40.4991 59.8977 40.9792 59.8894 41.3486 59.6413L48.0798 55.1252C48.0936 55.1158 48.1002 55.0988 48.1123 55.0899C48.2325 55.0045 48.335 54.8964 48.4139 54.7718L48.4221 54.7625L49.6774 52.6477V67.7419ZM66.1454 20.4703L64.3151 19.3843L62.4353 18.2668L63.5869 16.3247L67.3026 18.5298L66.1454 20.4703Z" fill="black"/>
</g>
<defs>
<clipPath id="clip0">
<rect width="70" height="70" fill="white"/>
</clipPath>
</defs>
</svg>
