<svg width="40" height="40" viewBox="0 0 40 40" fill="none" xmlns="http://www.w3.org/2000/svg">
<g clip-path="url(#clip0)">
<path d="M37.8858 18.8576L19.8205 0.586243L2.11328 18.8576L19.9995 35.6605L37.8858 18.8576Z" fill="#5D6174"/>
<path d="M32.6876 30.6909H7.4632C6.24625 30.6909 5.25977 29.7044 5.25977 28.4874V2.78968C5.25977 1.57273 6.24625 0.586243 7.4632 0.586243H32.6876C33.9045 0.586243 34.891 1.57273 34.891 2.78968V28.4875C34.891 29.7044 33.9045 30.6909 32.6876 30.6909Z" fill="white"/>
<path d="M38.0249 19.1713V37.1571C38.0249 38.4038 37.0142 39.4137 35.7683 39.4137H4.23125C2.98531 39.4137 1.97461 38.4038 1.97461 37.1571V19.1791C1.97461 18.8477 2.33422 18.6413 2.62102 18.8078L19.6284 28.7067C19.6503 28.7192 19.673 28.7309 19.6965 28.741C19.9122 28.8388 20.1631 28.8278 20.371 28.7067L21.1691 28.2424L37.3855 18.8039C37.6693 18.639 38.0249 18.843 38.0249 19.1713Z" fill="#DFE2E7"/>
<path d="M23.4793 11.171H16.6725C16.2935 11.171 15.9863 10.8639 15.9863 10.4849V6.03932C15.9863 5.66034 16.2935 5.35315 16.6725 5.35315H23.4794C23.8584 5.35315 24.1655 5.66034 24.1655 6.03932V10.4849C24.1655 10.8639 23.8583 11.171 23.4793 11.171Z" fill="#DFE2E7"/>
<path d="M23.8257 22.5782H16.3223C15.9986 22.5782 15.7363 22.8405 15.7363 23.1642C15.7363 23.4879 15.9986 23.7501 16.3223 23.7501H23.8257C24.1494 23.7501 24.4116 23.4879 24.4116 23.1642C24.4116 22.8405 24.1494 22.5782 23.8257 22.5782Z" fill="#5D6174"/>
<path d="M16.1875 18.6247V16.9632H17.2474C17.5711 16.9632 17.8334 16.7009 17.8334 16.3773C17.8334 16.0536 17.5711 15.7913 17.2474 15.7913H16.1875V14.7994H17.3895C17.7132 14.7994 17.9755 14.5371 17.9755 14.2134C17.9755 13.8898 17.7132 13.6275 17.3895 13.6275H15.6016C15.2779 13.6275 15.0156 13.8898 15.0156 14.2134V18.6247C15.0156 18.9484 15.2779 19.2106 15.6016 19.2106C15.9252 19.2106 16.1875 18.9484 16.1875 18.6247Z" fill="#5D6174"/>
<path d="M21.9442 14.7994C22.2679 14.7994 22.5302 14.5372 22.5302 14.2135C22.5302 13.8898 22.2679 13.6276 21.9442 13.6276H20.1562C19.8326 13.6276 19.5703 13.8898 19.5703 14.2135V18.6248C19.5703 18.9484 19.8326 19.2107 20.1562 19.2107C20.4799 19.2107 20.7422 18.9484 20.7422 18.6248V16.9633H21.8021C22.1258 16.9633 22.388 16.701 22.388 16.3773C22.388 16.0537 22.1258 15.7914 21.8021 15.7914H20.7422V14.7994H21.9442Z" fill="#5D6174"/>
<path d="M26.2382 14.7618C26.5619 14.7618 26.8241 14.4995 26.8241 14.1758C26.8241 13.8522 26.5619 13.5899 26.2382 13.5899H24.3828C24.0591 13.5899 23.7969 13.8522 23.7969 14.1758V18.579C23.7969 18.9027 24.0591 19.165 24.3828 19.165H26.2382C26.5619 19.165 26.8241 18.9027 26.8241 18.579C26.8241 18.2554 26.5619 17.9931 26.2382 17.9931H24.9688V16.9633H26.1014C26.4251 16.9633 26.6873 16.7011 26.6873 16.3774C26.6873 16.0537 26.4251 15.7915 26.1014 15.7915H24.9688V14.7618H26.2382Z" fill="#5D6174"/>
<path d="M32.1564 15.3105C32.1564 14.3506 31.3462 13.5697 30.3502 13.5697H29.1694C29.1691 13.5697 29.1689 13.5697 29.1687 13.5697C29.1684 13.5697 29.1682 13.5697 29.168 13.5697C28.8443 13.5697 28.582 13.832 28.582 14.1556V18.5995C28.582 18.9231 28.8443 19.1854 29.168 19.1854C29.4916 19.1854 29.7539 18.9231 29.7539 18.5995V17.4222L31.1307 18.9866C31.2465 19.1182 31.4083 19.1854 31.5708 19.1854C31.7083 19.1854 31.8463 19.1373 31.9576 19.0393C32.2005 18.8256 32.2241 18.4552 32.0104 18.2124L30.9123 16.9647C31.6337 16.7363 32.1564 16.0813 32.1564 15.3105ZM30.3501 15.8795C30.2116 15.8795 29.9807 15.8804 29.7601 15.8814C29.759 15.6667 29.7581 15.4438 29.7581 15.3104C29.7581 15.1966 29.7576 14.9667 29.7569 14.7415H30.3501C30.694 14.7415 30.9844 15.002 30.9844 15.3104C30.9845 15.6189 30.6941 15.8795 30.3501 15.8795Z" fill="#5D6174"/>
<path d="M10.6516 13.6113C9.10336 13.6113 7.84375 14.8709 7.84375 16.4191C7.84375 17.9673 9.10336 19.2269 10.6516 19.2269C12.1998 19.2269 13.4595 17.9673 13.4595 16.4191C13.4595 14.8709 12.1998 13.6113 10.6516 13.6113ZM10.6516 18.055C9.74945 18.055 9.01562 17.3211 9.01562 16.4191C9.01562 15.517 9.74953 14.7831 10.6516 14.7831C11.5536 14.7831 12.2876 15.517 12.2876 16.4191C12.2876 17.3211 11.5537 18.055 10.6516 18.055Z" fill="#5D6174"/>
<path d="M38.2842 18.427L35.4762 15.5874V2.78937C35.4762 1.25133 34.2248 0 32.6867 0H7.46242C5.92438 0 4.67297 1.25133 4.67297 2.78937V15.375L1.69273 18.45C1.68094 18.4622 1.67008 18.475 1.65953 18.4879C1.4868 18.6723 1.38867 18.9157 1.38867 19.1793V37.1574C1.38867 38.7248 2.66383 40 4.23133 40H35.7677C37.3352 40 38.6104 38.7248 38.6104 37.1574V19.171C38.6104 18.8811 38.4912 18.6157 38.2842 18.427ZM36.7207 18.5125L35.4762 19.2369V17.254L36.7207 18.5125ZM4.67297 19.3243L3.26922 18.5073L4.67297 17.0589V19.3243ZM37.4385 37.1574C37.4385 38.0787 36.689 38.8281 35.7677 38.8281H4.23133C3.31008 38.8281 2.56055 38.0787 2.56055 37.1574V19.4506L19.3333 29.2131C19.3335 29.2133 19.3338 29.2134 19.3341 29.2136L32.2278 36.7183C32.3205 36.7722 32.4219 36.7979 32.522 36.7979C32.7238 36.7979 32.9202 36.6936 33.029 36.5066C33.1917 36.227 33.097 35.8682 32.8173 35.7054L21.1644 28.9229L31.4847 22.9161C31.7644 22.7533 31.8591 22.3945 31.6964 22.1149C31.5335 21.8352 31.1748 21.7405 30.8952 21.9032L20.0763 28.2004C20.029 28.2278 19.9705 28.2279 19.923 28.2004L18.7855 27.5383C18.7853 27.5382 18.7851 27.538 18.7848 27.538L5.84484 20.0063V2.78937C5.84484 1.8975 6.57047 1.17188 7.46242 1.17188H32.6867C33.5786 1.17188 34.3042 1.8975 34.3042 2.78937V19.919L32.9673 20.6971C32.6877 20.8598 32.5929 21.2186 32.7556 21.4982C32.9185 21.778 33.2772 21.8726 33.5568 21.7099L35.1682 20.772C35.1704 20.7709 35.1725 20.7695 35.1747 20.7683L37.4385 19.4506V37.1574Z" fill="#5D6174"/>
<path d="M16.6706 11.7567H23.4775C24.179 11.7567 24.7496 11.186 24.7496 10.4846V6.03917C24.7496 5.33769 24.1789 4.76706 23.4775 4.76706H22.0213V4.14152C22.0213 3.38167 21.4032 2.76355 20.6434 2.76355H19.5047C18.7448 2.76355 18.1267 3.38167 18.1267 4.14152V4.76706H16.6705C15.9691 4.76706 15.3984 5.33777 15.3984 6.03917V10.4846C15.3985 11.1861 15.9692 11.7567 16.6706 11.7567ZM19.2987 4.14152C19.2987 4.02792 19.3912 3.93542 19.5048 3.93542H20.6434C20.757 3.93542 20.8495 4.02792 20.8495 4.14152V4.76706H19.2987V4.14152ZM16.5704 6.03917C16.5704 5.98386 16.6153 5.93894 16.6706 5.93894H23.4775C23.5328 5.93894 23.5777 5.98386 23.5777 6.03917V10.4846C23.5777 10.5399 23.5328 10.5849 23.4775 10.5849H16.6706C16.6153 10.5849 16.5704 10.5399 16.5704 10.4846V6.03917Z" fill="#5D6174"/>
</g>
<defs>
<clipPath id="clip0">
<rect width="40" height="40" fill="white"/>
</clipPath>
</defs>
</svg>
