<svg width="325" height="279" viewBox="0 0 325 279" fill="none" xmlns="http://www.w3.org/2000/svg">
<path d="M112.514 260.081L114.5 259.4V261.5V276V277.5H113H8H4.37862L6.93935 274.939L13.9394 267.939L14.7055 267.173L15.6737 267.66L16.5169 268.084C20.2622 269.966 24.8207 268.837 27.2547 265.425L27.4655 265.129L27.886 264.539L28.6092 264.502L42.4752 263.784C44.7309 263.667 46.5 261.804 46.5 259.545V257.328L48.5583 258.153L80.7289 271.055V252V247.942L83.3683 251.024L92.2232 261.367C94.4892 264.013 98.1409 265.009 101.437 263.879L112.514 260.081Z" fill="#ADEDD7" stroke="#24C991" stroke-width="3"/>
<path d="M242.636 266.642L241.683 266.195L240.939 266.939L232.939 274.939L230.379 277.5H234H295.5H300.045L296.393 274.795L282.893 264.795L281.979 264.117L281.08 264.815L280.414 265.332C277.116 267.893 272.446 267.679 269.396 264.828L262.524 258.404L261.431 257.382L260.407 258.473L253.87 265.434C251.353 268.114 247.399 268.872 244.07 267.313L242.636 266.642Z" fill="#ADEDD7" stroke="#24C991" stroke-width="3"/>
<path d="M218.385 269.236L217.697 269.019L217.098 269.422L209.163 274.755L205.079 277.5H210H271H275.698L271.869 274.778L264.369 269.444L263.849 269.074L263.222 269.193L253.846 270.962C251.74 271.36 249.562 270.947 247.747 269.807L238.074 263.73L237.222 263.194L236.403 263.78L229.057 269.038C226.884 270.593 224.107 271.036 221.558 270.234L218.385 269.236Z" fill="white" stroke="#24C991" stroke-width="3"/>
<path d="M76.5 277.5V30.1424L81.7283 23.5H97.2717L102.5 30.1424V277.5H98H81H76.5Z" fill="white" stroke="#9FA1AB" stroke-width="3"/>
<circle cx="150.5" cy="78.5" r="6" stroke="#9FA1AB" stroke-width="3"/>
<rect x="149" y="81" width="3" height="15" rx="1.5" fill="#9FA1AB"/>
<circle cx="257.5" cy="78.5" r="6" stroke="#9FA1AB" stroke-width="3"/>
<rect x="256" y="81" width="3" height="15" rx="1.5" fill="#9FA1AB"/>
<path d="M277.445 77.5L56.5549 77.5L50.5 72.3101V56.6899L56.5549 51.5L277.445 51.5L283.5 56.6899V72.3101L277.445 77.5Z" fill="white" stroke="#9FA1AB" stroke-width="3"/>
<path d="M57 53H277V76H57V53Z" fill="url(#paint0_linear)"/>
<path d="M101 30V50H78V30H101Z" fill="url(#paint1_linear)"/>
<path d="M78 276L78 79H101L101 276H78Z" fill="url(#paint2_linear)"/>
<g opacity="0.3">
<path opacity="0.3" d="M76.5 148.5L83.0711 141.929C84.9464 140.054 86 137.51 86 134.858V118.642C86 115.99 87.0536 113.446 88.9289 111.571L102 98.5" stroke="#9FA1AB" stroke-width="3" stroke-linecap="round"/>
<path opacity="0.3" d="M76.5 160L90.0711 146.429C91.9464 144.554 93 142.01 93 139.358V122.837C93 120.367 93.9144 117.984 95.5671 116.148L102 109" stroke="#9FA1AB" stroke-width="3" stroke-linecap="round"/>
</g>
<g opacity="0.3">
<path opacity="0.3" d="M163.5 52L170.071 58.5711C171.946 60.4464 174.49 61.5 177.142 61.5H193.358C196.01 61.5 198.554 62.5536 200.429 64.4289L213.5 77.5" stroke="#9FA1AB" stroke-width="3" stroke-linecap="round"/>
<path opacity="0.3" d="M220.231 68.8639L216.072 64.5L220.231 60.1361C221.835 58.4527 224.059 57.5 226.384 57.5H246.616C248.941 57.5 251.165 58.4527 252.769 60.1361L256.928 64.5L252.769 68.8639C251.165 70.5473 248.941 71.5 246.616 71.5H226.384C224.059 71.5 221.835 70.5473 220.231 68.8639Z" stroke="#9FA1AB" stroke-width="3" stroke-linecap="round"/>
<g opacity="0.3">
<mask id="path-17-inside-1" fill="white">
<path d="M245.101 66H227.899C226.153 66 224.447 65.4776 223 64.5C224.447 63.5224 226.153 63 227.899 63H245.101C246.847 63 248.553 63.5224 250 64.5C248.553 65.4776 246.847 66 245.101 66Z"/>
</mask>
<path d="M223 64.5L221.32 62.0142L217.641 64.5L221.32 66.9858L223 64.5ZM250 64.5L251.68 66.9858L255.359 64.5L251.68 62.0142L250 64.5ZM227.899 69H245.101V63H227.899V69ZM245.101 60H227.899V66H245.101V60ZM227.899 60C225.554 60 223.263 60.7015 221.32 62.0142L224.68 66.9858C225.63 66.3433 226.752 66 227.899 66V60ZM251.68 62.0142C249.737 60.7015 247.446 60 245.101 60V66C246.248 66 247.37 66.3433 248.32 66.9858L251.68 62.0142ZM245.101 69C247.446 69 249.737 68.2985 251.68 66.9858L248.32 62.0142C247.37 62.6567 246.248 63 245.101 63V69ZM221.32 66.9858C223.263 68.2985 225.554 69 227.899 69V63C226.752 63 225.63 62.6567 224.68 62.0142L221.32 66.9858Z" fill="#9FA1AB" mask="url(#path-17-inside-1)"/>
</g>
<path opacity="0.3" d="M84.1361 162.231L88.5 158.072L92.8639 162.231C94.5473 163.835 95.5 166.059 95.5 168.384V188.616C95.5 190.941 94.5473 193.165 92.8639 194.769L88.5 198.928L84.1361 194.769C82.4527 193.165 81.5 190.941 81.5 188.616V168.384C81.5 166.059 82.4527 163.835 84.1361 162.231Z" stroke="#9FA1AB" stroke-width="3" stroke-linecap="round"/>
<g opacity="0.3">
<mask id="path-20-inside-2" fill="white">
<path d="M87 187.101V169.899C87 168.153 87.5224 166.447 88.5 165C89.4776 166.447 90 168.153 90 169.899V187.101C90 188.847 89.4776 190.553 88.5 192C87.5224 190.553 87 188.847 87 187.101Z"/>
</mask>
<path d="M88.5 165L90.9858 163.32L88.5 159.641L86.0142 163.32L88.5 165ZM88.5 192L86.0142 193.68L88.5 197.359L90.9858 193.68L88.5 192ZM84 169.899V187.101H90V169.899H84ZM93 187.101V169.899H87V187.101H93ZM93 169.899C93 167.554 92.2985 165.263 90.9858 163.32L86.0142 166.68C86.6567 167.63 87 168.752 87 169.899H93ZM90.9858 193.68C92.2985 191.737 93 189.446 93 187.101H87C87 188.248 86.6567 189.37 86.0142 190.32L90.9858 193.68ZM84 187.101C84 189.446 84.7015 191.737 86.0142 193.68L90.9858 190.32C90.3433 189.37 90 188.248 90 187.101H84ZM86.0142 163.32C84.7015 165.263 84 167.554 84 169.899H90C90 168.752 90.3433 167.63 90.9858 166.68L86.0142 163.32Z" fill="#9FA1AB" mask="url(#path-20-inside-2)"/>
</g>
<path opacity="0.3" d="M152 52L165.571 65.5711C167.446 67.4464 169.99 68.5 172.642 68.5H189.163C191.633 68.5 194.016 69.4144 195.852 71.0671L203 77.5" stroke="#9FA1AB" stroke-width="3" stroke-linecap="round"/>
</g>
<g opacity="0.3">
<path opacity="0.3" d="M102 253L95.4289 246.429C93.5536 244.554 92.5 242.01 92.5 239.358V223.142C92.5 220.49 91.4464 217.946 89.5711 216.071L76.5 203" stroke="#9FA1AB" stroke-width="3" stroke-linecap="round"/>
<path opacity="0.3" d="M102 264.5L88.4289 250.929C86.5536 249.054 85.5 246.51 85.5 243.858V227.337C85.5 224.867 84.5856 222.484 82.9329 220.648L76.5 213.5" stroke="#9FA1AB" stroke-width="3" stroke-linecap="round"/>
</g>
<path d="M48.7161 264.682L47.613 264.083L46.8287 265.063L38.8287 275.063L36.8791 277.5H40H149H153.97L149.83 274.75L138.878 267.478L138.305 267.097L137.644 267.283L133.161 268.539C131.48 269.01 129.813 267.746 129.813 266V264.179L128.026 264.528L105.392 268.939C103.544 269.299 101.825 267.883 101.825 266V264.014L99.9147 264.557L81.3554 269.839C78.8064 270.565 76.2711 268.65 76.2711 266V263.478L74.055 264.682L65.4435 269.361C62.9129 270.736 59.8582 270.736 57.3276 269.361L48.7161 264.682Z" fill="white" stroke="#24C991" stroke-width="3"/>
<line x1="12.5" y1="277.5" x2="323.5" y2="277.5" stroke="#24C991" stroke-width="3" stroke-linecap="round"/>
<circle cx="148.18" cy="100.866" r="6" transform="rotate(61.739 148.18 100.866)" stroke="#9FA1AB" stroke-width="3"/>
<circle cx="198.84" cy="195.112" r="6" transform="rotate(61.739 198.84 195.112)" stroke="#9FA1AB" stroke-width="3"/>
<rect x="42.0314" y="127.274" width="97" height="160" rx="11.5" transform="rotate(-28.261 42.0314 127.274)" fill="#DADBDF" stroke="#9FA1AB" stroke-width="3"/>
<rect x="48.1955" y="123.96" width="97" height="160" rx="11.5" transform="rotate(-28.261 48.1955 123.96)" fill="white" stroke="#9FA1AB" stroke-width="3"/>
<path d="M150.383 243.301L133.648 252.297C129.756 254.389 124.905 252.93 122.813 249.039L60.7863 133.654C58.6943 129.762 60.1532 124.911 64.0448 122.819L80.78 113.823L150.383 243.301Z" fill="#FFB8C0"/>
<rect x="189.559" y="206.348" width="4" height="4" rx="1" transform="rotate(61.739 189.559 206.348)" fill="#E0E0E4"/>
<rect x="194.293" y="215.156" width="4" height="4" rx="1" transform="rotate(61.739 194.293 215.156)" fill="#E0E0E4"/>
<rect x="188.402" y="212.646" width="4" height="4" rx="1" transform="rotate(61.739 188.402 212.646)" fill="#E0E0E4"/>
<rect x="182.512" y="210.136" width="4" height="4" rx="1" transform="rotate(61.739 182.512 210.136)" fill="#E0E0E4"/>
<rect x="187.248" y="218.944" width="4" height="4" rx="1" transform="rotate(61.739 187.248 218.944)" fill="#E0E0E4"/>
<rect x="181.355" y="216.434" width="4" height="4" rx="1" transform="rotate(61.739 181.355 216.434)" fill="#E0E0E4"/>
<rect x="175.465" y="213.924" width="4" height="4" rx="1" transform="rotate(61.739 175.465 213.924)" fill="#E0E0E4"/>
<rect x="180.201" y="222.732" width="4" height="4" rx="1" transform="rotate(61.739 180.201 222.732)" fill="#E0E0E4"/>
<rect x="174.311" y="220.222" width="4" height="4" rx="1" transform="rotate(61.739 174.311 220.222)" fill="#E0E0E4"/>
<rect x="168.42" y="217.712" width="4" height="4" rx="1" transform="rotate(61.739 168.42 217.712)" fill="#E0E0E4"/>
<rect x="173.154" y="226.52" width="4" height="4" rx="1" transform="rotate(61.739 173.154 226.52)" fill="#E0E0E4"/>
<rect x="167.264" y="224.01" width="4" height="4" rx="1" transform="rotate(61.739 167.264 224.01)" fill="#E0E0E4"/>
<rect x="161.373" y="221.5" width="4" height="4" rx="1" transform="rotate(61.739 161.373 221.5)" fill="#E0E0E4"/>
<rect x="166.107" y="230.308" width="4" height="4" rx="1" transform="rotate(61.739 166.107 230.308)" fill="#E0E0E4"/>
<rect x="160.217" y="227.798" width="4" height="4" rx="1" transform="rotate(61.739 160.217 227.798)" fill="#E0E0E4"/>
<rect x="154.326" y="225.288" width="4" height="4" rx="1" transform="rotate(61.739 154.326 225.288)" fill="#E0E0E4"/>
<rect x="159.061" y="234.096" width="4" height="4" rx="1" transform="rotate(61.739 159.061 234.096)" fill="#E0E0E4"/>
<rect x="126.582" y="89.2017" width="4" height="4" rx="1" transform="rotate(61.739 126.582 89.2017)" fill="#E0E0E4"/>
<rect x="131.316" y="98.0098" width="4" height="4" rx="1" transform="rotate(61.739 131.316 98.0098)" fill="#E0E0E4"/>
<rect x="125.426" y="95.4995" width="4" height="4" rx="1" transform="rotate(61.739 125.426 95.4995)" fill="#E0E0E4"/>
<rect x="119.535" y="92.9897" width="4" height="4" rx="1" transform="rotate(61.739 119.535 92.9897)" fill="#E0E0E4"/>
<rect x="124.271" y="101.797" width="4" height="4" rx="1" transform="rotate(61.739 124.271 101.797)" fill="#E0E0E4"/>
<rect x="118.379" y="99.2876" width="4" height="4" rx="1" transform="rotate(61.739 118.379 99.2876)" fill="#E0E0E4"/>
<rect x="112.488" y="96.7773" width="4" height="4" rx="1" transform="rotate(61.739 112.488 96.7773)" fill="#E0E0E4"/>
<rect x="117.225" y="105.585" width="4" height="4" rx="1" transform="rotate(61.739 117.225 105.585)" fill="#E0E0E4"/>
<rect x="111.334" y="103.075" width="4" height="4" rx="1" transform="rotate(61.739 111.334 103.075)" fill="#E0E0E4"/>
<rect x="105.443" y="100.565" width="4" height="4" rx="1" transform="rotate(61.739 105.443 100.565)" fill="#E0E0E4"/>
<rect x="110.178" y="109.374" width="4" height="4" rx="1" transform="rotate(61.739 110.178 109.374)" fill="#E0E0E4"/>
<rect x="104.287" y="106.863" width="4" height="4" rx="1" transform="rotate(61.739 104.287 106.863)" fill="#E0E0E4"/>
<rect x="98.3965" y="104.354" width="4" height="4" rx="1" transform="rotate(61.739 98.3965 104.354)" fill="#E0E0E4"/>
<rect x="103.131" y="113.161" width="4" height="4" rx="1" transform="rotate(61.739 103.131 113.161)" fill="#E0E0E4"/>
<rect x="97.2402" y="110.651" width="4" height="4" rx="1" transform="rotate(61.739 97.2402 110.651)" fill="#E0E0E4"/>
<rect x="91.3496" y="108.141" width="4" height="4" rx="1" transform="rotate(61.739 91.3496 108.141)" fill="#E0E0E4"/>
<rect x="96.084" y="116.949" width="4" height="4" rx="1" transform="rotate(61.739 96.084 116.949)" fill="#E0E0E4"/>
<defs>
<linearGradient id="paint0_linear" x1="386" y1="224" x2="185" y2="32" gradientUnits="userSpaceOnUse">
<stop stop-color="#9FA1AB"/>
<stop offset="1" stop-color="white"/>
</linearGradient>
<linearGradient id="paint1_linear" x1="50" y1="95.5" x2="111" y2="18.5" gradientUnits="userSpaceOnUse">
<stop stop-color="#9FA1AB"/>
<stop offset="1" stop-color="white"/>
</linearGradient>
<linearGradient id="paint2_linear" x1="89" y1="-3" x2="158.689" y2="84.006" gradientUnits="userSpaceOnUse">
<stop stop-color="#9FA1AB"/>
<stop offset="1" stop-color="white"/>
</linearGradient>
</defs>
</svg>
