<svg width="80" height="80" viewBox="0 0 80 80" fill="none" xmlns="http://www.w3.org/2000/svg">
<path d="M9.08195 61.7646L1.41968 75.9095C0.487319 77.6307 2.3669 79.5095 4.0886 78.5775L18.2385 70.9179L9.08195 61.7646Z" fill="#DFEAEF"/>
<path d="M40.0053 78.8254C61.4521 78.8254 78.8382 61.4455 78.8382 40.0063C78.8382 18.5671 61.4521 1.18726 40.0053 1.18726C18.5585 1.18726 1.17236 18.5671 1.17236 40.0063C1.17236 61.4455 18.5585 78.8254 40.0053 78.8254Z" fill="white"/>
<path d="M63.0705 8.77515C67.84 15.2225 70.6616 23.1973 70.6616 31.8317C70.6616 53.2709 53.2756 70.6508 31.8287 70.6508C23.1912 70.6508 15.2136 67.8301 8.76392 63.0623C15.8371 72.6239 27.1963 78.8247 40.0057 78.8247C61.4526 78.8247 78.8386 61.4448 78.8386 40.0056C78.8384 27.2011 72.6355 15.8458 63.0705 8.77515Z" fill="#DFEAEF"/>
<path d="M40.2615 54.3906C38.3197 54.3906 36.7454 52.8171 36.7454 50.8758V46.2542C36.7454 41.8572 39.4262 37.9855 43.5753 36.3914C47.3618 34.9366 49.7364 31.2303 49.4842 27.1685C49.2013 22.6155 45.4122 18.8275 40.8577 18.545C38.2711 18.3833 35.8118 19.2672 33.9344 21.031C32.0553 22.7966 31.0202 25.1878 31.0202 27.7644C31.0202 29.7057 29.4459 31.2792 27.5041 31.2792C25.5623 31.2792 23.988 29.7057 23.988 27.7644C23.988 23.2932 25.8579 18.9719 29.1183 15.9088C32.4248 12.8024 36.7484 11.2482 41.2933 11.5289C45.222 11.7728 48.9376 13.4583 51.7551 16.2749C54.5729 19.0914 56.2588 22.8057 56.5026 26.733C56.946 33.8735 52.765 40.3921 46.0981 42.9531C44.6886 43.4949 43.7774 44.7907 43.7774 46.2544V50.876C43.7776 52.8172 42.2033 54.3906 40.2615 54.3906Z" fill="#FF4D61"/>
<path d="M36.8145 65.6873C36.4294 63.8384 37.6509 61.9296 39.5743 61.5539C42.7987 60.8851 45.0606 64.7057 42.9794 67.229C41.1465 69.5007 37.3918 68.6109 36.8145 65.6873Z" fill="#FF4D61"/>
<path d="M36.8145 65.6873C36.4294 63.8384 37.6509 61.9296 39.5743 61.5539C42.7987 60.8851 45.0606 64.7057 42.9794 67.229C41.1465 69.5007 37.3918 68.6109 36.8145 65.6873Z" fill="#FF4D61"/>
<path d="M46.5185 44.047C53.3325 41.4297 57.712 34.9512 57.7058 27.7662C57.7058 15.5275 45.2685 7.00092 33.8326 11.5403C27.1825 14.1719 22.8179 20.658 22.8157 27.7647C22.8157 30.3447 24.9028 32.4495 27.5038 32.4495C30.1005 32.4495 32.1918 30.3486 32.1918 27.7647C32.1981 23.3198 35.7756 19.7011 40.2553 19.6978C44.6516 19.6978 48.3298 23.4036 48.3298 27.7569C48.3282 31.1295 46.2952 34.0881 43.1542 35.2973C40.9007 36.1612 38.9943 37.65 37.641 39.6058C35.1659 43.1789 35.5735 46.1936 35.5735 50.8765C35.5735 51.2483 35.6173 51.6186 35.7032 51.9794C35.8314 52.5073 36.3002 52.8761 36.8424 52.8761C37.607 52.8761 38.1596 52.1604 37.9831 51.4295C37.8914 51.05 37.9159 51.3178 37.9159 46.2542C37.9222 42.3489 40.3068 38.9075 43.9948 37.4842C50.956 34.8178 53.0041 25.8248 47.6031 20.4259C41.0255 13.8556 29.8377 18.5373 29.8479 27.7647C29.8447 29.0534 28.7947 30.1047 27.5039 30.1078C26.2131 30.1047 25.1615 29.0534 25.1599 27.7647C25.1567 19.318 32.2565 12.1245 41.2197 12.698C48.996 13.1815 55.3621 19.7067 55.3621 27.7662C55.3606 34.0648 51.5586 39.5978 45.6782 41.86C44.7718 42.2051 44.0014 42.8019 43.4498 43.5845C42.3874 45.0997 42.6059 45.9794 42.6059 50.8765C42.6027 52.1653 41.5511 53.2164 40.2619 53.2181C39.615 53.2181 39.0899 53.7444 39.0899 54.3897C39.0899 56.85 44.9445 55.3514 44.95 50.8764V46.254C44.9526 45.27 45.5543 44.4234 46.5185 44.047Z" fill="#5D6174"/>
<path d="M36.3596 62.4083C34.3173 65.4827 36.4595 69.6844 40.2993 69.6844C43.8373 69.6844 46.1945 65.7771 44.2603 62.5728C42.4335 59.5469 38.2192 59.6096 36.3596 62.4083ZM39.7019 67.2675C38.7932 67.0433 38.1435 66.3677 37.9644 65.4603C37.4846 62.8696 40.9084 61.5555 42.2534 63.7838C43.344 65.5899 41.7495 67.7725 39.7019 67.2675Z" fill="#5D6174"/>
<path d="M60.0598 5.39513C39.2436 -6.68268 12.497 2.31513 3.14509 24.439C-0.66049 33.427 -0.977634 43.4934 2.00437 52.5309C4.07854 58.8168 7.48679 63.3904 7.76126 63.6329L7.76595 63.6267L7.76283 63.6345C7.76595 63.6376 7.76908 63.6392 7.77377 63.6439C7.77533 63.6439 7.77533 63.6456 7.7769 63.6472C7.77846 63.6472 7.77846 63.6487 7.78002 63.6503C8.22049 64.0201 8.59422 63.9143 8.75052 63.9143L8.75365 63.9128C8.7685 63.9128 8.8751 63.8889 8.9756 63.8487C8.97717 63.8487 8.97873 63.8487 8.97873 63.8487C8.97873 63.8487 9.00499 63.8364 9.0053 63.8362H9.00843C9.7662 63.5109 9.90015 62.5495 9.48969 62.0693C-8.59629 37.1109 9.4811 2.35825 40.0059 2.35825C61.0725 2.35825 77.6668 19.5384 77.6668 40.0057C77.6668 60.8098 60.8218 77.6532 40.0059 77.6532C32.0174 77.6532 24.3836 75.182 17.9313 70.5081C17.572 70.2472 17.0765 70.2143 16.6859 70.4267L3.53116 77.5468C2.90563 77.8812 2.34121 77.3353 2.34511 76.8548C2.3484 76.574 2.06079 77.1886 7.34111 67.4382C7.76548 66.6564 7.192 65.7092 6.31294 65.7092C5.88169 65.7092 5.48623 65.9451 5.28163 66.3231C-0.0337041 76.1348 -0.00197391 75.8061 0.00130851 76.855C0.00552876 79.1517 2.4936 80.7754 4.64718 79.609L17.1596 72.834C30.6865 82.2656 48.7009 82.3982 62.3729 73.1668C86.8504 56.6389 85.6089 20.2151 60.0598 5.39513Z" fill="#5D6174"/>
</svg>
