<svg width="48" height="48" viewBox="0 0 48 48" fill="none" xmlns="http://www.w3.org/2000/svg">
<path d="M24 14.8594L20.8594 17.4281V21.6844H27.1406V17.4281L24 14.8594Z" fill="#FF4D61"/>
<path d="M23.9999 8.42822C18.0655 8.42822 13.228 13.2563 13.228 19.2001C13.228 25.1438 18.0655 29.972 23.9999 29.972C29.9343 29.972 34.7718 25.1438 34.7718 19.2001C34.7718 13.2563 29.9343 8.42822 23.9999 8.42822ZM29.9436 24.4876H18.0562V16.097L23.9999 11.2313L29.9436 16.097V24.4876Z" fill="#FF4D61"/>
<path d="M43.1998 19.2C43.1998 8.61563 34.5842 0 23.9998 0C13.4154 0 4.7998 8.61563 4.7998 19.2C4.7998 24.7969 7.20918 29.8406 11.0342 33.3469L7.0498 42.975L14.1467 42.9844L19.1717 47.9906L23.1561 38.3812C23.4373 38.3906 23.7186 38.4 23.9998 38.4C24.2811 38.4 24.5623 38.3906 24.8436 38.3812L28.8279 48L33.8529 42.9938L40.9498 42.9844L36.9654 33.3562C40.7904 29.8406 43.1998 24.7969 43.1998 19.2ZM23.9998 32.7844C16.5092 32.7844 10.4154 26.6906 10.4154 19.2C10.4154 11.7094 16.5092 5.61563 23.9998 5.61563C31.4904 5.61563 37.5842 11.7094 37.5842 19.2C37.5842 26.6906 31.4904 32.7844 23.9998 32.7844Z" fill="#5D6174"/>
</svg>
