<svg width="58" height="58" viewBox="0 0 58 58" fill="none" xmlns="http://www.w3.org/2000/svg">
<path d="M15.3787 28.5455C15.1299 25.0437 12.5328 22.189 9.02218 22.189C5.5116 22.189 2.91451 25.0437 2.66563 28.5455C2.51735 30.6333 2.66563 33.994 1.75757 35.8101C1.75757 35.8101 2.66563 37.6262 6.01457 38.5368L12.0482 38.5343C15.3787 37.6262 16.2868 35.8101 16.2868 35.8101C15.3787 33.994 15.527 30.6333 15.3787 28.5455Z" fill="#E6E7EC"/>
<path d="M8.11412 28.5456C4.61463 26.7959 5.33488 23.3676 7.82808 22.3066C4.93579 22.871 2.88528 25.4545 2.66563 28.5456C2.51735 30.6334 2.66563 33.9941 1.75757 35.8102C1.75757 35.8102 2.66563 37.6264 6.01456 38.5369L8.88262 38.5358L8.11412 28.5456Z" fill="#F6F7F8"/>
<path d="M15.689 40.7203L12.7504 39.2511C12.135 38.9434 11.7464 38.3145 11.7464 37.6265L11.7465 34.9021H6.2981V37.6265C6.2981 38.3144 5.90943 38.9432 5.2942 39.2509L2.35546 40.7202C1.43255 41.1817 0.849609 42.1249 0.849609 43.1568V49.4313H17.195V43.1569C17.195 42.1251 16.612 41.1818 15.689 40.7203Z" fill="#E6E7EC"/>
<path d="M17.1951 43.1569C17.1951 42.125 16.612 41.1817 15.6891 40.7202L12.7505 39.2509C12.5814 39.1664 12.4341 39.0537 12.3027 38.9261L11.2605 40.0861C10.0296 41.4562 8.01535 41.456 6.78443 40.0861L5.74213 38.926C5.61061 39.0536 5.46335 39.1663 5.29444 39.2508L2.35559 40.7202C1.4328 41.1816 0.849854 42.1249 0.849854 43.1566V49.4313H17.1952L17.1951 43.1569Z" fill="#D5DCED"/>
<path d="M9.02236 36.7184C6.94127 36.7184 5.13262 35.5516 4.21505 33.8365C3.59132 32.6706 3.998 31.208 5.07904 30.4467C5.28646 30.3005 5.50079 30.1339 5.7116 29.9457C6.36093 29.3663 6.74122 28.7553 6.95555 28.3075C7.13918 27.9239 7.56228 27.7073 7.9744 27.8123C11.1806 28.6293 13.361 30.2992 14.1468 30.9756C14.3555 31.1554 14.4757 31.42 14.4545 31.6947C14.2378 34.5053 11.8886 36.7184 9.02236 36.7184Z" fill="#E6E7EC"/>
<path d="M14.1456 30.9746C13.3593 30.2977 11.1806 28.63 7.97776 27.813C7.5636 27.7073 7.13868 27.9252 6.95392 28.3106C6.79136 28.6495 6.52277 29.0813 6.12413 29.5219C6.12402 29.523 6.12379 29.524 6.12368 29.525C5.99998 29.6652 5.86823 29.8057 5.71156 29.9456C5.50936 30.126 5.3059 30.2892 5.10472 30.4283C3.82317 31.3148 3.6307 32.941 4.41608 34.1762C5.24235 35.4757 6.60717 36.3988 8.19616 36.6418C7.109 35.9022 6.29802 34.8994 6.29802 33.0861V32.3844C6.50431 32.2322 6.71195 32.0803 6.92073 31.8941C7.4254 31.4437 7.86606 30.9228 8.21938 30.3619C10.6654 31.1252 12.3236 32.3965 12.9522 32.937C13.1242 33.0879 13.3655 33.3011 13.8652 33.7699C14.1857 33.2642 14.4094 32.2797 14.4544 31.6934C14.4756 31.419 14.354 31.154 14.1456 30.9746Z" fill="#E6E7EC"/>
<path d="M1.40321 41.52C1.0534 41.9841 0.849609 42.5538 0.849609 43.1569V49.4314H4.48197V44.8558C4.48197 44.3041 4.23117 43.7822 3.80036 43.4376L1.40321 41.52Z" fill="#E6E7EC"/>
<path d="M16.6415 41.52C16.9913 41.9841 17.1951 42.5538 17.1951 43.1569V49.4314H13.5627V44.8558C13.5627 44.3041 13.8135 43.7822 14.2444 43.4376L16.6415 41.52Z" fill="#E6E7EC"/>
<path d="M41.7131 25.8214V26.4587C41.7131 27.2395 41.839 28.0152 42.0859 28.7559L43.5293 33.086H46.2534V23.0972H44.4373C42.9328 23.0971 41.7131 24.3168 41.7131 25.8214Z" fill="#F6F7F8"/>
<path d="M54.2166 27.4633L52.61 33.0861L45.3454 26.7295C44.3424 26.7295 43.5293 25.9164 43.5293 24.9134C43.5293 23.4088 44.749 22.1892 46.2535 22.1892H54.4262V25.9665C54.4263 26.4726 54.3557 26.9765 54.2166 27.4633Z" fill="#E6E7EC"/>
<path d="M50.794 35.8101H45.3452V41.2589H50.794V35.8101Z" fill="#E6E7EC"/>
<path d="M55.1746 39.2646L50.7937 38.0129L48.0697 41.2584L45.3456 38.0129L40.9649 39.2646C39.7953 39.5988 38.989 40.6677 38.989 41.884V49.4311H57.1505V41.8841C57.1505 40.6677 56.3442 39.5988 55.1746 39.2646Z" fill="#D5DCED"/>
<path d="M48.0696 36.7182C45.0605 36.7182 42.6211 34.2788 42.6211 31.2697C42.6211 30.1069 43.0831 28.9917 43.9052 28.1693L44.7996 27.275C45.1483 26.9263 45.6251 26.7258 46.1179 26.7413C49.0207 26.8328 51.5901 27.4548 52.9947 28.8265C53.3385 29.1623 53.518 29.632 53.518 30.1126V31.2696C53.5181 34.2788 51.0787 36.7182 48.0696 36.7182Z" fill="#E6E7EC"/>
<path d="M45.3454 31.2697C45.3454 30.2222 46.2251 29.3896 47.2705 29.4562C49.1037 29.5731 51.8239 29.8795 53.4928 30.6824C53.4383 30.2993 53.2737 29.099 52.9947 28.8265C51.5903 27.4548 49.0208 26.8328 46.118 26.7413H46.1179C45.6251 26.7258 45.1483 26.9264 44.7996 27.275L43.9052 28.1693C43.0829 28.9917 42.6211 30.1068 42.6211 31.2697C42.6211 33.7545 44.286 35.8465 46.5599 36.5016C45.803 35.5677 45.3453 34.3825 45.3453 33.0859V31.2697H45.3454Z" fill="#E6E7EC"/>
<path d="M53.5181 44.5898C53.5181 43.8673 53.8051 43.1744 54.316 42.6635L56.6536 40.3259C56.966 40.7725 57.1504 41.3101 57.1504 41.884V49.4311H53.5181V44.5898Z" fill="#E6E7EC"/>
<path d="M42.0463 39.4811L34.4485 36.7183L29 38.5344L23.5515 36.7183L15.9538 39.4811C14.5183 40.0031 13.5627 41.3673 13.5627 42.8947V49.4312H44.4373V42.8947C44.4373 41.3673 43.4818 40.0031 42.0463 39.4811Z" fill="#D0D7E6"/>
<path d="M43.4599 40.4199C44.0731 41.0781 44.4373 41.9545 44.4373 42.8948V49.4314H38.9888V46.3956C38.9888 45.4323 39.3714 44.5084 40.0526 43.8272L43.4599 40.4199Z" fill="#E6E7EC"/>
<path d="M38.9887 17.9912V10.384C38.9887 9.381 38.1756 8.56787 37.1726 8.56787H26.2756C22.2635 8.56787 19.011 11.8204 19.011 15.8325V17.9912C19.011 18.9672 19.1683 19.9368 19.477 20.8627L19.7793 21.7696C19.8718 22.0473 19.919 22.3382 19.919 22.6311V23.0971H38.0807V22.6311C38.0807 22.3382 38.1279 22.0473 38.2204 21.7696L38.5227 20.8627C38.8314 19.9369 38.9887 18.9672 38.9887 17.9912Z" fill="#F6F7F8"/>
<path d="M23.5515 12.257C23.5515 14.2944 25.2032 15.9461 27.2406 15.9461H27.7514L27.998 23.0972H38.0808V22.6312C38.0808 22.3383 38.1281 22.0475 38.2206 21.7697L38.5229 20.8629C38.8316 19.9369 38.9889 18.9673 38.9889 17.9913V10.384C38.9889 9.38089 38.1758 8.56787 37.1728 8.56787H27.2407C25.2032 8.56787 23.5515 10.2195 23.5515 12.257Z" fill="#E6E7EC"/>
<path d="M34.4475 30.3613H23.551V38.5334H34.4475V30.3613Z" fill="#E6E7EC"/>
<path d="M23.5515 34.4715C25.1825 35.3224 27.0331 35.8103 29 35.8103C30.9669 35.8103 32.8175 35.3224 34.4485 34.4715V30.3618H23.5515V34.4715Z" fill="#C7C9D0"/>
<path d="M29 38.5344L26.1038 41.4305C25.7146 41.8197 25.0711 41.7759 24.7383 41.3374L21.7354 37.3806L22.5208 35.7253C22.7526 35.2369 23.3572 35.0579 23.8176 35.3415L29 38.5344Z" fill="#E6E7EC"/>
<path d="M29 38.5344L31.8961 41.4305C32.2854 41.8197 32.9288 41.7759 33.2616 41.3374L36.2646 37.3806L35.4791 35.7253C35.2473 35.2369 34.6428 35.0579 34.1824 35.3415L29 38.5344Z" fill="#E6E7EC"/>
<path d="M28.9999 33.0861C23.9847 33.0861 19.9192 29.0205 19.9192 24.0053V23.0973L21.4304 22.0898C22.1882 21.5846 22.6435 20.734 22.6435 19.8231V16.7407C22.6435 16.7407 29.9082 14.0164 35.3566 18.5569C35.3566 18.5569 35.3566 19.1752 35.3566 19.8226C35.3566 20.7335 35.8117 21.5845 36.5697 22.0898L38.0808 23.0973V24.0053C38.0807 29.0204 34.0151 33.0861 28.9999 33.0861Z" fill="#E6E7EC"/>
<path d="M14.5401 40.4199C13.9269 41.0781 13.5627 41.9545 13.5627 42.8948V49.4314H19.0112V46.3956C19.0112 45.4323 18.6286 44.5084 17.9474 43.8272L14.5401 40.4199Z" fill="#E6E7EC"/>
<path d="M26.9649 18.9232C28.9396 18.6755 32.396 18.5334 35.3565 19.8224C35.3565 19.4583 35.3565 18.5567 35.3565 18.5567C29.908 14.0162 22.6434 16.7405 22.6434 16.7405V19.8228C22.6434 20.7337 22.1882 21.5842 21.4302 22.0896L19.9192 23.097V24.0051C19.9192 28.648 23.4059 32.4703 27.9026 33.0132H27.9028C26.3358 31.3815 25.3677 29.1702 25.3677 26.7294V20.7271C25.3676 19.8068 26.0519 19.0377 26.9649 18.9232Z" fill="#E6E7EC"/>
<path d="M50.4117 28.3969C50.5337 28.458 50.6632 28.4868 50.7909 28.4868C51.1026 28.4868 51.4026 28.3146 51.5515 28.017C51.7614 27.5973 51.5913 27.0869 51.1715 26.877C49.198 25.8903 45.4976 25.8789 45.3411 25.8789C44.8719 25.8789 44.4915 26.2593 44.4915 26.7285C44.4915 27.1977 44.8719 27.5781 45.3411 27.5781C46.2959 27.5782 49.0682 27.7253 50.4117 28.3969Z" fill="#777C8B"/>
<path d="M55.4072 38.9732L51.8983 37.9707C51.7469 37.9274 51.6411 37.7872 51.6411 37.6296V36.4584C51.9265 36.2606 52.1989 36.0393 52.4534 35.7922C53.687 34.595 54.3664 32.9893 54.3664 31.2706V29.6544L54.7057 28.9759C55.078 28.2311 55.2748 27.3973 55.2748 26.5646V22.1863C55.2748 21.7171 54.8944 21.3367 54.4252 21.3367H46.2493C43.2764 21.3367 40.8576 23.7555 40.8576 26.7284V26.7791C40.8576 27.4715 41.0213 28.1649 41.3309 28.784L41.766 29.6543V31.042C41.766 33.2412 42.8498 35.2145 44.4913 36.4019L44.4916 37.6294C44.4916 37.8187 44.4916 37.8971 43.79 38.0976L42.0779 38.5867L37.1251 36.7858C37.1429 36.5521 37.064 36.3144 36.8936 36.1353L35.3109 34.4726V31.6813C35.4782 31.5435 35.6432 31.4019 35.803 31.2521C37.7996 29.3807 38.9446 26.7385 38.9446 24.0031V21.774C39.5475 20.4621 39.853 19.0738 39.853 17.6441V8.56006C39.853 8.09085 39.4726 7.71045 39.0034 7.71045H26.2854C21.8097 7.71045 18.1685 11.3518 18.1685 15.8274V17.6443C18.1685 19.074 18.474 20.4623 19.0769 21.7742V23.6922C19.0769 26.8681 20.4891 29.7294 22.7106 31.6157V34.4727L21.128 36.1354C20.9575 36.3145 20.8786 36.5522 20.8964 36.7859L15.6691 38.6866C15.2903 38.8244 14.9383 39.011 14.6187 39.237L13.7979 38.8265C16.2414 37.7629 17.0154 36.2671 17.0526 36.1928C17.1722 35.9536 17.1722 35.672 17.0526 35.4329C16.4401 34.2078 16.3659 31.9625 16.3063 30.1584C16.2864 29.5578 16.2676 28.9903 16.2317 28.4851C15.9421 24.4099 12.8441 21.3367 9.02534 21.3367C5.20663 21.3367 2.1085 24.4098 1.81896 28.4851C1.78305 28.9904 1.76424 29.5579 1.74442 30.1586C1.68483 31.9626 1.61052 34.2077 0.998121 35.4327C0.878496 35.6719 0.878496 35.9535 0.998121 36.1926C1.03528 36.267 1.80774 37.7598 4.25609 38.8246L1.97608 39.9646C0.757172 40.5744 0 41.7995 0 43.1623V49.4391C0 49.9083 0.380398 50.2887 0.849609 50.2887C1.31882 50.2887 1.69922 49.9083 1.69922 49.4391V43.1623C1.69922 42.4472 2.0965 41.8044 2.73597 41.4846L5.57514 40.065L6.56272 41.0036C7.25328 41.6598 8.13914 41.9878 9.02534 41.9878C9.91132 41.9878 10.7976 41.6596 11.488 41.0036L12.4754 40.0652L13.4012 40.528C12.9653 41.2255 12.7179 42.0434 12.7179 42.9001V49.4393C12.7179 49.9085 13.0983 50.2889 13.5675 50.2889C14.0367 50.2889 14.4171 49.9085 14.4171 49.4393V42.9001C14.4171 41.7338 15.1535 40.6823 16.2497 40.2837L21.7611 38.2796L24.0554 41.7212C24.3487 42.1612 24.8187 42.4434 25.3449 42.4955C25.4035 42.5013 25.4619 42.5041 25.5201 42.5041C25.9843 42.5041 26.429 42.3214 26.7613 41.9891L28.161 40.5894V49.4394C28.161 49.9086 28.5414 50.289 29.0106 50.289C29.4799 50.289 29.8603 49.9086 29.8603 49.4394V40.5894L31.26 41.9891C31.5922 42.3215 32.0368 42.5042 32.5012 42.5042C32.5593 42.5042 32.6178 42.5014 32.6763 42.4956C33.2026 42.4435 33.6726 42.1613 33.9659 41.7213L36.2603 38.2799L41.7716 40.2839C42.8677 40.6825 43.6042 41.734 43.6042 42.9004V49.4395C43.6042 49.9087 43.9846 50.2891 44.4538 50.2891C44.923 50.2891 45.3034 49.9087 45.3034 49.4395V42.9004C45.3034 41.7191 44.8341 40.6112 44.0468 39.7918L44.2567 39.7319C44.4684 39.6714 44.7573 39.5886 45.0473 39.4464L47.2165 41.6156V49.4395C47.2165 49.9087 47.5969 50.2891 48.0661 50.2891C48.5354 50.2891 48.9158 49.9087 48.9158 49.4395V41.6156L51.0699 39.4615C51.1844 39.5197 51.3047 39.5689 51.4314 39.605L54.9404 40.6076C55.7413 40.8364 56.3008 41.578 56.3008 42.4111V49.4395C56.3008 49.9087 56.6812 50.2891 57.1504 50.2891C57.6196 50.2891 58 49.9087 58 49.4395V42.4111C58 40.823 56.9338 39.4095 55.4072 38.9732ZM12.6002 37.4754L12.6003 36.4621C13.5887 35.7817 14.3745 34.8244 14.8434 33.6925C14.9452 34.4241 15.0955 35.1171 15.3271 35.7223C14.9887 36.1345 14.1878 36.9038 12.6002 37.4754ZM3.51398 28.6056C3.62251 27.0791 4.23253 25.6723 5.23167 24.6444C6.23976 23.6072 7.58713 23.036 9.02557 23.036C10.464 23.036 11.8113 23.6072 12.8195 24.6444C13.8186 25.6723 14.4286 27.0791 14.5372 28.6056C14.5707 29.0788 14.589 29.6305 14.6083 30.2146C14.61 30.2647 14.6117 30.3156 14.6134 30.3661C13.689 28.942 12.2614 27.8924 10.4169 27.2997C8.7128 26.7522 7.24717 26.7861 7.18532 26.7877C6.96283 26.7939 6.75168 26.887 6.59727 27.0472L5.06435 28.637C4.73867 28.9748 4.74841 29.5127 5.08621 29.8384C5.42402 30.164 5.96188 30.1542 6.28756 29.8165L7.56311 28.4937C8.6616 28.5474 12.1956 28.9584 13.5701 31.9849C13.2242 34.2153 11.3073 35.8716 9.0258 35.8716C6.48875 35.8716 4.42488 33.8076 4.42488 31.2707C4.42488 30.8015 4.04448 30.4211 3.57527 30.4211C3.52769 30.4211 3.48125 30.4259 3.43582 30.4335C3.43831 30.3605 3.44069 30.2873 3.44318 30.2149C3.4621 29.6307 3.48034 29.0789 3.51398 28.6056ZM2.72385 35.7221C2.95585 35.1156 3.10629 34.4209 3.20812 33.6877C3.67666 34.8111 4.46136 35.7701 5.45053 36.4543V37.4726C3.8613 36.9008 3.06414 36.1384 2.72385 35.7221ZM7.73337 39.7719L6.94323 39.021C7.07657 38.7713 7.14986 38.4881 7.14986 38.1914V37.2858C7.74255 37.471 8.37262 37.5709 9.02557 37.5709C9.67773 37.5709 10.3075 37.4706 10.9012 37.2864L10.9011 38.1913C10.9011 38.4881 10.9742 38.7714 11.1077 39.0213L10.3177 39.772C9.593 40.4605 8.4578 40.4604 7.73337 39.7719ZM20.7761 23.6921V21.5841C20.7761 21.4562 20.7472 21.3299 20.6916 21.2147C20.1449 20.0826 19.8677 18.8813 19.8677 17.6443V15.8274C19.8677 12.2886 22.7468 9.40967 26.2854 9.40967H38.1538V17.6443C38.1538 18.8813 37.8766 20.0826 37.3299 21.2147C37.2743 21.3299 37.2454 21.4562 37.2454 21.5841V24.0032C37.2454 26.3041 36.3205 28.4382 34.641 30.0125C34.4313 30.2089 34.2137 30.3931 33.9887 30.5647C33.9837 30.5681 33.9789 30.5719 33.9741 30.5754C32.4007 31.7699 30.4736 32.3505 28.461 32.2201C24.1517 31.9411 20.7761 28.1951 20.7761 23.6921ZM28.351 33.9157C28.575 33.9302 28.7976 33.9373 29.0195 33.9373C30.6441 33.9373 32.2076 33.549 33.6117 32.8119V34.3638L29.0108 37.5087L24.4098 34.3638V32.7779C25.6003 33.4214 26.9333 33.8239 28.351 33.9157ZM25.5599 40.7874C25.554 40.7933 25.5403 40.8073 25.5125 40.8043C25.4849 40.8016 25.474 40.7854 25.4694 40.7784L22.8271 36.8149L23.6774 35.9214L27.6858 38.6614L25.5599 40.7874ZM32.5522 40.7785C32.5475 40.7855 32.5366 40.8017 32.509 40.8044C32.4812 40.8079 32.4677 40.7933 32.4617 40.7876L30.3357 38.6616L34.3442 35.9216L35.1946 36.815L32.5522 40.7785ZM43.4652 31.0422V29.4539C43.4652 29.3219 43.4345 29.1919 43.3755 29.0739L42.8507 28.0243C42.6584 27.6397 42.5568 27.2092 42.5568 26.7792V26.7286C42.5568 24.6924 44.2133 23.036 46.2493 23.036H53.5756V26.5648C53.5756 27.135 53.4408 27.7061 53.1858 28.2162L52.7569 29.0739C52.6979 29.192 52.6672 29.3219 52.6672 29.4539V31.2707C52.6672 32.5258 52.171 33.6985 51.2701 34.5728C50.3696 35.4467 49.18 35.9082 47.9241 35.8694C45.4654 35.7957 43.4652 33.6301 43.4652 31.0422ZM47.873 37.5679C47.9385 37.5699 48.0034 37.5708 48.0686 37.5708C48.7134 37.5708 49.3428 37.4734 49.9419 37.2875V37.6296C49.9419 37.7991 49.9631 37.9652 50.0033 38.1248L48.0661 40.0618L46.1381 38.1338C46.1717 37.981 46.1908 37.8137 46.1907 37.6292L46.1905 37.2706C46.7256 37.4462 47.2895 37.5504 47.873 37.5679Z" fill="#777C8B"/>
<path d="M53.5166 43.1389C53.0474 43.1389 52.667 43.5193 52.667 43.9885V49.4391C52.667 49.9083 53.0474 50.2887 53.5166 50.2887C53.9858 50.2887 54.3662 49.9083 54.3662 49.4391V43.9885C54.3662 43.5193 53.9858 43.1389 53.5166 43.1389Z" fill="#777C8B"/>
<path d="M4.4834 44.262C4.01419 44.262 3.63379 44.6424 3.63379 45.1116V49.439C3.63379 49.9082 4.01419 50.2886 4.4834 50.2886C4.95261 50.2886 5.33301 49.9082 5.33301 49.439V45.1116C5.33301 44.6424 4.95261 44.262 4.4834 44.262Z" fill="#777C8B"/>
<path d="M23.5012 17.5037C23.5012 17.4749 23.5203 17.4502 23.5456 17.4463C24.6407 17.2813 26.8138 17.0266 29.0653 17.1767C31.7147 17.3531 33.6337 18.0182 34.7689 19.1535C35.1007 19.4853 35.6386 19.4853 35.9703 19.1535C36.3021 18.8217 36.3021 18.2837 35.9703 17.952C32.757 14.7387 26.0339 15.353 23.2922 15.7662C22.4287 15.8964 21.802 16.6272 21.802 17.5039V19.4611C21.802 19.9303 22.1824 20.3107 22.6516 20.3107C23.1208 20.3107 23.5012 19.9303 23.5012 19.4611V17.5037Z" fill="#777C8B"/>
<path d="M19.0181 44.9558C18.5489 44.9558 18.1685 45.3362 18.1685 45.8054V49.4391C18.1685 49.9084 18.5489 50.2887 19.0181 50.2887C19.4873 50.2887 19.8677 49.9084 19.8677 49.4391V45.8054C19.8677 45.3362 19.4873 44.9558 19.0181 44.9558Z" fill="#777C8B"/>
<path d="M39.0034 44.9558C38.5342 44.9558 38.1538 45.3362 38.1538 45.8054V49.4391C38.1538 49.9084 38.5342 50.2887 39.0034 50.2887C39.4726 50.2887 39.853 49.9084 39.853 49.4391V45.8054C39.853 45.3362 39.4726 44.9558 39.0034 44.9558Z" fill="#777C8B"/>
</svg>
