<svg width="174" height="174" viewBox="0 0 174 174" fill="none" xmlns="http://www.w3.org/2000/svg">
<path d="M2.90002 147.9H171.1V159.5C171.1 160.269 170.794 161.007 170.251 161.551C169.707 162.094 168.969 162.4 168.2 162.4H5.80002C5.0309 162.4 4.29327 162.094 3.74941 161.551C3.20556 161.007 2.90002 160.269 2.90002 159.5V147.9Z" fill="#898890"/>
<path d="M14.5001 14.5H159.5C161.038 14.5 162.514 15.1111 163.601 16.1988C164.689 17.2865 165.3 18.7617 165.3 20.3V107.3H8.70007V20.3C8.70007 18.7617 9.31114 17.2865 10.3989 16.1988C11.4866 15.1111 12.9618 14.5 14.5001 14.5Z" fill="#5EC5FF"/>
<path d="M20.2999 26.1001H153.7V95.7001H20.2999V26.1001Z" fill="#1AACFF"/>
<path d="M130.5 49.3001V95.7001H43.5V49.3001L87 23.2001L130.5 49.3001Z" fill="#E9E9EA"/>
<path d="M133.4 28.9999V40.5999L87.0001 14.4999L40.6001 40.5999V28.9999L87.0001 2.8999L133.4 28.9999Z" fill="#FA4B5F"/>
<path d="M121.8 2.8999V28.2749L107.3 20.1259V2.8999H121.8Z" fill="#FA4B5F"/>
<path d="M87 52.1999C91.8049 52.1999 95.7001 48.3048 95.7001 43.4999C95.7001 38.695 91.8049 34.7999 87 34.7999C82.1952 34.7999 78.3 38.695 78.3 43.4999C78.3 48.3048 82.1952 52.1999 87 52.1999Z" fill="#1AACFF"/>
<path d="M78.3 69.6001H95.7001V95.7001H78.3V69.6001Z" fill="#FA4B5F"/>
<path d="M171.1 147.9H2.90002L8.70002 107.3H165.3L171.1 147.9Z" fill="#D8D7DA"/>
<path d="M142.1 131.95V153.7L136.3 162.4V174H107.3V162.4L98.6 156.6V137.75C98.6 136.596 99.0583 135.49 99.8741 134.674C100.69 133.858 101.796 133.4 102.95 133.4C104.104 133.4 105.21 133.858 106.026 134.674C106.842 135.49 107.3 136.596 107.3 137.75V123.25C107.3 122.096 107.758 120.99 108.574 120.174C109.39 119.358 110.496 118.9 111.65 118.9C112.804 118.9 113.91 119.358 114.726 120.174C115.542 120.99 116 122.096 116 123.25V120.35C116 119.196 116.458 118.09 117.274 117.274C118.09 116.458 119.196 116 120.35 116C121.504 116 122.61 116.458 123.426 117.274C124.242 118.09 124.7 119.196 124.7 120.35V126.15C124.7 124.996 125.158 123.89 125.974 123.074C126.79 122.258 127.896 121.8 129.05 121.8C130.204 121.8 131.31 122.258 132.126 123.074C132.942 123.89 133.4 124.996 133.4 126.15V131.95C133.4 130.796 133.858 129.69 134.674 128.874C135.49 128.058 136.596 127.6 137.75 127.6C138.904 127.6 140.01 128.058 140.826 128.874C141.642 129.69 142.1 130.796 142.1 131.95Z" fill="#F5E0CD"/>
<path d="M75.4001 137.75V156.6L66.7001 162.4V174H37.7001V162.4L31.9001 153.7V131.95C31.9001 130.796 32.3584 129.69 33.1742 128.874C33.99 128.058 35.0965 127.6 36.2501 127.6C37.4038 127.6 38.5103 128.058 39.3261 128.874C40.1418 129.69 40.6001 130.796 40.6001 131.95V126.15C40.6001 124.996 41.0585 123.89 41.8742 123.074C42.69 122.258 43.7965 121.8 44.9501 121.8C46.1038 121.8 47.2103 122.258 48.0261 123.074C48.8418 123.89 49.3001 124.996 49.3001 126.15V120.35C49.3001 119.196 49.7585 118.09 50.5742 117.274C51.39 116.458 52.4965 116 53.6501 116C54.8038 116 55.9103 116.458 56.7261 117.274C57.5418 118.09 58.0001 119.196 58.0001 120.35V123.25C58.0001 122.096 58.4585 120.99 59.2742 120.174C60.09 119.358 61.1965 118.9 62.3501 118.9C63.5038 118.9 64.6103 119.358 65.4261 120.174C66.2418 120.99 66.7001 122.096 66.7001 123.25V137.75C66.7001 136.596 67.1585 135.49 67.9742 134.674C68.79 133.858 69.8965 133.4 71.0501 133.4C72.2038 133.4 73.3103 133.858 74.1261 134.674C74.9418 135.49 75.4001 136.596 75.4001 137.75Z" fill="#F5E0CD"/>
<path d="M134.821 26.477L124.7 20.793V2.9C124.7 2.13087 124.395 1.39325 123.851 0.84939C123.307 0.305535 122.569 0 121.8 0H107.3C106.531 0 105.793 0.305535 105.249 0.84939C104.706 1.39325 104.4 2.13087 104.4 2.9V9.367L88.4211 0.377C87.9872 0.133107 87.4978 0.00499477 87.0001 0.00499477C86.5023 0.00499477 86.013 0.133107 85.5791 0.377L39.1791 26.477C38.7295 26.7269 38.3552 27.0928 38.0951 27.5365C37.8349 27.9803 37.6985 28.4856 37.7001 29V40.6C37.6993 41.1069 37.8331 41.6048 38.0879 42.043C38.3427 42.4812 38.7092 42.8439 39.1501 43.094C39.5825 43.3547 40.0768 43.4949 40.5816 43.5C41.0865 43.5051 41.5835 43.3749 42.0211 43.123L87.0001 17.835L131.979 43.123C132.41 43.3755 132.901 43.5058 133.4 43.5C134.166 43.4888 134.897 43.1796 135.438 42.6382C135.98 42.0967 136.289 41.3656 136.3 40.6V29C136.302 28.4856 136.165 27.9803 135.905 27.5365C135.645 27.0928 135.271 26.7269 134.821 26.477ZM110.2 5.8H118.9V17.516L110.2 12.615V5.8ZM130.5 35.641L88.4211 11.977C87.9883 11.7298 87.4985 11.5998 87.0001 11.5998C86.5017 11.5998 86.0119 11.7298 85.5791 11.977L43.5001 35.641V30.682L87.0001 6.235L130.5 30.682V35.641Z" fill="#464B61"/>
<path d="M131.979 46.806L88.4791 20.706C88.0331 20.4358 87.5216 20.2928 87.0001 20.2928C86.4786 20.2928 85.9671 20.4358 85.5211 20.706L42.0211 46.806C41.5863 47.0605 41.226 47.4249 40.9766 47.8627C40.7272 48.3005 40.5973 48.7962 40.6001 49.3V95.7C40.6001 96.4692 40.9057 97.2068 41.4495 97.7506C41.9934 98.2945 42.731 98.6 43.5001 98.6H130.5C131.269 98.6 132.007 98.2945 132.551 97.7506C133.095 97.2068 133.4 96.4692 133.4 95.7V49.3C133.403 48.7962 133.273 48.3005 133.024 47.8627C132.774 47.4249 132.414 47.0605 131.979 46.806ZM92.8001 92.8H81.2001V72.5H92.8001V92.8ZM127.6 92.8H98.6001V69.6C98.6001 68.8309 98.2946 68.0933 97.7508 67.5494C97.2069 67.0056 96.4693 66.7 95.7001 66.7H78.3001C77.531 66.7 76.7934 67.0056 76.2495 67.5494C75.7057 68.0933 75.4001 68.8309 75.4001 69.6V92.8H46.4001V50.953L87.0001 26.593L127.6 50.953V92.8Z" fill="#464B61"/>
<path d="M75.4001 43.5C75.4001 45.7943 76.0805 48.037 77.3551 49.9446C78.6297 51.8522 80.4414 53.3391 82.561 54.217C84.6806 55.095 87.013 55.3247 89.2632 54.8771C91.5134 54.4295 93.5803 53.3248 95.2026 51.7025C96.8249 50.0802 97.9297 48.0133 98.3773 45.7631C98.8248 43.5129 98.5951 41.1805 97.7172 39.0609C96.8392 36.9413 95.3524 35.1296 93.4448 33.855C91.5372 32.5804 89.2944 31.9 87.0001 31.9C83.9236 31.9 80.9731 33.1222 78.7977 35.2976C76.6223 37.473 75.4001 40.4235 75.4001 43.5ZM92.8001 43.5C92.8001 44.6472 92.46 45.7685 91.8227 46.7223C91.1854 47.6761 90.2795 48.4195 89.2197 48.8585C88.1599 49.2975 86.9937 49.4124 85.8686 49.1886C84.7435 48.9648 83.7101 48.4124 82.8989 47.6012C82.0878 46.7901 81.5354 45.7566 81.3116 44.6315C81.0878 43.5065 81.2027 42.3403 81.6416 41.2805C82.0806 40.2206 82.824 39.3148 83.7778 38.6775C84.7316 38.0402 85.853 37.7 87.0001 37.7C88.5384 37.7 90.0137 38.3111 91.1014 39.3988C92.1891 40.4865 92.8001 41.9618 92.8001 43.5Z" fill="#464B61"/>
<path d="M173.971 147.488L168.2 107.097V20.3C168.2 17.9926 167.283 15.7797 165.652 14.1481C164.02 12.5166 161.807 11.6 159.5 11.6H130.5V17.4H159.5C160.269 17.4 161.007 17.7055 161.551 18.2494C162.094 18.7932 162.4 19.5308 162.4 20.3V104.4H11.6V20.3C11.6 19.5308 11.9055 18.7932 12.4494 18.2494C12.9933 17.7055 13.7309 17.4 14.5 17.4H49.3V11.6H14.5C12.1926 11.6 9.97975 12.5166 8.34819 14.1481C6.71662 15.7797 5.80001 17.9926 5.80001 20.3V107.097L0.0290145 147.488C0.00926461 147.625 -0.000428174 147.762 1.45015e-05 147.9V159.5C1.45015e-05 161.038 0.611084 162.513 1.69879 163.601C2.78651 164.689 4.26176 165.3 5.80001 165.3H34.8V174H40.6V162.4C40.5991 161.827 40.4297 161.268 40.1128 160.79L34.8 152.83V131.95C34.8 131.565 34.9528 131.197 35.2247 130.925C35.4966 130.653 35.8654 130.5 36.25 130.5C36.6346 130.5 37.0034 130.653 37.2753 130.925C37.5472 131.197 37.7 131.565 37.7 131.95V139.2H43.5V126.15C43.5 125.765 43.6528 125.397 43.9247 125.125C44.1966 124.853 44.5654 124.7 44.95 124.7C45.3346 124.7 45.7034 124.853 45.9753 125.125C46.2472 125.397 46.4 125.765 46.4 126.15V136.3H52.2V120.35C52.2 119.965 52.3528 119.597 52.6247 119.325C52.8966 119.053 53.2654 118.9 53.65 118.9C54.0346 118.9 54.4034 119.053 54.6753 119.325C54.9472 119.597 55.1 119.965 55.1 120.35V136.3H60.9V123.25C60.9 122.865 61.0528 122.497 61.3247 122.225C61.5966 121.953 61.9655 121.8 62.35 121.8C62.7346 121.8 63.1034 121.953 63.3753 122.225C63.6472 122.497 63.8 122.865 63.8 123.25V145H69.6V137.75C69.6 137.365 69.7528 136.997 70.0247 136.725C70.2966 136.453 70.6655 136.3 71.05 136.3C71.4346 136.3 71.8034 136.453 72.0753 136.725C72.3472 136.997 72.5 137.365 72.5 137.75V155.048L65.0905 159.978C64.6922 160.244 64.3659 160.604 64.1408 161.027C63.9156 161.449 63.7985 161.921 63.8 162.4V174H69.6V165.3H104.4V174H110.2V162.4C110.2 161.923 110.082 161.453 109.857 161.032C109.632 160.611 109.307 160.252 108.91 159.987L101.5 155.048V137.75C101.5 137.365 101.653 136.997 101.925 136.725C102.197 136.453 102.565 136.3 102.95 136.3C103.335 136.3 103.703 136.453 103.975 136.725C104.247 136.997 104.4 137.365 104.4 137.75V145H110.2V123.25C110.2 122.865 110.353 122.497 110.625 122.225C110.897 121.953 111.265 121.8 111.65 121.8C112.035 121.8 112.403 121.953 112.675 122.225C112.947 122.497 113.1 122.865 113.1 123.25V136.3H118.9V120.35C118.9 119.965 119.053 119.597 119.325 119.325C119.597 119.053 119.965 118.9 120.35 118.9C120.735 118.9 121.103 119.053 121.375 119.325C121.647 119.597 121.8 119.965 121.8 120.35V136.3H127.6V126.15C127.6 125.765 127.753 125.397 128.025 125.125C128.297 124.853 128.665 124.7 129.05 124.7C129.435 124.7 129.803 124.853 130.075 125.125C130.347 125.397 130.5 125.765 130.5 126.15V139.2H136.3V131.95C136.3 131.565 136.453 131.197 136.725 130.925C136.997 130.653 137.365 130.5 137.75 130.5C138.135 130.5 138.503 130.653 138.775 130.925C139.047 131.197 139.2 131.565 139.2 131.95V152.83L133.887 160.799C133.572 161.274 133.403 161.83 133.4 162.4V174H139.2V165.3H168.2C169.738 165.3 171.214 164.689 172.301 163.601C173.389 162.513 174 161.038 174 159.5V147.9C174 147.762 173.991 147.625 173.971 147.488ZM5.80001 150.8H29V153.7C29.0009 154.273 29.1704 154.832 29.4872 155.309L32.2828 159.5H5.80001V150.8ZM77.0095 159.013C77.4066 158.748 77.7321 158.389 77.9572 157.968C78.1823 157.547 78.3001 157.077 78.3 156.6V150.8H95.7V156.6C95.6999 157.077 95.8177 157.547 96.0428 157.968C96.2679 158.389 96.5934 158.748 96.9905 159.013L97.73 159.5H76.27L77.0095 159.013ZM137.75 124.7C137.219 124.703 136.69 124.765 136.172 124.886C135.876 123.211 135 121.694 133.698 120.6C132.396 119.505 130.751 118.904 129.05 118.9C128.519 118.903 127.99 118.965 127.472 119.086C127.222 117.645 126.54 116.315 125.518 115.27C124.495 114.225 123.179 113.516 121.744 113.235C120.31 112.954 118.823 113.116 117.482 113.698C116.141 114.28 115.009 115.256 114.234 116.496C113.138 116.067 111.954 115.913 110.784 116.047C109.615 116.181 108.497 116.6 107.526 117.266C106.556 117.932 105.764 118.826 105.219 119.869C104.674 120.912 104.393 122.073 104.4 123.25V130.648C103.347 130.433 102.259 130.455 101.215 130.712C100.171 130.969 99.198 131.455 98.3653 132.135C97.5325 132.815 96.8614 133.671 96.4004 134.642C95.9395 135.614 95.7002 136.675 95.7 137.75V145H78.3V137.75C78.2998 136.675 78.0606 135.614 77.5996 134.642C77.1386 133.671 76.4675 132.815 75.6348 132.135C74.802 131.455 73.8286 130.969 72.7849 130.712C71.7411 130.455 70.6533 130.433 69.6 130.648V123.25C69.6071 122.073 69.3259 120.912 68.7809 119.869C68.2359 118.826 67.4437 117.932 66.4736 117.266C65.5034 116.6 64.3849 116.181 63.2156 116.047C62.0464 115.913 60.862 116.067 59.7661 116.496C58.9915 115.256 57.8588 114.28 56.5177 113.698C55.1767 113.116 53.6905 112.954 52.2557 113.235C50.8209 113.516 49.5051 114.225 48.4823 115.27C47.4595 116.315 46.7779 117.645 46.5276 119.086C46.0104 118.965 45.4812 118.903 44.95 118.9C43.2493 118.904 41.6041 119.505 40.3021 120.6C39.0001 121.694 38.1242 123.211 37.8276 124.886C37.3104 124.765 36.7812 124.703 36.25 124.7C34.3272 124.7 32.4831 125.464 31.1235 126.823C29.7638 128.183 29 130.027 29 131.95V145H6.24371L11.2143 110.2H162.786L167.756 145H145V131.95C145 130.027 144.236 128.183 142.877 126.823C141.517 125.464 139.673 124.7 137.75 124.7ZM141.717 159.5L144.513 155.309C144.83 154.832 144.999 154.273 145 153.7V150.8H168.2V159.5H141.717Z" fill="#464B61"/>
<path d="M29 29.0001V23.2001H20.3C19.5309 23.2001 18.7933 23.5056 18.2494 24.0495C17.7056 24.5933 17.4 25.3309 17.4 26.1001V95.7001C17.4 96.4692 17.7056 97.2068 18.2494 97.7507C18.7933 98.2945 19.5309 98.6001 20.3 98.6001H29V92.8001H23.2V29.0001H29Z" fill="#464B61"/>
<path d="M145 92.8001V98.6001H153.7C154.469 98.6001 155.207 98.2945 155.751 97.7507C156.294 97.2068 156.6 96.4692 156.6 95.7001V26.1001C156.6 25.3309 156.294 24.5933 155.751 24.0495C155.207 23.5056 154.469 23.2001 153.7 23.2001H145V29.0001H150.8V92.8001H145Z" fill="#464B61"/>
</svg>
