<svg width="200" height="200" viewBox="0 0 200 200" fill="none" xmlns="http://www.w3.org/2000/svg">
<g clip-path="url(#clip0)">
<path d="M74.3001 129.1L33.7334 111.566L35.8667 105.533C36.3634 104.214 37.6236 103.338 39.0334 103.333H57.5667C59.3918 107.122 61.4283 110.806 63.6667 114.366C64.0721 115.08 64.5172 115.77 65.0001 116.433C67.8552 120.83 70.9603 125.059 74.3001 129.1Z" fill="#E6E7EC"/>
<path d="M86.2326 141.866L55.6326 155.066L23.1992 141.066L33.7326 111.566L74.2992 129.099C78.0321 133.577 82.0163 137.839 86.2326 141.866Z" fill="#C0C5D0"/>
<path d="M171.733 196.665H132.4L65.5329 167.798L4.79958 194.031C4.66278 193.42 4.70916 192.783 4.93292 192.198L11.3663 174.131H11.3996L35.9329 163.531L17.9329 155.798L23.1996 141.065L55.6329 155.065L86.2329 141.865C90.4079 145.934 94.8876 149.678 99.6329 153.065L85.1662 159.298L171.733 196.665Z" fill="white"/>
<path d="M191.932 196.666H171.732L85.165 159.299L99.6317 153.066L99.9984 153.333C99.9984 153.333 100.532 152.966 101.498 152.266H101.532L134.498 138.066L143.332 141.866L156.665 147.633L171.398 153.999L183.232 159.099H183.265L195.065 192.199C195.434 193.221 195.283 194.358 194.659 195.247C194.035 196.136 193.018 196.666 191.932 196.666Z" fill="#E6E7EC"/>
<path d="M183.233 159.098L171.4 153.998L156.667 147.631L143.333 141.865L134.5 138.065L101.533 152.265C112.64 143.866 122.466 133.895 130.7 122.665L156.3 111.598L164.967 107.865L170.2 122.598L161.533 126.331L154.1 129.531L164.233 133.898L176.067 138.998L183.233 159.098Z" fill="white"/>
<path d="M164.966 107.867L130.699 122.667C132.133 120.7 133.599 118.6 134.999 116.433C135.482 115.77 135.927 115.08 136.333 114.367C138.571 110.806 140.607 107.122 142.433 103.333H160.999C162.405 103.326 163.662 104.208 164.133 105.533L164.966 107.867Z" fill="#C0C5D0"/>
<path d="M176.064 138.998L154.098 129.531L170.198 122.598L176.064 138.998Z" fill="#C0C5D0"/>
<path d="M176.067 138.998L164.233 133.898L161.533 126.331L170.2 122.598L176.067 138.998Z" fill="#C0C5D0"/>
<path d="M164.966 107.866L156.299 111.6L154.966 107.866L154.132 105.533C153.662 104.208 152.405 103.326 150.999 103.333L160.999 103.333C162.405 103.326 163.662 104.208 164.132 105.533L164.966 107.866Z" fill="#C0C5D0"/>
<path d="M170.199 122.598L161.532 126.331L160.199 122.598L156.299 111.598L164.965 107.865L170.199 122.598Z" fill="#E6E7EC"/>
<path d="M183.231 159.1L171.398 154L166.065 139L164.231 133.9L176.065 139L183.231 159.1Z" fill="#E6E7EC"/>
<path d="M191.933 196.667H181.933C183.019 196.667 184.037 196.137 184.66 195.248C185.284 194.359 185.435 193.222 185.066 192.2L173.266 159.1H173.233L171.399 154L183.233 159.1H183.266L195.066 192.2C195.435 193.222 195.284 194.359 194.66 195.248C194.037 196.137 193.019 196.667 191.933 196.667Z" fill="#C0C5D0"/>
<path d="M132.398 196.666L8.06452 196.666C6.49046 196.67 5.1284 195.572 4.79785 194.033L65.5312 167.8L132.398 196.666Z" fill="#E6E7EC"/>
<path d="M35.9327 163.531L11.3994 174.131L17.9327 155.798L35.9327 163.531Z" fill="#E6E7EC"/>
<path d="M153.33 57.165C153.278 73.1854 149.549 88.98 142.43 103.332C140.605 107.121 138.568 110.804 136.33 114.365C135.924 115.078 135.479 115.768 134.996 116.432C133.596 118.598 132.13 120.698 130.696 122.665C122.462 133.895 112.637 143.866 101.53 152.265H101.496C100.53 152.965 99.9964 153.332 99.9964 153.332L99.6297 153.065C94.8844 149.678 90.4047 145.934 86.2298 141.865C82.0135 137.839 78.0293 133.576 74.2964 129.098C70.9567 125.057 67.8516 120.828 64.9964 116.432C64.5136 115.768 64.0685 115.078 63.6631 114.365C61.4247 110.804 59.3881 107.121 57.5631 103.332C50.4438 88.98 46.7147 73.1854 46.6631 57.165C46.6631 38.1108 56.8284 20.5041 73.3298 10.977C89.8311 1.44989 110.162 1.44989 126.663 10.977C143.164 20.5041 153.33 38.1108 153.33 57.165Z" fill="#F6F7FC"/>
<path d="M148.6 35.0665C140.102 15.8075 121.05 3.36778 100 3.33313C98.31 3.33313 96.6667 3.4398 95 3.59313C122.467 6.41102 143.348 29.5552 143.333 57.1665C143.282 73.1868 139.553 88.9815 132.433 103.333C130.608 107.122 128.572 110.806 126.333 114.366C125.928 115.08 125.483 115.77 125 116.433C123.6 118.6 122.133 120.7 120.7 122.666C113.32 132.7 104.683 141.745 95 149.58C97.29 151.416 98.94 152.58 99.63 153.066L100 153.333C100 153.333 100.533 152.966 101.5 152.266H101.533C112.641 143.868 122.466 133.896 130.7 122.666C132.133 120.7 133.6 118.6 135 116.433C135.483 115.77 135.928 115.08 136.333 114.366C138.572 110.806 140.608 107.122 142.433 103.333C149.553 88.9815 153.282 73.1868 153.333 57.1665C153.356 49.5458 151.742 42.0092 148.6 35.0665Z" fill="#C0C5D0"/>
<path d="M130.966 58.3332H126.666V93.3332C126.666 95.1741 125.174 96.6665 123.333 96.6665H76.6663C74.8253 96.6665 73.3329 95.1741 73.3329 93.3332V58.3332H69.0329C68.3601 58.3372 67.7509 57.9361 67.4885 57.3166C67.2261 56.697 67.3619 55.9804 67.8329 55.4999L73.3329 49.9999L98.8329 24.4999C99.481 23.8646 100.518 23.8646 101.166 24.4999L132.166 55.4999C132.637 55.9804 132.773 56.697 132.511 57.3166C132.248 57.9361 131.639 58.3372 130.966 58.3332Z" fill="white"/>
<path d="M86.6663 36.6665V29.9998C86.6663 28.1589 85.174 26.6665 83.333 26.6665H76.6663C74.8254 26.6665 73.333 28.1589 73.333 29.9998V49.9998L86.6663 36.6665Z" fill="#C0C5D0"/>
<path d="M90 73.3331H110V96.6665H90V73.3331Z" fill="#FA4B5F"/>
<path d="M4.79922 194.033C5.12977 195.572 6.49182 196.67 8.06588 196.666H18.0659C16.4918 196.67 15.1298 195.572 14.7992 194.033C14.5125 192.81 14.4192 193.646 21.3659 174.133H21.3992C32.8125 142.106 41.6092 117.573 45.8659 105.533C46.3626 104.214 47.6227 103.338 49.0325 103.333H39.0325C37.6227 103.338 36.3626 104.214 35.8659 105.533C31.6092 117.573 22.8125 142.106 11.3992 174.133H11.3659C4.41921 193.646 4.51255 192.81 4.79922 194.033Z" fill="white"/>
<path d="M65.6863 11.6665L69.753 16.9498C63.1419 22.094 57.8846 28.7724 54.4363 36.4065L48.333 33.7065C52.2343 25.0551 58.1917 17.4887 65.6863 11.6665Z" fill="white"/>
<path d="M1.48224 193.959C1.48224 194.062 1.49891 194.159 1.50891 194.262C1.53224 194.432 1.50891 194.596 1.54891 194.772C2.22494 197.828 4.93577 200.003 8.06557 199.999H191.932C194.102 199.999 196.136 198.942 197.384 197.168C198.633 195.393 198.939 193.121 198.206 191.079L186.406 157.999C186.355 157.858 186.295 157.72 186.226 157.586L167.279 104.433C166.339 101.771 163.821 99.9938 160.999 99.9992H147.592C153.535 86.5035 156.624 71.9252 156.666 57.1792C156.909 35.5324 144.775 15.6457 125.414 5.96041C106.053 -3.72491 82.8625 -1.50967 65.6856 11.6658C64.9606 12.2109 64.4922 13.0305 64.3906 13.9318C64.2891 14.8331 64.5634 15.7365 65.1489 16.4292C66.3038 17.7937 68.3221 18.0217 69.7522 16.9492C84.9608 5.51966 105.329 3.68405 122.336 12.2102C139.343 20.7363 150.058 38.1547 149.999 57.1792C149.844 76.8838 144.105 96.1407 133.449 112.716C133.166 113.209 132.862 113.659 132.559 114.116L132.226 114.632C123.511 127.898 112.615 139.594 99.9989 149.226C95.9939 146.196 92.1685 142.936 88.5422 139.462C80.6845 132.016 73.7189 123.681 67.7856 114.626L67.4522 114.129C67.1489 113.672 66.8456 113.222 66.5022 112.626C55.8708 96.0751 50.1485 76.8498 49.9989 57.1792C49.9727 50.0287 51.4823 42.9559 54.4256 36.4392C54.9168 35.3543 54.792 34.0897 54.098 33.1218C53.4041 32.154 52.2465 31.6298 51.0614 31.7468C49.8762 31.8639 48.8435 32.6043 48.3522 33.6892C45.0163 41.0694 43.3043 49.08 43.3322 57.1792C43.3722 71.9247 46.459 86.5029 52.3989 99.9992H39.0322C36.2091 100.003 33.6889 101.77 32.7222 104.422L8.40557 172.599C8.33542 172.732 8.27525 172.87 8.22557 173.012L1.80557 191.046C1.47841 191.98 1.36785 192.976 1.48224 193.959ZM14.8522 193.332L65.5189 171.442L116.256 193.332H14.8522ZM168.269 127.059L170.356 132.909L162.522 129.532L168.269 127.059ZM144.446 106.666H159.369L139.756 115.136C141.456 112.332 142.999 109.506 144.446 106.666ZM132.842 125.372L163.019 112.339L166.019 120.769L152.772 126.472C151.551 127 150.761 128.203 150.761 129.532C150.761 130.862 151.551 132.065 152.772 132.592L173.406 141.486L177.519 152.999L135.816 134.999C134.974 134.642 134.024 134.642 133.182 134.999L119.606 140.842C124.367 135.995 128.789 130.826 132.842 125.372ZM99.7756 156.632C99.8489 156.632 99.9222 156.666 99.9989 156.666C100.66 156.665 101.306 156.469 101.856 156.102C101.966 156.029 102.439 155.706 103.189 155.172L134.522 141.696L180.642 161.602L191.932 193.332H172.419L93.5822 159.302L99.7756 156.632ZM39.0322 106.666H55.5456C57.1489 109.812 58.8489 112.942 60.7622 116.026C61.1222 116.656 61.5089 117.236 61.8989 117.826L62.1922 118.262C62.8122 119.219 63.4489 120.129 64.0789 121.052L37.9322 109.749L39.0322 106.666ZM35.6989 116.039L72.2722 131.849C75.0222 135.143 77.7489 138.139 80.3422 140.782L55.6456 151.449L27.3956 139.249L35.6989 116.039ZM19.8889 160.269L27.5056 163.542L17.1189 168.029L19.8889 160.269ZM13.9989 176.636L37.2389 166.592C38.4618 166.066 39.2542 164.862 39.2542 163.531C39.2542 162.199 38.4618 160.996 37.2389 160.469L22.1356 153.979L25.1356 145.539L54.2956 158.126C55.139 158.49 56.0954 158.49 56.9389 158.126L85.4956 145.792C88.3922 148.459 90.9556 150.622 93.0189 152.269L83.8322 156.226C82.6114 156.753 81.8208 157.956 81.8208 159.286C81.8208 160.616 82.6114 161.818 83.8322 162.346L155.592 193.332H133.079L66.8556 164.739C66.0121 164.375 65.0557 164.375 64.2122 164.739L9.89557 188.199L13.9989 176.636Z" fill="#50556C"/>
<path d="M58.2754 20.3319C56.427 20.342 54.9354 21.846 54.9404 23.6944C54.9455 25.5428 56.4453 27.0385 58.2938 27.0385C60.1422 27.0385 61.642 25.5428 61.6471 23.6944C61.6521 21.846 60.1605 20.342 58.3121 20.3319H58.2754Z" fill="#50556C"/>
<path d="M76.6659 100.001H123.333C127.014 100.001 129.999 97.0158 129.999 93.3339V61.6672H130.966C132.987 61.6709 134.811 60.4577 135.589 58.5927C136.367 56.7278 135.947 54.5777 134.523 53.1439L103.523 22.1439C101.573 20.2097 98.4286 20.2097 96.4792 22.1439L89.8725 28.7472C89.2718 25.6085 86.5282 23.3376 83.3325 23.3339H76.6659C72.984 23.3339 69.9992 26.3187 69.9992 30.0006V48.6206L65.4792 53.1406C64.0533 54.5737 63.6306 56.7245 64.4083 58.5906C65.186 60.4567 67.0109 61.6708 69.0325 61.6672H69.9992V93.3339C69.9992 97.0158 72.984 100.001 76.6659 100.001ZM106.666 93.3339H93.3325V76.6672H106.666V93.3339ZM76.6659 30.0006H83.3325V35.2872L76.6659 41.9539V30.0006ZM89.0226 39.0272L99.9992 28.0472L126.949 55.0006H126.666C124.825 55.0006 123.333 56.4929 123.333 58.3339V93.3339H113.333V73.3339C113.333 71.4929 111.84 70.0006 109.999 70.0006H89.9992C88.1583 70.0006 86.6659 71.4929 86.6659 73.3339V93.3339H76.6659V58.3339C76.6659 56.4929 75.1735 55.0006 73.3325 55.0006H73.0492L89.0226 39.0272Z" fill="#50556C"/>
</g>
<defs>
<clipPath id="clip0">
<rect width="200" height="200" fill="white"/>
</clipPath>
</defs>
</svg>
