<svg width="104" height="100" viewBox="0 0 104 100" fill="none" xmlns="http://www.w3.org/2000/svg">
<path d="M101.115 96.0935H92.3284V80.6639C92.3284 79.5852 91.4342 78.7108 90.3314 78.7108C89.2287 78.7108 88.3344 79.5852 88.3344 80.6639V96.0935H64.3703V58.9843C64.3703 57.9056 63.4761 57.0312 62.3733 57.0312H41.6044C40.5017 57.0312 39.6074 57.9056 39.6074 58.9843V96.0935H15.6433V51.9529H16.4118C16.9414 51.9529 17.4492 51.747 17.8239 51.3808L51.9889 17.9667L86.1539 51.3808C86.5285 51.747 87.0364 51.9529 87.566 51.9529H88.3344V66.6012C88.3344 67.68 89.2287 68.5544 90.3314 68.5544C91.4342 68.5544 92.3284 67.68 92.3284 66.6012V51.9529H101.115C101.923 51.9529 102.651 51.4769 102.96 50.7472C103.269 50.0175 103.098 49.1773 102.527 48.6187L53.401 0.572019C52.6209 -0.190673 51.3568 -0.190673 50.5766 0.572019L31.8047 18.9313C31.0249 19.694 31.0249 20.9307 31.8047 21.6934C32.5848 22.4563 33.8493 22.4563 34.6291 21.6934L51.9889 4.71517L96.2939 48.0466H88.3931L53.401 13.8235C52.6209 13.0608 51.3568 13.0608 50.5766 13.8235L15.5844 48.0466H7.68368L23.4459 32.6311C24.2257 31.8684 24.2257 30.6317 23.4459 29.8688C22.666 29.1063 21.4015 29.1061 20.6215 29.8688L1.45022 48.6187C0.879273 49.1773 0.708129 50.0173 1.01727 50.7472C1.3264 51.4771 2.05471 51.9529 2.8625 51.9529H11.6493V96.0933H2.8625C1.75975 96.0933 0.865493 96.9677 0.865493 98.0464C0.865493 99.1251 1.75975 99.9995 2.8625 99.9995H13.6463H41.6044H62.3733H90.3314H101.115C102.218 99.9995 103.112 99.1251 103.112 98.0464C103.112 96.9677 102.218 96.0935 101.115 96.0935ZM60.3763 96.0935H43.6015V60.9374H60.3763V96.0935Z" fill="#2F344C"/>
<path d="M81.9439 57.0312H70.7607C69.6579 57.0312 68.7637 57.9057 68.7637 58.9844V78.5155C68.7637 79.5942 69.6579 80.4687 70.7607 80.4687H81.9439C83.0467 80.4687 83.9409 79.5942 83.9409 78.5155V58.9844C83.9409 57.9057 83.0467 57.0312 81.9439 57.0312ZM79.9469 76.5624H72.7577V60.9375H79.9469V76.5624Z" fill="#2F344C"/>
<path d="M33.2169 57.0312H22.0336C20.9309 57.0312 20.0366 57.9057 20.0366 58.9844V78.5155C20.0366 79.5942 20.9309 80.4687 22.0336 80.4687H33.2169C34.3196 80.4687 35.2139 79.5942 35.2139 78.5155V58.9844C35.2139 57.9057 34.3196 57.0312 33.2169 57.0312ZM31.2199 76.5624H24.0306V60.9375H31.2199V76.5624Z" fill="#2F344C"/>
<path d="M51.989 32.0938C46.9238 32.0938 42.8027 36.1242 42.8027 41.0781C42.8027 46.032 46.9238 50.0624 51.989 50.0624C57.0542 50.0624 61.1752 46.032 61.1752 41.0781C61.1752 36.1242 57.0542 32.0938 51.989 32.0938ZM51.989 46.1562C49.1259 46.1562 46.7967 43.8781 46.7967 41.0781C46.7967 38.2781 49.1259 36 51.989 36C54.8521 36 57.1812 38.2781 57.1812 41.0781C57.1812 43.8781 54.8521 46.1562 51.989 46.1562Z" fill="#2F344C"/>
<path d="M49.606 77.1348C49.2347 76.7715 48.7193 76.5625 48.1943 76.5625C47.6691 76.5625 47.1538 76.7715 46.7824 77.1348C46.4109 77.498 46.1973 78.0019 46.1973 78.5156C46.1973 79.0293 46.4107 79.5332 46.7824 79.8965C47.154 80.2597 47.6691 80.4687 48.1943 80.4687C48.7195 80.4687 49.2347 80.2597 49.606 79.8965C49.9774 79.5332 50.1913 79.0293 50.1913 78.5156C50.1913 78.0019 49.9776 77.498 49.606 77.1348Z" fill="#2F344C"/>
<path d="M28.8374 24.5957C28.4662 24.2324 27.9509 24.0234 27.4257 24.0234C26.9005 24.0234 26.3853 24.2324 26.0138 24.5957C25.6424 24.959 25.4287 25.4629 25.4287 25.9766C25.4287 26.4902 25.6422 26.9941 26.0138 27.3574C26.3855 27.7207 26.9005 27.9297 27.4257 27.9297C27.9509 27.9297 28.4662 27.7207 28.8374 27.3574C29.2088 26.9941 29.4227 26.4902 29.4227 25.9766C29.4227 25.4629 29.209 24.959 28.8374 24.5957Z" fill="#2F344C"/>
<path d="M91.7432 71.7305C91.3719 71.3674 90.8565 71.1582 90.3315 71.1582C89.8063 71.1582 89.291 71.3672 88.9196 71.7305C88.5482 72.0957 88.3345 72.5976 88.3345 73.1113C88.3345 73.625 88.548 74.1289 88.9196 74.4941C89.291 74.8574 89.8063 75.0644 90.3315 75.0644C90.8567 75.0644 91.3719 74.8574 91.7432 74.4941C92.1146 74.1289 92.3285 73.6269 92.3285 73.1113C92.3285 72.5976 92.1148 72.0937 91.7432 71.7305Z" fill="#2F344C"/>
</svg>
