<svg width="63" height="61" viewBox="0 0 63 61" fill="none" xmlns="http://www.w3.org/2000/svg">
<path fill-rule="evenodd" clip-rule="evenodd" d="M39.1686 17.7192H3.25248C2.46389 17.7192 2.09329 16.7439 2.68333 16.2207L18.6877 2.02274C20.0886 0.674062 22.3046 0.674062 23.7048 2.02274L39.7308 16.2388C40.3132 16.7557 39.9474 17.7192 39.1686 17.7192Z" fill="#F6F7F8"/>
<path fill-rule="evenodd" clip-rule="evenodd" d="M39.1686 17.7192H3.25248C2.46389 17.7192 2.09329 16.7439 2.68333 16.2207L18.6877 2.02274C20.0886 0.674062 22.3046 0.674062 23.7048 2.02274L39.7308 16.2388C40.3132 16.7557 39.9474 17.7192 39.1686 17.7192Z" stroke="#99A0B1" stroke-width="2" stroke-linecap="round" stroke-linejoin="round"/>
<path fill-rule="evenodd" clip-rule="evenodd" d="M30.9553 36.528C30.9553 34.6046 32.515 33.0448 34.4384 33.0448C36.3618 33.0448 37.9216 34.6046 37.9216 36.528V17.719H4.47778V36.5287C4.47987 36.5287 4.48127 36.528 4.48336 36.528C4.48336 34.6046 6.04311 33.0448 7.9665 33.0448C9.8899 33.0448 11.4496 34.6046 11.4496 36.528C13.373 36.528 14.9328 38.0877 14.9328 40.0111C14.9328 40.5071 14.8255 40.9774 14.6388 41.4044H27.7661C27.5794 40.9774 27.4721 40.5071 27.4721 40.0111C27.4721 38.0877 29.0319 36.528 30.9553 36.528Z" fill="#F6F7F8"/>
<path fill-rule="evenodd" clip-rule="evenodd" d="M30.9553 36.528C30.9553 34.6046 32.515 33.0448 34.4384 33.0448C36.3618 33.0448 37.9216 34.6046 37.9216 36.528V17.719H4.47778V36.5287C4.47987 36.5287 4.48127 36.528 4.48336 36.528C4.48336 34.6046 6.04311 33.0448 7.9665 33.0448C9.8899 33.0448 11.4496 34.6046 11.4496 36.528C13.373 36.528 14.9328 38.0877 14.9328 40.0111C14.9328 40.5071 14.8255 40.9774 14.6388 41.4044H27.7661C27.5794 40.9774 27.4721 40.5071 27.4721 40.0111C27.4721 38.0877 29.0319 36.528 30.9553 36.528Z" stroke="#99A0B1" stroke-width="2" stroke-linecap="round" stroke-linejoin="round"/>
<path fill-rule="evenodd" clip-rule="evenodd" d="M5.17432 3.78652H13.5339V1H5.17432V3.78652Z" fill="#E6E7EC"/>
<path fill-rule="evenodd" clip-rule="evenodd" d="M5.17432 3.78652H13.5339V1H5.17432V3.78652Z" fill="#E6E7EC" stroke="#99A0B1" stroke-width="2" stroke-linecap="round" stroke-linejoin="round"/>
<path fill-rule="evenodd" clip-rule="evenodd" d="M25.382 41.4044H17.0225V28.8651C17.0225 26.5564 18.8936 24.6853 21.2022 24.6853C23.5109 24.6853 25.382 26.5564 25.382 28.8651V41.4044Z" fill="#E6E7EC"/>
<path fill-rule="evenodd" clip-rule="evenodd" d="M25.382 41.4044H17.0225V28.8651C17.0225 26.5564 18.8936 24.6853 21.2022 24.6853C23.5109 24.6853 25.382 26.5564 25.382 28.8651V41.4044Z" stroke="#99A0B1" stroke-width="2" stroke-linecap="round" stroke-linejoin="round"/>
<path fill-rule="evenodd" clip-rule="evenodd" d="M7.26978 27.4717H14.2361V20.5054H7.26978V27.4717Z" fill="#E6E7EC"/>
<path fill-rule="evenodd" clip-rule="evenodd" d="M7.26978 27.4717H14.2361V20.5054H7.26978V27.4717Z" fill="#E6E7EC" stroke="#99A0B1" stroke-width="2" stroke-linecap="round" stroke-linejoin="round"/>
<path fill-rule="evenodd" clip-rule="evenodd" d="M28.1687 27.4717H35.1294V20.5054H28.1687V27.4717Z" fill="#E6E7EC"/>
<path fill-rule="evenodd" clip-rule="evenodd" d="M28.1687 27.4717H35.1294V20.5054H28.1687V27.4717Z" stroke="#99A0B1" stroke-width="2" stroke-linecap="round" stroke-linejoin="round"/>
<path d="M19.1067 33.0449H19.8033" stroke="#99A0B1" stroke-width="2" stroke-linecap="round" stroke-linejoin="round"/>
<path fill-rule="evenodd" clip-rule="evenodd" d="M12.1402 7.83101V3.78638H6.56714V12.775L12.1402 7.83101Z" fill="#E6E7EC"/>
<path fill-rule="evenodd" clip-rule="evenodd" d="M12.1402 7.83101V3.78638H6.56714V12.775L12.1402 7.83101Z" stroke="#99A0B1" stroke-width="2" stroke-linecap="round" stroke-linejoin="round"/>
<path fill-rule="evenodd" clip-rule="evenodd" d="M14.6386 41.4045C14.8253 40.9774 14.9326 40.5072 14.9326 40.0112C14.9326 38.0878 13.3735 36.5281 11.4494 36.5281C11.4494 34.6047 9.89038 33.0449 7.96629 33.0449C6.0429 33.0449 4.48315 34.6047 4.48315 36.5281C2.55975 36.5281 1 38.0878 1 40.0112C1 40.5072 1.10728 40.9774 1.29398 41.4045H7.96629H14.6386Z" fill="#E6E7EC"/>
<path fill-rule="evenodd" clip-rule="evenodd" d="M14.6386 41.4045C14.8253 40.9774 14.9326 40.5072 14.9326 40.0112C14.9326 38.0878 13.3735 36.5281 11.4494 36.5281C11.4494 34.6047 9.89038 33.0449 7.96629 33.0449C6.0429 33.0449 4.48315 34.6047 4.48315 36.5281C2.55975 36.5281 1 38.0878 1 40.0112C1 40.5072 1.10728 40.9774 1.29398 41.4045H7.96629H14.6386Z" stroke="#99A0B1" stroke-width="2" stroke-linecap="round" stroke-linejoin="round"/>
<path d="M6.573 36.5279C6.573 36.5279 7.06482 35.8313 7.96626 35.8313C9.08644 35.8313 9.35951 36.5279 9.35951 36.5279" stroke="#99A0B1" stroke-width="2" stroke-linecap="round" stroke-linejoin="round"/>
<path fill-rule="evenodd" clip-rule="evenodd" d="M41.1105 41.4045C41.2972 40.9774 41.4045 40.5072 41.4045 40.0112C41.4045 38.0878 39.8455 36.5281 37.9214 36.5281C37.9214 34.6047 36.3623 33.0449 34.4382 33.0449C32.5148 33.0449 30.9551 34.6047 30.9551 36.5281C29.0317 36.5281 27.4719 38.0878 27.4719 40.0112C27.4719 40.5072 27.5792 40.9774 27.7659 41.4045H34.4382H41.1105Z" fill="#E6E7EC"/>
<path fill-rule="evenodd" clip-rule="evenodd" d="M41.1105 41.4045C41.2972 40.9774 41.4045 40.5072 41.4045 40.0112C41.4045 38.0878 39.8455 36.5281 37.9214 36.5281C37.9214 34.6047 36.3623 33.0449 34.4382 33.0449C32.5148 33.0449 30.9551 34.6047 30.9551 36.5281C29.0317 36.5281 27.4719 38.0878 27.4719 40.0112C27.4719 40.5072 27.5792 40.9774 27.7659 41.4045H34.4382H41.1105Z" stroke="#99A0B1" stroke-width="2" stroke-linecap="round" stroke-linejoin="round"/>
<path d="M33.0449 36.5279C33.0449 36.5279 33.5367 35.8313 34.4382 35.8313C35.5584 35.8313 35.8314 36.5279 35.8314 36.5279" stroke="#99A0B1" stroke-width="2" stroke-linecap="round" stroke-linejoin="round"/>
<path d="M6.573 6.573H8.66289" stroke="#99A0B1" stroke-width="2" stroke-linecap="round" stroke-linejoin="round"/>
<path d="M6.573 27.4719H14.9325" stroke="#99A0B1" stroke-width="2" stroke-linecap="round" stroke-linejoin="round"/>
<path d="M27.4719 27.4719H35.8315" stroke="#99A0B1" stroke-width="2" stroke-linecap="round" stroke-linejoin="round"/>
<path fill-rule="evenodd" clip-rule="evenodd" d="M7.26978 23.2919H14.2361V20.5054H7.26978V23.2919Z" stroke="#99A0B1" stroke-width="2" stroke-linecap="round" stroke-linejoin="round"/>
<path d="M10.7527 24.6855V23.2922" stroke="#99A0B1" stroke-width="2" stroke-linecap="round" stroke-linejoin="round"/>
<path fill-rule="evenodd" clip-rule="evenodd" d="M28.1687 23.2919H35.135V20.5054H28.1687V23.2919Z" stroke="#99A0B1" stroke-width="2" stroke-linecap="round" stroke-linejoin="round"/>
<path d="M31.6516 23.9889V23.2922" stroke="#99A0B1" stroke-width="2" stroke-linecap="round" stroke-linejoin="round"/>
<path d="M56.2118 33.5715L41.5512 23.8191L26.8906 33.5715V58.7084H56.2184V33.5715H56.2118Z" fill="#F6F7F8"/>
<path d="M56.2115 33.5715L41.5509 23.8191L38.542 25.8206L52.5448 35.1354H52.5515V58.7084H56.2181V33.5715H56.2115Z" fill="#E6E7EC"/>
<path d="M24.1485 37.4871L41.3062 26.0737C41.4563 25.9737 41.6517 25.9737 41.802 26.0737L58.9596 37.4871C59.4428 37.8085 60.0717 37.8085 60.5549 37.4871C61.4115 36.9173 61.4115 35.6588 60.5549 35.089L41.802 22.6145C41.6518 22.5146 41.4564 22.5146 41.3062 22.6145L22.5533 35.089C21.6967 35.6588 21.6967 36.9173 22.5533 37.4871C23.0365 37.8085 23.6654 37.8085 24.1485 37.4871Z" fill="#E6E7EC"/>
<path d="M41.5537 36.1961C43.304 36.1961 44.7229 34.7772 44.7229 33.0269C44.7229 31.2766 43.304 29.8577 41.5537 29.8577C39.8034 29.8577 38.3845 31.2766 38.3845 33.0269C38.3845 34.7772 39.8034 36.1961 41.5537 36.1961Z" fill="#F6F7F8"/>
<path d="M46.6144 45.0012H36.4932V60.2705H46.6144V45.0012Z" fill="#F6F7F8"/>
<path d="M46.6148 45.0015H41.5542V60.2707H46.6148V45.0015Z" fill="#F6F7F8"/>
<path d="M59.1079 57.8574H24.0004C23.3343 57.8574 22.7942 58.3974 22.7942 59.0637C22.7942 59.7298 23.3342 60.2699 24.0004 60.2699H59.1078C59.7739 60.2699 60.3141 59.7299 60.3141 59.0637C60.3141 58.3975 59.774 57.8574 59.1079 57.8574Z" fill="#99A0B1"/>
<path d="M61.1138 36.7702C61.1231 36.7438 61.1326 36.7173 61.1403 36.6905C61.1446 36.6754 61.1477 36.6601 61.1516 36.6449C61.1583 36.6179 61.1656 36.5911 61.1708 36.5637C61.1738 36.5485 61.1754 36.5332 61.1777 36.5179C61.1829 36.4827 61.1884 36.4475 61.1909 36.4119C61.1934 36.3768 61.1966 36.3417 61.197 36.3065C61.1972 36.2917 61.196 36.2769 61.1958 36.2621C61.1953 36.2327 61.1948 36.2031 61.1925 36.1737C61.1914 36.1593 61.1892 36.145 61.1876 36.1306C61.1844 36.1008 61.1809 36.071 61.1759 36.0414C61.1735 36.0277 61.1702 36.0141 61.1676 36.0005C61.1615 35.9705 61.1551 35.9405 61.1471 35.9108C61.1436 35.8977 61.1395 35.8849 61.1356 35.8719C61.1267 35.842 61.1171 35.8122 61.1062 35.7828C61.1016 35.7705 61.0965 35.7583 61.0916 35.746C61.0796 35.7164 61.067 35.6872 61.053 35.6584C61.0474 35.6467 61.0414 35.6352 61.0355 35.6237C61.0206 35.5949 61.0047 35.5665 60.9878 35.5387C60.9844 35.5331 60.9818 35.5273 60.9783 35.5218C60.9782 35.5221 60.9779 35.5224 60.9778 35.5226C60.8737 35.3566 60.7339 35.2075 60.5554 35.0888L58.6819 33.8425L58.4721 34.1647C58.1054 34.7277 57.3498 34.8834 56.7904 34.5113L41.8024 24.5414C41.6522 24.4416 41.4568 24.4416 41.3066 24.5414L24.1489 35.9549C23.6657 36.2763 23.0369 36.2763 22.5537 35.9549C22.3755 35.8363 22.2349 35.6877 22.1308 35.522C21.7344 36.1535 21.8755 37.0373 22.5554 37.4882C23.0458 37.8135 23.6894 37.7927 24.1793 37.4668L41.3066 26.0736C41.4567 25.9737 41.6522 25.9737 41.8024 26.0736L58.96 37.487C59.4432 37.8084 60.0721 37.8084 60.5553 37.487C60.5924 37.4624 60.6273 37.4359 60.6611 37.4087C60.6728 37.3993 60.6843 37.3895 60.6956 37.3798C60.7171 37.3614 60.7378 37.3424 60.758 37.323C60.7702 37.3113 60.7826 37.2999 60.7943 37.2879C60.8186 37.2628 60.8417 37.2371 60.8639 37.2108L60.8651 37.2089C60.9378 37.1219 60.9983 37.028 61.0471 36.9294L61.0502 36.9246C61.0555 36.9138 61.0596 36.9026 61.0646 36.8916C61.0764 36.8661 61.088 36.8406 61.0982 36.8146C61.1039 36.7999 61.1085 36.785 61.1138 36.7702Z" fill="#E6E7EC"/>
<path d="M60.3062 58.9298C60.3052 58.9209 60.3034 58.9123 60.3022 58.9035C60.2974 58.8672 60.2913 58.8313 60.2833 58.7962C60.2818 58.7899 60.28 58.7838 60.2785 58.7776C60.2692 58.7391 60.258 58.7014 60.245 58.6644C60.2442 58.662 60.2433 58.6597 60.2424 58.6573C60.2278 58.6167 60.2113 58.5773 60.1926 58.5388V58.5388C59.9972 58.1359 59.5856 57.8574 59.1078 57.8574H56.6473V58.3957C56.6473 58.851 56.2782 59.2201 55.8229 59.2201H24.0004C23.5227 59.2201 23.111 58.9416 22.9157 58.5388C22.8184 58.7393 22.7731 58.9697 22.8036 59.214C22.8796 59.8235 23.4185 60.2699 24.0328 60.2699H59.1079C59.7741 60.2699 60.3141 59.7298 60.3141 59.0637C60.3141 59.0183 60.3111 58.9738 60.3062 58.9298Z" fill="#99A0B1"/>
<path d="M49.3349 60.2699H46.1091V37.7403C46.1091 36.8496 46.8312 36.1274 47.722 36.1274C48.6127 36.1274 49.3349 36.8496 49.3349 37.7403V60.2699Z" fill="#E6E7EC"/>
<path d="M47.7224 36.1274C47.4283 36.1274 47.1534 36.2074 46.916 36.345C47.3977 36.624 47.7224 37.1437 47.7224 37.7403V60.27H49.3353V37.7403C49.3352 36.8495 48.6131 36.1274 47.7224 36.1274Z" fill="#E6E7EC"/>
<path d="M61.4996 52.2733H33.9451C33.3855 52.2733 32.9319 51.8196 32.9319 51.2601V40.7354C32.9319 40.1757 33.3855 39.7222 33.9451 39.7222H61.4995C62.0591 39.7222 62.5127 40.1758 62.5127 40.7354V51.2601C62.5127 51.8196 62.0591 52.2733 61.4996 52.2733Z" fill="#F6F7F8"/>
<path d="M61.4996 39.7222H58.8461V49.7186C58.8461 50.2783 58.3924 50.7319 57.8329 50.7319H32.9319V51.2602C32.9319 51.8198 33.3855 52.2734 33.9451 52.2734H61.4995C62.0591 52.2734 62.5127 51.8198 62.5127 51.2602V40.7354C62.5127 40.1757 62.0591 39.7222 61.4996 39.7222Z" fill="#E6E7EC"/>
<path d="M39.4613 44.4125C39.4613 43.9966 39.8166 43.7452 40.4404 43.7452C41.1683 43.7452 41.3676 44.0746 41.6362 44.0746C41.9481 44.0746 42.0868 43.676 42.0868 43.4767C42.0868 42.9048 40.9517 42.7834 40.4404 42.7834C39.444 42.7834 38.3349 43.2254 38.3349 44.5164C38.3349 46.57 41.1163 46.1715 41.1163 47.4712C41.1163 47.9911 40.6657 48.2251 40.1459 48.2251C39.262 48.2251 39.0281 47.5579 38.6729 47.5579C38.4042 47.5579 38.179 47.9218 38.179 48.1644C38.179 48.667 39.0454 49.2388 40.1805 49.2388C41.3762 49.2388 42.2427 48.5976 42.2427 47.3586C42.2428 45.1143 39.4613 45.4869 39.4613 44.4125Z" fill="#99A0B1"/>
<path d="M45.8815 43.157C45.8035 42.8969 45.4829 42.7756 45.1537 42.7756C44.833 42.7756 44.5125 42.8969 44.4345 43.157L42.7622 48.6072C42.7535 48.6417 42.7449 48.6765 42.7449 48.6938C42.7449 48.9711 43.1521 49.1617 43.4554 49.1617C43.646 49.1617 43.7932 49.101 43.8366 48.9364L44.1659 47.784H46.1502L46.4795 48.9364C46.5228 49.101 46.6701 49.1617 46.8607 49.1617C47.164 49.1617 47.5712 48.9624 47.5712 48.6938C47.5712 48.6677 47.5626 48.6418 47.5539 48.6072L45.8815 43.157ZM44.3998 46.9001L45.1537 44.24L45.9075 46.9001H44.3998Z" fill="#99A0B1"/>
<path d="M51.5829 48.1741H49.4687V43.1744C49.4687 42.9318 49.1828 42.8279 48.9055 42.8279C48.6196 42.8279 48.3423 42.9318 48.3423 43.1744V48.8066C48.3423 49.0406 48.5849 49.1619 48.8362 49.1619H51.5829C51.8082 49.1619 51.9208 48.9105 51.9208 48.6679C51.9208 48.4167 51.8082 48.1741 51.5829 48.1741Z" fill="#99A0B1"/>
<path d="M56.2871 43.8154C56.5123 43.8154 56.6424 43.5815 56.6424 43.3128C56.6424 43.0789 56.5297 42.8276 56.2871 42.8276H53.2024C52.9511 42.8276 52.7085 42.9489 52.7085 43.1829V48.8063C52.7085 49.0403 52.9511 49.1616 53.2024 49.1616H56.2871C56.5297 49.1616 56.6424 48.9103 56.6424 48.6764C56.6424 48.4077 56.5123 48.1738 56.2871 48.1738H53.8349V46.4321H55.1519C55.3946 46.4321 55.5072 46.1982 55.5072 45.9989C55.5072 45.765 55.3772 45.5482 55.1519 45.5482H53.8349V43.8153H56.2871V43.8154Z" fill="#99A0B1"/>
<path d="M61.3887 39.1241H49.8224V37.7403C49.8224 37.626 49.8137 37.5136 49.7968 37.404C49.6344 36.344 48.7163 35.5294 47.6114 35.5294C46.5066 35.5294 45.5885 36.344 45.4261 37.404C45.4092 37.5136 45.4005 37.626 45.4005 37.7403V39.1241H33.8343C33.0014 39.1241 32.3141 39.7594 32.2315 40.5708C32.226 40.625 32.2232 40.6798 32.2232 40.7353V51.2601C32.2232 52.1485 32.946 52.8713 33.8343 52.8713H35.785V57.2593H27.3777V35.9839L41.4436 26.6272L55.5095 35.9839V37.6519C55.5095 37.9822 55.7772 38.2499 56.1075 38.2499C56.4378 38.2499 56.7054 37.9822 56.7054 37.6519V36.7796L58.5179 37.9853C59.2036 38.4414 60.0898 38.4414 60.7755 37.9852C61.3448 37.6065 61.6847 36.972 61.6847 36.2882C61.6847 35.6044 61.3448 34.97 60.7755 34.5914L42.0227 22.1167C41.671 21.8826 41.2163 21.8826 40.8646 22.1167L30.44 29.0513C30.165 29.2341 30.0903 29.6053 30.2733 29.8804C30.4562 30.1552 30.8275 30.23 31.1024 30.047L41.4436 23.1678L60.1132 35.5871C60.3519 35.7459 60.4888 36.0014 60.4889 36.2881C60.4889 36.5749 60.3519 36.8305 60.1131 36.9894C59.8298 37.1778 59.4636 37.1778 59.1803 36.9894L56.4387 35.1656L42.0227 25.5759C41.671 25.342 41.2163 25.3418 40.8646 25.5759L23.7068 36.9894C23.4235 37.1777 23.0574 37.1779 22.774 36.9893C22.5353 36.8305 22.3984 36.575 22.3984 36.2882C22.3984 36.0014 22.5353 35.7459 22.774 35.587L27.9941 32.1146C28.269 31.9317 28.3437 31.5605 28.1608 31.2855C27.9778 31.0106 27.6066 30.9359 27.3317 31.1189L22.1117 34.5912C21.5423 34.9699 21.2024 35.6043 21.2024 36.2882C21.2024 36.9721 21.5423 37.6065 22.1117 37.9851C22.4546 38.2133 22.8474 38.3273 23.2405 38.3273C23.6334 38.3272 24.0265 38.2132 24.3693 37.9851L26.1817 36.7795V57.2593H23.8899C22.895 57.2593 22.0857 58.0687 22.0857 59.0636C22.0857 60.0585 22.895 60.8678 23.8899 60.8678H45.9987H49.2245H58.9974C59.9923 60.8678 60.8016 60.0584 60.8016 59.0636C60.8016 58.0687 59.9922 57.2593 58.9974 57.2593H56.7056V54.312C56.7056 53.9817 56.4379 53.714 56.1076 53.714C55.7773 53.714 55.5096 53.9817 55.5096 54.312V57.2593H49.8226V52.8713H61.3889C62.2773 52.8713 63.0001 52.1485 63.0001 51.2601V40.7353C63 39.8469 62.2772 39.1241 61.3887 39.1241ZM46.5966 37.7403C46.5966 37.1806 47.0519 36.7254 47.6115 36.7254C48.1711 36.7254 48.6264 37.1806 48.6264 37.7403V39.1241H46.5966V37.7403ZM45.4007 59.6718H23.8899C23.5546 59.6718 23.2817 59.399 23.2817 59.0636C23.2817 58.7281 23.5545 58.4553 23.8899 58.4553H26.7797H36.383H45.4007V59.6718ZM45.4007 57.2593H36.981V52.8713H45.4007V57.2593ZM48.6264 57.8573V59.6718H46.5966V57.8573V52.8713H48.6264V57.8573ZM56.1075 58.4553H58.9973C59.3327 58.4553 59.6056 58.7281 59.6056 59.0636C59.6056 59.399 59.3327 59.6718 58.9973 59.6718H49.8224V58.4553H56.1075ZM61.804 51.2601C61.804 51.4891 61.6178 51.6754 61.3887 51.6754H49.2244H45.9986H36.383H33.8343C33.6053 51.6754 33.4191 51.4891 33.4191 51.2601V40.7353C33.4191 40.5064 33.6053 40.3201 33.8343 40.3201H45.9986H49.2244C49.2249 40.3201 49.2255 40.32 49.226 40.32H61.3887C61.6177 40.32 61.804 40.5063 61.804 40.7353V51.2601Z" fill="#99A0B1"/>
<path d="M37.6765 33.0269C37.6765 35.1042 39.3665 36.7942 41.4437 36.7942C43.5209 36.7942 45.2109 35.1043 45.2109 33.0269C45.2109 30.9498 43.5209 29.2598 41.4437 29.2598C39.3665 29.2598 37.6765 30.9497 37.6765 33.0269ZM40.8457 35.5272C39.9067 35.3026 39.1666 34.5618 38.9429 33.6224H40.8457V35.5272ZM40.8457 32.4264H38.9441C39.1692 31.4894 39.9085 30.7509 40.8457 30.5268V32.4264ZM42.0417 30.5268C42.979 30.7509 43.7183 31.4895 43.9433 32.4264H42.0417V30.5268ZM42.0417 33.6224H43.9445C43.7208 34.5618 42.9807 35.3026 42.0417 35.5272V33.6224Z" fill="#99A0B1"/>
</svg>
