<svg width="72" height="80" viewBox="0 0 72 80" fill="none" xmlns="http://www.w3.org/2000/svg">
<path d="M70.3238 20.7453L42.3238 0.745313C41.6277 0.247969 40.8132 0 39.9985 0C39.1838 0 38.3691 0.247969 37.6732 0.745313L9.67318 20.7453C8.25849 21.7559 7.65849 23.5653 8.18912 25.2213C8.71974 26.8772 10.2597 27.9998 11.9985 27.9998H15.9985V30.2545C17.2505 29.2386 18.5905 28.3625 19.9985 27.6278V24H11.9985L39.9985 4L67.9985 24H59.9985V60H52.3691C51.6332 61.408 50.7585 62.748 49.7424 64H59.9983C62.2077 64 63.9983 62.2094 63.9983 60V28H67.9983C69.7369 28 71.2769 26.8773 71.8077 25.2214C72.3385 23.5653 71.7385 21.7559 70.3238 20.7453Z" fill="#2F344C"/>
<path d="M45.2239 34.7753C41.4466 30.998 36.4239 28.918 31.0812 28.918C25.7386 28.918 20.7172 30.998 16.9386 34.7753C9.62531 42.0886 9.26125 53.6553 15.668 61.5033L0 77.1727L2.82797 80.0006L18.492 64.3366C22.052 67.2513 26.4188 68.918 31.0814 68.918C36.4241 68.918 41.4467 66.838 45.2241 63.0594C49.0014 59.282 51.0814 54.2594 51.0814 48.918C51.0812 43.5753 49.0013 38.5527 45.2239 34.7753ZM42.3959 60.2313C39.2719 63.3553 35.1773 64.918 31.0827 64.918C26.9906 64.918 22.8986 63.358 19.7759 60.2366L19.7639 60.2245C13.5212 53.9752 13.5225 43.8498 19.7692 37.6045C22.8933 34.4805 26.9878 32.9178 31.0825 32.9178C35.1772 32.9178 39.2719 34.4805 42.3958 37.6045C48.6439 43.8527 48.6439 53.9833 42.3959 60.2313Z" fill="#2F344C"/>
</svg>
