<svg width="63" height="61" viewBox="0 0 63 61" fill="none" xmlns="http://www.w3.org/2000/svg">
<path fill-rule="evenodd" clip-rule="evenodd" d="M39.1686 17.7192H3.25248C2.46389 17.7192 2.09329 16.7439 2.68333 16.2207L18.6877 2.02274C20.0886 0.674062 22.3046 0.674062 23.7048 2.02274L39.7308 16.2388C40.3132 16.7557 39.9474 17.7192 39.1686 17.7192Z" fill="#F6F7F8"/>
<path fill-rule="evenodd" clip-rule="evenodd" d="M39.1686 17.7192H3.25248C2.46389 17.7192 2.09329 16.7439 2.68333 16.2207L18.6877 2.02274C20.0886 0.674062 22.3046 0.674062 23.7048 2.02274L39.7308 16.2388C40.3132 16.7557 39.9474 17.7192 39.1686 17.7192Z" stroke="#1AACFF" stroke-width="2" stroke-linecap="round" stroke-linejoin="round"/>
<path fill-rule="evenodd" clip-rule="evenodd" d="M30.9553 36.528C30.9553 34.6046 32.515 33.0448 34.4384 33.0448C36.3618 33.0448 37.9216 34.6046 37.9216 36.528V17.719H4.47778V36.5287C4.47987 36.5287 4.48127 36.528 4.48336 36.528C4.48336 34.6046 6.04311 33.0448 7.9665 33.0448C9.8899 33.0448 11.4496 34.6046 11.4496 36.528C13.373 36.528 14.9328 38.0877 14.9328 40.0111C14.9328 40.5071 14.8255 40.9774 14.6388 41.4044H27.7661C27.5794 40.9774 27.4721 40.5071 27.4721 40.0111C27.4721 38.0877 29.0319 36.528 30.9553 36.528Z" fill="#F6F7F8"/>
<path fill-rule="evenodd" clip-rule="evenodd" d="M30.9553 36.528C30.9553 34.6046 32.515 33.0448 34.4384 33.0448C36.3618 33.0448 37.9216 34.6046 37.9216 36.528V17.719H4.47778V36.5287C4.47987 36.5287 4.48127 36.528 4.48336 36.528C4.48336 34.6046 6.04311 33.0448 7.9665 33.0448C9.8899 33.0448 11.4496 34.6046 11.4496 36.528C13.373 36.528 14.9328 38.0877 14.9328 40.0111C14.9328 40.5071 14.8255 40.9774 14.6388 41.4044H27.7661C27.5794 40.9774 27.4721 40.5071 27.4721 40.0111C27.4721 38.0877 29.0319 36.528 30.9553 36.528Z" stroke="#1AACFF" stroke-width="2" stroke-linecap="round" stroke-linejoin="round"/>
<path fill-rule="evenodd" clip-rule="evenodd" d="M5.17432 3.78652H13.5339V1H5.17432V3.78652Z" fill="#D0E8F9"/>
<path fill-rule="evenodd" clip-rule="evenodd" d="M5.17432 3.78652H13.5339V1H5.17432V3.78652Z" fill="#D0E8F9" stroke="#1AACFF" stroke-width="2" stroke-linecap="round" stroke-linejoin="round"/>
<path fill-rule="evenodd" clip-rule="evenodd" d="M25.382 41.4044H17.0225V28.8651C17.0225 26.5564 18.8936 24.6853 21.2022 24.6853C23.5109 24.6853 25.382 26.5564 25.382 28.8651V41.4044Z" fill="#D0E8F9"/>
<path fill-rule="evenodd" clip-rule="evenodd" d="M25.382 41.4044H17.0225V28.8651C17.0225 26.5564 18.8936 24.6853 21.2022 24.6853C23.5109 24.6853 25.382 26.5564 25.382 28.8651V41.4044Z" stroke="#1AACFF" stroke-width="2" stroke-linecap="round" stroke-linejoin="round"/>
<path fill-rule="evenodd" clip-rule="evenodd" d="M7.26978 27.4718H14.2361V20.5055H7.26978V27.4718Z" fill="#D0E8F9"/>
<path fill-rule="evenodd" clip-rule="evenodd" d="M7.26978 27.4718H14.2361V20.5055H7.26978V27.4718Z" fill="#D0E8F9" stroke="#1AACFF" stroke-width="2" stroke-linecap="round" stroke-linejoin="round"/>
<path fill-rule="evenodd" clip-rule="evenodd" d="M28.1686 27.4718H35.1293V20.5055H28.1686V27.4718Z" fill="#D0E8F9"/>
<path fill-rule="evenodd" clip-rule="evenodd" d="M28.1686 27.4718H35.1293V20.5055H28.1686V27.4718Z" stroke="#1AACFF" stroke-width="2" stroke-linecap="round" stroke-linejoin="round"/>
<path d="M19.1067 33.0449H19.8033" stroke="#1AACFF" stroke-width="2" stroke-linecap="round" stroke-linejoin="round"/>
<path fill-rule="evenodd" clip-rule="evenodd" d="M12.1402 7.83113V3.7865H6.56714V12.7751L12.1402 7.83113Z" fill="#D0E8F9"/>
<path fill-rule="evenodd" clip-rule="evenodd" d="M12.1402 7.83113V3.7865H6.56714V12.7751L12.1402 7.83113Z" stroke="#1AACFF" stroke-width="2" stroke-linecap="round" stroke-linejoin="round"/>
<path fill-rule="evenodd" clip-rule="evenodd" d="M14.6386 41.4045C14.8253 40.9774 14.9326 40.5072 14.9326 40.0112C14.9326 38.0878 13.3735 36.5281 11.4494 36.5281C11.4494 34.6047 9.89038 33.0449 7.96629 33.0449C6.0429 33.0449 4.48315 34.6047 4.48315 36.5281C2.55975 36.5281 1 38.0878 1 40.0112C1 40.5072 1.10728 40.9774 1.29398 41.4045H7.96629H14.6386Z" fill="#D0E8F9"/>
<path fill-rule="evenodd" clip-rule="evenodd" d="M14.6386 41.4045C14.8253 40.9774 14.9326 40.5072 14.9326 40.0112C14.9326 38.0878 13.3735 36.5281 11.4494 36.5281C11.4494 34.6047 9.89038 33.0449 7.96629 33.0449C6.0429 33.0449 4.48315 34.6047 4.48315 36.5281C2.55975 36.5281 1 38.0878 1 40.0112C1 40.5072 1.10728 40.9774 1.29398 41.4045H7.96629H14.6386Z" stroke="#1AACFF" stroke-width="2" stroke-linecap="round" stroke-linejoin="round"/>
<path d="M6.57288 36.5281C6.57288 36.5281 7.0647 35.8314 7.96613 35.8314C9.08631 35.8314 9.35939 36.5281 9.35939 36.5281" stroke="#1AACFF" stroke-width="2" stroke-linecap="round" stroke-linejoin="round"/>
<path fill-rule="evenodd" clip-rule="evenodd" d="M41.1107 41.4045C41.2973 40.9774 41.4046 40.5072 41.4046 40.0112C41.4046 38.0878 39.8456 36.5281 37.9215 36.5281C37.9215 34.6047 36.3624 33.0449 34.4383 33.0449C32.5149 33.0449 30.9552 34.6047 30.9552 36.5281C29.0318 36.5281 27.472 38.0878 27.472 40.0112C27.472 40.5072 27.5793 40.9774 27.766 41.4045H34.4383H41.1107Z" fill="#D0E8F9"/>
<path fill-rule="evenodd" clip-rule="evenodd" d="M41.1107 41.4045C41.2973 40.9774 41.4046 40.5072 41.4046 40.0112C41.4046 38.0878 39.8456 36.5281 37.9215 36.5281C37.9215 34.6047 36.3624 33.0449 34.4383 33.0449C32.5149 33.0449 30.9552 34.6047 30.9552 36.5281C29.0318 36.5281 27.472 38.0878 27.472 40.0112C27.472 40.5072 27.5793 40.9774 27.766 41.4045H34.4383H41.1107Z" stroke="#1AACFF" stroke-width="2" stroke-linecap="round" stroke-linejoin="round"/>
<path d="M33.0449 36.5281C33.0449 36.5281 33.5367 35.8314 34.4382 35.8314C35.5584 35.8314 35.8314 36.5281 35.8314 36.5281" stroke="#1AACFF" stroke-width="2" stroke-linecap="round" stroke-linejoin="round"/>
<path d="M6.57288 6.57288H8.66276" stroke="#1AACFF" stroke-width="2" stroke-linecap="round" stroke-linejoin="round"/>
<path d="M6.57288 27.472H14.9324" stroke="#1AACFF" stroke-width="2" stroke-linecap="round" stroke-linejoin="round"/>
<path d="M27.472 27.472H35.8316" stroke="#1AACFF" stroke-width="2" stroke-linecap="round" stroke-linejoin="round"/>
<path fill-rule="evenodd" clip-rule="evenodd" d="M7.26978 23.292H14.2361V20.5055H7.26978V23.292Z" stroke="#1AACFF" stroke-width="2" stroke-linecap="round" stroke-linejoin="round"/>
<path d="M10.7527 24.6855V23.2922" stroke="#1AACFF" stroke-width="2" stroke-linecap="round" stroke-linejoin="round"/>
<path fill-rule="evenodd" clip-rule="evenodd" d="M28.1686 23.292H35.1349V20.5055H28.1686V23.292Z" stroke="#1AACFF" stroke-width="2" stroke-linecap="round" stroke-linejoin="round"/>
<path d="M31.6516 23.9889V23.2922" stroke="#1AACFF" stroke-width="2" stroke-linecap="round" stroke-linejoin="round"/>
<path d="M56.2117 33.5715L41.5511 23.8191L26.8905 33.5715V58.7084H56.2183V33.5715H56.2117Z" fill="#F6F7F8"/>
<path d="M56.2114 33.5715L41.5508 23.8191L38.5419 25.8206L52.5446 35.1354H52.5513V58.7084H56.218V33.5715H56.2114Z" fill="#D0E8F9"/>
<path d="M24.1484 37.4871L41.3061 26.0737C41.4562 25.9737 41.6516 25.9737 41.8018 26.0737L58.9595 37.4871C59.4427 37.8085 60.0715 37.8085 60.5547 37.4871C61.4113 36.9173 61.4113 35.6588 60.5547 35.089L41.8018 22.6145C41.6517 22.5146 41.4563 22.5146 41.3061 22.6145L22.5532 35.089C21.6966 35.6588 21.6966 36.9173 22.5532 37.4871C23.0363 37.8085 23.6653 37.8085 24.1484 37.4871Z" fill="#D0E8F9"/>
<path d="M41.5537 36.1961C43.304 36.1961 44.7229 34.7772 44.7229 33.0269C44.7229 31.2766 43.304 29.8577 41.5537 29.8577C39.8034 29.8577 38.3845 31.2766 38.3845 33.0269C38.3845 34.7772 39.8034 36.1961 41.5537 36.1961Z" fill="#F6F7F8"/>
<path d="M46.6145 45.0011H36.4933V60.2703H46.6145V45.0011Z" fill="#F6F7F8"/>
<path d="M46.6147 45.0013H41.5541V60.2706H46.6147V45.0013Z" fill="#F6F7F8"/>
<path d="M59.1079 57.8574H24.0004C23.3343 57.8574 22.7942 58.3974 22.7942 59.0637C22.7942 59.7298 23.3342 60.2699 24.0004 60.2699H59.1078C59.774 60.2699 60.3141 59.7299 60.3141 59.0637C60.3141 58.3975 59.774 57.8574 59.1079 57.8574Z" fill="#1AACFF"/>
<path d="M61.1136 36.7702C61.1229 36.7438 61.1325 36.7173 61.1402 36.6905C61.1445 36.6754 61.1476 36.6601 61.1514 36.6449C61.1582 36.6179 61.1655 36.5911 61.1707 36.5637C61.1736 36.5485 61.1753 36.5332 61.1776 36.5179C61.1828 36.4827 61.1882 36.4475 61.1908 36.4119C61.1932 36.3768 61.1965 36.3417 61.1969 36.3065C61.1971 36.2917 61.1959 36.2769 61.1957 36.2621C61.1952 36.2327 61.1947 36.2031 61.1924 36.1737C61.1913 36.1593 61.1891 36.145 61.1874 36.1306C61.1843 36.1008 61.1808 36.071 61.1758 36.0414C61.1734 36.0277 61.1701 36.0141 61.1674 36.0005C61.1614 35.9705 61.1549 35.9405 61.147 35.9108C61.1435 35.8977 61.1394 35.8849 61.1354 35.8719C61.1265 35.842 61.117 35.8122 61.106 35.7828C61.1015 35.7705 61.0963 35.7583 61.0914 35.746C61.0795 35.7164 61.0669 35.6872 61.0529 35.6584C61.0473 35.6467 61.0413 35.6352 61.0353 35.6237C61.0205 35.5949 61.0046 35.5665 60.9877 35.5387C60.9843 35.5331 60.9816 35.5273 60.9782 35.5218C60.978 35.5221 60.9778 35.5224 60.9776 35.5226C60.8736 35.3566 60.7338 35.2075 60.5553 35.0888L58.6818 33.8425L58.472 34.1647C58.1053 34.7277 57.3497 34.8834 56.7903 34.5113L41.8023 24.5414C41.6521 24.4416 41.4567 24.4416 41.3065 24.5414L24.1488 35.9549C23.6656 36.2763 23.0368 36.2763 22.5536 35.9549C22.3754 35.8363 22.2348 35.6877 22.1307 35.522C21.7343 36.1535 21.8754 37.0373 22.5553 37.4882C23.0457 37.8135 23.6893 37.7927 24.1792 37.4668L41.3065 26.0736C41.4566 25.9737 41.652 25.9737 41.8023 26.0736L58.9599 37.487C59.4431 37.8084 60.072 37.8084 60.5552 37.487C60.5922 37.4624 60.6272 37.4359 60.661 37.4087C60.6727 37.3993 60.6841 37.3895 60.6955 37.3798C60.717 37.3614 60.7377 37.3424 60.7579 37.323C60.77 37.3113 60.7825 37.2999 60.7942 37.2879C60.8184 37.2628 60.8416 37.2371 60.8637 37.2108L60.865 37.2089C60.9377 37.1219 60.9982 37.028 61.047 36.9294L61.0501 36.9246C61.0554 36.9138 61.0595 36.9026 61.0645 36.8916C61.0762 36.8661 61.0879 36.8406 61.098 36.8146C61.1038 36.7999 61.1084 36.785 61.1136 36.7702Z" fill="#D0E8F9"/>
<path d="M60.3062 58.9298C60.3052 58.9209 60.3034 58.9123 60.3022 58.9035C60.2974 58.8672 60.2913 58.8313 60.2833 58.7962C60.2818 58.7899 60.28 58.7838 60.2785 58.7776C60.2692 58.7391 60.258 58.7014 60.245 58.6644C60.2442 58.662 60.2433 58.6597 60.2424 58.6573C60.2278 58.6167 60.2113 58.5773 60.1926 58.5388V58.5388C59.9972 58.1359 59.5856 57.8574 59.1078 57.8574H56.6473V58.3957C56.6473 58.851 56.2782 59.2201 55.8229 59.2201H24.0004C23.5227 59.2201 23.111 58.9416 22.9157 58.5388C22.8184 58.7393 22.7731 58.9697 22.8036 59.214C22.8796 59.8235 23.4185 60.2699 24.0328 60.2699H59.1079C59.7741 60.2699 60.3141 59.7298 60.3141 59.0637C60.3141 59.0183 60.3111 58.9738 60.3062 58.9298Z" fill="#1AACFF"/>
<path d="M49.3349 60.2698H46.1091V37.7402C46.1091 36.8495 46.8312 36.1273 47.722 36.1273C48.6127 36.1273 49.3349 36.8495 49.3349 37.7402V60.2698Z" fill="#D0E8F9"/>
<path d="M47.7222 36.1273C47.428 36.1273 47.1532 36.2073 46.9158 36.3449C47.3974 36.6238 47.7222 37.1436 47.7222 37.7402V60.2698H49.3351V37.7402C49.335 36.8494 48.6129 36.1273 47.7222 36.1273Z" fill="#D0E8F9"/>
<path d="M61.4996 52.2732H33.9451C33.3855 52.2732 32.9319 51.8195 32.9319 51.26V40.7352C32.9319 40.1756 33.3855 39.722 33.9451 39.722H61.4995C62.0591 39.722 62.5127 40.1757 62.5127 40.7352V51.26C62.5127 51.8195 62.0591 52.2732 61.4996 52.2732Z" fill="#F6F7F8"/>
<path d="M61.4996 39.722H58.8461V49.7185C58.8461 50.2781 58.3924 50.7318 57.8329 50.7318H32.9319V51.2601C32.9319 51.8197 33.3855 52.2733 33.9451 52.2733H61.4995C62.0591 52.2733 62.5127 51.8197 62.5127 51.2601V40.7352C62.5127 40.1756 62.0591 39.722 61.4996 39.722Z" fill="#D0E8F9"/>
<path d="M39.4612 44.4126C39.4612 43.9967 39.8165 43.7453 40.4403 43.7453C41.1682 43.7453 41.3675 44.0747 41.636 44.0747C41.948 44.0747 42.0867 43.6761 42.0867 43.4768C42.0867 42.9049 40.9516 42.7836 40.4403 42.7836C39.4439 42.7836 38.3348 43.2255 38.3348 44.5165C38.3348 46.5701 41.1162 46.1716 41.1162 47.4714C41.1162 47.9912 40.6656 48.2252 40.1458 48.2252C39.2619 48.2252 39.0279 47.558 38.6727 47.558C38.4041 47.558 38.1788 47.9219 38.1788 48.1645C38.1788 48.6671 39.0453 49.239 40.1804 49.239C41.3761 49.239 42.2426 48.5977 42.2426 47.3587C42.2427 45.1144 39.4612 45.487 39.4612 44.4126Z" fill="#1AACFF"/>
<path d="M45.8814 43.157C45.8034 42.8969 45.4827 42.7756 45.1536 42.7756C44.8329 42.7756 44.5123 42.8969 44.4344 43.157L42.7621 48.6072C42.7534 48.6417 42.7448 48.6765 42.7448 48.6938C42.7448 48.9711 43.152 49.1617 43.4552 49.1617C43.6459 49.1617 43.7931 49.101 43.8365 48.9364L44.1658 47.784H46.15L46.4794 48.9364C46.5226 49.101 46.67 49.1617 46.8606 49.1617C47.1639 49.1617 47.5711 48.9624 47.5711 48.6938C47.5711 48.6677 47.5624 48.6418 47.5538 48.6072L45.8814 43.157ZM44.3997 46.9001L45.1536 44.24L45.9074 46.9001H44.3997Z" fill="#1AACFF"/>
<path d="M51.5828 48.1741H49.4686V43.1744C49.4686 42.9318 49.1827 42.8279 48.9054 42.8279C48.6195 42.8279 48.3422 42.9318 48.3422 43.1744V48.8066C48.3422 49.0406 48.5848 49.1619 48.8361 49.1619H51.5828C51.808 49.1619 51.9207 48.9105 51.9207 48.6679C51.9207 48.4167 51.808 48.1741 51.5828 48.1741Z" fill="#1AACFF"/>
<path d="M56.287 43.8153C56.5122 43.8153 56.6423 43.5813 56.6423 43.3127C56.6423 43.0788 56.5296 42.8275 56.287 42.8275H53.2023C52.951 42.8275 52.7084 42.9488 52.7084 43.1828V48.8062C52.7084 49.0402 52.951 49.1615 53.2023 49.1615H56.287C56.5296 49.1615 56.6423 48.9102 56.6423 48.6763C56.6423 48.4076 56.5122 48.1737 56.287 48.1737H53.8348V46.432H55.1518C55.3944 46.432 55.5071 46.1981 55.5071 45.9988C55.5071 45.7649 55.3771 45.5481 55.1518 45.5481H53.8348V43.8151H56.287V43.8153Z" fill="#1AACFF"/>
<path d="M61.3886 39.1241H49.8223V37.7403C49.8223 37.626 49.8135 37.5136 49.7967 37.404C49.6343 36.344 48.7162 35.5294 47.6113 35.5294C46.5065 35.5294 45.5884 36.344 45.4259 37.404C45.4091 37.5136 45.4004 37.626 45.4004 37.7403V39.1241H33.8342C33.0013 39.1241 32.314 39.7594 32.2314 40.5708C32.2259 40.6249 32.223 40.6798 32.223 40.7353V51.2601C32.223 52.1485 32.9458 52.8713 33.8342 52.8713H35.7849V57.2593H27.3775V35.9839L41.4435 26.6272L55.5094 35.9839V37.6519C55.5094 37.9822 55.777 38.2499 56.1073 38.2499C56.4376 38.2499 56.7053 37.9822 56.7053 37.6519V36.7796L58.5178 37.9853C59.2035 38.4414 60.0897 38.4414 60.7754 37.9852C61.3447 37.6065 61.6846 36.972 61.6846 36.2882C61.6845 35.6044 61.3447 34.97 60.7754 34.5914L42.0226 22.1167C41.6708 21.8826 41.2162 21.8826 40.8644 22.1167L30.4399 29.0513C30.1649 29.2341 30.0902 29.6053 30.2732 29.8804C30.4561 30.1552 30.8274 30.23 31.1023 30.047L41.4435 23.1678L60.113 35.5871C60.3518 35.7459 60.4887 36.0014 60.4887 36.2881C60.4887 36.5749 60.3518 36.8305 60.113 36.9894C59.8297 37.1778 59.4635 37.1778 59.1802 36.9894L56.4386 35.1656L42.0226 25.5759C41.6708 25.342 41.2162 25.3418 40.8644 25.5759L23.7067 36.9894C23.4234 37.1777 23.0573 37.1779 22.7739 36.9893C22.5351 36.8305 22.3982 36.575 22.3982 36.2882C22.3982 36.0014 22.5351 35.7459 22.7739 35.587L27.994 32.1146C28.2689 31.9317 28.3436 31.5605 28.1607 31.2855C27.9777 31.0106 27.6065 30.9359 27.3316 31.1189L22.1115 34.5912C21.5422 34.9699 21.2023 35.6043 21.2023 36.2882C21.2023 36.9722 21.5422 37.6065 22.1115 37.9851C22.4545 38.2133 22.8473 38.3273 23.2404 38.3273C23.6333 38.3272 24.0264 38.2132 24.3692 37.9851L26.1816 36.7795V57.2593H23.8898C22.8949 57.2593 22.0856 58.0687 22.0856 59.0636C22.0856 60.0585 22.8949 60.8678 23.8898 60.8678H45.9986H49.2244H58.9973C59.9921 60.8678 60.8015 60.0584 60.8015 59.0636C60.8015 58.0687 59.9921 57.2593 58.9973 57.2593H56.7055V54.312C56.7055 53.9817 56.4378 53.714 56.1075 53.714C55.7772 53.714 55.5095 53.9817 55.5095 54.312V57.2593H49.8224V52.8713H61.3888C62.2772 52.8713 63 52.1485 63 51.2601V40.7353C62.9999 39.8469 62.2771 39.1241 61.3886 39.1241ZM46.5965 37.7403C46.5965 37.1806 47.0518 36.7254 47.6114 36.7254C48.171 36.7254 48.6263 37.1806 48.6263 37.7403V39.1241H46.5965V37.7403V37.7403ZM45.4005 59.6718H23.8898C23.5544 59.6718 23.2815 59.399 23.2815 59.0636C23.2815 58.7281 23.5544 58.4553 23.8898 58.4553H26.7796H36.3829H45.4005V59.6718ZM45.4005 57.2593H36.9809V52.8713H45.4005V57.2593V57.2593ZM48.6263 57.8573V59.6718H46.5965V57.8573V52.8713H48.6263V57.8573ZM56.1074 58.4553H58.9972C59.3326 58.4553 59.6054 58.7281 59.6054 59.0636C59.6054 59.399 59.3326 59.6718 58.9972 59.6718H49.8223V58.4553H56.1074ZM61.8039 51.2601C61.8039 51.4891 61.6177 51.6753 61.3886 51.6753H49.2243H45.9985H36.3829H33.8342C33.6052 51.6753 33.419 51.4891 33.419 51.2601V40.7353C33.419 40.5064 33.6052 40.3201 33.8342 40.3201H45.9985H49.2243C49.2248 40.3201 49.2253 40.32 49.2258 40.32H61.3886C61.6176 40.32 61.8039 40.5063 61.8039 40.7353V51.2601Z" fill="#1AACFF"/>
<path d="M37.6764 33.0269C37.6764 35.1042 39.3663 36.7942 41.4436 36.7942C43.5207 36.7942 45.2108 35.1043 45.2108 33.0269C45.2108 30.9498 43.5208 29.2598 41.4436 29.2598C39.3663 29.2598 37.6764 30.9497 37.6764 33.0269ZM40.8456 35.5272C39.9066 35.3026 39.1665 34.5618 38.9427 33.6224H40.8456V35.5272ZM40.8456 32.4264H38.944C39.1691 31.4894 39.9083 30.7509 40.8456 30.5268V32.4264ZM42.0416 30.5268C42.9789 30.7509 43.7181 31.4895 43.9432 32.4264H42.0416V30.5268ZM42.0416 33.6224H43.9443C43.7207 34.5618 42.9806 35.3026 42.0416 35.5272V33.6224V33.6224Z" fill="#1AACFF"/>
</svg>
