<svg width="100" height="100" viewBox="0 0 100 100" fill="none" xmlns="http://www.w3.org/2000/svg">
<circle cx="50" cy="50" r="50" fill="#FA4B5F"/>
<path d="M78.9923 46.8233L73.9236 42.2048V26.8904C73.9236 25.916 73.1336 25.1259 72.1591 25.1259H59.9581C58.9837 25.1259 58.1936 25.9158 58.1936 26.8904V27.8717L52.0722 22.2939C50.8906 21.2171 49.1088 21.2172 47.9276 22.2938L21.0076 46.8234C20.0612 47.6859 19.7484 49.0148 20.2108 50.2088C20.6733 51.4028 21.7995 52.1743 23.08 52.1743H27.3795V76.751C27.3795 77.7254 28.1695 78.5154 29.144 78.5154H43.8994C44.8738 78.5154 45.6639 77.7255 45.6639 76.751V61.8288H54.3359V76.7511C54.3359 77.7255 55.1259 78.5156 56.1004 78.5156H70.8553C71.8297 78.5156 72.6197 77.7256 72.6196 76.7511V52.1744H76.9201C78.2005 52.1744 79.3267 51.4028 79.7893 50.2089C80.2516 49.0148 79.9389 47.6859 78.9923 46.8233ZM70.8553 48.6454C69.8808 48.6454 69.0908 49.4354 69.0908 50.4099V74.9866H57.865V60.0643C57.865 59.0899 57.0749 58.2998 56.1005 58.2998H43.8994C42.925 58.2998 42.1349 59.0897 42.1349 60.0643V74.9866H30.9084V50.4099C30.9084 49.4355 30.1184 48.6454 29.1439 48.6454H24.2474L50.0001 25.1798L58.7699 33.1709C59.2865 33.6415 60.0322 33.7628 60.6712 33.4808C61.3103 33.1983 61.7227 32.5653 61.7227 31.8666V28.6549H70.3948V42.9841C70.3948 43.4806 70.6039 43.9539 70.9709 44.2884L75.7525 48.6454H70.8553Z" fill="white"/>
</svg>
