<svg width="60" height="60" viewBox="0 0 60 60" fill="none" xmlns="http://www.w3.org/2000/svg">
<path d="M50.2556 18.756L29.2106 4.75659L8.16553 18.756V54.8396H50.2651V18.756H50.2556Z" fill="#F6F7F8"/>
<path d="M50.2552 18.756L29.2102 4.75659L24.8909 7.62978L44.9916 21.0009H45.0012V54.8396H50.2647V18.756H50.2552Z" fill="#E6E7EC"/>
<path d="M4.2294 24.3769L28.859 7.99307C29.0745 7.84963 29.355 7.84963 29.5706 7.99307L54.2002 24.3769C54.8938 24.8382 55.7965 24.8382 56.4901 24.3769C57.7198 23.5589 57.7198 21.7525 56.4901 20.9345L29.5706 3.0275C29.3551 2.88406 29.0746 2.88406 28.859 3.0275L1.93957 20.9345C0.709923 21.7525 0.709923 23.5589 1.93957 24.3769C2.63308 24.8382 3.53589 24.8382 4.2294 24.3769Z" fill="#E6E7EC"/>
<path d="M29.2144 22.5237C31.7269 22.5237 33.7637 20.4869 33.7637 17.9744C33.7637 15.4619 31.7269 13.425 29.2144 13.425C26.7018 13.425 24.665 15.4619 24.665 17.9744C24.665 20.4869 26.7018 22.5237 29.2144 22.5237Z" fill="#F6F7F8"/>
<path d="M36.4789 35.1633H21.95V57.0821H36.4789V35.1633Z" fill="#F6F7F8"/>
<path d="M36.4793 35.1633H29.2148V57.0821H36.4793V35.1633Z" fill="#F6F7F8"/>
<path d="M54.4131 53.6179H4.01696C3.06071 53.6179 2.2854 54.3931 2.2854 55.3495C2.2854 56.3057 3.06059 57.081 4.01696 57.081H54.413C55.3693 57.081 56.1446 56.3058 56.1446 55.3495C56.1446 54.3932 55.3694 53.6179 54.4131 53.6179Z" fill="#99A0B1"/>
<path d="M57.2924 23.348C57.3057 23.3101 57.3194 23.2721 57.3304 23.2335C57.3366 23.2119 57.3411 23.1899 57.3466 23.1682C57.3563 23.1294 57.3668 23.0908 57.3743 23.0515C57.3785 23.0298 57.3808 23.0077 57.3841 22.9858C57.3916 22.9353 57.3995 22.8848 57.4031 22.8337C57.4066 22.7832 57.4113 22.7329 57.4119 22.6823C57.4121 22.6611 57.4105 22.6399 57.4101 22.6187C57.4094 22.5764 57.4087 22.5339 57.4054 22.4916C57.4038 22.471 57.4006 22.4505 57.3983 22.4299C57.3937 22.387 57.3888 22.3443 57.3815 22.3018C57.3781 22.2821 57.3734 22.2626 57.3696 22.2431C57.3609 22.2 57.3516 22.1569 57.3403 22.1143C57.3352 22.0955 57.3293 22.0771 57.3236 22.0585C57.3109 22.0155 57.2972 21.9728 57.2814 21.9305C57.2749 21.9128 57.2675 21.8954 57.2605 21.8777C57.2434 21.8353 57.2252 21.7933 57.2052 21.7519C57.1971 21.7352 57.1885 21.7187 57.18 21.7021C57.1586 21.6608 57.1358 21.6201 57.1115 21.5801C57.1067 21.5722 57.1029 21.5637 57.0979 21.5559C57.0977 21.5564 57.0973 21.5567 57.0971 21.5571C56.9478 21.3188 56.7471 21.1047 56.4909 20.9343L53.8015 19.1452L53.5003 19.6078C52.9739 20.416 51.8893 20.6395 51.0862 20.1054L29.5712 5.79377C29.3557 5.65045 29.0751 5.65045 28.8595 5.79377L4.22994 22.1776C3.53631 22.6389 2.63362 22.6389 1.93999 22.1776C1.68417 22.0074 1.48237 21.794 1.33296 21.5561C0.763901 22.4627 0.966518 23.7314 1.94245 24.3787C2.64639 24.8456 3.5703 24.8158 4.27354 24.348L28.8595 7.99314C29.075 7.84982 29.3555 7.84982 29.5712 7.99314L54.2007 24.3769C54.8943 24.8383 55.797 24.8383 56.4907 24.3769C56.5439 24.3415 56.594 24.3036 56.6425 24.2646C56.6594 24.251 56.6758 24.237 56.6921 24.2231C56.7229 24.1966 56.7527 24.1694 56.7817 24.1415C56.7991 24.1248 56.817 24.1083 56.8338 24.0911C56.8686 24.0551 56.9019 24.0182 56.9336 23.9805L56.9354 23.9777C57.0398 23.8528 57.1266 23.718 57.1967 23.5764L57.2012 23.5696C57.2088 23.5542 57.2147 23.538 57.2218 23.5223C57.2387 23.4856 57.2554 23.449 57.27 23.4117C57.2782 23.3906 57.2849 23.3692 57.2924 23.348Z" fill="#E6E7EC"/>
<path d="M56.1333 55.1573C56.1319 55.1445 56.1293 55.1322 56.1276 55.1196C56.1207 55.0674 56.1119 55.016 56.1004 54.9655C56.0983 54.9564 56.0957 54.9478 56.0936 54.9389C56.0801 54.8835 56.0641 54.8294 56.0454 54.7763C56.0442 54.7729 56.043 54.7695 56.0417 54.7661C56.0208 54.7079 55.997 54.6513 55.9702 54.5961V54.596C55.6898 54.0176 55.0989 53.6179 54.413 53.6179H50.881V54.3907C50.881 55.0442 50.3512 55.574 49.6976 55.574H4.01695C3.33117 55.574 2.7402 55.1743 2.45977 54.596C2.3202 54.8839 2.25516 55.2146 2.29887 55.5652C2.40797 56.4403 3.18164 57.081 4.06347 57.081H54.4131C55.3695 57.081 56.1447 56.3057 56.1447 55.3495C56.1446 55.2843 56.1403 55.2205 56.1333 55.1573Z" fill="#99A0B1"/>
<path d="M40.3842 57.0809H35.7537V24.7401C35.7537 23.4614 36.7902 22.4248 38.0689 22.4248C39.3476 22.4248 40.3842 23.4614 40.3842 24.7401V57.0809Z" fill="#E6E7EC"/>
<path d="M38.0692 22.4248C37.647 22.4248 37.2524 22.5396 36.9116 22.7371C37.603 23.1375 38.0692 23.8837 38.0692 24.7401V57.081H40.3845V24.7401C40.3844 23.4613 39.3478 22.4248 38.0692 22.4248Z" fill="#E6E7EC"/>
<path d="M57.8463 45.6021H18.2923C17.489 45.6021 16.8379 44.9509 16.8379 44.1477V29.0396C16.8379 28.2363 17.4891 27.5852 18.2923 27.5852H57.8462C58.6495 27.5852 59.3006 28.2364 59.3006 29.0396V44.1477C59.3007 44.9509 58.6495 45.6021 57.8463 45.6021Z" fill="#F6F7F8"/>
<path d="M57.8463 27.5852H54.0373V41.935C54.0373 42.7383 53.3861 43.3895 52.5829 43.3895H16.8379V44.1478C16.8379 44.9512 17.4891 45.6024 18.2923 45.6024H57.8462C58.6495 45.6024 59.3006 44.9512 59.3006 44.1478V29.0396C59.3007 28.2363 58.6495 27.5852 57.8463 27.5852Z" fill="#E6E7EC"/>
<path d="M26.2107 34.3189C26.2107 33.7219 26.7207 33.3611 27.6162 33.3611C28.661 33.3611 28.9471 33.8339 29.3326 33.8339C29.7804 33.8339 29.9795 33.2617 29.9795 32.9756C29.9795 32.1546 28.3501 31.9805 27.6162 31.9805C26.1858 31.9805 24.5937 32.6149 24.5937 34.4681C24.5937 37.416 28.5864 36.844 28.5864 38.7097C28.5864 39.456 27.9395 39.7918 27.1934 39.7918C25.9246 39.7918 25.5887 38.8341 25.0789 38.8341C24.6932 38.8341 24.3699 39.3565 24.3699 39.7048C24.3699 40.4262 25.6137 41.2471 27.2431 41.2471C28.9595 41.2471 30.2033 40.3266 30.2033 38.548C30.2035 35.3264 26.2107 35.8613 26.2107 34.3189Z" fill="#99A0B1"/>
<path d="M35.4269 32.5159C35.315 32.1426 34.8547 31.9685 34.3822 31.9685C33.9219 31.9685 33.4617 32.1426 33.3497 32.5159L30.9492 40.3396C30.9367 40.3891 30.9243 40.4391 30.9243 40.4639C30.9243 40.862 31.5088 41.1356 31.9442 41.1356C32.2178 41.1356 32.4292 41.0484 32.4915 40.8122L32.9642 39.158H35.8126L36.2853 40.8122C36.3474 41.0484 36.5589 41.1356 36.8326 41.1356C37.2679 41.1356 37.8524 40.8494 37.8524 40.4639C37.8524 40.4265 37.84 40.3892 37.8276 40.3396L35.4269 32.5159ZM33.2999 37.8892L34.3822 34.0706L35.4643 37.8892H33.2999Z" fill="#99A0B1"/>
<path d="M43.6111 39.7176H40.5762V32.5407C40.5762 32.1924 40.1658 32.0432 39.7677 32.0432C39.3573 32.0432 38.9592 32.1924 38.9592 32.5407V40.6256C38.9592 40.9614 39.3075 41.1356 39.6682 41.1356H43.6111C43.9344 41.1356 44.0961 40.7747 44.0961 40.4265C44.0961 40.0659 43.9344 39.7176 43.6111 39.7176Z" fill="#99A0B1"/>
<path d="M50.3638 33.4612C50.6872 33.4612 50.8738 33.1253 50.8738 32.7397C50.8738 32.4039 50.7121 32.0432 50.3638 32.0432H45.9358C45.5751 32.0432 45.2268 32.2174 45.2268 32.5532V40.6256C45.2268 40.9614 45.5751 41.1356 45.9358 41.1356H50.3638C50.7121 41.1356 50.8738 40.7747 50.8738 40.439C50.8738 40.0533 50.6872 39.7176 50.3638 39.7176H46.8438V37.2174H48.7343C49.0826 37.2174 49.2443 36.8817 49.2443 36.5955C49.2443 36.2597 49.0577 35.9486 48.7343 35.9486H46.8438V33.4609H50.3638V33.4612Z" fill="#99A0B1"/>
<path d="M57.6868 26.7266H41.0835V24.7401C41.0835 24.5761 41.071 24.4148 41.0469 24.2575C40.8137 22.7358 39.4958 21.5665 37.9098 21.5665C36.3238 21.5665 35.0059 22.7358 34.7727 24.2575C34.7485 24.4148 34.736 24.5761 34.736 24.7401V26.7266H18.1329C16.9373 26.7266 15.9507 27.6385 15.8321 28.8034C15.8242 28.8811 15.8201 28.9598 15.8201 29.0395V44.1476C15.8201 45.423 16.8577 46.4605 18.1329 46.4605H20.9331V52.7594H8.8645V22.2189L29.0559 8.78747L49.2473 22.219V24.6133C49.2473 25.0875 49.6315 25.4717 50.1057 25.4717C50.5798 25.4717 50.9641 25.0875 50.9641 24.6133V23.3611L53.5658 25.0918C54.5501 25.7465 55.8223 25.7467 56.8065 25.0917C57.6238 24.5481 58.1118 23.6373 58.1118 22.6557C58.1116 21.6742 57.6238 20.7635 56.8065 20.22L29.8873 2.31277C29.3823 1.9768 28.7297 1.9768 28.2247 2.31277L13.2604 12.2672C12.8657 12.5297 12.7585 13.0626 13.0211 13.4574C13.2837 13.8519 13.8167 13.9593 14.2113 13.6966L29.0559 3.82167L55.8558 21.6493C56.1985 21.8773 56.395 22.2441 56.3951 22.6556C56.3951 23.0673 56.1984 23.4342 55.8557 23.6623C55.449 23.9327 54.9233 23.9327 54.5167 23.6623L50.5812 21.0443L29.8873 7.27846C29.3823 6.9426 28.7297 6.94236 28.2247 7.27846L3.59506 23.6623C3.18842 23.9326 2.66284 23.9328 2.25608 23.6621C1.91331 23.4342 1.71679 23.0674 1.71679 22.6557C1.71679 22.2441 1.91331 21.8773 2.25608 21.6492L9.74938 16.6646C10.1441 16.4021 10.2513 15.8692 9.98867 15.4744C9.72606 15.0798 9.19321 14.9726 8.79852 15.2352L1.30523 20.2198C0.487967 20.7634 0 21.6739 0 22.6557C0 23.6375 0.487967 24.5481 1.30523 25.0916C1.79753 25.4191 2.36144 25.5828 2.92569 25.5828C3.48971 25.5827 4.05397 25.419 4.54604 25.0916L7.14771 23.361V52.7594H3.85791C2.42976 52.7594 1.26796 53.9214 1.26796 55.3494C1.26796 56.7776 2.42976 57.9394 3.85791 57.9394H35.5947H40.2253H54.2541C55.6822 57.9394 56.844 56.7774 56.844 55.3494C56.844 53.9212 55.6821 52.7594 54.2541 52.7594H50.9643V48.5286C50.9643 48.0545 50.58 47.6702 50.1059 47.6702C49.6318 47.6702 49.2475 48.0545 49.2475 48.5286V52.7594H41.0838V46.4605H57.6871C58.9624 46.4605 60 45.423 60 44.1476V29.0395C59.9998 27.7642 58.9622 26.7266 57.6868 26.7266ZM36.453 24.7401C36.453 23.9368 37.1066 23.2833 37.9099 23.2833C38.7132 23.2833 39.3668 23.9368 39.3668 24.7401V26.7266H36.453V24.7401ZM34.7362 56.2226H3.85791C3.37651 56.2226 2.98475 55.8309 2.98475 55.3494C2.98475 54.8679 3.37639 54.4762 3.85791 54.4762H8.0061H21.7915H34.7362V56.2226ZM34.7362 52.7594H22.6499V46.4605H34.7362V52.7594ZM39.3668 53.6178V56.2226H36.453V53.6178V46.4605H39.3668V53.6178ZM50.1058 54.4762H54.254C54.7355 54.4762 55.1271 54.8679 55.1271 55.3494C55.1271 55.8309 54.7355 56.2226 54.254 56.2226H41.0835V54.4762H50.1058ZM58.283 44.1476C58.283 44.4763 58.0157 44.7437 57.6868 44.7437H40.2252H35.5946H21.7915H18.1329C17.8042 44.7437 17.5369 44.4764 17.5369 44.1476V29.0395C17.5369 28.7109 17.8042 28.4435 18.1329 28.4435H35.5946H40.2252C40.2259 28.4435 40.2267 28.4434 40.2274 28.4434H57.6868C58.0156 28.4434 58.283 28.7107 58.283 29.0395V44.1476Z" fill="#99A0B1"/>
<path d="M23.6484 17.9744C23.6484 20.9562 26.0743 23.3822 29.0562 23.3822C32.0379 23.3822 34.4639 20.9563 34.4639 17.9744C34.4639 14.9927 32.038 12.5667 29.0562 12.5667C26.0743 12.5667 23.6484 14.9925 23.6484 17.9744ZM28.1978 21.5635C26.8499 21.2411 25.7875 20.1776 25.4663 18.8291H28.1978V21.5635ZM28.1978 17.1124H25.468C25.7912 15.7673 26.8523 14.7072 28.1978 14.3854V17.1124ZM29.9146 14.3854C31.2601 14.7072 32.3213 15.7674 32.6443 17.1124H29.9146V14.3854ZM29.9146 18.8291H32.646C32.3249 20.1776 31.2625 21.241 29.9146 21.5635V18.8291Z" fill="#99A0B1"/>
</svg>
