<svg width="48" height="48" viewBox="0 0 48 48" fill="none" xmlns="http://www.w3.org/2000/svg">
<path d="M34.9968 22.0029C27.8249 22.0029 21.9937 27.8342 21.9937 35.0061C21.9937 42.1779 27.8343 47.9998 34.9968 47.9998C42.1593 47.9998 47.9999 42.1686 47.9999 34.9967C47.9999 27.8248 42.1686 22.0029 34.9968 22.0029ZM37.003 41.9998C37.003 43.1061 36.1124 43.9967 35.0061 43.9967C33.8999 43.9967 32.9999 43.1061 32.9999 41.9998V34.9967C32.9999 33.8904 33.8905 32.9998 34.9968 32.9998C36.103 32.9998 36.9936 33.8998 36.9936 34.9967V41.9998H37.003ZM34.9968 29.9998C33.8905 29.9998 32.9999 29.0998 32.9999 28.0029C32.9999 26.9061 33.8999 26.0061 34.9968 26.0061C36.0936 26.0061 36.9936 26.9061 36.9936 28.0029C36.9936 29.0998 36.103 29.9998 34.9968 29.9998Z" fill="#FF4D61"/>
<path d="M34.0031 11.9157V4.00322C34.0031 2.89697 33.1125 2.00635 32.0062 2.00635C30.9 2.00635 30 2.89697 30 4.00322V8.00635L22.3969 0.571973C21.6187 -0.187402 20.3813 -0.187402 19.6031 0.571973L0.890625 18.8626C0.328125 19.4157 0 20.2032 0 21.0001C0 22.6501 1.35 24.0001 3 24.0001H6V34.997C6 37.7532 8.24063 39.9939 10.9969 39.9939H15.9938C17.1 39.9939 17.9906 39.0938 17.9906 37.997C17.9906 36.9001 17.1 36.0001 15.9938 36.0001H10.9969C10.4438 36.0001 9.99375 35.5501 9.99375 34.997V22.0032C9.99375 20.897 9.10313 20.0063 7.99688 20.0063H5.44687L21 4.8001L34.1062 17.6157C34.8937 18.3938 36.1688 18.3751 36.9375 17.5876C37.7156 16.8001 37.6969 15.5345 36.9094 14.7563L34.0031 11.9157Z" fill="#5D6174"/>
</svg>
