<svg width="75" height="75" viewBox="0 0 75 75" fill="none" xmlns="http://www.w3.org/2000/svg">
<path d="M34.5703 51.5957C33.9638 51.5957 33.4717 52.0872 33.4717 52.6943V54.9156C33.4717 55.5227 33.9638 56.0143 34.5703 56.0143C35.1768 56.0143 35.6689 55.5227 35.6689 54.9156V52.6943C35.6689 52.0872 35.1768 51.5957 34.5703 51.5957Z" fill="#99A0B1"/>
<path d="M18.6173 35.2386H14.3418C13.3324 35.2386 12.5107 36.0598 12.5107 37.0697V48.0984C12.5107 49.1083 13.3324 49.9294 14.3418 49.9294H18.6173C19.6267 49.9294 20.4484 49.1083 20.4484 48.0984V37.0697C20.4484 36.0598 19.6267 35.2386 18.6173 35.2386ZM18.2511 47.7322H14.708V37.4359H18.2511V47.7322Z" fill="#99A0B1"/>
<path d="M60.6583 35.2386H56.3828C55.3734 35.2386 54.5518 36.0598 54.5518 37.0697V48.0984C54.5518 49.1083 55.3734 49.9294 56.3828 49.9294H60.6583C61.6677 49.9294 62.4894 49.1083 62.4894 48.0984V37.0697C62.4894 36.0598 61.6677 35.2386 60.6583 35.2386ZM60.2921 47.7322H56.749V37.4359H60.2921V47.7322Z" fill="#99A0B1"/>
<path d="M37.9792 26.3964H37.0214C34.6444 26.3964 32.7109 28.3304 32.7109 30.7074V34.8833C32.7109 35.7548 33.4199 36.4637 34.2914 36.4637H40.7092C41.5807 36.4637 42.2896 35.7548 42.2896 34.8833V30.7074C42.2896 28.3304 40.3562 26.3964 37.9792 26.3964ZM34.9076 34.2665V30.7074C34.9076 29.5418 35.8558 28.5936 37.0214 28.5936H37.9792C39.1442 28.5936 40.0924 29.5418 40.0924 30.7074V34.2665H34.9076Z" fill="#99A0B1"/>
<path d="M73.9014 62.5683H68.7372V30.1414H73.1689C73.7646 30.1414 74.2744 29.8611 74.5337 29.3913C74.7923 28.9215 74.7568 28.3401 74.4387 27.8366L65.4516 13.6185C65.0379 12.9633 64.1745 12.4878 63.3997 12.4878H40.2643L38.8132 10.7374C38.4813 10.3369 38.0024 10.1074 37.5 10.1074C36.997 10.1074 36.5187 10.3369 36.1868 10.7374L34.7357 12.4878H11.6003C10.825 12.4878 9.96208 12.9633 9.54781 13.6185L0.561333 27.8366C0.243187 28.3407 0.20771 28.9215 0.466347 29.3913C0.725555 29.8611 1.23539 30.1414 1.83105 30.1414H6.26278V53.5778C5.15785 54.6347 4.46777 56.1207 4.46777 57.7669C4.46777 58.0685 4.49238 58.3643 4.53701 58.6538H4.07066C3.06129 58.6538 2.23961 59.4755 2.23961 60.4849V62.5683H1.09863C0.492096 62.5683 0 63.0604 0 63.6669C0 64.274 0.492096 64.7655 1.09863 64.7655H73.9014C74.5079 64.7655 75 64.274 75 63.6669C75 63.0604 74.5079 62.5683 73.9014 62.5683ZM69.3918 23.9645H49.7789L48.3221 22.2067H68.2806L69.3918 23.9645ZM65.7806 18.2516L66.8919 20.0094H46.5002L45.0428 18.2516H65.7806ZM63.3883 14.6851C63.4483 14.6954 63.5599 14.7572 63.6005 14.8024L64.3919 16.0543H43.2209L42.0862 14.6851H63.3883ZM9.21936 18.2516H16.5527C17.1593 18.2516 17.6514 17.7595 17.6514 17.153C17.6514 16.5459 17.1593 16.0543 16.5527 16.0543H10.6075L11.3995 14.8018C11.4401 14.7572 11.5517 14.6954 11.6112 14.6851H32.9138L31.7785 16.0543H21.6797C21.0732 16.0543 20.5811 16.5459 20.5811 17.153C20.5811 17.7595 21.0732 18.2516 21.6797 18.2516H29.9572L28.4998 20.0094H8.10814L9.21936 18.2516ZM6.7194 22.2067H26.6779L25.2205 23.9645H5.60818L6.7194 22.2067ZM3.09277 27.9442L4.21944 26.1618H23.3992L21.9212 27.9442H3.09277ZM24.2832 51.9093C23.4512 51.4349 22.4951 51.1642 21.4874 51.1642C19.5082 51.1642 17.6731 52.2182 16.6489 53.8685C16.3742 53.8147 16.0933 53.7878 15.8077 53.7878C15.3975 53.7878 15.0003 53.8456 14.6233 53.952C13.5389 52.7212 11.9551 51.9676 10.2665 51.9676C9.63593 51.9676 9.02882 52.0706 8.46004 52.2577V30.1414H20.0993C19.7004 30.6232 19.6026 31.208 19.8366 31.7064C20.0712 32.2054 20.5851 32.5035 21.2111 32.5035H24.2832V51.9093ZM11.4607 58.6538H6.77776C6.70567 58.37 6.66504 58.073 6.66504 57.7669C6.66504 55.7808 8.28094 54.1649 10.2665 54.1649C11.1734 54.1649 12.0317 54.5156 12.6835 55.1044C11.9099 55.8947 11.4321 56.975 11.4321 58.1652C11.4321 58.3305 11.4424 58.4936 11.4607 58.6538ZM24.2832 62.5683H4.43687V60.8511H24.2832V62.5683ZM24.2838 58.6538H13.6866C13.6499 58.497 13.6293 58.3334 13.6293 58.1652C13.6293 56.963 14.6067 55.9851 15.8077 55.9851C16.1327 55.9851 16.4457 56.0555 16.7381 56.1934C17.0145 56.3244 17.3321 56.3335 17.6159 56.2208C17.8997 56.1075 18.1229 55.8809 18.2333 55.596C18.7489 54.2593 20.0575 53.3615 21.488 53.3615C22.617 53.3615 23.6412 53.9154 24.2838 54.7749V58.6538ZM22.8172 30.3062L37.5 12.5959L52.1828 30.3062H50.2453L38.3457 15.9536C38.1369 15.7024 37.8267 15.5565 37.5 15.5565C37.1727 15.5565 36.8626 15.7024 36.6543 15.9542L24.7547 30.3062H22.8172ZM42.152 62.5683H32.848V45.5172H42.152V62.5683ZM66.54 62.5683H50.7168V49.3017C50.7168 48.6952 50.2247 48.2031 49.6181 48.2031C49.0116 48.2031 48.5195 48.6952 48.5195 49.3017V62.5683H44.3493V45.1509C44.3493 44.1416 43.5282 43.3199 42.5182 43.3199H32.4818C31.4718 43.3199 30.6507 44.1416 30.6507 45.1509V62.5683H26.4805V31.6675L37.5 18.3764L48.5195 31.6675V44.1015C48.5195 44.7086 49.0116 45.2002 49.6181 45.2002C50.2247 45.2002 50.7168 44.7086 50.7168 44.1015V32.5035H53.7884C54.4144 32.5035 54.9282 32.2054 55.1628 31.7064C55.3974 31.208 55.299 30.6232 54.9007 30.1414H59.1797C59.7862 30.1414 60.2783 29.6499 60.2783 29.0428C60.2783 28.4363 59.7862 27.9442 59.1797 27.9442H53.0788L51.6008 26.1618H70.7806L71.9072 27.9442H64.4531C63.8466 27.9442 63.3545 28.4363 63.3545 29.0428C63.3545 29.6499 63.8466 30.1414 64.4531 30.1414H66.54V62.5683Z" fill="#99A0B1"/>
</svg>
