<svg width="25" height="25" viewBox="0 0 25 25" fill="none" xmlns="http://www.w3.org/2000/svg">
<path d="M21.9141 0H12.5C10.7956 0 9.41406 1.37901 9.41406 3.0859V17.207C9.41406 17.8061 10.1011 18.1564 10.5859 17.7929L13.5286 15.5859H21.9141C23.6185 15.5859 25 14.2069 25 12.5V3.0859C25 1.38149 23.6209 0 21.9141 0V0ZM17.2069 12.0556C16.8027 12.0556 16.4745 11.7275 16.4745 11.3232C16.4745 10.919 16.8027 10.5907 17.2069 10.5907C17.6113 10.5907 17.9393 10.919 17.9393 11.3232C17.9393 11.7275 17.6113 12.0556 17.2069 12.0556ZM17.9393 8.81653V8.96969C17.9393 9.37424 17.6115 9.70211 17.2069 9.70211C16.8026 9.70211 16.4745 9.37424 16.4745 8.96969V8.1852C16.4745 7.78065 16.8026 7.45277 17.2069 7.45277C17.8846 7.45277 18.4358 6.90155 18.4358 6.22387C18.4358 5.54638 17.8846 4.99516 17.2069 4.99516C16.5258 4.99516 15.9782 5.546 15.9782 6.22311C15.9782 6.62766 15.6501 6.9561 15.2458 6.9561C14.8412 6.9561 14.5134 6.62842 14.5134 6.22406V6.22311C14.5134 4.73347 15.7192 3.53031 17.2062 3.53031C18.6924 3.53031 19.9007 4.73862 19.9007 6.22406C19.9007 7.45544 19.07 8.49667 17.9393 8.81653Z" fill="#334164"/>
<path d="M8.11707 15.2294C8.11707 17.1415 6.56696 18.6916 4.65485 18.6916C2.74273 18.6916 1.19263 17.1415 1.19263 15.2294C1.19263 13.3171 2.74273 11.767 4.65485 11.767C6.56696 11.767 8.11707 13.3171 8.11707 15.2294Z" fill="#334164"/>
<path d="M4.65488 18.6916C2.08416 18.6916 0 20.7758 0 23.3465V24.2676C0 24.6721 0.327873 25 0.732422 25H8.57754C8.9819 25 9.30996 24.6721 9.30996 24.2676V23.3465C9.30996 20.7758 7.2258 18.6916 4.65488 18.6916Z" fill="#334164"/>
</svg>
