<svg width="250" height="250" viewBox="0 0 250 250" fill="none" xmlns="http://www.w3.org/2000/svg">
<path d="M246.338 63.75V208.086C246.338 229.214 229.214 246.338 208.086 246.338H41.9141C20.7861 246.338 3.66211 229.214 3.66211 208.086V63.75L125 48.1348L246.338 63.75Z" fill="#E9E9E9"/>
<path d="M246.338 41.9141V63.75H3.66211V41.9141C3.66211 20.7861 20.7861 3.66211 41.9141 3.66211H208.086C229.214 3.66211 246.338 20.7861 246.338 41.9141Z" fill="#1AACFF"/>
<path d="M21.0327 140.622C21.0327 112.204 26.3105 84.9282 36.0034 59.5879L3.66211 63.75V208.086C3.66211 229.214 20.7861 246.338 41.9141 246.338H47.147C30.4175 214.386 21.0327 178.52 21.0327 140.622Z" fill="#D3D3D3"/>
<path d="M66.7432 3.66211H41.9141C20.7861 3.66211 3.66211 20.7861 3.66211 41.9141V63.75H34.4595C42.2207 42.2168 53.1528 22.0298 66.7432 3.66211Z" fill="#00A3FF"/>
<path d="M41.9126 211.67C39.668 211.67 37.8418 209.844 37.8418 207.599V100.018C37.8418 97.7734 39.668 95.9473 41.9126 95.9473H208.087C210.332 95.9473 212.158 97.7734 212.158 100.018V207.599C212.158 209.844 210.332 211.67 208.087 211.67H41.9126Z" fill="#FC7080"/>
<path d="M48.3711 44.2354C54.1863 44.2354 58.9004 39.5212 58.9004 33.7061C58.9004 27.8909 54.1863 23.1768 48.3711 23.1768C42.5559 23.1768 37.8418 27.8909 37.8418 33.7061C37.8418 39.5212 42.5559 44.2354 48.3711 44.2354Z" fill="#FC7080"/>
<path d="M86.8154 44.2354C92.6306 44.2354 97.3447 39.5212 97.3447 33.7061C97.3447 27.8909 92.6306 23.1768 86.8154 23.1768C81.0003 23.1768 76.2861 27.8909 76.2861 33.7061C76.2861 39.5212 81.0003 44.2354 86.8154 44.2354Z" fill="#E9E9E9"/>
<path d="M125.261 44.2354C131.076 44.2354 135.79 39.5212 135.79 33.7061C135.79 27.8909 131.076 23.1768 125.261 23.1768C119.446 23.1768 114.731 27.8909 114.731 33.7061C114.731 39.5212 119.446 44.2354 125.261 44.2354Z" fill="white"/>
<path d="M215.82 207.599V100.018C215.82 95.7544 212.352 92.2852 208.087 92.2852H41.9126C37.6484 92.2852 34.1797 95.7539 34.1797 100.018V207.599C34.1797 211.863 37.6484 215.332 41.9126 215.332H208.087C212.352 215.332 215.82 211.863 215.82 207.599ZM41.5039 207.599V100.018C41.5039 99.7964 41.6909 99.6094 41.9126 99.6094H208.087C208.309 99.6094 208.496 99.7964 208.496 100.018V207.599C208.496 207.821 208.309 208.008 208.087 208.008H41.9126C41.6909 208.008 41.5039 207.821 41.5039 207.599Z" fill="#464B61"/>
<path d="M208.086 0H41.9141C18.8027 0 0 18.8027 0 41.9141V208.086C0 231.197 18.8027 250 41.9141 250H76.981C79.0034 250 80.6431 248.36 80.6431 246.338C80.6431 244.315 79.0034 242.676 76.981 242.676H41.9141C22.8413 242.676 7.32422 227.159 7.32422 208.086V67.4121H177.093C179.116 67.4121 180.755 65.7725 180.755 63.75C180.755 61.7275 179.116 60.0879 177.093 60.0879H7.32422V41.9141C7.32422 22.8413 22.8413 7.32422 41.9141 7.32422H208.086C227.159 7.32422 242.676 22.8413 242.676 41.9141V60.0879H191.742C189.719 60.0879 188.08 61.7275 188.08 63.75C188.08 65.7725 189.719 67.4121 191.742 67.4121H242.676V208.086C242.676 227.159 227.159 242.676 208.086 242.676H91.6294C89.6069 242.676 87.9673 244.315 87.9673 246.338C87.9673 248.36 89.6069 250 91.6294 250H208.086C231.197 250 250 231.197 250 208.086V41.9141C250 18.8027 231.197 0 208.086 0V0Z" fill="#464B61"/>
<path d="M34.1797 33.7061C34.1797 41.5312 40.5459 47.8975 48.3711 47.8975C56.1963 47.8975 62.5625 41.5312 62.5625 33.7061C62.5625 25.8809 56.1963 19.5146 48.3711 19.5146C40.5459 19.5146 34.1797 25.8809 34.1797 33.7061ZM55.2383 33.7061C55.2383 37.4927 52.1577 40.5732 48.3711 40.5732C44.5845 40.5732 41.5039 37.4927 41.5039 33.7061C41.5039 29.9194 44.5845 26.8389 48.3711 26.8389C52.1577 26.8389 55.2383 29.9194 55.2383 33.7061Z" fill="#464B61"/>
<path d="M72.624 33.7061C72.624 41.5312 78.9902 47.8975 86.8154 47.8975C94.6406 47.8975 101.007 41.5312 101.007 33.7061C101.007 25.8809 94.6406 19.5146 86.8154 19.5146C78.9902 19.5146 72.624 25.8809 72.624 33.7061ZM93.6826 33.7061C93.6826 37.4927 90.6021 40.5732 86.8154 40.5732C83.0288 40.5732 79.9482 37.4927 79.9482 33.7061C79.9482 29.9194 83.0288 26.8389 86.8154 26.8389C90.6021 26.8389 93.6826 29.9194 93.6826 33.7061Z" fill="#464B61"/>
<path d="M111.069 33.7061C111.069 41.5312 117.436 47.8975 125.261 47.8975C133.086 47.8975 139.452 41.5312 139.452 33.7061C139.452 25.8809 133.086 19.5146 125.261 19.5146C117.436 19.5146 111.069 25.8809 111.069 33.7061ZM132.128 33.7061C132.128 37.4927 129.047 40.5732 125.261 40.5732C121.474 40.5732 118.394 37.4927 118.394 33.7061C118.394 29.9194 121.474 26.8389 125.261 26.8389C129.047 26.8389 132.128 29.9194 132.128 33.7061Z" fill="#464B61"/>
<path d="M82.9818 132.187L86.2001 128.968L89.4183 132.187C90.8485 133.617 93.1674 133.617 94.597 132.187C96.0272 130.756 96.0272 128.438 94.597 127.008L91.3788 123.79L94.597 120.571C96.0272 119.141 96.0272 116.822 94.597 115.393C93.1669 113.963 90.848 113.963 89.4183 115.393L86.2001 118.611L82.9818 115.393C81.5516 113.963 79.2328 113.963 77.8031 115.393C76.3729 116.823 76.3729 119.142 77.8031 120.571L81.0214 123.79L77.8031 127.008C76.3729 128.438 76.3729 130.757 77.8031 132.187C79.2333 133.617 81.5516 133.617 82.9818 132.187Z" fill="#464B61"/>
<path d="M172.198 127.007L168.979 123.789L172.198 120.571C173.628 119.141 173.628 116.822 172.198 115.392C170.767 113.962 168.449 113.962 167.019 115.392L163.801 118.61L160.582 115.392C159.152 113.962 156.833 113.962 155.404 115.392C153.974 116.822 153.974 119.141 155.404 120.571L158.622 123.789L155.404 127.007C153.974 128.438 153.974 130.756 155.404 132.186C156.834 133.616 159.153 133.616 160.582 132.186L163.801 128.968L167.019 132.186C168.449 133.616 170.768 133.616 172.198 132.186C173.628 130.756 173.628 128.438 172.198 127.007Z" fill="#464B61"/>
<path d="M143.424 139.422C145.19 140.41 147.421 139.778 148.408 138.014C149.395 136.248 148.764 134.017 146.999 133.03C143.404 131.019 138.936 131.019 135.34 133.03C133.949 133.808 132.221 133.808 130.83 133.03C127.235 131.019 122.767 131.019 119.171 133.03C117.78 133.808 116.053 133.808 114.661 133.03C111.066 131.019 106.598 131.018 103.002 133.03C101.237 134.017 100.606 136.248 101.594 138.014C102.58 139.779 104.811 140.41 106.577 139.422C107.969 138.645 109.697 138.644 111.087 139.422C114.683 141.434 119.151 141.434 122.746 139.422C124.137 138.645 125.865 138.644 127.255 139.422C130.85 141.433 135.318 141.434 138.914 139.422C140.305 138.644 142.033 138.644 143.424 139.422Z" fill="#464B61"/>
<path d="M71.4585 164.267C73.481 164.267 75.1206 162.627 75.1206 160.605C75.1206 158.583 73.481 156.943 71.4585 156.943H60.2451C58.2227 156.943 56.583 158.583 56.583 160.605V187.218C56.583 189.24 58.2227 190.88 60.2451 190.88H71.4585C73.481 190.88 75.1206 189.24 75.1206 187.218C75.1206 185.195 73.481 183.556 71.4585 183.556H63.9072V177.574H70.6318C72.6543 177.574 74.2939 175.934 74.2939 173.912C74.2939 171.889 72.6543 170.25 70.6318 170.25H63.9072V164.268H71.4585V164.267Z" fill="#464B61"/>
<path d="M101.807 167.34C101.807 161.472 96.856 156.698 90.77 156.698C83.7886 156.698 83.5547 156.698 83.624 156.698C81.6016 156.698 79.9619 158.338 79.9619 160.36V187.218C79.9619 189.241 81.6016 190.88 83.624 190.88C85.6465 190.88 87.2861 189.241 87.2861 187.218V180.423L95.396 189.638C96.1196 190.46 97.1304 190.88 98.1465 190.88C101.257 190.88 102.99 187.181 100.894 184.799L94.3784 177.396C98.6973 175.95 101.807 171.99 101.807 167.34ZM90.77 170.658C89.9575 170.658 88.6206 170.664 87.3242 170.669C87.3081 167.353 87.3174 168.172 87.3062 164.022H90.77C92.7827 164.022 94.4829 165.542 94.4829 167.34C94.4829 169.139 92.7827 170.658 90.77 170.658Z" fill="#464B61"/>
<path d="M129.112 167.34C129.112 161.472 124.161 156.698 118.075 156.698C111.094 156.698 110.86 156.698 110.93 156.698C108.907 156.698 107.268 158.338 107.268 160.36V187.218C107.268 189.241 108.907 190.88 110.93 190.88C112.952 190.88 114.592 189.241 114.592 187.218V180.423L122.702 189.638C124.04 191.158 126.354 191.302 127.87 189.967C129.388 188.631 129.536 186.317 128.2 184.799L121.684 177.396C126.002 175.95 129.112 171.99 129.112 167.34ZM118.075 170.658C117.263 170.658 115.926 170.664 114.629 170.669C114.613 167.353 114.623 168.172 114.611 164.022H118.075C120.088 164.022 121.788 165.542 121.788 167.34C121.788 169.139 120.088 170.658 118.075 170.658Z" fill="#464B61"/>
<path d="M193.417 167.34C193.417 161.472 188.466 156.698 182.38 156.698C175.399 156.698 175.165 156.698 175.234 156.698C173.212 156.698 171.572 158.338 171.572 160.36V187.218C171.572 189.241 173.212 190.88 175.234 190.88C177.257 190.88 178.896 189.241 178.896 187.218V180.423L187.006 189.638C188.344 191.158 190.659 191.302 192.175 189.967C193.693 188.631 193.841 186.317 192.504 184.799L185.989 177.396C190.307 175.95 193.417 171.99 193.417 167.34ZM182.38 170.658C181.567 170.658 180.231 170.664 178.935 170.669C178.918 167.354 178.928 168.171 178.916 164.022H182.38C184.393 164.022 186.093 165.542 186.093 167.34C186.093 169.139 184.393 170.658 182.38 170.658Z" fill="#464B61"/>
<path d="M150.315 156.698C140.891 156.698 133.224 164.365 133.224 173.789C133.224 183.212 140.891 190.879 150.315 190.879C159.739 190.879 167.406 183.212 167.406 173.789C167.406 164.365 159.739 156.698 150.315 156.698ZM150.315 183.556C144.929 183.556 140.548 179.174 140.548 173.789C140.548 168.404 144.929 164.022 150.315 164.022C155.7 164.022 160.082 168.404 160.082 173.789C160.082 179.174 155.701 183.556 150.315 183.556Z" fill="#464B61"/>
</svg>
