<svg width="239" height="293" viewBox="0 0 239 293" fill="none" xmlns="http://www.w3.org/2000/svg">
<path d="M228.406 34.7344V141.641H14.5938V34.7344C14.6014 32.1592 15.6278 29.6916 17.4488 27.8707C19.2698 26.0497 21.7373 25.0233 24.3125 25.0156H218.688C221.263 25.0233 223.73 26.0497 225.551 27.8707C227.372 29.6916 228.399 32.1592 228.406 34.7344Z" fill="#5AAAE7"/>
<path d="M233.266 267.984V282.562C233.266 283.851 232.754 285.087 231.842 285.999C230.931 286.91 229.695 287.422 228.406 287.422H14.5938C13.305 287.422 12.069 286.91 11.1577 285.999C10.2463 285.087 9.73438 283.851 9.73438 282.562V267.984H233.266Z" fill="#ACABB1"/>
<path d="M233.266 267.984H9.73438L38.8906 238.828H204.109L233.266 267.984Z" fill="#C6C5CA"/>
<path d="M228.406 141.641V161.078C228.399 163.653 227.372 166.121 225.551 167.942C223.73 169.763 221.263 170.789 218.688 170.797H24.3125C21.7373 170.789 19.2698 169.763 17.4488 167.942C15.6278 166.121 14.6014 163.653 14.5938 161.078V141.641H228.406Z" fill="#C6C5CA"/>
<path d="M170.094 199.953V219.391H72.9062V199.953H97.2031H145.797H170.094Z" fill="#ACABB1"/>
<path d="M97.2031 170.797H145.797V199.953H97.2031V170.797Z" fill="#C6C5CA"/>
<path d="M97.2031 170.797H145.797V180.516H97.2031V170.797Z" fill="#ACABB1"/>
<path d="M194.391 59.0312V131.922H68.0469V59.0312L87.4844 45.5708V29.875H110.178L117.175 25.0156H145.262L152.26 29.875H174.953V45.5708L194.391 59.0312Z" fill="#3D9AE2"/>
<path d="M184.672 52.3125L165.234 64.2666L121.5 91.1875L58.3281 52.3125L121.5 8.57812L165.234 38.852L174.953 45.6066L184.672 52.3125Z" fill="#EE8700"/>
<path d="M77.7656 20.1562H165.234V122.203H77.7656V20.1562Z" fill="#E6E7E8"/>
<path d="M184.672 49.3125V122.203L165.234 102.766L139.528 77.0595L165.234 61.2666L184.672 49.3125Z" fill="#FF9811"/>
<path d="M184.672 122.203H58.3281L77.7656 102.766L103.472 77.0596L121.5 88.1875L139.528 77.0596L165.234 102.766L184.672 122.203Z" fill="#FFA733"/>
<path d="M77.7656 61.2666L58.3281 49.3125V122.203L77.7656 102.766L103.472 77.0595L77.7656 61.2666Z" fill="#FF9811"/>
<path d="M174.953 45.6066V58.2895L165.234 64.2666V38.8521L174.953 45.6066Z" fill="#D97B00"/>
<path d="M236.701 264.549L207.545 235.393C206.634 234.481 205.398 233.969 204.109 233.969H58.3281V224.25C58.3281 220.384 56.7922 216.676 54.0583 213.942C51.3244 211.208 47.6164 209.672 43.75 209.672H14.5938C13.305 209.672 12.069 209.16 11.1577 208.249C10.2463 207.337 9.73438 206.101 9.73438 204.812C9.73438 203.524 10.2463 202.288 11.1577 201.376C12.069 200.465 13.305 199.953 14.5938 199.953H43.75C47.6164 199.953 51.3244 198.417 54.0583 195.683C56.7922 192.949 58.3281 189.241 58.3281 185.375V175.656H92.3438V195.094H72.9062C71.6175 195.094 70.3815 195.606 69.4701 196.517C68.5588 197.428 68.0469 198.664 68.0469 199.953V219.391C68.0469 220.679 68.5588 221.915 69.4701 222.827C70.3815 223.738 71.6175 224.25 72.9062 224.25H170.094C171.383 224.25 172.619 223.738 173.53 222.827C174.441 221.915 174.953 220.679 174.953 219.391V199.953C174.953 198.664 174.441 197.428 173.53 196.517C172.619 195.606 171.383 195.094 170.094 195.094H150.656V175.656H218.688C222.554 175.656 226.262 174.12 228.996 171.386C231.73 168.652 233.266 164.944 233.266 161.078V34.7344C233.266 30.868 231.73 27.16 228.996 24.4261C226.262 21.6922 222.554 20.1562 218.688 20.1562H179.812V29.875H218.688C219.976 29.875 221.212 30.387 222.124 31.2983C223.035 32.2096 223.547 33.4456 223.547 34.7344V136.781H19.4531V34.7344C19.4531 33.4456 19.9651 32.2096 20.8764 31.2983C21.7877 30.387 23.0237 29.875 24.3125 29.875H63.1875V20.1562H24.3125C20.4461 20.1562 16.7381 21.6922 14.0042 24.4261C11.2703 27.16 9.73438 30.868 9.73438 34.7344V161.078C9.73438 164.944 11.2703 168.652 14.0042 171.386C16.7381 174.12 20.4461 175.656 24.3125 175.656H48.6094V185.375C48.6094 186.664 48.0974 187.9 47.1861 188.811C46.2748 189.722 45.0388 190.234 43.75 190.234H14.5938C10.7274 190.234 7.01939 191.77 4.28546 194.504C1.55153 197.238 0.015625 200.946 0.015625 204.812C0.015625 208.679 1.55153 212.387 4.28546 215.121C7.01939 217.855 10.7274 219.391 14.5938 219.391H43.75C45.0388 219.391 46.2748 219.903 47.1861 220.814C48.0974 221.725 48.6094 222.961 48.6094 224.25V233.969H38.8906C37.6019 233.969 36.3661 234.481 35.455 235.393L6.2988 264.549C5.38743 265.46 4.87528 266.696 4.875 267.984V282.562C4.875 285.14 5.89894 287.612 7.72156 289.435C9.54418 291.257 12.0162 292.281 14.5938 292.281H228.406C230.984 292.281 233.456 291.257 235.278 289.435C237.101 287.612 238.125 285.14 238.125 282.562V267.984C238.125 266.696 237.613 265.46 236.701 264.549ZM165.234 214.531H77.7656V204.812H165.234V214.531ZM140.938 195.094H102.062V175.656H140.938V195.094ZM19.4531 161.078V146.5H223.547V161.078C223.547 162.367 223.035 163.603 222.124 164.514C221.212 165.426 219.976 165.938 218.688 165.938H24.3125C23.0237 165.938 21.7877 165.426 20.8764 164.514C19.9651 163.603 19.4531 162.367 19.4531 161.078ZM40.9024 243.688H202.098L221.535 263.125H21.4649L40.9024 243.688ZM14.5938 282.562V272.844H228.406V282.562H14.5938Z" fill="#464B61"/>
<path d="M43.75 248.547H53.4688V258.266H43.75V248.547Z" fill="#464B61"/>
<path d="M63.1875 248.547H72.9062V258.266H63.1875V248.547Z" fill="#464B61"/>
<path d="M170.094 248.547H179.812V258.266H170.094V248.547Z" fill="#464B61"/>
<path d="M82.625 248.547H160.375V258.266H82.625V248.547Z" fill="#464B61"/>
<path d="M189.531 248.547H199.25V258.266H189.531V248.547Z" fill="#464B61"/>
<path d="M194.391 151.359H204.109V161.078H194.391V151.359Z" fill="#464B61"/>
<path d="M55.5631 45.3182C54.9172 45.7651 54.3892 46.362 54.0245 47.0577C53.6597 47.7533 53.469 48.5271 53.4688 49.3126V122.203C53.4688 123.492 53.9807 124.728 54.892 125.639C55.8033 126.551 57.0393 127.063 58.3281 127.063H184.672C185.961 127.063 187.197 126.551 188.108 125.639C189.019 124.728 189.531 123.492 189.531 122.203V49.3126C189.531 48.5271 189.34 47.7533 188.976 47.0577C188.611 46.362 188.083 45.7651 187.437 45.3182L170.094 33.3058V20.1563C170.094 18.8675 169.582 17.6315 168.67 16.7202C167.759 15.8089 166.523 15.2969 165.234 15.2969H144.057L124.265 1.58379C123.453 1.02162 122.488 0.720459 121.5 0.720459C120.512 0.720459 119.547 1.02162 118.735 1.58379L98.9428 15.2969H77.7656C76.4768 15.2969 75.2408 15.8089 74.3295 16.7202C73.4182 17.6315 72.9062 18.8675 72.9062 20.1563V33.3058L55.5631 45.3182ZM179.812 58.006V110.487L147.332 77.9829L179.812 58.006ZM138.829 83.231L172.941 117.344H70.0587L104.171 83.231L118.954 92.3277C119.719 92.7989 120.601 93.0483 121.5 93.0483C122.399 93.0483 123.281 92.7989 124.046 92.3277L138.829 83.231ZM63.1875 110.473V57.9914L95.6676 77.9829L63.1875 110.473ZM67.2111 49.0745L72.9062 45.1286V52.5781L67.2111 49.0745ZM175.789 49.0745L170.094 52.5781V45.1286L175.789 49.0745ZM121.5 11.4921L126.996 15.2969H116.004L121.5 11.4921ZM160.375 25.0157V58.5454L121.5 82.4681L82.625 58.5454V25.0157H160.375Z" fill="#464B61"/>
<path d="M102.062 37.7344H140.938V47.4531H102.062V37.7344Z" fill="#464B61"/>
<path d="M102.062 57.1719H140.938V66.8906H102.062V57.1719Z" fill="#464B61"/>
</svg>
