<svg width="20" height="20" viewBox="0 0 20 20" fill="none" xmlns="http://www.w3.org/2000/svg">
<path d="M0.689992 11.1133C0.472492 11.3667 0.366659 11.6892 0.392492 12.0225C0.418326 12.3558 0.571659 12.6592 0.825826 12.8758L6.99499 18.1642C7.22416 18.36 7.50833 18.465 7.80666 18.465C7.84333 18.465 7.88083 18.4633 7.91833 18.46C8.25583 18.43 8.55999 18.2692 8.77499 18.0083L19.3267 5.16583C19.5383 4.9075 19.6375 4.5825 19.605 4.25C19.5717 3.9175 19.4125 3.6175 19.1542 3.405L17.2225 1.81833C16.69 1.38167 15.9017 1.45833 15.4633 1.99083L7.34249 11.875L4.07916 9.07916C3.55583 8.63249 2.76583 8.69166 2.31666 9.21499L0.689992 11.1133Z" fill="white"/>
</svg>
