<svg width="47" height="61" viewBox="0 0 47 61" fill="none" xmlns="http://www.w3.org/2000/svg">
<path d="M37.7839 41.5578C37.7348 41.5523 30.6275 41.7697 29.5708 33.8749C30.745 33.0257 31.8272 31.9232 32.7805 30.5854C34.6352 27.983 35.8303 24.7182 36.256 21.1868C36.4022 21.0497 36.5233 20.8791 36.6048 20.678C37.375 18.7761 37.7656 16.7453 37.7656 14.6418C37.7656 6.56836 31.8903 0 24.6682 0C22.7794 0 20.9469 0.450999 19.2161 1.34162C18.5559 1.39387 17.9089 1.51425 17.2885 1.7C14.3223 2.58837 11.9086 4.86799 10.4918 8.11924C9.1163 11.276 8.84521 14.9921 9.72866 18.5832C9.91533 19.3418 10.1527 20.0873 10.4341 20.7996C10.5103 20.9922 10.6239 21.1566 10.7603 21.2918C11.4498 26.8037 13.98 31.3706 17.4298 33.8639C16.3698 41.772 9.26511 41.5525 9.21615 41.558C4.10527 41.7378 0 46.1007 0 51.4414V62.559C0 63.3549 0.622369 64 1.39017 64H13.5977H33.4019H45.6097C46.3774 64 47 63.3549 47 62.559V51.4414C46.9999 46.1004 42.895 41.7374 37.7839 41.5578ZM18.0604 4.46887C18.5677 4.31687 19.1035 4.22674 19.6529 4.20112C19.8568 4.19162 20.0562 4.13574 20.2369 4.03724C21.6444 3.27074 23.1353 2.88212 24.6683 2.88212C30.357 2.88212 34.9853 8.15749 34.9853 14.6418C34.9853 14.8365 34.98 15.0301 34.9718 15.223C33.8684 14.0615 32.3353 13.3396 30.6423 13.3396H21.1674C20.6037 13.3396 20.0686 13.1561 19.6199 12.8089C19.2368 12.5125 18.9406 12.1141 18.7637 11.6569C18.4897 10.9496 17.8141 10.5072 17.0788 10.5551C16.3408 10.6039 15.7197 11.1351 15.5333 11.8775C14.9842 14.0645 13.8894 16.079 12.3873 17.7126C10.9897 11.7502 13.5121 5.83099 18.0604 4.46887ZM16.8509 29.3924C15.0419 27.1017 13.8572 24.0083 13.4817 20.6217C15.2359 19.0011 16.6227 16.9843 17.5256 14.7473C17.6626 14.8783 17.8064 15.0022 17.9567 15.1186C18.8896 15.8402 19.9997 16.2218 21.1675 16.2218H30.6425C31.9831 16.2218 33.1386 17.0553 33.6542 18.2482C33.6541 18.2585 33.6527 18.2682 33.6527 18.2785C33.6527 26.4132 29.0991 33.0313 23.5021 33.0313C21.0661 33.0314 18.7039 31.7391 16.8509 29.3924ZM20.0452 35.2791C21.1473 35.6924 22.3065 35.9136 23.5021 35.9136C24.6881 35.9136 25.8468 35.6996 26.9561 35.2867C27.4651 38.0356 28.9396 40.4314 30.9992 42.0808L23.6992 52.8568C23.6516 52.9272 23.5854 52.9628 23.5024 52.9628C23.4196 52.9628 23.3534 52.927 23.3058 52.8569L16.0041 42.0784C18.0638 40.4272 19.5378 38.0296 20.0452 35.2791ZM44.2194 61.1178H33.4019H13.5977H2.78034V51.4412C2.78034 47.5759 5.81404 44.4313 9.54295 44.4313C9.5936 44.4313 11.8307 44.3749 13.5983 43.5423L21.0302 54.513C21.595 55.347 22.5192 55.8449 23.5023 55.8449C23.5023 55.8449 23.5023 55.8449 23.5024 55.8449C24.4853 55.8449 25.4097 55.347 25.9745 54.513L33.4051 43.544C35.421 44.4314 37.4063 44.4314 37.4569 44.4314C41.1858 44.4314 44.2194 47.576 44.2194 51.4413V61.1178Z" fill="#D1D2D7"/>
</svg>
