<svg width="250" height="250" viewBox="0 0 250 250" fill="none" xmlns="http://www.w3.org/2000/svg">
<g clip-path="url(#clip0)">
<path d="M227.337 3.69531H22.5928C12.1367 3.69531 3.66016 12.1719 3.66016 22.6279V80.9824C3.66016 91.4385 12.1362 99.9146 22.5923 99.9146H37.0981L55.1597 124.023L73.2212 99.9146H227.337C237.793 99.9146 246.27 91.438 246.27 80.9819V22.6279C246.27 12.1719 237.793 3.69531 227.337 3.69531Z" fill="white"/>
<path d="M227.336 3.69531H207.566C218.022 3.69531 226.499 12.1714 226.499 22.6279V80.9824C226.499 91.4385 218.023 99.915 207.566 99.915H227.336C237.792 99.915 246.269 91.439 246.269 80.9824V22.6279C246.269 12.1719 237.792 3.69531 227.336 3.69531Z" fill="#FAFAFA"/>
<path d="M56.1225 28.3491L62.9306 42.144C63.1249 42.5376 63.5004 42.8105 63.935 42.8735L79.1586 45.0854C80.2529 45.2446 80.6894 46.5889 79.8979 47.3608L68.8818 58.0986C68.5673 58.4053 68.4238 58.8467 68.498 59.2793L71.0986 74.4414C71.2856 75.5312 70.1415 76.3618 69.163 75.8477L55.5463 68.689C55.1577 68.4849 54.6933 68.4849 54.3051 68.689L40.6884 75.8477C39.7099 76.3623 38.5663 75.5312 38.7529 74.4414L41.3535 59.2793C41.4277 58.8467 41.2841 58.4053 40.9697 58.0986L29.955 47.3613C29.1635 46.5898 29.6 45.2451 30.6943 45.0859L45.9179 42.874C46.3525 42.811 46.728 42.5381 46.9223 42.1445L53.7304 28.3496C54.2197 27.3579 55.6332 27.3579 56.1225 28.3491Z" fill="#FF4D61"/>
<path d="M126.163 28.3491L132.971 42.144C133.165 42.5376 133.541 42.8105 133.976 42.8735L149.199 45.0854C150.293 45.2446 150.73 46.5889 149.938 47.3608L138.922 58.0986C138.608 58.4053 138.464 58.8467 138.539 59.2793L141.139 74.4414C141.326 75.5312 140.182 76.3618 139.204 75.8477L125.587 68.689C125.198 68.4849 124.734 68.4849 124.346 68.689L110.729 75.8477C109.75 76.3623 108.607 75.5312 108.793 74.4414L111.394 59.2793C111.468 58.8467 111.325 58.4053 111.01 58.0986L99.9941 47.3608C99.2026 46.5894 99.6391 45.2446 100.733 45.0854L115.957 42.8735C116.392 42.8105 116.767 42.5376 116.961 42.144L123.769 28.3491C124.26 27.3579 125.674 27.3579 126.163 28.3491Z" fill="#FF4D61"/>
<path d="M196.202 28.3491L203.01 42.144C203.205 42.5376 203.58 42.8105 204.015 42.8735L219.238 45.0854C220.332 45.2446 220.769 46.5889 219.977 47.3608L208.961 58.0986C208.647 58.4053 208.503 58.8467 208.578 59.2793L211.178 74.4414C211.365 75.5312 210.221 76.3618 209.243 75.8477L195.626 68.689C195.237 68.4849 194.773 68.4849 194.385 68.689L180.768 75.8477C179.789 76.3623 178.646 75.5312 178.832 74.4414L181.433 59.2793C181.507 58.8467 181.364 58.4053 181.049 58.0986L170.033 47.3608C169.242 46.5894 169.678 45.2446 170.772 45.0854L185.996 42.8735C186.431 42.8105 186.806 42.5376 187 42.144L193.809 28.3491C194.299 27.3579 195.713 27.3579 196.202 28.3491Z" fill="#FF4D61"/>
<path d="M54.9155 246.305C83.2231 246.305 106.171 223.357 106.171 195.049C106.171 166.742 83.2231 143.794 54.9155 143.794C26.608 143.794 3.66016 166.742 3.66016 195.049C3.66016 223.357 26.608 246.305 54.9155 246.305Z" fill="#DEECFA"/>
<path d="M54.8701 202.372C65.1149 202.372 73.4199 194.067 73.4199 183.822C73.4199 173.577 65.1149 165.272 54.8701 165.272C44.6253 165.272 36.3203 173.577 36.3203 183.822C36.3203 194.067 44.6253 202.372 54.8701 202.372Z" fill="white"/>
<path d="M54.8682 202.371C37.5869 202.371 23.3452 215.386 21.4102 232.148V233.835C30.395 241.604 42.1074 246.304 54.9175 246.304C67.7222 246.304 79.4297 241.608 88.4131 233.846L88.4253 233.125C86.9409 215.894 72.4839 202.371 54.8682 202.371Z" fill="white"/>
<path d="M237.242 166.98H136.683C125.024 166.98 125.01 148.919 136.683 148.919H237.242C248.901 148.919 248.915 166.98 237.242 166.98Z" fill="#DADADA"/>
<path d="M237.484 204.08H136.926C125.266 204.08 125.252 186.019 136.926 186.019H237.484C249.143 186.019 249.158 204.08 237.484 204.08Z" fill="#DADADA"/>
<path d="M237.73 241.179H137.172C125.513 241.179 125.498 223.118 137.172 223.118H237.73C249.389 223.118 249.404 241.179 237.73 241.179Z" fill="#DADADA"/>
<path d="M30.1672 41.4634C28.2717 41.7388 26.7268 43.0415 26.135 44.8623C25.5432 46.6836 26.0271 48.6455 27.3986 49.9829L37.5393 59.8667L35.1452 73.8228C34.821 75.7104 35.5822 77.582 37.1315 78.708C38.6804 79.8335 40.6965 79.9795 42.3923 79.0889L54.926 72.4995L67.4602 79.0889C69.2502 79.9717 71.0036 79.8447 72.7204 78.708C74.2697 77.582 75.031 75.7104 74.7068 73.8232L72.3132 59.8667L82.4529 49.9834C83.8244 48.6465 84.3093 46.6851 83.7175 44.8633C83.1252 43.0415 81.5803 41.7383 79.6848 41.4634L65.6721 39.4272L59.4055 26.729C58.5578 25.0117 56.8415 23.9448 54.9265 23.9448C53.0114 23.9448 51.2946 25.0117 50.4475 26.729L44.1799 39.4268L30.1672 41.4634ZM50.2043 43.7646L54.9255 34.1982L59.6477 43.7666C60.3757 45.2397 61.7815 46.2603 63.4079 46.4971L73.9651 48.0312L66.3254 55.478C65.1477 56.626 64.611 58.2793 64.8894 59.8989L66.6921 70.4136L57.2502 65.4492C56.5222 65.0664 55.7243 64.8755 54.926 64.8755C54.1276 64.8755 53.3288 65.0664 52.6018 65.4492L43.1594 70.4136L44.9631 59.8965C45.24 58.2769 44.7028 56.625 43.5261 55.478L35.8859 48.0312L46.4431 46.4971C48.07 46.2607 49.4753 45.2402 50.2043 43.7646Z" fill="black"/>
<path d="M153.756 44.8633C153.164 43.0415 151.619 41.7383 149.723 41.4634L135.71 39.4272L129.444 26.729C128.596 25.0117 126.88 23.9448 124.965 23.9448C123.049 23.9448 121.333 25.0117 120.486 26.729L114.219 39.4272L100.207 41.4634C98.3106 41.7388 96.7656 43.0415 96.1739 44.8633C95.5821 46.6846 96.0669 48.6465 97.438 49.9829L107.578 59.8667L105.185 73.8232C104.86 75.7109 105.622 77.5825 107.171 78.7085C108.72 79.834 110.736 79.98 112.432 79.0894L124.965 72.5L137.5 79.0894C139.29 79.9722 141.043 79.8452 142.76 78.7085C144.309 77.5825 145.07 75.7109 144.746 73.8237L142.353 59.8672L152.492 49.9839C153.863 48.6465 154.348 46.6846 153.756 44.8633ZM136.364 55.478C135.187 56.626 134.65 58.2793 134.928 59.8989L136.731 70.4136L127.289 65.4492C126.561 65.0664 125.763 64.8755 124.964 64.8755C124.166 64.8755 123.368 65.0664 122.64 65.4492L113.198 70.4136L115.001 59.9004C115.279 58.2798 114.743 56.6265 113.564 55.478L105.925 48.0312L116.482 46.4971C118.108 46.2607 119.514 45.2402 120.243 43.7646L124.964 34.1982L129.687 43.7666C130.415 45.2402 131.82 46.2607 133.447 46.4971L144.004 48.0312L136.364 55.478Z" fill="black"/>
<path d="M223.794 44.8623C223.202 43.041 221.657 41.7383 219.762 41.4634L205.75 39.4272L199.483 26.729C198.635 25.0117 196.919 23.9448 195.004 23.9448C193.088 23.9448 191.372 25.0117 190.525 26.729L184.258 39.4272L170.246 41.4634C168.35 41.7388 166.805 43.0415 166.213 44.8633C165.621 46.6846 166.106 48.6465 167.477 49.9829L177.617 59.8667L175.224 73.8232C174.899 75.7109 175.661 77.5825 177.21 78.7085C178.759 79.834 180.774 79.98 182.471 79.0894L195.004 72.5L207.539 79.0894C209.329 79.9722 211.082 79.8452 212.799 78.7085C214.348 77.5825 215.109 75.7109 214.785 73.8232L212.391 59.8672L222.532 49.9829C223.902 48.6455 224.386 46.6836 223.794 44.8623ZM206.403 55.478C205.227 56.625 204.689 58.2764 204.967 59.8989L206.77 70.4136L197.328 65.4492C195.872 64.6836 194.135 64.6841 192.679 65.4492L183.236 70.4136L185.039 59.9004C185.317 58.2798 184.781 56.6265 183.603 55.478L175.963 48.0312L186.521 46.4971C188.147 46.2607 189.553 45.2397 190.282 43.7646L195.003 34.1982L199.725 43.7666C200.454 45.2402 201.859 46.2607 203.485 46.4971L214.042 48.0312L206.403 55.478Z" fill="black"/>
<path d="M22.5933 103.576H35.2671L52.2305 126.219C53.6567 128.123 56.6577 128.131 58.0903 126.219L75.0537 103.576H227.337C239.795 103.576 249.931 93.4404 249.931 80.9824V22.6279C249.931 10.1699 239.795 0.034668 227.337 0.034668H63.459C58.7363 0.034668 58.7363 7.35693 63.459 7.35693H227.338C235.758 7.35693 242.609 14.2075 242.609 22.6284V80.9829C242.609 89.4033 235.759 96.2544 227.338 96.2544H73.2222C72.0688 96.2544 70.9834 96.7974 70.2925 97.7207L55.1606 117.918L40.0288 97.7207C39.3374 96.7979 38.252 96.2544 37.0991 96.2544H22.5933C14.1729 96.2544 7.32178 89.4038 7.32178 80.9829V22.6279C7.32178 14.2075 14.1724 7.35645 22.5933 7.35645H44.9092C49.6318 7.35645 49.6318 0.0341797 44.9092 0.0341797H22.5933C10.1353 0.0341797 0 10.1699 0 22.6279V80.9824C0 93.4404 10.1353 103.576 22.5933 103.576Z" fill="black"/>
<path d="M54.9165 140.132C24.6353 140.132 0 164.768 0 195.049C0 225.331 24.6353 249.966 54.9165 249.966C85.1978 249.966 109.833 225.331 109.833 195.049C109.833 164.768 85.1978 140.132 54.9165 140.132ZM25.1079 232.123C27.0532 217.218 39.7632 206.032 54.8672 206.032C62.4312 206.032 69.6567 208.854 75.2124 213.978C80.4277 218.787 83.7432 225.216 84.6387 232.192C76.4883 238.727 66.1514 242.643 54.916 242.643C43.6416 242.644 33.2715 238.7 25.1079 232.123ZM39.979 183.822C39.979 175.612 46.6582 168.933 54.8677 168.933C63.0771 168.933 69.7563 175.612 69.7563 183.822C69.7563 192.032 63.0771 198.71 54.8677 198.71C46.6582 198.71 39.979 192.031 39.979 183.822ZM90.8872 226.183C89.0562 219.482 85.376 213.39 80.1763 208.595C76.7446 205.43 72.8003 202.974 68.5474 201.3C73.7349 197.23 77.0776 190.911 77.0776 183.822C77.0776 171.575 67.1138 161.611 54.8667 161.611C42.6196 161.611 32.6558 171.575 32.6558 183.822C32.6558 190.911 35.998 197.23 41.1851 201.299C30.4053 205.54 22.0156 214.655 18.8711 226.096C11.6772 217.755 7.32129 206.902 7.32129 195.049C7.32129 168.806 28.6719 147.455 54.9155 147.455C81.1592 147.455 102.51 168.806 102.51 195.049C102.511 206.942 98.126 217.831 90.8872 226.183Z" fill="black"/>
<path d="M136.682 170.642H237.241C253.579 170.642 253.628 145.258 237.241 145.258H136.682C120.344 145.258 120.295 170.642 136.682 170.642ZM136.682 152.58H237.241C244.149 152.58 244.16 163.319 237.241 163.319H136.682C129.774 163.319 129.763 152.58 136.682 152.58Z" fill="black"/>
<path d="M136.925 207.741H237.483C253.822 207.741 253.87 182.357 237.483 182.357H231.381C226.659 182.357 226.659 189.679 231.381 189.679H237.483C244.392 189.679 244.403 200.418 237.483 200.418H136.925C130.016 200.418 130.005 189.679 136.925 189.679H212.831C217.554 189.679 217.554 182.357 212.831 182.357H136.925C120.586 182.357 120.537 207.741 136.925 207.741Z" fill="black"/>
<path d="M237.729 219.457H137.171C120.832 219.457 120.784 244.84 137.171 244.84H149.374C154.097 244.84 154.097 237.518 149.374 237.518H137.171C130.262 237.518 130.251 226.779 137.171 226.779H237.729C244.638 226.779 244.649 237.518 237.729 237.518H167.436C162.713 237.518 162.713 244.84 167.436 244.84H237.729C254.068 244.84 254.117 219.457 237.729 219.457Z" fill="black"/>
</g>
<defs>
<clipPath id="clip0">
<rect width="250" height="250" fill="white"/>
</clipPath>
</defs>
</svg>
