<svg width="20" height="20" viewBox="0 0 20 20" fill="none" xmlns="http://www.w3.org/2000/svg">
<path d="M19.4531 3.2716L13.4375 0.102881C13.3073 0.0342932 13.1608 0 12.998 0C12.8353 0 12.6888 0.0342932 12.5586 0.102881L6.91406 3.06584L1.30859 1.09053C1.16536 1.03567 1.01237 1.02195 0.849609 1.04938C0.686848 1.07682 0.540365 1.13855 0.410156 1.23457C0.279947 1.34431 0.179037 1.47462 0.107422 1.62551C0.035807 1.77641 0 1.93416 0 2.09877V15.8025C0 15.9945 0.0488277 16.1763 0.146484 16.3477C0.244141 16.5192 0.377603 16.6461 0.546875 16.7284L6.5625 19.8971C6.6276 19.9383 6.69922 19.9657 6.77734 19.9794C6.85547 19.9931 6.92708 20 6.99219 20C7.07031 20 7.14844 19.9931 7.22656 19.9794C7.30469 19.9657 7.3763 19.9383 7.44141 19.8971L13.0859 16.9342L18.6914 18.9095C18.8346 18.9506 18.9876 18.9609 19.1504 18.9403C19.3132 18.9198 19.4596 18.8615 19.5898 18.7654C19.7201 18.6557 19.821 18.5254 19.8926 18.3745C19.9642 18.2236 20 18.0658 20 17.9012V4.19753C20 4.00549 19.9512 3.82373 19.8535 3.65226C19.7559 3.48079 19.6224 3.35391 19.4531 3.2716ZM8.00781 4.85597L11.9922 2.7572V15.144L8.00781 17.2428V4.85597ZM1.99219 3.55967L5.99609 4.95885V17.2428L1.99219 15.144V3.55967ZM18.0078 16.4403L14.0039 15.0412V2.7572L18.0078 4.85597V16.4403Z" fill="#B0B7C4"/>
</svg>
