<svg width="25" height="23" viewBox="0 0 25 23" fill="none" xmlns="http://www.w3.org/2000/svg">
<path d="M13 7.25H4.75" stroke="#FF4D61" stroke-width="2" stroke-linecap="round" stroke-linejoin="round"/>
<path d="M10.75 12.75H4.75" stroke="#FF4D61" stroke-width="2" stroke-linecap="round" stroke-linejoin="round"/>
<path d="M22.4608 17.513C22.4109 17.3638 22.3155 17.234 22.1879 17.142C22.0604 17.0499 21.9071 17.0003 21.7498 17H19.4998V14.752C19.8394 14.4482 20.0788 14.0485 20.1863 13.6056C20.2938 13.1628 20.2643 12.6978 20.1017 12.2721C19.9391 11.8464 19.6511 11.4801 19.2757 11.2217C18.9004 10.9633 18.4555 10.825 17.9998 10.825C17.5441 10.825 17.0992 10.9633 16.7238 11.2217C16.3485 11.4801 16.0605 11.8464 15.8979 12.2721C15.7353 12.6978 15.7058 13.1628 15.8133 13.6056C15.9208 14.0485 16.1602 14.4482 16.4998 14.752V17.002H14.2518C14.0943 17.0021 13.9408 17.0516 13.8131 17.1437C13.6853 17.2357 13.5897 17.3656 13.5398 17.515L12.5398 20.515C12.502 20.6278 12.4916 20.7479 12.5095 20.8655C12.5273 20.9831 12.573 21.0947 12.6425 21.1912C12.7121 21.2877 12.8037 21.3662 12.9096 21.4202C13.0156 21.4743 13.1329 21.5023 13.2518 21.502H22.7518C22.8706 21.5021 22.9878 21.474 23.0936 21.4199C23.1995 21.3657 23.2909 21.2872 23.3603 21.1908C23.4298 21.0944 23.4753 20.9828 23.4932 20.8653C23.511 20.7478 23.5006 20.6277 23.4628 20.515L22.4608 17.513Z" stroke="#5D6174" stroke-width="2" stroke-linecap="round" stroke-linejoin="round"/>
<path d="M9.252 21.5H2.5C2.10218 21.5 1.72064 21.342 1.43934 21.0607C1.15804 20.7794 1 20.3978 1 20V2.5C1 2.10218 1.15804 1.72064 1.43934 1.43934C1.72064 1.15804 2.10218 1 2.5 1H14.5C14.8913 1.00031 15.2671 1.15354 15.547 1.427L18.547 4.309C18.6904 4.44873 18.8043 4.61575 18.8821 4.8002C18.9599 4.98465 19 5.18281 19 5.383" stroke="#5D6174" stroke-width="2" stroke-linecap="round" stroke-linejoin="round"/>
</svg>
