<svg width="22" height="22" viewBox="0 0 22 22" fill="none" xmlns="http://www.w3.org/2000/svg">
<path d="M11 0.6875C8.96038 0.6875 6.96657 1.29232 5.27069 2.42547C3.5748 3.55862 2.25303 5.16921 1.4725 7.05358C0.691968 8.93794 0.487746 11.0114 0.885656 13.0119C1.28357 15.0123 2.26574 16.8498 3.70797 18.292C5.15019 19.7343 6.98771 20.7164 8.98814 21.1143C10.9886 21.5123 13.0621 21.308 14.9464 20.5275C16.8308 19.747 18.4414 18.4252 19.5745 16.7293C20.7077 15.0334 21.3125 13.0396 21.3125 11C21.3094 8.2659 20.2219 5.64468 18.2886 3.71138C16.3553 1.77808 13.7341 0.690593 11 0.6875ZM11 19.9375C9.58032 19.9375 8.09394 18.1074 7.35625 15.125H14.6438C13.9061 18.1074 12.4197 19.9375 11 19.9375ZM7.07713 13.75C6.80763 11.9266 6.80763 10.0734 7.07713 8.25H14.9229C15.0592 9.16029 15.1268 10.0796 15.125 11C15.1268 11.9204 15.0592 12.8397 14.9229 13.75H7.07713ZM2.0625 11C2.063 10.0661 2.21056 9.13803 2.49975 8.25H5.69663C5.43446 10.074 5.43446 11.926 5.69663 13.75H2.49975C2.21056 12.862 2.063 11.9339 2.0625 11ZM11 2.0625C12.4197 2.0625 13.9061 3.89263 14.6438 6.875H7.35625C8.09394 3.89263 9.58032 2.0625 11 2.0625ZM16.3034 8.25H19.5003C20.0831 10.037 20.0831 11.963 19.5003 13.75H16.3034C16.4338 12.8391 16.4995 11.9202 16.5 11C16.4995 10.0798 16.4338 9.16088 16.3034 8.25ZM18.9207 6.875H16.0559C15.7499 5.3797 15.1501 3.96005 14.2911 2.69844C16.2835 3.49305 17.9258 4.97459 18.9207 6.875ZM7.70894 2.69844C6.84996 3.96005 6.25008 5.3797 5.94413 6.875H3.07932C4.07421 4.97459 5.71647 3.49305 7.70894 2.69844ZM3.07932 15.125H5.94413C6.25008 16.6203 6.84996 18.0399 7.70894 19.3016C5.71647 18.5069 4.07421 17.0254 3.07932 15.125ZM14.2911 19.3016C15.1501 18.0399 15.7499 16.6203 16.0559 15.125H18.9207C17.9258 17.0254 16.2835 18.5069 14.2911 19.3016Z" fill="#A3A5B0"/>
</svg>
