<svg width="29" height="27" viewBox="0 0 29 27" fill="none" xmlns="http://www.w3.org/2000/svg">
<path d="M1 14.0818L13.1307 1.57697C13.3105 1.39307 13.5237 1.24747 13.7581 1.14847C13.9925 1.04948 14.2436 0.99903 14.497 1.00001C14.7504 1.001 15.0011 1.05339 15.2348 1.15421C15.4685 1.25502 15.6806 1.40228 15.859 1.58756L28 14.0818" stroke="#181E39" stroke-width="2" stroke-linecap="round" stroke-linejoin="round"/>
<path d="M18.3569 25.9999V20.0408C18.3569 18.9872 17.9505 17.9767 17.2271 17.2317C16.5038 16.4867 15.5227 16.0681 14.4997 16.0681C13.4767 16.0681 12.4957 16.4867 11.7723 17.2317C11.049 17.9767 10.6426 18.9872 10.6426 20.0408V25.9999" stroke="#FA4B5F" stroke-width="2" stroke-linecap="round" stroke-linejoin="round"/>
<path d="M24.1431 10.1131V26H4.85742V10.1064" stroke="#181E39" stroke-width="2" stroke-linecap="round" stroke-linejoin="round"/>
<path d="M14.5006 12.0954C15.832 12.0954 16.9113 10.9837 16.9113 9.61244C16.9113 8.24114 15.832 7.12949 14.5006 7.12949C13.1692 7.12949 12.0898 8.24114 12.0898 9.61244C12.0898 10.9837 13.1692 12.0954 14.5006 12.0954Z" stroke="#FA4B5F" stroke-width="2" stroke-linecap="round" stroke-linejoin="round"/>
</svg>
