<svg width="13" height="13" viewBox="0 0 13 13" fill="none" xmlns="http://www.w3.org/2000/svg">
<path d="M11.3805 6.5C11.3805 7.14094 11.2542 7.7756 11.009 8.36775C10.7637 8.9599 10.4042 9.49794 9.95097 9.95116C9.49776 10.4044 8.95972 10.7639 8.36757 11.0092C7.77542 11.2544 7.14075 11.3807 6.49981 11.3807C5.85888 11.3807 5.22421 11.2544 4.63206 11.0092C4.03991 10.7639 3.50187 10.4044 3.04866 9.95116C2.59544 9.49794 2.23594 8.9599 1.99066 8.36775C1.74538 7.7756 1.61914 7.14094 1.61914 6.5C1.61914 5.85906 1.74538 5.2244 1.99066 4.63224C2.23594 4.04009 2.59544 3.50205 3.04866 3.04884C3.50187 2.59563 4.03991 2.23612 4.63206 1.99084C5.22421 1.74557 5.85888 1.61932 6.49982 1.61932C7.14075 1.61932 7.77542 1.74557 8.36757 1.99084C8.95972 2.23612 9.49776 2.59563 9.95097 3.04884C10.4042 3.50205 10.7637 4.04009 11.009 4.63225C11.2542 5.2244 11.3805 5.85906 11.3805 6.5L11.3805 6.5Z" stroke="white" stroke-width="2"/>
<rect x="5.05957" y="3.82126" width="2" height="4.59136" rx="1" fill="white"/>
<rect x="8.77148" y="6.41263" width="2" height="3.55789" rx="1" transform="rotate(90 8.77148 6.41263)" fill="white"/>
</svg>
