<svg width="40" height="32" viewBox="0 0 40 32" fill="none" xmlns="http://www.w3.org/2000/svg">
<path d="M37.4602 0.44458H2.53972C1.13718 0.44458 0 1.58169 0 2.98423V29.016C0 30.4184 1.13718 31.5556 2.53972 31.5556H37.4602C38.8628 31.5556 40 30.4184 40 29.0159V2.98423C40 1.58169 38.8629 0.44458 37.4602 0.44458ZM37.4602 2.98423V21.4546L32.4551 16.9042C31.7028 16.2204 30.546 16.2477 29.8273 16.9671L24.7618 22.0318L14.774 10.1016C14.019 9.20004 12.6361 9.19118 11.8698 10.082L2.53972 20.9251V2.98423H37.4602ZM26.6667 9.65088C26.6667 7.72198 28.2297 6.1588 30.1586 6.1588C32.0876 6.1588 33.6507 7.72198 33.6507 9.65088C33.6507 11.5798 32.0877 13.1429 30.1586 13.1429C28.2298 13.143 26.6667 11.5798 26.6667 9.65088Z" fill="#A3A5B0"/>
</svg>
