<svg width="27" height="30" viewBox="0 0 27 30" fill="none" xmlns="http://www.w3.org/2000/svg">
<path fill-rule="evenodd" clip-rule="evenodd" d="M24.3298 12.479L24.3596 12.5048L24.3903 12.5294C24.4713 12.5944 24.4937 12.6367 24.5026 12.6556C24.5125 12.6769 24.5385 12.7415 24.5385 12.8871C24.5385 13.0471 24.504 13.1337 24.3907 13.2511C24.2916 13.3537 24.2355 13.3746 24.1075 13.3746H22.9209H20.9209V15.0016C21.655 15.0174 22.3609 15.1474 23.0216 15.3746H24.1075C24.7827 15.3746 25.3567 15.1299 25.8294 14.6404C26.3021 14.1508 26.5385 13.5664 26.5385 12.8871C26.5385 12.0879 26.2394 11.4486 25.6413 10.969C24.4451 9.93007 22.8823 8.55146 20.9529 6.83317C19.0236 5.11488 17.3981 3.66634 16.0765 2.48751C14.7548 1.30869 14.0844 0.709291 14.0651 0.689311L13.2548 0L12.4734 0.689311C12.4541 0.709291 11.7788 1.30869 10.4475 2.48751C9.11626 3.66634 7.48596 5.11488 5.55658 6.83317C3.6272 8.55146 2.05478 9.94006 0.839275 10.999C0.279755 11.5185 0 12.1478 0 12.8871C0 13.5664 0.231522 14.1508 0.694573 14.6404C1.15762 15.1299 1.72678 15.3746 2.40206 15.3746H3.61757V17.3746V22.8671C3.61757 23.5664 3.85391 24.1608 4.32661 24.6504C4.79931 25.1399 5.36364 25.3846 6.01963 25.3846H14.7724C14.4176 24.7712 14.1542 24.0984 14.0008 23.3846H6.01963C5.94694 23.3846 5.91478 23.3725 5.90017 23.3662C5.88401 23.3592 5.83826 23.3366 5.76532 23.2611C5.66361 23.1557 5.61757 23.0641 5.61757 22.8671V15.3746V13.3746H3.61757H2.40206C2.31146 13.3746 2.27214 13.3595 2.25883 13.3537C2.24561 13.3481 2.20845 13.3304 2.14751 13.266C2.03895 13.1512 2 13.0599 2 12.8871C2 12.7303 2.03066 12.6275 2.18219 12.4816C3.40133 11.4192 4.97004 10.0337 6.88673 8.32672C8.81526 6.60919 10.444 5.162 11.7734 3.98486C12.4309 3.40267 12.929 2.96125 13.2674 2.66091C13.6032 2.96111 14.0959 3.40093 14.7452 3.98006C16.0673 5.15933 17.6932 6.60823 19.6228 8.32672C21.555 10.0476 23.1247 11.4323 24.3298 12.479Z" fill="white"/>
<path d="M24.0328 18.6071C22.2305 16.8746 19.3082 16.8746 17.5056 18.6071C15.8816 20.1683 15.6988 23.1078 17.077 24.8742L20.7692 30L24.4614 24.8742C25.8396 23.1078 25.6568 20.1683 24.0328 18.6071ZM20.8141 23.1656C19.9727 23.1656 19.2906 22.51 19.2906 21.7011C19.2906 20.8922 19.9727 20.2366 20.8141 20.2366C21.6556 20.2366 22.3376 20.8922 22.3376 21.7011C22.3376 22.51 21.6556 23.1656 20.8141 23.1656Z" fill="#FA4B5F"/>
<path d="M8.65381 13.8462L13.2692 9.2308L17.8846 13.8462" stroke="#1ACA8E" stroke-width="2"/>
</svg>
