<svg width="46" height="48" viewBox="0 0 46 48" fill="none" xmlns="http://www.w3.org/2000/svg">
<circle cx="9.89953" cy="29.5771" r="3" transform="rotate(-45 9.89953 29.5771)" stroke="#848898" stroke-width="2"/>
<circle cx="14.1422" cy="33.8203" r="3" transform="rotate(-45 14.1422 33.8203)" stroke="#848898" stroke-width="2"/>
<circle cx="18.3849" cy="38.0625" r="3" transform="rotate(-45 18.3849 38.0625)" stroke="#848898" stroke-width="2"/>
<path d="M7.77836 27.4566L2.82861 22.5068L15.5565 9.77891L17.2134 11.4358C17.9635 12.1859 18.981 12.6073 20.0418 12.6073H22.6276M22.6276 12.6073L26.6276 12.6073C27.6885 12.6073 28.7059 12.1859 29.456 11.4358L31.1129 9.77891L43.1337 21.7997L36.7697 28.1637L29.456 20.85C28.7059 20.0998 27.6885 19.6784 26.6276 19.6784H24.0418L20.5063 23.2139C19.3347 24.3855 17.4352 24.3855 16.2636 23.2139V23.2139C15.0921 22.0424 15.0921 20.1429 16.2636 18.9713L22.6276 12.6073Z" stroke="#848898" stroke-width="2"/>
<path d="M20.8599 40.5381L22.9812 42.6594C23.9575 43.6357 25.5404 43.6357 26.5167 42.6594V42.6594C27.493 41.6831 27.493 40.1002 26.5167 39.1239L24.749 37.3561" stroke="#848898" stroke-width="2"/>
<path d="M24.395 37.002L26.5163 39.1233C27.4927 40.0996 29.0756 40.0996 30.0519 39.1233V39.1233C31.0282 38.147 31.0282 36.5641 30.0519 35.5877L28.2841 33.82" stroke="#848898" stroke-width="2"/>
<path d="M27.9307 33.4668L30.052 35.5881C31.0283 36.5644 32.6112 36.5644 33.5875 35.5881V35.5881C34.5638 34.6118 34.5638 33.0289 33.5875 32.0526L31.8198 30.2848" stroke="#848898" stroke-width="2"/>
<path d="M31.4663 29.9316L33.5876 32.053C34.5639 33.0293 36.1469 33.0293 37.1232 32.053V32.053C38.0995 31.0767 38.0995 29.4937 37.1232 28.5174L35.3554 26.7497" stroke="#848898" stroke-width="2"/>
</svg>
