<svg width="17" height="4" viewBox="0 0 17 4" fill="none" xmlns="http://www.w3.org/2000/svg">
<path fill-rule="evenodd" clip-rule="evenodd" d="M4.04762 2C4.04762 3.10457 3.14153 4 2.02381 4C0.90609 4 0 3.10457 0 2C0 0.895432 0.90609 0 2.02381 0C3.14153 0 4.04762 0.895432 4.04762 2ZM10.5238 2C10.5238 3.10457 9.61772 4 8.50001 4C7.38229 4 6.4762 3.10457 6.4762 2C6.4762 0.895432 7.38229 0 8.50001 0C9.61772 0 10.5238 0.895432 10.5238 2ZM14.9762 4C16.0939 4 17 3.10457 17 2C17 0.895432 16.0939 0 14.9762 0C13.8585 0 12.9524 0.895432 12.9524 2C12.9524 3.10457 13.8585 4 14.9762 4Z" fill="#A3A5B0"/>
</svg>
