<svg width="20" height="24" viewBox="0 0 20 24" fill="none" xmlns="http://www.w3.org/2000/svg">
<path fill-rule="evenodd" clip-rule="evenodd" d="M13.4375 0.102881L19.4531 3.2716C19.6224 3.35391 19.7559 3.48079 19.8535 3.65226C19.9512 3.82373 20 4.00549 20 4.19753V12.5278C19.4249 12.0131 18.75 11.6077 18.0078 11.3442V4.85597L14.0039 2.7572V11.34C13.2538 11.6046 12.572 12.014 11.9922 12.5348V2.7572L8.00781 4.85597V17.2428L10.0579 16.1629C10.0197 16.4365 10 16.7159 10 17C10 17.5036 10.062 17.9927 10.1789 18.4601L7.44141 19.8971C7.3763 19.9383 7.30469 19.9657 7.22656 19.9794C7.14844 19.9931 7.07031 20 6.99219 20C6.92708 20 6.85547 19.9931 6.77734 19.9794C6.69922 19.9657 6.6276 19.9383 6.5625 19.8971L0.546875 16.7284C0.377603 16.6461 0.244141 16.5192 0.146484 16.3477C0.0488277 16.1763 0 15.9945 0 15.8025V2.09877C0 1.93416 0.035807 1.77641 0.107422 1.62551C0.179037 1.47462 0.279947 1.34431 0.410156 1.23457C0.540365 1.13855 0.686848 1.07682 0.849609 1.04938C1.01237 1.02195 1.16536 1.03567 1.30859 1.09053L6.91406 3.06584L12.5586 0.102881C12.6888 0.0342932 12.8353 0 12.998 0C13.1608 0 13.3073 0.0342932 13.4375 0.102881ZM5.99609 4.95885L1.99219 3.55967V15.144L5.99609 17.2428V4.95885Z" fill="#5D6174"/>
<path d="M18.8284 14.1261C17.2664 12.6246 14.7338 12.6246 13.1716 14.1261C11.7641 15.4791 11.6056 18.0267 12.8001 19.5576L16 24L19.1999 19.5576C20.3944 18.0267 20.2359 15.4791 18.8284 14.1261ZM16.039 18.0769C15.3097 18.0769 14.7186 17.5087 14.7186 16.8076C14.7186 16.1066 15.3097 15.5384 16.039 15.5384C16.7682 15.5384 17.3593 16.1066 17.3593 16.8076C17.3593 17.5087 16.7682 18.0769 16.039 18.0769Z" fill="#5D6174"/>
</svg>
