<svg width="22" height="16" viewBox="0 0 22 16" fill="none" xmlns="http://www.w3.org/2000/svg">
<path fill-rule="evenodd" clip-rule="evenodd" d="M11.7071 0.292894L14.2929 2.87868C14.9229 3.50864 14.4767 4.58579 13.5858 4.58579H8.41421C7.52331 4.58579 7.07714 3.50864 7.70711 2.87868L10.2929 0.292893C10.6834 -0.0976313 11.3166 -0.0976309 11.7071 0.292894ZM11.7071 14.8787L14.2929 12.2929C14.9229 11.6629 14.4767 10.5858 13.5858 10.5858H8.41421C7.52331 10.5858 7.07714 11.6629 7.70711 12.2929L10.2929 14.8787C10.6834 15.2692 11.3166 15.2692 11.7071 14.8787ZM1 6.58579C0.447715 6.58579 0 7.0335 0 7.58579C0 8.13807 0.447716 8.58579 1 8.58579H21C21.5523 8.58579 22 8.13807 22 7.58579C22 7.0335 21.5523 6.58579 21 6.58579H1Z" fill="#B0B7C4"/>
</svg>
