<svg width="70" height="44" viewBox="0 0 70 44" fill="none" xmlns="http://www.w3.org/2000/svg">
<path d="M25.3447 12.345H15.6895C15.0233 12.345 14.4825 12.8857 14.4825 13.5519V42.5174C14.4825 43.1837 15.0233 43.7244 15.6895 43.7244H25.3447C26.0109 43.7244 26.5517 43.1837 26.5517 42.5174V13.5519C26.5517 12.8857 26.0109 12.345 25.3447 12.345Z" fill="white"/>
<path d="M39.8275 0.275879H30.1724C29.5062 0.275879 28.9655 0.816602 28.9655 1.48283V42.5173C28.9655 43.1836 29.5062 43.7243 30.1724 43.7243H39.8276C40.4939 43.7243 41.0346 43.1836 41.0346 42.5173V1.48283C41.0344 0.816602 40.4937 0.275879 39.8275 0.275879Z" fill="white"/>
<path d="M54.3103 41.3105H44.6551C43.9888 41.3105 43.4481 41.8513 43.4481 42.5175C43.4481 43.1837 43.9888 43.7245 44.6551 43.7245H54.3103C54.9765 43.7245 55.5172 43.1837 55.5172 42.5175C55.5172 41.8513 54.9765 41.3105 54.3103 41.3105Z" fill="white"/>
<path d="M68.7931 41.3105H59.1379C58.4716 41.3105 57.9309 41.8513 57.9309 42.5175C57.9309 43.1837 58.4716 43.7245 59.1379 43.7245H68.7931C69.4593 43.7245 70.0001 43.1837 70.0001 42.5175C70.0001 41.8513 69.4593 41.3105 68.7931 41.3105Z" fill="white"/>
<path d="M10.862 24.4138H1.20695C0.540723 24.4138 0 24.9545 0 25.6208V42.5173C0 43.1835 0.540723 43.7243 1.20695 43.7243H10.8622C11.5284 43.7243 12.0691 43.1835 12.0691 42.5173V25.6208C12.069 24.9545 11.5283 24.4138 10.862 24.4138Z" fill="white"/>
</svg>
