<svg width="25" height="25" viewBox="0 0 25 25" fill="none" xmlns="http://www.w3.org/2000/svg">
<path d="M21.3912 13.3457H19.4578C19.6548 13.8853 19.7625 14.4675 19.7625 15.0744V22.3816C19.7625 22.6346 19.7185 22.8775 19.6383 23.1033H22.8347C24.0287 23.1033 25 22.1319 25 20.938V16.9545C25.0001 14.9647 23.3811 13.3457 21.3912 13.3457Z" fill="#334164"/>
<path d="M5.23756 15.0744C5.23756 14.4675 5.34523 13.8853 5.5423 13.3457H3.60889C1.61895 13.3457 0 14.9647 0 16.9546V20.9381C0 22.132 0.97134 23.1034 2.16534 23.1034H5.36173C5.2816 22.8774 5.23756 22.6346 5.23756 22.3816V15.0744Z" fill="#334164"/>
<path d="M14.71 11.4656H10.29C8.30004 11.4656 6.68109 13.0845 6.68109 15.0745V22.3816C6.68109 22.7802 7.00424 23.1034 7.40287 23.1034H17.5971C17.9958 23.1034 18.3189 22.7802 18.3189 22.3816V15.0745C18.3189 13.0845 16.7 11.4656 14.71 11.4656Z" fill="#334164"/>
<path d="M12.5 1.89648C10.1068 1.89648 8.15985 3.84346 8.15985 6.23668C8.15985 7.85997 9.0558 9.2777 10.3789 10.022C11.0065 10.3751 11.7301 10.5768 12.5 10.5768C13.2699 10.5768 13.9935 10.3751 14.621 10.022C15.9442 9.2777 16.8401 7.85992 16.8401 6.23668C16.8401 3.84351 14.8932 1.89648 12.5 1.89648Z" fill="#334164"/>
<path d="M4.87879 5.94189C3.08899 5.94189 1.63293 7.39795 1.63293 9.18775C1.63293 10.9775 3.08899 12.4336 4.87879 12.4336C5.33279 12.4336 5.76512 12.3396 6.15784 12.1705C6.83684 11.8782 7.39671 11.3607 7.74314 10.7125C7.98631 10.2576 8.12464 9.73858 8.12464 9.18775C8.12464 7.398 6.66858 5.94189 4.87879 5.94189Z" fill="#334164"/>
<path d="M20.1212 5.94189C18.3314 5.94189 16.8754 7.39795 16.8754 9.18775C16.8754 9.73863 17.0137 10.2576 17.2569 10.7125C17.6033 11.3608 18.1632 11.8782 18.8422 12.1705C19.2349 12.3396 19.6672 12.4336 20.1212 12.4336C21.911 12.4336 23.3671 10.9775 23.3671 9.18775C23.3671 7.39795 21.911 5.94189 20.1212 5.94189Z" fill="#334164"/>
</svg>
