<svg width="22" height="21" viewBox="0 0 22 21" fill="none" xmlns="http://www.w3.org/2000/svg">
<path fill-rule="evenodd" clip-rule="evenodd" d="M13.057 10.3389L16.1426 7.25327C16.7106 6.68525 16.7106 5.76431 16.1426 5.19629C15.5746 4.62827 14.6536 4.62827 14.0856 5.19629L11 8.28189L7.9144 5.19629C7.34638 4.62827 6.42544 4.62827 5.85742 5.19629C5.2894 5.76431 5.2894 6.68525 5.85742 7.25327L8.94302 10.3389L5.85742 13.4245C5.2894 13.9925 5.2894 14.9134 5.85742 15.4814C6.42544 16.0495 7.34638 16.0495 7.9144 15.4814L11 12.3958L14.0856 15.4814C14.6536 16.0495 15.5746 16.0495 16.1426 15.4814C16.7106 14.9134 16.7106 13.9925 16.1426 13.4245L13.057 10.3389Z" fill="white"/>
</svg>
