<svg width="34" height="25" viewBox="0 0 34 25" fill="none" xmlns="http://www.w3.org/2000/svg">
<rect x="22.2222" y="8.33331" width="11.1111" height="2.77778" rx="1.38889" fill="#50556C"/>
<rect x="26.3889" y="15.2778" width="11.1111" height="2.77778" rx="1.38889" transform="rotate(-90 26.3889 15.2778)" fill="#50556C"/>
<path d="M20.8334 23.6111V21.142C20.8334 19.8323 20.3212 18.5762 19.4096 17.6501C18.4979 16.724 17.2615 16.2037 15.9722 16.2037H6.25003C4.96078 16.2037 3.72434 16.724 2.8127 17.6501C1.90107 18.5762 1.38892 19.8323 1.38892 21.142V23.6111" stroke="#50556C" stroke-width="2" stroke-linecap="round" stroke-linejoin="round"/>
<path d="M11.1111 11.2655C13.7958 11.2655 15.9722 9.05452 15.9722 6.32719C15.9722 3.59986 13.7958 1.38892 11.1111 1.38892C8.42639 1.38892 6.25 3.59986 6.25 6.32719C6.25 9.05452 8.42639 11.2655 11.1111 11.2655Z" stroke="#50556C" stroke-width="2" stroke-linecap="round" stroke-linejoin="round"/>
</svg>
