<svg width="26" height="30" viewBox="0 0 26 30" fill="none" xmlns="http://www.w3.org/2000/svg">
<path d="M17.1391 10.869C16.751 10.869 16.4365 11.1835 16.4365 11.5716V24.8502C16.4365 25.238 16.751 25.5528 17.1391 25.5528C17.5271 25.5528 17.8417 25.238 17.8417 24.8502V11.5716C17.8417 11.1835 17.5271 10.869 17.1391 10.869Z" fill="#C4C4C4"/>
<path d="M8.84711 10.869C8.45904 10.869 8.14453 11.1835 8.14453 11.5716V24.8502C8.14453 25.238 8.45904 25.5528 8.84711 25.5528C9.23517 25.5528 9.54969 25.238 9.54969 24.8502V11.5716C9.54969 11.1835 9.23517 10.869 8.84711 10.869Z" fill="#C4C4C4"/>
<path d="M2.80597 8.93117V26.2411C2.80597 27.2642 3.18114 28.2251 3.83651 28.9145C4.48886 29.6058 5.39671 29.9982 6.34684 29.9999H19.6398C20.5902 29.9982 21.498 29.6058 22.1501 28.9145C22.8055 28.2251 23.1806 27.2642 23.1806 26.2411V8.93117C24.4834 8.58537 25.3276 7.32677 25.1533 5.98996C24.9788 4.65342 23.8401 3.65363 22.492 3.65335H18.8949V2.77514C18.899 2.03661 18.607 1.32745 18.0842 0.805735C17.5614 0.284293 16.8511 -0.0060675 16.1126 -2.97579e-05H9.87398C9.13545 -0.0060675 8.42519 0.284293 7.90238 0.805735C7.37956 1.32745 7.08756 2.03661 7.09167 2.77514V3.65335H3.49455C2.14649 3.65363 1.00782 4.65342 0.833276 5.98996C0.659004 7.32677 1.50319 8.58537 2.80597 8.93117ZM19.6398 28.5947H6.34684C5.1456 28.5947 4.21112 27.5628 4.21112 26.2411V8.99292H21.7755V26.2411C21.7755 27.5628 20.841 28.5947 19.6398 28.5947ZM8.49682 2.77514C8.49216 2.4093 8.63596 2.05719 8.89559 1.79894C9.15494 1.54069 9.50787 1.39881 9.87398 1.40512H16.1126C16.4787 1.39881 16.8317 1.54069 17.091 1.79894C17.3506 2.05692 17.4944 2.4093 17.4898 2.77514V3.65335H8.49682V2.77514ZM3.49455 5.0585H22.492C23.1905 5.0585 23.7567 5.62468 23.7567 6.32314C23.7567 7.02159 23.1905 7.58777 22.492 7.58777H3.49455C2.79609 7.58777 2.22992 7.02159 2.22992 6.32314C2.22992 5.62468 2.79609 5.0585 3.49455 5.0585Z" fill="#C4C4C4"/>
<path d="M12.9936 10.869C12.6055 10.869 12.291 11.1835 12.291 11.5716V24.8502C12.291 25.238 12.6055 25.5528 12.9936 25.5528C13.3816 25.5528 13.6962 25.238 13.6962 24.8502V11.5716C13.6962 11.1835 13.3816 10.869 12.9936 10.869Z" fill="#C4C4C4"/>
</svg>
