<svg width="22" height="22" viewBox="0 0 22 22" fill="none" xmlns="http://www.w3.org/2000/svg">
<path d="M11 21C16.5228 21 21 16.5228 21 11C21 5.47715 16.5228 1 11 1C5.47715 1 1 5.47715 1 11C1 16.5228 5.47715 21 11 21Z" stroke="#B9BBC4" stroke-width="2" stroke-linecap="round" stroke-linejoin="round"/>
<path d="M11.001 15.001V17.001" stroke="#B9BBC4" stroke-width="2" stroke-linecap="round" stroke-linejoin="round"/>
<path d="M11.001 5.00195V7.00195" stroke="#B9BBC4" stroke-width="2" stroke-linecap="round" stroke-linejoin="round"/>
<path d="M6.99915 14.999H12.9991C13.5296 14.999 14.0383 14.7883 14.4134 14.4132C14.7884 14.0382 14.9991 13.5295 14.9991 12.999C14.9991 12.4686 14.7884 11.9599 14.4134 11.5848C14.0383 11.2097 13.5296 10.999 12.9991 10.999H8.99915C8.46871 10.999 7.96 10.7883 7.58493 10.4132C7.20986 10.0382 6.99915 9.52946 6.99915 8.99902C6.99915 8.46859 7.20986 7.95988 7.58493 7.58481C7.96 7.20974 8.46871 6.99902 8.99915 6.99902H14.9991" stroke="#B9BBC4" stroke-width="2" stroke-linecap="round" stroke-linejoin="round"/>
</svg>
