<svg width="24" height="25" viewBox="0 0 24 25" fill="none" xmlns="http://www.w3.org/2000/svg">
<g clip-path="url(#clip0)">
<path d="M23.7447 10.1594L12.3684 1.48276C12.149 1.31548 11.851 1.31548 11.6317 1.48276L0.255231 10.1594C-0.022644 10.3713 -0.083019 10.7778 0.120465 11.0672C0.323949 11.3567 0.714183 11.4195 0.992011 11.2076L12 2.81191L23.008 11.2076C23.119 11.2923 23.248 11.3331 23.3758 11.3331C23.5678 11.3331 23.7573 11.241 23.8795 11.0672C24.083 10.7778 24.0226 10.3713 23.7447 10.1594Z" fill="#A3A5B0"/>
<path d="M20.7303 11.3546C20.3859 11.3546 20.1067 11.6455 20.1067 12.0042V22.3435H15.1182V16.6997C15.1182 14.9086 13.7193 13.4516 12.0001 13.4516C10.2808 13.4516 8.88193 14.9087 8.88193 16.6997V22.3436H3.89335V12.0043C3.89335 11.6455 3.61412 11.3547 3.26977 11.3547C2.92543 11.3547 2.64619 11.6455 2.64619 12.0043V22.9932C2.64619 23.3519 2.92543 23.6427 3.26977 23.6427H9.50551C9.83345 23.6427 10.1018 23.3788 10.1266 23.0438C10.1281 23.0286 10.1291 23.012 10.1291 22.9932V16.6997C10.1291 15.6251 10.9684 14.7508 12.0001 14.7508C13.0317 14.7508 13.871 15.6251 13.871 16.6997V22.9932C13.871 23.0119 13.872 23.0282 13.8735 23.0432C13.898 23.3785 14.1665 23.6427 14.4946 23.6427H20.7303C21.0747 23.6427 21.3539 23.3519 21.3539 22.9932V12.0043C21.3539 11.6455 21.0747 11.3546 20.7303 11.3546Z" fill="#A3A5B0"/>
</g>
<defs>
<clipPath id="clip0">
<rect width="24" height="25" fill="white"/>
</clipPath>
</defs>
</svg>
