<svg width="24" height="20" viewBox="0 0 24 20" fill="none" xmlns="http://www.w3.org/2000/svg">
<path fill-rule="evenodd" clip-rule="evenodd" d="M1.46448 13.4645C2.40218 12.5267 3.67395 12 5 12H13C14.3261 12 15.5978 12.5267 16.5355 13.4644C16.5355 13.4645 16.5355 13.4645 16.5356 13.4645M1.46448 13.4645C1.46447 13.4645 1.46445 13.4645 1.46444 13.4645C0.526769 14.4022 0 15.6739 0 17V19C0 19.5523 0.447715 20 1 20C1.55228 20 2 19.5523 2 19V17C2 16.2043 2.31608 15.4413 2.87866 14.8787L2.8787 14.8787C3.4413 14.3161 4.20433 14 5 14H13C13.7957 14 14.5587 14.3161 15.1212 14.8787L15.1213 14.8788C15.6839 15.4413 16 16.2043 16 17V19C16 19.5523 16.4477 20 17 20C17.5523 20 18 19.5523 18 19V17C18 15.6739 17.4733 14.4022 16.5356 13.4645" fill="#B0B7C4"/>
<path fill-rule="evenodd" clip-rule="evenodd" d="M4 5C4 2.23858 6.23858 0 9 0C11.7614 0 14 2.23857 14 5C14 7.76143 11.7614 10 9 10C6.23858 10 4 7.76143 4 5ZM9 2C7.34314 2 6 3.34314 6 5C6 6.65686 7.34314 8 9 8C10.6568 8 12 6.65685 12 5C12 3.34315 10.6568 2 9 2Z" fill="#B0B7C4"/>
<path fill-rule="evenodd" clip-rule="evenodd" d="M19.0318 12.8799C19.1699 12.3451 19.7153 12.0236 20.25 12.1617C21.3226 12.4386 22.273 13.0639 22.9518 13.9395C23.6305 14.8152 23.9991 15.8913 24 16.9991L24 18.9999C24 19.5522 23.5523 19.9999 23 19.9999C22.4477 19.9999 22 19.5522 22 18.9999L22 17.0007C22 17.0006 22 17.0008 22 17.0007C21.9994 16.336 21.7782 15.6901 21.371 15.1649C20.9638 14.6395 20.3936 14.2644 19.75 14.0981C19.2152 13.96 18.8937 13.4146 19.0318 12.8799Z" fill="#B0B7C4"/>
<path fill-rule="evenodd" clip-rule="evenodd" d="M15.0313 0.881838C15.1682 0.346812 15.713 0.0241407 16.248 0.161131C17.3236 0.436509 18.2768 1.06201 18.9576 1.93902C19.6383 2.81603 20.0078 3.89467 20.0078 5.00488C20.0078 6.11509 19.6383 7.19373 18.9576 8.07074C18.2768 8.94775 17.3236 9.57325 16.248 9.84863C15.713 9.98562 15.1682 9.66295 15.0313 9.12792C14.8943 8.5929 15.2169 8.04812 15.752 7.91113C16.3972 7.74591 16.9692 7.37061 17.3777 6.8444C17.7861 6.31819 18.0078 5.67101 18.0078 5.00488C18.0078 4.33875 17.7861 3.69157 17.3777 3.16536C16.9692 2.63915 16.3972 2.26385 15.752 2.09863C15.2169 1.96164 14.8943 1.41686 15.0313 0.881838Z" fill="#B0B7C4"/>
</svg>
