<svg width="70" height="52" viewBox="0 0 70 52" fill="none" xmlns="http://www.w3.org/2000/svg">
<path d="M18.5607 25.4518C18.2603 21.2254 15.1259 17.7801 10.889 17.7801C6.65206 17.7801 3.51765 21.2254 3.21728 25.4518C3.03831 27.9715 3.21728 32.0275 2.12134 34.2194C2.12134 34.2194 3.21728 36.4113 7.25909 37.5102L14.541 37.5072C18.5607 36.4113 19.6566 34.2194 19.6566 34.2194C18.5607 32.0275 18.7396 27.9715 18.5607 25.4518Z" fill="#B0B7C4"/>
<path d="M9.79304 25.4518C5.56952 23.34 6.43878 19.2025 9.44782 17.922C5.95712 18.6031 3.48237 21.7211 3.21728 25.4518C3.03831 27.9715 3.21728 32.0275 2.12134 34.2194C2.12134 34.2194 3.21728 36.4113 7.25909 37.5102L10.7205 37.5089L9.79304 25.4518Z" fill="#C0C8D6"/>
<path d="M18.935 40.1453L15.3884 38.3721C14.6457 38.0008 14.1766 37.2417 14.1766 36.4114L14.1768 33.1233H7.60115V36.4114C7.60115 37.2416 7.13207 38.0005 6.38955 38.3718L2.84279 40.1452C1.72895 40.7022 1.02539 41.8405 1.02539 43.0859V50.6586H20.7525V43.086C20.7525 41.8408 20.049 40.7023 18.935 40.1453Z" fill="#DFE2E7"/>
<path d="M20.7526 43.0861C20.7526 41.8408 20.0489 40.7023 18.935 40.1453L15.3884 38.3721C15.1843 38.2701 15.0065 38.134 14.8479 37.9801L13.5901 39.3801C12.1045 41.0336 9.67355 41.0334 8.18797 39.3801L6.93002 37.98C6.77129 38.1339 6.59355 38.2699 6.3897 38.3719L2.84281 40.1453C1.7291 40.7022 1.02554 41.8406 1.02554 43.0859V50.6587H20.7527L20.7526 43.0861Z" fill="#D5DCED"/>
<path d="M10.889 35.3153C8.37731 35.3153 6.19446 33.9071 5.08704 31.8372C4.33427 30.4301 4.82509 28.6649 6.1298 27.746C6.38013 27.5697 6.6388 27.3685 6.89323 27.1415C7.6769 26.4421 8.13587 25.7047 8.39454 25.1642C8.61616 24.7013 9.12681 24.4399 9.62419 24.5666C13.4937 25.5526 16.1253 27.568 17.0736 28.3844C17.3256 28.6013 17.4706 28.9207 17.445 29.2523C17.1835 32.6444 14.3482 35.3153 10.889 35.3153Z" fill="#DFE2E7"/>
<path d="M17.0723 28.3833C16.1233 27.5664 13.4938 25.5536 9.62837 24.5676C9.12853 24.44 8.61569 24.7031 8.39271 25.1682C8.19652 25.5771 7.87235 26.0983 7.39124 26.6301C7.3911 26.6314 7.39083 26.6326 7.39069 26.6338C7.2414 26.8031 7.08239 26.9726 6.89331 27.1414C6.64927 27.3591 6.40372 27.5561 6.16091 27.724C4.61421 28.794 4.38193 30.7566 5.3298 32.2474C6.32702 33.8157 7.97421 34.9298 9.89196 35.223C8.57987 34.3304 7.6011 33.1202 7.6011 30.9317V30.0849C7.85007 29.9011 8.10068 29.7178 8.35265 29.493C8.96173 28.9494 9.49357 28.3208 9.91999 27.6439C12.872 28.5651 14.8733 30.0994 15.632 30.7518C15.8396 30.9339 16.1309 31.1912 16.7339 31.7569C17.1207 31.1466 17.3907 29.9584 17.445 29.2509C17.4706 28.9196 17.3239 28.5998 17.0723 28.3833Z" fill="#DFE2E7"/>
<path d="M1.69354 41.1104C1.27135 41.6705 1.02539 42.3581 1.02539 43.086V50.6586H5.40928V45.1364C5.40928 44.4705 5.10658 43.8407 4.58664 43.4248L1.69354 41.1104Z" fill="#C7CFE2"/>
<path d="M20.0846 41.1104C20.5068 41.6705 20.7527 42.3581 20.7527 43.086V50.6586H16.3688V45.1364C16.3688 44.4705 16.6715 43.8407 17.1915 43.4248L20.0846 41.1104Z" fill="#C7CFE2"/>
<path d="M50.3434 22.1639V22.9331C50.3434 23.8755 50.4952 24.8116 50.7933 25.7056L52.5352 30.9316H55.823V18.8761H53.6312C51.8154 18.876 50.3434 20.348 50.3434 22.1639Z" fill="#C0C8D6"/>
<path d="M65.4337 24.1454L63.4947 30.9316L54.7271 23.2599C53.5166 23.2599 52.5352 22.2785 52.5352 21.068C52.5352 19.2521 54.0073 17.7802 55.823 17.7802H65.6866V22.3389C65.6867 22.9498 65.6016 23.5579 65.4337 24.1454Z" fill="#B0B7C4"/>
<path d="M61.3033 34.2192H54.7271V40.7954H61.3033V34.2192Z" fill="#DFE2E7"/>
<path d="M66.59 38.3886L61.3027 36.878L58.0151 40.795L54.7273 36.878L49.4402 38.3886C48.0288 38.7919 47.0556 40.082 47.0556 41.55V50.6586H68.9746V41.5501C68.9746 40.082 68.0015 38.7919 66.59 38.3886Z" fill="#D5DCED"/>
<path d="M58.0152 35.3153C54.3835 35.3153 51.4394 32.3712 51.4394 28.7396C51.4394 27.3361 51.9969 25.9901 52.9892 24.9977L54.0686 23.9183C54.4894 23.4975 55.0649 23.2555 55.6596 23.2742C59.163 23.3847 62.2641 24.1353 63.9593 25.7908C64.3742 26.196 64.5908 26.763 64.5908 27.343V28.7394C64.5909 32.3712 61.6468 35.3153 58.0152 35.3153Z" fill="#DFE2E7"/>
<path d="M54.7272 28.7396C54.7272 27.4753 55.7889 26.4704 57.0506 26.5508C59.2631 26.6919 62.5461 27.0617 64.5602 28.0307C64.4945 27.5683 64.2958 26.1197 63.9591 25.7908C62.2641 24.1353 59.163 23.3847 55.6596 23.2742H55.6594C55.0647 23.2555 54.4893 23.4976 54.0684 23.9183L52.9891 24.9977C51.9966 25.9901 51.4392 27.336 51.4392 28.7396C51.4392 31.7383 53.4486 34.2633 56.1929 35.0539C55.2795 33.9268 54.727 32.4963 54.727 30.9314V28.7396H54.7272Z" fill="#DFE2E7"/>
<path d="M64.5907 44.8156C64.5907 43.9436 64.9371 43.1073 65.5537 42.4907L68.3749 39.6695C68.752 40.2085 68.9746 40.8574 68.9746 41.55V50.6586H64.5907V44.8156Z" fill="#C7CFE2"/>
<path d="M50.7455 38.6498L41.5758 35.3153L35 37.5072L28.4243 35.3153L19.2546 38.6498C17.5221 39.2798 16.3688 40.9263 16.3688 42.7696V50.6586H53.6313V42.7696C53.6313 40.9263 52.478 39.2798 50.7455 38.6498Z" fill="#D0D7E6"/>
<path d="M52.4516 39.7829C53.1917 40.5772 53.6312 41.635 53.6312 42.7698V50.6588H47.0555V46.9949C47.0555 45.8323 47.5173 44.7172 48.3394 43.8951L52.4516 39.7829Z" fill="#BCC5D6"/>
<path d="M47.0554 12.7137V3.53259C47.0554 2.32208 46.0741 1.34071 44.8636 1.34071H31.712C26.8699 1.34071 22.9444 5.26618 22.9444 10.1083V12.7137C22.9444 13.8916 23.1343 15.0618 23.5069 16.1793L23.8716 17.2738C23.9833 17.609 24.0403 17.9601 24.0403 18.3135V18.876H45.9595V18.3135C45.9595 17.9601 46.0165 17.609 46.1282 17.2738L46.493 16.1793C46.8655 15.0619 47.0554 13.8916 47.0554 12.7137Z" fill="#C0C8D6"/>
<path d="M28.4243 5.79309C28.4243 8.25198 30.4176 10.2455 32.8767 10.2455H33.4931L33.7908 18.8761H45.9597V18.3137C45.9597 17.9602 46.0167 17.6093 46.1284 17.2739L46.4932 16.1795C46.8657 15.0619 47.0556 13.8918 47.0556 12.7138V3.53259C47.0556 2.32194 46.0743 1.34071 44.8637 1.34071H32.8768C30.4176 1.34071 28.4243 3.33407 28.4243 5.79309Z" fill="#B0B7C4"/>
<path d="M41.5748 27.6431H28.4238V37.506H41.5748V27.6431Z" fill="#DFE2E7"/>
<path d="M28.4243 32.6036C30.3928 33.6305 32.6262 34.2194 35.0001 34.2194C37.3739 34.2194 39.6073 33.6305 41.5758 32.6036V27.6436H28.4243V32.6036Z" fill="#C7C9D0"/>
<path d="M35 37.5072L31.5047 41.0025C31.0349 41.4723 30.2583 41.4194 29.8567 40.8902L26.2324 36.1147L27.1804 34.117C27.4601 33.5274 28.1898 33.3114 28.7454 33.6538L35 37.5072Z" fill="#BCC5D6"/>
<path d="M35 37.5072L38.4954 41.0025C38.9651 41.4723 39.7417 41.4194 40.1434 40.8902L43.7676 36.1147L42.8196 34.117C42.5399 33.5274 41.8102 33.3114 41.2546 33.6538L35 37.5072Z" fill="#BCC5D6"/>
<path d="M35 30.9316C28.9472 30.9316 24.0405 26.0249 24.0405 19.9721V18.8761L25.8643 17.6603C26.779 17.0505 27.3284 16.0239 27.3284 14.9245V11.2044C27.3284 11.2044 36.0962 7.91647 42.6718 13.3964C42.6718 13.3964 42.6718 14.1426 42.6718 14.924C42.6718 16.0233 43.2212 17.0504 44.136 17.6603L45.9596 18.8761V19.9721C45.9595 26.0247 41.0528 30.9316 35 30.9316Z" fill="#DFE2E7"/>
<path d="M17.5484 39.7829C16.8084 40.5772 16.3688 41.635 16.3688 42.7698V50.6588H22.9446V46.9949C22.9446 45.8323 22.4828 44.7172 21.6607 43.8951L17.5484 39.7829Z" fill="#BCC5D6"/>
<path d="M32.544 13.8386C34.9271 13.5397 39.0987 13.3681 42.6717 14.9239C42.6717 14.4845 42.6717 13.3963 42.6717 13.3963C36.096 7.91635 27.3283 11.2043 27.3283 11.2043V14.9244C27.3283 16.0238 26.779 17.0503 25.8642 17.6602L24.0405 18.876V19.9719C24.0405 25.5755 28.2486 30.1887 33.6756 30.8438H33.6759C31.7847 28.8745 30.6163 26.2058 30.6163 23.2599V16.0157C30.6161 14.905 31.442 13.9768 32.544 13.8386Z" fill="#DFE2E7"/>
<path d="M60.8415 25.2722C60.9888 25.3459 61.1452 25.3806 61.2992 25.3806C61.6754 25.3806 62.0375 25.1728 62.2172 24.8137C62.4705 24.3071 62.2652 23.6912 61.7586 23.4379C59.3767 22.2471 54.9108 22.2332 54.7218 22.2332C54.1555 22.2332 53.6964 22.6923 53.6964 23.2586C53.6964 23.8249 54.1555 24.284 54.7218 24.284C55.8742 24.2842 59.2202 24.4616 60.8415 25.2722Z" fill="#777C8B"/>
<path d="M66.8708 38.0368L62.6359 36.8269C62.4531 36.7747 62.3254 36.6054 62.3254 36.4152V35.0017C62.67 34.763 62.9986 34.4958 63.3058 34.1976C64.7947 32.7528 65.6146 30.8148 65.6146 28.7405V26.79L66.0241 25.9711C66.4735 25.0722 66.711 24.0658 66.711 23.061V17.7768C66.711 17.2105 66.2519 16.7514 65.6856 16.7514H55.8182C52.2301 16.7514 49.3109 19.6706 49.3109 23.2586V23.3198C49.3109 24.1554 49.5085 24.9922 49.8821 25.7395L50.4072 26.7898V28.4646C50.4072 31.1189 51.7152 33.5004 53.6964 34.9335L53.6967 36.415C53.6967 36.6434 53.6967 36.738 52.85 36.98L50.7836 37.5704L44.8062 35.3968C44.8276 35.1148 44.7325 34.8279 44.5267 34.6118L42.6166 32.605V29.2363C42.8185 29.0699 43.0176 28.899 43.2105 28.7182C45.6202 26.4596 47.0021 23.2708 47.0021 19.9695V17.2791C47.7297 15.6958 48.0985 14.0203 48.0985 12.2948V1.33128C48.0985 0.764994 47.6394 0.305893 47.0731 0.305893H31.7238C26.3221 0.305893 21.9275 4.70058 21.9275 10.1022V12.295C21.9275 14.0206 22.2962 15.696 23.0238 17.2794V19.5942C23.0238 23.4272 24.7282 26.8805 27.4094 29.1571V32.6051L25.4993 34.6119C25.2935 34.8281 25.1984 35.1149 25.2198 35.3969L18.9109 37.6909C18.4538 37.8572 18.029 38.0824 17.6433 38.3551L16.6526 37.8598C19.6016 36.5761 20.5358 34.7708 20.5807 34.6811C20.7251 34.3925 20.7251 34.0526 20.5807 33.764C19.8414 32.2855 19.7519 29.5756 19.68 27.3982C19.6561 26.6733 19.6334 25.9885 19.59 25.3787C19.2404 20.4604 15.5014 16.7514 10.8927 16.7514C6.28387 16.7514 2.54475 20.4603 2.19529 25.3787C2.15195 25.9886 2.12926 26.6735 2.10533 27.3985C2.03342 29.5757 1.94373 32.2854 1.20463 33.7638C1.06025 34.0524 1.06025 34.3923 1.20463 34.6809C1.24947 34.7706 2.18176 36.5723 5.13666 37.8575L2.38492 39.2333C0.913828 39.9692 0 41.4478 0 43.0926V50.668C0 51.2343 0.459102 51.6934 1.02539 51.6934C1.59168 51.6934 2.05078 51.2343 2.05078 50.668V43.0926C2.05078 42.2296 2.53025 41.4537 3.30203 41.0678L6.72861 39.3545L7.92053 40.4873C8.75396 41.2793 9.8231 41.6751 10.8927 41.6751C11.9619 41.6751 13.0316 41.279 13.8648 40.4873L15.0566 39.3547L16.1738 39.9133C15.6477 40.7551 15.3491 41.7422 15.3491 42.7762V50.6683C15.3491 51.2346 15.8082 51.6937 16.3745 51.6937C16.9408 51.6937 17.3999 51.2346 17.3999 50.6683V42.7762C17.3999 41.3685 18.2887 40.0995 19.6118 39.6184L26.2634 37.1997L29.0324 41.3534C29.3863 41.8844 29.9536 42.2249 30.5886 42.2878C30.6595 42.2948 30.7299 42.2982 30.8001 42.2982C31.3604 42.2982 31.897 42.0777 32.2982 41.6767L33.9875 39.9874V50.6684C33.9875 51.2347 34.4466 51.6938 35.0129 51.6938C35.5791 51.6938 36.0382 51.2347 36.0382 50.6684V39.9874L37.7275 41.6767C38.1285 42.0778 38.6652 42.2984 39.2256 42.2984C39.2957 42.2984 39.3662 42.295 39.4369 42.288C40.0721 42.2251 40.6394 41.8845 40.9933 41.3535L43.7624 37.2L50.4139 39.6187C51.7368 40.0998 52.6258 41.3688 52.6258 42.7765V50.6686C52.6258 51.2349 53.0849 51.694 53.6512 51.694C54.2175 51.694 54.6766 51.2349 54.6766 50.6686V42.7765C54.6766 41.3508 54.1101 40.0137 53.1599 39.0248L53.4133 38.9524C53.6688 38.8794 54.0174 38.7795 54.3674 38.6079L56.9855 41.2259V50.6686C56.9855 51.2349 57.4446 51.694 58.0109 51.694C58.5772 51.694 59.0363 51.2349 59.0363 50.6686V41.2259L61.6361 38.6261C61.7743 38.6964 61.9195 38.7557 62.0724 38.7993L66.3074 40.0093C67.274 40.2855 67.9492 41.1806 67.9492 42.186V50.6686C67.9492 51.2349 68.4083 51.694 68.9746 51.694C69.5409 51.694 70 51.2349 70 50.6686V42.186C70 40.2693 68.7132 38.5633 66.8708 38.0368ZM15.2071 36.2291L15.2072 35.0062C16.4001 34.1849 17.3485 33.0297 17.9144 31.6636C18.0373 32.5465 18.2187 33.3829 18.4982 34.1133C18.0898 34.6108 17.1232 35.5393 15.2071 36.2291ZM4.24102 25.5242C4.37199 23.6818 5.10822 21.984 6.31408 20.7434C7.53074 19.4916 9.15688 18.8023 10.8929 18.8023C12.629 18.8023 14.255 19.4916 15.4718 20.7434C16.6776 21.984 17.4139 23.6818 17.5448 25.5242C17.5853 26.0953 17.6075 26.7611 17.6307 27.466C17.6328 27.5266 17.6348 27.588 17.6369 27.649C16.5212 25.9301 14.7983 24.6634 12.5721 23.9481C10.5154 23.2874 8.74658 23.3282 8.67193 23.3301C8.40342 23.3377 8.14857 23.45 7.96223 23.6434L6.11215 25.5621C5.71908 25.9698 5.73084 26.6189 6.13854 27.012C6.54623 27.4051 7.19537 27.3932 7.58844 26.9856L9.12789 25.3891C10.4537 25.4539 14.7189 25.95 16.3777 29.6027C15.9603 32.2945 13.6467 34.2935 10.8932 34.2935C7.83125 34.2935 5.34037 31.8025 5.34037 28.7407C5.34037 28.1744 4.88127 27.7153 4.31498 27.7153C4.25756 27.7153 4.2015 27.7211 4.14668 27.7303C4.14969 27.6421 4.15256 27.5538 4.15557 27.4664C4.1784 26.7614 4.20041 26.0954 4.24102 25.5242ZM3.2874 34.113C3.5674 33.381 3.74896 32.5427 3.87188 31.6577C4.43734 33.0135 5.38439 34.171 6.57822 34.9968V36.2257C4.6602 35.5356 3.69811 34.6155 3.2874 34.113ZM9.33338 39.0007L8.37977 38.0945C8.54068 37.7931 8.62914 37.4513 8.62914 37.0932V36.0003C9.34445 36.2238 10.1049 36.3444 10.8929 36.3444C11.68 36.3444 12.44 36.2233 13.1566 36.001L13.1564 37.0931C13.1564 37.4513 13.2448 37.7932 13.4058 38.0948L12.4523 39.0009C11.5778 39.8318 10.2077 39.8317 9.33338 39.0007ZM25.0746 19.594V17.05C25.0746 16.8956 25.0398 16.7432 24.9726 16.6041C24.3128 15.2378 23.9783 13.788 23.9783 12.295V10.1022C23.9783 5.83124 27.453 2.35667 31.7238 2.35667H46.0477V12.295C46.0477 13.788 45.7131 15.2378 45.0533 16.6041C44.9862 16.7432 44.9513 16.8956 44.9513 17.05V19.9696C44.9513 22.7465 43.835 25.3221 41.808 27.2221C41.555 27.4592 41.2923 27.6815 41.0208 27.8886C41.0148 27.8927 41.0091 27.8972 41.0032 27.9015C39.1043 29.3432 36.7784 30.0439 34.3495 29.8865C29.1486 29.5498 25.0746 25.0287 25.0746 19.594ZM34.2167 31.9329C34.487 31.9504 34.7557 31.959 35.0235 31.959C36.9842 31.959 38.8712 31.4903 40.5658 30.6007V32.4738L35.013 36.2693L29.4602 32.4738V30.5597C30.8969 31.3364 32.5057 31.8222 34.2167 31.9329ZM30.8481 40.2264C30.841 40.2335 30.8245 40.2503 30.791 40.2468C30.7576 40.2435 30.7445 40.2239 30.7389 40.2155L27.5499 35.4319L28.5761 34.3536L33.4139 37.6605L30.8481 40.2264ZM39.2871 40.2156C39.2815 40.2241 39.2684 40.2436 39.235 40.2469C39.2015 40.2511 39.1851 40.2335 39.1779 40.2265L36.612 37.6607L41.4498 34.3538L42.4762 35.4321L39.2871 40.2156ZM52.458 28.4649V26.548C52.458 26.3887 52.421 26.2317 52.3497 26.0894L51.7163 24.8226C51.4843 24.3584 51.3617 23.8389 51.3617 23.3199V23.2588C51.3617 20.8014 53.3609 18.8023 55.8182 18.8023H64.6602V23.0611C64.6602 23.7493 64.4975 24.4385 64.1897 25.0542L63.6721 26.0894C63.6009 26.2319 63.5638 26.3887 63.5638 26.548V28.7407C63.5638 30.2555 62.965 31.6708 61.8777 32.726C60.7909 33.7807 59.3552 34.3376 57.8394 34.2909C54.8721 34.2019 52.458 31.5882 52.458 28.4649ZM57.7778 36.3407C57.8568 36.3432 57.9351 36.3443 58.0139 36.3443C58.7921 36.3443 59.5517 36.2267 60.2746 36.0023V36.4152C60.2746 36.6198 60.3004 36.8202 60.3487 37.0128L58.0109 39.3506L55.6839 37.0238C55.7245 36.8393 55.7475 36.6374 55.7473 36.4147L55.7472 35.982C56.3929 36.1939 57.0735 36.3197 57.7778 36.3407Z" fill="#777C8B"/>
<path d="M64.5891 43.0644C64.0228 43.0644 63.5637 43.5235 63.5637 44.0898V50.668C63.5637 51.2343 64.0228 51.6934 64.5891 51.6934C65.1554 51.6934 65.6145 51.2343 65.6145 50.668V44.0898C65.6145 43.5235 65.1554 43.0644 64.5891 43.0644Z" fill="#777C8B"/>
<path d="M5.41089 44.4198C4.8446 44.4198 4.3855 44.8789 4.3855 45.4452V50.668C4.3855 51.2343 4.8446 51.6934 5.41089 51.6934C5.97718 51.6934 6.43628 51.2343 6.43628 50.668V45.4452C6.43628 44.8789 5.97718 44.4198 5.41089 44.4198Z" fill="#777C8B"/>
<path d="M28.3637 12.1255C28.3637 12.0906 28.3867 12.0608 28.4173 12.0562C29.739 11.857 32.3616 11.5496 35.0789 11.7308C38.2765 11.9437 40.5925 12.7463 41.9626 14.1165C42.363 14.517 43.0123 14.517 43.4126 14.1165C43.8131 13.7161 43.8131 13.0668 43.4126 12.6665C39.5345 8.78834 31.4203 9.52976 28.1115 10.0285C27.0693 10.1856 26.3129 11.0676 26.3129 12.1256V14.4879C26.3129 15.0542 26.772 15.5133 27.3383 15.5133C27.9046 15.5133 28.3637 15.0542 28.3637 14.4879V12.1255Z" fill="#777C8B"/>
<path d="M22.9529 45.2572C22.3866 45.2572 21.9275 45.7163 21.9275 46.2826V50.6682C21.9275 51.2344 22.3866 51.6935 22.9529 51.6935C23.5192 51.6935 23.9783 51.2344 23.9783 50.6682V46.2826C23.9783 45.7163 23.5192 45.2572 22.9529 45.2572Z" fill="#777C8B"/>
<path d="M47.0731 45.2572C46.5068 45.2572 46.0477 45.7163 46.0477 46.2826V50.6682C46.0477 51.2344 46.5068 51.6935 47.0731 51.6935C47.6393 51.6935 48.0984 51.2344 48.0984 50.6682V46.2826C48.0984 45.7163 47.6393 45.2572 47.0731 45.2572Z" fill="#777C8B"/>
</svg>
