<svg width="15" height="16" viewBox="0 0 15 16" fill="none" xmlns="http://www.w3.org/2000/svg">
<path d="M1.7045 3.99999H3.30132C3.34286 3.99998 3.38297 3.98514 3.4141 3.95825C3.44524 3.93137 3.46526 3.89429 3.47041 3.85399L3.73155 1.81266C3.7367 1.77236 3.75672 1.73528 3.78786 1.7084C3.819 1.68152 3.8591 1.66667 3.90064 1.66666H11.0993C11.1408 1.66667 11.1809 1.68152 11.2121 1.7084C11.2432 1.73528 11.2632 1.77236 11.2684 1.81266L11.5295 3.85399C11.5347 3.89429 11.5547 3.93137 11.5858 3.95825C11.617 3.98514 11.6571 3.99998 11.6986 3.99999H13.2954C13.346 4 13.3959 3.98901 13.4416 3.96783C13.4873 3.94664 13.5275 3.91579 13.5595 3.8775C13.5915 3.83921 13.6144 3.79445 13.6265 3.74645C13.6386 3.69845 13.6396 3.64843 13.6295 3.59999L13.0581 0.839998C13.0172 0.607571 12.8945 0.396434 12.7112 0.243063C12.528 0.0896926 12.2957 0.00372067 12.0545 0L2.94541 0C2.70496 0.00341857 2.47325 0.0887062 2.29019 0.241177C2.10712 0.393648 1.98415 0.603759 1.94246 0.835331L1.37041 3.59999C1.3603 3.64843 1.36133 3.69845 1.37344 3.74645C1.38554 3.79445 1.40841 3.83921 1.44039 3.8775C1.47237 3.91579 1.51266 3.94664 1.55834 3.96783C1.60402 3.98901 1.65395 4 1.7045 3.99999Z" fill="#5D6174"/>
<path d="M13.9773 4.66675H1.02273C0.751483 4.66675 0.491348 4.7721 0.29955 4.95964C0.107751 5.14718 0 5.40153 0 5.66675C0 5.93196 0.107751 6.18631 0.29955 6.37385C0.491348 6.56139 0.751483 6.66674 1.02273 6.66674H1.64318L2.4675 15.1054C2.49204 15.352 2.61018 15.5806 2.79861 15.7462C2.98704 15.9118 3.2321 16.0024 3.48545 16.0001H11.4675C11.7153 16.0003 11.9547 15.9125 12.1413 15.7531C12.3279 15.5937 12.449 15.3735 12.482 15.1334L13.5852 6.66674H13.9773C14.2485 6.66674 14.5087 6.56139 14.7004 6.37385C14.8922 6.18631 15 5.93196 15 5.66675C15 5.40153 14.8922 5.14718 14.7004 4.95964C14.5087 4.7721 14.2485 4.66675 13.9773 4.66675Z" fill="#5D6174"/>
</svg>
