<svg width="70" height="70" viewBox="0 0 70 70" fill="none" xmlns="http://www.w3.org/2000/svg">
<path d="M66.6129 6.77419H64.3548V5.64516C64.3548 3.77774 62.8352 2.25806 60.9677 2.25806H48.5484C48.5484 1.01274 47.5356 0 46.2903 0H23.7097C22.4644 0 21.4516 1.01274 21.4516 2.25806H9.03226C7.16484 2.25806 5.64516 3.77774 5.64516 5.64516V6.77419H3.3871C1.51968 6.77419 0 8.29387 0 10.1613V16.9355V22.5806C0 24.6795 1.44516 26.4318 3.3871 26.9365V60.9677C1.51968 60.9677 0 62.4874 0 64.3548V68.871C0 69.4953 0.505806 70 1.12903 70H68.871C69.4942 70 70 69.4953 70 68.871V64.3548C70 62.4874 68.4803 60.9677 66.6129 60.9677V26.9365C68.5548 26.4318 70 24.6795 70 22.5806V16.9355V10.1613C70 8.29387 68.4803 6.77419 66.6129 6.77419ZM60.9677 4.51613C61.5898 4.51613 62.0968 5.02194 62.0968 5.64516V6.77419H48.5484V4.51613H60.9677ZM23.7097 2.25806H46.2903L46.2915 11.2903H23.7097V2.25806ZM7.90323 5.64516C7.90323 5.02194 8.41016 4.51613 9.03226 4.51613H21.4516V6.77419H7.90323V5.64516ZM3.3871 9.03226H21.4516V11.2903C21.4516 12.5356 22.4644 13.5484 23.7097 13.5484H46.2903C47.5356 13.5484 48.5484 12.5356 48.5484 11.2903V9.03226H66.6129C67.235 9.03226 67.7419 9.53806 67.7419 10.1613V15.8065H62.0968H55.3226H48.5484H41.7742H35H28.2258H21.4516H14.6774H7.90323H2.25806V10.1613C2.25806 9.53806 2.765 9.03226 3.3871 9.03226ZM56.4516 18.0645H60.9677V22.5806C60.9677 23.826 59.955 24.8387 58.7097 24.8387C57.4644 24.8387 56.4516 23.826 56.4516 22.5806V18.0645ZM49.6774 18.0645H54.1936V22.5806C54.1936 23.826 53.1808 24.8387 51.9355 24.8387C50.6902 24.8387 49.6774 23.826 49.6774 22.5806V18.0645ZM42.9032 18.0645H47.4194V22.5806C47.4194 23.826 46.4066 24.8387 45.1613 24.8387C43.916 24.8387 42.9032 23.826 42.9032 22.5806V18.0645ZM36.129 18.0645H40.6452V22.5806C40.6452 23.826 39.6324 24.8387 38.3871 24.8387C37.1418 24.8387 36.129 23.826 36.129 22.5806V18.0645ZM29.3548 18.0645H33.871V22.5806C33.871 23.826 32.8582 24.8387 31.6129 24.8387C30.3676 24.8387 29.3548 23.826 29.3548 22.5806V18.0645ZM22.5806 18.0645H27.0968V22.5806C27.0968 23.826 26.084 24.8387 24.8387 24.8387C23.5934 24.8387 22.5806 23.826 22.5806 22.5806V18.0645ZM15.8065 18.0645H20.3226V22.5806C20.3226 23.826 19.3098 24.8387 18.0645 24.8387C16.8192 24.8387 15.8065 23.826 15.8065 22.5806V18.0645ZM9.03226 18.0645H13.5484V22.5806C13.5484 23.826 12.5356 24.8387 11.2903 24.8387C10.045 24.8387 9.03226 23.826 9.03226 22.5806V18.0645ZM2.25806 22.5806V18.0645H6.77419V22.5806C6.77419 23.826 5.76145 24.8387 4.51613 24.8387C3.27081 24.8387 2.25806 23.826 2.25806 22.5806ZM5.64516 36.129H37.2581V51.9355H5.64516V36.129ZM37.2581 33.871H5.64516V31.6129H37.2581V33.871ZM5.64516 54.1936H37.2581V60.9677H5.64516V54.1936ZM67.7419 64.3548V67.7419H2.25806V64.3548C2.25806 63.7316 2.765 63.2258 3.3871 63.2258H66.6129C67.235 63.2258 67.7419 63.7316 67.7419 64.3548ZM59.8387 33.871H44.0323V31.6129H59.8387V33.871ZM44.0323 36.129H59.8387V60.9677H44.0323V36.129ZM62.0968 60.9677V30.4839C62.0968 29.8595 61.591 29.3548 60.9677 29.3548H42.9032C42.28 29.3548 41.7742 29.8595 41.7742 30.4839V60.9677H39.5161V30.4839C39.5161 29.8595 39.0103 29.3548 38.3871 29.3548H5.64516V26.9365C6.5371 26.705 7.315 26.2105 7.90323 25.5365C8.73194 26.4848 9.93548 27.0968 11.2903 27.0968C12.6452 27.0968 13.8487 26.4848 14.6774 25.5365C15.5061 26.4848 16.7097 27.0968 18.0645 27.0968C19.4194 27.0968 20.6229 26.4848 21.4516 25.5365C22.2803 26.4848 23.4839 27.0968 24.8387 27.0968C26.1935 27.0968 27.3971 26.4848 28.2258 25.5365C29.0545 26.4848 30.2581 27.0968 31.6129 27.0968C32.9677 27.0968 34.1713 26.4848 35 25.5365C35.8287 26.4848 37.0323 27.0968 38.3871 27.0968C39.7419 27.0968 40.9455 26.4848 41.7742 25.5365C42.6029 26.4848 43.8064 27.0968 45.1613 27.0968C46.5161 27.0968 47.7197 26.4848 48.5484 25.5365C49.3771 26.4848 50.5806 27.0968 51.9355 27.0968C53.2903 27.0968 54.4939 26.4848 55.3226 25.5365C56.1513 26.4848 57.3548 27.0968 58.7097 27.0968C60.0645 27.0968 61.2681 26.4848 62.0968 25.5365C62.685 26.2105 63.4629 26.705 64.3548 26.9365V60.9677H62.0968ZM67.7419 22.5806C67.7419 23.826 66.7292 24.8387 65.4839 24.8387C64.2385 24.8387 63.2258 23.826 63.2258 22.5806V18.0645H67.7419V22.5806Z" fill="#CCCCCC"/>
<path d="M9.35645 47.7471L17.2579 39.8453L18.8543 41.4417L10.9529 49.3436L9.35645 47.7471Z" fill="#CCCCCC"/>
<path d="M19.5166 47.7471L27.4183 39.8455L29.0147 41.4419L21.1131 49.3435L19.5166 47.7471Z" fill="#CCCCCC"/>
<path d="M40.6452 3.38672H29.3549C27.4875 3.38672 25.9678 4.9064 25.9678 6.77382C25.9678 8.64123 27.4875 10.1609 29.3549 10.1609H40.6452C42.5126 10.1609 44.0323 8.64123 44.0323 6.77382C44.0323 4.9064 42.5126 3.38672 40.6452 3.38672ZM40.6452 7.90285H29.3549C28.7328 7.90285 28.2258 7.39704 28.2258 6.77382C28.2258 6.15059 28.7328 5.64478 29.3549 5.64478H40.6452C41.2673 5.64478 41.7742 6.15059 41.7742 6.77382C41.7742 7.39704 41.2673 7.90285 40.6452 7.90285Z" fill="#CCCCCC"/>
<path d="M47.4202 48.5484C48.6673 48.5484 49.6782 47.5374 49.6782 46.2903C49.6782 45.0432 48.6673 44.0322 47.4202 44.0322C46.1731 44.0322 45.1621 45.0432 45.1621 46.2903C45.1621 47.5374 46.1731 48.5484 47.4202 48.5484Z" fill="#CCCCCC"/>
</svg>
