<svg width="13" height="13" viewBox="0 0 13 13" fill="none" xmlns="http://www.w3.org/2000/svg">
<mask id="mask0" mask-type="alpha" maskUnits="userSpaceOnUse" x="0" y="0" width="13" height="13">
<path fill-rule="evenodd" clip-rule="evenodd" d="M6.5 13C10.0898 13 13 10.0898 13 6.5C13 2.91016 10.0898 0 6.5 0C2.91016 0 0 2.91016 0 6.5C0 10.0898 2.91016 13 6.5 13ZM6.5 11C8.98535 11 11 8.98535 11 6.5C11 4.01465 8.98535 2 6.5 2C4.01465 2 2 4.01465 2 6.5C2 8.98535 4.01465 11 6.5 11Z" fill="#EFF1F3"/>
</mask>
<g mask="url(#mask0)">
<rect width="13" height="13" fill="#DFE2E7"/>
<path d="M6.50003 6.50006V13.0001H2.87294e-05L-0.382324 -0.382295L14.5294 -0.764648V9.94123L6.50003 6.50006Z" fill="#5D6174"/>
</g>
</svg>
