<svg width="21" height="23" viewBox="0 0 21 23" fill="none" xmlns="http://www.w3.org/2000/svg">
<path d="M15.1563 4.84375C13.7326 3.38541 12.0139 2.65625 10 2.65625C7.9861 2.65625 6.25869 3.37673 4.81771 4.81771C3.37673 6.25869 2.65625 7.9861 2.65625 10C2.65625 12.0139 3.37673 13.7413 4.81771 15.1823C6.25869 16.6233 7.9861 17.3438 10 17.3438C12.0139 17.3438 13.7413 16.6233 15.1823 15.1823C16.6233 13.7413 17.3438 12.0139 17.3438 10C17.3438 7.9861 16.6146 6.26737 15.1563 4.84375ZM2.91667 2.91667C4.86112 0.972213 7.22221 0 10 0C12.7778 0 15.1389 0.972213 17.0833 2.91667C19.0278 4.86112 20 7.22221 20 10C20 12.7778 19.0278 15.1389 17.0833 17.0833C15.1389 19.0278 12.7778 20 10 20C7.22221 20 4.86112 19.0278 2.91667 17.0833C0.972213 15.1389 0 12.7778 0 10C0 7.22221 0.972213 4.86112 2.91667 2.91667ZM15.1042 6.30208C15.3472 6.54514 15.3472 6.78819 15.1042 7.03125L10.3646 11.7708C10.2604 11.875 10.1389 11.9271 10 11.9271C9.86111 11.9271 9.73958 11.875 9.63542 11.7708L6.40625 8.54167C6.30208 8.4375 6.25 8.31597 6.25 8.17708C6.25 8.00347 6.30208 7.86458 6.40625 7.76042L7.44792 6.71875C7.69097 6.47569 7.93403 6.47569 8.17708 6.71875L10 8.59375L13.3333 5.26042C13.5764 5.01736 13.8194 5.01736 14.0625 5.26042L15.1042 6.30208Z" fill="#1AACFF"/>
<path d="M19.8284 13.1261C18.2664 11.6246 15.7338 11.6246 14.1716 13.1261C12.7641 14.4791 12.6056 17.0267 13.8001 18.5576L17 23L20.1999 18.5576C21.3944 17.0267 21.2359 14.4791 19.8284 13.1261ZM17.039 17.0769C16.3097 17.0769 15.7186 16.5087 15.7186 15.8076C15.7186 15.1066 16.3097 14.5384 17.039 14.5384C17.7682 14.5384 18.3593 15.1066 18.3593 15.8076C18.3593 16.5087 17.7682 17.0769 17.039 17.0769Z" fill="#1AACFF"/>
</svg>
