<svg width="25" height="25" viewBox="0 0 25 25" fill="none" xmlns="http://www.w3.org/2000/svg">
<g clip-path="url(#clip0)">
<path d="M19.0699 12.5003L24.5461 7.0256C25.1516 6.42008 25.1516 5.44127 24.5461 4.83575L20.1647 0.454385C19.5592 -0.151136 18.5804 -0.151136 17.9749 0.454385L12.5002 5.93064L7.02552 0.454385C6.42 -0.151136 5.4412 -0.151136 4.83567 0.454385L0.454384 4.83568C-0.151136 5.4412 -0.151136 6.42001 0.454384 7.02553L5.93063 12.5002L0.454384 17.9749C-0.151136 18.5804 -0.151136 19.5593 0.454384 20.1648L4.83567 24.5461C5.4412 25.1516 6.42 25.1516 7.02552 24.5461L12.5002 19.0698L17.9748 24.5461C18.5803 25.1516 19.5592 25.1516 20.1647 24.5461L24.546 20.1648C25.1515 19.5593 25.1515 18.5804 24.546 17.9749L19.0699 12.5003Z" fill="white"/>
</g>
<defs>
<clipPath id="clip0">
<rect width="25" height="25" fill="white"/>
</clipPath>
</defs>
</svg>
