<svg width="24" height="23" viewBox="0 0 24 23" fill="none" xmlns="http://www.w3.org/2000/svg">
<path d="M11.7607 0C10.1713 0 8.67928 0.300268 7.28462 0.900814C5.88997 1.50136 4.67453 2.32027 3.63828 3.35758C2.60203 4.39488 1.78005 5.61156 1.17233 7.00763C0.564601 8.4037 0.260742 9.89725 0.260742 11.4883C0.260742 13.0794 0.564601 14.5729 1.17233 15.969C1.78005 17.365 2.60203 18.5817 3.63828 19.619C4.67453 20.6563 5.88997 21.4791 7.28462 22.0875C8.67928 22.6958 10.1713 23 11.7607 23C13.3502 23 14.8422 22.6958 16.2369 22.0875C17.6315 21.4791 18.847 20.6563 19.8832 19.619C20.9195 18.5817 21.7414 17.365 22.3492 15.969C22.9569 14.5729 23.2607 13.0794 23.2607 11.4883C23.2607 9.89725 22.9569 8.4037 22.3492 7.00763C21.7414 5.61156 20.9195 4.39488 19.8832 3.35758C18.847 2.32027 17.6315 1.50136 16.2369 0.900814C14.8422 0.300268 13.3502 0 11.7607 0ZM11.7607 20.59C10.4985 20.59 9.31817 20.3522 8.21958 19.8764C7.121 19.4006 6.15878 18.7533 5.3329 17.9344C4.50701 17.1155 3.85644 16.1523 3.38117 15.0448C2.9059 13.9373 2.66826 12.7518 2.66826 11.4883C2.66826 10.2404 2.9059 9.06274 3.38117 7.95524C3.85644 6.84774 4.50701 5.88064 5.3329 5.05392C6.15878 4.22719 7.121 3.57596 8.21958 3.1002C9.31817 2.62445 10.4985 2.38657 11.7607 2.38657V11.4883L19.8949 7.41709C20.191 8.04103 20.4247 8.69227 20.5961 9.3708C20.7675 10.0493 20.8532 10.7552 20.8532 11.4883C20.8532 12.7518 20.6156 13.9373 20.1403 15.0448C19.665 16.1523 19.0145 17.1155 18.1886 17.9344C17.3627 18.7533 16.4005 19.4006 15.3019 19.8764C14.2033 20.3522 13.0229 20.59 11.7607 20.59Z" fill="white"/>
</svg>
