<svg width="32" height="32" viewBox="0 0 32 32" fill="none" xmlns="http://www.w3.org/2000/svg">
<path d="M0 16C0 7.16344 7.16344 0 16 0C24.8366 0 32 7.16344 32 16C32 24.8366 24.8366 32 16 32C7.16344 32 0 24.8366 0 16Z" fill="#1AACFF"/>

<path fill-rule="evenodd" clip-rule="evenodd" d="M17.7272 17.4545H22.0909C22.8942 17.4545 23.5454 16.8033 23.5454 16C23.5454 15.1967 22.8942 14.5455 22.0909 14.5455H17.7272V10.1818C17.7272 9.3785 17.076 8.72729 16.2727 8.72729C15.4694 8.72729 14.8182 9.3785 14.8182 10.1818V14.5455H10.4545C9.6512 14.5455 9 15.1967 9 16C9 16.8033 9.6512 17.4545 10.4545 17.4545H14.8182V21.8182C14.8182 22.6215 15.4694 23.2727 16.2727 23.2727C17.076 23.2727 17.7272 22.6215 17.7272 21.8182V17.4545Z" fill="white"/>
</svg>
