<svg width="14" height="12" viewBox="0 0 14 12" fill="none" xmlns="http://www.w3.org/2000/svg">
<path d="M0.213578 6.78908C0.0594127 6.96865 -0.0156029 7.19724 0.00270801 7.43351C0.0210189 7.66978 0.129703 7.88478 0.309858 8.03836L4.68261 11.7868C4.84505 11.9256 5.04647 12 5.25793 12C5.28392 12 5.3105 11.9988 5.33708 11.9965C5.5763 11.9752 5.7919 11.8612 5.94429 11.6763L13.4234 2.57345C13.5734 2.39034 13.6437 2.15998 13.6207 1.9243C13.5971 1.68862 13.4842 1.47598 13.3011 1.32536L11.9319 0.200719C11.5545 -0.108794 10.9957 -0.0544521 10.685 0.322988L4.92892 7.32896L2.61585 5.34725C2.2449 5.03065 1.68495 5.07259 1.36657 5.44353L0.213578 6.78908Z" fill="#2F344C"/>
</svg>
