<svg width="100" height="100" viewBox="0 0 100 100" fill="none" xmlns="http://www.w3.org/2000/svg">
<circle cx="50" cy="50" r="50" fill="white"/>
<circle cx="50" cy="50" r="47.5" stroke="#7BABF1" stroke-opacity="0.3" stroke-width="5"/>
<circle cx="50" cy="50" r="40" fill="#7BABF1" fill-opacity="0.3"/>
<path d="M55.6368 75H44.363C43.5407 75 42.8518 74.3776 42.7686 73.5594L42.1639 67.6048C40.8546 67.038 39.6149 66.3316 38.4608 65.4947L32.8903 67.97C32.1448 68.3012 31.2697 68.0197 30.8571 67.3161L25.2202 57.7026C24.7994 56.9848 24.9977 56.0645 25.6768 55.5839L30.6179 52.0865C30.4655 50.7007 30.4655 49.2994 30.6179 47.9135L25.6768 44.4161C24.9977 43.9355 24.7994 43.0152 25.2202 42.2974L30.8571 32.684C31.2696 31.9803 32.1449 31.6988 32.8903 32.0301L38.4608 34.5054C39.615 33.6685 40.8548 32.962 42.1639 32.3953L42.7686 26.4407C42.8518 25.6224 43.5407 25 44.363 25H55.6368C56.4591 25 57.148 25.6224 57.2311 26.4406L57.836 32.3952C59.1452 32.962 60.385 33.6684 61.5391 34.5053L67.1096 32.03C67.8549 31.6987 68.7303 31.9803 69.1427 32.6839L74.7795 42.2973C75.2004 43.0151 75.0021 43.9354 74.323 44.416L69.3819 47.9134C69.5342 49.2993 69.5342 50.7006 69.3819 52.0865L74.323 55.5839C75.0021 56.0645 75.2005 56.9848 74.7795 57.7026L69.1427 67.316C68.7302 68.0197 67.855 68.3012 67.1096 67.9699L61.5391 65.4946C60.385 66.3314 59.1452 67.0379 57.836 67.6047L57.2311 73.5593C57.1481 74.3776 56.4591 75 55.6368 75ZM45.8111 71.7949H54.1887L54.7449 66.3185C54.8065 65.7115 55.2074 65.1922 55.779 64.979C57.4241 64.3651 58.9506 63.4962 60.3162 62.3963C60.7841 62.0196 61.4233 61.9359 61.9722 62.1799L67.1022 64.4595L71.2707 57.3503L66.7368 54.1412C66.2364 53.7871 65.982 53.1784 66.0813 52.5735C66.3606 50.8723 66.3606 49.1279 66.0813 47.4267C65.9819 46.8218 66.2364 46.2131 66.7368 45.859L71.2707 42.6499L67.1023 35.5406L61.9723 37.8202C61.4235 38.0642 60.7842 37.9807 60.3163 37.6038C58.9507 36.504 57.4242 35.6349 55.7791 35.0212C55.2075 34.8078 54.8067 34.2886 54.745 33.6816L54.1888 28.2051H45.8112L45.255 33.6815C45.1933 34.2885 44.7924 34.8078 44.2209 35.021C42.5759 35.6348 41.0493 36.5037 39.6837 37.6037C39.2159 37.9806 38.5765 38.0642 38.0277 37.8201L32.8976 35.5406L28.7291 42.6498L33.263 45.8589C33.7634 46.213 34.0178 46.8217 33.9185 47.4266C33.6393 49.1279 33.6393 50.8722 33.9185 52.5735C34.0179 53.1784 33.7634 53.787 33.263 54.1412L28.7291 57.3503L32.8976 64.4595L38.0276 62.1799C38.5764 61.9359 39.2158 62.0196 39.6836 62.3963C41.0493 63.4963 42.5758 64.3652 44.2208 64.979C44.7924 65.1923 45.1932 65.7115 45.2549 66.3185L45.8111 71.7949Z" fill="#7BABF1"/>
<path d="M56.1964 44.3843C55.4283 43.5387 54.5118 42.8686 53.4721 42.3927L54.8061 39.4784C56.2419 40.1357 57.5079 41.0612 58.5688 42.2294L56.1964 44.3843Z" fill="#7BABF1"/>
<path d="M44.1114 59.9567C42.9384 59.2623 41.9067 58.3765 41.0448 57.3242L43.5245 55.2935C44.148 56.0548 44.8949 56.6958 45.7443 57.1987L44.1114 59.9567Z" fill="#7BABF1"/>
<path d="M41.7079 48.9091C42.2938 44.4173 46.5224 41.1521 51.0127 41.6979L51.3991 38.5162C45.2643 37.7709 39.4654 42.1671 38.5556 48.2882L37.3761 47.3046L35.3233 49.7661L39.156 52.9625C39.679 53.3986 40.443 53.4536 41.0232 53.096L45.2449 50.4941L43.5633 47.7656L41.7079 48.9091Z" fill="#7BABF1"/>
<path d="M64.677 50.2348L60.8443 47.0385C60.3153 46.5973 59.5635 46.5435 58.9771 46.9049L54.7555 49.5068L56.4372 52.2354L58.2925 51.0919C57.6867 55.7365 53.1977 59.0359 48.5851 58.2439L48.0426 61.4028C54.3463 62.4854 60.5036 58.0452 61.4448 51.7127L62.6242 52.6963L64.677 50.2348Z" fill="#7BABF1"/>
</svg>
