<svg width="100" height="100" viewBox="0 0 100 100" fill="none" xmlns="http://www.w3.org/2000/svg">
<circle cx="50" cy="50" r="50" fill="white"/>
<circle cx="50" cy="50" r="47.5" stroke="#FF4D61" stroke-opacity="0.3" stroke-width="5"/>
<circle cx="50" cy="50" r="40" fill="#FF4D61" fill-opacity="0.3"/>
<path d="M64.7461 60.3516C61.2921 60.3516 57.4933 61.6289 55.5782 64.3516L45.4805 62.3632C45.6448 60.7015 45.0696 59.0251 43.684 57.6079L49.9558 53.1789C51.6677 54.0313 53.7179 54.4922 55.8594 54.4922C60.7338 54.4922 66.1133 51.8259 66.1133 47.168C66.1133 42.9545 61.6537 40.3502 57.3242 39.9165V36.7188H69.043V25H54.3945V39.9165C50.0598 40.3507 45.6055 42.9712 45.6055 47.168C45.6055 48.7118 46.2428 50.163 47.4293 51.3765L41.1575 55.8055C39.4456 54.953 37.3954 54.4922 35.2539 54.4922C30.3795 54.4922 25 57.1585 25 61.8164C25 66.4762 30.3826 69.1406 35.2539 69.1406C38.7361 69.1406 42.5185 67.8465 44.4218 65.1406L54.5195 67.129C54.0293 72.0857 59.6736 75 64.7461 75C69.6205 75 75 72.3337 75 67.6758C75 63.016 69.6174 60.3516 64.7461 60.3516ZM57.3242 27.9297H66.1133V33.7891H57.3242V27.9297ZM54.3945 42.866V47.168H57.3242V42.866C60.6209 43.2862 63.1836 45.0858 63.1836 47.168C63.1836 49.5501 59.8295 51.5625 55.8594 51.5625C51.8893 51.5625 48.5352 49.5501 48.5352 47.168C48.5352 45.0858 51.0979 43.2862 54.3945 42.866ZM35.2539 66.2109C31.2838 66.2109 27.9297 64.1985 27.9297 61.8164C27.9297 59.4343 31.2838 57.4219 35.2539 57.4219C39.224 57.4219 42.5781 59.4343 42.5781 61.8164C42.5781 64.1985 39.224 66.2109 35.2539 66.2109ZM64.7461 72.0703C60.776 72.0703 57.4219 70.0579 57.4219 67.6758C57.4219 65.2937 60.776 63.2812 64.7461 63.2812C68.7162 63.2812 72.0703 65.2937 72.0703 67.6758C72.0703 70.0579 68.7162 72.0703 64.7461 72.0703Z" fill="#FF4D61"/>
</svg>
