<svg width="100" height="100" viewBox="0 0 100 100" fill="none" xmlns="http://www.w3.org/2000/svg">
<circle cx="50" cy="50" r="50" fill="white"/>
<circle cx="50" cy="50" r="47.5" stroke="#1ACA8E" stroke-opacity="0.3" stroke-width="5"/>
<circle cx="50" cy="50" r="40" fill="#1ACA8E" fill-opacity="0.3"/>
<g clip-path="url(#clip0)">
<path d="M43.75 52.0828H29.1667C26.8646 52.0828 25 53.9473 25 56.2494V70.8328C25 73.1348 26.8646 74.9994 29.1667 74.9994H43.75C46.0521 74.9994 47.9167 73.1348 47.9167 70.8328V56.2494C47.9167 53.9473 46.0521 52.0828 43.75 52.0828ZM41.6667 70.8328H31.25C30.1021 70.8328 29.1667 69.8994 29.1667 68.7494V60.4161H43.75V68.7494C43.75 69.8994 42.8146 70.8328 41.6667 70.8328Z" fill="#1ACA8E"/>
<path d="M70.8336 52.0828H56.2503C53.9482 52.0828 52.0836 53.9473 52.0836 56.2494V70.8328C52.0836 73.1348 53.9482 74.9994 56.2503 74.9994H70.8336C73.1357 74.9994 75.0003 73.1348 75.0003 70.8328V56.2494C75.0003 53.9473 73.1357 52.0828 70.8336 52.0828ZM68.7503 70.8328H58.3336C57.1857 70.8328 56.2503 69.8994 56.2503 68.7494V60.4161H70.8336V68.7494C70.8336 69.8994 69.8982 70.8328 68.7503 70.8328Z" fill="#1ACA8E"/>
<path d="M43.75 25H29.1667C26.8646 25 25 26.8646 25 29.1667V43.75C25 46.0521 26.8646 47.9167 29.1667 47.9167H43.75C46.0521 47.9167 47.9167 46.0521 47.9167 43.75V29.1667C47.9167 26.8646 46.0521 25 43.75 25ZM41.6667 43.75H31.25C30.1021 43.75 29.1667 42.8167 29.1667 41.6667V33.3333H43.75V41.6667C43.75 42.8167 42.8146 43.75 41.6667 43.75Z" fill="#1ACA8E"/>
<path d="M70.8336 25H56.2503C53.9482 25 52.0836 26.8646 52.0836 29.1667V43.75C52.0836 46.0521 53.9482 47.9167 56.2503 47.9167H70.8336C73.1357 47.9167 75.0003 46.0521 75.0003 43.75V29.1667C75.0003 26.8646 73.1357 25 70.8336 25ZM68.7503 43.75H58.3336C57.1857 43.75 56.2503 42.8167 56.2503 41.6667V33.3333H70.8336V41.6667C70.8336 42.8167 69.8982 43.75 68.7503 43.75Z" fill="#1ACA8E"/>
</g>
<defs>
<clipPath id="clip0">
<rect width="50" height="50" fill="white" transform="translate(25 25)"/>
</clipPath>
</defs>
</svg>
