<svg width="31" height="37" viewBox="0 0 31 37" fill="none" xmlns="http://www.w3.org/2000/svg">
<path d="M24 26L28.75 21.25C29.7165 20.2835 29.7165 18.7165 28.75 17.75V17.75C27.7835 16.7835 26.2165 16.7835 25.25 17.75L23.5 19.5" stroke="#1ACA8E" stroke-width="2"/>
<path d="M24 19L27.75 15.25C28.7165 14.2835 28.7165 12.7165 27.75 11.75V11.75C26.7835 10.7835 25.2165 10.7835 24.25 11.75L22.5 13.5" stroke="#1ACA8E" stroke-width="2"/>
<path d="M23 13L26.75 9.25C27.7165 8.2835 27.7165 6.7165 26.75 5.75V5.75C25.7835 4.7835 24.2165 4.7835 23.25 5.75L21.5 7.5" stroke="#1ACA8E" stroke-width="2"/>
<path d="M4.5 9.5H3.5V23.6667C3.5 24.5321 3.21929 25.3743 2.7 26.0667L2 27L10.5 35.5L13.3284 32.6716C14.0786 31.9214 15.096 31.5 16.1569 31.5H18.5L24 26H8.5V13.5C8.5 11.2909 6.70914 9.5 4.5 9.5Z" stroke="#1ACA8E" stroke-width="2"/>
<rect x="8.5" y="1" width="15" height="25" fill="white" stroke="#1ACA8E" stroke-width="2"/>
<circle cx="13" cy="5.5" r="1.5" fill="#1ACA8E"/>
<circle cx="19" cy="21.5" r="1.5" fill="#1ACA8E"/>
<circle cx="16" cy="13.5" r="3.5" fill="white" stroke="#1ACA8E" stroke-width="2"/>
</svg>
