<svg width="22" height="22" viewBox="0 0 22 22" fill="none" xmlns="http://www.w3.org/2000/svg">
<path d="M1.15748 3.86259L1.15748 3.86259C1.0935 4.01194 1.04124 4.18595 1.02467 4.37829C0.983789 4.6134 0.997394 4.84092 1.03858 5.0469L1.05032 5.10562L1.06898 5.16252C1.62177 6.84781 2.28204 8.42128 3.05146 9.88105C3.81004 11.3202 4.56667 12.5455 5.3239 13.5465C6.08325 14.5503 6.94996 15.4711 7.92242 16.3088C8.86041 17.1168 9.68952 17.7612 10.4047 18.2289C11.1204 18.6971 11.9285 19.1306 12.8244 19.5319C13.6833 19.9166 14.3524 20.1921 14.8047 20.338C15.2209 20.4723 15.7266 20.6167 16.3177 20.7712C16.5222 20.8326 16.657 20.874 16.7307 20.8976C16.9283 20.9779 17.1208 21 17.278 21C17.5321 21 17.7566 20.9289 17.9433 20.8275C18.0758 20.7726 18.1983 20.7046 18.3065 20.637C18.4766 20.5306 18.6992 20.3525 18.9382 20.1512C19.2474 19.8906 19.5211 19.5918 19.7595 19.2579C20.0051 18.914 20.2347 18.4831 20.4538 17.9898C20.6946 17.4479 20.8693 16.859 20.9839 16.2285L21 16.1399V16.0497C21 15.7852 20.9465 15.5317 20.8518 15.2949L20.8364 15.2563L20.8178 15.2191C20.7698 15.123 20.7038 15.0127 20.6372 14.9062C20.5215 14.721 20.3248 14.4888 20.1128 14.2517L19.3674 14.9183L20.1128 14.2517C19.8578 13.9666 19.5758 13.6999 19.2683 13.4508C18.9285 13.1757 18.5063 12.9162 18.023 12.6676C17.5042 12.4007 16.9525 12.1953 16.3704 12.0498C15.8678 11.9241 15.3769 12.0315 14.9713 12.3213L14.9331 12.3486L14.8977 12.3794C14.3443 12.8591 13.881 13.2113 13.5037 13.45C13.3113 13.5717 13.1571 13.6536 13.0377 13.7076C11.8035 13.0482 10.7533 12.1964 9.87887 11.151C9.36905 10.5415 8.99636 10.0444 8.7474 9.65387C8.62326 9.45913 8.53776 9.3031 8.48247 9.18252C8.47962 9.17631 8.47688 9.17024 8.47423 9.16432C8.53648 9.04439 8.6319 8.87994 8.76792 8.66538C9.06412 8.19812 9.42109 7.72959 9.84194 7.26034C10.1637 6.9255 10.3124 6.48852 10.2619 6.02834C10.2242 5.38292 10.0508 4.76808 9.74707 4.19246C9.47603 3.67873 9.17444 3.22606 8.83445 2.85356C8.51966 2.50867 8.16929 2.1959 7.78504 1.91501C7.45325 1.67246 7.1934 1.48886 7.02263 1.38015C6.85469 1.27323 6.65402 1.16519 6.4321 1.09959C6.19125 1.01288 5.89788 0.964218 5.58302 1.03126C4.91717 1.14418 4.30043 1.31521 3.73962 1.55143C3.21381 1.7729 2.74469 2.0238 2.39087 2.32185C2.09101 2.57446 1.82538 2.85525 1.5974 3.16475L2.40256 3.75781L1.5974 3.16475C1.43199 3.38931 1.24929 3.64829 1.15748 3.86259ZM8.40355 9.31631C8.40375 9.3157 8.40404 9.31488 8.40441 9.31385C8.40248 9.3204 8.40181 9.32146 8.40355 9.31631Z" stroke="#A3A5B0" stroke-width="2"/>
</svg>
