<svg width="34" height="35" viewBox="0 0 34 35" fill="none" xmlns="http://www.w3.org/2000/svg">
<path d="M3.45603 15.4439L16.5507 4.53134C16.676 4.42677 16.8337 4.36955 16.9964 4.36955C17.1591 4.36955 17.3167 4.42677 17.4421 4.53134L30.5367 15.4439C30.7524 15.6245 31.0019 15.7596 31.2703 15.8412C31.5387 15.9229 31.8207 15.9494 32.0995 15.9192C32.3783 15.889 32.6482 15.8027 32.8933 15.6655C33.1384 15.5282 33.3537 15.3428 33.5264 15.1202C33.8815 14.6665 34.0472 14.0912 33.9883 13.5165C33.9294 12.9417 33.6506 12.4126 33.2109 12.0417L20.1163 1.12908C19.2379 0.39918 18.1349 0 16.9964 0C15.8579 0 14.7549 0.39918 13.8765 1.12908L0.789063 12.0417C0.34943 12.4126 0.0705648 12.9417 0.0116649 13.5165C-0.0472349 14.0912 0.118468 14.6665 0.473599 15.1202C0.646487 15.3414 0.861473 15.5256 1.10594 15.6619C1.35041 15.7983 1.61945 15.884 1.89725 15.9142C2.17506 15.9444 2.45604 15.9183 2.72372 15.8375C2.99139 15.7568 3.24037 15.623 3.45603 15.4439Z" fill="#A3A5B0"/>
<path d="M31.8742 32.0832V21.875C31.8622 21.4363 31.762 21.0046 31.5796 20.6061C31.3973 20.2075 31.1367 19.8504 30.8135 19.5563L18.8027 9.34805C18.2982 8.91806 17.6589 8.68213 16.9982 8.68213C16.3375 8.68213 15.6981 8.91806 15.1937 9.34805L3.18288 19.565C2.86011 19.8578 2.59949 20.2134 2.4167 20.6104C2.23391 21.0074 2.13274 21.4376 2.11927 21.875V32.0832C2.11194 32.8484 2.40617 33.5853 2.93737 34.1321C3.46858 34.679 4.19337 34.991 4.95266 34.9999H12.7466C13.1264 34.9956 13.4889 34.8397 13.7545 34.5662C14.0201 34.2928 14.1672 33.9242 14.1633 33.5416V25.5208C14.1599 25.1383 14.307 24.7699 14.5726 24.4966C14.8382 24.2232 15.2004 24.0671 15.58 24.0625H18.4134C18.793 24.0671 19.1553 24.2232 19.4208 24.4966C19.6864 24.7699 19.8336 25.1383 19.8301 25.5208V33.5416C19.8263 33.9242 19.9733 34.2928 20.2389 34.5662C20.5046 34.8397 20.8671 34.9956 21.2468 34.9999H29.0408C29.8001 34.991 30.5249 34.679 31.0561 34.1321C31.5873 33.5853 31.8815 32.8484 31.8742 32.0832Z" fill="#A3A5B0"/>
</svg>
