<svg width="29" height="39" viewBox="0 0 29 39" fill="none" xmlns="http://www.w3.org/2000/svg">
<path d="M9.57698 12.9998H19.4197C19.8548 12.9998 20.2721 12.8286 20.5797 12.5238C20.8873 12.2191 21.0602 11.8058 21.0602 11.3748C21.0602 10.9438 20.8873 10.5305 20.5797 10.2257C20.2721 9.92096 19.8548 9.74976 19.4197 9.74976H9.57698C9.1419 9.74976 8.72465 9.92096 8.417 10.2257C8.10936 10.5305 7.93652 10.9438 7.93652 11.3748C7.93652 11.8058 8.10936 12.2191 8.417 12.5238C8.72465 12.8286 9.1419 12.9998 9.57698 12.9998Z" fill="#A3A5B0"/>
<path d="M10.3484 7.31212C10.3733 7.50971 10.4706 7.69135 10.6218 7.82256C10.7731 7.95377 10.9676 8.02541 11.1686 8.02388H17.8355C18.0365 8.02541 18.2311 7.95377 18.3823 7.82256C18.5335 7.69135 18.6308 7.50971 18.6557 7.31212C19.0091 5.55618 19.6793 3.87776 20.6341 2.35743C20.717 2.20879 20.7509 2.03812 20.7309 1.86943C20.7109 1.70074 20.638 1.54251 20.5225 1.41697C20.407 1.29144 20.2547 1.20492 20.0869 1.16957C19.9192 1.13422 19.7446 1.15183 19.5875 1.21992L16.5329 2.51993C16.4827 2.54112 16.4287 2.55216 16.3741 2.55241C16.3195 2.55265 16.2654 2.5421 16.215 2.52136C16.1646 2.50063 16.1189 2.47013 16.0805 2.43165C16.0421 2.39318 16.0119 2.3475 15.9916 2.29731L15.2681 0.509785C15.2071 0.359254 15.102 0.230259 14.9664 0.139405C14.8307 0.048552 14.6707 0 14.507 0C14.3432 0 14.1832 0.048552 14.0476 0.139405C13.9119 0.230259 13.8068 0.359254 13.7458 0.509785L13.0224 2.29731C13.002 2.3475 12.9718 2.39318 12.9335 2.43165C12.8951 2.47013 12.8494 2.50063 12.7989 2.52136C12.7485 2.5421 12.6944 2.55265 12.6398 2.55241C12.5852 2.55216 12.5312 2.54112 12.481 2.51993L9.41172 1.22642C9.25463 1.15833 9.07995 1.14072 8.91224 1.17607C8.74453 1.21142 8.59221 1.29794 8.47671 1.42347C8.36121 1.54901 8.28832 1.70724 8.26831 1.87593C8.24829 2.04462 8.28214 2.21529 8.3651 2.36393C9.32087 3.88194 9.9927 5.55811 10.3484 7.31212Z" fill="#A3A5B0"/>
<path d="M20.1383 14.8214C19.9699 14.6943 19.7643 14.6252 19.5526 14.6248H9.44411C9.23234 14.6245 9.02644 14.6936 8.85847 14.8214C4.67366 17.9902 2.08511e-06 23.5965 2.08511e-06 28.4715C-0.00327883 35.3438 3.86492 39 14.4984 39C25.1318 39 29 35.3438 29 28.4667C29 23.5997 24.3247 17.9902 20.1383 14.8214ZM16.065 32.7112C15.9706 32.7283 15.8852 32.7777 15.8238 32.8508C15.7623 32.9238 15.7287 33.0159 15.7287 33.111V33.7187C15.7287 34.042 15.5991 34.352 15.3683 34.5805C15.1376 34.8091 14.8247 34.9375 14.4984 34.9375C14.1721 34.9375 13.8591 34.8091 13.6284 34.5805C13.3976 34.352 13.268 34.042 13.268 33.7187V33.1939C13.268 33.0861 13.2248 32.9828 13.1479 32.9066C13.071 32.8304 12.9667 32.7876 12.8579 32.7876H11.8933C11.567 32.7876 11.2541 32.6592 11.0233 32.4306C10.7926 32.2021 10.663 31.8921 10.663 31.5688C10.663 31.2456 10.7926 30.9356 11.0233 30.707C11.2541 30.4785 11.567 30.3501 11.8933 30.3501H15.4236C15.6795 30.3504 15.9275 30.2623 16.125 30.1011C16.3225 29.9398 16.4571 29.7154 16.5056 29.4665C16.5542 29.2176 16.5136 28.9597 16.391 28.7372C16.2684 28.5147 16.0713 28.3415 15.8337 28.2473L12.2493 26.8287C11.5329 26.546 10.9289 26.0401 10.5285 25.3872C10.1282 24.7343 9.9534 23.9701 10.0305 23.21C10.1076 22.45 10.4324 21.7355 10.9559 21.1746C11.4793 20.6137 12.1729 20.2368 12.9317 20.1011C13.0261 20.084 13.1115 20.0346 13.173 19.9615C13.2344 19.8885 13.268 19.7964 13.268 19.7013V19.0936C13.268 18.7703 13.3976 18.4603 13.6284 18.2318C13.8591 18.0032 14.1721 17.8748 14.4984 17.8748C14.8247 17.8748 15.1376 18.0032 15.3683 18.2318C15.5991 18.4603 15.7287 18.7703 15.7287 19.0936V19.6184C15.7287 19.7262 15.7719 19.8295 15.8488 19.9057C15.9257 19.9819 16.03 20.0247 16.1388 20.0247H17.1034C17.4297 20.0247 17.7427 20.1531 17.9734 20.3817C18.2041 20.6102 18.3337 20.9202 18.3337 21.2435C18.3337 21.5667 18.2041 21.8767 17.9734 22.1053C17.7427 22.3338 17.4297 22.4622 17.1034 22.4622H13.5731C13.3172 22.4619 13.0692 22.55 12.8717 22.7112C12.6742 22.8725 12.5397 23.0969 12.4911 23.3458C12.4426 23.5947 12.4831 23.8526 12.6057 24.0751C12.7283 24.2976 12.9254 24.4708 13.163 24.565L16.7474 25.9836C17.4638 26.2662 18.0679 26.7722 18.4682 27.4251C18.8685 28.078 19.0433 28.8422 18.9662 29.6022C18.8891 30.3623 18.5643 31.0768 18.0409 31.6377C17.5174 32.1986 16.8238 32.5755 16.065 32.7112Z" fill="#A3A5B0"/>
</svg>
