<svg width="32" height="32" viewBox="0 0 32 32" fill="none" xmlns="http://www.w3.org/2000/svg">
<path d="M12.087 21.8696H1C1.55174 18.8878 1.46043 17.2013 3.0987 16.4983L8.82609 14.0435V11.4348C8.82609 11.4348 7.59348 10.9796 7.59348 8.17391C6.31391 8.17391 6.31391 5.56522 7.59348 5.56522C7.59348 5.18957 5.44913 2.39696 8.14391 2.95652C8.78435 0.347826 15.0974 0.347826 15.7378 2.95652C15.8216 3.40763 15.814 3.87096 15.7154 4.31907C15.6168 4.76718 15.4293 5.19093 15.1639 5.56522C16.4043 5.56522 16.0652 8.17391 15.173 8.17391C15.173 10.9796 14.0435 11.4348 14.0435 11.4348V14.0435L16 14.8822" stroke="#A3A5B0" stroke-width="2" stroke-linecap="round" stroke-linejoin="round"/>
<path d="M25.1298 19.2607H22.4781C22.0711 19.2603 21.6767 19.4016 21.3626 19.6605C21.0486 19.9194 20.8346 20.2795 20.7574 20.6791C20.6802 21.0787 20.7446 21.4927 20.9396 21.8499C21.1346 22.2071 21.448 22.4852 21.8259 22.6364L24.5181 23.7125C24.8951 23.8642 25.2076 24.1423 25.4019 24.4992C25.5963 24.8561 25.6604 25.2696 25.5833 25.6686C25.5062 26.0676 25.2926 26.4273 24.9793 26.6861C24.6659 26.9449 24.2723 27.0865 23.8659 27.0868H21.2167" stroke="#A3A5B0" stroke-width="2" stroke-linecap="round" stroke-linejoin="round"/>
<path d="M23.1738 28.3912V27.0881" stroke="#A3A5B0" stroke-width="2" stroke-linecap="round" stroke-linejoin="round"/>
<path d="M23.1737 31C27.496 31 30.9998 27.4961 30.9998 23.1739C30.9998 18.8516 27.496 15.3478 23.1737 15.3478C18.8515 15.3478 15.3477 18.8516 15.3477 23.1739C15.3477 27.4961 18.8515 31 23.1737 31Z" stroke="#A3A5B0" stroke-width="2" stroke-linecap="round" stroke-linejoin="round"/>
<path d="M23.1738 19.2621V17.9564" stroke="#A3A5B0" stroke-width="2" stroke-linecap="round" stroke-linejoin="round"/>
</svg>
