<svg width="40" height="36" viewBox="0 0 40 36" fill="none" xmlns="http://www.w3.org/2000/svg">
<path d="M36.4706 7.41859L28.93 7.41914C28.93 7.41914 28.93 7.41898 28.9299 7.41859L27.9451 3.73193C27.5089 2.0993 26.0241 0.958984 24.3341 0.958984H15.6659C13.976 0.958984 12.4911 2.0993 12.0549 3.73193L11.0701 7.41851H9.9738V6.6142C9.9738 4.74738 8.45506 3.22855 6.58816 3.22855C4.72126 3.22855 3.20251 4.74738 3.20251 6.6142V7.4342C1.40918 7.59985 0 9.11216 0 10.948V31.5114C0 33.4575 1.58329 35.0408 3.52941 35.0408H36.4706C38.4167 35.0408 40 33.4575 40 31.5114C40 30.9785 40 11.0506 40 10.948C40 9.00189 38.4167 7.41859 36.4706 7.41859ZM5.55553 6.61428C5.55553 6.04487 6.01875 5.58157 6.58824 5.58157C7.15773 5.58157 7.62094 6.04487 7.62094 6.61428V7.36628H5.55553V6.61428ZM3.52941 9.77153H11.0702C12.134 9.77153 13.0688 9.05373 13.3434 8.02581L14.3282 4.33922C14.4898 3.73436 15.0398 3.31193 15.6659 3.31193H24.3341C24.9602 3.31193 25.5103 3.73436 25.6718 4.33922L26.6566 8.02581C26.9312 9.05365 27.866 9.77146 28.9298 9.77146H36.4706C37.1193 9.77146 37.6471 10.2992 37.6471 10.9479V14.1167H27.5359C25.6444 12.1138 22.9658 10.8617 20 10.8617C17.0342 10.8617 14.3556 12.1138 12.4641 14.1167H2.35294V10.9479C2.35294 10.2993 2.88071 9.77153 3.52941 9.77153ZM37.6471 25.9897H29.2103C29.9413 24.5752 30.3679 22.949 30.3679 21.2297C30.3679 19.5909 29.9791 17.9575 29.2104 16.4697H37.6471V25.9897ZM20 29.2447C15.6092 29.2447 11.9851 25.6727 11.9851 21.2297C11.9851 16.8015 15.5912 13.2148 20 13.2148C24.4405 13.2148 28.0149 16.8331 28.0149 21.2297C28.0149 25.6482 24.4195 29.2447 20 29.2447ZM10.7897 25.9897H2.35294V16.4697H10.7897C9.24118 19.4664 9.25255 23.0151 10.7897 25.9897ZM36.4706 32.6878H3.52941C2.88071 32.6878 2.35294 32.1601 2.35294 31.5114V28.3427H12.4642C14.3557 30.3456 17.0343 31.5976 20 31.5976C22.9657 31.5976 25.6444 30.3455 27.5358 28.3427H37.6471V31.5114C37.6471 32.1601 37.1193 32.6878 36.4706 32.6878Z" fill="white"/>
</svg>
