<svg width="35" height="39" viewBox="0 0 35 39" fill="none" xmlns="http://www.w3.org/2000/svg">
<path fill-rule="evenodd" clip-rule="evenodd" d="M16.6667 4.42708C20.0232 4.42708 22.8877 5.64235 25.2604 8.07292C27.691 10.4456 28.9062 13.3102 28.9062 16.6667C28.9062 16.672 28.9062 16.6774 28.9062 16.6828C30.4945 16.7725 31.9837 17.2329 33.2887 17.9788C33.3184 17.5478 33.3333 17.1104 33.3333 16.6667C33.3333 12.037 31.713 8.10187 28.4722 4.86111C25.2315 1.62035 21.2963 0 16.6667 0C12.037 0 8.10187 1.62035 4.86111 4.86111C1.62035 8.10187 0 12.037 0 16.6667C0 21.2963 1.62035 25.2315 4.86111 28.4722C8.10187 31.713 12.037 33.3333 16.6667 33.3333C18.0135 33.3333 19.3016 33.1962 20.5308 32.9219C19.5754 31.7317 18.8867 30.3183 18.5554 28.7723C17.9436 28.8616 17.314 28.9062 16.6667 28.9062C13.3102 28.9062 10.4311 27.7055 8.02951 25.3038C5.62788 22.9022 4.42708 20.0232 4.42708 16.6667C4.42708 13.3102 5.62788 10.4311 8.02951 8.02951C10.4311 5.62788 13.3102 4.42708 16.6667 4.42708ZM25.1736 11.7187C25.5787 11.3137 25.5787 10.9086 25.1736 10.5035L23.4375 8.76736C23.0324 8.36227 22.6273 8.36227 22.2222 8.76736L16.6667 14.3229L13.6285 11.1979C13.2234 10.7928 12.8183 10.7928 12.4132 11.1979L10.6771 12.934C10.5035 13.1076 10.4167 13.3391 10.4167 13.6285C10.4167 13.86 10.5035 14.0625 10.6771 14.2361L16.059 19.6181C16.2326 19.7917 16.4352 19.8785 16.6667 19.8785C16.8981 19.8785 17.1007 19.7917 17.2743 19.6181L25.1736 11.7187Z" fill="#50556C"/>
<path d="M33.0472 21.8769C30.4439 19.3744 26.2228 19.3744 23.6191 21.8769C21.2733 24.1319 21.0092 28.3779 23 30.9294L28.3332 38.3333L33.6663 30.9294C35.6571 28.3779 35.393 24.1319 33.0472 21.8769ZM28.3981 28.4614C27.1826 28.4614 26.1975 27.5144 26.1975 26.346C26.1975 25.1776 27.1826 24.2306 28.3981 24.2306C29.6135 24.2306 30.5987 25.1776 30.5987 26.346C30.5987 27.5144 29.6135 28.4614 28.3981 28.4614Z" fill="#50556C"/>
</svg>
