<svg width="48" height="48" viewBox="0 0 48 48" fill="none" xmlns="http://www.w3.org/2000/svg">
<g clip-path="url(#clip0)">
<path d="M18.4969 0H3.49687C1.56562 0 0 1.56562 0 3.49687V12.4969C0 14.4281 1.56562 15.9938 3.49687 15.9938H18.4969C20.4281 15.9938 21.9938 14.4281 21.9938 12.4969V3.49687C22.0031 1.56562 20.4281 0 18.4969 0Z" fill="#FF4D61"/>
<path d="M18.4969 19.9971H3.49687C1.56562 19.9971 0 21.5721 0 23.5033V44.5033C0 46.4346 1.56562 48.0002 3.49687 48.0002H18.4969C20.4281 48.0002 21.9938 46.4346 21.9938 44.5033V23.5033C22.0031 21.5721 20.4281 19.9971 18.4969 19.9971Z" fill="#5D6174"/>
<path d="M44.5032 31.9971H29.5032C27.572 31.9971 26.0063 33.5627 26.0063 35.4939V44.4939C26.0063 46.4252 27.572 47.9908 29.5032 47.9908H44.5032C46.4345 47.9908 48.0001 46.4252 48.0001 44.4939V35.4939C48.0001 33.5721 46.4345 31.9971 44.5032 31.9971Z" fill="#FF4D61"/>
<path d="M44.5032 0H29.5032C27.572 0 26.0063 1.56562 26.0063 3.49687V24.4969C26.0063 26.4281 27.572 27.9938 29.5032 27.9938H44.5032C46.4345 27.9938 48.0001 26.4281 48.0001 24.4969V3.49687C48.0001 1.56562 46.4345 0 44.5032 0Z" fill="#5D6174"/>
</g>
<defs>
<clipPath id="clip0">
<rect width="48" height="48" fill="white"/>
</clipPath>
</defs>
</svg>
