<svg width="250" height="256" viewBox="0 0 250 256" fill="none" xmlns="http://www.w3.org/2000/svg">
<path d="M250 131C250 200.036 194.036 256 125 256C55.9636 256 0 200.036 0 131C0 61.9636 55.9636 6 125 6C194.036 6 250 61.9636 250 131Z" fill="#D1E6FF"/>
<g clip-path="url(#clip0)">
<path d="M113.624 209.423H109.092C105.628 209.423 103.177 206.035 104.262 202.746L108.191 190.832H114.526L118.455 202.746C119.54 206.035 117.089 209.423 113.624 209.423V209.423Z" fill="#FFE477"/>
<path d="M154.722 130.321C154.722 159.795 135.308 193.542 111.358 193.542C87.409 193.542 67.9946 159.795 67.9946 130.321C67.9946 100.846 87.409 86.8053 111.358 86.8053C135.308 86.8053 154.722 100.846 154.722 130.321V130.321Z" fill="#FFECA2"/>
<path d="M111.358 86.8053C108 86.8053 104.732 87.0816 101.593 87.6377C120.84 91.0467 135.192 104.98 135.192 130.321C135.192 155.663 120.84 184.163 101.593 191.656C104.732 192.879 108 193.543 111.358 193.543C135.308 193.543 154.722 159.796 154.722 130.321C154.722 100.846 135.307 86.8053 111.358 86.8053V86.8053Z" fill="#F7EB00"/>
<path d="M49.2986 145.719H44.7666C41.3019 145.719 38.8514 142.332 39.9363 139.042L43.8653 127.128H50.2004L54.1294 139.042C55.2138 142.332 52.7632 145.719 49.2986 145.719V145.719Z" fill="#FC7080"/>
<path d="M90.3964 66.6174C90.3964 96.0919 70.9819 129.839 47.0325 129.839C23.0832 129.839 3.66869 96.0919 3.66869 66.6174C3.66869 37.1429 23.0832 23.1017 47.0325 23.1017C70.9819 23.1017 90.3964 37.1429 90.3964 66.6174V66.6174Z" fill="#FC7080"/>
<path d="M47.0324 23.1017C43.6747 23.1017 40.4058 23.3781 37.2673 23.9342C56.5138 27.3432 70.866 41.276 70.866 66.6179C70.866 91.9598 56.5138 120.459 37.2673 127.953C40.4058 129.175 43.6747 129.839 47.0324 129.839C70.9818 129.839 90.3962 96.0923 90.3962 66.6179C90.3962 37.1429 70.9813 23.1017 47.0324 23.1017Z" fill="#FF5F71"/>
<path d="M205.315 125.357H200.783C197.318 125.357 194.868 121.969 195.953 118.68L199.882 106.766H206.217L210.146 118.68C211.231 121.97 208.78 125.357 205.315 125.357V125.357Z" fill="#1AACFF"/>
<path d="M246.331 47.1914C246.331 76.6658 226.917 110.413 202.967 110.413C179.018 110.413 159.604 76.6658 159.604 47.1914C159.604 17.7169 179.018 3.67569 202.967 3.67569C226.916 3.67569 246.331 17.7169 246.331 47.1914V47.1914Z" fill="#1AACFF"/>
<path d="M202.967 3.67569C199.61 3.67569 196.341 3.95204 193.202 4.50816C212.449 7.91716 226.801 21.85 226.801 47.1919C226.801 72.5337 212.449 101.033 193.202 108.527C196.341 109.749 199.61 110.413 202.967 110.413C226.917 110.413 246.331 76.6663 246.331 47.1919C246.331 17.7169 226.917 3.67569 202.967 3.67569V3.67569Z" fill="#109AE9"/>
<path d="M120.051 195.893C142.204 189.172 158.384 157.77 158.384 130.321C158.384 115.42 153.582 103.141 144.497 94.8104C136.171 87.177 124.712 83.1426 111.359 83.1426C104.158 83.1426 97.3873 84.3637 91.3915 86.7044C93.1204 80.0451 94.0584 73.2168 94.0584 66.6171C94.0584 51.7161 89.2559 39.4369 80.17 31.1068C71.8447 23.4735 60.3854 19.439 47.0326 19.439C23.6853 19.439 6.71499 31.7601 1.63714 52.3986C1.15377 54.3624 2.35439 56.3462 4.31815 56.8295C6.2824 57.3144 8.26569 56.1123 8.74906 54.1485C13.0311 36.7442 26.9849 26.7628 47.0326 26.7628C58.5217 26.7628 68.2693 30.1318 75.2205 36.505C82.7528 43.4113 86.7346 53.8234 86.7346 66.6171C86.7346 80.3698 82.2065 95.575 74.6214 107.29C66.8509 119.292 56.7953 126.176 47.0326 126.176C30.5867 126.176 10.3432 104.1 7.58994 72.4224C7.41466 70.4079 5.64132 68.9119 3.62483 69.0916C1.61029 69.2664 0.118672 71.0421 0.293956 73.0567C2.52577 98.7364 17.7998 126.009 38.3373 132.198L36.4585 137.895C34.8223 142.858 38.1371 148.35 43.2667 149.248V161.215C43.2667 164.236 42.2028 166.965 41.0769 169.854C39.1449 174.808 36.956 180.424 40.1907 187.757C42.7804 193.628 47.5619 197.483 48.2118 204.132C48.0379 210.153 42.5177 214.57 40.2132 219.796C36.9785 227.129 39.1673 232.745 41.0993 237.699C42.2258 240.588 43.2892 243.317 43.2892 246.337C43.2892 248.36 44.9287 249.999 46.9511 249.999C48.9734 249.999 50.613 248.36 50.613 246.337C50.613 241.94 49.1839 238.274 47.9227 235.039C46.1718 230.547 44.9063 227.302 46.9135 222.752C49.8865 216.014 55.5405 211.739 55.5405 203.777C55.5405 195.845 49.8445 191.496 46.891 184.801C44.8838 180.251 46.1489 177.006 47.9002 172.514C49.1614 169.279 50.5905 165.613 50.5905 161.215V149.28C55.807 148.495 59.2751 142.953 57.6067 137.894L55.725 132.188C58.7248 131.278 61.6153 129.917 64.3705 128.173C63.5908 153.033 76.4544 187.94 102.666 195.891L100.785 201.597C99.1348 206.599 102.514 212.123 107.697 212.967V246.336C107.697 248.359 109.336 249.998 111.359 249.998C113.381 249.998 115.021 248.359 115.021 246.336V212.967C120.186 212.126 123.588 206.617 121.933 201.597L120.051 195.893ZM50.6516 140.189C50.8371 141.272 50.3864 141.895 49.2986 142.057H44.7666C43.6788 141.895 43.2281 141.272 43.4137 140.189L45.6318 133.463C46.5658 133.512 47.4999 133.512 48.4339 133.464L50.6516 140.189ZM83.7699 170.994C76.1853 159.278 71.6568 144.073 71.6568 130.32C71.6568 127.461 71.853 124.693 72.2402 122.094C72.2549 121.996 72.2617 121.9 72.2685 121.804C78.9669 115.15 84.473 106.195 88.2745 96.3782C94.5915 92.5122 102.565 90.4664 111.359 90.4664C122.848 90.4664 132.595 93.8353 139.547 100.209C147.079 107.114 151.061 117.527 151.061 130.32C151.061 144.073 146.533 159.278 138.948 170.994C131.177 182.996 121.121 189.879 111.359 189.879C101.596 189.879 91.54 182.996 83.7699 170.994ZM114.779 205.171C114.62 205.391 114.258 205.76 113.624 205.76H109.092C108.004 205.598 107.554 204.975 107.739 203.892L109.957 197.167C110.891 197.216 111.825 197.216 112.759 197.167L114.977 203.893C115.175 204.492 114.938 204.951 114.779 205.171Z" fill="#464B61"/>
<path d="M119.761 106.174C123.729 107.123 127.024 108.78 129.555 111.101C132.055 113.393 133.88 116.457 134.98 120.208C136.292 124.678 143.345 122.704 142.008 118.146C140.527 113.096 138.002 108.909 134.504 105.702C131.045 102.53 126.657 100.293 121.464 99.0505C119.495 98.5793 117.521 99.7931 117.05 101.76C116.58 103.728 117.794 105.704 119.761 106.174V106.174Z" fill="#464B61"/>
<path d="M65.2291 47.3973C67.7284 49.6886 69.554 52.7529 70.655 56.5042C71.967 60.9746 79.0203 58.9996 77.6825 54.4418C76.2002 49.3913 73.6754 45.205 70.1785 41.9986C66.7192 38.8269 62.3318 36.5888 57.1382 35.3471C55.171 34.8765 53.1955 36.0903 52.7249 38.0569C52.2547 40.0241 53.468 41.9996 55.4347 42.4703C59.4027 43.4194 62.698 45.0771 65.2291 47.3973V47.3973Z" fill="#464B61"/>
<path d="M212.021 112.663C216.265 111.327 220.404 109.051 224.394 105.834C225.969 104.565 226.216 102.26 224.947 100.685C223.678 99.1106 221.372 98.8631 219.798 100.133C214.35 104.524 208.688 106.751 202.968 106.751C193.205 106.751 183.149 99.8669 175.379 87.8651C167.794 76.1495 163.266 60.9447 163.266 47.1916C163.266 34.3983 167.247 23.9858 174.78 17.08C181.731 10.7063 191.479 7.33781 202.968 7.33781C214.457 7.33781 224.204 10.7063 231.156 17.08C238.688 23.9858 242.67 34.3983 242.67 47.1916C242.67 60.4238 238.612 74.6764 231.538 86.2949C230.487 88.0224 231.034 90.2752 232.762 91.3274C234.489 92.3791 236.742 91.8308 237.794 90.1038C245.547 77.3701 249.994 61.7294 249.994 47.1916C249.994 32.2905 245.191 20.0114 236.106 11.6813C227.78 4.04844 216.321 0.0139923 202.968 0.0139923C189.614 0.0139923 178.156 4.04844 169.83 11.6813C160.744 20.0114 155.942 32.2905 155.942 47.1916C155.942 74.5558 172.023 105.847 194.07 112.699L192.476 117.533C190.836 122.504 194.165 128.004 199.306 128.891V145.282C199.306 151.077 197.944 154.448 196.629 157.709C193.246 166.09 195.109 172.769 200.223 180.002C202.464 183.171 204.234 185.675 204.234 189.471C204.234 195.674 198.586 200.148 196.23 205.491C191.754 215.636 199.306 222.287 199.306 232.032V246.339C199.306 248.361 200.945 250.001 202.968 250.001C204.99 250.001 206.63 248.361 206.63 246.339V232.032C206.63 224.072 199.481 216.265 202.93 208.446C205.903 201.709 211.557 197.434 211.557 189.471C211.557 183.348 208.712 179.324 206.203 175.774C202.465 170.488 200.919 166.645 203.42 160.451C204.85 156.909 206.63 152.5 206.63 145.283V128.916C211.833 128.12 215.29 122.586 213.624 117.537L212.021 112.663ZM206.47 121.106C206.311 121.326 205.949 121.696 205.316 121.696H200.784C199.696 121.534 199.245 120.911 199.431 119.827L201.344 114.024C202.481 114.095 203.618 114.092 204.756 114.015L206.668 119.827C206.866 120.427 206.629 120.886 206.47 121.106Z" fill="#464B61"/>
<path d="M233.617 35.0161C232.136 29.9665 229.611 25.7798 226.113 22.5729C222.654 19.4012 218.266 17.163 213.073 15.9214C211.105 15.4517 209.13 16.664 208.66 18.6312C208.19 20.5984 209.403 22.5739 211.37 23.0446C215.338 23.9932 218.633 25.6509 221.164 27.971C223.664 30.2634 225.489 33.3272 226.59 37.0785C227.902 41.5489 234.955 39.5744 233.617 35.0161V35.0161Z" fill="#464B61"/>
<path d="M65.9215 7.33821C70.6344 7.33821 70.6422 0.0139923 65.9215 0.0139923C61.2087 0.0139923 61.2008 7.33821 65.9215 7.33821Z" fill="#464B61"/>
<path d="M144.958 14.4175C149.671 14.4175 149.678 7.09328 144.958 7.09328C140.245 7.09328 140.237 14.4175 144.958 14.4175Z" fill="#464B61"/>
<path d="M129.554 70.0783C134.266 70.0783 134.274 62.7541 129.554 62.7541C124.841 62.7541 124.833 70.0783 129.554 70.0783Z" fill="#464B61"/>
<path d="M174.314 142.057C169.601 142.057 169.593 149.381 174.314 149.381C179.027 149.381 179.035 142.057 174.314 142.057Z" fill="#464B61"/>
<path d="M3.54459 135.575C8.25749 135.575 8.2653 128.25 3.54459 128.25C-1.1683 128.25 -1.17611 135.575 3.54459 135.575Z" fill="#464B61"/>
<path d="M3.66915 242.676C-1.04374 242.676 -1.05155 250 3.66915 250C8.38204 250 8.38986 242.676 3.66915 242.676Z" fill="#464B61"/>
<path d="M20.7581 163.335C16.0452 163.335 16.0374 170.659 20.7581 170.659C25.471 170.659 25.4788 163.335 20.7581 163.335Z" fill="#464B61"/>
<path d="M236.763 199.184C232.05 199.184 232.042 206.509 236.763 206.509C241.476 206.509 241.484 199.184 236.763 199.184Z" fill="#464B61"/>
<path d="M227.194 164.311C222.481 164.311 222.474 171.635 227.194 171.635C231.907 171.635 231.915 164.311 227.194 164.311Z" fill="#464B61"/>
<path d="M75.6866 229.1C70.9737 229.1 70.9659 236.424 75.6866 236.424C80.3995 236.424 80.4073 229.1 75.6866 229.1Z" fill="#464B61"/>
<path d="M3.66876 16.9062C4.60572 16.9062 5.54317 16.5488 6.25797 15.8335L15.8268 6.2647C19.0673 3.02464 14.0359 -2.30173 10.6484 1.08627L1.07954 10.6551C-1.12932 12.8635 0.358391 16.9062 3.66876 16.9062V16.9062Z" fill="#464B61"/>
<path d="M116.483 37.115C119.749 40.3815 124.959 35.2328 121.661 31.9366L112.093 22.3678C108.853 19.1277 103.526 24.1587 106.914 27.5462L116.483 37.115Z" fill="#464B61"/>
<path d="M167.253 188.974L157.684 198.543C154.447 201.78 159.523 207.062 162.863 203.722L172.431 194.153C175.672 190.913 170.641 185.586 167.253 188.974Z" fill="#464B61"/>
<path d="M15.8269 200.257C12.5869 197.017 7.26002 202.048 10.6485 205.436L20.2173 215.005C23.4837 218.271 28.6929 213.122 25.3957 209.826L15.8269 200.257Z" fill="#464B61"/>
<path d="M229.784 234.18C226.544 230.94 221.217 235.971 224.605 239.359L234.174 248.927C237.441 252.194 242.65 247.045 239.353 243.749L229.784 234.18Z" fill="#464B61"/>
<path d="M248.921 121.009C247.49 119.579 245.172 119.579 243.742 121.009L234.173 130.578C230.936 133.815 236.012 139.097 239.352 135.757L248.921 126.188C250.351 124.758 250.351 122.44 248.921 121.009Z" fill="#464B61"/>
<path d="M142.762 234.18C139.522 230.94 134.195 235.971 137.584 239.359L147.153 248.927C150.419 252.194 155.628 247.045 152.331 243.749L142.762 234.18Z" fill="#464B61"/>
</g>
<defs>
<clipPath id="clip0">
<rect width="250" height="250" fill="white"/>
</clipPath>
</defs>
</svg>
