<svg width="62" height="62" viewBox="0 0 62 62" fill="none" xmlns="http://www.w3.org/2000/svg">
<path d="M26.2978 51.1161C26.1988 51.015 26.1369 50.8834 26.1224 50.7426C26.1079 50.6018 26.1415 50.4603 26.2178 50.3411C28.1045 47.3843 28.8341 43.8345 28.2668 40.3724C27.6994 36.9103 25.875 33.7797 23.1434 31.5811C20.4118 29.3824 16.9654 28.2704 13.465 28.4583C9.96469 28.6463 6.65689 30.1209 4.17601 32.5995C1.69514 35.078 0.215839 38.386 0.0218233 41.8889C-0.172192 45.3919 0.932735 48.8432 3.1247 51.581C5.31666 54.3188 8.44134 56.1504 11.8995 56.7244C15.3576 57.2984 18.9058 56.5744 21.8634 54.6914C21.982 54.6142 22.1234 54.5799 22.2642 54.594C22.405 54.6081 22.5367 54.6698 22.6377 54.7689L29.1035 61.2426C29.5875 61.7274 30.244 61.9998 30.9287 62.0001C31.6134 62.0003 32.2702 61.7283 32.7545 61.2439C33.2388 60.7595 33.511 60.1024 33.5113 59.4172C33.5115 58.7319 33.2397 58.0746 32.7558 57.5898L26.2978 51.1161ZM14.2491 51.7516C12.4623 51.7516 10.7157 51.2213 9.23009 50.2278C7.74447 49.2343 6.58656 47.8222 5.90281 46.1701C5.21905 44.5179 5.04015 42.7 5.38872 40.9461C5.7373 39.1922 6.5977 37.5811 7.86112 36.3167C9.12454 35.0522 10.7342 34.191 12.4866 33.8422C14.2391 33.4933 16.0555 33.6724 17.7062 34.3567C19.357 35.041 20.7679 36.1999 21.7605 37.6868C22.7532 39.1737 23.283 40.9218 23.283 42.71C23.283 45.108 22.3312 47.4077 20.637 49.1034C18.9429 50.799 16.645 51.7516 14.2491 51.7516Z" fill="#FF4D61"/>
<path d="M37.9448 14.3061C37.9453 13.5432 37.7197 12.7972 37.2966 12.1626C36.8735 11.528 36.2718 11.0333 35.5677 10.741C34.8636 10.4487 34.0887 10.3719 33.341 10.5205C32.5933 10.669 31.9064 11.0361 31.3672 11.5754C30.828 12.1147 30.4607 12.8019 30.3118 13.5501C30.1629 14.2984 30.239 15.074 30.5306 15.7789C30.8222 16.4838 31.3162 17.0863 31.9499 17.5102C32.5837 17.9341 33.3289 18.1604 34.0912 18.1604C35.1128 18.1604 36.0926 17.7544 36.8152 17.0317C37.5378 16.3089 37.9441 15.3286 37.9448 14.3061Z" fill="#FF4D61"/>
<path d="M60.4901 7.74991L54.2567 1.51382C53.7772 1.03371 53.2078 0.652901 52.5811 0.393151C51.9544 0.133401 51.2827 -0.000194225 50.6044 2.11934e-07H20.7021C19.3329 2.11934e-07 18.0199 0.544338 17.0518 1.51327C16.0837 2.48219 15.5398 3.79634 15.5398 5.16661V23.9266C15.5398 24.0915 15.6049 24.2497 15.7209 24.3668C15.8369 24.4839 15.9945 24.5504 16.1593 24.5517C17.4238 24.5962 18.6801 24.7746 19.9071 25.0839C20.0004 25.1098 20.0985 25.1138 20.1936 25.0954C20.2887 25.0771 20.3783 25.0369 20.4553 24.9781C20.5323 24.9193 20.5947 24.8434 20.6375 24.7564C20.6803 24.6695 20.7024 24.5738 20.7021 24.4768V6.45826C20.7021 6.11569 20.838 5.78716 21.08 5.54493C21.3221 5.30269 21.6503 5.16661 21.9926 5.16661H50.0727C50.4143 5.16668 50.742 5.30231 50.9838 5.54377L56.461 11.0255C56.7023 11.2676 56.8378 11.5955 56.8378 11.9375V46.4995C56.8378 46.8421 56.7019 47.1706 56.4598 47.4128C56.2178 47.6551 55.8896 47.7911 55.5473 47.7911H33.3031C33.1708 47.7919 33.0421 47.8346 32.9355 47.913C32.8289 47.9914 32.7498 48.1016 32.7095 48.2277C32.4219 49.1153 32.0654 49.979 31.6435 50.811C31.5897 50.9412 31.5759 51.0845 31.6039 51.2226C31.632 51.3606 31.7006 51.4872 31.8009 51.586C31.8009 51.586 32.5598 52.3791 32.8488 52.6348C33.0502 52.8372 33.3224 52.953 33.6077 52.9577H56.8378C58.207 52.9577 59.52 52.4134 60.4881 51.4445C61.4562 50.4756 62.0001 49.1614 62.0001 47.7911V11.4027C62.0005 10.0329 61.4574 8.71904 60.4901 7.74991Z" fill="#5D6174"/>
<path d="M29.9626 31.7746C30.2697 32.1828 30.5562 32.6038 30.8272 33.0378C30.9245 33.2059 31.0641 33.3454 31.2322 33.4424C31.4002 33.5394 31.5908 33.5906 31.7848 33.5907H52.4829C52.5692 33.5912 52.6541 33.5684 52.7286 33.5248C52.8031 33.4811 52.8644 33.4181 52.9062 33.3425C52.9479 33.2669 52.9685 33.1814 52.9658 33.0951C52.9631 33.0087 52.9371 32.9247 52.8907 32.8518L44.5382 19.4677C44.4517 19.3289 44.3313 19.2144 44.1884 19.1351C44.0455 19.0557 43.8847 19.014 43.7213 19.014C43.5578 19.014 43.3971 19.0557 43.2541 19.1351C43.1112 19.2144 42.9908 19.3289 42.9043 19.4677L38.2325 26.9593C38.1891 27.0287 38.1288 27.0859 38.0572 27.1256C37.9857 27.1652 37.9052 27.1861 37.8234 27.1861C37.7416 27.1861 37.6611 27.1652 37.5896 27.1256C37.518 27.0859 37.4577 27.0287 37.4143 26.9593L35.752 24.283C35.6646 24.1454 35.544 24.0321 35.4012 23.9535C35.2583 23.875 35.098 23.8339 34.9351 23.8339C34.7722 23.8339 34.6119 23.875 34.4691 23.9535C34.3263 24.0321 34.2056 24.1454 34.1182 24.283L29.9135 31.0151C29.8443 31.1319 29.812 31.2669 29.8207 31.4024C29.8295 31.538 29.8789 31.6677 29.9626 31.7746Z" fill="#5D6174"/>
</svg>
