<svg width="558" height="289" viewBox="0 0 558 289" fill="none" xmlns="http://www.w3.org/2000/svg">
<path d="M558 0H13.424V284H558V0Z" fill="white"/>
<path d="M29.1539 268.948V5.96399" stroke="black" stroke-opacity="0.1" stroke-width="0.514575" stroke-miterlimit="10" stroke-linecap="round"/>
<path d="M116.307 268.948V5.96399" stroke="black" stroke-opacity="0.1" stroke-width="0.514575" stroke-miterlimit="10" stroke-linecap="round"/>
<path d="M203.976 268.948V5.96399" stroke="black" stroke-opacity="0.1" stroke-width="0.514575" stroke-miterlimit="10" stroke-linecap="round"/>
<path d="M291.128 268.948V5.96399" stroke="black" stroke-opacity="0.1" stroke-width="0.514575" stroke-miterlimit="10" stroke-linecap="round"/>
<path d="M378.794 268.948V5.96399" stroke="black" stroke-opacity="0.1" stroke-width="0.514575" stroke-miterlimit="10" stroke-linecap="round"/>
<path d="M465.949 268.948V5.96399" stroke="black" stroke-opacity="0.1" stroke-width="0.514575" stroke-miterlimit="10" stroke-linecap="round"/>
<path d="M553.617 268.948V5.96399" stroke="black" stroke-opacity="0.1" stroke-width="0.514575" stroke-miterlimit="10" stroke-linecap="round"/>
<path d="M29.1539 268.948H553.618" stroke="black" stroke-opacity="0.1" stroke-width="0.514575" stroke-miterlimit="10" stroke-linecap="round"/>
<path d="M29.1539 236.004H553.618" stroke="black" stroke-opacity="0.1" stroke-width="0.514575" stroke-miterlimit="10" stroke-linecap="round"/>
<path d="M29.1539 203.06H553.618" stroke="black" stroke-opacity="0.1" stroke-width="0.514575" stroke-miterlimit="10" stroke-linecap="round"/>
<path d="M29.1539 170.116H553.618" stroke="black" stroke-opacity="0.1" stroke-width="0.514575" stroke-miterlimit="10" stroke-linecap="round"/>
<path d="M29.1539 137.74H553.618" stroke="black" stroke-opacity="0.1" stroke-width="0.514575" stroke-miterlimit="10" stroke-linecap="round"/>
<path d="M29.1539 104.796H553.618" stroke="black" stroke-opacity="0.1" stroke-width="0.514575" stroke-miterlimit="10" stroke-linecap="round"/>
<path d="M29.1539 71.852H553.618" stroke="black" stroke-opacity="0.1" stroke-width="0.514575" stroke-miterlimit="10" stroke-linecap="round"/>
<path d="M29.1539 38.908H553.618" stroke="black" stroke-opacity="0.1" stroke-width="0.514575" stroke-miterlimit="10" stroke-linecap="round"/>
<path d="M29.1539 5.96399H553.618" stroke="black" stroke-opacity="0.1" stroke-width="0.514575" stroke-miterlimit="10" stroke-linecap="round"/>
<path d="M47.9199 268.948V211.58H98.055V268.948H47.9199Z" fill="#1AACFF" stroke="#67B7DC" stroke-opacity="0.9" stroke-width="0.514575" stroke-miterlimit="10" stroke-linecap="round"/>
<path d="M135.072 268.948V167.276H185.207V268.948H135.072Z" fill="#1AACFF" stroke="#67B7DC" stroke-opacity="0.9" stroke-width="0.514575" stroke-miterlimit="10" stroke-linecap="round"/>
<path d="M222.741 268.948V103.092H272.876V268.948H222.741Z" fill="#1AACFF" stroke="#67B7DC" stroke-opacity="0.9" stroke-width="0.514575" stroke-miterlimit="10" stroke-linecap="round"/>
<path d="M309.894 268.948V112.748H360.028V268.948H309.894Z" fill="#1AACFF" stroke="#67B7DC" stroke-opacity="0.9" stroke-width="0.514575" stroke-miterlimit="10" stroke-linecap="round"/>
<path d="M397.563 268.948V94.572H447.698V268.948H397.563Z" fill="#1AACFF" stroke="#67B7DC" stroke-opacity="0.9" stroke-width="0.514575" stroke-miterlimit="10" stroke-linecap="round"/>
<path d="M484.714 268.948V37.204H534.849V268.948H484.714Z" fill="#67B7DC" fill-opacity="0.2" stroke="#67B7DC" stroke-opacity="0.9" stroke-width="0.514575" stroke-miterlimit="10" stroke-linecap="round" stroke-dasharray="2.57 2.57"/>
<path d="M71.5718 283.635C71.5718 285.201 71.3257 286.352 70.8335 287.086C70.3452 287.816 69.5855 288.182 68.5542 288.182C67.5073 288.182 66.7417 287.811 66.2573 287.068C65.7769 286.326 65.5366 285.186 65.5366 283.646C65.5366 282.096 65.7808 280.951 66.2691 280.213C66.7573 279.471 67.5191 279.1 68.5542 279.1C69.6011 279.1 70.3648 279.477 70.8452 280.23C71.3296 280.98 71.5718 282.115 71.5718 283.635ZM70.0308 286.295C70.1675 285.979 70.2593 285.607 70.3062 285.182C70.357 284.752 70.3823 284.236 70.3823 283.635C70.3823 283.041 70.357 282.525 70.3062 282.088C70.2593 281.65 70.1655 281.279 70.0249 280.975C69.8882 280.674 69.7007 280.447 69.4624 280.295C69.228 280.143 68.9253 280.066 68.5542 280.066C68.187 280.066 67.8823 280.143 67.6402 280.295C67.4019 280.447 67.2124 280.678 67.0718 280.986C66.939 281.275 66.8472 281.652 66.7964 282.117C66.7495 282.582 66.7261 283.092 66.7261 283.646C66.7261 284.256 66.7476 284.766 66.7905 285.176C66.8335 285.586 66.9253 285.953 67.0659 286.277C67.1948 286.582 67.3765 286.814 67.6109 286.975C67.8491 287.135 68.1636 287.215 68.5542 287.215C68.9214 287.215 69.2261 287.139 69.4683 286.986C69.7105 286.834 69.898 286.604 70.0308 286.295ZM78.7144 288H73.9917V287.109H75.8081V281.262H73.9917V280.465C74.2378 280.465 74.5015 280.445 74.7827 280.406C75.064 280.363 75.2769 280.303 75.4214 280.225C75.6011 280.127 75.7417 280.004 75.8433 279.855C75.9487 279.703 76.0093 279.5 76.0249 279.246H76.9331V287.109H78.7144V288Z" fill="#5D6174"/>
<path d="M158.763 283.635C158.763 285.201 158.516 286.352 158.024 287.086C157.536 287.816 156.776 288.182 155.745 288.182C154.698 288.182 153.932 287.811 153.448 287.068C152.968 286.326 152.727 285.186 152.727 283.646C152.727 282.096 152.972 280.951 153.46 280.213C153.948 279.471 154.71 279.1 155.745 279.1C156.792 279.1 157.556 279.477 158.036 280.23C158.52 280.98 158.763 282.115 158.763 283.635ZM157.222 286.295C157.358 285.979 157.45 285.607 157.497 285.182C157.548 284.752 157.573 284.236 157.573 283.635C157.573 283.041 157.548 282.525 157.497 282.088C157.45 281.65 157.356 281.279 157.216 280.975C157.079 280.674 156.891 280.447 156.653 280.295C156.419 280.143 156.116 280.066 155.745 280.066C155.378 280.066 155.073 280.143 154.831 280.295C154.593 280.447 154.403 280.678 154.263 280.986C154.13 281.275 154.038 281.652 153.987 282.117C153.94 282.582 153.917 283.092 153.917 283.646C153.917 284.256 153.938 284.766 153.981 285.176C154.024 285.586 154.116 285.953 154.257 286.277C154.386 286.582 154.567 286.814 154.802 286.975C155.04 287.135 155.354 287.215 155.745 287.215C156.112 287.215 156.417 287.139 156.659 286.986C156.901 286.834 157.089 286.604 157.222 286.295ZM166.403 288H160.497V286.775C160.907 286.424 161.317 286.072 161.727 285.721C162.141 285.369 162.526 285.02 162.882 284.672C163.632 283.945 164.145 283.369 164.423 282.943C164.7 282.514 164.839 282.051 164.839 281.555C164.839 281.102 164.688 280.748 164.388 280.494C164.091 280.236 163.675 280.107 163.14 280.107C162.784 280.107 162.399 280.17 161.985 280.295C161.571 280.42 161.167 280.611 160.772 280.869H160.714V279.639C160.991 279.502 161.36 279.377 161.821 279.264C162.286 279.15 162.735 279.094 163.169 279.094C164.063 279.094 164.765 279.311 165.272 279.744C165.78 280.174 166.034 280.758 166.034 281.496C166.034 281.828 165.991 282.139 165.905 282.428C165.823 282.713 165.7 282.984 165.536 283.242C165.384 283.484 165.204 283.723 164.997 283.957C164.794 284.191 164.546 284.451 164.253 284.736C163.835 285.146 163.403 285.545 162.958 285.932C162.513 286.314 162.097 286.67 161.71 286.998H166.403V288Z" fill="#5D6174"/>
<path d="M246.44 283.635C246.44 285.201 246.194 286.352 245.702 287.086C245.214 287.816 244.454 288.182 243.423 288.182C242.376 288.182 241.61 287.811 241.126 287.068C240.645 286.326 240.405 285.186 240.405 283.646C240.405 282.096 240.649 280.951 241.137 280.213C241.626 279.471 242.387 279.1 243.423 279.1C244.469 279.1 245.233 279.477 245.714 280.23C246.198 280.98 246.44 282.115 246.44 283.635ZM244.899 286.295C245.036 285.979 245.128 285.607 245.175 285.182C245.225 284.752 245.251 284.236 245.251 283.635C245.251 283.041 245.225 282.525 245.175 282.088C245.128 281.65 245.034 281.279 244.893 280.975C244.757 280.674 244.569 280.447 244.331 280.295C244.096 280.143 243.794 280.066 243.423 280.066C243.055 280.066 242.751 280.143 242.509 280.295C242.27 280.447 242.081 280.678 241.94 280.986C241.807 281.275 241.716 281.652 241.665 282.117C241.618 282.582 241.594 283.092 241.594 283.646C241.594 284.256 241.616 284.766 241.659 285.176C241.702 285.586 241.794 285.953 241.934 286.277C242.063 286.582 242.245 286.814 242.479 286.975C242.717 287.135 243.032 287.215 243.423 287.215C243.79 287.215 244.094 287.139 244.337 286.986C244.579 286.834 244.766 286.604 244.899 286.295ZM253.313 283.799C253.501 283.967 253.655 284.178 253.776 284.432C253.897 284.686 253.958 285.014 253.958 285.416C253.958 285.814 253.885 286.18 253.741 286.512C253.596 286.844 253.393 287.133 253.132 287.379C252.839 287.652 252.493 287.855 252.094 287.988C251.7 288.117 251.266 288.182 250.794 288.182C250.309 288.182 249.833 288.123 249.364 288.006C248.895 287.893 248.51 287.768 248.21 287.631V286.406H248.298C248.63 286.625 249.02 286.807 249.469 286.951C249.919 287.096 250.352 287.168 250.77 287.168C251.016 287.168 251.278 287.127 251.555 287.045C251.833 286.963 252.057 286.842 252.229 286.682C252.409 286.51 252.542 286.32 252.628 286.113C252.717 285.906 252.762 285.645 252.762 285.328C252.762 285.016 252.712 284.758 252.61 284.555C252.512 284.348 252.376 284.186 252.2 284.068C252.024 283.947 251.811 283.865 251.561 283.822C251.311 283.775 251.042 283.752 250.753 283.752H250.225V282.779H250.635C251.229 282.779 251.702 282.656 252.053 282.41C252.409 282.16 252.587 281.797 252.587 281.32C252.587 281.109 252.542 280.926 252.452 280.77C252.362 280.609 252.237 280.479 252.077 280.377C251.909 280.275 251.729 280.205 251.538 280.166C251.346 280.127 251.13 280.107 250.887 280.107C250.516 280.107 250.122 280.174 249.704 280.307C249.286 280.439 248.891 280.627 248.52 280.869H248.462V279.645C248.739 279.508 249.108 279.383 249.569 279.27C250.034 279.152 250.483 279.094 250.917 279.094C251.342 279.094 251.717 279.133 252.042 279.211C252.366 279.289 252.659 279.414 252.921 279.586C253.202 279.773 253.415 280 253.559 280.266C253.704 280.531 253.776 280.842 253.776 281.197C253.776 281.682 253.604 282.105 253.26 282.469C252.921 282.828 252.518 283.055 252.053 283.148V283.23C252.241 283.262 252.456 283.328 252.698 283.43C252.94 283.527 253.145 283.65 253.313 283.799Z" fill="#5D6174"/>
<path d="M333.631 283.635C333.631 285.201 333.385 286.352 332.893 287.086C332.405 287.816 331.645 288.182 330.614 288.182C329.567 288.182 328.801 287.811 328.317 287.068C327.836 286.326 327.596 285.186 327.596 283.646C327.596 282.096 327.84 280.951 328.329 280.213C328.817 279.471 329.579 279.1 330.614 279.1C331.661 279.1 332.424 279.477 332.905 280.23C333.389 280.98 333.631 282.115 333.631 283.635ZM332.09 286.295C332.227 285.979 332.319 285.607 332.366 285.182C332.417 284.752 332.442 284.236 332.442 283.635C332.442 283.041 332.417 282.525 332.366 282.088C332.319 281.65 332.225 281.279 332.085 280.975C331.948 280.674 331.76 280.447 331.522 280.295C331.288 280.143 330.985 280.066 330.614 280.066C330.247 280.066 329.942 280.143 329.7 280.295C329.461 280.447 329.272 280.678 329.131 280.986C328.999 281.275 328.907 281.652 328.856 282.117C328.809 282.582 328.786 283.092 328.786 283.646C328.786 284.256 328.807 284.766 328.85 285.176C328.893 285.586 328.985 285.953 329.126 286.277C329.254 286.582 329.436 286.814 329.67 286.975C329.909 287.135 330.223 287.215 330.614 287.215C330.981 287.215 331.286 287.139 331.528 286.986C331.77 286.834 331.958 286.604 332.09 286.295ZM341.471 285.545H340.176V288H339.051V285.545H334.874V284.197L339.098 279.275H340.176V284.607H341.471V285.545ZM339.051 284.607V280.67L335.67 284.607H339.051Z" fill="#5D6174"/>
<path d="M421.309 283.635C421.309 285.201 421.063 286.352 420.571 287.086C420.083 287.816 419.323 288.182 418.292 288.182C417.245 288.182 416.479 287.811 415.995 287.068C415.514 286.326 415.274 285.186 415.274 283.646C415.274 282.096 415.518 280.951 416.006 280.213C416.495 279.471 417.256 279.1 418.292 279.1C419.338 279.1 420.102 279.477 420.583 280.23C421.067 280.98 421.309 282.115 421.309 283.635ZM419.768 286.295C419.905 285.979 419.997 285.607 420.044 285.182C420.094 284.752 420.12 284.236 420.12 283.635C420.12 283.041 420.094 282.525 420.044 282.088C419.997 281.65 419.903 281.279 419.762 280.975C419.626 280.674 419.438 280.447 419.2 280.295C418.965 280.143 418.663 280.066 418.292 280.066C417.924 280.066 417.62 280.143 417.378 280.295C417.139 280.447 416.95 280.678 416.809 280.986C416.676 281.275 416.585 281.652 416.534 282.117C416.487 282.582 416.463 283.092 416.463 283.646C416.463 284.256 416.485 284.766 416.528 285.176C416.571 285.586 416.663 285.953 416.803 286.277C416.932 286.582 417.114 286.814 417.348 286.975C417.587 287.135 417.901 287.215 418.292 287.215C418.659 287.215 418.963 287.139 419.206 286.986C419.448 286.834 419.635 286.604 419.768 286.295ZM428.879 285.229C428.879 285.635 428.805 286.023 428.657 286.395C428.508 286.766 428.305 287.078 428.047 287.332C427.766 287.605 427.43 287.816 427.04 287.965C426.653 288.109 426.204 288.182 425.692 288.182C425.215 288.182 424.756 288.131 424.315 288.029C423.874 287.932 423.501 287.812 423.196 287.672V286.436H423.278C423.598 286.639 423.973 286.812 424.403 286.957C424.833 287.098 425.254 287.168 425.669 287.168C425.946 287.168 426.213 287.129 426.471 287.051C426.733 286.973 426.965 286.836 427.169 286.641C427.34 286.473 427.469 286.271 427.555 286.037C427.645 285.803 427.69 285.531 427.69 285.223C427.69 284.922 427.637 284.668 427.532 284.461C427.43 284.254 427.288 284.088 427.104 283.963C426.901 283.814 426.653 283.711 426.36 283.652C426.071 283.59 425.747 283.559 425.387 283.559C425.044 283.559 424.712 283.582 424.391 283.629C424.075 283.676 423.801 283.723 423.571 283.77V279.275H428.821V280.301H424.702V282.621C424.87 282.605 425.042 282.594 425.217 282.586C425.393 282.578 425.545 282.574 425.674 282.574C426.147 282.574 426.561 282.615 426.917 282.697C427.272 282.775 427.598 282.916 427.895 283.119C428.208 283.334 428.45 283.611 428.622 283.951C428.794 284.291 428.879 284.717 428.879 285.229Z" fill="#5D6174"/>
<path d="M508.5 283.635C508.5 285.201 508.253 286.352 507.761 287.086C507.273 287.816 506.513 288.182 505.482 288.182C504.435 288.182 503.669 287.811 503.185 287.068C502.705 286.326 502.464 285.186 502.464 283.646C502.464 282.096 502.709 280.951 503.197 280.213C503.685 279.471 504.447 279.1 505.482 279.1C506.529 279.1 507.293 279.477 507.773 280.23C508.257 280.98 508.5 282.115 508.5 283.635ZM506.959 286.295C507.095 285.979 507.187 285.607 507.234 285.182C507.285 284.752 507.31 284.236 507.31 283.635C507.31 283.041 507.285 282.525 507.234 282.088C507.187 281.65 507.093 281.279 506.953 280.975C506.816 280.674 506.628 280.447 506.39 280.295C506.156 280.143 505.853 280.066 505.482 280.066C505.115 280.066 504.81 280.143 504.568 280.295C504.33 280.447 504.14 280.678 504 280.986C503.867 281.275 503.775 281.652 503.724 282.117C503.677 282.582 503.654 283.092 503.654 283.646C503.654 284.256 503.675 284.766 503.718 285.176C503.761 285.586 503.853 285.953 503.994 286.277C504.123 286.582 504.304 286.814 504.539 286.975C504.777 287.135 505.091 287.215 505.482 287.215C505.849 287.215 506.154 287.139 506.396 286.986C506.638 286.834 506.826 286.604 506.959 286.295ZM516.269 285.17C516.269 286.057 515.976 286.781 515.39 287.344C514.808 287.902 514.093 288.182 513.246 288.182C512.816 288.182 512.425 288.115 512.074 287.982C511.722 287.85 511.412 287.652 511.142 287.391C510.806 287.066 510.546 286.637 510.363 286.102C510.183 285.566 510.093 284.922 510.093 284.168C510.093 283.395 510.175 282.709 510.339 282.111C510.507 281.514 510.773 280.982 511.136 280.518C511.48 280.076 511.923 279.732 512.466 279.486C513.009 279.236 513.642 279.111 514.365 279.111C514.595 279.111 514.789 279.121 514.945 279.141C515.101 279.16 515.259 279.195 515.419 279.246V280.365H515.361C515.252 280.307 515.085 280.252 514.863 280.201C514.644 280.146 514.419 280.119 514.189 280.119C513.349 280.119 512.679 280.383 512.179 280.91C511.679 281.434 511.388 282.143 511.306 283.037C511.634 282.838 511.957 282.688 512.273 282.586C512.593 282.48 512.962 282.428 513.38 282.428C513.752 282.428 514.078 282.463 514.359 282.533C514.644 282.6 514.935 282.736 515.232 282.943C515.576 283.182 515.834 283.482 516.005 283.846C516.181 284.209 516.269 284.65 516.269 285.17ZM515.08 285.217C515.08 284.854 515.025 284.553 514.916 284.314C514.81 284.076 514.634 283.869 514.388 283.693C514.209 283.568 514.009 283.486 513.791 283.447C513.572 283.408 513.343 283.389 513.105 283.389C512.773 283.389 512.464 283.428 512.179 283.506C511.894 283.584 511.601 283.705 511.3 283.869C511.293 283.955 511.287 284.039 511.283 284.121C511.279 284.199 511.277 284.299 511.277 284.42C511.277 285.037 511.339 285.525 511.464 285.885C511.593 286.24 511.769 286.521 511.992 286.729C512.171 286.9 512.365 287.027 512.572 287.109C512.783 287.188 513.011 287.227 513.257 287.227C513.824 287.227 514.269 287.055 514.593 286.711C514.918 286.363 515.08 285.865 515.08 285.217Z" fill="#5D6174"/>
<path d="M13.0523 266.628L9.1031 274.046H7.8492L12.0504 266.347H7.0816V265.321H13.0523V266.628ZM21.9937 274.046H20.4879L17.0367 270.161L16.1695 271.087V274.046H15.0093V265.321H16.1695V269.874L20.4058 265.321H21.8121L17.9156 269.423L21.9937 274.046Z" fill="#5D6174"/>
<path d="M13.0172 203.256C13.0172 204.017 12.9293 204.709 12.7535 205.33C12.5816 205.951 12.3199 206.48 11.9683 206.918C11.6129 207.363 11.1675 207.707 10.6324 207.949C10.0972 208.191 9.46833 208.312 8.74573 208.312C8.54253 208.312 8.35113 208.301 8.17153 208.277C7.99183 208.258 7.83163 208.224 7.69103 208.178V207.058H7.74963C7.86293 207.117 8.02303 207.174 8.23003 207.228C8.43713 207.279 8.66753 207.305 8.92153 207.305C9.78473 207.305 10.4605 207.047 10.9488 206.531C11.441 206.012 11.7261 205.297 11.8043 204.387C11.441 204.605 11.0992 204.762 10.7789 204.855C10.4586 204.949 10.109 204.996 9.73003 204.996C9.37073 204.996 9.04453 204.961 8.75153 204.891C8.46253 204.82 8.17153 204.683 7.87853 204.48C7.53473 204.242 7.27503 203.939 7.09923 203.572C6.92733 203.205 6.84143 202.766 6.84143 202.254C6.84143 201.363 7.13433 200.639 7.72033 200.08C8.30623 199.521 9.02113 199.242 9.86483 199.242C10.2867 199.242 10.6773 199.308 11.0367 199.441C11.3961 199.57 11.7105 199.766 11.98 200.027C12.3121 200.351 12.5679 200.769 12.7476 201.281C12.9273 201.789 13.0172 202.447 13.0172 203.256ZM11.8336 203.004C11.8336 202.398 11.7711 201.912 11.6461 201.545C11.5211 201.178 11.3492 200.892 11.1304 200.689C10.9468 200.514 10.7496 200.389 10.5386 200.314C10.3277 200.236 10.0992 200.197 9.85313 200.197C9.29063 200.197 8.84533 200.373 8.51723 200.724C8.19293 201.076 8.03083 201.57 8.03083 202.207C8.03083 202.578 8.08363 202.881 8.18903 203.115C8.29453 203.349 8.47223 203.555 8.72223 203.73C8.89803 203.851 9.09143 203.933 9.30233 203.976C9.51333 204.016 9.74763 204.035 10.0054 204.035C10.3101 204.035 10.6187 203.994 10.9312 203.912C11.2437 203.83 11.5367 203.711 11.8101 203.555C11.814 203.473 11.8179 203.392 11.8218 203.314C11.8297 203.232 11.8336 203.129 11.8336 203.004ZM21.9937 208.142H20.4879L17.0367 204.258L16.1695 205.183V208.142H15.0093V199.418H16.1695V203.971L20.4058 199.418H21.8121L17.9156 203.519L21.9937 208.142Z" fill="#5D6174"/>
<path d="M4.90192 142.807H0.179321V141.916H1.99572V136.069H0.179321V135.272C0.425421 135.272 0.689022 135.252 0.970322 135.213C1.25152 135.17 1.46442 135.11 1.60902 135.032C1.78862 134.934 1.92932 134.811 2.03082 134.662C2.13632 134.51 2.19682 134.307 2.21252 134.053H3.12072V141.916H4.90192V142.807ZM12.5308 142.807H7.80822V141.916H9.62462V136.069H7.80822V135.272C8.05432 135.272 8.31792 135.252 8.59922 135.213C8.88042 135.17 9.09332 135.11 9.23792 135.032C9.41752 134.934 9.55822 134.811 9.65972 134.662C9.76522 134.51 9.82582 134.307 9.84142 134.053H10.7496V141.916H12.5308V142.807ZM21.9937 142.807H20.4879L17.0367 138.922L16.1695 139.848V142.807H15.0093V134.082H16.1695V138.635L20.4058 134.082H21.8121L17.9156 138.184L21.9937 142.807Z" fill="#5D6174"/>
<path d="M4.90192 76.9035H0.179321V76.0129H1.99572V70.1652H0.179321V69.3683C0.425421 69.3683 0.689022 69.3488 0.970322 69.3098C1.25152 69.2668 1.46442 69.2062 1.60902 69.1281C1.78862 69.0305 1.92932 68.9074 2.03082 68.759C2.13632 68.6066 2.19682 68.4035 2.21252 68.1496H3.12072V76.0129H4.90192V76.9035ZM12.2613 72.7023C12.4488 72.8703 12.6031 73.0812 12.7242 73.3351C12.8453 73.5891 12.9058 73.9172 12.9058 74.3195C12.9058 74.718 12.8336 75.0832 12.689 75.4152C12.5445 75.7473 12.3414 76.0363 12.0797 76.2824C11.7867 76.5558 11.441 76.759 11.0425 76.8918C10.648 77.0207 10.2144 77.0851 9.74182 77.0851C9.25742 77.0851 8.78082 77.0266 8.31212 76.9094C7.84332 76.7961 7.45862 76.6711 7.15782 76.5344V75.3098H7.24572C7.57772 75.5285 7.96832 75.7101 8.41752 75.8547C8.86682 75.9992 9.30042 76.0715 9.71832 76.0715C9.96442 76.0715 10.2261 76.0305 10.5035 75.9484C10.7808 75.8664 11.0054 75.7453 11.1773 75.5851C11.357 75.4133 11.4898 75.2238 11.5758 75.0168C11.6656 74.8098 11.7105 74.548 11.7105 74.2316C11.7105 73.9191 11.6597 73.6613 11.5582 73.4582C11.4605 73.2512 11.3238 73.0891 11.148 72.9719C10.9722 72.8508 10.7593 72.7687 10.5093 72.7258C10.2593 72.6789 9.98982 72.6555 9.70082 72.6555H9.17342V71.6828H9.58362C10.1773 71.6828 10.65 71.5598 11.0015 71.3137C11.357 71.0637 11.5347 70.7004 11.5347 70.2238C11.5347 70.0129 11.4898 69.8293 11.4 69.673C11.3101 69.5129 11.1851 69.382 11.025 69.2805C10.857 69.1789 10.6773 69.1086 10.4859 69.0695C10.2945 69.0305 10.0777 69.0109 9.83552 69.0109C9.46442 69.0109 9.06992 69.0773 8.65192 69.2101C8.23402 69.343 7.83942 69.5305 7.46832 69.7726H7.40972V68.548C7.68712 68.4113 8.05622 68.2863 8.51722 68.173C8.98202 68.0558 9.43122 67.9973 9.86482 67.9973C10.2906 67.9973 10.6656 68.0363 10.9898 68.1144C11.314 68.1926 11.607 68.3176 11.8687 68.4894C12.15 68.6769 12.3629 68.9035 12.5074 69.1691C12.6519 69.4348 12.7242 69.7453 12.7242 70.1008C12.7242 70.5851 12.5523 71.009 12.2086 71.3723C11.8687 71.7316 11.4664 71.9582 11.0015 72.0519V72.134C11.189 72.1652 11.4039 72.2316 11.6461 72.3332C11.8883 72.4308 12.0933 72.5539 12.2613 72.7023ZM21.9937 76.9035H20.4879L17.0367 73.0187L16.1695 73.9445V76.9035H15.0093V68.1789H16.1695V72.7316L20.4058 68.1789H21.8121L17.9156 72.2805L21.9937 76.9035Z" fill="#5D6174"/>
<path d="M4.90192 15H0.179321V14.1094H1.99572V8.26172H0.179321V7.46484C0.425421 7.46484 0.689022 7.44531 0.970322 7.40625C1.25152 7.36328 1.46442 7.30273 1.60902 7.22461C1.78862 7.12695 1.92932 7.00391 2.03082 6.85547C2.13632 6.70312 2.19682 6.5 2.21252 6.24609H3.12072V14.1094H4.90192V15ZM12.9586 12.2285C12.9586 12.6348 12.8843 13.0234 12.7359 13.3945C12.5875 13.7656 12.3843 14.0781 12.1265 14.332C11.8453 14.6055 11.5093 14.8164 11.1187 14.9648C10.732 15.1094 10.2828 15.1816 9.77112 15.1816C9.29452 15.1816 8.83552 15.1309 8.39412 15.0293C7.95272 14.9316 7.57972 14.8125 7.27502 14.6719V13.4355H7.35702C7.67732 13.6387 8.05232 13.8125 8.48202 13.957C8.91172 14.0977 9.33362 14.168 9.74762 14.168C10.025 14.168 10.2925 14.1289 10.5504 14.0508C10.8121 13.9727 11.0445 13.8359 11.2476 13.6406C11.4195 13.4727 11.5484 13.2715 11.6343 13.0371C11.7242 12.8027 11.7691 12.5312 11.7691 12.2227C11.7691 11.9219 11.7164 11.668 11.6109 11.4609C11.5093 11.2539 11.3668 11.0879 11.1832 10.9629C10.98 10.8145 10.732 10.7109 10.439 10.6523C10.15 10.5898 9.82582 10.5586 9.46642 10.5586C9.12262 10.5586 8.79062 10.582 8.47032 10.6289C8.15392 10.6758 7.88042 10.7227 7.65002 10.7695V6.27539H12.9V7.30078H8.78082V9.62109C8.94882 9.60547 9.12072 9.59375 9.29652 9.58594C9.47222 9.57812 9.62462 9.57422 9.75352 9.57422C10.2261 9.57422 10.6402 9.61523 10.9957 9.69727C11.3511 9.77539 11.6773 9.91602 11.9742 10.1191C12.2867 10.334 12.5289 10.6113 12.7008 10.9512C12.8726 11.291 12.9586 11.7168 12.9586 12.2285ZM21.9937 15H20.4879L17.0367 11.1152L16.1695 12.041V15H15.0093V6.27539H16.1695V10.8281L20.4058 6.27539H21.8121L17.9156 10.377L21.9937 15Z" fill="#5D6174"/>
</svg>
