<svg width="562" height="289" viewBox="0 0 562 289" fill="none" xmlns="http://www.w3.org/2000/svg">
<path d="M562 0H0V288H562V0Z" fill="white"/>
<path d="M33.1539 268.948V5.96399" stroke="black" stroke-opacity="0.1" stroke-width="0.514575" stroke-miterlimit="10" stroke-linecap="round"/>
<path d="M120.307 268.948V5.96399" stroke="black" stroke-opacity="0.1" stroke-width="0.514575" stroke-miterlimit="10" stroke-linecap="round"/>
<path d="M207.976 268.948V5.96399" stroke="black" stroke-opacity="0.1" stroke-width="0.514575" stroke-miterlimit="10" stroke-linecap="round"/>
<path d="M295.128 268.948V5.96399" stroke="black" stroke-opacity="0.1" stroke-width="0.514575" stroke-miterlimit="10" stroke-linecap="round"/>
<path d="M382.794 268.948V5.96399" stroke="black" stroke-opacity="0.1" stroke-width="0.514575" stroke-miterlimit="10" stroke-linecap="round"/>
<path d="M469.949 268.948V5.96399" stroke="black" stroke-opacity="0.1" stroke-width="0.514575" stroke-miterlimit="10" stroke-linecap="round"/>
<path d="M557.617 268.948V5.96399" stroke="black" stroke-opacity="0.1" stroke-width="0.514575" stroke-miterlimit="10" stroke-linecap="round"/>
<path d="M33.1539 268.948H557.618" stroke="black" stroke-opacity="0.1" stroke-width="0.514575" stroke-miterlimit="10" stroke-linecap="round"/>
<path d="M33.1539 236.004H557.618" stroke="black" stroke-opacity="0.1" stroke-width="0.514575" stroke-miterlimit="10" stroke-linecap="round"/>
<path d="M33.1539 203.06H557.618" stroke="black" stroke-opacity="0.1" stroke-width="0.514575" stroke-miterlimit="10" stroke-linecap="round"/>
<path d="M33.1539 170.116H557.618" stroke="black" stroke-opacity="0.1" stroke-width="0.514575" stroke-miterlimit="10" stroke-linecap="round"/>
<path d="M33.1539 137.74H557.618" stroke="black" stroke-opacity="0.1" stroke-width="0.514575" stroke-miterlimit="10" stroke-linecap="round"/>
<path d="M33.1539 104.796H557.618" stroke="black" stroke-opacity="0.1" stroke-width="0.514575" stroke-miterlimit="10" stroke-linecap="round"/>
<path d="M33.1539 71.852H557.618" stroke="black" stroke-opacity="0.1" stroke-width="0.514575" stroke-miterlimit="10" stroke-linecap="round"/>
<path d="M33.1539 38.908H557.618" stroke="black" stroke-opacity="0.1" stroke-width="0.514575" stroke-miterlimit="10" stroke-linecap="round"/>
<path d="M33.1539 5.96399H557.618" stroke="black" stroke-opacity="0.1" stroke-width="0.514575" stroke-miterlimit="10" stroke-linecap="round"/>
<path d="M51.9199 268.948V211.58H102.055V268.948H51.9199Z" fill="#1AACFF" stroke="#67B7DC" stroke-opacity="0.9" stroke-width="0.514575" stroke-miterlimit="10" stroke-linecap="round"/>
<path d="M139.072 268.948V167.276H189.207V268.948H139.072Z" fill="#1AACFF" stroke="#67B7DC" stroke-opacity="0.9" stroke-width="0.514575" stroke-miterlimit="10" stroke-linecap="round"/>
<path d="M226.741 268.948V103.092H276.876V268.948H226.741Z" fill="#1AACFF" stroke="#67B7DC" stroke-opacity="0.9" stroke-width="0.514575" stroke-miterlimit="10" stroke-linecap="round"/>
<path d="M313.894 268.948V112.748H364.028V268.948H313.894Z" fill="#1AACFF" stroke="#67B7DC" stroke-opacity="0.9" stroke-width="0.514575" stroke-miterlimit="10" stroke-linecap="round"/>
<path d="M401.563 268.948V94.572H451.698V268.948H401.563Z" fill="#1AACFF" stroke="#67B7DC" stroke-opacity="0.9" stroke-width="0.514575" stroke-miterlimit="10" stroke-linecap="round"/>
<path d="M488.714 268.948V37.204H538.849V268.948H488.714Z" fill="#67B7DC" fill-opacity="0.2" stroke="#67B7DC" stroke-opacity="0.9" stroke-width="0.514575" stroke-miterlimit="10" stroke-linecap="round" stroke-dasharray="2.57 2.57"/>
<path d="M75.5718 283.635C75.5718 285.201 75.3257 286.352 74.8335 287.086C74.3452 287.816 73.5855 288.182 72.5542 288.182C71.5073 288.182 70.7417 287.811 70.2573 287.068C69.7769 286.326 69.5366 285.186 69.5366 283.646C69.5366 282.096 69.7808 280.951 70.2691 280.213C70.7573 279.471 71.5191 279.1 72.5542 279.1C73.6011 279.1 74.3648 279.477 74.8452 280.23C75.3296 280.98 75.5718 282.115 75.5718 283.635ZM74.0308 286.295C74.1675 285.979 74.2593 285.607 74.3062 285.182C74.357 284.752 74.3823 284.236 74.3823 283.635C74.3823 283.041 74.357 282.525 74.3062 282.088C74.2593 281.65 74.1655 281.279 74.0249 280.975C73.8882 280.674 73.7007 280.447 73.4624 280.295C73.228 280.143 72.9253 280.066 72.5542 280.066C72.187 280.066 71.8823 280.143 71.6402 280.295C71.4019 280.447 71.2124 280.678 71.0718 280.986C70.939 281.275 70.8472 281.652 70.7964 282.117C70.7495 282.582 70.7261 283.092 70.7261 283.646C70.7261 284.256 70.7476 284.766 70.7905 285.176C70.8335 285.586 70.9253 285.953 71.0659 286.277C71.1948 286.582 71.3765 286.814 71.6109 286.975C71.8491 287.135 72.1636 287.215 72.5542 287.215C72.9214 287.215 73.2261 287.139 73.4683 286.986C73.7105 286.834 73.898 286.604 74.0308 286.295ZM82.7144 288H77.9917V287.109H79.8081V281.262H77.9917V280.465C78.2378 280.465 78.5015 280.445 78.7827 280.406C79.064 280.363 79.2769 280.303 79.4214 280.225C79.6011 280.127 79.7417 280.004 79.8433 279.855C79.9487 279.703 80.0093 279.5 80.0249 279.246H80.9331V287.109H82.7144V288Z" fill="#5D6174"/>
<path d="M162.763 283.635C162.763 285.201 162.516 286.352 162.024 287.086C161.536 287.816 160.776 288.182 159.745 288.182C158.698 288.182 157.932 287.811 157.448 287.068C156.968 286.326 156.727 285.186 156.727 283.646C156.727 282.096 156.972 280.951 157.46 280.213C157.948 279.471 158.71 279.1 159.745 279.1C160.792 279.1 161.556 279.477 162.036 280.23C162.52 280.98 162.763 282.115 162.763 283.635ZM161.222 286.295C161.358 285.979 161.45 285.607 161.497 285.182C161.548 284.752 161.573 284.236 161.573 283.635C161.573 283.041 161.548 282.525 161.497 282.088C161.45 281.65 161.356 281.279 161.216 280.975C161.079 280.674 160.891 280.447 160.653 280.295C160.419 280.143 160.116 280.066 159.745 280.066C159.378 280.066 159.073 280.143 158.831 280.295C158.593 280.447 158.403 280.678 158.263 280.986C158.13 281.275 158.038 281.652 157.987 282.117C157.94 282.582 157.917 283.092 157.917 283.646C157.917 284.256 157.938 284.766 157.981 285.176C158.024 285.586 158.116 285.953 158.257 286.277C158.386 286.582 158.567 286.814 158.802 286.975C159.04 287.135 159.354 287.215 159.745 287.215C160.112 287.215 160.417 287.139 160.659 286.986C160.901 286.834 161.089 286.604 161.222 286.295ZM170.403 288H164.497V286.775C164.907 286.424 165.317 286.072 165.727 285.721C166.141 285.369 166.526 285.02 166.882 284.672C167.632 283.945 168.145 283.369 168.423 282.943C168.7 282.514 168.839 282.051 168.839 281.555C168.839 281.102 168.688 280.748 168.388 280.494C168.091 280.236 167.675 280.107 167.14 280.107C166.784 280.107 166.399 280.17 165.985 280.295C165.571 280.42 165.167 280.611 164.772 280.869H164.714V279.639C164.991 279.502 165.36 279.377 165.821 279.264C166.286 279.15 166.735 279.094 167.169 279.094C168.063 279.094 168.765 279.311 169.272 279.744C169.78 280.174 170.034 280.758 170.034 281.496C170.034 281.828 169.991 282.139 169.905 282.428C169.823 282.713 169.7 282.984 169.536 283.242C169.384 283.484 169.204 283.723 168.997 283.957C168.794 284.191 168.546 284.451 168.253 284.736C167.835 285.146 167.403 285.545 166.958 285.932C166.513 286.314 166.097 286.67 165.71 286.998H170.403V288Z" fill="#5D6174"/>
<path d="M250.44 283.635C250.44 285.201 250.194 286.352 249.702 287.086C249.214 287.816 248.454 288.182 247.423 288.182C246.376 288.182 245.61 287.811 245.126 287.068C244.645 286.326 244.405 285.186 244.405 283.646C244.405 282.096 244.649 280.951 245.137 280.213C245.626 279.471 246.387 279.1 247.423 279.1C248.469 279.1 249.233 279.477 249.714 280.23C250.198 280.98 250.44 282.115 250.44 283.635ZM248.899 286.295C249.036 285.979 249.128 285.607 249.175 285.182C249.225 284.752 249.251 284.236 249.251 283.635C249.251 283.041 249.225 282.525 249.175 282.088C249.128 281.65 249.034 281.279 248.893 280.975C248.757 280.674 248.569 280.447 248.331 280.295C248.096 280.143 247.794 280.066 247.423 280.066C247.055 280.066 246.751 280.143 246.509 280.295C246.27 280.447 246.081 280.678 245.94 280.986C245.807 281.275 245.716 281.652 245.665 282.117C245.618 282.582 245.594 283.092 245.594 283.646C245.594 284.256 245.616 284.766 245.659 285.176C245.702 285.586 245.794 285.953 245.934 286.277C246.063 286.582 246.245 286.814 246.479 286.975C246.717 287.135 247.032 287.215 247.423 287.215C247.79 287.215 248.094 287.139 248.337 286.986C248.579 286.834 248.766 286.604 248.899 286.295ZM257.313 283.799C257.501 283.967 257.655 284.178 257.776 284.432C257.897 284.686 257.958 285.014 257.958 285.416C257.958 285.814 257.885 286.18 257.741 286.512C257.596 286.844 257.393 287.133 257.132 287.379C256.839 287.652 256.493 287.855 256.094 287.988C255.7 288.117 255.266 288.182 254.794 288.182C254.309 288.182 253.833 288.123 253.364 288.006C252.895 287.893 252.51 287.768 252.21 287.631V286.406H252.298C252.63 286.625 253.02 286.807 253.469 286.951C253.919 287.096 254.352 287.168 254.77 287.168C255.016 287.168 255.278 287.127 255.555 287.045C255.833 286.963 256.057 286.842 256.229 286.682C256.409 286.51 256.542 286.32 256.628 286.113C256.717 285.906 256.762 285.645 256.762 285.328C256.762 285.016 256.712 284.758 256.61 284.555C256.512 284.348 256.376 284.186 256.2 284.068C256.024 283.947 255.811 283.865 255.561 283.822C255.311 283.775 255.042 283.752 254.753 283.752H254.225V282.779H254.635C255.229 282.779 255.702 282.656 256.053 282.41C256.409 282.16 256.587 281.797 256.587 281.32C256.587 281.109 256.542 280.926 256.452 280.77C256.362 280.609 256.237 280.479 256.077 280.377C255.909 280.275 255.729 280.205 255.538 280.166C255.346 280.127 255.13 280.107 254.887 280.107C254.516 280.107 254.122 280.174 253.704 280.307C253.286 280.439 252.891 280.627 252.52 280.869H252.462V279.645C252.739 279.508 253.108 279.383 253.569 279.27C254.034 279.152 254.483 279.094 254.917 279.094C255.342 279.094 255.717 279.133 256.042 279.211C256.366 279.289 256.659 279.414 256.921 279.586C257.202 279.773 257.415 280 257.559 280.266C257.704 280.531 257.776 280.842 257.776 281.197C257.776 281.682 257.604 282.105 257.26 282.469C256.921 282.828 256.518 283.055 256.053 283.148V283.23C256.241 283.262 256.456 283.328 256.698 283.43C256.94 283.527 257.145 283.65 257.313 283.799Z" fill="#5D6174"/>
<path d="M337.631 283.635C337.631 285.201 337.385 286.352 336.893 287.086C336.405 287.816 335.645 288.182 334.614 288.182C333.567 288.182 332.801 287.811 332.317 287.068C331.836 286.326 331.596 285.186 331.596 283.646C331.596 282.096 331.84 280.951 332.329 280.213C332.817 279.471 333.579 279.1 334.614 279.1C335.661 279.1 336.424 279.477 336.905 280.23C337.389 280.98 337.631 282.115 337.631 283.635ZM336.09 286.295C336.227 285.979 336.319 285.607 336.366 285.182C336.417 284.752 336.442 284.236 336.442 283.635C336.442 283.041 336.417 282.525 336.366 282.088C336.319 281.65 336.225 281.279 336.085 280.975C335.948 280.674 335.76 280.447 335.522 280.295C335.288 280.143 334.985 280.066 334.614 280.066C334.247 280.066 333.942 280.143 333.7 280.295C333.461 280.447 333.272 280.678 333.131 280.986C332.999 281.275 332.907 281.652 332.856 282.117C332.809 282.582 332.786 283.092 332.786 283.646C332.786 284.256 332.807 284.766 332.85 285.176C332.893 285.586 332.985 285.953 333.126 286.277C333.254 286.582 333.436 286.814 333.67 286.975C333.909 287.135 334.223 287.215 334.614 287.215C334.981 287.215 335.286 287.139 335.528 286.986C335.77 286.834 335.958 286.604 336.09 286.295ZM345.471 285.545H344.176V288H343.051V285.545H338.874V284.197L343.098 279.275H344.176V284.607H345.471V285.545ZM343.051 284.607V280.67L339.67 284.607H343.051Z" fill="#5D6174"/>
<path d="M425.309 283.635C425.309 285.201 425.063 286.352 424.571 287.086C424.083 287.816 423.323 288.182 422.292 288.182C421.245 288.182 420.479 287.811 419.995 287.068C419.514 286.326 419.274 285.186 419.274 283.646C419.274 282.096 419.518 280.951 420.006 280.213C420.495 279.471 421.256 279.1 422.292 279.1C423.338 279.1 424.102 279.477 424.583 280.23C425.067 280.98 425.309 282.115 425.309 283.635ZM423.768 286.295C423.905 285.979 423.997 285.607 424.044 285.182C424.094 284.752 424.12 284.236 424.12 283.635C424.12 283.041 424.094 282.525 424.044 282.088C423.997 281.65 423.903 281.279 423.762 280.975C423.626 280.674 423.438 280.447 423.2 280.295C422.965 280.143 422.663 280.066 422.292 280.066C421.924 280.066 421.62 280.143 421.378 280.295C421.139 280.447 420.95 280.678 420.809 280.986C420.676 281.275 420.585 281.652 420.534 282.117C420.487 282.582 420.463 283.092 420.463 283.646C420.463 284.256 420.485 284.766 420.528 285.176C420.571 285.586 420.663 285.953 420.803 286.277C420.932 286.582 421.114 286.814 421.348 286.975C421.587 287.135 421.901 287.215 422.292 287.215C422.659 287.215 422.963 287.139 423.206 286.986C423.448 286.834 423.635 286.604 423.768 286.295ZM432.879 285.229C432.879 285.635 432.805 286.023 432.657 286.395C432.508 286.766 432.305 287.078 432.047 287.332C431.766 287.605 431.43 287.816 431.04 287.965C430.653 288.109 430.204 288.182 429.692 288.182C429.215 288.182 428.756 288.131 428.315 288.029C427.874 287.932 427.501 287.812 427.196 287.672V286.436H427.278C427.598 286.639 427.973 286.812 428.403 286.957C428.833 287.098 429.254 287.168 429.669 287.168C429.946 287.168 430.213 287.129 430.471 287.051C430.733 286.973 430.965 286.836 431.169 286.641C431.34 286.473 431.469 286.271 431.555 286.037C431.645 285.803 431.69 285.531 431.69 285.223C431.69 284.922 431.637 284.668 431.532 284.461C431.43 284.254 431.288 284.088 431.104 283.963C430.901 283.814 430.653 283.711 430.36 283.652C430.071 283.59 429.747 283.559 429.387 283.559C429.044 283.559 428.712 283.582 428.391 283.629C428.075 283.676 427.801 283.723 427.571 283.77V279.275H432.821V280.301H428.702V282.621C428.87 282.605 429.042 282.594 429.217 282.586C429.393 282.578 429.545 282.574 429.674 282.574C430.147 282.574 430.561 282.615 430.917 282.697C431.272 282.775 431.598 282.916 431.895 283.119C432.208 283.334 432.45 283.611 432.622 283.951C432.794 284.291 432.879 284.717 432.879 285.229Z" fill="#5D6174"/>
<path d="M512.5 283.635C512.5 285.201 512.253 286.352 511.761 287.086C511.273 287.816 510.513 288.182 509.482 288.182C508.435 288.182 507.669 287.811 507.185 287.068C506.705 286.326 506.464 285.186 506.464 283.646C506.464 282.096 506.709 280.951 507.197 280.213C507.685 279.471 508.447 279.1 509.482 279.1C510.529 279.1 511.293 279.477 511.773 280.23C512.257 280.98 512.5 282.115 512.5 283.635ZM510.959 286.295C511.095 285.979 511.187 285.607 511.234 285.182C511.285 284.752 511.31 284.236 511.31 283.635C511.31 283.041 511.285 282.525 511.234 282.088C511.187 281.65 511.093 281.279 510.953 280.975C510.816 280.674 510.628 280.447 510.39 280.295C510.156 280.143 509.853 280.066 509.482 280.066C509.115 280.066 508.81 280.143 508.568 280.295C508.33 280.447 508.14 280.678 508 280.986C507.867 281.275 507.775 281.652 507.724 282.117C507.677 282.582 507.654 283.092 507.654 283.646C507.654 284.256 507.675 284.766 507.718 285.176C507.761 285.586 507.853 285.953 507.994 286.277C508.123 286.582 508.304 286.814 508.539 286.975C508.777 287.135 509.091 287.215 509.482 287.215C509.849 287.215 510.154 287.139 510.396 286.986C510.638 286.834 510.826 286.604 510.959 286.295ZM520.269 285.17C520.269 286.057 519.976 286.781 519.39 287.344C518.808 287.902 518.093 288.182 517.246 288.182C516.816 288.182 516.425 288.115 516.074 287.982C515.722 287.85 515.412 287.652 515.142 287.391C514.806 287.066 514.546 286.637 514.363 286.102C514.183 285.566 514.093 284.922 514.093 284.168C514.093 283.395 514.175 282.709 514.339 282.111C514.507 281.514 514.773 280.982 515.136 280.518C515.48 280.076 515.923 279.732 516.466 279.486C517.009 279.236 517.642 279.111 518.365 279.111C518.595 279.111 518.789 279.121 518.945 279.141C519.101 279.16 519.259 279.195 519.419 279.246V280.365H519.361C519.252 280.307 519.085 280.252 518.863 280.201C518.644 280.146 518.419 280.119 518.189 280.119C517.349 280.119 516.679 280.383 516.179 280.91C515.679 281.434 515.388 282.143 515.306 283.037C515.634 282.838 515.957 282.688 516.273 282.586C516.593 282.48 516.962 282.428 517.38 282.428C517.752 282.428 518.078 282.463 518.359 282.533C518.644 282.6 518.935 282.736 519.232 282.943C519.576 283.182 519.834 283.482 520.005 283.846C520.181 284.209 520.269 284.65 520.269 285.17ZM519.08 285.217C519.08 284.854 519.025 284.553 518.916 284.314C518.81 284.076 518.634 283.869 518.388 283.693C518.209 283.568 518.009 283.486 517.791 283.447C517.572 283.408 517.343 283.389 517.105 283.389C516.773 283.389 516.464 283.428 516.179 283.506C515.894 283.584 515.601 283.705 515.3 283.869C515.293 283.955 515.287 284.039 515.283 284.121C515.279 284.199 515.277 284.299 515.277 284.42C515.277 285.037 515.339 285.525 515.464 285.885C515.593 286.24 515.769 286.521 515.992 286.729C516.171 286.9 516.365 287.027 516.572 287.109C516.783 287.188 517.011 287.227 517.257 287.227C517.824 287.227 518.269 287.055 518.593 286.711C518.918 286.363 519.08 285.865 519.08 285.217Z" fill="#5D6174"/>
<path d="M17.0523 266.628L13.1031 274.046H11.8492L16.0504 266.347H11.0816V265.321H17.0523V266.628ZM25.9937 274.046H24.4879L21.0367 270.161L20.1695 271.087V274.046H19.0093V265.321H20.1695V269.874L24.4058 265.321H25.8121L21.9156 269.423L25.9937 274.046Z" fill="#5D6174"/>
<path d="M17.0172 203.256C17.0172 204.017 16.9293 204.709 16.7535 205.33C16.5816 205.951 16.3199 206.48 15.9683 206.918C15.6129 207.363 15.1675 207.707 14.6324 207.949C14.0972 208.191 13.4683 208.312 12.7457 208.312C12.5425 208.312 12.3511 208.301 12.1715 208.277C11.9918 208.258 11.8316 208.224 11.691 208.178V207.058H11.7496C11.8629 207.117 12.023 207.174 12.23 207.228C12.4371 207.279 12.6675 207.305 12.9215 207.305C13.7847 207.305 14.4605 207.047 14.9488 206.531C15.441 206.012 15.7261 205.297 15.8043 204.387C15.441 204.605 15.0992 204.762 14.7789 204.855C14.4586 204.949 14.109 204.996 13.73 204.996C13.3707 204.996 13.0445 204.961 12.7515 204.891C12.4625 204.82 12.1715 204.683 11.8785 204.48C11.5347 204.242 11.275 203.939 11.0992 203.572C10.9273 203.205 10.8414 202.766 10.8414 202.254C10.8414 201.363 11.1343 200.639 11.7203 200.08C12.3062 199.521 13.0211 199.242 13.8648 199.242C14.2867 199.242 14.6773 199.308 15.0367 199.441C15.3961 199.57 15.7105 199.766 15.98 200.027C16.3121 200.351 16.5679 200.769 16.7476 201.281C16.9273 201.789 17.0172 202.447 17.0172 203.256ZM15.8336 203.004C15.8336 202.398 15.7711 201.912 15.6461 201.545C15.5211 201.178 15.3492 200.892 15.1304 200.689C14.9468 200.514 14.7496 200.389 14.5386 200.314C14.3277 200.236 14.0992 200.197 13.8531 200.197C13.2906 200.197 12.8453 200.373 12.5172 200.724C12.1929 201.076 12.0308 201.57 12.0308 202.207C12.0308 202.578 12.0836 202.881 12.189 203.115C12.2945 203.349 12.4722 203.555 12.7222 203.73C12.898 203.851 13.0914 203.933 13.3023 203.976C13.5133 204.016 13.7476 204.035 14.0054 204.035C14.3101 204.035 14.6187 203.994 14.9312 203.912C15.2437 203.83 15.5367 203.711 15.8101 203.555C15.814 203.473 15.8179 203.392 15.8218 203.314C15.8297 203.232 15.8336 203.129 15.8336 203.004ZM25.9937 208.142H24.4879L21.0367 204.258L20.1695 205.183V208.142H19.0093V199.418H20.1695V203.971L24.4058 199.418H25.8121L21.9156 203.519L25.9937 208.142Z" fill="#5D6174"/>
<path d="M8.90192 142.807H4.17927V141.916H5.99567V136.069H4.17927V135.272C4.42536 135.272 4.68903 135.252 4.97028 135.213C5.25153 135.17 5.46442 135.11 5.60896 135.032C5.78864 134.934 5.92927 134.811 6.03083 134.662C6.1363 134.51 6.19685 134.307 6.21247 134.053H7.12067V141.916H8.90192V142.807ZM16.5308 142.807H11.8082V141.916H13.6246V136.069H11.8082V135.272C12.0543 135.272 12.3179 135.252 12.5992 135.213C12.8804 135.17 13.0933 135.11 13.2379 135.032C13.4175 134.934 13.5582 134.811 13.6597 134.662C13.7652 134.51 13.8258 134.307 13.8414 134.053H14.7496V141.916H16.5308V142.807ZM25.9937 142.807H24.4879L21.0367 138.922L20.1695 139.848V142.807H19.0093V134.082H20.1695V138.635L24.4058 134.082H25.8121L21.9156 138.184L25.9937 142.807Z" fill="#5D6174"/>
<path d="M8.90192 76.9035H4.17927V76.0129H5.99567V70.1652H4.17927V69.3683C4.42536 69.3683 4.68903 69.3488 4.97028 69.3098C5.25153 69.2668 5.46442 69.2062 5.60896 69.1281C5.78864 69.0305 5.92927 68.9074 6.03083 68.759C6.1363 68.6066 6.19685 68.4035 6.21247 68.1496H7.12067V76.0129H8.90192V76.9035ZM16.2613 72.7023C16.4488 72.8703 16.6031 73.0812 16.7242 73.3351C16.8453 73.5891 16.9058 73.9172 16.9058 74.3195C16.9058 74.718 16.8336 75.0832 16.689 75.4152C16.5445 75.7473 16.3414 76.0363 16.0797 76.2824C15.7867 76.5558 15.441 76.759 15.0425 76.8918C14.648 77.0207 14.2144 77.0851 13.7418 77.0851C13.2574 77.0851 12.7808 77.0266 12.3121 76.9094C11.8433 76.7961 11.4586 76.6711 11.1578 76.5344V75.3098H11.2457C11.5777 75.5285 11.9683 75.7101 12.4175 75.8547C12.8668 75.9992 13.3004 76.0715 13.7183 76.0715C13.9644 76.0715 14.2261 76.0305 14.5035 75.9484C14.7808 75.8664 15.0054 75.7453 15.1773 75.5851C15.357 75.4133 15.4898 75.2238 15.5758 75.0168C15.6656 74.8098 15.7105 74.548 15.7105 74.2316C15.7105 73.9191 15.6597 73.6613 15.5582 73.4582C15.4605 73.2512 15.3238 73.0891 15.148 72.9719C14.9722 72.8508 14.7593 72.7687 14.5093 72.7258C14.2593 72.6789 13.9898 72.6555 13.7008 72.6555H13.1734V71.6828H13.5836C14.1773 71.6828 14.65 71.5598 15.0015 71.3137C15.357 71.0637 15.5347 70.7004 15.5347 70.2238C15.5347 70.0129 15.4898 69.8293 15.4 69.673C15.3101 69.5129 15.1851 69.382 15.025 69.2805C14.857 69.1789 14.6773 69.1086 14.4859 69.0695C14.2945 69.0305 14.0777 69.0109 13.8355 69.0109C13.4644 69.0109 13.0699 69.0773 12.6519 69.2101C12.234 69.343 11.8394 69.5305 11.4683 69.7726H11.4097V68.548C11.6871 68.4113 12.0562 68.2863 12.5172 68.173C12.982 68.0558 13.4312 67.9973 13.8648 67.9973C14.2906 67.9973 14.6656 68.0363 14.9898 68.1144C15.314 68.1926 15.607 68.3176 15.8687 68.4894C16.15 68.6769 16.3629 68.9035 16.5074 69.1691C16.6519 69.4348 16.7242 69.7453 16.7242 70.1008C16.7242 70.5851 16.5523 71.009 16.2086 71.3723C15.8687 71.7316 15.4664 71.9582 15.0015 72.0519V72.134C15.189 72.1652 15.4039 72.2316 15.6461 72.3332C15.8883 72.4308 16.0933 72.5539 16.2613 72.7023ZM25.9937 76.9035H24.4879L21.0367 73.0187L20.1695 73.9445V76.9035H19.0093V68.1789H20.1695V72.7316L24.4058 68.1789H25.8121L21.9156 72.2805L25.9937 76.9035Z" fill="#5D6174"/>
<path d="M8.90192 15H4.17927V14.1094H5.99567V8.26172H4.17927V7.46484C4.42536 7.46484 4.68903 7.44531 4.97028 7.40625C5.25153 7.36328 5.46442 7.30273 5.60896 7.22461C5.78864 7.12695 5.92927 7.00391 6.03083 6.85547C6.1363 6.70312 6.19685 6.5 6.21247 6.24609H7.12067V14.1094H8.90192V15ZM16.9586 12.2285C16.9586 12.6348 16.8843 13.0234 16.7359 13.3945C16.5875 13.7656 16.3843 14.0781 16.1265 14.332C15.8453 14.6055 15.5093 14.8164 15.1187 14.9648C14.732 15.1094 14.2828 15.1816 13.7711 15.1816C13.2945 15.1816 12.8355 15.1309 12.3941 15.0293C11.9527 14.9316 11.5797 14.8125 11.275 14.6719V13.4355H11.357C11.6773 13.6387 12.0523 13.8125 12.482 13.957C12.9117 14.0977 13.3336 14.168 13.7476 14.168C14.025 14.168 14.2925 14.1289 14.5504 14.0508C14.8121 13.9727 15.0445 13.8359 15.2476 13.6406C15.4195 13.4727 15.5484 13.2715 15.6343 13.0371C15.7242 12.8027 15.7691 12.5312 15.7691 12.2227C15.7691 11.9219 15.7164 11.668 15.6109 11.4609C15.5093 11.2539 15.3668 11.0879 15.1832 10.9629C14.98 10.8145 14.732 10.7109 14.439 10.6523C14.15 10.5898 13.8258 10.5586 13.4664 10.5586C13.1226 10.5586 12.7906 10.582 12.4703 10.6289C12.1539 10.6758 11.8804 10.7227 11.65 10.7695V6.27539H16.9V7.30078H12.7808V9.62109C12.9488 9.60547 13.1207 9.59375 13.2965 9.58594C13.4722 9.57812 13.6246 9.57422 13.7535 9.57422C14.2261 9.57422 14.6402 9.61523 14.9957 9.69727C15.3511 9.77539 15.6773 9.91602 15.9742 10.1191C16.2867 10.334 16.5289 10.6113 16.7008 10.9512C16.8726 11.291 16.9586 11.7168 16.9586 12.2285ZM25.9937 15H24.4879L21.0367 11.1152L20.1695 12.041V15H19.0093V6.27539H20.1695V10.8281L24.4058 6.27539H25.8121L21.9156 10.377L25.9937 15Z" fill="#5D6174"/>
</svg>
