<svg width="112" height="112" viewBox="0 0 112 112" fill="none" xmlns="http://www.w3.org/2000/svg">
<path d="M48.6163 50.853L42.6486 64.3984H40.0338L45.9913 51.4683H38.2701V49.4688H48.6163V50.853ZM51.2561 56.9951L52.0662 49.4688H60.0847V51.6221H54.1374L53.7273 55.1904C54.4177 54.7939 55.197 54.5957 56.0652 54.5957C57.487 54.5957 58.5911 55.0503 59.3772 55.9595C60.1702 56.8687 60.5666 58.0923 60.5666 59.6304C60.5666 61.1479 60.1291 62.3579 59.2541 63.2603C58.3791 64.1558 57.1794 64.6035 55.655 64.6035C54.2878 64.6035 53.1531 64.2173 52.2507 63.4448C51.3552 62.6655 50.8699 61.6401 50.7947 60.3687H53.2043C53.3 61.0933 53.5598 61.6504 53.9836 62.04C54.4075 62.4229 54.9612 62.6143 55.6448 62.6143C56.4104 62.6143 57.0051 62.3408 57.4289 61.7939C57.8596 61.2471 58.0749 60.502 58.0749 59.5586C58.0749 58.6494 57.8391 57.9316 57.3674 57.4053C56.8957 56.8721 56.2463 56.6055 55.4192 56.6055C54.968 56.6055 54.5852 56.667 54.2707 56.79C53.9563 56.9062 53.6145 57.1387 53.2453 57.4873L51.2561 56.9951ZM62.3963 52.3398C62.3963 51.4375 62.6869 50.6992 63.2679 50.125C63.849 49.5439 64.6112 49.2534 65.5546 49.2534C66.5116 49.2534 67.2772 49.5439 67.8514 50.125C68.4325 50.6992 68.723 51.4546 68.723 52.3911V53.1294C68.723 54.0249 68.4325 54.7598 67.8514 55.334C67.2772 55.9082 66.5184 56.1953 65.5751 56.1953C64.6522 56.1953 63.89 55.915 63.2884 55.3545C62.6937 54.7871 62.3963 54.0249 62.3963 53.0679V52.3398ZM64.1395 53.1294C64.1395 53.6011 64.2694 53.9839 64.5292 54.2778C64.7958 54.5649 65.1444 54.7085 65.5751 54.7085C65.9989 54.7085 66.3407 54.5649 66.6004 54.2778C66.8602 53.9839 66.9901 53.5874 66.9901 53.0884V52.3398C66.9901 51.8682 66.8568 51.4854 66.5902 51.1914C66.3304 50.8975 65.9852 50.7505 65.5546 50.7505C65.1239 50.7505 64.7787 50.9009 64.5189 51.2017C64.266 51.4956 64.1395 51.8853 64.1395 52.3706V53.1294ZM69.5741 60.7378C69.5741 59.8218 69.8714 59.0801 70.4662 58.5127C71.0609 57.9453 71.8197 57.6616 72.7425 57.6616C73.6722 57.6616 74.431 57.9453 75.0189 58.5127C75.6136 59.0801 75.911 59.8457 75.911 60.8096V61.5376C75.911 62.4263 75.6239 63.1611 75.0497 63.7422C74.4823 64.3164 73.7201 64.6035 72.763 64.6035C71.806 64.6035 71.0336 64.3198 70.4457 63.7524C69.8646 63.1782 69.5741 62.4229 69.5741 61.4863V60.7378ZM71.3172 61.5376C71.3172 62.0024 71.4505 62.3853 71.7171 62.686C71.9906 62.98 72.3392 63.127 72.763 63.127C73.2005 63.127 73.5423 62.9868 73.7884 62.7065C74.0414 62.4194 74.1678 62.0195 74.1678 61.5068V60.7378C74.1678 60.2593 74.0345 59.8765 73.7679 59.5894C73.5013 59.3022 73.1595 59.1587 72.7425 59.1587C72.3187 59.1587 71.9735 59.3022 71.7069 59.5894C71.4471 59.8765 71.3172 60.2729 71.3172 60.7788V61.5376ZM66.0878 63.2808L64.806 62.5425L72.0965 50.8735L73.3783 51.6118L66.0878 63.2808Z" fill="#2F344C"/>
<path d="M108.746 55.9823C108.746 85.0617 85.1578 108.638 56.056 108.638C26.9542 108.638 3.36572 85.0617 3.36572 55.9823C3.36572 26.9029 26.9542 3.32617 56.056 3.32617C85.1578 3.32617 108.746 26.9029 108.746 55.9823Z" stroke="#EFF1F3" stroke-width="6"/>
<mask id="mask0" mask-type="alpha" maskUnits="userSpaceOnUse" x="0" y="0" width="112" height="112">
<path fill-rule="evenodd" clip-rule="evenodd" d="M112 0H56V56H0V112H112V77V56V0Z" fill="#C4C4C4"/>
</mask>
<g mask="url(#mask0)">
<path d="M108.746 55.9823C108.746 85.0617 85.1578 108.638 56.056 108.638C26.9542 108.638 3.36572 85.0617 3.36572 55.9823C3.36572 26.9029 26.9542 3.32617 56.056 3.32617C85.1578 3.32617 108.746 26.9029 108.746 55.9823Z" stroke="#5EC5FF" stroke-width="6"/>
</g>
</svg>
