<svg width="546" height="302" viewBox="0 0 546 302" fill="none" xmlns="http://www.w3.org/2000/svg">
<g filter="url(#filter0_d)">
<rect x="169" y="19" width="337" height="222" rx="9" fill="white"/>
</g>
<rect x="271" y="49" width="208" height="30" fill="#F6F7F8"/>
<rect opacity="0.5" x="284" y="60" width="82" height="8" fill="#2F344C"/>
<rect opacity="0.5" x="449" y="60" width="17" height="8" fill="#2F344C"/>
<rect opacity="0.5" x="284" y="90" width="82" height="8" fill="#2F344C"/>
<rect opacity="0.5" x="449" y="90" width="17" height="8" fill="#2F344C"/>
<rect x="271" y="109" width="208" height="30" fill="#F6F7F8"/>
<rect opacity="0.5" x="284" y="120" width="82" height="8" fill="#2F344C"/>
<rect opacity="0.5" x="449" y="120" width="17" height="8" fill="#2F344C"/>
<rect opacity="0.5" x="284" y="150" width="82" height="8" fill="#2F344C"/>
<rect opacity="0.5" x="449" y="150" width="17" height="8" fill="#2F344C"/>
<rect x="271" y="169" width="208" height="30" fill="#F6F7F8"/>
<rect opacity="0.5" x="284" y="180" width="82" height="8" fill="#2F344C"/>
<rect opacity="0.5" x="449" y="180" width="17" height="8" fill="#2F344C"/>
<g filter="url(#filter1_d)">
<rect x="40" y="49" width="192" height="173" rx="9" fill="white"/>
</g>
<path d="M131.476 124.401C131.701 124.401 131.875 124.466 131.996 124.595C132.117 124.717 132.178 124.877 132.178 125.076C132.178 125.275 132.117 125.483 131.996 125.699L127.853 133.219C127.68 133.513 127.442 133.66 127.139 133.66C126.931 133.66 126.745 133.591 126.58 133.453C126.424 133.305 126.346 133.128 126.346 132.92C126.346 132.773 126.39 132.626 126.476 132.479L130.204 125.751H126.281C125.762 125.751 125.502 125.531 125.502 125.089C125.502 124.63 125.762 124.401 126.281 124.401H131.476ZM137.108 127.699C137.679 127.699 138.181 127.825 138.614 128.076C139.056 128.318 139.398 128.66 139.64 129.102C139.883 129.544 140.004 130.05 140.004 130.621C140.004 131.219 139.865 131.747 139.588 132.206C139.32 132.665 138.934 133.024 138.432 133.284C137.939 133.535 137.367 133.66 136.718 133.66C136.181 133.66 135.653 133.574 135.134 133.401C134.623 133.219 134.186 132.976 133.822 132.673C133.623 132.5 133.523 132.297 133.523 132.063C133.523 131.873 133.575 131.712 133.679 131.583C133.792 131.444 133.921 131.375 134.069 131.375C134.155 131.375 134.237 131.392 134.315 131.427C134.393 131.453 134.484 131.5 134.588 131.57C134.934 131.812 135.272 131.998 135.601 132.128C135.93 132.258 136.281 132.323 136.653 132.323C137.225 132.323 137.662 132.18 137.965 131.894C138.268 131.608 138.419 131.202 138.419 130.673C138.419 130.163 138.263 129.76 137.952 129.466C137.649 129.163 137.229 129.011 136.692 129.011C136.354 129.011 136.051 129.059 135.783 129.154C135.523 129.249 135.255 129.409 134.978 129.634C134.813 129.747 134.644 129.803 134.471 129.803C134.298 129.803 134.151 129.751 134.03 129.647C133.908 129.544 133.848 129.405 133.848 129.232V125.18C133.848 124.937 133.917 124.747 134.056 124.608C134.194 124.47 134.389 124.401 134.64 124.401H138.965C139.484 124.401 139.744 124.617 139.744 125.05C139.744 125.483 139.484 125.699 138.965 125.699H135.484V128.167C135.926 127.855 136.467 127.699 137.108 127.699ZM144.83 133.375C144.752 133.513 144.657 133.617 144.544 133.686C144.432 133.756 144.319 133.79 144.206 133.79C144.051 133.79 143.912 133.734 143.791 133.621C143.678 133.509 143.622 133.366 143.622 133.193C143.622 133.046 143.665 132.899 143.752 132.751L148.479 124.582C148.557 124.444 148.652 124.34 148.765 124.271C148.878 124.202 148.99 124.167 149.103 124.167C149.258 124.167 149.393 124.223 149.505 124.336C149.626 124.448 149.687 124.591 149.687 124.764C149.687 124.911 149.644 125.059 149.557 125.206L144.83 133.375ZM143.388 129.868C142.661 129.868 142.094 129.63 141.687 129.154C141.28 128.678 141.077 127.981 141.077 127.063C141.077 126.154 141.28 125.461 141.687 124.985C142.094 124.509 142.661 124.271 143.388 124.271C144.116 124.271 144.683 124.509 145.09 124.985C145.505 125.461 145.713 126.154 145.713 127.063C145.713 127.981 145.505 128.678 145.09 129.154C144.683 129.63 144.116 129.868 143.388 129.868ZM143.388 128.816C143.717 128.816 143.955 128.682 144.103 128.414C144.258 128.137 144.336 127.686 144.336 127.063C144.336 126.457 144.258 126.015 144.103 125.738C143.947 125.461 143.709 125.323 143.388 125.323C143.068 125.323 142.83 125.461 142.674 125.738C142.527 126.007 142.453 126.448 142.453 127.063C142.453 127.686 142.527 128.137 142.674 128.414C142.83 128.682 143.068 128.816 143.388 128.816ZM149.921 133.647C149.194 133.647 148.626 133.409 148.219 132.933C147.813 132.457 147.609 131.756 147.609 130.829C147.609 129.92 147.813 129.232 148.219 128.764C148.635 128.288 149.202 128.05 149.921 128.05C150.648 128.05 151.215 128.288 151.622 128.764C152.029 129.241 152.232 129.933 152.232 130.842C152.232 131.76 152.029 132.457 151.622 132.933C151.215 133.409 150.648 133.647 149.921 133.647ZM149.921 132.596C150.241 132.596 150.479 132.461 150.635 132.193C150.791 131.916 150.869 131.466 150.869 130.842C150.869 130.236 150.791 129.795 150.635 129.518C150.479 129.241 150.241 129.102 149.921 129.102C149.6 129.102 149.362 129.241 149.207 129.518C149.051 129.795 148.973 130.236 148.973 130.842C148.973 131.466 149.051 131.916 149.207 132.193C149.362 132.461 149.6 132.596 149.921 132.596ZM111.505 150.673C110.622 150.673 109.847 150.483 109.18 150.102C108.522 149.721 108.016 149.176 107.661 148.466C107.306 147.756 107.128 146.925 107.128 145.972C107.128 145.02 107.306 144.193 107.661 143.492C108.016 142.782 108.522 142.236 109.18 141.855C109.847 141.474 110.622 141.284 111.505 141.284C112.076 141.284 112.613 141.37 113.115 141.544C113.618 141.708 114.063 141.95 114.453 142.271C114.566 142.357 114.644 142.448 114.687 142.544C114.73 142.639 114.752 142.756 114.752 142.894C114.752 143.085 114.7 143.245 114.596 143.375C114.492 143.505 114.367 143.57 114.219 143.57C114.046 143.57 113.869 143.509 113.687 143.388C113.315 143.111 112.968 142.92 112.648 142.816C112.328 142.704 111.973 142.647 111.583 142.647C110.683 142.647 109.999 142.929 109.531 143.492C109.072 144.054 108.843 144.881 108.843 145.972C108.843 147.072 109.072 147.903 109.531 148.466C109.999 149.028 110.683 149.31 111.583 149.31C111.955 149.31 112.297 149.254 112.609 149.141C112.929 149.028 113.289 148.838 113.687 148.57C113.773 148.518 113.86 148.474 113.947 148.44C114.033 148.405 114.124 148.388 114.219 148.388C114.367 148.388 114.492 148.453 114.596 148.583C114.7 148.712 114.752 148.873 114.752 149.063C114.752 149.193 114.73 149.31 114.687 149.414C114.644 149.509 114.566 149.6 114.453 149.686C114.063 150.007 113.618 150.254 113.115 150.427C112.613 150.591 112.076 150.673 111.505 150.673ZM118.842 150.66C118.193 150.66 117.622 150.526 117.128 150.258C116.643 149.989 116.267 149.604 115.998 149.102C115.73 148.6 115.596 148.015 115.596 147.349C115.596 146.682 115.73 146.102 115.998 145.608C116.267 145.106 116.643 144.721 117.128 144.453C117.622 144.184 118.193 144.05 118.842 144.05C119.492 144.05 120.059 144.184 120.544 144.453C121.037 144.721 121.414 145.106 121.674 145.608C121.942 146.102 122.076 146.682 122.076 147.349C122.076 148.015 121.942 148.6 121.674 149.102C121.414 149.604 121.037 149.989 120.544 150.258C120.059 150.526 119.492 150.66 118.842 150.66ZM118.829 149.401C119.357 149.401 119.76 149.228 120.037 148.881C120.314 148.535 120.453 148.024 120.453 147.349C120.453 146.682 120.314 146.176 120.037 145.829C119.76 145.474 119.362 145.297 118.842 145.297C118.323 145.297 117.92 145.474 117.635 145.829C117.357 146.176 117.219 146.682 117.219 147.349C117.219 148.024 117.357 148.535 117.635 148.881C117.912 149.228 118.31 149.401 118.829 149.401ZM130.962 144.05C131.654 144.05 132.183 144.258 132.546 144.673C132.919 145.08 133.105 145.743 133.105 146.66V149.855C133.105 150.106 133.027 150.301 132.871 150.44C132.724 150.57 132.529 150.634 132.286 150.634C132.053 150.634 131.858 150.57 131.702 150.44C131.555 150.301 131.481 150.106 131.481 149.855V146.66C131.481 146.184 131.395 145.847 131.222 145.647C131.057 145.44 130.802 145.336 130.455 145.336C130.031 145.336 129.693 145.483 129.442 145.777C129.191 146.063 129.066 146.457 129.066 146.959V149.855C129.066 150.106 128.988 150.301 128.832 150.44C128.685 150.57 128.494 150.634 128.26 150.634C128.027 150.634 127.832 150.57 127.676 150.44C127.52 150.301 127.442 150.106 127.442 149.855V146.66C127.442 146.184 127.356 145.847 127.183 145.647C127.018 145.44 126.763 145.336 126.416 145.336C125.992 145.336 125.654 145.483 125.403 145.777C125.161 146.063 125.04 146.457 125.04 146.959V149.855C125.04 150.106 124.962 150.301 124.806 150.44C124.65 150.57 124.455 150.634 124.222 150.634C123.988 150.634 123.793 150.57 123.637 150.44C123.49 150.301 123.416 150.106 123.416 149.855V144.829C123.416 144.587 123.494 144.401 123.65 144.271C123.806 144.141 124.001 144.076 124.235 144.076C124.46 144.076 124.641 144.141 124.78 144.271C124.927 144.392 125.001 144.57 125.001 144.803V145.115C125.2 144.769 125.464 144.505 125.793 144.323C126.131 144.141 126.516 144.05 126.949 144.05C127.901 144.05 128.538 144.448 128.858 145.245C129.048 144.881 129.33 144.591 129.702 144.375C130.074 144.158 130.494 144.05 130.962 144.05ZM138.404 144.05C138.949 144.05 139.434 144.189 139.859 144.466C140.291 144.743 140.625 145.137 140.859 145.647C141.101 146.15 141.222 146.73 141.222 147.388C141.222 148.046 141.101 148.621 140.859 149.115C140.625 149.609 140.296 149.989 139.872 150.258C139.447 150.526 138.958 150.66 138.404 150.66C137.954 150.66 137.551 150.565 137.196 150.375C136.841 150.184 136.568 149.92 136.378 149.583V152.232C136.378 152.457 136.304 152.634 136.157 152.764C136.01 152.894 135.815 152.959 135.573 152.959C135.33 152.959 135.131 152.89 134.975 152.751C134.828 152.613 134.755 152.431 134.755 152.206V144.842C134.755 144.608 134.824 144.422 134.962 144.284C135.11 144.145 135.304 144.076 135.547 144.076C135.789 144.076 135.984 144.145 136.131 144.284C136.278 144.422 136.352 144.608 136.352 144.842V145.167C136.543 144.812 136.815 144.539 137.17 144.349C137.534 144.15 137.945 144.05 138.404 144.05ZM137.975 149.401C138.486 149.401 138.885 149.228 139.17 148.881C139.456 148.526 139.599 148.028 139.599 147.388C139.599 146.73 139.456 146.219 139.17 145.855C138.885 145.492 138.486 145.31 137.975 145.31C137.456 145.31 137.053 145.487 136.768 145.842C136.491 146.197 136.352 146.704 136.352 147.362C136.352 148.011 136.491 148.513 136.768 148.868C137.053 149.223 137.456 149.401 137.975 149.401ZM143.36 150.634C143.126 150.634 142.931 150.57 142.775 150.44C142.628 150.301 142.554 150.106 142.554 149.855V142.102C142.554 141.851 142.628 141.66 142.775 141.531C142.931 141.401 143.126 141.336 143.36 141.336C143.593 141.336 143.788 141.401 143.944 141.531C144.1 141.66 144.178 141.851 144.178 142.102V149.855C144.178 150.106 144.1 150.301 143.944 150.44C143.788 150.57 143.593 150.634 143.36 150.634ZM150.878 148.816C151.025 148.816 151.142 148.873 151.229 148.985C151.324 149.098 151.371 149.249 151.371 149.44C151.371 149.708 151.211 149.933 150.891 150.115C150.597 150.28 150.263 150.414 149.891 150.518C149.519 150.613 149.164 150.66 148.826 150.66C147.804 150.66 146.995 150.366 146.397 149.777C145.8 149.189 145.501 148.383 145.501 147.362C145.501 146.712 145.631 146.137 145.891 145.634C146.151 145.132 146.514 144.743 146.982 144.466C147.458 144.189 147.995 144.05 148.592 144.05C149.164 144.05 149.662 144.176 150.086 144.427C150.51 144.678 150.839 145.033 151.073 145.492C151.307 145.95 151.423 146.492 151.423 147.115C151.423 147.487 151.259 147.673 150.93 147.673H147.099C147.151 148.271 147.32 148.712 147.605 148.998C147.891 149.275 148.307 149.414 148.852 149.414C149.129 149.414 149.371 149.379 149.579 149.31C149.796 149.241 150.038 149.145 150.307 149.024C150.566 148.886 150.757 148.816 150.878 148.816ZM148.631 145.193C148.19 145.193 147.835 145.331 147.566 145.608C147.307 145.886 147.151 146.284 147.099 146.803H150.034C150.017 146.275 149.887 145.877 149.644 145.608C149.402 145.331 149.064 145.193 148.631 145.193ZM155.961 149.427C156.394 149.453 156.611 149.647 156.611 150.011C156.611 150.219 156.524 150.379 156.351 150.492C156.186 150.596 155.948 150.639 155.637 150.621L155.286 150.596C153.831 150.492 153.104 149.712 153.104 148.258V145.427H152.455C152.221 145.427 152.039 145.375 151.909 145.271C151.788 145.167 151.728 145.015 151.728 144.816C151.728 144.617 151.788 144.466 151.909 144.362C152.039 144.258 152.221 144.206 152.455 144.206H153.104V143.011C153.104 142.777 153.178 142.591 153.325 142.453C153.472 142.314 153.671 142.245 153.922 142.245C154.165 142.245 154.36 142.314 154.507 142.453C154.654 142.591 154.728 142.777 154.728 143.011V144.206H155.831C156.065 144.206 156.243 144.258 156.364 144.362C156.494 144.466 156.559 144.617 156.559 144.816C156.559 145.015 156.494 145.167 156.364 145.271C156.243 145.375 156.065 145.427 155.831 145.427H154.728V148.375C154.728 149.015 155.022 149.357 155.611 149.401L155.961 149.427ZM162.483 148.816C162.63 148.816 162.747 148.873 162.833 148.985C162.929 149.098 162.976 149.249 162.976 149.44C162.976 149.708 162.816 149.933 162.496 150.115C162.201 150.28 161.868 150.414 161.496 150.518C161.123 150.613 160.768 150.66 160.431 150.66C159.409 150.66 158.6 150.366 158.002 149.777C157.405 149.189 157.106 148.383 157.106 147.362C157.106 146.712 157.236 146.137 157.496 145.634C157.755 145.132 158.119 144.743 158.587 144.466C159.063 144.189 159.6 144.05 160.197 144.05C160.768 144.05 161.266 144.176 161.69 144.427C162.115 144.678 162.444 145.033 162.677 145.492C162.911 145.95 163.028 146.492 163.028 147.115C163.028 147.487 162.864 147.673 162.535 147.673H158.703C158.755 148.271 158.924 148.712 159.21 148.998C159.496 149.275 159.911 149.414 160.457 149.414C160.734 149.414 160.976 149.379 161.184 149.31C161.4 149.241 161.643 149.145 161.911 149.024C162.171 148.886 162.361 148.816 162.483 148.816ZM160.236 145.193C159.794 145.193 159.439 145.331 159.171 145.608C158.911 145.886 158.755 146.284 158.703 146.803H161.638C161.621 146.275 161.491 145.877 161.249 145.608C161.006 145.331 160.669 145.193 160.236 145.193ZM169.655 141.336C169.897 141.336 170.096 141.405 170.252 141.544C170.408 141.682 170.486 141.864 170.486 142.089V149.855C170.486 150.089 170.412 150.275 170.265 150.414C170.118 150.552 169.923 150.621 169.681 150.621C169.438 150.621 169.243 150.552 169.096 150.414C168.949 150.275 168.876 150.089 168.876 149.855V149.531C168.685 149.886 168.408 150.163 168.044 150.362C167.689 150.561 167.282 150.66 166.824 150.66C166.278 150.66 165.789 150.522 165.356 150.245C164.932 149.968 164.598 149.578 164.356 149.076C164.122 148.565 164.005 147.981 164.005 147.323C164.005 146.665 164.122 146.089 164.356 145.595C164.598 145.102 164.932 144.721 165.356 144.453C165.78 144.184 166.269 144.05 166.824 144.05C167.282 144.05 167.689 144.145 168.044 144.336C168.399 144.526 168.672 144.795 168.863 145.141V142.063C168.863 141.847 168.932 141.673 169.07 141.544C169.218 141.405 169.412 141.336 169.655 141.336ZM167.252 149.401C167.772 149.401 168.17 149.223 168.447 148.868C168.733 148.513 168.876 148.007 168.876 147.349C168.876 146.691 168.733 146.189 168.447 145.842C168.17 145.487 167.776 145.31 167.265 145.31C166.746 145.31 166.343 145.483 166.057 145.829C165.772 146.176 165.629 146.673 165.629 147.323C165.629 147.981 165.772 148.492 166.057 148.855C166.343 149.219 166.741 149.401 167.252 149.401Z" fill="#2F344C"/>
<path d="M192.569 138.566C192.569 168.728 168.005 193.225 137.649 193.225C107.293 193.225 82.7295 168.728 82.7295 138.566C82.7295 108.403 107.293 83.9067 137.649 83.9067C168.005 83.9067 192.569 108.403 192.569 138.566Z" stroke="#EFF1F3" stroke-width="12.1754"/>
<mask id="mask0" mask-type="alpha" maskUnits="userSpaceOnUse" x="62" y="60" width="218" height="179">
<path fill-rule="evenodd" clip-rule="evenodd" d="M280 60H137.649V137.756H62V239H204.351V161.244H280V60Z" fill="#C4C4C4"/>
</mask>
<g mask="url(#mask0)">
<path d="M192.569 138.566C192.569 168.728 168.005 193.225 137.649 193.225C107.293 193.225 82.7295 168.728 82.7295 138.566C82.7295 108.403 107.293 83.9067 137.649 83.9067C168.005 83.9067 192.569 108.403 192.569 138.566Z" stroke="#5EC5FF" stroke-width="12.1754"/>
</g>
<defs>
<filter id="filter0_d" x="129" y="0" width="417" height="302" filterUnits="userSpaceOnUse" color-interpolation-filters="sRGB">
<feFlood flood-opacity="0" result="BackgroundImageFix"/>
<feColorMatrix in="SourceAlpha" type="matrix" values="0 0 0 0 0 0 0 0 0 0 0 0 0 0 0 0 0 0 127 0"/>
<feOffset dy="21"/>
<feGaussianBlur stdDeviation="20"/>
<feColorMatrix type="matrix" values="0 0 0 0 0 0 0 0 0 0 0 0 0 0 0 0 0 0 0.094 0"/>
<feBlend mode="normal" in2="BackgroundImageFix" result="effect1_dropShadow"/>
<feBlend mode="normal" in="SourceGraphic" in2="effect1_dropShadow" result="shape"/>
</filter>
<filter id="filter1_d" x="0" y="30" width="272" height="253" filterUnits="userSpaceOnUse" color-interpolation-filters="sRGB">
<feFlood flood-opacity="0" result="BackgroundImageFix"/>
<feColorMatrix in="SourceAlpha" type="matrix" values="0 0 0 0 0 0 0 0 0 0 0 0 0 0 0 0 0 0 127 0"/>
<feOffset dy="21"/>
<feGaussianBlur stdDeviation="20"/>
<feColorMatrix type="matrix" values="0 0 0 0 0 0 0 0 0 0 0 0 0 0 0 0 0 0 0.094 0"/>
<feBlend mode="normal" in2="BackgroundImageFix" result="effect1_dropShadow"/>
<feBlend mode="normal" in="SourceGraphic" in2="effect1_dropShadow" result="shape"/>
</filter>
</defs>
</svg>
