<svg width="150" height="150" viewBox="0 0 150 150" fill="none" xmlns="http://www.w3.org/2000/svg">
<path d="M67.3918 57.72C67.6691 57.72 67.8824 57.8 68.0318 57.96C68.1811 58.1093 68.2558 58.3067 68.2558 58.552C68.2558 58.7973 68.1811 59.0533 68.0318 59.32L62.9278 68.584C62.7144 68.9467 62.4211 69.128 62.0478 69.128C61.7918 69.128 61.5624 69.0427 61.3598 68.872C61.1678 68.6907 61.0718 68.472 61.0718 68.216C61.0718 68.0347 61.1251 67.8533 61.2318 67.672L65.8238 59.384H60.9918C60.3518 59.384 60.0318 59.112 60.0318 58.568C60.0318 58.0027 60.3518 57.72 60.9918 57.72H67.3918ZM74.3295 61.784C75.0335 61.784 75.6522 61.9387 76.1855 62.248C76.7295 62.5467 77.1508 62.968 77.4495 63.512C77.7482 64.056 77.8975 64.68 77.8975 65.384C77.8975 66.12 77.7268 66.7707 77.3855 67.336C77.0548 67.9013 76.5802 68.344 75.9615 68.664C75.3535 68.9733 74.6495 69.128 73.8495 69.128C73.1882 69.128 72.5375 69.0213 71.8975 68.808C71.2682 68.584 70.7295 68.2853 70.2815 67.912C70.0362 67.6987 69.9135 67.448 69.9135 67.16C69.9135 66.9253 69.9775 66.728 70.1055 66.568C70.2442 66.3973 70.4042 66.312 70.5855 66.312C70.6922 66.312 70.7935 66.3333 70.8895 66.376C70.9855 66.408 71.0975 66.4667 71.2255 66.552C71.6522 66.8507 72.0682 67.08 72.4735 67.24C72.8788 67.4 73.3108 67.48 73.7695 67.48C74.4735 67.48 75.0122 67.304 75.3855 66.952C75.7588 66.6 75.9455 66.0987 75.9455 65.448C75.9455 64.8187 75.7535 64.3227 75.3695 63.96C74.9962 63.5867 74.4788 63.4 73.8175 63.4C73.4015 63.4 73.0282 63.4587 72.6975 63.576C72.3775 63.6933 72.0468 63.8907 71.7055 64.168C71.5028 64.3067 71.2948 64.376 71.0815 64.376C70.8682 64.376 70.6868 64.312 70.5375 64.184C70.3882 64.056 70.3135 63.8853 70.3135 63.672V58.68C70.3135 58.3813 70.3988 58.1467 70.5695 57.976C70.7402 57.8053 70.9802 57.72 71.2895 57.72H76.6175C77.2575 57.72 77.5775 57.9867 77.5775 58.52C77.5775 59.0533 77.2575 59.32 76.6175 59.32H72.3295V62.36C72.8735 61.976 73.5402 61.784 74.3295 61.784ZM83.8433 68.776C83.7473 68.9467 83.6299 69.0747 83.4913 69.16C83.3526 69.2453 83.2139 69.288 83.0753 69.288C82.8833 69.288 82.7126 69.2187 82.5633 69.08C82.4246 68.9413 82.3553 68.7653 82.3553 68.552C82.3553 68.3707 82.4086 68.1893 82.5153 68.008L88.3393 57.944C88.4353 57.7733 88.5526 57.6453 88.6913 57.56C88.8299 57.4747 88.9686 57.432 89.1073 57.432C89.2993 57.432 89.4646 57.5013 89.6033 57.64C89.7526 57.7787 89.8273 57.9547 89.8273 58.168C89.8273 58.3493 89.7739 58.5307 89.6673 58.712L83.8433 68.776ZM82.0673 64.456C81.1713 64.456 80.4726 64.1627 79.9713 63.576C79.4699 62.9893 79.2193 62.1307 79.2193 61C79.2193 59.88 79.4699 59.0267 79.9713 58.44C80.4726 57.8533 81.1713 57.56 82.0673 57.56C82.9633 57.56 83.6619 57.8533 84.1633 58.44C84.6753 59.0267 84.9313 59.88 84.9313 61C84.9313 62.1307 84.6753 62.9893 84.1633 63.576C83.6619 64.1627 82.9633 64.456 82.0673 64.456ZM82.0673 63.16C82.4726 63.16 82.7659 62.9947 82.9473 62.664C83.1393 62.3227 83.2352 61.768 83.2352 61C83.2352 60.2533 83.1393 59.7093 82.9473 59.368C82.7553 59.0267 82.4619 58.856 82.0673 58.856C81.6726 58.856 81.3793 59.0267 81.1873 59.368C81.0059 59.6987 80.9153 60.2427 80.9153 61C80.9153 61.768 81.0059 62.3227 81.1873 62.664C81.3793 62.9947 81.6726 63.16 82.0673 63.16ZM90.1153 69.112C89.2193 69.112 88.5206 68.8187 88.0193 68.232C87.5179 67.6453 87.2673 66.7813 87.2673 65.64C87.2673 64.52 87.5179 63.672 88.0193 63.096C88.5313 62.5093 89.2299 62.216 90.1153 62.216C91.0113 62.216 91.7099 62.5093 92.2113 63.096C92.7126 63.6827 92.9633 64.536 92.9633 65.656C92.9633 66.7867 92.7126 67.6453 92.2113 68.232C91.7099 68.8187 91.0113 69.112 90.1153 69.112ZM90.1153 67.816C90.5099 67.816 90.8033 67.6507 90.9953 67.32C91.1873 66.9787 91.2833 66.424 91.2833 65.656C91.2833 64.9093 91.1873 64.3653 90.9953 64.024C90.8033 63.6827 90.5099 63.512 90.1153 63.512C89.7206 63.512 89.4273 63.6827 89.2353 64.024C89.0433 64.3653 88.9473 64.9093 88.9473 65.656C88.9473 66.424 89.0433 66.9787 89.2353 67.32C89.4273 67.6507 89.7206 67.816 90.1153 67.816ZM42.7873 89.144C41.6993 89.144 40.7446 88.9093 39.9233 88.44C39.1126 87.9707 38.4886 87.2987 38.0513 86.424C37.6139 85.5493 37.3953 84.5253 37.3953 83.352C37.3953 82.1787 37.6139 81.16 38.0513 80.296C38.4886 79.4213 39.1126 78.7493 39.9233 78.28C40.7446 77.8107 41.6993 77.576 42.7873 77.576C43.4913 77.576 44.1526 77.6827 44.7713 77.896C45.3899 78.0987 45.9393 78.3973 46.4193 78.792C46.5579 78.8987 46.6539 79.0107 46.7073 79.128C46.7606 79.2453 46.7873 79.3893 46.7873 79.56C46.7873 79.7947 46.7233 79.992 46.5953 80.152C46.4673 80.312 46.3126 80.392 46.1313 80.392C45.9179 80.392 45.6993 80.3173 45.4753 80.168C45.0166 79.8267 44.5899 79.592 44.1953 79.464C43.8006 79.3253 43.3633 79.256 42.8833 79.256C41.7739 79.256 40.9313 79.6027 40.3553 80.296C39.7899 80.9893 39.5073 82.008 39.5073 83.352C39.5073 84.7067 39.7899 85.7307 40.3553 86.424C40.9313 87.1173 41.7739 87.464 42.8833 87.464C43.3419 87.464 43.7633 87.3947 44.1473 87.256C44.5419 87.1173 44.9846 86.8827 45.4753 86.552C45.5819 86.488 45.6886 86.4347 45.7953 86.392C45.9019 86.3493 46.0139 86.328 46.1313 86.328C46.3126 86.328 46.4673 86.408 46.5953 86.568C46.7233 86.728 46.7873 86.9253 46.7873 87.16C46.7873 87.32 46.7606 87.464 46.7073 87.592C46.6539 87.7093 46.5579 87.8213 46.4193 87.928C45.9393 88.3227 45.3899 88.6267 44.7713 88.84C44.1526 89.0427 43.4913 89.144 42.7873 89.144ZM51.8268 89.128C51.0268 89.128 50.3228 88.9627 49.7148 88.632C49.1174 88.3013 48.6534 87.8267 48.3228 87.208C47.9921 86.5893 47.8268 85.8693 47.8268 85.048C47.8268 84.2267 47.9921 83.512 48.3228 82.904C48.6534 82.2853 49.1174 81.8107 49.7148 81.48C50.3228 81.1493 51.0268 80.984 51.8268 80.984C52.6268 80.984 53.3254 81.1493 53.9228 81.48C54.5308 81.8107 54.9948 82.2853 55.3148 82.904C55.6454 83.512 55.8108 84.2267 55.8108 85.048C55.8108 85.8693 55.6454 86.5893 55.3148 87.208C54.9948 87.8267 54.5308 88.3013 53.9228 88.632C53.3254 88.9627 52.6268 89.128 51.8268 89.128ZM51.8108 87.576C52.4614 87.576 52.9574 87.3627 53.2988 86.936C53.6401 86.5093 53.8108 85.88 53.8108 85.048C53.8108 84.2267 53.6401 83.6027 53.2988 83.176C52.9574 82.7387 52.4668 82.52 51.8268 82.52C51.1868 82.52 50.6908 82.7387 50.3388 83.176C49.9974 83.6027 49.8268 84.2267 49.8268 85.048C49.8268 85.88 49.9974 86.5093 50.3388 86.936C50.6801 87.3627 51.1708 87.576 51.8108 87.576ZM66.7579 80.984C67.6112 80.984 68.2619 81.24 68.7099 81.752C69.1685 82.2533 69.3979 83.0693 69.3979 84.2V88.136C69.3979 88.4453 69.3019 88.6853 69.1099 88.856C68.9285 89.016 68.6885 89.096 68.3899 89.096C68.1019 89.096 67.8619 89.016 67.6699 88.856C67.4885 88.6853 67.3979 88.4453 67.3979 88.136V84.2C67.3979 83.6133 67.2912 83.1973 67.0779 82.952C66.8752 82.696 66.5605 82.568 66.1339 82.568C65.6112 82.568 65.1952 82.7493 64.8859 83.112C64.5765 83.464 64.4219 83.9493 64.4219 84.568V88.136C64.4219 88.4453 64.3259 88.6853 64.1339 88.856C63.9525 89.016 63.7179 89.096 63.4299 89.096C63.1419 89.096 62.9019 89.016 62.7099 88.856C62.5179 88.6853 62.4219 88.4453 62.4219 88.136V84.2C62.4219 83.6133 62.3152 83.1973 62.1019 82.952C61.8992 82.696 61.5845 82.568 61.1579 82.568C60.6352 82.568 60.2192 82.7493 59.9099 83.112C59.6112 83.464 59.4619 83.9493 59.4619 84.568V88.136C59.4619 88.4453 59.3659 88.6853 59.1739 88.856C58.9819 89.016 58.7419 89.096 58.4539 89.096C58.1659 89.096 57.9259 89.016 57.7339 88.856C57.5525 88.6853 57.4619 88.4453 57.4619 88.136V81.944C57.4619 81.6453 57.5579 81.416 57.7499 81.256C57.9419 81.096 58.1819 81.016 58.4699 81.016C58.7472 81.016 58.9712 81.096 59.1419 81.256C59.3232 81.4053 59.4139 81.624 59.4139 81.912V82.296C59.6592 81.8693 59.9845 81.544 60.3899 81.32C60.8059 81.096 61.2805 80.984 61.8139 80.984C62.9872 80.984 63.7712 81.4747 64.1659 82.456C64.4005 82.008 64.7472 81.6507 65.2059 81.384C65.6645 81.1173 66.1819 80.984 66.7579 80.984ZM75.9266 80.984C76.5986 80.984 77.196 81.1547 77.7186 81.496C78.252 81.8373 78.6626 82.3227 78.9506 82.952C79.2493 83.5707 79.3986 84.2853 79.3986 85.096C79.3986 85.9067 79.2493 86.616 78.9506 87.224C78.6626 87.832 78.2573 88.3013 77.7346 88.632C77.212 88.9627 76.6093 89.128 75.9266 89.128C75.372 89.128 74.876 89.0107 74.4386 88.776C74.0013 88.5413 73.6653 88.216 73.4306 87.8V91.064C73.4306 91.3413 73.34 91.56 73.1586 91.72C72.9773 91.88 72.7373 91.96 72.4386 91.96C72.14 91.96 71.8946 91.8747 71.7026 91.704C71.5213 91.5333 71.4306 91.3093 71.4306 91.032V81.96C71.4306 81.672 71.516 81.4427 71.6866 81.272C71.868 81.1013 72.108 81.016 72.4066 81.016C72.7053 81.016 72.9453 81.1013 73.1266 81.272C73.308 81.4427 73.3986 81.672 73.3986 81.96V82.36C73.6333 81.9227 73.9693 81.5867 74.4066 81.352C74.8546 81.1067 75.3613 80.984 75.9266 80.984ZM75.3986 87.576C76.028 87.576 76.5186 87.3627 76.8706 86.936C77.2226 86.4987 77.3986 85.8853 77.3986 85.096C77.3986 84.2853 77.2226 83.656 76.8706 83.208C76.5186 82.76 76.028 82.536 75.3986 82.536C74.7586 82.536 74.2626 82.7547 73.9106 83.192C73.5693 83.6293 73.3986 84.2533 73.3986 85.064C73.3986 85.864 73.5693 86.4827 73.9106 86.92C74.2626 87.3573 74.7586 87.576 75.3986 87.576ZM82.032 89.096C81.744 89.096 81.504 89.016 81.312 88.856C81.1307 88.6853 81.04 88.4453 81.04 88.136V78.584C81.04 78.2747 81.1307 78.04 81.312 77.88C81.504 77.72 81.744 77.64 82.032 77.64C82.32 77.64 82.56 77.72 82.752 77.88C82.944 78.04 83.04 78.2747 83.04 78.584V88.136C83.04 88.4453 82.944 88.6853 82.752 88.856C82.56 89.016 82.32 89.096 82.032 89.096ZM91.2945 86.856C91.4758 86.856 91.6198 86.9253 91.7265 87.064C91.8438 87.2027 91.9025 87.3893 91.9025 87.624C91.9025 87.9547 91.7052 88.232 91.3105 88.456C90.9478 88.6587 90.5372 88.824 90.0785 88.952C89.6198 89.0693 89.1825 89.128 88.7665 89.128C87.5078 89.128 86.5105 88.7653 85.7745 88.04C85.0385 87.3147 84.6705 86.3227 84.6705 85.064C84.6705 84.264 84.8305 83.5547 85.1505 82.936C85.4705 82.3173 85.9185 81.8373 86.4945 81.496C87.0812 81.1547 87.7425 80.984 88.4785 80.984C89.1825 80.984 89.7958 81.1387 90.3185 81.448C90.8412 81.7573 91.2465 82.1947 91.5345 82.76C91.8225 83.3253 91.9665 83.992 91.9665 84.76C91.9665 85.2187 91.7638 85.448 91.3585 85.448H86.6385C86.7025 86.184 86.9105 86.728 87.2625 87.08C87.6145 87.4213 88.1265 87.592 88.7985 87.592C89.1398 87.592 89.4385 87.5493 89.6945 87.464C89.9612 87.3787 90.2598 87.2613 90.5905 87.112C90.9105 86.9413 91.1452 86.856 91.2945 86.856ZM88.5265 82.392C87.9825 82.392 87.5452 82.5627 87.2145 82.904C86.8945 83.2453 86.7025 83.736 86.6385 84.376H90.2545C90.2332 83.7253 90.0732 83.2347 89.7745 82.904C89.4758 82.5627 89.0598 82.392 88.5265 82.392ZM97.5571 87.608C98.0905 87.64 98.3571 87.88 98.3571 88.328C98.3571 88.584 98.2505 88.7813 98.0371 88.92C97.8345 89.048 97.5411 89.1013 97.1571 89.08L96.7251 89.048C94.9331 88.92 94.0371 87.96 94.0371 86.168V82.68H93.2371C92.9491 82.68 92.7251 82.616 92.5651 82.488C92.4158 82.36 92.3411 82.1733 92.3411 81.928C92.3411 81.6827 92.4158 81.496 92.5651 81.368C92.7251 81.24 92.9491 81.176 93.2371 81.176H94.0371V79.704C94.0371 79.416 94.1278 79.1867 94.3091 79.016C94.4905 78.8453 94.7358 78.76 95.0451 78.76C95.3438 78.76 95.5838 78.8453 95.7651 79.016C95.9465 79.1867 96.0371 79.416 96.0371 79.704V81.176H97.3971C97.6851 81.176 97.9038 81.24 98.0531 81.368C98.2131 81.496 98.2931 81.6827 98.2931 81.928C98.2931 82.1733 98.2131 82.36 98.0531 82.488C97.9038 82.616 97.6851 82.68 97.3971 82.68H96.0371V86.312C96.0371 87.1013 96.3998 87.5227 97.1251 87.576L97.5571 87.608ZM105.591 86.856C105.773 86.856 105.917 86.9253 106.023 87.064C106.141 87.2027 106.199 87.3893 106.199 87.624C106.199 87.9547 106.002 88.232 105.607 88.456C105.245 88.6587 104.834 88.824 104.375 88.952C103.917 89.0693 103.479 89.128 103.063 89.128C101.805 89.128 100.807 88.7653 100.071 88.04C99.3354 87.3147 98.9674 86.3227 98.9674 85.064C98.9674 84.264 99.1274 83.5547 99.4474 82.936C99.7674 82.3173 100.215 81.8373 100.791 81.496C101.378 81.1547 102.039 80.984 102.775 80.984C103.479 80.984 104.093 81.1387 104.615 81.448C105.138 81.7573 105.543 82.1947 105.831 82.76C106.119 83.3253 106.263 83.992 106.263 84.76C106.263 85.2187 106.061 85.448 105.655 85.448H100.935C100.999 86.184 101.207 86.728 101.559 87.08C101.911 87.4213 102.423 87.592 103.095 87.592C103.437 87.592 103.735 87.5493 103.991 87.464C104.258 87.3787 104.557 87.2613 104.887 87.112C105.207 86.9413 105.442 86.856 105.591 86.856ZM102.823 82.392C102.279 82.392 101.842 82.5627 101.511 82.904C101.191 83.2453 100.999 83.736 100.935 84.376H104.551C104.53 83.7253 104.37 83.2347 104.071 82.904C103.773 82.5627 103.357 82.392 102.823 82.392ZM114.427 77.64C114.726 77.64 114.971 77.7253 115.163 77.896C115.355 78.0667 115.451 78.2907 115.451 78.568V88.136C115.451 88.424 115.361 88.6533 115.179 88.824C114.998 88.9947 114.758 89.08 114.459 89.08C114.161 89.08 113.921 88.9947 113.739 88.824C113.558 88.6533 113.467 88.424 113.467 88.136V87.736C113.233 88.1733 112.891 88.5147 112.443 88.76C112.006 89.0053 111.505 89.128 110.939 89.128C110.267 89.128 109.665 88.9573 109.131 88.616C108.609 88.2747 108.198 87.7947 107.899 87.176C107.611 86.5467 107.467 85.8267 107.467 85.016C107.467 84.2053 107.611 83.496 107.899 82.888C108.198 82.28 108.609 81.8107 109.131 81.48C109.654 81.1493 110.257 80.984 110.939 80.984C111.505 80.984 112.006 81.1013 112.443 81.336C112.881 81.5707 113.217 81.9013 113.451 82.328V78.536C113.451 78.2693 113.537 78.056 113.707 77.896C113.889 77.7253 114.129 77.64 114.427 77.64ZM111.467 87.576C112.107 87.576 112.598 87.3573 112.939 86.92C113.291 86.4827 113.467 85.8587 113.467 85.048C113.467 84.2373 113.291 83.6187 112.939 83.192C112.598 82.7547 112.113 82.536 111.483 82.536C110.843 82.536 110.347 82.7493 109.995 83.176C109.643 83.6027 109.467 84.216 109.467 85.016C109.467 85.8267 109.643 86.456 109.995 86.904C110.347 87.352 110.838 87.576 111.467 87.576Z" fill="#2F344C"/>
<circle cx="75" cy="75" r="67.5" stroke="#EFF1F3" stroke-width="15"/>
<mask id="mask0" mask-type="alpha" maskUnits="userSpaceOnUse" x="0" y="0" width="150" height="150">
<path fill-rule="evenodd" clip-rule="evenodd" d="M150 0H75V74H0V150H150V78V74V0Z" fill="#C4C4C4"/>
</mask>
<g mask="url(#mask0)">
<circle cx="75" cy="75" r="67.5" stroke="#5EC5FF" stroke-width="15"/>
</g>
</svg>
