<svg width="100" height="100" viewBox="0 0 100 100" fill="none" xmlns="http://www.w3.org/2000/svg">
<rect width="100" height="100" rx="6" fill="#C4C4C4"/>
<g clip-path="url(#clip0)">
<path d="M84.2003 43.6902C82.4998 37.4984 78.6699 32.4271 72.9395 29.4642C72.5257 29.2504 72.127 29.1458 71.7411 29.0958C70.6741 28.7564 69.4862 28.6192 68.2878 28.7215C65.0832 28.997 62.5481 30.5162 61.4625 32.6281C61.2242 32.9373 60.9941 33.2686 60.7895 33.6533C58.6496 37.4507 54.3362 40.7971 50.5609 43.2078C50.3412 43.1206 50.1029 43.0474 49.839 42.9998C45.307 42.1652 41.3888 40.1985 38.8758 36.2152C38.5236 35.6572 38.0889 35.2725 37.617 35.0075C36.3012 33.5859 34.209 32.6119 31.7076 32.398C30.5104 32.2957 29.3248 32.4329 28.2577 32.7711C27.873 32.8199 27.4755 32.9257 27.0617 33.1396C21.3278 36.1012 17.4991 41.1737 15.7997 47.3655C14.613 51.6871 21.1639 54.1409 22.3577 49.7972C22.7645 48.3175 23.3027 46.9262 23.9791 45.636C23.9094 49.2637 23.8397 52.8925 23.7699 56.519C23.7688 56.5783 23.7827 56.6341 23.7827 56.6922L23.7444 58.7263L23.3189 68.8724L22.4042 81.5699C22.3984 81.8884 22.4727 82.1883 22.6029 82.4661L22.5983 82.5091C22.5727 83.8644 23.9036 84.9767 25.5739 85C27.2395 85.0209 28.6146 83.9399 28.6425 82.5881L30.4255 65.8945L30.7347 63.4175L31.4716 63.4292L32.3318 73.3324L32.9188 81.9291C32.9118 82.2999 33.0152 82.6509 33.1931 82.9705C33.479 84.062 34.66 84.8919 36.0966 84.9093C37.7657 84.9302 39.1373 83.8516 39.1652 82.4986L38.7351 69.7849L38.7014 59.6329L38.7328 57.9487C38.7363 57.8952 38.7479 57.8453 38.7491 57.7918C38.8235 53.891 38.8979 49.9901 38.9723 46.0893C41.6259 47.8979 44.6701 49.1323 47.9804 49.7414C48.9429 49.9181 49.7739 49.7228 50.4562 49.3206C51.5082 49.9006 52.8286 50.0169 54.1083 49.2206C56.3459 47.8305 58.8263 46.2055 61.0615 44.3388C61.1243 47.598 61.1859 50.8572 61.2486 54.1164C61.2498 54.1688 61.2614 54.2199 61.2649 54.2722L61.2963 55.9623L61.2637 66.1095L60.8348 78.8244C60.8604 80.1774 62.2331 81.2596 63.9023 81.2352C65.3389 81.2177 66.5199 80.3878 66.8081 79.294C66.9825 78.9767 67.0871 78.6245 67.0801 78.2526L67.6683 69.6559L68.5272 59.7515L69.2665 59.7422L69.5768 62.2192L71.3576 78.9116C71.3843 80.2634 72.7582 81.3433 74.4262 81.3235C76.0976 81.2991 77.4285 80.1856 77.4018 78.8337L77.3971 78.7919C77.5273 78.5129 77.604 78.2096 77.597 77.8946L76.6823 65.1948L76.2557 55.0487L76.2173 52.9948C76.2173 52.9425 76.2301 52.8925 76.229 52.8402C76.1592 49.2113 76.0895 45.5837 76.0197 41.9548C76.6951 43.2462 77.2355 44.6387 77.6424 46.1195C78.8349 50.4655 85.3859 48.0118 84.2003 43.6902Z" fill="white"/>
<path d="M68.5574 26.7978C71.8153 26.7978 74.4564 24.1568 74.4564 20.8989C74.4564 17.641 71.8153 15 68.5574 15C65.2996 15 62.6585 17.641 62.6585 20.8989C62.6585 24.1568 65.2996 26.7978 68.5574 26.7978Z" fill="white"/>
<path d="M31.4426 30.4732C34.7005 30.4732 37.3415 27.8321 37.3415 24.5743C37.3415 21.3164 34.7005 18.6753 31.4426 18.6753C28.1847 18.6753 25.5437 21.3164 25.5437 24.5743C25.5437 27.8321 28.1847 30.4732 31.4426 30.4732Z" fill="white"/>
</g>
<defs>
<clipPath id="clip0">
<rect width="70" height="70" fill="white" transform="translate(15 15)"/>
</clipPath>
</defs>
</svg>
