<svg width="50" height="50" viewBox="0 0 50 50" fill="none" xmlns="http://www.w3.org/2000/svg">
<circle cx="25" cy="25" r="25" fill="#D1D2D7"/>
<mask id="mask0" mask-type="alpha" maskUnits="userSpaceOnUse" x="0" y="0" width="50" height="50">
<circle cx="25" cy="25" r="25" fill="#D1D2D7"/>
</mask>
<g mask="url(#mask0)">
<path d="M34.574 36.4985C34.5399 36.4947 29.6043 36.6456 28.8705 31.1632C29.6859 30.5734 30.4374 29.8078 31.0995 28.8788C32.3874 27.0715 33.2173 24.8043 33.513 22.352C33.6145 22.2568 33.6986 22.1383 33.7552 21.9986C34.2901 20.6779 34.5613 19.2676 34.5613 17.8069C34.5613 12.2003 30.4813 7.63892 25.4659 7.63892C24.1542 7.63892 22.8816 7.95211 21.6797 8.5706C21.2212 8.60688 20.772 8.69048 20.3411 8.81947C18.2813 9.4364 16.6051 11.0195 15.6211 13.2773C14.666 15.4695 14.4777 18.0501 15.0912 20.5439C15.2209 21.0707 15.3857 21.5885 15.5811 22.0831C15.634 22.2168 15.7129 22.331 15.8076 22.4249C16.2865 26.2526 18.0435 29.424 20.4392 31.1555C19.7031 36.6473 14.7693 36.4948 14.7353 36.4987C11.1861 36.6235 8.33521 39.6533 8.33521 43.3621V51.0827C8.33521 51.6354 8.76741 52.0834 9.3006 52.0834H17.778H31.531H40.0086C40.5417 52.0834 40.9741 51.6354 40.9741 51.0827V43.3621C40.974 39.6531 38.1234 36.6232 34.574 36.4985ZM20.8771 10.7423C21.2295 10.6367 21.6015 10.5742 21.9831 10.5564C22.1247 10.5498 22.2631 10.511 22.3886 10.4426C23.366 9.91027 24.4014 9.64039 25.466 9.64039C29.4165 9.64039 32.6306 13.3038 32.6306 17.8069C32.6306 17.942 32.6269 18.0765 32.6212 18.2104C31.8549 17.4038 30.7903 16.9025 29.6146 16.9025H23.0348C22.6433 16.9025 22.2717 16.7751 21.9601 16.534C21.6941 16.3281 21.4884 16.0515 21.3655 15.734C21.1753 15.2428 20.7061 14.9356 20.1955 14.9688C19.683 15.0027 19.2517 15.3716 19.1222 15.8872C18.7409 17.4059 17.9806 18.8049 16.9375 19.9393C15.9669 15.7988 17.7186 11.6882 20.8771 10.7423ZM20.0372 28.0503C18.781 26.4595 17.9583 24.3114 17.6975 21.9595C18.9157 20.8341 19.8788 19.4336 20.5057 17.8801C20.6009 17.9711 20.7008 18.0571 20.8051 18.1379C21.453 18.6391 22.2239 18.9041 23.0349 18.9041H29.6147C30.5457 18.9041 31.3481 19.4829 31.7062 20.3113C31.7061 20.3184 31.7051 20.3252 31.7051 20.3323C31.7051 25.9814 28.5429 30.5773 24.6561 30.5773C22.9645 30.5774 21.324 29.6799 20.0372 28.0503ZM22.2555 32.1383C23.0208 32.4253 23.8258 32.5789 24.6561 32.5789C25.4797 32.5789 26.2844 32.4303 27.0547 32.1436C27.4082 34.0525 28.4322 35.7163 29.8624 36.8617L24.793 44.345C24.7599 44.3939 24.7139 44.4186 24.6563 44.4186C24.5988 44.4186 24.5528 44.3938 24.5198 44.3451L19.4492 36.86C20.8795 35.7133 21.9031 34.0483 22.2555 32.1383ZM39.0431 50.0818H31.531H17.778H10.266V43.3619C10.266 40.6777 12.3727 38.494 14.9623 38.494C14.9974 38.494 16.551 38.4548 17.7785 37.8766L22.9395 45.4952C23.3318 46.0743 23.9736 46.4201 24.6562 46.4201C24.6562 46.4201 24.6562 46.4201 24.6563 46.4201C25.3389 46.4201 25.9808 46.0743 26.3731 45.4952L31.5332 37.8778C32.9331 38.4941 34.3118 38.4941 34.347 38.4941C36.9365 38.4941 39.0431 40.6778 39.0431 43.362V50.0818Z" fill="white"/>
</g>
</svg>
