<svg width="100" height="100" viewBox="0 0 100 100" fill="none" xmlns="http://www.w3.org/2000/svg">
<path d="M90.626 86.701C90.5697 86.701 90.5113 86.6969 90.4531 86.6863C89.8865 86.5916 89.5021 86.0551 89.5969 85.4873C90.2031 81.8508 95.1969 79.5926 95.4094 79.4988C95.9365 79.2645 96.55 79.502 96.7834 80.027C97.0178 80.552 96.7824 81.1676 96.2574 81.402C95.0949 81.9217 92.0021 83.7301 91.6521 85.8301C91.5678 86.3397 91.126 86.701 90.626 86.701Z" fill="#25BC7C"/>
<path d="M90.625 86.701C90.5562 86.701 90.4865 86.6947 90.4166 86.6801C90.0375 86.6029 89.7322 86.3207 89.6238 85.9488C88.8385 83.2363 89.826 80.2738 92.081 78.577C92.5414 78.2301 93.1945 78.3248 93.5394 78.7822C93.8853 79.2416 93.7935 79.8947 93.3342 80.2406C92.2363 81.0666 91.5707 82.3229 91.457 83.649C93.4164 82.549 95.708 82.5334 95.833 82.5334C96.408 82.5334 96.8746 83 96.8746 83.575C96.8746 84.15 96.4099 84.6156 95.8349 84.6166C95.8047 84.6166 92.7902 84.65 91.4318 86.3166C91.2322 86.5625 90.9344 86.701 90.625 86.701Z" fill="#25BC7C"/>
<path d="M10.4178 85.6594C10.3334 85.6594 10.249 85.65 10.1637 85.6281C9.60527 85.4885 9.2668 84.9229 9.40527 84.3647C10.3115 80.7418 7.52617 76.9459 7.49805 76.9074C7.15527 76.4471 7.24902 75.794 7.70957 75.4502C8.16797 75.1074 8.8211 75.1981 9.16582 75.6586C9.30547 75.8451 12.5752 80.2752 11.4262 84.8701C11.3084 85.3428 10.8844 85.6594 10.4178 85.6594Z" fill="#25BC7C"/>
<path d="M89.5823 85.6594C89.1157 85.6594 88.6916 85.3438 88.5729 84.8709C87.4239 80.2762 90.6938 75.8459 90.8332 75.6594C91.1791 75.199 91.8301 75.1084 92.2895 75.451C92.7498 75.7947 92.8436 76.4479 92.501 76.9082C92.4729 76.9467 89.6875 80.7426 90.5938 84.3654C90.7334 84.9238 90.3938 85.4895 89.8354 85.6289C89.751 85.649 89.6666 85.6594 89.5823 85.6594Z" fill="#25BC7C"/>
<path d="M9.37405 86.701C8.87405 86.701 8.43245 86.3395 8.34808 85.8313C7.99808 83.7313 4.9053 81.9229 3.7428 81.4031C3.2178 81.1678 2.98245 80.5531 3.21682 80.0281C3.45022 79.5031 4.06272 79.2635 4.59085 79.5C4.80335 79.5938 9.79807 81.8522 10.4033 85.4885C10.4981 86.0563 10.1149 86.5926 9.5471 86.6875C9.4885 86.6959 9.4303 86.701 9.37405 86.701Z" fill="#25BC7C"/>
<path d="M9.375 86.701C9.06465 86.701 8.76563 86.5625 8.56563 86.3145C7.21777 84.6498 4.19473 84.6176 4.16348 84.6176C3.58945 84.6145 3.125 84.1479 3.12598 83.5729C3.12695 82.9988 3.59258 82.5344 4.1666 82.5344C4.2916 82.5344 6.58535 82.551 8.54258 83.6479C8.42793 82.3229 7.76231 81.0666 6.66543 80.2416C6.20606 79.8957 6.11445 79.2426 6.46016 78.7832C6.80488 78.3248 7.45801 78.2311 7.91856 78.5779C10.1738 80.2748 11.1613 83.2383 10.3758 85.9498C10.2674 86.3217 9.96231 86.6039 9.58203 86.6811C9.5125 86.6938 9.44375 86.701 9.375 86.701Z" fill="#25BC7C"/>
<path d="M75 60.6562H62.5V85.6563H75V60.6562Z" fill="#FB4C60"/>
<g opacity="0.06">
<path opacity="0.06" d="M50 23.1584L8.3334 46.9604C7.04278 47.7063 6.24805 49.0844 6.25 50.575V54.4084L50 29.4084V23.1584Z" fill="#141424"/>
</g>
<g opacity="0.06">
<path opacity="0.06" d="M49.1459 4.40841L91.6668 29.2418C92.9543 29.9856 93.749 31.3584 93.7502 32.8459V36.7L43.75 7.53341C43.7416 5.54903 45.3428 3.93243 47.3281 3.92403C47.9666 3.92188 48.5938 4.08848 49.1459 4.40841Z" fill="#141424"/>
</g>
<path d="M98.9584 86.701H1.0416C0.466602 86.701 0 86.2344 0 85.6594C0 85.0844 0.466602 84.6178 1.0416 84.6178H98.9582C99.5332 84.6178 99.9998 85.0844 99.9998 85.6594C99.9998 86.2344 99.5334 86.701 98.9584 86.701Z" fill="#141424"/>
<path d="M50 86.701H12.5C11.925 86.701 11.4584 86.2344 11.4584 85.6594V50.8365C11.4584 50.2615 11.925 49.7949 12.5 49.7949C13.075 49.7949 13.5416 50.2615 13.5416 50.8365V84.6178H48.9582V29.4094C48.9582 28.8344 49.4248 28.3678 49.9998 28.3678C50.5748 28.3678 51.0414 28.8344 51.0414 29.4094V85.6594C51.0416 86.2344 50.575 86.701 50 86.701Z" fill="#141424"/>
<path d="M75 86.701H62.5C61.925 86.701 61.4584 86.2344 61.4584 85.6594V60.6594C61.4584 60.0844 61.925 59.6178 62.5 59.6178H75C75.575 59.6178 76.0416 60.0844 76.0416 60.6594V85.6594C76.0416 86.2344 75.575 86.701 75 86.701ZM63.5416 84.6178H73.9582V61.701H63.5416V84.6178Z" fill="#141424"/>
<path d="M70.8334 74.1948C70.5521 74.1948 70.2918 74.0906 70.0937 73.8926C69.9062 73.7051 69.7916 73.4342 69.7916 73.153C69.7916 72.8821 69.9062 72.6113 70.0937 72.4238C70.4791 72.0385 71.1875 72.0385 71.5728 72.4238C71.7603 72.6113 71.875 72.8822 71.875 73.153C71.875 73.4342 71.7603 73.7051 71.5728 73.8926C71.375 74.0906 71.1146 74.1948 70.8334 74.1948Z" fill="#141424"/>
<path d="M37.5 74.201H25C24.425 74.201 23.9584 73.7344 23.9584 73.1594V60.6594C23.9584 60.0844 24.425 59.6178 25 59.6178H37.5C38.075 59.6178 38.5416 60.0844 38.5416 60.6594V73.1594C38.5416 73.7344 38.075 74.201 37.5 74.201ZM26.0416 72.1178H36.4582V61.7012H26.0416V72.1178Z" fill="#141424"/>
<path d="M68.75 49.201C64.7291 49.201 61.4584 45.9301 61.4584 41.9094C61.4584 37.8887 64.7293 34.6178 68.75 34.6178C72.7707 34.6178 76.0416 37.8887 76.0416 41.9094C76.0416 45.9301 72.7709 49.201 68.75 49.201ZM68.75 36.701C65.8781 36.701 63.5416 39.0375 63.5416 41.9094C63.5416 44.7813 65.8781 47.1178 68.75 47.1178C71.6219 47.1178 73.9584 44.7813 73.9584 41.9094C73.9584 39.0375 71.6219 36.701 68.75 36.701Z" fill="#141424"/>
<path d="M6.24998 55.451C6.06971 55.451 5.88846 55.4041 5.72713 55.3104C5.40623 55.1238 5.20838 54.7801 5.20838 54.4094V50.576C5.20623 48.7197 6.20428 46.9885 7.81248 46.0594L49.4834 22.2553C49.8062 22.0699 50.2011 22.0719 50.523 22.2584C50.8439 22.4449 51.0418 22.7875 51.0418 23.1594V29.4094C51.0418 29.7834 50.8418 30.1281 50.5168 30.3135L6.76678 55.3135C6.60623 55.4053 6.4281 55.451 6.24998 55.451ZM48.9584 24.9531L8.84998 47.8647C7.88845 48.4209 7.2906 49.4594 7.29158 50.574V52.6137L48.9582 28.8043V24.9531H48.9584Z" fill="#141424"/>
<path d="M50 86.701H12.5C11.925 86.701 11.4584 86.2344 11.4584 85.6594V50.8365C11.4584 50.4625 11.6584 50.1178 11.9834 49.9324L49.4834 28.5053C49.8052 28.3209 50.2 28.3209 50.523 28.5084C50.8439 28.6949 51.0418 29.0375 51.0418 29.4094V85.6594C51.0416 86.2344 50.575 86.701 50 86.701ZM13.5416 84.6178H48.9582V31.2041L13.5416 51.4406V84.6178Z" fill="#141424"/>
<path d="M6.24998 55.451C6.06971 55.451 5.88846 55.4041 5.72713 55.3104C5.40623 55.1238 5.20838 54.7801 5.20838 54.4094V50.576C5.20623 48.7197 6.20428 46.9885 7.81248 46.0594L49.4834 22.2553C49.8062 22.0699 50.2011 22.0719 50.523 22.2584C50.8439 22.4449 51.0418 22.7875 51.0418 23.1594V29.4094C51.0418 29.7834 50.8418 30.1281 50.5168 30.3135L6.76678 55.3135C6.60623 55.4053 6.4281 55.451 6.24998 55.451ZM48.9584 24.9531L8.84998 47.8647C7.88845 48.4209 7.2906 49.4594 7.29158 50.574V52.6137L48.9582 28.8043V24.9531H48.9584Z" fill="#141424"/>
<path d="M87.5 86.701H50C49.425 86.701 48.9584 86.2344 48.9584 85.6594V11.701C48.9584 11.126 49.425 10.6594 50 10.6594C50.575 10.6594 51.0416 11.126 51.0416 11.701V84.6176H86.4582V33.1281C86.4582 32.5531 86.9248 32.0865 87.4998 32.0865C88.0748 32.0865 88.5414 32.5531 88.5414 33.1281V85.6594C88.5416 86.2344 88.075 86.701 87.5 86.701Z" fill="#141424"/>
<g opacity="0.12">
<path opacity="0.12" d="M54.1666 92.951H30.2084C29.6334 92.951 29.1668 92.4844 29.1668 91.9094C29.1668 91.3344 29.6334 90.8678 30.2084 90.8678H54.1668C54.7418 90.8678 55.2084 91.3344 55.2084 91.9094C55.2084 92.4844 54.7416 92.951 54.1666 92.951Z" fill="#141424"/>
</g>
<g opacity="0.12">
<path opacity="0.12" d="M83.3334 92.951H60.4166C59.8416 92.951 59.375 92.4844 59.375 91.9094C59.375 91.3344 59.8416 90.8678 60.4166 90.8678H83.3332C83.9082 90.8678 84.3748 91.3344 84.3748 91.9094C84.3748 92.4844 83.9084 92.951 83.3334 92.951Z" fill="#141424"/>
</g>
<g opacity="0.12">
<path opacity="0.12" d="M23.9584 92.951H16.6666C16.0916 92.951 15.625 92.4844 15.625 91.9094C15.625 91.3344 16.0916 90.8678 16.6666 90.8678H23.9582C24.5332 90.8678 24.9998 91.3344 24.9998 91.9094C24.9998 92.4844 24.5334 92.951 23.9584 92.951Z" fill="#141424"/>
</g>
<g opacity="0.06">
<path opacity="0.06" d="M79.1666 97.1178H48.9584C48.3834 97.1178 47.9168 96.6512 47.9168 96.0762C47.9168 95.5012 48.3834 95.0346 48.9584 95.0346H79.1668C79.7418 95.0346 80.2084 95.5012 80.2084 96.0762C80.2084 96.651 79.7416 97.1178 79.1666 97.1178Z" fill="#141424"/>
</g>
<g opacity="0.06">
<path opacity="0.06" d="M40.625 97.1178H20.8334C20.2584 97.1178 19.7918 96.6512 19.7918 96.0762C19.7918 95.5012 20.2584 95.0346 20.8334 95.0346H40.625C41.2 95.0346 41.6666 95.5012 41.6666 96.0762C41.6666 96.651 41.2 97.1178 40.625 97.1178Z" fill="#141424"/>
</g>
<path d="M93.75 37.7428C93.5688 37.7428 93.3875 37.6959 93.225 37.6012L43.225 8.43458C42.9063 8.24806 42.7094 7.90743 42.7084 7.53868C42.6969 4.98243 44.7678 2.89395 47.324 2.88243C47.3303 2.88243 47.3365 2.88243 47.3428 2.88243C48.1606 2.88243 48.9637 3.09903 49.6699 3.50841C49.6699 3.50841 49.6709 3.50938 49.6721 3.50938L92.193 28.3428C93.793 29.2668 94.7908 30.9928 94.793 32.8449V36.7002C94.793 37.0731 94.594 37.418 94.2701 37.6033C94.1084 37.6959 93.9291 37.7428 93.75 37.7428ZM44.85 6.96974L92.7084 34.8863V32.8457C92.7074 31.7354 92.1084 30.6988 91.1459 30.1436L48.6209 5.30841C48.2334 5.08438 47.7918 4.96563 47.3428 4.96563C47.3397 4.96563 47.3365 4.96563 47.3324 4.96563C46.6512 4.96876 46.0106 5.23653 45.5315 5.72091C45.1854 6.06974 44.9522 6.50099 44.85 6.96974Z" fill="#141424"/>
<g opacity="0.12">
<path opacity="0.12" d="M87.5 33.1272V37.8772L50 16.0022V11.7L87.5 33.1272Z" fill="#141424"/>
<path opacity="0.12" d="M87.5 38.9197C87.3188 38.9197 87.1375 38.8729 86.975 38.7781L49.475 16.9031C49.1553 16.7156 48.9584 16.3729 48.9584 16.0031V11.701C48.9584 11.3301 49.1563 10.9863 49.4772 10.8C49.8 10.6135 50.1949 10.6125 50.5168 10.7969L88.0168 32.224C88.3418 32.4084 88.5418 32.7543 88.5418 33.1272V37.8772C88.5418 38.25 88.3428 38.5949 88.019 38.7803C87.8584 38.8729 87.6791 38.9197 87.5 38.9197ZM51.0416 15.4041L86.4582 36.0635V33.7322L51.0416 13.4959V15.4041Z" fill="#141424"/>
</g>
<g opacity="0.12">
<path opacity="0.12" d="M12.5 50.8354V55.6375L45.8334 36.5959V85.6584H50V29.4084L12.5 50.8354Z" fill="#141424"/>
<path opacity="0.12" d="M50 86.701H45.8334C45.2584 86.701 44.7918 86.2344 44.7918 85.6594V38.3906L13.0166 56.5428C12.6926 56.7271 12.2978 56.725 11.9769 56.5397C11.656 56.3522 11.4582 56.0094 11.4582 55.6375V50.8354C11.4582 50.4613 11.6582 50.1166 11.9832 49.9313L49.4832 28.5041C49.8051 28.3197 50.1998 28.3197 50.5229 28.5072C50.8438 28.6947 51.0416 29.0375 51.0416 29.4094V85.6594C51.0416 86.2344 50.575 86.701 50 86.701ZM46.875 84.6178H48.9584V31.2041L13.5416 51.4406V53.8438L45.3166 35.6928C45.6385 35.5084 46.0344 35.5084 46.3562 35.6959C46.6771 35.8824 46.875 36.225 46.875 36.5969V84.6178Z" fill="#141424"/>
</g>
<g opacity="0.06">
<path opacity="0.06" d="M62.5 82.5344H12.5C11.925 82.5344 11.4584 82.0678 11.4584 81.4928C11.4584 80.9178 11.925 80.4512 12.5 80.4512H62.5C63.075 80.4512 63.5416 80.9178 63.5416 81.4928C63.5416 82.0678 63.075 82.5344 62.5 82.5344Z" fill="#141424"/>
<path opacity="0.06" d="M87.5 82.5344H75C74.425 82.5344 73.9584 82.0678 73.9584 81.4928C73.9584 80.9178 74.425 80.4512 75 80.4512H87.5C88.075 80.4512 88.5416 80.9178 88.5416 81.4928C88.5416 82.0678 88.075 82.5344 87.5 82.5344Z" fill="#141424"/>
</g>
</svg>
