<svg width="90" height="90" viewBox="0 0 90 90" fill="none" xmlns="http://www.w3.org/2000/svg">
<path d="M63.1108 69.0036C66.776 71.1315 70.9754 73.5687 73.9844 76.9338C57.5427 91.8569 32.4584 91.8569 16.0167 76.9338C19.0257 73.5687 23.2251 71.1315 26.8903 69.0036C31.3898 66.3883 35.2798 64.1292 35.2798 61.2983C35.3493 58.2405 33.9994 55.3224 31.6241 53.3962C29.4775 53.0401 28.3526 49.0092 28.3526 46.797C28.2326 45.8353 28.5729 44.8734 29.2713 44.2005C27.7153 39.1481 27.7434 32.1365 31.2773 27.1777C34.0425 23.297 38.5982 21.2347 44.4569 21.2159C48.645 19.8858 53.2241 20.8503 56.5209 23.7563C59.155 26.1279 63.1575 31.9115 60.711 44.1445C61.2172 44.5006 61.7047 45.2412 61.7047 46.7972C61.7047 49.0094 60.5799 53.0495 58.4239 53.3964C56.0213 55.3067 54.6518 58.2305 54.7212 61.2984C54.7211 64.1292 58.6113 66.3883 63.1108 69.0036Z" fill="white"/>
<path d="M45.0004 1.88702C68.8155 1.8879 88.1209 21.1943 88.12 45.0095C88.12 57.1683 82.986 68.7618 73.9842 76.934C70.9752 73.5689 66.7758 71.1317 63.1106 69.0038C58.6111 66.3885 54.7211 64.1294 54.7211 61.2984C54.6516 58.2304 56.0211 55.3068 58.4237 53.3964C60.5797 53.0496 61.7045 49.0094 61.7045 46.7972C61.7045 45.2412 61.2171 44.5006 60.7108 44.1445C63.1573 31.9117 59.1548 26.128 56.5207 23.7563C53.2239 20.8505 48.6448 19.8858 44.4567 21.2159C38.5981 21.2347 34.0423 23.297 31.2771 27.1777C27.7432 32.1365 27.7151 39.1481 29.2711 44.2006C28.5727 44.8736 28.2324 45.8353 28.3525 46.797C28.3525 49.0092 29.4773 53.0401 31.6239 53.3962C33.9993 55.3226 35.3491 58.2406 35.2797 61.2983C35.2797 64.1292 31.3894 66.3882 26.8901 69.0036C23.2249 71.1315 19.0255 73.5687 16.0165 76.9338C-1.6156 60.9261 -2.93255 33.6549 13.076 16.0228C21.249 7.02018 32.8416 1.88702 45.0004 1.88702Z" fill="#1AACFF"/>
<g opacity="0.08">
<path opacity="0.08" d="M45.0004 78.7525C22.9999 78.7533 4.52796 62.1898 2.13857 40.3198C1.96894 41.8769 1.88263 43.4413 1.88087 45.0067C1.88087 68.8208 21.1862 88.1264 45.0005 88.1264C68.8149 88.1264 88.1202 68.821 88.1202 45.0067C88.1183 43.4412 88.0321 41.8767 87.8625 40.3198C85.4729 62.1898 67.0008 78.7533 45.0004 78.7525Z" fill="#303442"/>
</g>
<path d="M73.9853 78.8087C73.4697 78.8087 72.957 78.5978 72.5868 78.1835C69.7774 75.0414 65.7373 72.6961 62.1744 70.6272C57.1641 67.7157 52.8474 65.2062 52.8474 61.2983C52.7659 57.709 54.4147 54.19 57.2578 51.9282C57.5098 51.7277 57.809 51.5964 58.1277 51.5449C58.663 51.4586 59.8309 49.0252 59.8309 46.797C59.8309 45.9102 59.6247 45.6722 59.6227 45.6703C59.0152 45.2428 58.7275 44.505 58.8728 43.7767C61.1413 32.4362 57.5868 27.2385 55.2667 25.149C52.4948 22.7062 48.5654 21.8784 45.0239 23.0024C44.842 23.0606 44.6527 23.0896 44.4625 23.0904C39.2356 23.1073 35.2039 24.8968 32.8033 28.2658C29.4643 32.9509 29.7782 39.4806 31.0625 43.6491C31.2706 44.325 31.0813 45.0599 30.5722 45.5502C30.3005 45.8118 30.1664 46.1914 30.2133 46.5653C30.2226 46.6413 30.2274 46.7191 30.2274 46.796C30.2274 49.0119 31.3954 51.4519 31.9305 51.5457C32.2444 51.6011 32.5577 51.7379 32.805 51.9395C35.6096 54.2145 37.235 57.7297 37.1535 61.3396C37.1535 65.2054 32.8377 67.7138 27.8397 70.6178C24.2656 72.6933 20.2235 75.0394 17.4133 78.1815C16.7233 78.9539 15.5385 79.0195 14.7662 78.3297C13.9938 77.6398 13.9282 76.4539 14.618 75.6826C17.8256 72.0953 22.1405 69.5906 25.9473 67.3812C29.4457 65.347 33.4032 63.0476 33.4032 61.2976C33.4566 58.9259 32.4649 56.6518 30.7345 55.1006C27.614 54.0647 26.5115 49.2166 26.4769 46.9069C26.3681 45.813 26.6335 44.7135 27.2071 43.792C25.9191 38.7967 25.8733 31.5283 29.7483 26.0886C32.8342 21.7578 37.8155 19.4294 44.1672 19.3423C48.8821 17.9522 54.064 19.0911 57.7593 22.3494C60.6164 24.9216 64.9649 31.0435 62.7265 43.5679C63.2055 44.27 63.5785 45.2974 63.5785 46.7953C63.5785 49.0656 62.4864 54.0712 59.2975 55.106C57.5466 56.6452 56.5425 58.9147 56.5942 61.2552C56.5951 63.0475 60.5537 65.3477 64.0464 67.3782C67.8607 69.5923 72.1746 72.097 75.3813 75.6824C76.0713 76.4539 76.0047 77.6398 75.2332 78.3295C74.8758 78.6512 74.4305 78.8087 73.9853 78.8087Z" fill="#303442"/>
<path d="M44.9536 90C33.7613 90 23.0375 85.853 14.7549 78.3202C-3.61599 61.6451 -4.99675 33.13 11.6801 14.7572C19.7585 5.85687 30.8197 0.635635 42.8247 0.0545024C54.8344 -0.529443 66.3437 3.60247 75.2432 11.6808C93.6169 28.3577 94.9966 56.8721 78.3197 75.2448C69.8093 84.6223 57.6645 90 44.9995 90C44.9854 90 44.9694 90 44.9536 90ZM45.0482 3.7496C44.3695 3.7496 43.689 3.76648 43.0065 3.79935C32.0006 4.33267 21.8619 9.11901 14.4566 17.2779C-0.830031 34.119 0.434363 60.2587 17.2774 75.5457C17.2774 75.5457 17.2783 75.5457 17.2783 75.5466C24.8692 82.4495 34.6976 86.2506 44.9564 86.2506C44.9705 86.2506 44.9845 86.2506 44.9986 86.2506C56.61 86.2506 67.7433 81.321 75.5441 72.7251C90.8318 55.8823 89.5664 29.7433 72.7244 14.4564C65.0718 7.51132 55.3106 3.7496 45.0482 3.7496Z" fill="#303442"/>
</svg>
