<svg width="48" height="48" viewBox="0 0 48 48" fill="none" xmlns="http://www.w3.org/2000/svg">
<path d="M23.9999 19.8754C24.809 19.8754 25.4622 20.5035 25.4622 21.2816H28.3866C28.3866 19.4441 27.1681 17.8879 25.4622 17.3066V14.3535H22.5377V17.3066C20.8318 17.8879 19.6133 19.4535 19.6133 21.2816C19.6133 23.6066 21.5824 25.5004 23.9999 25.5004C24.809 25.5004 25.4622 26.1285 25.4622 26.9066C25.4622 27.6848 24.809 28.3129 23.9999 28.3129C23.1909 28.3129 22.5377 27.6848 22.5377 26.9066H19.6133C19.6133 28.7441 20.8318 30.3004 22.5377 30.8816V33.8254H25.4622V30.8816C27.1681 30.3004 28.3866 28.7348 28.3866 26.9066C28.3866 24.5816 26.4175 22.6879 23.9999 22.6879C23.1909 22.6879 22.5377 22.0598 22.5377 21.2816C22.5377 20.5035 23.1909 19.8754 23.9999 19.8754Z" fill="#5D6174"/>
<path d="M43.0089 39V22.125H39.9578C38.9537 14.5219 32.1787 8.625 24 8.625C20.4029 8.625 16.7766 9.77812 13.7644 12.1781V9H18.7555L9.37774 0L0 9H4.99106V25.875H8.02275C8.94882 33.5719 15.753 39.5625 24 39.5625C27.5873 39.5625 31.2234 38.4094 34.2356 36.0094V39H29.2445L38.6223 48L48 39H43.0089ZM9.37774 3.975L11.6978 6.1875H10.84V23.0625H7.91552V6.1875H7.05768L9.37774 3.975ZM24 36.75C17.3712 36.75 11.8733 32.0156 10.9667 25.875H13.7644V16.1531C16.2794 13.1531 19.9838 11.4375 24 11.4375C30.5605 11.4375 36.0097 16.0781 37.0041 22.125H34.2356V32.0344C31.7206 35.0344 28.0162 36.75 24 36.75ZM38.6223 44.025L36.3022 41.8125H37.16V24.9375H40.0845V41.8125H40.9423L38.6223 44.025Z" fill="#5D6174"/>
<path d="M23.9804 19.8754C24.7895 19.8754 25.4427 20.5035 25.4427 21.2816H28.3671C28.3671 19.4441 27.1486 17.8879 25.4427 17.3066V14.3535H22.5182V17.3066C20.8123 17.8879 19.5938 19.4535 19.5938 21.2816C19.5938 23.6066 21.5629 25.5004 23.9804 25.5004C24.7895 25.5004 25.4427 26.1285 25.4427 26.9066C25.4427 27.6848 24.7895 28.3129 23.9804 28.3129C23.1713 28.3129 22.5182 27.6848 22.5182 26.9066H19.5938C19.5938 28.7441 20.8123 30.3004 22.5182 30.8816V33.8254H25.4427V30.8816C27.1486 30.3004 28.3671 28.7348 28.3671 26.9066C28.3671 24.5816 26.398 22.6879 23.9804 22.6879C23.1713 22.6879 22.5182 22.0598 22.5182 21.2816C22.5182 20.5035 23.1713 19.8754 23.9804 19.8754Z" fill="#FF4D61"/>
</svg>
