<svg width="60" height="60" viewBox="0 0 60 60" fill="none" xmlns="http://www.w3.org/2000/svg">
<path d="M60 28.2065L51.0235 23.4938L59.9896 17.6773L29.9999 1.79584L0.0103125 17.6773L8.97643 23.4938L0 28.2065L8.97643 34.0296L0 38.7423L29.9999 58.2039L60 38.7423L51.0236 34.0296L60 28.2065ZM53.064 17.9837L47.1135 21.8441L41.9075 18.6214L47.4705 15.0217L53.064 17.9837ZM26.7676 24.2347L21.663 27.5378L15.8493 23.7663L21.1021 20.569L26.7676 24.2347ZM24.4332 18.5412L29.8146 15.2656L35.3413 18.6869L29.9999 22.1432L24.4332 18.5412ZM29.9999 26.3263L35.1086 29.6319L29.9999 32.946L24.8913 29.6319L29.9999 26.3263ZM33.2324 24.2346L38.6454 20.7321L43.8557 23.9575L38.337 27.5375L33.2324 24.2346ZM43.9153 13.139L38.6035 16.576L33.1786 13.2177L38.243 10.135L43.9153 13.139ZM29.9999 5.76966L34.6313 8.22227L29.8301 11.1447L25.2289 8.29622L29.9999 5.76966ZM21.6329 10.2009L26.4659 13.1927L21.1592 16.4227L16.0844 13.139L21.6329 10.2009ZM6.93573 17.9837L12.5292 15.0216L17.8281 18.4501L12.5796 21.6449L6.93573 17.9837ZM6.94604 28.5264L12.3559 25.6861L29.9999 37.1323L47.6441 25.6861L53.054 28.5264L29.9999 43.4819L6.94604 28.5264ZM53.0538 39.0622L29.9999 54.0178L6.94604 39.0622L12.3559 36.2219L29.9999 47.6681L47.6441 36.2219L53.0538 39.0622Z" fill="#99A0B1"/>
</svg>
