<svg width="518" height="144" viewBox="0 0 518 144" fill="none" xmlns="http://www.w3.org/2000/svg">
<path d="M131.825 17.4354C131.825 13.9379 130.271 10.6216 127.585 8.38531L117.7 0.15704V38.9582L73.2816 2.65289C68.984 -0.859676 62.8185 -0.88687 58.4902 2.58766L5.72287 44.9464C2.10515 47.8505 0 52.2417 0 56.8839V122.804C0 128.765 6.9217 132.045 11.5267 128.266L60.3171 88.2297C63.8588 85.3234 65.9123 80.9804 65.9123 76.3958V66.0015L14.1241 107.832V95.7853C14.1241 92.983 15.3709 90.3262 17.5256 88.5373L60.3848 52.9537C63.8862 50.0467 65.9123 45.7295 65.9123 41.1757V30.7277L14.1241 73.1459V61.189C14.1241 58.3451 15.408 55.6535 17.6173 53.8658L63.6901 16.5852C64.9857 15.5369 66.8372 15.5389 68.1306 16.5899L120.324 59.0065C124.934 62.7536 131.825 59.4688 131.825 53.5235V17.4354Z" fill="#FA4B5F"/>
<path d="M125.836 99.8299C125.836 93.2828 123.713 88.0268 119.559 83.8772C115.406 79.7277 110.236 77.6991 103.96 77.6991C96.9443 77.6991 91.2213 79.9122 86.8829 84.2461C82.5444 88.58 80.4214 94.0205 80.4214 100.752C80.4214 107.391 82.6367 112.924 86.9752 117.258C91.4059 121.592 97.1289 123.805 104.144 123.805C114.575 123.805 122.975 118.364 125.282 109.881H111.898C110.513 112.094 108.021 113.201 104.421 113.201C98.6058 113.201 94.9135 110.619 93.3443 105.363H125.559C125.744 104.164 125.836 102.32 125.836 99.8299ZM103.59 88.2112C108.852 88.2112 112.359 91.2542 113.098 96.418H93.1597C94.5443 90.9775 98.052 88.2112 103.59 88.2112Z" fill="#181E39"/>
<path d="M175.53 78.6212H161.961L149.869 106.561L137.777 78.6212H124.208L144.146 122.791H155.592L175.53 78.6212Z" fill="#181E39"/>
<path d="M221.914 99.8299C221.914 93.2828 219.791 88.0268 215.638 83.8772C211.484 79.7277 206.315 77.6991 200.038 77.6991C193.022 77.6991 187.299 79.9122 182.961 84.2461C178.623 88.58 176.5 94.0205 176.5 100.752C176.5 107.391 178.715 112.924 183.053 117.258C187.484 121.592 193.207 123.805 200.222 123.805C210.653 123.805 219.053 118.364 221.361 109.881H207.976C206.592 112.094 204.099 113.201 200.499 113.201C194.684 113.201 190.992 110.619 189.423 105.363H221.637C221.822 104.164 221.914 102.32 221.914 99.8299ZM199.669 88.2112C204.93 88.2112 208.438 91.2542 209.176 96.418H189.238C190.622 90.9775 194.13 88.2112 199.669 88.2112Z" fill="#181E39"/>
<path d="M239.817 78.6212H226.986V122.791H239.817V96.418C243.417 92.4529 248.586 90.3321 255.324 90.0554V77.8835C249.14 77.8835 243.971 79.8199 239.817 83.6006V78.6212Z" fill="#181E39"/>
<path d="M312.329 78.529H298.852L285.929 108.682L271.622 78.529H257.96L279.468 123.897L270.883 143.999H284.36L312.329 78.529Z" fill="#181E39"/>
<path d="M342.768 77.238C338.153 77.238 333.907 78.7134 330.122 81.7564V78.6212H317.292V122.791H330.122V94.3894C333.168 90.7009 336.399 88.8567 339.814 88.8567C345.814 88.8567 349.322 92.6374 349.322 99.6454V122.791H362.153V98.5389C362.153 92.0841 360.399 86.9202 356.799 83.0473C353.291 79.1745 348.584 77.238 342.768 77.238Z" fill="#181E39"/>
<path d="M390.637 77.6991C383.806 77.6991 378.176 79.9122 373.653 84.2461C369.13 88.58 366.914 94.0205 366.914 100.752C366.914 107.483 369.13 113.108 373.653 117.534C378.176 121.961 383.806 124.174 390.637 124.174C397.376 124.174 403.006 121.961 407.437 117.534C411.96 113.108 414.175 107.483 414.175 100.752C414.175 94.0205 411.96 88.58 407.437 84.2461C403.006 79.9122 397.376 77.6991 390.637 77.6991ZM390.637 112.739C383.991 112.739 379.56 107.483 379.56 100.752C379.56 94.1127 383.991 89.1333 390.637 89.1333C397.191 89.1333 401.529 94.1127 401.529 100.752C401.529 107.483 397.191 112.739 390.637 112.739Z" fill="#181E39"/>
<path d="M441.211 77.6991C434.38 77.6991 428.75 79.9122 424.227 84.2461C419.704 88.58 417.488 94.0205 417.488 100.752C417.488 107.483 419.704 113.108 424.227 117.534C428.75 121.961 434.38 124.174 441.211 124.174C447.949 124.174 453.58 121.961 458.011 117.534C462.534 113.108 464.749 107.483 464.749 100.752C464.749 94.0205 462.534 88.58 458.011 84.2461C453.58 79.9122 447.949 77.6991 441.211 77.6991ZM441.211 112.739C434.565 112.739 430.134 107.483 430.134 100.752C430.134 94.1127 434.565 89.1333 441.211 89.1333C447.765 89.1333 452.103 94.1127 452.103 100.752C452.103 107.483 447.765 112.739 441.211 112.739Z" fill="#181E39"/>
<path d="M490.124 106.192L501.846 122.791H518L498.893 96.8791L516.062 78.6212H500.093L483.016 96.9713V57.3203H470.185V122.791H483.016V113.662L490.124 106.192Z" fill="#181E39"/>
</svg>
