<svg width="30" height="30" viewBox="0 0 30 30" fill="none" xmlns="http://www.w3.org/2000/svg">
<path d="M28.934 23.6409L23.9963 18.7032C24.8941 16.9077 25.4926 14.813 25.4926 12.7182C25.4926 5.68579 19.8068 0 12.7744 0C5.74194 0 0.0561523 5.68579 0.0561523 12.7182C0.0561523 19.7506 5.74194 25.4364 12.7744 25.4364C14.8691 25.4364 16.9639 24.8379 18.7594 23.9401L23.6971 28.8778C25.1933 30.3741 27.4377 30.3741 28.934 28.8778C30.2806 27.3815 30.2806 25.1372 28.934 23.6409ZM12.7744 22.4439C7.38783 22.4439 3.04867 18.1047 3.04867 12.7182C3.04867 7.33167 7.38783 2.99252 12.7744 2.99252C18.1609 2.99252 22.5001 7.33167 22.5001 12.7182C22.5001 18.1047 18.1609 22.4439 12.7744 22.4439Z" fill="#DFE2E7"/>
</svg>
