<svg width="80" height="80" viewBox="0 0 80 80" fill="none" xmlns="http://www.w3.org/2000/svg">
<path d="M40 9.375C30.9536 9.375 23.5938 16.7348 23.5938 25.7812C23.5938 31.3973 26.4259 36.5648 31.1698 39.6042C36.0141 42.7078 41.9605 43.0377 47.4864 40.4953C48.6622 39.9544 49.177 38.5625 48.6359 37.3866C48.095 36.2108 46.7033 35.6959 45.5272 36.2369C41.4866 38.0959 37.175 37.8845 33.6986 35.6573C30.3064 33.4841 28.2812 29.792 28.2812 25.7812C28.2812 19.3195 33.5383 14.0625 40 14.0625C46.4617 14.0625 51.7188 19.3195 51.7188 25.7812C51.7188 27.0736 50.6673 28.125 49.375 28.125C48.1941 28.125 47.0909 27.2294 47.0316 25.8169C47.0314 25.805 47.0312 25.7931 47.0312 25.7812C47.0312 21.9042 43.877 18.75 40 18.75C36.123 18.75 32.9688 21.9042 32.9688 25.7812C32.9688 29.6583 36.123 32.8125 40 32.8125C41.7994 32.8125 43.4423 32.1323 44.6873 31.0166C45.9322 32.1325 47.5755 32.8125 49.375 32.8125C53.252 32.8125 56.4062 29.6583 56.4062 25.7812C56.4062 16.7348 49.0464 9.375 40 9.375ZM42.3108 26.1572C42.1298 27.2711 41.1641 28.125 40 28.125C38.7077 28.125 37.6562 27.0736 37.6562 25.7812C37.6562 24.4889 38.7077 23.4375 40 23.4375C41.2017 23.4375 42.1937 24.3469 42.3273 25.5133C42.2923 25.7262 42.2866 25.943 42.3108 26.1572Z" fill="#2F344C"/>
<path d="M75.1561 30.7775C75.1555 30.1714 74.9114 29.5656 74.4697 29.1239L65.7812 20.4355V2.34375C65.7812 1.04937 64.7319 0 63.4375 0H16.5625C15.2681 0 14.2188 1.04937 14.2188 2.34375V20.4355L5.53031 29.1239C5.52219 29.132 5.51531 29.1411 5.50734 29.1494C5.06813 29.6019 4.84484 30.1977 4.84391 30.7775C4.84391 30.7791 4.84375 30.7805 4.84375 30.782V72.9688C4.84375 76.8508 8.0025 80 11.875 80H68.125C72.0061 80 75.1562 76.8427 75.1562 72.9688V30.782C75.1562 30.7805 75.1561 30.7791 75.1561 30.7775ZM65.7812 27.0645L69.498 30.7812L65.7812 34.498V27.0645ZM18.9062 21.407C18.9062 21.4066 18.9062 21.4059 18.9062 21.4055V4.6875H61.0938V21.4055C61.0938 21.4059 61.0938 21.4066 61.0938 21.407V39.1855L48.4042 51.875H31.5958L18.9062 39.1855V21.407ZM14.2188 27.0645V34.498L10.502 30.7812L14.2188 27.0645ZM9.53125 71.998V36.4395L27.3105 54.2188L9.53125 71.998ZM12.8459 75.3125L31.5958 56.5625H48.4042L67.1541 75.3125H12.8459ZM70.4688 71.998L52.6895 54.2188L70.4688 36.4395V71.998Z" fill="#2F344C"/>
</svg>
