<svg width="60" height="80" viewBox="0 0 60 80" fill="none" xmlns="http://www.w3.org/2000/svg">
<path d="M30.0002 1.5625C45.6965 1.5625 58.4212 15.0922 58.4212 30.625C58.4212 49.375 30.0002 78.4375 30.0002 78.4375C30.0002 78.4375 1.5791 49.375 1.5791 30.625C1.5791 15.0922 14.3038 1.5625 30.0002 1.5625Z" fill="#92D8F1"/>
<path d="M29.9998 16.5625L18.1577 26.6078V44.6875H41.8419V26.6078L29.9998 16.5625Z" fill="white"/>
<path d="M29.9998 32.1875C30.8719 32.1875 31.5788 31.4879 31.5788 30.625C31.5788 29.7621 30.8719 29.0625 29.9998 29.0625C29.1278 29.0625 28.4209 29.7621 28.4209 30.625C28.4209 31.4879 29.1278 32.1875 29.9998 32.1875Z" fill="#5D6174"/>
<path d="M18.1581 46.2499H41.8423C42.7142 46.2499 43.4213 45.5504 43.4213 44.6874V30.0043L45.5517 31.8115C46.2165 32.3754 47.2129 32.2943 47.778 31.6418C48.3455 30.9866 48.2688 30.0002 47.6066 29.4385L31.0278 15.3762C30.4366 14.8746 29.5639 14.8746 28.9726 15.3762L12.3938 29.4385C11.7316 30.0001 11.6549 30.9865 12.2224 31.6418C12.7897 32.2971 13.7866 32.3729 14.4487 31.8115L16.5792 30.0043V44.6874C16.5792 45.5504 17.2862 46.2499 18.1581 46.2499ZM19.7371 27.3257L30.0002 18.6204L40.2634 27.3257V43.1249H31.5792V36.8749C31.5792 36.0119 30.8721 35.3124 30.0002 35.3124C29.1283 35.3124 28.4213 36.0119 28.4213 36.8749V43.1249H19.7371V27.3257Z" fill="#5D6174"/>
<path d="M28.8654 79.5241C29.1628 79.8283 29.5723 80 30 80C30.4277 80 30.8372 79.8283 31.1346 79.5241C41.2121 69.2305 60 46.0736 60 30.625C60 25.1725 58.5021 19.7672 55.6677 14.9934C55.2257 14.2494 54.2583 14.0006 53.5064 14.4377C52.7545 14.8748 52.5032 15.8323 52.9448 16.5764C55.4945 20.8708 56.8421 25.7288 56.8421 30.625C56.8421 46.4327 35.2442 70.5356 30 76.1537C24.7558 70.5356 3.15789 46.4327 3.15789 30.625C3.15789 15.7184 15.4502 3.125 30 3.125C34.7964 3.125 39.5258 4.49078 43.6768 7.07484C44.4147 7.53437 45.3898 7.31469 45.854 6.58422C46.3183 5.85375 46.0963 4.88906 45.3581 4.42969C40.7029 1.53172 35.3921 0 30 0C13.176 0 0 14.4938 0 30.625C0 46.0575 18.7566 69.1984 28.8654 79.5241Z" fill="#5D6174"/>
<path d="M50.0526 11.7188C50.9246 11.7188 51.6315 11.0192 51.6315 10.1562C51.6315 9.29331 50.9246 8.59375 50.0526 8.59375C49.1806 8.59375 48.4736 9.29331 48.4736 10.1562C48.4736 11.0192 49.1806 11.7188 50.0526 11.7188Z" fill="#5D6174"/>
</svg>
