<svg width="20" height="20" viewBox="0 0 20 20" fill="none" xmlns="http://www.w3.org/2000/svg">
<path d="M2.20239 0.0239258C1.00282 0.0239258 0.0187988 0.994121 0.0187988 2.20752C0.0187988 3.42092 1.00278 4.39232 2.20239 4.39232H17.8106C19.0102 4.39232 19.9942 3.42416 19.9942 2.20752C19.9942 0.990879 19.0102 0.0239258 17.8106 0.0239258H2.20239ZM2.20239 7.82561C1.00282 7.82561 0.0187988 8.79986 0.0187988 10.0092C0.0187988 11.2185 1.00278 12.1989 2.20239 12.1989H17.8106C19.0102 12.1989 19.9942 11.2295 19.9942 10.0092C19.9942 8.78893 19.0102 7.82561 17.8106 7.82561H2.20239ZM2.20239 15.6309C1.00282 15.6309 0.0187988 16.5991 0.0187988 17.8157C0.0187988 19.0324 1.00278 19.9993 2.20239 19.9993H17.8106C19.0102 19.9993 19.9942 19.0291 19.9942 17.8157C19.9942 16.6023 19.0102 15.6309 17.8106 15.6309H2.20239Z" fill="#A4CFF2"/>
</svg>
