<svg width="80" height="80" viewBox="0 0 80 80" fill="none" xmlns="http://www.w3.org/2000/svg">
<g clip-path="url(#clip0)">
<path d="M62.8779 29.2502V49.2333C62.8779 50.1692 62.3185 51.0146 61.456 51.3786C55.2512 54.0052 48.3652 56.3927 40.7964 58.5412C40.5886 58.599 40.3729 58.6287 40.1589 58.6287C39.9448 58.6287 39.7292 58.599 39.5214 58.5412C31.9525 56.3927 25.0665 54.0052 18.8617 51.3786C18.0008 51.0146 17.4414 50.1692 17.4414 49.2333V29.9581L40.1589 29.6049L62.8779 29.2502Z" fill="white"/>
<path d="M40.1589 29.6047V58.6285C39.9448 58.6285 39.7292 58.5988 39.5214 58.541C31.9525 56.3926 25.0665 54.005 18.8617 51.3784C18.0008 51.0144 17.4414 50.1691 17.4414 49.2331V29.9579L40.1589 29.6047Z" fill="#DFEAEF"/>
<path d="M62.8779 30.0315V38.4519C56.3512 40.7254 49.509 42.8879 42.3526 44.9395C40.8167 45.3801 39.1854 45.3801 37.6495 44.9395C30.6088 42.9207 23.8727 40.7957 17.4414 38.5629V30.7393L62.8779 30.0315Z" fill="#DFEAEF"/>
<path d="M76.6334 23.7223C66.1469 19.5171 54.7197 15.6412 42.3516 12.0946C40.8159 11.6543 39.185 11.6543 37.6493 12.0946C25.2812 15.6412 13.8541 19.5171 3.36753 23.7223C0.439991 24.8962 0.439991 29.0384 3.36753 30.2124C13.8541 34.4176 25.2812 38.2934 37.6493 41.84C39.185 42.2803 40.8159 42.2803 42.3516 41.84C54.7197 38.2934 66.1469 34.4176 76.6334 30.2124C79.5609 29.0384 79.5609 24.8962 76.6334 23.7223V23.7223Z" fill="white"/>
<path d="M58.8079 58.8701C57.0424 58.8701 55.6113 60.3012 55.6113 62.0667V68.2368H62.0045V62.0667C62.0045 60.3014 60.5734 58.8701 58.8079 58.8701V58.8701Z" fill="#FA4B5F"/>
<path d="M59.8504 59.0466C58.5973 59.4778 57.6973 60.6685 57.6973 62.0669V68.2372H55.6113V62.0669C55.6113 60.3028 57.0426 58.8716 58.8066 58.8716C59.1723 58.8717 59.5238 58.9325 59.8504 59.0466Z" fill="#FA4B5F"/>
<path d="M77.0693 22.6345C66.5934 18.4339 55.0216 14.5085 42.6747 10.9675C40.9245 10.4655 39.075 10.4657 37.3254 10.9675C29.4371 13.2299 21.8268 15.6598 14.7058 18.1898C14.0959 18.4065 13.7772 19.0765 13.9938 19.6864C14.2103 20.2962 14.8803 20.615 15.4903 20.3983C22.5657 17.8843 30.1294 15.4693 37.9715 13.2204C39.2983 12.8397 40.7011 12.8396 42.0285 13.2204C54.2989 16.7395 65.795 20.6387 76.1971 24.8099C77.2726 25.2411 77.6561 26.2066 77.6562 26.9663C77.6564 27.7266 77.2731 28.6931 76.1971 29.1251C70.9708 31.2207 65.4651 33.2483 59.7216 35.1944C59.613 35.0586 59.4751 34.9452 59.3121 34.8675L40.5041 25.9091C39.9198 25.6307 39.2205 25.8788 38.942 26.4632C38.6637 27.0476 38.9119 27.7468 39.4961 28.0251L56.6783 36.2091C51.9398 37.7683 47.051 39.2727 42.0285 40.7132C40.7017 41.0937 39.2989 41.094 37.9715 40.7132C25.6919 37.1914 14.1959 33.2926 3.80348 29.1254C2.72691 28.6932 2.34362 27.7268 2.34378 26.9665C2.34393 26.2068 2.72738 25.2411 3.80301 24.8099C6.16898 23.8611 8.62401 22.9138 11.0998 21.9942C11.7065 21.7689 12.0156 21.0944 11.7903 20.4876C11.565 19.8809 10.89 19.5717 10.2837 19.797C7.789 20.7236 5.31491 21.6783 2.9305 22.6344C1.12329 23.3592 0.000468902 25.0189 1.46714e-07 26.966C-0.000468609 28.9138 1.12236 30.5746 2.93066 31.3007C7.19915 33.0123 11.6542 34.6777 16.2685 36.2914V49.2336C16.2685 50.6439 17.1068 51.9097 18.4038 52.4582C24.625 55.0916 31.6221 57.5178 39.2066 59.6708C39.5176 59.7572 39.8376 59.8011 40.1578 59.8011C40.478 59.8011 40.798 59.7572 41.1153 59.669C47.0045 57.9975 52.5406 56.159 57.6361 54.1869V57.8592C55.7949 58.3728 54.4395 60.0639 54.4395 62.0667V68.237C54.4395 68.8842 54.9641 69.4088 55.6114 69.4088H62.0046C62.652 69.4088 63.1765 68.8842 63.1765 68.237V62.0667C63.1765 60.0639 61.8212 58.3728 59.9799 57.8592V53.2577C60.6307 52.9933 61.2757 52.7274 61.9104 52.4586C63.2093 51.9105 64.0487 50.6446 64.0487 49.2336V47.3773C64.0487 46.7301 63.5242 46.2054 62.8768 46.2054C62.2295 46.2054 61.7049 46.7301 61.7049 47.3773V49.2336C61.7049 49.7 61.4281 50.1183 60.9981 50.2997C60.6613 50.4422 60.3213 50.5839 59.9799 50.7252V37.58C60.5576 37.3853 61.1321 37.1896 61.7049 36.9932V42.6898C61.7049 43.337 62.2295 43.8617 62.8768 43.8617C63.5242 43.8617 64.0487 43.337 64.0487 42.6898V36.1803C68.5502 34.6012 72.8991 32.9729 77.07 31.3006C78.8776 30.5746 80.0005 28.9138 80 26.966C79.9995 25.0189 78.8767 23.3592 77.0693 22.6345V22.6345ZM60.8327 62.0666V67.0649H56.7833V62.0666C56.7833 60.9501 57.6915 60.0419 58.808 60.0419C59.9246 60.0419 60.8327 60.9501 60.8327 62.0666V62.0666ZM57.6361 51.6714C52.378 53.7424 46.6238 55.6688 40.4816 57.4125C40.268 57.4718 40.0414 57.4701 39.8403 57.4142C32.3549 55.2893 25.45 52.8957 19.3171 50.2996C18.889 50.1185 18.6122 49.7002 18.6122 49.2336V37.1019C24.6051 39.1505 30.8565 41.111 37.3253 42.9663C38.2004 43.2173 39.1 43.3428 40 43.3428C40.8998 43.3428 41.7999 43.2173 42.6746 42.9663C47.8054 41.4948 52.7986 39.9566 57.6361 38.3614V51.6714Z" fill="#5D6174"/>
</g>
<defs>
<clipPath id="clip0">
<rect width="80" height="80" fill="white"/>
</clipPath>
</defs>
</svg>
