<svg width="55" height="55" viewBox="0 0 55 55" fill="none" xmlns="http://www.w3.org/2000/svg">
<g clip-path="url(#clip0)">
<path d="M19.1039 48.7945C15.2609 51.4233 13.407 53.5747 13.33 53.6649C12.6621 54.4479 13.8662 55.516 14.5556 54.7119C14.5732 54.6913 16.3652 52.6209 20.0139 50.125C20.874 49.5366 19.9641 48.2063 19.1039 48.7945Z" fill="#A3A5B0"/>
<path d="M53.9245 42.8846C52.6693 42.8846 51.4166 42.955 50.1936 43.0928C50.0319 42.4055 49.8405 41.7206 49.6097 41.0531C51.0247 40.9965 52.4664 40.9784 53.9101 41.0045C54.9534 41.021 54.9804 39.4115 53.9391 39.3928C52.2538 39.3627 50.5702 39.3892 48.9283 39.4688C48.3834 38.4855 47.7776 38.0149 47.0784 38.0149C46.3133 38.0149 45.6603 38.5779 45.0762 39.76C36.6738 40.6297 29.0665 42.9647 22.4594 46.7056C21.5736 47.2071 22.3629 48.6127 23.2537 48.1082C29.4488 44.6005 36.5622 42.3651 44.4136 41.4541C44.092 42.4626 43.8443 43.502 43.6684 44.5459C34.867 47.5366 30.4831 53.4609 30.2989 53.7144C29.7018 54.5361 30.966 55.5341 31.6023 54.6628C31.6434 54.6064 35.655 49.2106 43.4969 46.3168C43.5646 47.9497 44.7296 49.3034 46.2724 49.6593V52.2549C46.2724 53.2969 47.8843 53.2969 47.8843 52.2549V49.6593C50.2818 49.1062 50.8531 46.8035 50.5103 44.6795C51.6303 44.5583 52.7761 44.4965 53.9246 44.4965C54.9665 44.4964 54.9665 42.8846 53.9245 42.8846ZM47.8842 47.9658V45.4737C47.8842 45.0286 47.5235 44.6677 47.0783 44.6677C46.6331 44.6677 46.2723 45.0286 46.2723 45.4737V47.9658C45.5853 47.6569 45.1049 46.9672 45.1049 46.1663C45.1049 45.5292 45.3713 43.9195 45.8017 42.4297C45.9936 41.7651 46.1808 41.2468 46.3523 40.8463C46.3569 40.8361 46.3614 40.826 46.3656 40.8156C46.6816 40.085 46.9427 39.7559 47.0783 39.6513C47.2891 39.814 47.8022 40.5166 48.3549 42.4297C48.7852 43.9195 49.0516 45.5293 49.0516 46.1663C49.0516 46.9672 48.5712 47.6568 47.8842 47.9658Z" fill="#A3A5B0"/>
<path d="M3.58822 39.948C2.48688 39.948 1.61744 41.1134 0.852231 43.6154C0.320637 45.3537 0.00299072 47.2604 0.00299072 48.0995C0.00299072 49.7993 1.19234 51.2255 2.78228 51.5924V54.188C2.78228 55.23 4.39415 55.23 4.39415 54.188V51.5924C5.9841 51.2256 7.17345 49.7993 7.17345 48.0995C7.17345 47.2603 6.8558 45.3537 6.32421 43.6154C5.559 41.1134 4.68956 39.948 3.58822 39.948ZM4.39415 49.899V47.4069C4.39415 46.3649 2.78228 46.3649 2.78228 47.4069V49.899C2.0952 49.5901 1.61486 48.9004 1.61486 48.0995C1.61486 47.4624 1.88125 45.8527 2.31162 44.3629C2.86427 42.4498 3.37739 41.7472 3.58822 41.5845C3.79905 41.7472 4.31216 42.4498 4.86482 44.3629C5.29519 45.8527 5.56158 47.4625 5.56158 48.0995C5.56158 48.9004 5.08124 49.5901 4.39415 49.899Z" fill="#A3A5B0"/>
<path d="M54.2155 35.2755H53.5027V33.1801C53.5027 32.1381 51.8908 32.1381 51.8908 33.1801V35.2755H47.8604V26.2588C47.8604 26.0052 47.7351 25.7586 47.5307 25.6087L42.7936 22.1388C42.6555 22.0376 42.4886 21.983 42.3174 21.983H38.4584V16.1042H51.8908V29.5907C51.8908 30.6327 53.5027 30.6327 53.5027 29.5907V15.2982C53.5027 15.0669 53.3984 14.8391 53.223 14.6879L45.7009 8.20095C45.3985 7.94015 44.9506 7.94015 44.6481 8.20095L38.4574 13.5398V8.62487C38.4574 6.09123 36.5007 3.83278 34.0118 3.44561V0.781515C34.0118 -0.260505 32.4 -0.260505 32.4 0.781515V3.44561C29.9114 3.83268 27.9544 6.09144 27.9544 8.62487V14.7612L21.2995 9.66904C21.0106 9.44789 20.609 9.44789 20.3201 9.66904L17.981 11.4588C17.1535 12.0919 18.1329 13.3722 18.9605 12.7389L20.8097 11.3239L26.3939 15.5967H15.2257L16.1348 14.9012C16.9623 14.2679 15.9831 12.988 15.1553 13.621L12.3565 15.7627C12.1596 15.9131 12.0403 16.155 12.0403 16.4028V24.2847L8.12412 20.2559C7.80809 19.9306 7.28595 19.9303 6.96938 20.2548L1.64956 25.7071C1.50428 25.8561 1.42046 26.0619 1.42046 26.2699V35.2755H0.80892C-0.2331 35.2755 -0.2331 36.8874 0.80892 36.8874L9.62757 36.9332C9.4047 37.99 9.28058 38.9317 9.28058 39.4562C9.28058 41.156 10.4699 42.5821 12.0599 42.949V45.5446C12.0599 46.5867 13.6717 46.5867 13.6717 45.5446V42.949C15.2616 42.5821 16.4509 41.156 16.4509 39.4562C16.4509 38.9317 16.3268 37.99 16.104 36.9332L54.2155 36.8874C55.2576 36.8874 55.2576 35.2755 54.2155 35.2755ZM15.6917 35.2755C15.6624 35.174 15.6324 35.0728 15.6017 34.9721C15.033 33.1124 14.4067 31.9917 13.6704 31.5386L13.6521 26.2671V17.2086H27.9544V19.4326C27.9544 19.4808 27.9595 19.5278 27.9675 19.5737V26.2588V35.2755H15.6917ZM33.344 21.983C33.1702 21.983 32.9948 22.0422 32.8563 22.1471L29.5794 24.635V16.4026C29.5794 16.3725 29.5775 16.3428 29.5742 16.3136C29.5734 16.306 29.5719 16.2987 29.5708 16.2911C29.5694 16.2813 29.568 16.2713 29.5663 16.2615V9.43081H36.8455V21.9831H33.344V21.983ZM29.5794 26.6589L33.3437 23.8008L37.1079 26.6589V35.2755H35.7626V32.8557C35.7626 31.4997 34.6595 30.3965 33.3035 30.3965C31.9474 30.3965 30.8442 31.4997 30.8442 32.8557V35.2755H29.5793V26.6589H29.5794ZM34.1509 35.2755H32.4562V32.8557C32.4562 32.3885 32.8362 32.0084 33.3036 32.0084C33.7708 32.0084 34.1509 32.3885 34.1509 32.8557V35.2755ZM38.7198 35.2755V27.0648H46.2485V35.2755H38.7198ZM44.5903 25.4529H38.1852L35.7379 23.5948H42.0538L44.5903 25.4529ZM45.1746 9.87558L50.5281 14.4923H39.8212L45.1746 9.87558ZM33.2059 4.99516C34.9207 4.99516 36.3602 6.19621 36.7274 7.80131H29.6845C30.0515 6.19621 31.4911 4.99516 33.2059 4.99516ZM7.54503 21.9727L10.9389 25.464H7.5461H4.13872L7.54503 21.9727ZM3.03233 27.0758H7.5461H12.0402V31.552C11.3129 32.0134 10.6931 33.1301 10.1298 34.9721C10.0991 35.0728 10.0691 35.174 10.0398 35.2755H3.03244V27.0758H3.03233ZM13.6717 41.2557V38.7635C13.6717 38.3184 13.311 37.9576 12.8658 37.9576C12.4206 37.9576 12.0599 38.3184 12.0599 38.7635V41.2557C11.3728 40.9467 10.8925 40.2571 10.8925 39.4562C10.8925 38.8191 11.1588 37.2092 11.5891 35.7194C12.1419 33.8064 12.6549 33.1037 12.8658 32.9411C13.0766 33.1038 13.5898 33.8065 14.1424 35.7195C14.5728 37.2093 14.8391 38.8192 14.8391 39.4562C14.8391 40.2571 14.3587 40.9466 13.6717 41.2557Z" fill="#A3A5B0"/>
<path d="M20.8097 19.408C20.3645 19.408 20.0038 19.7688 20.0038 20.2139V24.3695C20.0038 24.8146 20.3645 25.1754 20.8097 25.1754C21.2549 25.1754 21.6157 24.8146 21.6157 24.3695V20.2139C21.6157 19.7688 21.2549 19.408 20.8097 19.408Z" fill="#A3A5B0"/>
<path d="M24.7813 19.408C24.3361 19.408 23.9753 19.7688 23.9753 20.2139V24.3695C23.9753 24.8146 24.3361 25.1754 24.7813 25.1754C25.2265 25.1754 25.5872 24.8146 25.5872 24.3695V20.2139C25.5872 19.7688 25.2265 19.408 24.7813 19.408Z" fill="#A3A5B0"/>
<path d="M20.8097 27.3557C20.3645 27.3557 20.0038 27.7166 20.0038 28.1616V32.3173C20.0038 32.7624 20.3645 33.1232 20.8097 33.1232C21.2549 33.1232 21.6157 32.7624 21.6157 32.3173V28.1616C21.6157 27.7166 21.2549 27.3557 20.8097 27.3557Z" fill="#A3A5B0"/>
<path d="M24.7813 27.3557C24.3361 27.3557 23.9753 27.7166 23.9753 28.1616V32.3173C23.9753 32.7624 24.3361 33.1232 24.7813 33.1232C25.2265 33.1232 25.5872 32.7624 25.5872 32.3173V28.1616C25.5872 27.7166 25.2265 27.3557 24.7813 27.3557Z" fill="#A3A5B0"/>
<path d="M16.8381 19.408C16.3929 19.408 16.0322 19.7688 16.0322 20.2139V24.3695C16.0322 24.8146 16.3929 25.1754 16.8381 25.1754C17.2833 25.1754 17.644 24.8146 17.644 24.3695V20.2139C17.644 19.7688 17.2833 19.408 16.8381 19.408Z" fill="#A3A5B0"/>
<path d="M16.8381 27.3557C16.3929 27.3557 16.0322 27.7166 16.0322 28.1616V32.3173C16.0322 32.7624 16.3929 33.1232 16.8381 33.1232C17.2833 33.1232 17.644 32.7624 17.644 32.3173V28.1616C17.644 27.7166 17.2833 27.3557 16.8381 27.3557Z" fill="#A3A5B0"/>
<path d="M33.3036 28.25C34.3407 28.25 34.3425 26.6382 33.3036 26.6382C32.2664 26.6382 32.2647 28.25 33.3036 28.25Z" fill="#A3A5B0"/>
<path d="M40.9086 28.5979C40.4634 28.5979 40.1027 28.9587 40.1027 29.4038V30.7553C40.1027 31.2004 40.4634 31.5613 40.9086 31.5613C41.3538 31.5613 41.7145 31.2004 41.7145 30.7553V29.4038C41.7145 28.9587 41.3537 28.5979 40.9086 28.5979Z" fill="#A3A5B0"/>
<path d="M44.0506 28.5979C43.6054 28.5979 43.2447 28.9587 43.2447 29.4038V30.7553C43.2447 31.2004 43.6054 31.5613 44.0506 31.5613C44.4958 31.5613 44.8566 31.2004 44.8566 30.7553V29.4038C44.8566 28.9587 44.4957 28.5979 44.0506 28.5979Z" fill="#A3A5B0"/>
<path d="M33.2059 12.5835C32.1189 12.5835 31.2344 13.4679 31.2344 14.555V17.7816C31.2344 18.2266 31.5951 18.5875 32.0403 18.5875H34.3715C34.8167 18.5875 35.1774 18.2266 35.1774 17.7816V14.555C35.1775 13.4679 34.2931 12.5835 33.2059 12.5835ZM33.5657 16.9756H32.8464V14.555C32.8464 14.3567 33.0076 14.1954 33.206 14.1954C33.4044 14.1954 33.5658 14.3567 33.5658 14.555V16.9756H33.5657Z" fill="#A3A5B0"/>
<path d="M10.3025 32.404V30.1438C10.3025 29.6987 9.94181 29.3379 9.49661 29.3379C9.05141 29.3379 8.69067 29.6987 8.69067 30.1438V32.404C8.69067 32.8491 9.05141 33.2099 9.49661 33.2099C9.94181 33.2099 10.3025 32.8491 10.3025 32.404Z" fill="#A3A5B0"/>
<path d="M5.59542 29.3379C5.15023 29.3379 4.78949 29.6987 4.78949 30.1438V32.404C4.78949 32.8491 5.15023 33.2099 5.59542 33.2099C6.04062 33.2099 6.40136 32.8491 6.40136 32.404V30.1438C6.40136 29.6987 6.04062 29.3379 5.59542 29.3379Z" fill="#A3A5B0"/>
<path d="M40.2608 18.3343V20.1336C40.2608 20.5787 40.6215 20.9396 41.0667 20.9396C41.5119 20.9396 41.8727 20.5787 41.8727 20.1336V18.3343C41.8727 17.8892 41.5119 17.5283 41.0667 17.5283C40.6215 17.5283 40.2608 17.8892 40.2608 18.3343Z" fill="#A3A5B0"/>
<path d="M48.4215 18.3343V20.1336C48.4215 20.5787 48.7822 20.9396 49.2274 20.9396C49.6726 20.9396 50.0334 20.5787 50.0334 20.1336V18.3343C50.0334 17.8892 49.6726 17.5283 49.2274 17.5283C48.7822 17.5283 48.4215 17.8892 48.4215 18.3343Z" fill="#A3A5B0"/>
<path d="M44.3016 18.3343V20.1336C44.3016 20.5787 44.6623 20.9396 45.1075 20.9396C45.5527 20.9396 45.9135 20.5787 45.9135 20.1336V18.3343C45.9135 17.8892 45.5527 17.5283 45.1075 17.5283C44.6623 17.5283 44.3016 17.8892 44.3016 18.3343Z" fill="#A3A5B0"/>
</g>
<defs>
<clipPath id="clip0">
<rect width="55" height="55" fill="white"/>
</clipPath>
</defs>
</svg>
