<svg width="100" height="87" viewBox="0 0 100 87" fill="none" xmlns="http://www.w3.org/2000/svg">
<path fill-rule="evenodd" clip-rule="evenodd" d="M48.6239 11.9673C47.5756 11.7254 46.5296 12.3777 46.287 13.426C46.0444 14.4743 46.6982 15.5211 47.7465 15.7637C52.5927 16.8837 57.0223 19.3441 60.5555 22.8773C70.9429 33.2647 70.9429 50.1677 60.5555 60.5551C50.1681 70.9433 33.2652 70.9433 22.8778 60.5551C12.4896 50.1677 12.4896 33.2647 22.8778 22.8773C25.8601 19.895 29.3894 17.7198 33.3682 16.4106C34.3897 16.075 34.9459 14.974 34.6102 13.9517C34.2738 12.9294 33.1721 12.3732 32.1505 12.7096C27.5866 14.2103 23.54 16.7044 20.1228 20.1223C8.21558 32.0295 8.21558 51.4036 20.1228 63.3108C26.076 69.264 33.8961 72.241 41.717 72.241C49.5371 72.2403 57.3573 69.264 63.3113 63.3108C75.2177 51.4036 75.2177 32.0295 63.3113 20.1223C59.2608 16.0727 54.1827 13.2521 48.6239 11.9673V11.9673Z" fill="#EFF1F3"/>
<path fill-rule="evenodd" clip-rule="evenodd" d="M97.3465 84.5131L76.9302 64.0968C87.3993 47.6799 85.1067 26.1116 71.2143 12.2185C63.3354 4.3396 52.8595 0 41.7168 0C30.5733 0 20.0974 4.3396 12.2185 12.2185C4.33884 20.0974 0 30.5733 0 41.7168C0 52.8595 4.33884 63.3354 12.2185 71.2143C20.0974 79.0932 30.5725 83.432 41.7152 83.432C49.7124 83.432 57.4158 81.189 64.0968 76.9302L84.5131 97.3465C86.2213 99.0555 88.5002 99.9962 90.9302 99.9962C93.3594 99.9962 95.6383 99.0555 97.3473 97.3465C100.884 93.808 100.884 88.0516 97.3465 84.5131V84.5131ZM94.5915 94.5915C93.6188 95.5635 92.3187 96.0991 90.9302 96.0991C89.5409 96.0991 88.2408 95.5635 87.2681 94.5915L65.7242 73.0476C65.3473 72.67 64.8483 72.477 64.3463 72.477C63.9603 72.477 63.5727 72.5906 63.2362 72.8241C56.9061 77.2148 49.4637 79.5357 41.7152 79.5357C31.6132 79.5357 22.1161 75.602 14.9735 68.4593C0.227356 53.7132 0.227356 29.7195 14.9735 14.9734C22.1169 7.83005 31.6139 3.89633 41.7168 3.89633C51.8189 3.89633 61.3159 7.83005 68.4593 14.9734C81.4049 27.9198 83.2413 48.217 72.8241 63.2362C72.287 64.0106 72.3808 65.0574 73.0476 65.7242L94.5915 87.2681C96.6103 89.2868 96.6103 92.572 94.5915 94.5915V94.5915Z" fill="#EFF1F3"/>
<path fill-rule="evenodd" clip-rule="evenodd" d="M53.4774 29.9563C52.7168 29.1956 51.4839 29.1956 50.7225 29.9563L41.7167 38.962L32.7102 29.9563C31.9496 29.1956 30.7159 29.1956 29.9553 29.9563C29.1946 30.7169 29.1946 31.9506 29.9553 32.7112L38.961 41.7177L29.9553 50.7235C29.1946 51.4841 29.1946 52.7178 29.9553 53.4785C30.3352 53.8592 30.8342 54.0491 31.3324 54.0491C31.8313 54.0491 32.3295 53.8592 32.7102 53.4785L41.716 44.4727L50.7217 53.4785C51.1024 53.8592 51.6014 54.0491 52.0996 54.0491C52.5985 54.0491 53.0967 53.8592 53.4774 53.4785C54.2381 52.7178 54.2381 51.4841 53.4774 50.7235L44.4709 41.7177L53.4774 32.7112C54.2381 31.9506 54.2381 30.7169 53.4774 29.9563V29.9563Z" fill="#EFF1F3"/>
<path fill-rule="evenodd" clip-rule="evenodd" d="M40.4251 15.1035C41.4978 15.1035 42.3729 14.2284 42.3729 13.155C42.3729 12.0823 41.4978 11.2072 40.4251 11.2072C39.3517 11.2072 38.4766 12.0823 38.4766 13.155C38.4766 14.2284 39.3517 15.1035 40.4251 15.1035Z" fill="#EFF1F3"/>
</svg>
