<svg width="22" height="22" viewBox="0 0 22 22" fill="none" xmlns="http://www.w3.org/2000/svg">
<path d="M20.1663 0.916718H9.16626C8.92315 0.916718 8.68999 1.01329 8.51808 1.1852C8.34617 1.35711 8.24959 1.59027 8.24959 1.83338V4.58338H1.83293C1.58981 4.58338 1.35665 4.67996 1.18475 4.85187C1.01284 5.02378 0.91626 5.25694 0.91626 5.50005V20.1667C0.91626 20.4098 1.01284 20.643 1.18475 20.8149C1.35665 20.9868 1.58981 21.0834 1.83293 21.0834H20.1663C20.4094 21.0834 20.6425 20.9868 20.8144 20.8149C20.9864 20.643 21.0829 20.4098 21.0829 20.1667V1.83338C21.0829 1.59027 20.9864 1.35711 20.8144 1.1852C20.6425 1.01329 20.4094 0.916718 20.1663 0.916718ZM11.9163 19.2501H2.74959V6.41672H11.9163V19.2501ZM19.2496 19.2501H13.7496V5.50005C13.7496 5.25694 13.653 5.02378 13.4811 4.85187C13.3092 4.67996 13.076 4.58338 12.8329 4.58338H10.0829V2.75005H19.2496V19.2501Z" fill="#A3A5B0"/>
<path d="M5.50041 10.0833H9.16707C9.41019 10.0833 9.64335 9.98675 9.81525 9.81485C9.98716 9.64294 10.0837 9.40978 10.0837 9.16667C10.0837 8.92355 9.98716 8.69039 9.81525 8.51849C9.64335 8.34658 9.41019 8.25 9.16707 8.25H5.50041C5.25729 8.25 5.02413 8.34658 4.85223 8.51849C4.68032 8.69039 4.58374 8.92355 4.58374 9.16667C4.58374 9.40978 4.68032 9.64294 4.85223 9.81485C5.02413 9.98675 5.25729 10.0833 5.50041 10.0833Z" fill="#A3A5B0"/>
<path d="M5.50041 13.7501H9.16707C9.41019 13.7501 9.64335 13.6535 9.81525 13.4816C9.98716 13.3097 10.0837 13.0765 10.0837 12.8334C10.0837 12.5903 9.98716 12.3571 9.81525 12.1852C9.64335 12.0133 9.41019 11.9167 9.16707 11.9167H5.50041C5.25729 11.9167 5.02413 12.0133 4.85223 12.1852C4.68032 12.3571 4.58374 12.5903 4.58374 12.8334C4.58374 13.0765 4.68032 13.3097 4.85223 13.4816C5.02413 13.6535 5.25729 13.7501 5.50041 13.7501Z" fill="#A3A5B0"/>
<path d="M5.50041 17.4166H9.16707C9.41019 17.4166 9.64335 17.32 9.81525 17.1481C9.98716 16.9762 10.0837 16.743 10.0837 16.4999C10.0837 16.2568 9.98716 16.0236 9.81525 15.8517C9.64335 15.6798 9.41019 15.5833 9.16707 15.5833H5.50041C5.25729 15.5833 5.02413 15.6798 4.85223 15.8517C4.68032 16.0236 4.58374 16.2568 4.58374 16.4999C4.58374 16.743 4.68032 16.9762 4.85223 17.1481C5.02413 17.32 5.25729 17.4166 5.50041 17.4166Z" fill="#A3A5B0"/>
</svg>
