<svg width="48" height="48" viewBox="0 0 48 48" fill="none" xmlns="http://www.w3.org/2000/svg">
<path d="M22.7122 10.9071C22.7122 4.89089 17.8213 0 11.8051 0C5.79966 0 0.897949 4.89089 0.897949 10.9071C0.897949 16.9234 5.78884 21.8142 11.8051 21.8142C17.8213 21.8142 22.7122 16.9234 22.7122 10.9071ZM6.31905 10.9071C6.31905 7.87737 8.78614 5.4211 11.8051 5.4211C14.8348 5.4211 17.2911 7.88819 17.2911 10.9071C17.2911 13.9369 14.824 16.3931 11.8051 16.3931C8.78614 16.3931 6.31905 13.9369 6.31905 10.9071Z" fill="#FF4D61"/>
<path d="M36.1947 26.1858C30.1785 26.1858 25.2876 31.0767 25.2876 37.0929C25.2876 43.1091 30.1785 48 36.1947 48C42.211 48 47.1019 43.1091 47.1019 37.0929C47.1019 31.0767 42.211 26.1858 36.1947 26.1858ZM36.1947 42.5789C33.165 42.5789 30.7087 40.1118 30.7087 37.0929C30.7087 34.0632 33.1758 31.6069 36.1947 31.6069C39.2245 31.6069 41.6808 34.074 41.6808 37.0929C41.6808 40.1227 39.2137 42.5789 36.1947 42.5789Z" fill="#FF4D61"/>
<path d="M36.5302 1.39586C35.1127 0.605962 33.3273 1.11453 32.5374 2.53202L10.2687 42.514C9.47876 43.9315 9.98733 45.7169 11.4048 46.5068C11.8593 46.7556 12.3462 46.8747 12.8331 46.8747C13.8611 46.8747 14.8674 46.3336 15.3976 45.3706L37.6663 5.38865C38.4562 3.98198 37.9477 2.18576 36.5302 1.39586Z" fill="#5D6174"/>
</svg>
