<svg width="18" height="23" viewBox="0 0 18 23" fill="none" xmlns="http://www.w3.org/2000/svg">
<path d="M16.8752 19.1638L14.3355 15.9887C14.1236 15.7252 13.6766 15.5144 13.3406 15.5187C10.2447 15.5779 9.03626 15.9634 7.0601 12.5097C5.08286 9.05532 6.02101 8.19569 7.6174 5.52042C7.79083 5.22911 7.83292 4.73285 7.71246 4.41592L6.25681 0.609821C6.13562 0.292159 5.76554 0.0842872 5.43537 0.14577L4.16075 0.382234C3.82153 0.445166 3.49041 0.558759 3.21321 0.764174C0.113166 3.06141 -0.563584 9.29878 2.71967 15.0336C6.00337 20.7705 11.7013 23.3051 15.2236 21.7441C15.5378 21.6049 15.7991 21.3739 16.0207 21.1112L16.8636 20.1117C17.0813 19.854 17.0864 19.4266 16.8752 19.1638Z" fill="white"/>
</svg>
