<svg width="20" height="20" viewBox="0 0 20 20" fill="none" xmlns="http://www.w3.org/2000/svg">
<path d="M7.29199 15.3147V19.3477C7.29199 19.6295 7.46532 19.879 7.72199 19.9677C7.78616 19.9895 7.85199 19.9999 7.91699 19.9999C8.11199 19.9999 8.30032 19.9042 8.42032 19.7338L10.6811 16.5234L7.29199 15.3147Z" fill="white"/>
<path d="M19.7375 0.120946C19.5458 -0.0207924 19.2941 -0.0399228 19.0858 0.0739898L0.335869 10.2913C0.114203 10.4122 -0.0166295 10.6592 0.00170373 10.9192C0.0208703 11.18 0.186703 11.4026 0.422536 11.487L5.63502 13.3461L16.7358 3.4418L8.14584 14.2409L16.8816 17.3565C16.9466 17.3791 17.015 17.3913 17.0833 17.3913C17.1966 17.3913 17.3091 17.3591 17.4083 17.2965C17.5666 17.1957 17.6741 17.0261 17.7016 16.8357L19.9933 0.74877C20.0275 0.505292 19.9291 0.263554 19.7375 0.120946Z" fill="white"/>
</svg>
