<svg width="100" height="101" viewBox="0 0 100 101" fill="none" xmlns="http://www.w3.org/2000/svg">
<g opacity="0.8" clip-path="url(#clip0)">
<path d="M99.9737 49.1935C99.1348 22.9503 77.9004 1.73772 51.6319 0.899652C37.3383 0.446604 23.9657 5.88178 14.0828 16.0754C4.58175 25.8748 -0.410249 38.7937 0.0264015 52.4539C0.864602 78.6963 22.099 99.9096 48.3676 100.747C48.9144 100.765 49.4564 100.773 49.9997 100.773C63.6566 100.773 76.4122 95.3742 85.9167 85.5713C95.4177 75.7725 100.41 62.8529 99.9737 49.1935ZM78.3532 78.2531C70.8501 85.9921 60.7805 90.2539 49.9997 90.2539C49.5687 90.2539 49.1377 90.2469 48.7031 90.2336C27.9713 89.5723 11.2129 72.8305 10.5502 52.1186C10.2056 41.3311 14.1459 31.1298 21.6462 23.3943C29.1493 15.6553 39.219 11.3934 49.9997 11.3934C50.4308 11.3934 50.8618 11.4004 51.2963 11.4137C72.0281 12.0751 88.7865 28.8168 89.4492 49.5287C89.7939 60.3163 85.8528 70.5176 78.3532 78.2531Z" fill="white"/>
<path d="M66.4001 47.9211L44.2278 32.0392C41.8627 30.3448 38.5703 32.0336 38.5703 34.9412V66.7058C38.5703 69.6135 41.8627 71.3022 44.2278 69.6078L66.3994 53.7252C68.3889 52.3008 68.3889 49.3462 66.4001 47.9211Z" fill="white"/>
</g>
<defs>
<clipPath id="clip0">
<rect width="100" height="99.9006" fill="white" transform="translate(0 0.872803)"/>
</clipPath>
</defs>
</svg>
