<svg width="55" height="55" viewBox="0 0 55 55" fill="none" xmlns="http://www.w3.org/2000/svg">
<path d="M25.3516 37.8369C24.9068 37.8369 24.5459 38.1974 24.5459 38.6426V40.2715C24.5459 40.7167 24.9068 41.0772 25.3516 41.0772C25.7964 41.0772 26.1572 40.7167 26.1572 40.2715V38.6426C26.1572 38.1974 25.7964 37.8369 25.3516 37.8369Z" fill="#A3A5B0"/>
<path d="M13.6526 25.8418H10.5173C9.77707 25.8418 9.1745 26.4439 9.1745 27.1846V35.2723C9.1745 36.0129 9.77707 36.615 10.5173 36.615H13.6526C14.3929 36.615 14.9954 36.0129 14.9954 35.2723V27.1846C14.9954 26.4439 14.3929 25.8418 13.6526 25.8418ZM13.3841 35.0037H10.7858V27.4531H13.3841V35.0037Z" fill="#A3A5B0"/>
<path d="M44.4827 25.8418H41.3474C40.6071 25.8418 40.0046 26.4439 40.0046 27.1846V35.2723C40.0046 36.0129 40.6071 36.615 41.3474 36.615H44.4827C45.2229 36.615 45.8255 36.0129 45.8255 35.2723V27.1846C45.8255 26.4439 45.2229 25.8418 44.4827 25.8418ZM44.2142 35.0037H41.6159V27.4531H44.2142V35.0037Z" fill="#A3A5B0"/>
<path d="M27.8512 19.3574H27.1488C25.4057 19.3574 23.9878 20.7757 23.9878 22.5188V25.5812C23.9878 26.2203 24.5077 26.7402 25.1468 26.7402H29.8532C30.4923 26.7402 31.0122 26.2203 31.0122 25.5812V22.5188C31.0122 20.7757 29.5943 19.3574 27.8512 19.3574ZM25.5987 25.1288V22.5188C25.5987 21.6641 26.294 20.9688 27.1488 20.9688H27.8512C28.7056 20.9688 29.4009 21.6641 29.4009 22.5188V25.1288H25.5987Z" fill="#A3A5B0"/>
<path d="M54.1943 45.8834H50.4073V22.1037H53.6572C54.094 22.1037 54.4679 21.8981 54.658 21.5536C54.8477 21.2091 54.8217 20.7828 54.5884 20.4135L47.9979 9.98688C47.6945 9.50642 47.0613 9.15771 46.4931 9.15771H29.5272L28.463 7.87411C28.2196 7.58038 27.8684 7.41211 27.5 7.41211C27.1312 7.41211 26.7804 7.58038 26.537 7.87411L25.4728 9.15771H8.50689C7.93831 9.15771 7.30553 9.50642 7.00172 9.98688L0.411644 20.4135C0.178337 20.7832 0.152321 21.2091 0.341988 21.5536C0.532074 21.8981 0.905953 22.1037 1.34277 22.1037H4.5927V39.2904C3.78242 40.0654 3.27637 41.1552 3.27637 42.3624C3.27637 42.5835 3.29441 42.8005 3.32714 43.0128H2.98515C2.24495 43.0128 1.64238 43.6154 1.64238 44.3556V45.8834H0.805664C0.36087 45.8834 0 46.2443 0 46.6891C0 47.1343 0.36087 47.4947 0.805664 47.4947H54.1943C54.6391 47.4947 55 47.1343 55 46.6891C55 46.2443 54.6391 45.8834 54.1943 45.8834ZM50.8873 17.574H36.5046L35.4362 16.2849H50.0724L50.8873 17.574ZM48.2391 13.3845L49.054 14.6736H34.1002L33.0314 13.3845H48.2391ZM46.4847 10.769C46.5288 10.7766 46.6106 10.8219 46.6404 10.8551L47.2207 11.7732H31.6953L30.8632 10.769H46.4847ZM6.76086 13.3845H12.1387C12.5835 13.3845 12.9443 13.0236 12.9443 12.5788C12.9443 12.1336 12.5835 11.7732 12.1387 11.7732H7.77885L8.3596 10.8546C8.3894 10.8219 8.47122 10.7766 8.51486 10.769H24.1368L23.3043 11.7732H15.8984C15.4536 11.7732 15.0928 12.1336 15.0928 12.5788C15.0928 13.0236 15.4536 13.3845 15.8984 13.3845H21.9686L20.8998 14.6736H5.94597L6.76086 13.3845ZM4.92756 16.2849H19.5638L18.495 17.574H4.11266L4.92756 16.2849ZM2.26803 20.4924L3.09425 19.1853H17.1594L16.0755 20.4924H2.26803ZM17.8077 38.0668C17.1976 37.7189 16.4964 37.5204 15.7574 37.5204C14.306 37.5204 12.9603 38.2934 12.2092 39.5036C12.0078 39.4641 11.8017 39.4444 11.5923 39.4444C11.2915 39.4444 11.0003 39.4868 10.7237 39.5648C9.92855 38.6622 8.76705 38.1096 7.52876 38.1096C7.06635 38.1096 6.62113 38.1851 6.20403 38.3223V22.1037H14.7395C14.447 22.457 14.3752 22.8859 14.5469 23.2514C14.7189 23.6173 15.0957 23.8359 15.5548 23.8359H17.8077V38.0668ZM8.4045 43.0128H4.97036C4.91749 42.8047 4.8877 42.5869 4.8877 42.3624C4.8877 40.9059 6.07269 39.7209 7.52876 39.7209C8.19386 39.7209 8.82328 39.9781 9.30122 40.4099C8.7339 40.9894 8.38352 41.7817 8.38352 42.6545C8.38352 42.7757 8.39108 42.8953 8.4045 43.0128ZM17.8077 45.8834H3.25371V44.6241H17.8077V45.8834ZM17.8081 43.0128H10.0368C10.01 42.8978 9.99485 42.7778 9.99485 42.6545C9.99485 41.7728 10.7116 41.0557 11.5923 41.0557C11.8307 41.0557 12.0602 41.1073 12.2746 41.2085C12.4773 41.3046 12.7102 41.3113 12.9183 41.2286C13.1264 41.1455 13.2901 40.9793 13.3711 40.7704C13.7492 39.7902 14.7088 39.1318 15.7579 39.1318C16.5858 39.1318 17.3369 39.538 17.8081 40.1682V43.0128ZM16.7326 22.2246L27.5 9.23702L38.2674 22.2246H36.8465L28.1202 11.6993C27.967 11.5151 27.7396 11.4081 27.5 11.4081C27.26 11.4081 27.0325 11.5151 26.8798 11.6998L18.1535 22.2246H16.7326ZM30.9115 45.8834H24.0885V33.3792H30.9115V45.8834ZM48.796 45.8834H37.1923V36.1546C37.1923 35.7098 36.8314 35.3489 36.3866 35.3489C35.9418 35.3489 35.581 35.7098 35.581 36.1546V45.8834H32.5228V33.1107C32.5228 32.3705 31.9207 31.7679 31.18 31.7679H23.82C23.0793 31.7679 22.4772 32.3705 22.4772 33.1107V45.8834H19.419V23.2228L27.5 13.476L35.581 23.2228V32.3411C35.581 32.7863 35.9418 33.1468 36.3866 33.1468C36.8314 33.1468 37.1923 32.7863 37.1923 32.3411V23.8359H39.4448C39.9039 23.8359 40.2807 23.6173 40.4527 23.2514C40.6248 22.8859 40.5526 22.457 40.2605 22.1037H43.3984C43.8432 22.1037 44.2041 21.7433 44.2041 21.2981C44.2041 20.8533 43.8432 20.4924 43.3984 20.4924H38.9245L37.8406 19.1853H51.9057L52.732 20.4924H47.2656C46.8208 20.4924 46.46 20.8533 46.46 21.2981C46.46 21.7433 46.8208 22.1037 47.2656 22.1037H48.796V45.8834Z" fill="#A3A5B0"/>
</svg>
