<svg width="80" height="80" viewBox="0 0 80 80" fill="none" xmlns="http://www.w3.org/2000/svg">
<path d="M58.4595 17.9907L55.6696 20.7812L58.4595 23.5718C59.6802 24.7919 59.6802 26.7706 58.4595 27.9907C57.8497 28.6011 57.0496 28.9062 56.25 28.9062C55.4498 28.9062 54.6503 28.6011 54.0399 27.9907L51.25 25.2008L48.4595 27.9907C47.8497 28.6011 47.0496 28.9062 46.25 28.9062C45.4498 28.9062 44.6503 28.6011 44.0399 27.9907C42.8198 26.7706 42.8198 24.7919 44.0399 23.5718L46.8304 20.7812L44.0399 17.9907C42.8198 16.7706 42.8198 14.7919 44.0399 13.5718C45.2606 12.3511 47.2394 12.3511 48.4595 13.5718L51.25 16.3617L54.0399 13.5718C55.2606 12.3511 57.2394 12.3511 58.4595 13.5718C59.6796 14.7919 59.6802 16.7706 58.4595 17.9907ZM37.5208 14.8199C36.2994 13.6005 34.3207 13.6017 33.1012 14.823L27.3889 20.5438L25.0562 18.1372C23.855 16.8982 21.8768 16.8671 20.6372 18.0682C19.3982 19.2694 19.3671 21.2482 20.5688 22.4872L25.1123 27.1747C25.6952 27.7765 26.4954 28.1189 27.3328 28.125H27.356C28.1854 28.125 28.9807 27.7954 29.5673 27.2076L37.5238 19.2389C38.7433 18.0182 38.7421 16.0394 37.5208 14.8199ZM59.375 39.5404C59.375 37.8143 57.9761 36.4154 56.25 36.4154H46.25C44.5239 36.4154 43.125 37.8143 43.125 39.5404C43.125 41.2665 44.5239 42.6654 46.25 42.6654H56.25C57.9761 42.6654 59.375 41.2665 59.375 39.5404V39.5404ZM33.9062 36.4062H23.9062C22.1802 36.4062 20.7812 37.8052 20.7812 39.5312C20.7812 41.2573 22.1802 42.6562 23.9062 42.6562H33.9062C35.6323 42.6562 37.0312 41.2573 37.0312 39.5312C37.0312 37.8052 35.6323 36.4062 33.9062 36.4062ZM46.25 47.9688C44.5239 47.9688 43.125 49.3677 43.125 51.0938C43.125 52.8198 44.5239 54.2188 46.25 54.2188H53.125C54.8511 54.2188 56.25 52.8198 56.25 51.0938C56.25 49.3677 54.8511 47.9688 53.125 47.9688H46.25ZM33.9062 47.9596H23.9062C22.1802 47.9596 20.7812 49.3585 20.7812 51.0846C20.7812 52.8107 22.1802 54.2096 23.9062 54.2096H33.9062C35.6323 54.2096 37.0312 52.8107 37.0312 51.0846C37.0312 49.3585 35.6323 47.9596 33.9062 47.9596ZM33.9062 59.375H23.9062C22.1802 59.375 20.7812 60.7739 20.7812 62.5C20.7812 64.2261 22.1802 65.625 23.9062 65.625H33.9062C35.6323 65.625 37.0312 64.2261 37.0312 62.5C37.0312 60.7739 35.6323 59.375 33.9062 59.375ZM68.576 55C70.3021 55 71.701 53.6011 71.701 51.875V12.5C71.701 5.6073 66.0938 0 59.201 0H20.7812C13.8885 0 8.28125 5.6073 8.28125 12.5V67.5C8.28125 74.3927 13.8885 80 20.7812 80H59.2017C66.0938 80 71.7017 74.3927 71.7017 67.5C71.7017 65.7739 70.3021 64.375 68.5767 64.375C66.8506 64.375 65.4517 65.7739 65.4517 67.5C65.4517 70.946 62.6477 73.75 59.2017 73.75H20.7812C17.3352 73.75 14.5312 70.946 14.5312 67.5V12.5C14.5312 9.05396 17.3352 6.25 20.7812 6.25H59.2017C62.6477 6.25 65.4517 9.05396 65.4517 12.5V51.875C65.451 53.6011 66.8506 55 68.576 55Z" fill="#2F344C"/>
</svg>
