<svg width="7" height="8" viewBox="0 0 7 8" fill="none" xmlns="http://www.w3.org/2000/svg">
<path d="M3.50598 0L6.70085 3.03409C6.90029 3.22349 7 3.44697 7 3.70455C7 3.96212 6.90029 4.18561 6.70085 4.375C6.50142 4.56439 6.2661 4.65909 5.99487 4.65909C5.72365 4.65909 5.48832 4.56439 5.28889 4.375L4.49915 3.625V7.05682C4.49915 7.32197 4.40143 7.54545 4.20598 7.72727C4.01054 7.90909 3.77721 8 3.50598 8C3.22678 8 2.98946 7.9072 2.79402 7.72159C2.59857 7.53598 2.50085 7.31439 2.50085 7.05682V3.625L1.71111 4.375C1.51168 4.56439 1.27635 4.65909 1.00513 4.65909C0.733902 4.65909 0.498577 4.56439 0.299145 4.375C0.0997141 4.18561 0 3.96212 0 3.70455C0 3.44697 0.0997141 3.22349 0.299145 3.03409L3.50598 0Z" fill="#1AACFF"/>
</svg>
