<svg width="7" height="8" viewBox="0 0 7 8" fill="none" xmlns="http://www.w3.org/2000/svg">
<path d="M3.49402 8L0.299145 4.96591C0.0997138 4.77651 0 4.55303 0 4.29545C0 4.03788 0.0997138 3.81439 0.299145 3.625C0.498576 3.43561 0.733902 3.34091 1.00513 3.34091C1.27635 3.34091 1.51168 3.43561 1.71111 3.625L2.50085 4.375L2.50085 0.943182C2.50085 0.678029 2.59857 0.454546 2.79402 0.272727C2.98946 0.0909081 3.22279 0 3.49402 0C3.77322 0 4.01054 0.092802 4.20598 0.278409C4.40143 0.464016 4.49915 0.685605 4.49915 0.943182L4.49915 4.375L5.28889 3.625C5.48832 3.43561 5.72365 3.34091 5.99487 3.34091C6.2661 3.34091 6.50142 3.43561 6.70085 3.625C6.90029 3.81439 7 4.03788 7 4.29545C7 4.55303 6.90029 4.77651 6.70085 4.96591L3.49402 8Z" fill="#FF4D61"/>
</svg>
