<svg width="80" height="80" viewBox="0 0 80 80" fill="none" xmlns="http://www.w3.org/2000/svg">
<circle cx="40" cy="40" r="40" fill="#FBE2A6"/>
<path d="M27.4369 26.6048L6.1875 42.1875H71.8125L50.5314 26.5819L50.5402 26.5687C48.3187 30.6605 43.9831 33.4375 39 33.4375C34.0245 33.4375 29.6944 30.6681 27.4697 26.5873L27.4369 26.6048Z" fill="#8A8275"/>
<path d="M50.5316 26.5819C50.5349 26.5775 50.5382 26.5731 50.5404 26.5687L50.5316 26.5819Z" fill="#B9B4AC"/>
<path d="M56.36 42.1876C57.1595 39.5724 57.5938 36.8249 57.5938 33.9844C57.5938 33.21 57.5511 32.4444 57.4887 31.6832L50.5325 26.5819C48.3078 30.666 43.9777 33.4375 39 33.4375C34.0245 33.4375 29.6944 30.6682 27.4697 26.5874L27.4369 26.6049L6.1875 42.1876H56.36Z" fill="#B9B4AC"/>
<path d="M10.5625 42.1875H67.4375V68.4375H10.5625V42.1875Z" fill="#D5CEC2"/>
<path d="M10.5625 42.1875V63.2652C14.3141 64.4891 18.3664 65.1562 22.5938 65.1562C38.7353 65.1562 52.3164 55.4219 56.36 42.1875H10.5625Z" fill="#EEEBE7"/>
<path d="M8.375 68.4375H69.625V72.8125H8.375V68.4375Z" fill="#8A8275"/>
<path d="M52.125 46.5625H63.0625V64.0625H52.125V46.5625Z" fill="#92D8F1"/>
<path d="M14.9375 46.5625H25.875V64.0625H14.9375V46.5625Z" fill="#92D8F1"/>
<path d="M14.9375 53.125H25.875V57.5H14.9375V53.125Z" fill="#8A8275"/>
<path d="M52.125 53.125H63.0625V57.5H52.125V53.125Z" fill="#8A8275"/>
<path d="M32.4375 50.9375H45.5625V68.4375H32.4375V50.9375Z" fill="#BF8859"/>
<path d="M39 33.4375C46.2487 33.4375 52.125 27.5612 52.125 20.3125C52.125 13.0638 46.2487 7.1875 39 7.1875C31.7513 7.1875 25.875 13.0638 25.875 20.3125C25.875 27.5612 31.7513 33.4375 39 33.4375Z" fill="#F8CF6A"/>
<path d="M25.875 20.3125C25.875 24.0892 27.4795 27.4842 30.0334 29.8784C40.0883 28.4238 47.75 21.0322 47.75 12.1094C47.75 11.5527 47.7095 11.0036 47.6516 10.46C45.3405 8.42891 42.3184 7.1875 39 7.1875C31.7517 7.1875 25.875 13.0642 25.875 20.3125V20.3125Z" fill="#FBE2A6"/>
<path d="M69.625 73.9062H8.375C7.77016 73.9062 7.28125 73.4162 7.28125 72.8125V68.4375C7.28125 67.8338 7.77016 67.3438 8.375 67.3438H69.625C70.2298 67.3438 70.7188 67.8338 70.7188 68.4375V72.8125C70.7188 73.4162 70.2298 73.9062 69.625 73.9062ZM9.46875 71.7188H68.5312V69.5312H9.46875V71.7188Z" fill="black"/>
<path d="M66.3438 42.1875H68.5313V68.4375H66.3438V42.1875Z" fill="black"/>
<path d="M9.46875 42.1875H11.6562V68.4375H9.46875V42.1875Z" fill="black"/>
<path d="M46.6563 68.4375H44.4688V52.0312H33.5313V68.4375H31.3438V50.9375C31.3438 50.3338 31.8327 49.8438 32.4375 49.8438H45.5625C46.1674 49.8438 46.6563 50.3338 46.6563 50.9375V68.4375Z" fill="black"/>
<path d="M25.875 65.1562H14.9375C14.3327 65.1562 13.8438 64.6662 13.8438 64.0625V46.5625C13.8438 45.9588 14.3327 45.4688 14.9375 45.4688H25.875C26.4798 45.4688 26.9688 45.9588 26.9688 46.5625V64.0625C26.9688 64.6662 26.4798 65.1562 25.875 65.1562ZM16.0312 62.9688H24.7812V47.6562H16.0312V62.9688Z" fill="black"/>
<path d="M71.8128 43.2813H6.18782C5.71423 43.2813 5.29642 42.9772 5.14876 42.5277C5.0011 42.0782 5.1597 41.5849 5.54032 41.3049L26.7897 25.7222L28.0847 27.4864L9.52923 41.0938H68.4725L49.8842 27.4646L51.1792 25.7004L72.4603 41.306C72.842 41.586 72.9995 42.0793 72.8519 42.5288C72.7042 42.9772 72.2864 43.2813 71.8128 43.2813V43.2813Z" fill="black"/>
<path d="M14.9375 52.0312H25.875V54.2188H14.9375V52.0312Z" fill="black"/>
<path d="M14.9375 56.4062H25.875V58.5938H14.9375V56.4062Z" fill="black"/>
<path d="M63.0625 65.1562H52.125C51.5202 65.1562 51.0313 64.6662 51.0313 64.0625V46.5625C51.0313 45.9588 51.5202 45.4688 52.125 45.4688H63.0625C63.6674 45.4688 64.1563 45.9588 64.1563 46.5625V64.0625C64.1563 64.6662 63.6674 65.1562 63.0625 65.1562ZM53.2188 62.9688H61.9688V47.6562H53.2188V62.9688Z" fill="black"/>
<path d="M52.125 52.0312H63.0625V54.2188H52.125V52.0312Z" fill="black"/>
<path d="M52.125 56.4062H63.0625V58.5938H52.125V56.4062Z" fill="black"/>
<path d="M35.7188 58.5938H37.9063V62.9688H35.7188V58.5938Z" fill="black"/>
<path d="M39 27.9688C36.5872 27.9688 34.625 26.0066 34.625 23.5938H36.8125C36.8125 24.8002 37.7936 25.7812 39 25.7812C40.2064 25.7812 41.1875 24.8002 41.1875 23.5938C41.1875 22.3873 40.2064 21.4062 39 21.4062C36.5872 21.4062 34.625 19.4441 34.625 17.0312C34.625 14.6184 36.5872 12.6562 39 12.6562C41.4128 12.6562 43.375 14.6184 43.375 17.0312H41.1875C41.1875 15.8248 40.2064 14.8438 39 14.8438C37.7936 14.8438 36.8125 15.8248 36.8125 17.0312C36.8125 18.2377 37.7936 19.2188 39 19.2188C41.4128 19.2188 43.375 21.1809 43.375 23.5938C43.375 26.0066 41.4128 27.9688 39 27.9688Z" fill="black"/>
<path d="M37.9063 10.4688H40.0938V13.75H37.9063V10.4688Z" fill="black"/>
<path d="M37.9063 26.875H40.0938V30.1562H37.9063V26.875Z" fill="black"/>
<path d="M39 34.5312C31.16 34.5312 24.7813 28.1525 24.7813 20.3125C24.7813 12.4725 31.16 6.09375 39 6.09375C46.84 6.09375 53.2188 12.4725 53.2188 20.3125C53.2188 28.1525 46.84 34.5312 39 34.5312ZM39 8.28125C32.3664 8.28125 26.9688 13.6789 26.9688 20.3125C26.9688 26.9461 32.3664 32.3438 39 32.3438C45.6336 32.3438 51.0313 26.9461 51.0313 20.3125C51.0313 13.6789 45.6336 8.28125 39 8.28125Z" fill="black"/>
<path d="M11.6562 31.25H9.46875V22.5C9.46875 19.4845 11.922 17.0312 14.9375 17.0312H21.5V19.2188H14.9375C13.1284 19.2188 11.6562 20.6909 11.6562 22.5V31.25Z" fill="black"/>
<path d="M17.8985 23.2733L16.3519 21.7267L19.9537 18.125L16.3519 14.5233L17.8985 12.9767L22.2735 17.3517C22.7012 17.7794 22.7012 18.4706 22.2735 18.8983L17.8985 23.2733Z" fill="black"/>
<path d="M11.6562 31.25H9.46875V22.5C9.46875 19.4845 11.922 17.0312 14.9375 17.0312H21.5V19.2188H14.9375C13.1284 19.2188 11.6562 20.6909 11.6562 22.5V31.25Z" fill="black"/>
<path d="M17.8985 23.2733L16.3519 21.7267L19.9537 18.125L16.3519 14.5233L17.8985 12.9767L22.2735 17.3517C22.7012 17.7794 22.7012 18.4706 22.2735 18.8983L17.8985 23.2733Z" fill="black"/>
<path d="M68.5313 31.25H66.3438V22.5C66.3438 20.6909 64.8716 19.2188 63.0625 19.2188H56.5V17.0312H63.0625C66.078 17.0312 68.5313 19.4845 68.5313 22.5V31.25Z" fill="black"/>
<path d="M60.1017 23.2733L55.7267 18.8983C55.299 18.4706 55.299 17.7794 55.7267 17.3517L60.1017 12.9767L61.6482 14.5233L58.0465 18.125L61.6482 21.7267L60.1017 23.2733Z" fill="black"/>
<path d="M68.5313 31.25H66.3438V22.5C66.3438 20.6909 64.8716 19.2188 63.0625 19.2188H56.5V17.0312H63.0625C66.078 17.0312 68.5313 19.4845 68.5313 22.5V31.25Z" fill="black"/>
<path d="M60.1017 23.2733L55.7267 18.8983C55.299 18.4706 55.299 17.7794 55.7267 17.3517L60.1017 12.9767L61.6482 14.5233L58.0465 18.125L61.6482 21.7267L60.1017 23.2733Z" fill="black"/>
</svg>
