<svg width="70" height="70" viewBox="0 0 70 70" fill="none" xmlns="http://www.w3.org/2000/svg">
<path d="M23.4369 21.6045L2.1875 37.1871H67.8125L46.5314 21.5815L46.5402 21.5684C44.3187 25.6601 39.9831 28.4371 35 28.4371C30.0245 28.4371 25.6944 25.6677 23.4697 21.587L23.4369 21.6045Z" fill="#8A8275"/>
<path d="M46.5312 21.5815C46.5345 21.5771 46.5378 21.5727 46.54 21.5684L46.5312 21.5815Z" fill="#B9B4AC"/>
<path d="M52.36 37.1867C53.1595 34.5715 53.5938 31.824 53.5938 28.9836C53.5938 28.2092 53.5511 27.4436 53.4888 26.6823L46.5325 21.5811C44.3078 25.6651 39.9777 28.4367 35 28.4367C30.0245 28.4367 25.6944 25.6673 23.4697 21.5865L23.4369 21.604L2.1875 37.1867H52.36Z" fill="#B9B4AC"/>
<path d="M6.5625 37.1875H63.4375V63.4375H6.5625V37.1875Z" fill="#D5CEC2"/>
<path d="M6.5625 37.1875V58.2652C10.3141 59.4891 14.3664 60.1562 18.5938 60.1562C34.7353 60.1562 48.3164 50.4219 52.36 37.1875H6.5625Z" fill="#EEEBE7"/>
<path d="M4.375 63.4375H65.625V67.8125H4.375V63.4375Z" fill="#8A8275"/>
<path d="M48.125 41.5625H59.0625V59.0625H48.125V41.5625Z" fill="#92D8F1"/>
<path d="M10.9375 41.5625H21.875V59.0625H10.9375V41.5625Z" fill="#92D8F1"/>
<path d="M10.9375 48.125H21.875V52.5H10.9375V48.125Z" fill="#8A8275"/>
<path d="M48.125 48.125H59.0625V52.5H48.125V48.125Z" fill="#8A8275"/>
<path d="M28.4375 45.9375H41.5625V63.4375H28.4375V45.9375Z" fill="#BF8859"/>
<path d="M35 28.4375C42.2487 28.4375 48.125 22.5612 48.125 15.3125C48.125 8.06376 42.2487 2.1875 35 2.1875C27.7513 2.1875 21.875 8.06376 21.875 15.3125C21.875 22.5612 27.7513 28.4375 35 28.4375Z" fill="#F8CF6A"/>
<path d="M21.875 15.3125C21.875 19.0892 23.4795 22.4842 26.0334 24.8784C36.0883 23.4237 43.75 16.0322 43.75 7.10938C43.75 6.55266 43.7095 6.00359 43.6516 5.46C41.3405 3.42891 38.3184 2.1875 35 2.1875C27.7517 2.1875 21.875 8.06422 21.875 15.3125Z" fill="#FBE2A6"/>
<path d="M65.625 68.9062H4.375C3.77016 68.9062 3.28125 68.4162 3.28125 67.8125V63.4375C3.28125 62.8338 3.77016 62.3438 4.375 62.3438H65.625C66.2298 62.3438 66.7188 62.8338 66.7188 63.4375V67.8125C66.7188 68.4162 66.2298 68.9062 65.625 68.9062ZM5.46875 66.7188H64.5312V64.5312H5.46875V66.7188Z" fill="black"/>
<path d="M62.3438 37.1875H64.5312V63.4375H62.3438V37.1875Z" fill="black"/>
<path d="M5.46875 37.1875H7.65625V63.4375H5.46875V37.1875Z" fill="black"/>
<path d="M42.6562 63.4375H40.4688V47.0312H29.5312V63.4375H27.3438V45.9375C27.3438 45.3338 27.8327 44.8438 28.4375 44.8438H41.5625C42.1673 44.8438 42.6562 45.3338 42.6562 45.9375V63.4375Z" fill="black"/>
<path d="M21.875 60.1562H10.9375C10.3327 60.1562 9.84375 59.6663 9.84375 59.0625V41.5625C9.84375 40.9588 10.3327 40.4688 10.9375 40.4688H21.875C22.4798 40.4688 22.9688 40.9588 22.9688 41.5625V59.0625C22.9688 59.6663 22.4798 60.1562 21.875 60.1562ZM12.0312 57.9688H20.7812V42.6562H12.0312V57.9688Z" fill="black"/>
<path d="M67.8124 38.2811H2.18745C1.71386 38.2811 1.29604 37.9771 1.14839 37.5276C1.00073 37.078 1.15932 36.5847 1.53995 36.3047L22.7893 20.7221L24.0843 22.4863L5.52885 36.0936H64.4721L45.8839 22.4644L47.1789 20.7002L68.4599 36.3058C68.8417 36.5858 68.9992 37.0791 68.8515 37.5286C68.7039 37.9771 68.286 38.2811 67.8124 38.2811Z" fill="black"/>
<path d="M10.9375 47.0312H21.875V49.2188H10.9375V47.0312Z" fill="black"/>
<path d="M10.9375 51.4062H21.875V53.5938H10.9375V51.4062Z" fill="black"/>
<path d="M59.0625 60.1562H48.125C47.5202 60.1562 47.0312 59.6663 47.0312 59.0625V41.5625C47.0312 40.9588 47.5202 40.4688 48.125 40.4688H59.0625C59.6673 40.4688 60.1562 40.9588 60.1562 41.5625V59.0625C60.1562 59.6663 59.6673 60.1562 59.0625 60.1562ZM49.2188 57.9688H57.9688V42.6562H49.2188V57.9688Z" fill="black"/>
<path d="M48.125 47.0312H59.0625V49.2188H48.125V47.0312Z" fill="black"/>
<path d="M48.125 51.4062H59.0625V53.5938H48.125V51.4062Z" fill="black"/>
<path d="M31.7188 53.5938H33.9062V57.9688H31.7188V53.5938Z" fill="black"/>
<path d="M35 22.9688C32.5872 22.9688 30.625 21.0066 30.625 18.5938H32.8125C32.8125 19.8002 33.7936 20.7812 35 20.7812C36.2064 20.7812 37.1875 19.8002 37.1875 18.5938C37.1875 17.3873 36.2064 16.4062 35 16.4062C32.5872 16.4062 30.625 14.4441 30.625 12.0312C30.625 9.61844 32.5872 7.65625 35 7.65625C37.4128 7.65625 39.375 9.61844 39.375 12.0312H37.1875C37.1875 10.8248 36.2064 9.84375 35 9.84375C33.7936 9.84375 32.8125 10.8248 32.8125 12.0312C32.8125 13.2377 33.7936 14.2188 35 14.2188C37.4128 14.2188 39.375 16.1809 39.375 18.5938C39.375 21.0066 37.4128 22.9688 35 22.9688Z" fill="black"/>
<path d="M33.9062 5.46875H36.0938V8.75H33.9062V5.46875Z" fill="black"/>
<path d="M33.9062 21.875H36.0938V25.1562H33.9062V21.875Z" fill="black"/>
<path d="M35 29.5312C27.16 29.5312 20.7812 23.1525 20.7812 15.3125C20.7812 7.4725 27.16 1.09375 35 1.09375C42.84 1.09375 49.2188 7.4725 49.2188 15.3125C49.2188 23.1525 42.84 29.5312 35 29.5312ZM35 3.28125C28.3664 3.28125 22.9688 8.67891 22.9688 15.3125C22.9688 21.9461 28.3664 27.3438 35 27.3438C41.6336 27.3438 47.0312 21.9461 47.0312 15.3125C47.0312 8.67891 41.6336 3.28125 35 3.28125Z" fill="black"/>
<path d="M7.65625 26.25H5.46875V17.5C5.46875 14.4845 7.92203 12.0312 10.9375 12.0312H17.5V14.2188H10.9375C9.12844 14.2188 7.65625 15.6909 7.65625 17.5V26.25Z" fill="black"/>
<path d="M13.8981 18.2731L12.3516 16.7266L15.9533 13.1248L12.3516 9.52312L13.8981 7.97656L18.2731 12.3516C18.7008 12.7792 18.7008 13.4705 18.2731 13.8981L13.8981 18.2731Z" fill="black"/>
<path d="M7.65625 26.25H5.46875V17.5C5.46875 14.4845 7.92203 12.0312 10.9375 12.0312H17.5V14.2188H10.9375C9.12844 14.2188 7.65625 15.6909 7.65625 17.5V26.25Z" fill="black"/>
<path d="M13.8981 18.2731L12.3516 16.7266L15.9533 13.1248L12.3516 9.52312L13.8981 7.97656L18.2731 12.3516C18.7008 12.7792 18.7008 13.4705 18.2731 13.8981L13.8981 18.2731Z" fill="black"/>
<path d="M64.5312 26.25H62.3438V17.5C62.3438 15.6909 60.8716 14.2188 59.0625 14.2188H52.5V12.0312H59.0625C62.078 12.0312 64.5312 14.4845 64.5312 17.5V26.25Z" fill="black"/>
<path d="M56.102 18.2731L51.727 13.8981C51.2993 13.4705 51.2993 12.7792 51.727 12.3516L56.102 7.97656L57.6485 9.52312L54.0468 13.1248L57.6485 16.7266L56.102 18.2731Z" fill="black"/>
<path d="M64.5312 26.25H62.3438V17.5C62.3438 15.6909 60.8716 14.2188 59.0625 14.2188H52.5V12.0312H59.0625C62.078 12.0312 64.5312 14.4845 64.5312 17.5V26.25Z" fill="black"/>
<path d="M56.102 18.2731L51.727 13.8981C51.2993 13.4705 51.2993 12.7792 51.727 12.3516L56.102 7.97656L57.6485 9.52312L54.0468 13.1248L57.6485 16.7266L56.102 18.2731Z" fill="black"/>
</svg>
