<svg width="40" height="40" viewBox="0 0 40 40" fill="none" xmlns="http://www.w3.org/2000/svg">
<g clip-path="url(#clip0)">
<path d="M16.5216 36.5226C16.0413 36.5235 15.6513 36.1348 15.6504 35.6545C15.65 35.423 15.7419 35.2008 15.9059 35.0373L18.7704 32.1745L15.9059 29.3117C15.5722 28.9663 15.5818 28.4158 15.9273 28.0821C16.2643 27.7566 16.7985 27.7566 17.1355 28.0821L20.614 31.5605C20.9535 31.9001 20.9535 32.4506 20.614 32.7902L17.1355 36.2686C16.9725 36.4313 16.7517 36.5226 16.5216 36.5226Z" fill="white"/>
<path d="M25.2511 32.7798C24.7708 32.8043 24.3616 32.4348 24.3371 31.9545C24.3126 31.4743 24.6821 31.0651 25.1624 31.0406C33.6706 30.164 38.2621 27.3847 38.2621 25.2177C38.2621 23.849 36.5629 22.4089 33.6011 21.2662C33.1525 21.0938 32.9286 20.5904 33.1011 20.1418C33.2735 19.6933 33.7769 19.4694 34.2255 19.6419C38.003 21.0993 39.9997 23.0264 39.9997 25.2178C39.9997 28.8841 34.2446 31.8511 25.3398 32.7746L25.2511 32.7798Z" fill="white"/>
<path d="M20.0009 33.0442C10.3048 33.0442 0 30.3014 0 25.2178C0 23.0264 1.99664 21.0994 5.7742 19.6419C6.22275 19.4694 6.72617 19.6933 6.89859 20.1418C7.07102 20.5904 6.84715 21.0938 6.3986 21.2662C3.43849 22.4089 1.73926 23.849 1.73926 25.2177C1.73926 28.0961 9.2387 31.3049 20.0009 31.3049C20.4812 31.3049 20.8706 31.6943 20.8706 32.1746C20.8706 32.6548 20.4811 33.0442 20.0009 33.0442Z" fill="white"/>
<path d="M30.4353 6.956H24.8854L23.868 4.92113C23.4292 4.03397 22.5237 3.47389 21.534 3.47756H18.4661C17.4768 3.47397 16.5716 4.03315 16.1321 4.91933L15.1146 6.95592H9.56479C7.16346 6.956 5.2168 8.90266 5.2168 11.304V21.7392C5.2168 24.1406 7.16346 26.0872 9.56479 26.0872H30.4353C32.8366 26.0872 34.7833 24.1406 34.7833 21.7392V11.304C34.7833 8.90266 32.8367 6.956 30.4353 6.956Z" fill="#D4FFF0"/>
<path d="M20.0013 22.6088C23.3632 22.6088 26.0886 19.8835 26.0886 16.5216C26.0886 13.1597 23.3632 10.4343 20.0013 10.4343C16.6394 10.4343 13.9141 13.1597 13.9141 16.5216C13.9141 19.8835 16.6394 22.6088 20.0013 22.6088Z" fill="white"/>
<path d="M16.5216 36.5225C16.0413 36.5234 15.6513 36.1347 15.6504 35.6545C15.65 35.4229 15.7419 35.2008 15.9059 35.0372L18.7704 32.1745L15.9059 29.3117C15.5722 28.9663 15.5818 28.4157 15.9273 28.082C16.2643 27.7565 16.7985 27.7565 17.1355 28.082L20.614 31.5605C20.9535 31.9 20.9535 32.4505 20.614 32.7901L17.1355 36.2686C16.9725 36.4312 16.7517 36.5225 16.5216 36.5225Z" fill="#1ACA8E"/>
<path d="M25.2511 32.7798C24.7708 32.8043 24.3616 32.4348 24.3371 31.9545C24.3126 31.4743 24.6821 31.0651 25.1624 31.0406C33.6706 30.164 38.2621 27.3847 38.2621 25.2177C38.2621 23.849 36.5629 22.4089 33.6011 21.2662C33.1525 21.0938 32.9286 20.5904 33.1011 20.1418C33.2735 19.6933 33.7769 19.4694 34.2255 19.6419C38.003 21.0993 39.9997 23.0264 39.9997 25.2178C39.9997 28.8841 34.2446 31.8511 25.3398 32.7746L25.2511 32.7798Z" fill="#1ACA8E"/>
<path d="M20.0009 33.0442C10.3048 33.0442 0 30.3014 0 25.2178C0 23.0264 1.99664 21.0994 5.7742 19.6419C6.22275 19.4694 6.72617 19.6933 6.89859 20.1418C7.07102 20.5904 6.84715 21.0938 6.3986 21.2662C3.43849 22.4089 1.73926 23.849 1.73926 25.2177C1.73926 28.0961 9.24049 31.3049 20.0009 31.3049C20.4812 31.3049 20.8706 31.6943 20.8706 32.1746C20.8706 32.6548 20.4811 33.0442 20.0009 33.0442Z" fill="#1ACA8E"/>
<path d="M20.0013 22.6088C16.6395 22.6088 13.9141 19.8835 13.9141 16.5216C13.9141 13.1596 16.6394 10.4343 20.0013 10.4343C23.3632 10.4343 26.0886 13.1597 26.0886 16.5216C26.0886 19.8834 23.3632 22.6088 20.0013 22.6088ZM20.0013 12.1736C17.6 12.1736 15.6533 14.1203 15.6533 16.5216C15.6533 18.9229 17.6 20.8696 20.0013 20.8696C22.4026 20.8696 24.3493 18.9229 24.3493 16.5216C24.3493 14.1203 22.4027 12.1736 20.0013 12.1736Z" fill="#1ACA8E"/>
<path d="M30.4353 26.0873H9.56479C7.16346 26.0873 5.2168 24.1406 5.2168 21.7393V11.304C5.2168 8.9027 7.16346 6.95604 9.56479 6.95604H15.1146L16.1321 4.91945C16.5716 4.03327 17.4768 3.47409 18.4661 3.47768H21.534C22.5237 3.47401 23.4292 4.03409 23.868 4.92125L24.8854 6.95612H30.4353C32.8366 6.95612 34.7833 8.90278 34.7833 11.3041V21.7394C34.7833 24.1406 32.8367 26.0873 30.4353 26.0873ZM9.56479 8.69522C8.12399 8.69522 6.95598 9.86323 6.95598 11.304V21.7393C6.95598 23.1801 8.12399 24.3481 9.56479 24.3481H30.4353C31.8761 24.3481 33.0441 23.1801 33.0441 21.7393V11.304C33.0441 9.86323 31.8761 8.69522 30.4353 8.69522H24.348C24.0189 8.69522 23.718 8.50942 23.5706 8.2152L22.3114 5.69859C22.164 5.40437 21.8631 5.21857 21.534 5.21857H18.4661C18.1373 5.21824 17.8365 5.40331 17.6886 5.69688L16.4295 8.21528C16.2821 8.5095 15.9812 8.6953 15.652 8.6953H9.56479V8.69522Z" fill="#1ACA8E"/>
</g>
<defs>
<clipPath id="clip0">
<rect width="40" height="40" fill="white"/>
</clipPath>
</defs>
</svg>
