<svg width="75" height="75" viewBox="0 0 75 75" fill="none" xmlns="http://www.w3.org/2000/svg">
<circle cx="37.5" cy="37.5" r="37.5" fill="#FBE2A6"/>
<path d="M58.5938 9.375V7.03125H16.4062V9.375C16.4062 18.744 21.796 27.085 30.1833 32.4473C33.8687 34.8037 33.8687 40.1963 30.1833 42.5527C21.796 47.915 16.4062 56.256 16.4062 65.625V67.9688H58.5938V65.625C58.5938 56.256 53.204 47.915 44.8167 42.5527C41.1313 40.1963 41.1313 34.8037 44.8167 32.4473C53.204 27.085 58.5938 18.744 58.5938 9.375Z" fill="#DFEAEF"/>
<path d="M42.6756 57.0423C41.3061 56.1779 40.1363 55.0319 39.2439 53.6804C38.3516 52.329 37.7571 50.8031 37.5 49.2041C37.2428 50.803 36.6483 52.3288 35.7559 53.6802C34.8635 55.0316 33.6937 56.1775 32.3243 57.0419C28.6113 59.4031 25.5813 62.3366 23.4375 65.625H51.5625C49.4187 62.3366 46.3885 59.4031 42.6756 57.0423Z" fill="#FA4B5F"/>
<path d="M32.7017 27.9214C33.9733 28.7301 35.0586 29.7997 35.8858 31.0593C36.713 32.319 37.2632 33.7399 37.5001 35.2282C37.7369 33.7399 38.2871 32.319 39.1143 31.0594C39.9415 29.7997 41.0268 28.7301 42.2983 27.9214C45.295 26.0055 47.8119 23.6849 49.7251 21.0938H25.2769C27.1883 23.6849 29.7052 26.0057 32.7017 27.9214Z" fill="#FA4B5F"/>
<path d="M62.1094 71.4844H12.8906V68.1152C12.8906 66.7399 14.0613 65.625 15.5054 65.625H59.6484C61.0075 65.625 62.1094 66.6743 62.1094 67.9688V71.4844Z" fill="#1AACFF"/>
<path d="M62.1094 3.51562H12.8906V6.88477C12.8906 8.26011 14.0613 9.375 15.5054 9.375H59.6484C61.0075 9.375 62.1094 8.32573 62.1094 7.03125V3.51562Z" fill="#1AACFF"/>
<path d="M45.4085 33.3731C49.7445 30.6009 53.3333 27.0092 55.7883 22.9859C58.1799 19.0663 59.4797 14.8619 59.6665 10.4736H59.7656C60.6783 10.4726 61.5533 10.1096 62.1986 9.46423C62.8439 8.81888 63.207 7.94391 63.208 7.03125V3.51562C63.208 3.22425 63.0923 2.94481 62.8862 2.73877C62.6802 2.53274 62.4007 2.41699 62.1094 2.41699H12.8906C12.5992 2.41699 12.3198 2.53274 12.1138 2.73877C11.9077 2.94481 11.792 3.22425 11.792 3.51562V7.03125C11.793 7.94391 12.1561 8.81888 12.8014 9.46423C13.4467 10.1096 14.3217 10.4726 15.2344 10.4736H15.3335C15.5196 14.8619 16.8201 19.0663 19.2117 22.9859C21.6665 27.0092 25.2557 30.6009 29.5915 33.3731C30.2836 33.8165 30.853 34.4269 31.2474 35.1481C31.6419 35.8693 31.8486 36.678 31.8486 37.5C31.8486 38.322 31.6419 39.1307 31.2474 39.8519C30.853 40.5731 30.2836 41.1835 29.5915 41.6269C25.2555 44.3991 21.6666 47.9908 19.2117 52.0141C16.8198 55.9342 15.5194 60.1389 15.3335 64.5275C14.3904 64.5409 13.4904 64.9247 12.8278 65.5959C12.1652 66.2671 11.7932 67.172 11.792 68.1152V71.4844C11.792 71.7757 11.9077 72.0552 12.1138 72.2612C12.3198 72.4673 12.5992 72.583 12.8906 72.583H62.1094C62.4007 72.583 62.6802 72.4673 62.8862 72.2612C63.0923 72.0552 63.208 71.7757 63.208 71.4844V67.9688C63.207 67.0561 62.8439 66.1811 62.1986 65.5358C61.5533 64.8904 60.6783 64.5274 59.7656 64.5264H59.6665C59.4803 60.1381 58.1799 55.9337 55.7883 52.0141C53.3335 47.9908 49.7442 44.3991 45.4085 41.6269C44.7165 41.1835 44.147 40.5731 43.7526 39.8519C43.3582 39.1307 43.1514 38.322 43.1514 37.5C43.1514 36.678 43.3582 35.8693 43.7526 35.1481C44.147 34.4269 44.7165 33.8165 45.4085 33.3731ZM13.9893 7.03125V4.61426H61.0107V7.03125C61.0104 7.36136 60.879 7.67783 60.6456 7.91125C60.4122 8.14467 60.0957 8.27598 59.7656 8.27637H15.2344C14.9043 8.27598 14.5878 8.14467 14.3544 7.91125C14.121 7.67783 13.9896 7.36136 13.9893 7.03125ZM61.0107 67.9688V70.3857H13.9893V68.1152C13.9897 67.7463 14.1364 67.3926 14.3973 67.1317C14.6582 66.8708 15.0119 66.7241 15.3809 66.7236H59.7656C60.0957 66.724 60.4122 66.8553 60.6456 67.0887C60.879 67.3222 61.0104 67.6386 61.0107 67.9688ZM42.0469 58.0312C44.7952 59.7565 47.2376 61.9267 49.274 64.4531H25.726C27.7624 61.9267 30.2047 59.7564 32.953 58.0312C34.8986 56.7953 36.4707 55.0524 37.5 52.99C38.5293 55.0524 40.1012 56.7953 42.0469 58.0312ZM33.3328 26.9341C31.2732 25.6322 29.3957 24.0623 27.7499 22.2656H47.2501C45.6042 24.0623 43.7267 25.6322 41.667 26.9341C39.8979 28.0651 38.46 29.6448 37.5 31.5123C36.5399 29.6448 35.102 28.0651 33.3328 26.9341ZM40.9541 37.5C40.9508 38.6915 41.249 39.8644 41.8209 40.9097C42.3927 41.9549 43.2197 42.8386 44.2248 43.4783C52.3014 48.6419 57.0753 56.2646 57.4658 64.5264H52.2363C50.0275 61.2933 46.9518 58.3717 43.3056 56.0534C42.0894 55.2829 41.0485 54.2656 40.2503 53.0674C39.4521 51.8691 38.9143 50.5167 38.6719 49.0975V35.3345C38.8938 34.0256 39.3872 32.7777 40.1205 31.671C40.8538 30.5643 41.8106 29.6233 42.9294 28.9087C46.0496 26.914 48.6527 24.5188 50.6672 21.7896C50.7959 21.6151 50.8738 21.4083 50.892 21.1922C50.9102 20.9761 50.8681 20.7592 50.7704 20.5656C50.6726 20.372 50.5231 20.2094 50.3384 20.0957C50.1537 19.9821 49.9411 19.9219 49.7243 19.9219H25.276C25.0592 19.9219 24.8466 19.9821 24.6619 20.0957C24.4772 20.2094 24.3276 20.3721 24.2299 20.5657C24.1322 20.7593 24.0901 20.9762 24.1084 21.1923C24.1266 21.4084 24.2045 21.6152 24.3333 21.7897C26.3479 24.519 28.9512 26.9142 32.0708 28.9088C33.1896 29.6235 34.1464 30.5644 34.8796 31.6711C35.6128 32.7778 36.1062 34.0257 36.3281 35.3345V49.0975C36.0858 50.5166 35.5482 51.869 34.7502 53.0672C33.9522 54.2655 32.9115 55.2828 31.6954 56.0534C28.0494 58.3717 24.9738 61.2933 22.7648 64.5264H17.5342C17.9243 56.2646 22.6989 48.6419 30.7753 43.4783C31.7782 42.8362 32.6034 41.952 33.175 40.9073C33.7466 39.8626 34.0462 38.6909 34.0462 37.5C34.0462 36.3091 33.7466 35.1374 33.175 34.0927C32.6034 33.048 31.7782 32.1639 30.7753 31.5217C22.6986 26.3581 17.924 18.7354 17.5342 10.4736H57.4658C57.0759 18.7354 52.3012 26.3581 44.2247 31.5217C43.2196 32.1615 42.3926 33.0451 41.8208 34.0904C41.249 35.1356 40.9508 36.3086 40.9541 37.5Z" fill="black"/>
</svg>
