<svg width="80" height="80" viewBox="0 0 80 80" fill="none" xmlns="http://www.w3.org/2000/svg">
<path d="M70.3046 59.6974L60.3046 49.6974C58.0884 47.4811 54.5918 47.0249 51.8138 48.2772L47.5641 44.0282C50.6462 40.1775 52.502 35.3047 52.502 30.0002C52.502 17.593 42.4079 7.50018 30.002 7.50018C17.596 7.50018 7.50195 17.593 7.50195 30.0002C7.50195 42.4074 17.596 52.5002 30.002 52.5002C35.3057 52.5002 40.1784 50.6449 44.0288 47.5631L48.2571 51.7908C46.9355 54.5758 47.3973 58.001 49.6991 60.303L59.6979 70.303C61.1152 71.7188 62.9987 72.5 65.002 72.5C67.0052 72.5 68.8887 71.7188 70.3048 70.3027C73.2295 67.378 73.2295 62.6221 70.3046 59.6974V59.6974ZM30.002 47.5C20.3523 47.5 12.502 39.6485 12.502 30C12.502 20.3516 20.3523 12.5 30.002 12.5C39.6516 12.5 47.502 20.3516 47.502 30C47.502 39.6485 39.6516 47.5 30.002 47.5ZM66.7682 66.7677C65.8259 67.715 64.1791 67.715 63.2343 66.7677L53.2343 56.7677C52.2602 55.7936 52.2602 54.2066 53.2355 53.2325C53.7068 52.7589 54.3341 52.5 55.002 52.5C55.6698 52.5 56.2971 52.7588 56.7684 53.2325H56.7696L66.7696 63.2325C67.7437 64.2066 67.7437 65.7935 66.7682 66.7677V66.7677Z" fill="#2F344C"/>
</svg>
