<svg width="50" height="50" viewBox="0 0 50 50" fill="none" xmlns="http://www.w3.org/2000/svg">
<path d="M19.6903 28.2343L22.7973 31.3413L18.6547 35.4838L15.5477 32.3768L19.6903 28.2343Z" fill="#A3A5B0"/>
<path d="M18.6544 27.1998L20.7257 29.2712L16.5831 33.4138L14.5118 31.3424L18.6544 27.1998Z" fill="#E6E7EC"/>
<path d="M19.6892 34.4538L17.6176 32.3822L13.4745 34.4538L17.6176 36.5254C18.1897 37.0974 19.1172 37.0974 19.6892 36.5254C20.2613 35.9534 20.2613 35.0259 19.6892 34.4538Z" fill="#E6E7EC"/>
<path d="M17.6177 34.4546C18.1898 33.8825 18.1898 32.955 17.6177 32.383L15.5461 30.3114C14.974 29.7393 14.0466 29.7393 13.4745 30.3114C12.9025 30.8834 12.9025 31.8109 13.4745 32.383V34.4546H15.5461C16.1182 35.0266 17.0456 35.0266 17.6177 34.4546Z" fill="#FFE7AD"/>
<path d="M23.8319 30.3104L21.7604 28.2388L19.6888 30.3104L21.7604 32.3819C22.3324 32.954 23.2599 32.954 23.8319 32.3819C24.4039 31.8099 24.4039 30.8824 23.8319 30.3104Z" fill="#E6E7EC"/>
<path d="M21.7602 30.3112C22.3323 29.7392 22.3323 28.8117 21.7602 28.2397L19.6886 26.1681C19.1166 25.596 18.1891 25.596 17.617 26.1681C17.045 26.7401 17.045 27.6676 17.617 28.2397L19.6886 30.3112C20.2607 30.8833 21.1882 30.8833 21.7602 30.3112Z" fill="#FFE7AD"/>
<path d="M17.6176 36.5254L15.546 34.4539L2.01984 47.98C3.73605 49.6963 6.51847 49.6963 8.23468 47.98L17.6176 38.5971C18.1897 38.0251 18.1897 37.0975 17.6176 36.5254V36.5254Z" fill="#1F81BE"/>
<path d="M6.16321 45.9084L15.5461 36.5255C16.1182 35.9534 16.1182 35.026 15.5461 34.4539L13.4745 32.3823C12.9025 31.8102 11.975 31.8102 11.403 32.3823L2.01995 41.7651C0.303735 43.4813 0.303735 46.2638 2.01995 47.98C2.59202 48.552 4.447 47.6245 6.16321 45.9084V45.9084Z" fill="#1AACFF"/>
<path d="M33.1543 32.959C42.0534 32.959 49.2676 25.7448 49.2676 16.8457C49.2676 7.94658 42.0534 0.732422 33.1543 0.732422C24.2552 0.732422 17.041 7.94658 17.041 16.8457C17.041 25.7448 24.2552 32.959 33.1543 32.959Z" fill="#A3A5B0"/>
<path d="M33.1543 3.66211V30.0293C40.4354 30.0293 46.3379 24.1268 46.3379 16.8457C46.3379 9.56465 40.4354 3.66211 33.1543 3.66211Z" fill="#E5F2FF"/>
<path d="M43.4082 16.8457C43.4082 9.56465 38.8174 3.66211 33.1543 3.66211C25.8732 3.66211 19.9707 9.56465 19.9707 16.8457C19.9707 24.1268 25.8732 30.0293 33.1543 30.0293C38.8174 30.0293 43.4082 24.1268 43.4082 16.8457Z" fill="white"/>
<path d="M39.0137 18.3105C39.8227 18.3105 40.4785 17.6547 40.4785 16.8457C40.4785 16.0367 39.8227 15.3809 39.0137 15.3809C38.2047 15.3809 37.5488 16.0367 37.5488 16.8457C37.5488 17.6547 38.2047 18.3105 39.0137 18.3105Z" fill="#1AACFF"/>
<path d="M33.1543 18.3105C33.9633 18.3105 34.6191 17.6547 34.6191 16.8457C34.6191 16.0367 33.9633 15.3809 33.1543 15.3809C32.3453 15.3809 31.6895 16.0367 31.6895 16.8457C31.6895 17.6547 32.3453 18.3105 33.1543 18.3105Z" fill="#1AACFF"/>
<path d="M27.2949 18.3105C28.1039 18.3105 28.7598 17.6547 28.7598 16.8457C28.7598 16.0367 28.1039 15.3809 27.2949 15.3809C26.4859 15.3809 25.8301 16.0367 25.8301 16.8457C25.8301 17.6547 26.4859 18.3105 27.2949 18.3105Z" fill="#1AACFF"/>
<path d="M33.1543 0C23.8655 0 16.3086 7.55693 16.3086 16.8457C16.3086 19.8094 17.0789 22.5961 18.4283 25.0181C17.9264 25.0687 17.4609 25.2885 17.0994 25.6501C16.6844 26.0651 16.4559 26.6169 16.4559 27.2038C16.4559 27.537 16.5319 27.8577 16.6715 28.1497L15.4558 29.3652C15.1639 29.2257 14.8431 29.1496 14.5099 29.1496C13.9229 29.1496 13.3712 29.3781 12.9562 29.7932C12.5696 30.1797 12.3475 30.6854 12.3184 31.2271C11.7767 31.2561 11.271 31.4782 10.8845 31.8648L1.50156 41.2478C0.533301 42.2161 0 43.5036 0 44.873C0 46.2425 0.533301 47.53 1.50166 48.4983C2.47002 49.4667 3.75752 50 5.12695 50C6.49639 50 7.78389 49.4667 8.75225 48.4983L18.1352 39.1154C18.5217 38.7289 18.7438 38.2232 18.7729 37.6815C19.3146 37.6525 19.8203 37.4304 20.2068 37.0438C20.6219 36.6287 20.8504 36.077 20.8504 35.49C20.8504 35.1568 20.7743 34.836 20.6348 34.5441L21.8504 33.3285C22.1423 33.4682 22.4631 33.5441 22.7963 33.5441C23.3832 33.5441 23.935 33.3156 24.35 32.9006C24.7116 32.5391 24.9313 32.0736 24.982 31.5717C27.4039 32.9211 30.1906 33.6914 33.1543 33.6914C42.4431 33.6914 50 26.1345 50 16.8457C50 7.55693 42.4431 0 33.1543 0ZM16.5814 30.3111L17.6173 29.2753L20.7247 32.3827L19.689 33.4185L16.5814 30.3111ZM17.0994 38.0797L7.7165 47.4626C7.0248 48.1543 6.10518 48.5352 5.12695 48.5352C4.14873 48.5352 3.2291 48.1543 2.5374 47.4626C1.8457 46.7709 1.46484 45.8513 1.46484 44.873C1.46484 43.8948 1.8457 42.9752 2.5374 42.2835L11.9203 32.9006C12.0587 32.7622 12.2426 32.686 12.4382 32.686C12.6338 32.686 12.8178 32.7622 12.9562 32.9006L17.0993 37.0438C17.2377 37.1821 17.3139 37.366 17.3139 37.5617C17.3139 37.7573 17.2377 37.9413 17.0994 38.0797V38.0797ZM19.171 36.008C18.8854 36.2936 18.4208 36.2936 18.1352 36.008L13.992 31.8648C13.7064 31.5793 13.7064 31.1146 13.992 30.829C14.1348 30.6862 14.3224 30.6148 14.5099 30.6148C14.6975 30.6148 14.885 30.6862 15.0278 30.829L19.171 34.9722C19.4565 35.2578 19.4565 35.7225 19.171 36.008V36.008ZM23.3142 31.8648C23.1758 32.0032 22.9919 32.0794 22.7963 32.0794C22.6007 32.0794 22.4167 32.0032 22.2784 31.8648L18.1352 27.7216C17.9968 27.5833 17.9206 27.3994 17.9206 27.2037C17.9206 27.0081 17.9968 26.8241 18.1352 26.6858C18.2779 26.5431 18.4655 26.4717 18.653 26.4717C18.8406 26.4717 19.0281 26.5431 19.171 26.6858L23.3142 30.829C23.5998 31.1146 23.5998 31.5793 23.3142 31.8648ZM33.1543 32.2266C24.6732 32.2266 17.7734 25.3268 17.7734 16.8457C17.7734 8.36465 24.6732 1.46484 33.1543 1.46484C41.6354 1.46484 48.5352 8.36465 48.5352 16.8457C48.5352 25.3268 41.6354 32.2266 33.1543 32.2266Z" fill="black"/>
<path d="M41.2109 16.8457C41.2109 15.6341 40.2252 14.6484 39.0137 14.6484C37.8021 14.6484 36.8164 15.6341 36.8164 16.8457C36.8164 18.0573 37.8021 19.043 39.0137 19.043C40.2252 19.043 41.2109 18.0573 41.2109 16.8457ZM38.2812 16.8457C38.2812 16.4418 38.6098 16.1133 39.0137 16.1133C39.4176 16.1133 39.7461 16.4418 39.7461 16.8457C39.7461 17.2496 39.4176 17.5781 39.0137 17.5781C38.6098 17.5781 38.2812 17.2496 38.2812 16.8457Z" fill="black"/>
<path d="M35.3516 16.8457C35.3516 15.6341 34.3658 14.6484 33.1543 14.6484C31.9428 14.6484 30.957 15.6341 30.957 16.8457C30.957 18.0573 31.9428 19.043 33.1543 19.043C34.3658 19.043 35.3516 18.0573 35.3516 16.8457ZM32.4219 16.8457C32.4219 16.4418 32.7504 16.1133 33.1543 16.1133C33.5582 16.1133 33.8867 16.4418 33.8867 16.8457C33.8867 17.2496 33.5582 17.5781 33.1543 17.5781C32.7504 17.5781 32.4219 17.2496 32.4219 16.8457Z" fill="black"/>
<path d="M29.4922 16.8457C29.4922 15.6341 28.5064 14.6484 27.2949 14.6484C26.0834 14.6484 25.0977 15.6341 25.0977 16.8457C25.0977 18.0573 26.0834 19.043 27.2949 19.043C28.5064 19.043 29.4922 18.0573 29.4922 16.8457ZM26.5625 16.8457C26.5625 16.4418 26.891 16.1133 27.2949 16.1133C27.6988 16.1133 28.0273 16.4418 28.0273 16.8457C28.0273 17.2496 27.6988 17.5781 27.2949 17.5781C26.891 17.5781 26.5625 17.2496 26.5625 16.8457Z" fill="black"/>
<path d="M33.1543 2.92969C29.9615 2.92969 26.9579 3.98232 24.4684 5.97373C24.1525 6.22637 24.1013 6.6873 24.3539 7.00322C24.6066 7.31904 25.0676 7.37031 25.3834 7.11768C27.6104 5.33613 30.2976 4.39453 33.1543 4.39453C40.0199 4.39453 45.6055 9.98008 45.6055 16.8457C45.6055 23.7113 40.0199 29.2969 33.1543 29.2969C26.2887 29.2969 20.7031 23.7113 20.7031 16.8457C20.7031 13.989 21.6447 11.3019 23.4263 9.0748C23.6789 8.75889 23.6277 8.29795 23.3118 8.04531C22.996 7.79268 22.5351 7.84385 22.2823 8.15977C20.2909 10.6493 19.2383 13.6528 19.2383 16.8457C19.2383 24.519 25.481 30.7617 33.1543 30.7617C40.8276 30.7617 47.0703 24.519 47.0703 16.8457C47.0703 9.17236 40.8276 2.92969 33.1543 2.92969Z" fill="black"/>
</svg>
