<svg width="80" height="80" viewBox="0 0 80 80" fill="none" xmlns="http://www.w3.org/2000/svg">
<path d="M77.4872 33.9166L45.6567 2.08618C44.2731 0.701904 42.8589 0 41.4545 0C39.5056 0 37.2296 1.46057 37.2296 5.57556V25.2014C27.514 25.863 18.4747 29.9915 11.568 36.9702C4.10828 44.5074 0 54.4989 0 65.1038C0 69.6716 0.766602 74.1577 2.27966 78.4375C2.61047 79.3738 3.49609 80 4.48914 80C5.48279 80 6.3678 79.3738 6.69922 78.4375C11.3525 65.2722 23.4393 56.0956 37.2296 55.0061V74.4238C37.2296 78.5388 39.505 79.9994 41.4545 79.9994C42.8589 79.9994 44.2725 79.2981 45.6561 77.9144L77.4878 46.0828C79.1077 44.4623 80 42.3022 80 39.9994C79.9994 37.6971 79.1071 35.5365 77.4872 33.9166V33.9166ZM74.173 42.7686L42.3419 74.6002C42.1918 74.7498 42.0581 74.8694 41.9421 74.964C41.9263 74.8151 41.9165 74.6362 41.9165 74.4244V52.5555C41.9165 51.9299 41.6663 51.3293 41.2207 50.8893C40.7819 50.4553 40.1898 50.2118 39.5728 50.2118C39.5642 50.2118 39.5557 50.2124 39.5471 50.2124C31.2 50.3052 23.2288 52.9437 16.4954 57.8418C11.7786 61.2732 7.92053 65.6177 5.11536 70.6152C4.83093 68.8007 4.6875 66.9604 4.6875 65.1038C4.6875 45.8496 20.3485 30.011 39.599 29.7968C40.8832 29.7827 41.9171 28.7378 41.9171 27.453V5.57556C41.9171 5.36377 41.9269 5.18555 41.9421 5.03601C42.0581 5.13062 42.1918 5.25024 42.3419 5.40039L74.173 37.2314C74.9078 37.9663 75.3125 38.949 75.3125 40C75.3119 41.0504 74.9072 42.0337 74.173 42.7686Z" fill="white"/>
</svg>
