<svg width="22" height="22" viewBox="0 0 22 22" fill="none" xmlns="http://www.w3.org/2000/svg">
<g clip-path="url(#clip0)">
<path d="M13.1801 8.36551H9.16927C8.83526 8.36551 8.55646 8.62097 8.52726 8.95381L8.17629 12.9648C8.16051 13.1449 8.2211 13.3232 8.34313 13.4565C8.46532 13.5897 8.6377 13.6654 8.81847 13.6654H12.8293C13.1635 13.6654 13.4423 13.4101 13.4715 13.0771L13.8223 9.06627C13.8381 8.88617 13.7775 8.70792 13.6555 8.57465C13.5333 8.44138 13.3609 8.36551 13.1801 8.36551V8.36551ZM12.2387 12.3765H9.52175L9.75992 9.65457H12.4769L12.2387 12.3765Z" fill="#A3A5B0"/>
<path d="M19.5315 9.65446C20.1399 9.65446 20.7297 9.42014 21.1923 8.99482C21.6542 8.57017 21.9379 8.00184 21.9909 7.39491C22.046 6.76514 21.8489 6.17013 21.436 5.71946C21.0245 5.2703 20.452 5.02306 19.8225 5.02306H17.5192L17.7209 2.71568C17.7761 2.08575 17.5791 1.49073 17.166 1.04006C16.7546 0.591072 16.1821 0.343666 15.554 0.343666C14.9456 0.343666 14.3558 0.57798 13.8932 1.0033C13.4313 1.42796 13.1476 1.99612 13.0946 2.60322L12.8827 5.02306H10.1658L10.3677 2.71551C10.4228 2.08575 10.2257 1.49073 9.81282 1.03989C9.40126 0.590904 8.82874 0.343666 8.20065 0.343666C7.59221 0.343666 7.0024 0.577812 6.53981 1.00314C6.0779 1.42796 5.7944 1.99612 5.7412 2.60322L5.52954 5.0229H3.11188C2.50343 5.0229 1.91362 5.25721 1.45104 5.68253C0.989121 6.10735 0.70546 6.67551 0.652421 7.28262C0.597367 7.91238 0.794587 8.50756 1.20749 8.95823C1.61905 9.40722 2.19141 9.65446 2.81949 9.65446H5.12419L4.88602 12.3764H2.46852C1.86008 12.3764 1.27026 12.6106 0.807679 13.0359C0.345765 13.4607 0.0622717 14.0289 0.00906432 14.6358C-0.0459894 15.2657 0.151063 15.8608 0.564133 16.3114C0.975525 16.7604 1.54805 17.0077 2.17613 17.0077H4.481L4.27908 19.3152C4.22403 19.945 4.42108 20.54 4.83415 20.9908C5.24555 21.4398 5.81807 21.6871 6.44615 21.6871C7.0546 21.6871 7.64441 21.4529 8.10683 21.0276C8.56891 20.6028 8.85257 20.0346 8.90561 19.4277C8.90595 19.4245 8.90628 19.4213 8.90645 19.4181L9.11726 17.0077L11.8342 17.0078L11.6324 19.315C11.5772 19.945 11.7744 20.54 12.1873 20.9907C12.5987 21.4398 13.1713 21.6871 13.7993 21.6871C14.4078 21.6871 14.9976 21.4529 15.4602 21.0276C15.9221 20.6028 16.2058 20.0346 16.259 19.4275C16.2591 19.4257 16.2593 19.4236 16.2595 19.4216L16.4706 17.0078H18.8883C18.8933 17.0078 18.8984 17.0078 18.9034 17.0077C19.5065 17.0038 20.0904 16.77 20.5491 16.3482C21.011 15.9234 21.2947 15.3552 21.3477 14.7483C21.4028 14.1185 21.2057 13.5235 20.7927 13.0727C20.3813 12.6237 19.8088 12.3764 19.1793 12.3764H16.8758L17.114 9.65446H19.5315ZM15.697 13.4564C15.8192 13.5896 15.9916 13.6655 16.1724 13.6655H19.1805C19.4429 13.6655 19.6778 13.7642 19.8423 13.9436C20.0082 14.1247 20.0867 14.3704 20.0636 14.6358C20.0122 15.2228 19.4739 15.7186 18.8881 15.7186C18.8839 15.7186 18.8797 15.7188 18.8754 15.7188H15.88C15.5458 15.7188 15.267 15.9742 15.238 16.3071L14.9748 19.3139C14.9748 19.3157 14.9746 19.3174 14.9744 19.3191C14.9209 19.9044 14.3838 20.398 13.7993 20.398C13.537 20.398 13.302 20.2993 13.1377 20.1199C12.9719 19.9388 12.8931 19.6929 12.9165 19.4275L13.1797 16.4195C13.1954 16.2394 13.1348 16.0612 13.0128 15.9279C12.8906 15.7946 12.7182 15.7188 12.5375 15.7188L8.52661 15.7186C8.19243 15.7186 7.91364 15.9741 7.8846 16.3071L7.62158 19.3139C7.62125 19.3166 7.62108 19.3191 7.62091 19.3216C7.56619 19.9057 7.02959 20.3982 6.44615 20.3982C6.18381 20.3982 5.94882 20.2993 5.78433 20.1199C5.6185 19.9389 5.53995 19.693 5.56328 19.4275L5.82646 16.4194C5.84224 16.2394 5.78165 16.061 5.65962 15.9277C5.53743 15.7946 5.36505 15.7188 5.18428 15.7188H2.17613C1.91379 15.7188 1.6788 15.6199 1.51448 15.4406C1.34865 15.2595 1.26993 15.0136 1.29326 14.7483C1.34462 14.1613 1.88274 13.6655 2.46852 13.6655H5.47667C5.81085 13.6655 6.08965 13.41 6.11868 13.0772L6.46965 9.06616C6.48543 8.88622 6.42484 8.7078 6.30281 8.57453C6.18079 8.44143 6.00824 8.36556 5.82764 8.36556H2.81949C2.55714 8.36556 2.32216 8.2667 2.15784 8.08744C1.99201 7.90633 1.91328 7.66044 1.93662 7.39507C1.98798 6.80795 2.52626 6.31213 3.11188 6.31213H6.12003C6.45421 6.31213 6.733 6.05666 6.76204 5.72382L7.02539 2.71568C7.07675 2.12872 7.61487 1.6329 8.20065 1.6329C8.463 1.6329 8.69798 1.73159 8.86231 1.91102C9.02814 2.09196 9.10686 2.33785 9.08353 2.60322L8.82034 5.61137C8.80457 5.79147 8.86516 5.96989 8.98718 6.10299C9.10921 6.23626 9.28175 6.31213 9.46236 6.31213H13.4732C13.8074 6.31213 14.0862 6.05666 14.1154 5.72382L14.3786 2.71568C14.4299 2.12872 14.9682 1.6329 15.554 1.6329C15.8162 1.6329 16.0513 1.73159 16.2157 1.91102C16.3815 2.09196 16.4601 2.33785 16.4369 2.60322L16.1737 5.61137C16.1579 5.79147 16.2185 5.96972 16.3405 6.10299C16.4626 6.23626 16.6349 6.31213 16.8157 6.31213H19.824C20.0862 6.31213 20.3212 6.41099 20.4855 6.59025C20.6515 6.77136 20.7301 7.01725 20.7067 7.28262C20.6555 7.86974 20.1173 8.36556 19.5315 8.36556H16.5232C16.1891 8.36556 15.9104 8.62103 15.8811 8.95387L15.5302 12.9649C15.5144 13.1448 15.575 13.3231 15.697 13.4564V13.4564Z" fill="#A3A5B0"/>
</g>
<defs>
<clipPath id="clip0">
<rect width="22" height="22" fill="white"/>
</clipPath>
</defs>
</svg>
