<svg width="20" height="20" viewBox="0 0 20 20" fill="none" xmlns="http://www.w3.org/2000/svg">
<path d="M3.63572 8.18173H16.3628C16.609 8.18173 16.8222 8.09183 17.002 7.91188C17.1818 7.73198 17.272 7.51894 17.272 7.27272C17.272 7.0265 17.1818 6.81357 17.002 6.63342L10.6384 0.269852C10.4586 0.0901497 10.2457 0 9.99929 0C9.75292 0 9.53993 0.0901497 9.35998 0.269852L2.99641 6.63342C2.81646 6.81337 2.72656 7.0265 2.72656 7.27272C2.72656 7.51889 2.81646 7.73198 2.99641 7.91188C3.17656 8.09183 3.38955 8.18173 3.63572 8.18173Z" fill="#E6E7EC"/>
<path d="M16.3628 11.8184H3.63572C3.38935 11.8184 3.17637 11.9083 2.99641 12.0881C2.81646 12.268 2.72656 12.481 2.72656 12.7272C2.72656 12.9734 2.81646 13.1866 2.99641 13.3664L9.35998 19.7299C9.54013 19.9099 9.75312 20 9.99929 20C10.2455 20 10.4586 19.9099 10.6384 19.7299L17.002 13.3664C17.1818 13.1866 17.272 12.9734 17.272 12.7272C17.272 12.481 17.1818 12.268 17.002 12.088C16.8222 11.9081 16.609 11.8184 16.3628 11.8184Z" fill="#E6E7EC"/>
</svg>
