<svg width="48" height="48" viewBox="0 0 48 48" fill="none" xmlns="http://www.w3.org/2000/svg">
<path d="M6.334 23C5.596 23 5 23.448 5 24V40C5 40.2652 5.10536 40.5196 5.29289 40.7071C5.48043 40.8946 5.73478 41 6 41H12C12.2652 41 12.5196 40.8946 12.7071 40.7071C12.8946 40.5196 13 40.2652 13 40V24C13 23.448 12.4 23 11.666 23H6.334Z" fill="#5D6174"/>
<path d="M22.334 29C21.596 29 21 29.448 21 30V40C21 40.2652 21.1054 40.5196 21.2929 40.7071C21.4804 40.8946 21.7348 41 22 41H28C28.2652 41 28.5196 40.8946 28.7071 40.7071C28.8946 40.5196 29 40.2652 29 40V30C29 29.448 28.4 29 27.666 29H22.334Z" fill="#FF4D61"/>
<path d="M37 41H43C43.2556 41.0092 43.5044 40.9167 43.6918 40.7427C43.8793 40.5687 43.9901 40.3275 44 40.072V15.93C44 15.416 43.4 15 42.666 15H37.334C36.596 15 36 15.416 36 15.93V40.072C36.0099 40.3275 36.1207 40.5687 36.3082 40.7427C36.4956 40.9167 36.7444 41.0092 37 41Z" fill="#5D6174"/>
<path d="M46 44H2C1.46957 44 0.960859 44.2107 0.585786 44.5858C0.210714 44.9609 0 45.4696 0 46C0 46.5304 0.210714 47.0391 0.585786 47.4142C0.960859 47.7893 1.46957 48 2 48H46C46.5304 48 47.0391 47.7893 47.4142 47.4142C47.7893 47.0391 48 46.5304 48 46C48 45.4696 47.7893 44.9609 47.4142 44.5858C47.0391 44.2107 46.5304 44 46 44Z" fill="#5D6174"/>
<path d="M38.1058 7.882C38.3977 7.95896 38.6981 7.99861 38.9998 8C39.791 8 40.5643 7.76541 41.2221 7.32588C41.8799 6.88635 42.3926 6.26164 42.6954 5.53074C42.9981 4.79983 43.0773 3.99556 42.923 3.21964C42.7686 2.44372 42.3877 1.73098 41.8283 1.17157C41.2689 0.612165 40.5561 0.231202 39.7802 0.0768607C39.0043 -0.0774802 38.2 0.00173312 37.4691 0.304484C36.7382 0.607234 36.1135 1.11992 35.674 1.77772C35.2344 2.43552 34.9998 3.20888 34.9998 4C35.0012 4.21317 35.0199 4.42588 35.0558 4.636C35.0704 4.71774 35.064 4.80182 35.0375 4.88047C35.0109 4.95912 34.9649 5.02981 34.9038 5.086L25.3558 14C25.2948 14.0568 25.2207 14.0975 25.14 14.1184C25.0594 14.1394 24.9748 14.1399 24.8938 14.12C24.6019 14.0433 24.3016 14.003 23.9998 14C23.3057 14 22.6237 14.1821 22.0218 14.528C21.9502 14.5685 21.8698 14.591 21.7876 14.5934C21.7053 14.5959 21.6237 14.5782 21.5498 14.542L12.2218 9.876C12.149 9.83854 12.0862 9.78409 12.0389 9.71725C11.9916 9.65041 11.961 9.57315 11.9498 9.492C11.8379 8.64498 11.4567 7.85635 10.8626 7.24238C10.2684 6.62842 9.49268 6.22162 8.64978 6.08195C7.80688 5.94229 6.94141 6.07716 6.18098 6.46668C5.42055 6.8562 4.8054 7.47975 4.42623 8.24539C4.04706 9.01104 3.92394 9.87825 4.07502 10.7192C4.22611 11.5601 4.64339 12.3302 5.26536 12.916C5.88733 13.5018 6.68105 13.8722 7.52952 13.9727C8.37798 14.0732 9.23627 13.8983 9.97784 13.474C10.0494 13.4335 10.1299 13.411 10.2121 13.4086C10.2944 13.4061 10.376 13.4238 10.4498 13.46L19.7778 18.124C19.8508 18.1618 19.9137 18.2166 19.961 18.2838C20.0083 18.351 20.0388 18.4286 20.0498 18.51C20.2046 19.4953 20.722 20.3873 21.5004 21.0109C22.2788 21.6345 23.2621 21.9449 24.2575 21.881C25.2528 21.8172 26.1884 21.3837 26.8808 20.6658C27.5731 19.9478 27.9722 18.997 27.9998 18C27.9985 17.7875 27.9798 17.5755 27.9438 17.366C27.9293 17.284 27.9357 17.1996 27.9622 17.1206C27.9888 17.0417 28.0347 16.9706 28.0958 16.914L37.6438 8C37.705 7.94357 37.7793 7.90324 37.8599 7.88265C37.9406 7.86205 38.0251 7.86183 38.1058 7.882Z" fill="#5D6174"/>
</svg>
