<svg width="48" height="48" viewBox="0 0 48 48" fill="none" xmlns="http://www.w3.org/2000/svg">
<path d="M24 21.0469C21.9281 21.0469 20.25 22.725 20.25 24.7969V26.2969C20.25 28.3688 21.9375 30.0469 24 30.0469C26.0719 30.0469 27.75 28.3688 27.75 26.2969V24.7969C27.75 22.725 26.0719 21.0469 24 21.0469Z" fill="#5D6174"/>
<path d="M47.4375 19.8749L24.9375 1.78115C24.3844 1.34053 23.6062 1.34053 23.0531 1.78115L0.562491 19.8749C-0.0843842 20.3905 -0.187509 21.3374 0.337491 21.9843C0.853116 22.6311 1.79999 22.7343 2.44687 22.2093C16.7531 10.7062 -17.9344 38.5968 24 4.8749C27.3656 7.58428 44.1562 21.0843 45.5625 22.2187C45.8437 22.4436 46.1719 22.5468 46.5 22.5468C47.9062 22.5468 48.5437 20.7655 47.4375 19.8749Z" fill="#FF4D61"/>
<path d="M23.7094 8.9624C21.45 10.7812 7.17188 22.2562 5.42813 23.6624C5.31563 23.7468 5.25 23.8874 5.25 24.028V45.0468C5.25 45.8718 5.925 46.5468 6.75 46.5468H41.25C42.075 46.5468 42.75 45.8718 42.75 45.0468V24.028C42.75 23.8874 42.6844 23.7468 42.5719 23.6624C39.4594 21.1593 41.3719 22.6968 24.2906 8.9624C24.1219 8.82178 23.8781 8.82178 23.7094 8.9624ZM30.975 43.5468C30.7406 43.5468 30.5344 43.3687 30.5062 43.1343L29.9437 38.3624C29.5875 35.3437 27.0281 33.0655 23.9906 33.0562C20.85 33.0562 18.3187 35.3905 17.9906 38.4093L17.4656 43.1437C17.4375 43.378 17.2406 43.5562 16.9969 43.5562H14.925C14.6437 43.5562 14.4281 43.3124 14.4562 43.0312L15.0094 38.0718C15.3094 35.3437 16.8094 33.0093 18.9469 31.5749C19.1906 31.4155 19.2188 31.078 19.0312 30.8624C17.925 29.6624 17.25 28.0593 17.25 26.2968V24.8812C17.25 21.1687 20.2125 18.0843 23.9344 18.0468C27.6844 18.0093 30.75 21.0562 30.75 24.7968V26.2968C30.75 28.0687 30.0656 29.6812 28.95 30.8812C28.7531 31.0968 28.7906 31.4249 29.025 31.5937C31.1344 33.0187 32.6063 35.3155 32.925 38.0062L33.5156 43.0218C33.5531 43.303 33.3281 43.5468 33.0469 43.5468H30.975Z" fill="#5D6174"/>
</svg>
