<svg width="80" height="80" viewBox="0 0 80 80" fill="none" xmlns="http://www.w3.org/2000/svg">
<path fill-rule="evenodd" clip-rule="evenodd" d="M28.2482 20.1411H39.6817C54.5653 20.1411 66.7407 32.1105 66.7407 46.7322V47.8863C66.7407 62.5125 54.5653 74.4774 39.6817 74.4774H28.2482H22.8501C22.272 74.4774 22.3358 74.455 21.8215 74.7144L11.6988 78.74C11.1162 78.9502 10.8386 78.7892 10.8704 78.2122L10.7929 68.2914C10.8066 68.2019 10.8293 68.1886 10.7702 68.1394C4.91705 63.2503 1.19385 55.9774 1.19385 47.8861V46.7321C1.19385 32.1103 13.3693 20.1411 28.2482 20.1411Z" fill="white"/>
<path fill-rule="evenodd" clip-rule="evenodd" d="M28.2485 20.1411C39.3043 20.1411 48.8626 26.743 53.0499 36.1316C54.5018 39.3833 55.3075 42.9705 55.3075 46.7322V47.8863C55.3075 62.5125 43.1321 74.4774 28.2485 74.4774H39.682C54.5656 74.4774 66.741 62.5125 66.741 47.8863V46.7322C66.741 42.9705 65.9355 39.3833 64.4834 36.1316C60.2959 26.7431 50.7331 20.1411 39.682 20.1411H28.2485Z" fill="#DFEAEF"/>
<path fill-rule="evenodd" clip-rule="evenodd" d="M60.428 49.2011C60.428 50.8113 61.7706 52.1308 63.4092 52.1308H66.204C67.8426 52.1308 69.1852 50.8113 69.1852 49.2011V46.2714L64.8066 43.4714L60.428 46.2714V49.2011Z" fill="white"/>
<path fill-rule="evenodd" clip-rule="evenodd" d="M59.5454 41.7226H64.807H70.0687C70.0687 33.4121 78.2524 32.3386 78.2433 23.4018C78.2343 14.8811 71.5207 10.69 64.8072 10.784C58.0937 10.6901 51.3847 14.8812 51.3755 23.4018C51.3617 32.3386 59.5454 33.412 59.5454 41.7226Z" fill="white"/>
<path fill-rule="evenodd" clip-rule="evenodd" d="M70.114 40.6759C70.7694 33.3046 78.2522 31.945 78.243 23.4018C78.2339 14.8811 71.5204 10.69 64.8069 10.784C64.1331 10.7751 63.455 10.8109 62.7859 10.8868C68.7666 11.5801 74.1966 15.7398 74.2057 23.4018C74.2147 31.945 66.7321 33.3046 66.0767 40.6759H70.114Z" fill="#DFEAEF"/>
<path fill-rule="evenodd" clip-rule="evenodd" d="M65.1484 49.2012C65.1484 50.6012 64.1334 51.782 62.7908 52.0638C62.991 52.1085 63.1959 52.1309 63.4098 52.1309H66.2045C67.8431 52.1309 69.1858 50.8113 69.1858 49.2012V46.2715H66.6915H65.1484V49.2012Z" fill="white"/>
<path fill-rule="evenodd" clip-rule="evenodd" d="M58.8855 46.2715H60.4286H69.1858H70.7288C71.2569 46.2715 71.6891 45.8465 71.6891 45.3277V41.6198C71.6891 41.1009 71.2567 40.676 70.7288 40.676H70.1145H64.807H60.6423H59.5043H58.8854C58.3573 40.676 57.925 41.101 57.925 41.6198V43.0243V45.3277C57.925 45.8465 58.3575 46.2715 58.8855 46.2715Z" fill="#F8F6F6"/>
<path fill-rule="evenodd" clip-rule="evenodd" d="M67.6517 41.7226V45.292V45.3277C67.6517 45.8466 67.2193 46.2715 66.6914 46.2715H69.1857H70.7287C71.2567 46.2715 71.689 45.8465 71.689 45.3277V41.6198C71.689 41.1009 71.2566 40.676 70.7287 40.676H70.1143H66.6916C67.2196 40.676 67.6519 41.101 67.6519 41.6198V41.6421V41.7226H67.6517Z" fill="#E2E2E2"/>
<path fill-rule="evenodd" clip-rule="evenodd" d="M68.4387 27.7674C68.4387 25.7949 66.8138 24.198 64.8066 24.198C62.8267 24.198 61.2154 25.7546 61.1746 27.6958V27.7674C61.1746 29.7399 62.7995 31.3367 64.8066 31.3367C65.4621 31.3367 66.0766 31.1667 66.6091 30.8671C67.7014 30.2542 68.4387 29.0958 68.4387 27.7674Z" fill="#FF4D61"/>
<path d="M64.8161 5.82828C65.475 5.82828 66.0089 5.30375 66.0089 4.65641V1.17188C66.0089 0.524531 65.475 0 64.8161 0C64.1572 0 63.6233 0.524531 63.6233 1.17188V4.65625C63.6231 5.30359 64.1572 5.82828 64.8161 5.82828Z" fill="#5D6174"/>
<path d="M52.4886 8.58482C52.7214 8.81373 53.0268 8.92811 53.3322 8.92811C53.6374 8.92811 53.9426 8.81373 54.1756 8.58498C54.6414 8.12748 54.6416 7.38545 54.1757 6.92764L51.6678 4.46295C51.2021 4.00529 50.4468 4.00514 49.9808 4.46279C49.515 4.92029 49.5148 5.66232 49.9806 6.12014L52.4886 8.58482Z" fill="#5D6174"/>
<path d="M79.6504 4.46254C79.1843 4.00441 78.429 4.00488 77.9635 4.4627L75.4555 6.92738C74.9897 7.3852 74.9898 8.12723 75.4557 8.58473C75.6887 8.81363 75.9939 8.92785 76.2991 8.92785C76.6044 8.92785 76.9098 8.81348 77.1426 8.58457L79.6506 6.11988C80.1163 5.66207 80.1163 4.92004 79.6504 4.46254Z" fill="#5D6174"/>
<path d="M48.7763 46.1875H19.2453C18.5864 46.1875 18.0525 46.7122 18.0525 47.3594C18.0525 48.0067 18.5864 48.5312 19.2453 48.5312H48.7763C49.4352 48.5312 49.9691 48.0067 49.9691 47.3594C49.9691 46.712 49.4352 46.1875 48.7763 46.1875Z" fill="#5D6174"/>
<path d="M41.2935 38.2302H19.2453C18.5864 38.2302 18.0525 38.7548 18.0525 39.4021C18.0525 40.0494 18.5864 40.574 19.2453 40.574H41.2937C41.9526 40.574 42.4865 40.0494 42.4865 39.4021C42.4865 38.7548 41.9524 38.2302 41.2935 38.2302Z" fill="#5D6174"/>
<path d="M48.7763 54.1404H19.2453C18.5864 54.1404 18.0525 54.6649 18.0525 55.3123C18.0525 55.9596 18.5864 56.4841 19.2453 56.4841H48.7763C49.4352 56.4841 49.9691 55.9594 49.9691 55.3123C49.9691 54.6649 49.4352 54.1404 48.7763 54.1404Z" fill="#5D6174"/>
<path d="M65.3776 9.61731C64.7176 9.60794 64.1737 10.1173 64.161 10.7642C64.1466 11.4111 64.6699 11.947 65.3283 11.9595C71.1574 12.0798 77.042 15.6642 77.05 23.4034C77.0548 27.53 75.1478 29.7895 73.128 32.1833C71.4135 34.2161 69.6462 36.3129 69.0697 39.5047H65.9995V32.3622C68.085 31.839 69.6317 29.9776 69.6317 27.7678C69.6317 25.1534 67.4672 23.0265 64.8067 23.0265C62.1462 23.0265 59.9816 25.1536 59.9816 27.7678C59.9816 29.9776 61.5283 31.839 63.6137 32.3622V39.5048H60.5443C59.9698 36.3115 58.2027 34.2159 56.4884 32.1819C54.6992 30.0615 52.9974 28.0444 52.6395 24.7379C52.5918 24.3145 52.568 23.8708 52.568 23.4036C52.568 22.9473 52.5902 22.502 52.6316 22.0661C53.0721 17.5161 55.7679 14.1253 60.1784 12.655C60.8018 12.4472 61.1358 11.7815 60.9243 11.1675C60.7127 10.555 60.0368 10.2268 59.4118 10.4347C54.397 12.1065 51.1334 15.9817 50.3604 21.0301C47.011 19.6786 43.399 18.9692 39.6821 18.9692H36.8003C36.1418 18.9692 35.6074 19.4942 35.6074 20.1411C35.6074 20.7895 36.1418 21.3129 36.8003 21.3129H39.6821C43.418 21.3129 46.9712 22.0958 50.1823 23.5036C50.2094 28.4115 52.568 31.2084 54.65 33.6772C56.1681 35.4775 57.6117 37.1909 58.1391 39.6384C57.3189 39.9375 56.7317 40.7119 56.7317 41.6204V45.3286C56.7317 46.4951 57.6976 47.4442 58.8849 47.4442H59.2352V49.2025C59.2352 51.4634 61.1072 53.3042 63.4087 53.3042H64.9562C62.4226 64.7262 52.0528 73.3061 39.6821 73.3061H22.7278C22.1059 73.3061 21.9182 73.3498 21.3234 73.6498L12.0558 77.3342L11.9858 68.3903C12.0494 67.9497 11.8904 67.5372 11.5421 67.2481C5.72254 62.3872 2.38581 55.3306 2.38581 47.8869V46.7337C2.38581 32.7162 13.9882 21.3129 28.2483 21.3129H31.5439C32.2023 21.3129 32.7367 20.7895 32.7367 20.1411C32.7367 19.4942 32.2023 18.9692 31.5439 18.9692H28.2483C20.7334 18.9692 13.6478 21.8661 8.29745 27.1256C2.94723 32.385 0 39.3476 0 46.7337V47.8869C0 55.8495 3.49259 63.4044 9.6032 68.6983L9.67636 78.1906C9.64296 79.025 10.0088 79.4734 10.3253 79.7031C10.5368 79.8562 10.8485 80 11.2779 80C11.5181 80 11.7948 79.9547 12.1097 79.8406C12.1209 79.8375 12.1336 79.8328 12.1463 79.8281L22.268 75.8014C22.3014 75.7889 22.3332 75.7748 22.365 75.7576L22.4143 75.7342C22.4731 75.7045 22.5352 75.6717 22.5813 75.6498H39.6821C47.1987 75.6498 54.2858 72.7545 59.636 67.4966C63.6997 63.5026 66.3764 58.5245 67.4293 53.1244C69.1342 52.6087 70.378 51.0447 70.378 49.2025V47.4442H70.7282C71.9156 47.4442 72.8815 46.4951 72.8815 45.3286V41.6204C72.8815 40.712 72.2948 39.9378 71.4749 39.6386C72.0034 37.1908 73.4469 35.4787 74.9648 33.6786C77.0626 31.1926 79.4403 28.3737 79.4355 23.4003C79.4263 14.1284 72.1419 9.75638 65.3776 9.61731ZM62.3674 27.7678C62.3674 26.4458 63.4616 25.3703 64.8067 25.3703C66.1517 25.3703 67.2461 26.4458 67.2461 27.7678C67.2461 29.0898 66.1517 30.1653 64.8067 30.1653C63.4616 30.1653 62.3674 29.09 62.3674 27.7678ZM67.9925 49.2025C67.9925 49.4353 67.9464 49.6587 67.8621 49.8619C67.5965 50.5056 66.9539 50.9603 66.2048 50.9603H63.4088C62.4228 50.9603 61.6212 50.1712 61.6212 49.2025V47.4447L67.9338 47.4444V47.4447H67.9926V49.2025H67.9925ZM70.496 45.1005H59.1175V41.8486H70.496V45.1005Z" fill="#5D6174"/>
</svg>
