<svg width="76" height="86" viewBox="0 0 76 86" fill="none" xmlns="http://www.w3.org/2000/svg">
<path d="M12.6667 0H2.53333C1.13406 0 0 1.12788 0 2.51953V83.4805C0 84.8721 1.13406 86 2.53333 86H12.6667C14.0659 86 15.2 84.8721 15.2 83.4805V15.2852H30.4V20.3242H27.8667C23.6761 20.3242 20.2667 23.7151 20.2667 27.8828V68.1953C20.2667 72.363 23.6761 75.7539 27.8667 75.7539H68.4C72.5906 75.7539 76 72.363 76 68.1953V27.8828C76 23.7151 72.5906 20.3242 68.4 20.3242H65.8667V15.2852H73.4667C74.8659 15.2852 76 14.1573 76 12.7656C76 11.374 74.8659 10.2461 73.4667 10.2461H15.2V2.51953C15.2 1.12788 14.0659 0 12.6667 0ZM70.9333 27.8828V68.1953C70.9333 69.5843 69.7966 70.7148 68.4 70.7148H27.8667C26.47 70.7148 25.3333 69.5843 25.3333 68.1953V27.8828C25.3333 26.4938 26.47 25.3633 27.8667 25.3633H68.4C69.7966 25.3633 70.9333 26.4938 70.9333 27.8828ZM60.8 20.3242H35.4667V15.2852H60.8V20.3242ZM10.1333 80.9609H5.06667V5.03906H10.1333V80.9609Z" fill="#2F344C"/>
<path d="M46.3421 31.1405L31.1421 46.2577C30.1525 47.2412 30.1525 48.8363 31.1421 49.8204C32.131 50.8046 33.7355 50.8046 34.7244 49.8204L35.4666 49.0823V63.1562C35.4666 64.5479 36.6013 65.6758 37.9999 65.6758H58.2666C59.6658 65.6758 60.7999 64.5479 60.7999 63.1562V49.083L61.5421 49.8204C62.5317 50.8046 64.1355 50.8046 65.125 49.8204C66.114 48.8369 66.114 47.2419 65.125 46.2577L49.925 31.1405C48.9355 30.1563 47.331 30.1563 46.3421 31.1405ZM55.7332 60.6367H50.6666V53.0781C50.6666 51.6865 49.5325 50.5586 48.1332 50.5586C46.734 50.5586 45.5999 51.6865 45.5999 53.0781V60.6367H40.5332V44.0439L48.1332 36.4853L55.7332 44.0439V60.6367Z" fill="#2F344C"/>
<path d="M50.6668 43C50.6668 44.3916 49.5327 45.5195 48.1334 45.5195C46.7342 45.5195 45.6001 44.3916 45.6001 43C45.6001 41.6084 46.7342 40.4805 48.1334 40.4805C49.5327 40.4805 50.6668 41.6084 50.6668 43Z" fill="#2F344C"/>
</svg>
