<svg width="80" height="80" viewBox="0 0 80 80" fill="none" xmlns="http://www.w3.org/2000/svg">
<g clip-path="url(#clip0)">
<path d="M46.2927 24.6055C48.9054 22.6724 50.6033 19.57 50.6033 16.0777C50.6033 10.2309 45.8467 5.47437 39.9999 5.47437C34.1531 5.47437 29.3966 10.2309 29.3966 16.0777C29.3966 19.57 31.0944 22.6724 33.7071 24.6055C28.9693 26.9376 25.7002 31.8144 25.7002 37.4424V48.9349C25.7002 51.3298 27.2484 53.3698 29.3967 54.1067V70.2122C29.3967 72.5906 31.3317 74.5255 33.7101 74.5255H46.2901C48.6685 74.5255 50.6035 72.5906 50.6035 70.2122V54.1067C52.7519 53.3698 54.3 51.3298 54.3 48.9349V37.4424C54.2998 31.8146 51.0307 26.9376 46.2927 24.6055ZM40.0001 9.0128C43.8955 9.0128 47.065 12.1821 47.065 16.0777C47.065 19.9734 43.8957 23.1427 40.0001 23.1427C36.1045 23.1427 32.9352 19.9734 32.9352 16.0777C32.9352 12.1821 36.1045 9.0128 40.0001 9.0128ZM50.7614 48.9349C50.7614 50.0044 49.8855 50.8734 48.8136 50.862C47.8396 50.8518 47.065 51.6868 47.065 52.6608V70.2124C47.065 70.6403 46.7181 70.9873 46.2901 70.9873H42.6275C42.1535 70.9873 41.7693 70.6031 41.7693 70.1291V55.174C41.7693 54.2317 41.0583 53.4089 40.118 53.348C39.0876 53.2814 38.2309 54.0974 38.2309 55.1133V70.1291C38.2309 70.6031 37.8467 70.9873 37.3727 70.9873H33.7101C33.2821 70.9873 32.9352 70.6403 32.9352 70.2124V52.661C32.9352 51.687 32.1606 50.8519 31.1866 50.8622C30.1145 50.8734 29.2386 50.0044 29.2386 48.9349V37.6057C29.2386 31.7003 33.928 26.7724 39.8329 26.6822C45.843 26.5906 50.7614 31.4528 50.7614 37.4422V48.9349Z" fill="#2F344C"/>
<path d="M15.8546 29.1677C17.4452 27.716 18.4449 25.6272 18.4449 23.3092C18.4449 18.9349 14.8862 15.3764 10.5119 15.3764C6.13769 15.3764 2.57896 18.9349 2.57896 23.3092C2.57896 25.6272 3.57866 27.716 5.16927 29.1677C2.07799 31.0001 0 34.3688 0 38.2155V46.2341C0 48.002 1.06078 49.5269 2.57914 50.2061V61.0797C2.57914 63.034 4.1692 64.6241 6.12353 64.6241H14.9007C16.855 64.6241 18.4449 63.034 18.4449 61.0797V50.2061C19.9633 49.5271 21.0239 48.0022 21.0239 46.2343V38.2157C21.0239 34.3688 18.9459 31.0001 15.8546 29.1677ZM6.11757 23.309C6.11757 20.8859 8.08885 18.9146 10.5121 18.9146C12.9354 18.9146 14.9067 20.8859 14.9067 23.309C14.9067 25.7321 12.9354 27.7036 10.5121 27.7036C8.08885 27.7036 6.11757 25.7321 6.11757 23.309ZM17.4854 46.2341C17.4854 46.6805 17.1221 47.0439 16.6757 47.0439C15.6985 47.0439 14.9065 47.8359 14.9065 48.8131L14.9007 61.0855L12.2813 61.0836V50.5447C12.2813 49.5675 11.4893 48.7755 10.5121 48.7755C9.53495 48.7755 8.7429 49.5675 8.7429 50.5447V61.0812L6.11757 61.0793V48.8129C6.11757 47.8357 5.32552 47.0437 4.34836 47.0437C3.90177 47.0437 3.53843 46.6803 3.53843 46.2339V38.2153C3.53843 34.3701 6.66678 31.2418 10.5119 31.2418C14.3571 31.2418 17.4854 34.3701 17.4854 38.2153V46.2341Z" fill="#2F344C"/>
<path d="M74.8307 29.1677C76.4213 27.716 77.421 25.6272 77.421 23.3092C77.421 18.9349 73.8623 15.3764 69.488 15.3764C65.1138 15.3764 61.555 18.9349 61.555 23.3092C61.555 25.6272 62.5547 27.716 64.1454 29.1677C61.0541 31.0001 58.9761 34.3688 58.9761 38.2155V46.2341C58.9761 48.002 60.0369 49.5269 61.5552 50.2061V61.0797C61.5552 63.034 63.1453 64.6241 65.0996 64.6241H73.8768C75.8311 64.6241 77.421 63.034 77.421 61.0797V50.2061C78.9393 49.5271 80.0001 48.0022 80.0001 46.2341V38.2155C79.9999 34.3688 77.922 31.0001 74.8307 29.1677ZM65.0935 23.309C65.0935 20.8859 67.0647 18.9146 69.488 18.9146C71.9113 18.9146 73.8826 20.8859 73.8826 23.309C73.8826 25.7321 71.9113 27.7036 69.488 27.7036C67.0647 27.7036 65.0935 25.7321 65.0935 23.309ZM76.4615 46.2341C76.4615 46.6805 76.0982 47.0439 75.6516 47.0439C74.6744 47.0439 73.8824 47.8359 73.8824 48.8131L73.8766 61.0855L71.2572 61.0836V50.5447C71.2572 49.5675 70.4652 48.7755 69.488 48.7755C68.5108 48.7755 67.7188 49.5675 67.7188 50.5447V61.0812L65.0935 61.0793V48.8129C65.0935 47.8357 64.3014 47.0437 63.3243 47.0437C62.8777 47.0437 62.5143 46.6803 62.5143 46.2339V38.2153C62.5143 34.3701 65.6427 31.2418 69.4878 31.2418C73.333 31.2418 76.4613 34.3701 76.4613 38.2153V46.2341H76.4615Z" fill="#2F344C"/>
</g>
<defs>
<clipPath id="clip0">
<rect width="80" height="80" fill="white"/>
</clipPath>
</defs>
</svg>
