<svg width="50" height="50" viewBox="0 0 50 50" fill="none" xmlns="http://www.w3.org/2000/svg">
<circle cx="25" cy="25" r="25" fill="#EDF5FF"/>
<path d="M28.3333 26.2732V18.3333C28.3333 16.4924 26.8409 15 25 15C23.1591 15 21.6667 16.4924 21.6667 18.3333V26.2731C20.6438 27.1887 20 28.5192 20 30C20 32.7614 22.2386 35 25 35C27.7614 35 30 32.7614 30 30C30 28.5192 29.3563 27.1887 28.3333 26.2732ZM25 33.3333C23.1591 33.3333 21.6667 31.8409 21.6667 30C21.6667 29.0376 22.0745 28.1448 22.7782 27.515L23.3334 27.0182V18.3333C23.3334 17.4129 24.0796 16.6666 25 16.6666C25.9205 16.6666 26.6667 17.4128 26.6667 18.3333V27.0182L27.2219 27.515C27.9255 28.1448 28.3334 29.0376 28.3334 30C28.3333 31.8409 26.8409 33.3333 25 33.3333Z" fill="#1AACFF"/>
<path d="M25.8327 21.6665H24.166V31.6665H25.8327V21.6665Z" fill="#1AACFF"/>
<path d="M25 32.5C26.3807 32.5 27.5 31.3807 27.5 30C27.5 28.6193 26.3807 27.5 25 27.5C23.6193 27.5 22.5 28.6193 22.5 30C22.5 31.3807 23.6193 32.5 25 32.5Z" fill="#1AACFF"/>
</svg>
