<svg width="66" height="80" viewBox="0 0 66 80" fill="none" xmlns="http://www.w3.org/2000/svg">
<path d="M64.828 30.9797V72.5969C64.828 76.0391 62.0386 78.8281 58.5975 78.8281H7.40335C4.46234 78.8281 1.99796 76.7906 1.34319 74.05L1.31818 70.4875L1.17285 49.2719V7.40313C1.17285 3.96094 3.96228 1.17188 7.40335 1.17188H35.0163C37.4979 1.17188 45.5349 8.02344 52.6389 15.2391C59.121 21.825 64.828 28.7141 64.828 30.9797Z" fill="white"/>
<path d="M64.8281 30.9796V46.2249C64.8281 46.2078 64.8265 46.1906 64.8265 46.1718C64.3577 27.4656 49.1182 26.6 44.1348 21.6171L52.639 15.239C59.1211 21.825 64.8281 28.714 64.8281 30.9796Z" fill="#DFEAEF"/>
<path d="M35.0154 1.17188H19.7681C19.7853 1.17188 19.8024 1.17344 19.8212 1.17344C38.5299 1.64219 39.3956 16.8797 44.3791 21.8625L50.758 13.3594C44.1712 6.87813 37.2813 1.17188 35.0154 1.17188Z" fill="#DFEAEF"/>
<path d="M64.8278 30.9806V33.6162C64.8278 28.0672 60.3275 23.5675 54.7777 23.5675H48.6608C45.2199 23.5675 42.4292 20.7772 42.4292 17.3367V11.2206C42.4292 5.67156 37.9289 1.17188 32.3792 1.17188H35.0151C39.7615 1.17188 44.3151 3.0575 47.6713 6.41328L59.5857 18.3261C62.9419 21.6817 64.8278 26.2347 64.8278 30.9806Z" fill="white"/>
<path d="M32.1 11.3047C26.6539 5.86099 17.8262 5.86099 12.3802 11.3047C6.93576 16.75 6.93576 25.5766 12.3802 31.0219C17.8262 36.4657 26.6539 36.4657 32.1 31.0219C37.5444 25.5766 37.5444 16.75 32.1 11.3047ZM15.4728 14.3969C18.6654 11.2047 23.552 10.7407 27.2368 13.0016L14.0773 26.1594C11.8161 22.475 12.2802 17.5891 15.4728 14.3969ZM29.0058 27.9297C25.8148 31.1204 20.9298 31.586 17.2433 29.325L30.4029 16.1672C32.6641 19.8532 32.1984 24.7375 29.0058 27.9297Z" fill="#FF4D61"/>
<path d="M66 30.9806C66 25.8872 64.0165 21.0988 60.4146 17.4975L48.5002 5.58469C44.8985 1.98344 40.1096 0 35.0157 0H35.0155H7.40253C3.32074 0 0 3.32094 0 7.40313V49.28L0.111577 65.5202C0.115953 66.1647 0.639927 66.6839 1.28345 66.6839H1.29173C1.939 66.6794 2.46016 66.1511 2.45563 65.5039L2.34421 49.2719V7.40313C2.34421 4.61344 4.61341 2.34375 7.40268 2.34375H32.3795C37.2749 2.34375 41.2576 6.32594 41.2576 11.2206V17.3367C41.2576 21.4186 44.5788 24.7394 48.6612 24.7394H54.7781C59.6634 24.7394 63.6389 28.7053 63.6553 33.5863V72.5969C63.6553 75.3866 61.3861 77.6562 58.5968 77.6562H7.40268C5.09238 77.6562 3.09868 76.1164 2.51236 73.8966L2.45579 70.1817C2.44594 69.5345 1.90884 69.0203 1.2661 69.0278C0.618831 69.0377 0.102201 69.5703 0.112046 70.2173L0.170647 74.0678C0.171897 74.1536 0.18268 74.2389 0.202527 74.3222C1.00107 77.6653 3.96192 80 7.40253 80H58.5967C62.6785 80 65.9992 76.6791 65.9992 72.5969L66 30.9806ZM54.7779 22.3956H48.661C45.8711 22.3956 43.6015 20.1263 43.6015 17.3367V11.2206C43.6015 8.05375 42.2828 5.18953 40.1655 3.14734C42.6566 3.95 44.9388 5.33812 46.8428 7.24187L58.7572 19.1547C60.6612 21.0584 62.0495 23.3403 62.8522 25.8311C60.8098 23.7141 57.9452 22.3956 54.7779 22.3956Z" fill="#5D6174"/>
<path d="M36.0755 19.0698C36.7052 18.9201 37.0945 18.2884 36.9448 17.6587C36.2995 14.9437 34.9106 12.46 32.928 10.4759C27.0343 4.58466 17.4446 4.58466 11.5507 10.4761C5.65885 16.369 5.65885 25.9575 11.5509 31.8506C14.4977 34.7962 18.3685 36.2689 22.2393 36.2689C26.1103 36.2689 29.9812 34.7961 32.928 31.8504C35.3874 29.3914 36.9324 26.1333 37.2784 22.6761C37.343 22.032 36.8731 21.4578 36.2289 21.3933C35.587 21.3286 35.0105 21.7986 34.9459 22.4426C34.6536 25.3631 33.3482 28.1156 31.2705 30.1931C26.2907 35.1709 18.1878 35.1709 13.2083 30.1933C8.22997 25.214 8.22997 17.1123 13.2081 12.1334C18.188 7.1556 26.2909 7.1556 31.2701 12.1329C32.9457 13.8095 34.1193 15.9076 34.6642 18.2006C34.8139 18.8303 35.446 19.2193 36.0755 19.0698Z" fill="#5D6174"/>
<path d="M28.4006 12.8646C28.3586 12.5083 28.1556 12.1908 27.8497 12.0032C23.6028 9.39659 18.1719 10.0403 14.643 13.5688C11.1149 17.0964 10.4715 22.5261 13.0783 26.7727C13.266 27.0785 13.5835 27.2814 13.9398 27.3235C13.9858 27.3289 14.0315 27.3316 14.0772 27.3316C14.3861 27.3316 14.6847 27.2094 14.9059 26.9883L28.0652 13.8307C28.319 13.5769 28.4426 13.221 28.4006 12.8646ZM14.3983 24.1814C13.2121 21.1271 13.9084 17.6178 16.3004 15.2261C17.9274 13.5994 20.0706 12.7569 22.2365 12.7569C23.2559 12.7569 24.2804 12.9436 25.2578 13.3232L14.3983 24.1814Z" fill="#5D6174"/>
<path d="M16.6306 30.3239C18.3738 31.393 20.3159 31.9147 22.244 31.9147C25.0142 31.9147 27.7553 30.8375 29.8348 28.7581C33.3624 25.2309 34.0069 19.8014 31.4019 15.5545C31.2142 15.2486 30.8968 15.0455 30.5404 15.0034C30.1837 14.9614 29.8278 15.0848 29.574 15.3386L16.4146 28.4963C16.1608 28.75 16.0372 29.1059 16.0794 29.4623C16.1215 29.8189 16.3246 30.1364 16.6306 30.3239ZM30.0812 18.1461C31.2661 21.2006 30.569 24.7095 28.1772 27.1011C25.786 29.4919 22.2768 30.1883 19.2223 29.0038L30.0812 18.1461Z" fill="#5D6174"/>
<path d="M8.29703 41.1719H57.7188C58.366 41.1719 58.8908 40.6472 58.8908 40C58.8908 39.3528 58.366 38.8281 57.7188 38.8281H8.29703C7.64976 38.8281 7.125 39.3528 7.125 40C7.125 40.6472 7.64976 41.1719 8.29703 41.1719Z" fill="#5D6174"/>
<path d="M8.29703 46.147H28.7255C29.3727 46.147 29.8975 45.6223 29.8975 44.9751C29.8975 44.3279 29.3727 43.8032 28.7255 43.8032H8.29703C7.64976 43.8032 7.125 44.3279 7.125 44.9751C7.125 45.6223 7.64976 46.147 8.29703 46.147Z" fill="#5D6174"/>
<path d="M8.29703 54.3462H57.7188C58.366 54.3462 58.8908 53.8215 58.8908 53.1743C58.8908 52.5271 58.366 52.0024 57.7188 52.0024H8.29703C7.64976 52.0024 7.125 52.5271 7.125 53.1743C7.125 53.8215 7.64976 54.3462 8.29703 54.3462Z" fill="#5D6174"/>
<path d="M8.29703 59.3214H42.2863C42.9336 59.3214 43.4583 58.7967 43.4583 58.1495C43.4583 57.5023 42.9336 56.9777 42.2863 56.9777H8.29703C7.64976 56.9777 7.125 57.5023 7.125 58.1495C7.125 58.7967 7.64976 59.3214 8.29703 59.3214Z" fill="#5D6174"/>
<path d="M8.29703 67.5206H57.7188C58.366 67.5206 58.8908 66.9959 58.8908 66.3488C58.8908 65.7016 58.366 65.1769 57.7188 65.1769H8.29703C7.64976 65.1769 7.125 65.7016 7.125 66.3488C7.125 66.9959 7.64976 67.5206 8.29703 67.5206Z" fill="#5D6174"/>
<path d="M8.29703 72.4958H33.2304C33.8777 72.4958 34.4025 71.9712 34.4025 71.324C34.4025 70.6768 33.8777 70.1521 33.2304 70.1521H8.29703C7.64976 70.1521 7.125 70.6768 7.125 71.324C7.125 71.9712 7.64976 72.4958 8.29703 72.4958Z" fill="#5D6174"/>
</svg>
