<svg width="150" height="74" viewBox="0 0 150 74" fill="none" xmlns="http://www.w3.org/2000/svg">
<path d="M32.4688 22.876H21.3644C20.3425 22.876 19.5137 23.7048 19.5137 24.7267V35.8311C19.5137 36.853 20.3425 37.6818 21.3644 37.6818H32.4688C33.4907 37.6818 34.3195 36.853 34.3195 35.8311V24.7267C34.3195 23.7045 33.491 22.876 32.4688 22.876ZM30.618 33.9803H23.2151V26.5774H30.618V33.9803Z" fill="#EFF1F3"/>
<path d="M32.4688 42.3087H21.3644C20.3425 42.3087 19.5137 43.1375 19.5137 44.1594V55.2637C19.5137 56.2856 20.3425 57.1145 21.3644 57.1145H32.4688C33.4907 57.1145 34.3195 56.2856 34.3195 55.2637V44.1594C34.3195 43.1372 33.491 42.3087 32.4688 42.3087ZM30.618 53.413H23.2151V46.0101H30.618V53.413Z" fill="#EFF1F3"/>
<path d="M80.5078 22.876H69.4035C68.3816 22.876 67.5527 23.7048 67.5527 24.7267V35.8311C67.5527 36.853 68.3816 37.6818 69.4035 37.6818H80.5078C81.5297 37.6818 82.3586 36.853 82.3586 35.8311V24.7267C82.3586 23.7045 81.5301 22.876 80.5078 22.876ZM78.6571 33.9803H71.2542V26.5774H78.6571V33.9803Z" fill="#EFF1F3"/>
<path d="M80.5078 42.3087H69.4035C68.3816 42.3087 67.5527 43.1375 67.5527 44.1594V55.2637C67.5527 56.2856 68.3816 57.1145 69.4035 57.1145H80.5078C81.5297 57.1145 82.3586 56.2856 82.3586 55.2637V44.1594C82.3586 43.1372 81.5301 42.3087 80.5078 42.3087ZM78.6571 53.413H71.2542V46.0101H78.6571V53.413Z" fill="#EFF1F3"/>
<path d="M128.547 22.876H117.443C116.421 22.876 115.592 23.7048 115.592 24.7267V35.8311C115.592 36.853 116.421 37.6818 117.443 37.6818H128.547C129.569 37.6818 130.398 36.853 130.398 35.8311V24.7267C130.398 23.7045 129.569 22.876 128.547 22.876ZM126.696 33.9803H119.293V26.5774H126.696V33.9803Z" fill="#EFF1F3"/>
<path d="M128.547 42.3087H117.443C116.421 42.3087 115.592 43.1375 115.592 44.1594V55.2637C115.592 56.2856 116.421 57.1145 117.443 57.1145H128.547C129.569 57.1145 130.398 56.2856 130.398 55.2637V44.1594C130.398 43.1372 129.569 42.3087 128.547 42.3087ZM126.696 53.413H119.293V46.0101H126.696V53.413Z" fill="#EFF1F3"/>
<path d="M148.149 80.2486H143.613V27.5028H148.149C149.171 27.5028 150 26.674 150 25.6521C150 24.6302 149.171 23.8013 148.149 23.8013H143.613V20.5052C143.613 19.892 143.31 19.3186 142.803 18.974L137.753 15.5455V1.90105C137.753 0.879144 136.924 0.0503266 135.902 0.0503266H127.265C126.243 0.0503266 125.415 0.879144 125.415 1.90105V7.16823L124.034 6.23052C123.406 5.80455 122.582 5.80455 121.954 6.23052L103.186 18.974C102.678 19.3186 102.375 19.892 102.375 20.5052V23.8013H95.575V20.5052C95.575 19.892 95.2712 19.3186 94.7641 18.974L89.4799 15.3861V1.90075C89.4799 0.878836 88.6511 0.0500183 87.6292 0.0500183H78.9925C77.9706 0.0500183 77.1418 0.878836 77.1418 1.90075V7.00876L75.9955 6.23052C75.3678 5.80455 74.5439 5.80455 73.9162 6.23052L55.1474 18.974C54.64 19.3186 54.3365 19.892 54.3365 20.5052V23.8013H47.5369V20.5052C47.5369 19.892 47.2331 19.3186 46.726 18.974L41.2065 15.2269V1.90105C41.2065 0.879144 40.3776 0.0503266 39.3557 0.0503266H30.719C29.6971 0.0503266 28.8683 0.879144 28.8683 1.90105V6.84959L27.9565 6.23052C27.3288 5.80455 26.5049 5.80455 25.8772 6.23052L7.10834 18.974C6.60093 19.3186 6.29741 19.892 6.29741 20.5052V23.8013H1.85073C0.828818 23.8013 0 24.6302 0 25.6521C0 26.674 0.828818 27.5028 1.85073 27.5028H6.29772V80.2486H1.85073C0.828509 80.2486 0 81.0774 0 82.0993C0 83.1212 0.828509 83.95 1.85073 83.95H148.149C149.171 83.95 150 83.1212 150 82.0993C150 81.0774 149.171 80.2486 148.149 80.2486ZM129.116 3.75178H134.051V13.0323L129.116 9.68121V3.75178ZM102.375 27.5028V80.2486H95.575V27.5028H102.375V27.5028ZM80.8429 3.75178H85.7782V12.8731L80.8429 9.52204V3.75178ZM54.3362 27.5028V80.2486H47.5366V27.5028H54.3362V27.5028ZM32.5697 3.75178H37.505V12.7136L32.5697 9.36257V3.75178ZM30.6172 80.2486H23.2143V66.6765H30.6172V80.2486ZM34.3187 80.2486V64.8258C34.3187 63.8039 33.4899 62.9751 32.4679 62.9751H21.3636C20.3417 62.9751 19.5128 63.8039 19.5128 64.8258V80.2486H9.99918V21.4858L26.917 9.99861L43.8351 21.4858V80.2486H34.3187ZM78.656 80.2486H71.253V66.6765H78.656V80.2486ZM82.3574 80.2486V64.8258C82.3574 63.8039 81.5286 62.9751 80.5067 62.9751H69.4023C68.3804 62.9751 67.5516 63.8039 67.5516 64.8258V80.2486H58.0376V21.4858L74.9557 9.99861L91.8739 21.4858V80.2486H82.3574V80.2486ZM126.694 80.2486H119.291V66.6765H126.694V80.2486ZM130.396 80.2486V64.8258C130.396 63.8039 129.567 62.9751 128.545 62.9751H117.441C116.419 62.9751 115.59 63.8039 115.59 64.8258V80.2486H106.076V21.4858L122.994 9.99861L139.912 21.4858V80.2486H130.396V80.2486Z" fill="#EFF1F3"/>
</svg>
