<svg width="60" height="60" viewBox="0 0 60 60" fill="none" xmlns="http://www.w3.org/2000/svg">
<path d="M11.25 35.625V30C11.25 29.5027 11.4475 29.0258 11.7992 28.6742C12.1508 28.3225 12.6277 28.125 13.125 28.125C13.6223 28.125 14.0992 28.3225 14.4508 28.6742C14.8025 29.0258 15 29.5027 15 30V35.625H16.875V30C16.875 29.0054 16.4799 28.0516 15.7766 27.3484C15.0734 26.6451 14.1196 26.25 13.125 26.25C12.1304 26.25 11.1766 26.6451 10.4733 27.3484C9.77009 28.0516 9.375 29.0054 9.375 30V35.625H11.25Z" fill="#99A0B1"/>
<path d="M26.25 26.25H19.6875C19.4389 26.25 19.2004 26.3488 19.0246 26.5246C18.8488 26.7004 18.75 26.9389 18.75 27.1875V34.6875C18.75 34.9361 18.8488 35.1746 19.0246 35.3504C19.2004 35.5262 19.4389 35.625 19.6875 35.625H26.25C26.4986 35.625 26.7371 35.5262 26.9129 35.3504C27.0887 35.1746 27.1875 34.9361 27.1875 34.6875V27.1875C27.1875 26.9389 27.0887 26.7004 26.9129 26.5246C26.7371 26.3488 26.4986 26.25 26.25 26.25ZM25.3125 28.125V30H20.625V28.125H25.3125ZM20.625 33.75V31.875H25.3125V33.75H20.625Z" fill="#99A0B1"/>
<path d="M11.25 22.5H9.375V24.375H11.25V22.5Z" fill="#99A0B1"/>
<path d="M27.1875 22.5H25.3125V24.375H27.1875V22.5Z" fill="#99A0B1"/>
<path d="M16.875 22.5C17.8021 22.5 18.7084 22.2251 19.4792 21.71C20.2501 21.1949 20.8509 20.4629 21.2057 19.6063C21.5605 18.7498 21.6533 17.8073 21.4724 16.898C21.2916 15.9887 20.8451 15.1535 20.1896 14.4979C19.534 13.8424 18.6988 13.3959 17.7895 13.2151C16.8802 13.0342 15.9377 13.127 15.0812 13.4818C14.2246 13.8366 13.4926 14.4374 12.9775 15.2083C12.4624 15.9791 12.1875 16.8854 12.1875 17.8125C12.1889 19.0553 12.6832 20.2467 13.562 21.1255C14.4408 22.0043 15.6322 22.4986 16.875 22.5ZM14.2237 18.75H15.9375V20.4637C15.5426 20.323 15.184 20.0963 14.8876 19.7999C14.5912 19.5035 14.3644 19.1449 14.2237 18.75ZM17.8125 20.4637V18.75H19.5262C19.3855 19.1449 19.1588 19.5035 18.8624 19.7999C18.566 20.0963 18.2074 20.323 17.8125 20.4637ZM19.5262 16.875H17.8125V15.1613C18.2074 15.302 18.566 15.5287 18.8624 15.8251C19.1588 16.1215 19.3855 16.4801 19.5262 16.875ZM15.9375 15.1613V16.875H14.2237C14.3644 16.4801 14.5912 16.1215 14.8876 15.8251C15.184 15.5287 15.5426 15.302 15.9375 15.1613Z" fill="#99A0B1"/>
<path d="M54.375 46.8753V16.9128L56.6332 18.5688C56.7729 18.6712 56.9383 18.7329 57.1109 18.7471C57.2836 18.7612 57.4568 18.7273 57.6113 18.649C57.7658 18.5707 57.8956 18.4511 57.9863 18.3035C58.077 18.1559 58.125 17.9861 58.125 17.8128V13.1253C58.125 12.9781 58.0903 12.8329 58.0237 12.7016C57.9571 12.5702 57.8606 12.4564 57.7418 12.3693L43.6793 2.05685C43.5201 1.94013 43.3282 1.87663 43.1308 1.87538C42.9334 1.87414 42.7407 1.93523 42.5801 2.04994L30 11.0358L17.4199 2.04994C17.2593 1.93523 17.0666 1.87414 16.8692 1.87538C16.6718 1.87663 16.4799 1.94013 16.3207 2.05685L2.2582 12.3693C2.13945 12.4564 2.04287 12.5702 1.97629 12.7016C1.90972 12.8329 1.87502 12.9781 1.875 13.1253V17.8128C1.87502 17.9861 1.92303 18.1559 2.01372 18.3035C2.1044 18.4511 2.2342 18.5707 2.38872 18.649C2.54324 18.7273 2.71644 18.7612 2.88909 18.7471C3.06174 18.7329 3.22709 18.6712 3.3668 18.5688L5.625 16.9128V46.8753H7.5V45.0003H17.5L20.625 47.3441V56.2503H15.4336C15.8004 55.6164 15.9735 54.8888 15.9313 54.1576C15.8892 53.4263 15.6337 52.7235 15.1964 52.1358C14.7592 51.5482 14.1593 51.1016 13.471 50.8512C12.7827 50.6008 12.0361 50.5575 11.3235 50.7268C10.9637 50.2223 10.5074 49.7942 9.98107 49.4673C9.45473 49.1403 8.86878 48.921 8.25711 48.822C7.64544 48.7229 7.02021 48.7462 6.4176 48.8904C5.81499 49.0347 5.24696 49.297 4.74639 49.6622C4.24582 50.0274 3.82265 50.4882 3.50137 51.018C3.18008 51.5479 2.96706 52.1362 2.87464 52.7489C2.78221 53.3615 2.81222 53.9865 2.96292 54.5875C3.11361 55.1885 3.38201 55.7537 3.75258 56.2503H1.875V58.1253H58.125V56.2503H56.2474C56.6196 55.7539 56.8894 55.1884 57.0413 54.5868C57.1932 53.9853 57.2241 53.3595 57.1323 52.7459C57.0404 52.1323 56.8276 51.543 56.5062 51.0123C56.1848 50.4815 55.7612 50.0199 55.2599 49.6542C54.7587 49.2885 54.1898 49.026 53.5863 48.8819C52.9828 48.7377 52.3567 48.7149 51.7443 48.8147C51.132 48.9145 50.5455 49.1349 50.019 49.4631C49.4924 49.7914 49.0363 50.2209 48.6771 50.7268C47.9644 50.5573 47.2177 50.6003 46.5292 50.8506C45.8408 51.101 45.2408 51.5476 44.8034 52.1353C44.3661 52.723 44.1106 53.426 44.0686 54.1574C44.0266 54.8888 44.1999 55.6164 44.567 56.2503H39.375V47.3441L42.5 45.0003H52.5V46.8753H54.375ZM52.5 37.5003H42.1875C41.9847 37.5003 41.7873 37.5661 41.625 37.6878L37.875 40.5003C37.7586 40.5877 37.6641 40.7009 37.599 40.8311C37.5339 40.9612 37.5 41.1048 37.5 41.2503V48.7503H30.9375V17.3578L43.1177 8.65755L52.5 15.5379V37.5003ZM43.125 39.3753H45V43.1253H43.125V39.3753ZM37.5 52.5003H30.9375V50.6253H37.5V52.5003ZM22.5 50.6253H29.0625V52.5003H22.5V50.6253ZM3.75 13.6004L16.8823 3.97005L29.4551 12.9507C29.6141 13.0643 29.8046 13.1253 30 13.1253C30.1954 13.1253 30.3859 13.0643 30.5449 12.9507L43.1177 3.97005L56.25 13.6004V15.9628L43.6793 6.74435C43.5201 6.62763 43.3282 6.56413 43.1308 6.56288C42.9334 6.56164 42.7407 6.62273 42.5801 6.73744L30 15.7233L17.4199 6.73744C17.2593 6.62273 17.0666 6.56164 16.8692 6.56288C16.6718 6.56413 16.4799 6.62763 16.3207 6.74435L3.75 15.9628V13.6004ZM16.8823 8.65755L29.0625 17.3578V48.7503H22.5V41.2503C22.5 41.1048 22.4661 40.9612 22.401 40.8311C22.3359 40.7009 22.2414 40.5877 22.125 40.5003L18.375 37.6878C18.2127 37.5661 18.0153 37.5003 17.8125 37.5003H7.5V15.5379L16.8823 8.65755ZM16.875 39.3753V43.1253H15V39.3753H16.875ZM7.5 43.1253V39.3753H9.375V43.1253H7.5ZM11.25 39.3753H13.125V43.1253H11.25V39.3753ZM18.75 43.5941V40.3128L20.625 41.7191V45.0003L18.75 43.5941ZM22.5 54.3753H29.0625V56.2503H22.5V54.3753ZM7.5 56.2503C6.99522 56.2503 6.49974 56.1145 6.06555 55.857C5.63136 55.5996 5.27445 55.23 5.03228 54.7872C4.79011 54.3443 4.6716 53.8443 4.68918 53.3399C4.70676 52.8354 4.85978 52.345 5.1322 51.92C5.40461 51.495 5.78637 51.1512 6.23743 50.9246C6.6885 50.698 7.19223 50.597 7.69578 50.6321C8.19933 50.6673 8.68415 50.8373 9.09936 51.1244C9.51457 51.4114 9.84488 51.8049 10.0556 52.2636C10.1085 52.3784 10.1841 52.4814 10.2778 52.5663C10.3715 52.6511 10.4814 52.7162 10.6009 52.7575C10.7204 52.7988 10.847 52.8155 10.9731 52.8066C11.0992 52.7977 11.2222 52.7634 11.3347 52.7058C11.5984 52.57 11.8909 52.4996 12.1875 52.5003C12.6848 52.5003 13.1617 52.6979 13.5133 53.0495C13.865 53.4011 14.0625 53.878 14.0625 54.3753C14.0625 54.8726 13.865 55.3495 13.5133 55.7012C13.1617 56.0528 12.6848 56.2503 12.1875 56.2503H7.5ZM45.9375 54.3753C45.9381 53.8782 46.1358 53.4017 46.4873 53.0502C46.8388 52.6986 47.3154 52.5009 47.8125 52.5003C48.1091 52.4996 48.4016 52.57 48.6653 52.7058C48.7778 52.7634 48.9008 52.7977 49.0269 52.8066C49.153 52.8155 49.2796 52.7988 49.3991 52.7575C49.5186 52.7162 49.6285 52.6511 49.7222 52.5663C49.8159 52.4814 49.8915 52.3784 49.9444 52.2636C50.1551 51.8049 50.4854 51.4114 50.9006 51.1244C51.3158 50.8373 51.8007 50.6673 52.3042 50.6321C52.8078 50.597 53.3115 50.698 53.7626 50.9246C54.2136 51.1512 54.5954 51.495 54.8678 51.92C55.1402 52.345 55.2932 52.8354 55.3108 53.3399C55.3284 53.8443 55.2099 54.3443 54.9677 54.7872C54.7255 55.23 54.3686 55.5996 53.9344 55.857C53.5003 56.1145 53.0048 56.2503 52.5 56.2503H47.8125C47.3154 56.2497 46.8388 56.052 46.4873 55.7005C46.1358 55.349 45.9381 54.8724 45.9375 54.3753ZM30.9375 56.2503V54.3753H37.5V56.2503H30.9375ZM39.375 41.7191L41.25 40.3128V43.5941L39.375 45.0003V41.7191ZM46.875 43.1253V39.3753H48.75V43.1253H46.875ZM50.625 43.1253V39.3753H52.5V43.1253H50.625Z" fill="#99A0B1"/>
<path d="M46.875 26.25C45.8808 26.2511 44.9276 26.6466 44.2246 27.3496C43.5216 28.0526 43.1261 29.0058 43.125 30V35.625H45V30C45 29.5027 45.1975 29.0258 45.5492 28.6742C45.9008 28.3225 46.3777 28.125 46.875 28.125C47.3723 28.125 47.8492 28.3225 48.2008 28.6742C48.5525 29.0258 48.75 29.5027 48.75 30V35.625H50.625V30C50.6239 29.0058 50.2284 28.0526 49.5254 27.3496C48.8224 26.6466 47.8692 26.2511 46.875 26.25Z" fill="#99A0B1"/>
<path d="M40.3125 26.25H33.75C33.5014 26.25 33.2629 26.3488 33.0871 26.5246C32.9113 26.7004 32.8125 26.9389 32.8125 27.1875V34.6875C32.8125 34.9361 32.9113 35.1746 33.0871 35.3504C33.2629 35.5262 33.5014 35.625 33.75 35.625H40.3125C40.5611 35.625 40.7996 35.5262 40.9754 35.3504C41.1512 35.1746 41.25 34.9361 41.25 34.6875V27.1875C41.25 26.9389 41.1512 26.7004 40.9754 26.5246C40.7996 26.3488 40.5611 26.25 40.3125 26.25ZM39.375 28.125V30H34.6875V28.125H39.375ZM34.6875 33.75V31.875H39.375V33.75H34.6875Z" fill="#99A0B1"/>
<path d="M50.625 22.5H48.75V24.375H50.625V22.5Z" fill="#99A0B1"/>
<path d="M34.6875 22.5H32.8125V24.375H34.6875V22.5Z" fill="#99A0B1"/>
<path d="M38.4375 17.8125C38.4375 18.7396 38.7124 19.6459 39.2275 20.4167C39.7426 21.1876 40.4746 21.7884 41.3312 22.1432C42.1877 22.498 43.1302 22.5908 44.0395 22.4099C44.9488 22.2291 45.784 21.7826 46.4396 21.1271C47.0951 20.4715 47.5416 19.6363 47.7224 18.727C47.9033 17.8177 47.8105 16.8752 47.4557 16.0187C47.1009 15.1621 46.5001 14.4301 45.7292 13.915C44.9584 13.3999 44.0521 13.125 43.125 13.125C41.8822 13.1264 40.6908 13.6207 39.812 14.4995C38.9332 15.3783 38.4389 16.5697 38.4375 17.8125ZM40.4738 18.75H42.1875V20.4637C41.7926 20.323 41.434 20.0963 41.1376 19.7999C40.8412 19.5035 40.6145 19.1449 40.4738 18.75ZM44.0625 20.4637V18.75H45.7763C45.6356 19.1449 45.4088 19.5035 45.1124 19.7999C44.816 20.0963 44.4574 20.323 44.0625 20.4637ZM45.7763 16.875H44.0625V15.1612C44.4574 15.3019 44.816 15.5287 45.1124 15.8251C45.4088 16.1215 45.6356 16.4801 45.7763 16.875ZM42.1875 15.1612V16.875H40.4738C40.6145 16.4801 40.8412 16.1215 41.1376 15.8251C41.434 15.5287 41.7926 15.3019 42.1875 15.1612Z" fill="#99A0B1"/>
<path d="M18.75 53.4375V49.6875C18.75 49.5644 18.7258 49.4425 18.6786 49.3287C18.6315 49.215 18.5625 49.1116 18.4754 49.0246L16.6004 47.1496C16.5134 47.0625 16.41 46.9935 16.2963 46.9464C16.1825 46.8992 16.0606 46.875 15.9375 46.875H10.3125V48.75H15.5493L16.875 50.0757V53.4375H18.75Z" fill="#99A0B1"/>
<path d="M43.3996 47.1496L41.5246 49.0246C41.4375 49.1116 41.3685 49.215 41.3214 49.3287C41.2742 49.4425 41.25 49.5644 41.25 49.6875V53.4375H43.125V50.0757L44.4507 48.75H49.6875V46.875H44.0625C43.9394 46.875 43.8175 46.8992 43.7037 46.9464C43.59 46.9935 43.4866 47.0625 43.3996 47.1496Z" fill="#99A0B1"/>
</svg>
