<svg width="80" height="80" viewBox="0 0 80 80" fill="none" xmlns="http://www.w3.org/2000/svg">
<path d="M12.5 43.75H22.5C22.8315 43.75 23.1495 43.6183 23.3839 43.3839C23.6183 43.1495 23.75 42.8315 23.75 42.5V32.5C23.75 32.1685 23.6183 31.8505 23.3839 31.6161C23.1495 31.3817 22.8315 31.25 22.5 31.25H12.5C12.1685 31.25 11.8505 31.3817 11.6161 31.6161C11.3817 31.8505 11.25 32.1685 11.25 32.5V42.5C11.25 42.8315 11.3817 43.1495 11.6161 43.3839C11.8505 43.6183 12.1685 43.75 12.5 43.75ZM18.75 33.75H21.25V36.25H18.75V33.75ZM18.75 38.75H21.25V41.25H18.75V38.75ZM13.75 33.75H16.25V36.25H13.75V33.75ZM13.75 38.75H16.25V41.25H13.75V38.75Z" fill="#2F344C"/>
<path d="M35 38.75H45C45.3315 38.75 45.6495 38.6183 45.8839 38.3839C46.1183 38.1495 46.25 37.8315 46.25 37.5V27.5C46.25 27.1685 46.1183 26.8505 45.8839 26.6161C45.6495 26.3817 45.3315 26.25 45 26.25H35C34.6685 26.25 34.3505 26.3817 34.1161 26.6161C33.8817 26.8505 33.75 27.1685 33.75 27.5V37.5C33.75 37.8315 33.8817 38.1495 34.1161 38.3839C34.3505 38.6183 34.6685 38.75 35 38.75ZM41.25 28.75H43.75V31.25H41.25V28.75ZM41.25 33.75H43.75V36.25H41.25V33.75ZM36.25 28.75H38.75V31.25H36.25V28.75ZM36.25 33.75H38.75V36.25H36.25V33.75Z" fill="#2F344C"/>
<path d="M57.5 33.75H67.5C67.8315 33.75 68.1495 33.6183 68.3839 33.3839C68.6183 33.1495 68.75 32.8315 68.75 32.5V22.5C68.75 22.1685 68.6183 21.8505 68.3839 21.6161C68.1495 21.3817 67.8315 21.25 67.5 21.25H57.5C57.1685 21.25 56.8505 21.3817 56.6161 21.6161C56.3817 21.8505 56.25 22.1685 56.25 22.5V32.5C56.25 32.8315 56.3817 33.1495 56.6161 33.3839C56.8505 33.6183 57.1685 33.75 57.5 33.75ZM63.75 23.75H66.25V26.25H63.75V23.75ZM63.75 28.75H66.25V31.25H63.75V28.75ZM58.75 23.75H61.25V26.25H58.75V23.75ZM58.75 28.75H61.25V31.25H58.75V28.75Z" fill="#2F344C"/>
<path d="M75 7.5H50C49.6685 7.5 49.3505 7.6317 49.1161 7.86612C48.8817 8.10054 48.75 8.41848 48.75 8.75V12.5H27.5C27.1685 12.5 26.8505 12.6317 26.6161 12.8661C26.3817 13.1005 26.25 13.4185 26.25 13.75V17.5H5C4.66848 17.5 4.35054 17.6317 4.11612 17.8661C3.8817 18.1005 3.75 18.4185 3.75 18.75V23.75C3.75 24.0815 3.8817 24.3995 4.11612 24.6339C4.35054 24.8683 4.66848 25 5 25V71.25C5 71.5815 5.1317 71.8995 5.36612 72.1339C5.60054 72.3683 5.91848 72.5 6.25 72.5H28.75C29.0815 72.5 29.3995 72.3683 29.6339 72.1339C29.8683 71.8995 30 71.5815 30 71.25V67.5H51.25C51.5815 67.5 51.8995 67.3683 52.1339 67.1339C52.3683 66.8995 52.5 66.5815 52.5 66.25V62.5H73.75C74.0815 62.5 74.3995 62.3683 74.6339 62.1339C74.8683 61.8995 75 61.5815 75 61.25V15C75.3315 15 75.6495 14.8683 75.8839 14.6339C76.1183 14.3995 76.25 14.0815 76.25 13.75V8.75C76.25 8.41848 76.1183 8.10054 75.8839 7.86612C75.6495 7.6317 75.3315 7.5 75 7.5ZM21.25 70H13.75V58.75H21.25V70ZM13.75 56.25V53.75H16.25V56.25H13.75ZM21.25 56.25H18.75V53.75H21.25V56.25ZM27.5 70H23.75V52.5C23.75 52.1685 23.6183 51.8505 23.3839 51.6161C23.1495 51.3817 22.8315 51.25 22.5 51.25H12.5C12.1685 51.25 11.8505 51.3817 11.6161 51.6161C11.3817 51.8505 11.25 52.1685 11.25 52.5V70H7.5V25H27.5V70ZM28.75 22.5H6.25V20H28.75V22.5ZM43.75 65H36.25V53.75H43.75V65ZM36.25 51.25V48.75H38.75V51.25H36.25ZM43.75 51.25H41.25V48.75H43.75V51.25ZM50 65H46.25V47.5C46.25 47.1685 46.1183 46.8505 45.8839 46.6161C45.6495 46.3817 45.3315 46.25 45 46.25H35C34.6685 46.25 34.3505 46.3817 34.1161 46.6161C33.8817 46.8505 33.75 47.1685 33.75 47.5V65H30V25C30.3315 25 30.6495 24.8683 30.8839 24.6339C31.1183 24.3995 31.25 24.0815 31.25 23.75V20H50V65ZM51.25 17.5H28.75V15H51.25V17.5ZM66.25 60H58.75V48.75H66.25V60ZM58.75 46.25V43.75H61.25V46.25H58.75ZM66.25 46.25H63.75V43.75H66.25V46.25ZM72.5 60H68.75V42.5C68.75 42.1685 68.6183 41.8505 68.3839 41.6161C68.1495 41.3817 67.8315 41.25 67.5 41.25H57.5C57.1685 41.25 56.8505 41.3817 56.6161 41.6161C56.3817 41.8505 56.25 42.1685 56.25 42.5V60H52.5V20C52.8315 20 53.1495 19.8683 53.3839 19.6339C53.6183 19.3995 53.75 19.0815 53.75 18.75V15H72.5V60ZM73.75 12.5H51.25V10H73.75V12.5Z" fill="#2F344C"/>
</svg>
