<svg width="50" height="50" viewBox="0 0 50 50" fill="none" xmlns="http://www.w3.org/2000/svg">
<g opacity="0.5">
<path d="M38.4924 11.6666C38.0495 8.60313 36.5781 5.78604 34.2896 3.65469C31.759 1.29795 28.46 0 25.0001 0C21.5403 0 18.2412 1.29795 15.7106 3.65469C13.4221 5.78604 11.9507 8.60313 11.5077 11.6666C6.57854 13.8189 3.32776 18.729 3.32776 24.1644C3.32776 31.6818 9.44368 37.7977 16.9611 37.7977C19.278 37.7977 21.5359 37.2086 23.5351 36.1075V50H26.4648V36.1075C28.464 37.2086 30.7219 37.7977 33.0388 37.7977C40.5563 37.7977 46.6721 31.6817 46.6721 24.1644C46.6724 18.729 43.4216 13.8188 38.4924 11.6666ZM33.039 34.868C30.649 34.868 28.3388 34.07 26.465 32.61V23.65L33.0352 20.1954L31.6717 17.6023L26.465 20.34V14.5732H23.5353V26.8335L18.3285 24.0958L16.9651 26.6889L23.5353 30.1435V32.61C21.6615 34.07 19.3513 34.868 16.9613 34.868C11.0592 34.868 6.25764 30.0663 6.25764 24.1644C6.25764 19.6516 9.11174 15.5999 13.3597 14.0822L14.2558 13.7621L14.3275 12.8133C14.5304 10.1308 15.7307 7.63955 17.7073 5.79863C19.6938 3.94853 22.2838 2.92969 25.0001 2.92969C27.7164 2.92969 30.3065 3.94853 32.293 5.79853C34.2697 7.63945 35.4699 10.1306 35.6729 12.8132L35.7446 13.762L36.6406 14.0821C40.8886 15.5998 43.7427 19.6515 43.7427 24.1643C43.7427 30.0663 38.941 34.868 33.039 34.868Z" fill="#DEECFA"/>
</g>
</svg>
