<svg width="50" height="50" viewBox="0 0 50 50" fill="none" xmlns="http://www.w3.org/2000/svg">
<path d="M40.6642 13.9626C40.1296 10.7856 38.5564 7.88615 36.1505 5.68586C33.4773 3.23881 30.0021 1.89191 26.3829 1.89191C23.5863 1.89191 20.8616 2.69388 18.5277 4.20529C16.5844 5.45966 14.9702 7.15615 13.8289 9.1508C13.3354 9.05827 12.8213 9.00686 12.3072 9.00686C7.93749 9.00686 4.38001 12.5643 4.38001 16.9341C4.38001 17.4996 4.4417 18.0445 4.54452 18.5791C1.71705 20.6355 0 23.9462 0 27.4728C0 30.3209 1.05902 33.0866 2.99198 35.2767C4.97635 37.5181 7.59819 38.8444 10.3948 38.9986C10.4257 38.9986 10.4462 38.9986 10.4771 38.9986H19.3193C20.0905 38.9986 20.7074 38.3817 20.7074 37.6106C20.7074 36.8395 20.0905 36.2226 19.3193 36.2226H10.5182C6.31298 35.9655 2.77606 31.9659 2.77606 27.4625C2.77606 24.5528 4.33889 21.8384 6.85791 20.3682C7.44396 20.0289 7.69073 19.3194 7.46453 18.682C7.25889 18.1267 7.15608 17.5407 7.15608 16.9135C7.15608 14.0757 9.46946 11.7624 12.3072 11.7624C12.9138 11.7624 13.5102 11.8652 14.0654 12.0708C14.744 12.3176 15.4946 12.0091 15.803 11.3614C17.7257 7.27953 21.8795 4.64741 26.3932 4.64741C32.4594 4.64741 37.4666 9.19193 38.0424 15.217C38.1041 15.8442 38.577 16.348 39.1939 16.4508C43.7693 17.2322 47.2239 21.458 47.2239 26.2801C47.2239 31.3902 43.2038 35.8319 38.248 36.2123H30.6704C29.8992 36.2123 29.2823 36.8292 29.2823 37.6003C29.2823 38.3715 29.8992 38.9884 30.6704 38.9884H38.2994C38.3302 38.9884 38.3611 38.9884 38.4022 38.9884C41.5381 38.7622 44.4684 37.3227 46.6482 34.9168C48.8176 32.5314 50 29.4675 50 26.2801C49.9897 20.5121 46.0518 15.3815 40.6642 13.9626Z" fill="#A3A5B0"/>
<path d="M33.3332 28.7889C33.8781 28.244 33.8781 27.37 33.3332 26.8251L25.9817 19.4736C25.7247 19.2166 25.3648 19.0624 25.005 19.0624C24.6451 19.0624 24.2852 19.2063 24.0282 19.4736L16.6768 26.8251C16.1318 27.37 16.1318 28.244 16.6768 28.7889C16.9441 29.0562 17.3039 29.2002 17.6535 29.2002C18.0031 29.2002 18.363 29.0665 18.6303 28.7889L23.6169 23.8023V46.7202C23.6169 47.4913 24.2338 48.1082 25.005 48.1082C25.7761 48.1082 26.393 47.4913 26.393 46.7202V23.8023L31.3796 28.7889C31.9143 29.3338 32.7882 29.3338 33.3332 28.7889Z" fill="#A3A5B0"/>
</svg>
