<svg width="49" height="49" viewBox="0 0 49 49" fill="none" xmlns="http://www.w3.org/2000/svg">
<path d="M7.78534 29.1878C8.19942 29.4648 8.70653 29.5659 9.19518 29.469C9.68382 29.3721 10.114 29.0852 10.3911 28.6712C11.883 26.4447 13.8996 24.6194 16.2634 23.3561C18.6271 22.0928 21.2652 21.4303 23.9454 21.4271C26.6255 21.4238 29.2652 22.0799 31.632 23.3375C33.9988 24.595 36.0199 26.4154 37.5172 28.6383C37.6549 28.843 37.8316 29.0186 38.0372 29.155C38.2427 29.2914 38.4732 29.386 38.7153 29.4334C38.9575 29.4807 39.2066 29.4799 39.4484 29.431C39.6902 29.3821 39.92 29.2861 40.1248 29.1483C40.3295 29.0106 40.505 28.8339 40.6415 28.6283C40.7779 28.4228 40.8725 28.1923 40.9198 27.9502C40.9672 27.708 40.9664 27.459 40.9175 27.2171C40.8686 26.9753 40.7725 26.7455 40.6348 26.5408C38.2468 22.9854 34.7832 20.2881 30.7511 18.8438C32.448 17.4615 33.676 15.5885 34.2671 13.4812C34.8582 11.3739 34.7834 9.13547 34.0531 7.07233C33.3227 5.00918 31.9725 3.22224 30.1872 1.9562C28.4019 0.690162 26.269 0.00692561 24.0804 5.23707e-05C21.8918 -0.00682087 19.7546 0.663005 17.9614 1.91781C16.1682 3.17261 14.8068 4.95103 14.0635 7.00955C13.3202 9.06807 13.2314 11.306 13.8092 13.417C14.3871 15.5279 15.6033 17.4086 17.2914 18.8016C13.1968 20.2406 9.67977 22.9695 7.26871 26.5783C7.13099 26.7835 7.0351 27.0138 6.98653 27.2561C6.93795 27.4984 6.93765 27.7479 6.98564 27.9903C7.03363 28.2326 7.12897 28.4632 7.2662 28.6687C7.40342 28.8742 7.57984 29.0506 7.78534 29.1878ZM24.0471 3.76753C25.4033 3.76753 26.7291 4.16969 27.8567 4.92316C28.9844 5.67664 29.8633 6.74757 30.3823 8.00055C30.9013 9.25353 31.0371 10.6323 30.7725 11.9624C30.5079 13.2926 29.8548 14.5144 28.8958 15.4734C27.9368 16.4324 26.715 17.0855 25.3849 17.3501C24.0547 17.6146 22.676 17.4788 21.423 16.9598C20.17 16.4408 19.0991 15.5619 18.3456 14.4343C17.5921 13.3066 17.19 11.9809 17.19 10.6247C17.1922 8.80673 17.9154 7.06389 19.2008 5.77841C20.4863 4.49293 22.2292 3.76976 24.0471 3.76753ZM31.5392 33.2748L28.7381 35.2954C28.5355 35.4411 28.3844 35.6475 28.3067 35.8847C28.229 36.122 28.2288 36.3777 28.306 36.6151L29.4332 39.884C29.4787 40.0204 29.499 40.164 29.4934 40.3076C29.453 41.1859 28.353 41.7862 27.5461 41.2038L24.745 39.1833C24.5415 39.0367 24.297 38.9578 24.0462 38.9578C23.7953 38.9578 23.5508 39.0367 23.3473 39.1833L20.5481 41.2C19.7403 41.7824 18.6347 41.1822 18.5999 40.3039C18.5946 40.1601 18.6153 40.0166 18.661 39.8802L19.7882 36.6114C19.8654 36.374 19.8652 36.1182 19.7875 35.881C19.7098 35.6437 19.5587 35.4373 19.3561 35.2916L16.555 33.2711C15.6232 32.5985 16.1022 31.0045 17.2538 31.0045H20.7162C21.231 31.0045 21.6875 30.8063 21.8434 30.3197L22.9133 27.032C22.9924 26.7946 23.1442 26.5881 23.3472 26.4417C23.5501 26.2954 23.794 26.2166 24.0443 26.2166C24.2945 26.2166 24.5384 26.2954 24.7414 26.4417C24.9444 26.5881 25.0962 26.7946 25.1752 27.032L26.2451 30.3197C26.4039 30.8063 26.8604 31.0045 27.3723 31.0045H30.8347C31.992 31.0082 32.4711 32.6023 31.5392 33.2748ZM31.5392 33.2748L28.7381 35.2954C28.5355 35.4411 28.3844 35.6475 28.3067 35.8847C28.229 36.122 28.2288 36.3777 28.306 36.6151L29.4332 39.884C29.4787 40.0204 29.499 40.164 29.4934 40.3076C29.453 41.1859 28.353 41.7862 27.5461 41.2038L24.745 39.1833C24.5415 39.0367 24.297 38.9578 24.0462 38.9578C23.7953 38.9578 23.5508 39.0367 23.3473 39.1833L20.5481 41.2C19.7403 41.7824 18.6347 41.1822 18.5999 40.3039C18.5946 40.1601 18.6153 40.0166 18.661 39.8802L19.7882 36.6114C19.8654 36.374 19.8652 36.1182 19.7875 35.881C19.7098 35.6437 19.5587 35.4373 19.3561 35.2916L16.555 33.2711C15.6232 32.5985 16.1022 31.0045 17.2538 31.0045H20.7162C21.231 31.0045 21.6875 30.8063 21.8434 30.3197L22.9133 27.032C22.9924 26.7946 23.1442 26.5881 23.3472 26.4417C23.5501 26.2954 23.794 26.2166 24.0443 26.2166C24.2945 26.2166 24.5384 26.2954 24.7414 26.4417C24.9444 26.5881 25.0962 26.7946 25.1752 27.032L26.2451 30.3197C26.4039 30.8063 26.8604 31.0045 27.3723 31.0045H30.8347C31.992 31.0082 32.4711 32.6023 31.5392 33.2748ZM31.5392 33.2748L28.7381 35.2954C28.5355 35.4411 28.3844 35.6475 28.3067 35.8847C28.229 36.122 28.2288 36.3777 28.306 36.6151L29.4332 39.884C29.4787 40.0204 29.499 40.164 29.4934 40.3076C29.453 41.1859 28.353 41.7862 27.5461 41.2038L24.745 39.1833C24.5415 39.0367 24.297 38.9578 24.0462 38.9578C23.7953 38.9578 23.5508 39.0367 23.3473 39.1833L20.5481 41.2C19.7403 41.7824 18.6347 41.1822 18.5999 40.3039C18.5946 40.1601 18.6153 40.0166 18.661 39.8802L19.7882 36.6114C19.8654 36.374 19.8652 36.1182 19.7875 35.881C19.7098 35.6437 19.5587 35.4373 19.3561 35.2916L16.555 33.2711C15.6232 32.5985 16.1022 31.0045 17.2538 31.0045H20.7162C21.231 31.0045 21.6875 30.8063 21.8434 30.3197L22.9133 27.032C22.9924 26.7946 23.1442 26.5881 23.3472 26.4417C23.5501 26.2954 23.794 26.2166 24.0443 26.2166C24.2945 26.2166 24.5384 26.2954 24.7414 26.4417C24.9444 26.5881 25.0962 26.7946 25.1752 27.032L26.2451 30.3197C26.4039 30.8063 26.8604 31.0045 27.3723 31.0045H30.8347C31.992 31.0082 32.4711 32.6023 31.5392 33.2748ZM47.6019 39.8502L44.8008 41.8707C44.5981 42.0164 44.447 42.2228 44.3693 42.4601C44.2917 42.6973 44.2914 42.9531 44.3687 43.1905L45.4959 46.4593C45.5413 46.5958 45.5617 46.7393 45.556 46.883C45.5156 47.7613 44.4156 48.3615 43.6087 47.7791L40.8077 45.7586C40.6041 45.612 40.3596 45.5331 40.1088 45.5331C39.8579 45.5331 39.6135 45.612 39.4099 45.7586L36.6107 47.7754C35.8029 48.3577 34.6973 47.7575 34.6625 46.8792C34.6572 46.7355 34.6779 46.592 34.7236 46.4556L35.8508 43.1867C35.928 42.9493 35.9278 42.6935 35.8501 42.4563C35.7724 42.2191 35.6214 42.0127 35.4187 41.8669L32.6176 39.8464C31.6858 39.1739 32.1648 37.5798 33.3165 37.5798H36.7788C37.2936 37.5798 37.7501 37.3816 37.906 36.895L38.9759 33.6074C39.055 33.3699 39.2068 33.1634 39.4098 33.0171C39.6128 32.8707 39.8567 32.792 40.1069 32.792C40.3572 32.792 40.601 32.8707 40.804 33.0171C41.007 33.1634 41.1588 33.3699 41.2379 33.6074L42.3078 36.895C42.4665 37.3816 42.923 37.5798 43.435 37.5798H46.8974C48.0546 37.5836 48.5337 39.1776 47.6019 39.8502ZM15.4766 39.8502L12.6755 41.8707C12.4729 42.0164 12.3218 42.2228 12.2441 42.4601C12.1664 42.6973 12.1662 42.9531 12.2434 43.1905L13.3706 46.4593C13.4161 46.5958 13.4364 46.7393 13.4307 46.883C13.3904 47.7613 12.2904 48.3615 11.4835 47.7791L8.68335 45.7586C8.47981 45.612 8.23532 45.5331 7.98448 45.5331C7.73364 45.5331 7.48916 45.612 7.28562 45.7586L4.48452 47.7754C3.67763 48.3577 2.57204 47.7575 2.53728 46.8792C2.53195 46.7355 2.55263 46.592 2.59834 46.4556L3.72554 43.1867C3.80278 42.9493 3.80255 42.6935 3.72488 42.4563C3.6472 42.2191 3.49612 42.0127 3.29345 41.8669L0.492351 39.8502C-0.439469 39.1776 0.0395922 37.5836 1.19122 37.5836H4.6536C5.16836 37.5836 5.62488 37.3854 5.78081 36.8988L6.85071 33.6111C6.92977 33.3737 7.08155 33.1672 7.28454 33.0208C7.48752 32.8745 7.73142 32.7957 7.98167 32.7957C8.23191 32.7957 8.47581 32.8745 8.67879 33.0208C8.88178 33.1672 9.03356 33.3737 9.11262 33.6111L10.1825 36.8988C10.3413 37.3854 10.7978 37.5836 11.3097 37.5836H14.7721C15.9294 37.5836 16.4084 39.1776 15.4766 39.8502Z" fill="#5D6174"/>
<path d="M31.5391 33.275L28.738 35.2955C28.5354 35.4413 28.3843 35.6477 28.3066 35.8849C28.2289 36.1221 28.2287 36.3779 28.3059 36.6153L29.4331 39.8842C29.4786 40.0206 29.4989 40.1641 29.4933 40.3078C29.4529 41.1861 28.3529 41.7863 27.546 41.2039L24.7449 39.1834C24.5414 39.0368 24.2969 38.958 24.0461 38.958C23.7952 38.958 23.5507 39.0368 23.3472 39.1834L20.548 41.2002C19.7401 41.7826 18.6345 41.1823 18.5998 40.3041C18.5945 40.1603 18.6151 40.0168 18.6608 39.8804L19.788 36.6115C19.8653 36.3742 19.865 36.1184 19.7874 35.8811C19.7097 35.6439 19.5586 35.4375 19.3559 35.2918L16.5549 33.2713C15.623 32.5987 16.1021 31.0047 17.2537 31.0047H20.7161C21.2309 31.0047 21.6874 30.8065 21.8433 30.3199L22.9132 27.0322C22.9923 26.7948 23.1441 26.5883 23.347 26.4419C23.55 26.2956 23.7939 26.2168 24.0442 26.2168C24.2944 26.2168 24.5383 26.2956 24.7413 26.4419C24.9443 26.5883 25.0961 26.7948 25.1751 27.0322L26.245 30.3199C26.4038 30.8065 26.8603 31.0047 27.3722 31.0047H30.8346C31.9919 31.0084 32.471 32.6025 31.5391 33.275Z" fill="#FF4D61"/>
</svg>
