<svg width="34" height="34" viewBox="0 0 34 34" fill="none" xmlns="http://www.w3.org/2000/svg">
<path d="M16.7576 16.3779C19.0076 16.3779 20.9557 15.5709 22.5479 13.9787C24.1396 12.3868 24.9468 10.439 24.9468 8.18871C24.9468 5.9392 24.1398 3.99111 22.5476 2.39866C20.9554 0.80699 19.0073 0 16.7576 0C14.5073 0 12.5595 0.80699 10.9675 2.39892C9.37561 3.99085 8.56836 5.93894 8.56836 8.18871C8.56836 10.439 9.37561 12.3871 10.9675 13.979C12.56 15.5707 14.5081 16.3779 16.7576 16.3779ZM12.3766 3.80772C13.5981 2.58621 15.031 1.99244 16.7576 1.99244C18.4839 1.99244 19.9171 2.58621 21.1388 3.80772C22.3603 5.02949 22.9544 6.46266 22.9544 8.18871C22.9544 9.91526 22.3603 11.3482 21.1388 12.57C19.9171 13.7917 18.4839 14.3855 16.7576 14.3855C15.0315 14.3855 13.5986 13.7915 12.3766 12.57C11.1548 11.3484 10.5608 9.91526 10.5608 8.18871C10.5608 6.46266 11.1548 5.02949 12.3766 3.80772Z" fill="#AAB0BB"/>
<path d="M31.0866 26.1443C31.0407 25.4818 30.9479 24.7591 30.8111 23.996C30.6731 23.2271 30.4955 22.5003 30.2828 21.836C30.0628 21.1493 29.7642 20.4713 29.3946 19.8215C29.0114 19.147 28.5611 18.5597 28.0558 18.0765C27.5274 17.5709 26.8805 17.1644 26.1324 16.8679C25.3869 16.573 24.5607 16.4236 23.6769 16.4236C23.3298 16.4236 22.9942 16.566 22.3459 16.9881C21.947 17.2482 21.4803 17.5491 20.9594 17.8819C20.514 18.1657 19.9107 18.4316 19.1654 18.6723C18.4383 18.9076 17.7001 19.0269 16.9712 19.0269C16.2428 19.0269 15.5045 18.9076 14.7769 18.6723C14.0324 18.4319 13.4288 18.166 12.9842 17.8822C12.4683 17.5525 12.0014 17.2516 11.5964 16.9878C10.9487 16.5657 10.6131 16.4233 10.266 16.4233C9.38195 16.4233 8.55602 16.573 7.81077 16.8682C7.06318 17.1642 6.41598 17.5707 5.88706 18.0767C5.38175 18.5603 4.93144 19.1473 4.54857 19.8215C4.17944 20.4713 3.88061 21.1491 3.66064 21.8362C3.4482 22.5005 3.27051 23.2271 3.13251 23.996C2.99554 24.7581 2.90294 25.481 2.85703 26.1451C2.81189 26.7944 2.78906 27.4701 2.78906 28.1528C2.78906 29.9276 3.35326 31.3645 4.46582 32.4241C5.56463 33.4697 7.0183 34 8.78662 34H25.1578C26.9256 34 28.3793 33.4697 29.4784 32.4241C30.5912 31.3652 31.1554 29.9279 31.1554 28.1526C31.1551 27.4675 31.132 26.7918 31.0866 26.1443ZM28.1046 30.9805C27.3785 31.6716 26.4146 32.0075 25.1576 32.0075H8.78662C7.52932 32.0075 6.56539 31.6716 5.83959 30.9808C5.12754 30.303 4.78151 29.3777 4.78151 28.1528C4.78151 27.5158 4.80252 26.8867 4.84454 26.2828C4.88552 25.6904 4.96931 25.0395 5.09356 24.348C5.21626 23.665 5.37242 23.024 5.55815 22.4437C5.73635 21.8873 5.97941 21.3364 6.28083 20.8056C6.5685 20.2998 6.8995 19.8658 7.26473 19.5162C7.60636 19.1891 8.03696 18.9214 8.54435 18.7206C9.0136 18.5348 9.54096 18.4332 10.1135 18.4179C10.1832 18.455 10.3075 18.5258 10.5088 18.657C10.9184 18.9239 11.3905 19.2285 11.9124 19.5618C12.5007 19.9369 13.2587 20.2757 14.1642 20.568C15.09 20.8674 16.0342 21.0194 16.9714 21.0194C17.9086 21.0194 18.8531 20.8674 19.7784 20.5683C20.6847 20.2754 21.4424 19.9369 22.0315 19.5613C22.5656 19.2199 23.0245 18.9242 23.4341 18.657C23.6354 18.526 23.7596 18.455 23.8294 18.4179C24.4022 18.4332 24.9295 18.5348 25.399 18.7206C25.9062 18.9214 26.3368 19.1893 26.6784 19.5162C27.0436 19.8656 27.3746 20.2995 27.6623 20.8059C27.964 21.3364 28.2073 21.8876 28.3853 22.4435C28.5712 23.0245 28.7277 23.6652 28.8501 24.3477C28.9741 25.0406 29.0581 25.6917 29.0991 26.2831V26.2836C29.1414 26.8852 29.1627 27.5139 29.1629 28.1528C29.1627 29.378 28.8166 30.303 28.1046 30.9805Z" fill="#AAB0BB"/>
</svg>
