<svg width="60" height="60" viewBox="0 0 60 60" fill="none" xmlns="http://www.w3.org/2000/svg">
<circle cx="30" cy="30" r="30" fill="#99A0B1"/>
<path d="M44.1422 32.8578C41.9638 30.6795 39.371 29.067 36.5421 28.0908C39.572 26.004 41.5625 22.5116 41.5625 18.5625C41.5625 12.187 36.3755 7 30 7C23.6245 7 18.4375 12.187 18.4375 18.5625C18.4375 22.5116 20.428 26.004 23.458 28.0908C20.6291 29.067 18.0363 30.6795 15.8579 32.8578C12.0804 36.6354 10 41.6578 10 47H13.125C13.125 37.6951 20.6951 30.125 30 30.125C39.3049 30.125 46.875 37.6951 46.875 47H50C50 41.6578 47.9196 36.6354 44.1422 32.8578ZM30 27C25.3476 27 21.5625 23.215 21.5625 18.5625C21.5625 13.91 25.3476 10.125 30 10.125C34.6524 10.125 38.4375 13.91 38.4375 18.5625C38.4375 23.215 34.6524 27 30 27Z" fill="#E6E7EC"/>
</svg>
