<svg width="50" height="50" viewBox="0 0 50 50" fill="none" xmlns="http://www.w3.org/2000/svg">
<circle cx="25" cy="25" r="25" fill="#EDF5FF"/>
<g clip-path="url(#clip0)">
<path d="M33.0234 25.0547C33.0234 25.2852 33.2109 25.4727 33.4414 25.4727H34.582C34.8125 25.4727 35 25.2852 35 25.0547C35 24.8242 34.8125 24.6367 34.582 24.6367H33.4414C33.2109 24.6367 33.0234 24.8242 33.0234 25.0547Z" fill="#1AACFF"/>
<path d="M17.082 25.0547C17.082 24.8242 16.8945 24.6367 16.6641 24.6367H15.4141C15.1836 24.6367 14.9961 24.8242 14.9961 25.0547C14.9961 25.2852 15.1836 25.4727 15.4141 25.4727H16.6641C16.8984 25.4727 17.082 25.2852 17.082 25.0547Z" fill="#1AACFF"/>
<path d="M32.5471 21.2112L33.5159 20.6526C33.7151 20.5393 33.7854 20.2815 33.6682 20.0823C33.5549 19.883 33.301 19.8127 33.0979 19.9299L32.1291 20.4885C31.9299 20.6018 31.8596 20.8596 31.9768 21.0588C32.0901 21.258 32.3479 21.3244 32.5471 21.2112Z" fill="#1AACFF"/>
<path d="M17.6098 28.871L16.5004 29.5117C16.3012 29.6289 16.2348 29.8828 16.3481 30.082C16.4614 30.2812 16.7192 30.3476 16.9184 30.2343L18.0278 29.5937C18.227 29.4765 18.2934 29.2226 18.1801 29.0234C18.0629 28.8242 17.809 28.7578 17.6098 28.871Z" fill="#1AACFF"/>
<path d="M29.0629 18.1213C29.2622 18.2385 29.5161 18.1682 29.6333 17.969L30.184 17.0158C30.2973 16.8166 30.2309 16.5627 30.0317 16.4455C29.8325 16.3283 29.5786 16.3987 29.4614 16.5979L28.9106 17.551C28.7973 17.7502 28.8637 18.0041 29.0629 18.1213Z" fill="#1AACFF"/>
<path d="M21.1018 31.9143C20.9026 31.7971 20.6487 31.8674 20.5315 32.0666L19.8791 33.1955C19.7619 33.3948 19.8323 33.6487 20.0315 33.7659C20.2307 33.883 20.4846 33.8127 20.6018 33.6135L21.2541 32.4846C21.3674 32.2854 21.301 32.0315 21.1018 31.9143Z" fill="#1AACFF"/>
<path d="M33.1328 29.418C32.9258 28.8555 32.4688 28.418 31.8711 28.2383C31.7344 28.1953 31.5938 28.1719 31.4531 28.1602C31.9375 27.1836 32.1914 26.1094 32.1914 25.0039C32.1914 21.5742 29.7773 18.6562 26.4336 18.0039C26.0742 17.625 25.5938 17.4102 25.0977 17.3984C25.0469 17.2578 24.9766 17.125 24.8945 17.0039C24.9453 17.0234 24.9961 17.0352 25.0547 17.0352C25.2852 17.0352 25.4727 16.8477 25.4727 16.6172V15.418C25.4727 15.1875 25.2852 15 25.0547 15C24.8242 15 24.6367 15.1875 24.6367 15.418V16.6172C24.6367 16.6445 24.6406 16.6758 24.6445 16.7031C24.0039 16.0664 23.0469 15.957 22.293 16.3945C21.7773 15.543 20.8438 15 19.8242 15C18.5938 15 17.5156 15.7695 17.1094 16.9023C15.9219 17.0742 15 18.1055 15 19.3359C15 20.1211 15.3594 20.8398 15.9922 21.3125C16.5273 21.7148 17.1758 21.8789 17.8125 21.7812C17.9844 22.0195 18.1875 22.2227 18.4141 22.3945C18.0859 23.2227 17.918 24.0977 17.918 25C17.918 28.2031 20.0273 30.9805 23.0781 31.8516C23.25 32.6914 23.8477 33.3711 24.6328 33.6641V34.5781C24.6328 34.8086 24.8203 34.9961 25.0508 34.9961C25.2812 34.9961 25.4688 34.8086 25.4688 34.5781V33.8164H25.4922C25.6094 33.8164 25.7266 33.8086 25.8398 33.793C26.3789 34.5391 27.2539 34.9922 28.1875 34.9922C29.0898 34.9922 29.9297 34.5703 30.4727 33.8711C30.8516 34.0508 31.2812 34.1016 31.7031 34.0156C32.168 33.918 32.5742 33.6602 32.8594 33.2852C33.957 33.4062 35 32.543 35 31.3516C35 30.2969 34.1445 29.4492 33.1328 29.418ZM18.0039 20.8945C17.9648 20.8945 17.9258 20.8984 17.8867 20.9102C17.4102 21.0508 16.8984 20.9531 16.4883 20.6445C16.0703 20.332 15.832 19.8555 15.832 19.3359C15.832 18.4531 16.5469 17.7227 17.4297 17.7109C17.6172 17.707 17.7812 17.5781 17.8281 17.3945C18.0547 16.4766 18.875 15.8359 19.8242 15.8359C20.6836 15.8359 21.4609 16.3789 21.75 17.1875C21.8008 17.3242 21.918 17.4258 22.0586 17.4531C22.2031 17.4805 22.3477 17.4336 22.4492 17.3281C23.0781 16.6406 24.2305 16.9961 24.3711 17.9023C24.3867 18.0117 24.4492 18.1133 24.543 18.1797C24.6328 18.2461 24.75 18.2695 24.8594 18.25C25.5078 18.1328 26.1367 18.6641 26.1367 19.3398C26.1367 19.3555 26.1328 19.3711 26.1328 19.3867C26.0898 20.1172 25.4062 20.5977 24.7422 20.4102C24.5586 20.3594 24.3555 20.4414 24.2617 20.6172C23.9297 21.2422 23.1133 21.3945 22.582 20.9688C22.375 20.8047 22.0781 20.8711 21.9531 21.0938C21.1797 22.4844 19.1602 22.5078 18.3672 21.1133C18.293 20.9727 18.1523 20.8945 18.0039 20.8945ZM18.7539 25C18.7539 24.2383 18.8867 23.5 19.1523 22.8008C20.3203 23.2266 21.6836 22.8555 22.4492 21.8555C23.2891 22.2461 24.2773 22 24.832 21.2695C25.7227 21.3672 26.6367 20.8086 26.9062 19.8359C26.9141 19.8086 26.9219 19.7812 26.9258 19.7539C26.9844 19.5 26.9922 19.2383 26.9453 18.9844C29.5469 19.7891 31.3633 22.2031 31.3633 25C31.3633 26.207 31.0234 27.3789 30.375 28.3867C30.3594 28.3945 30.3438 28.4023 30.3281 28.4102C29.8125 27.5586 28.8789 27.0195 27.8594 27.0195C26.6328 27.0195 25.5508 27.7852 25.1445 28.9219C24.0664 29.0781 23.2305 29.9414 23.0664 30.9766C20.5 30.1328 18.7539 27.7422 18.7539 25ZM32.7734 32.4297C32.5859 32.3789 32.3867 32.4609 32.293 32.6367C32.1367 32.9297 31.8594 33.1406 31.5352 33.207C31.207 33.2734 30.8711 33.1953 30.6094 32.9883C30.5156 32.9141 30.3906 32.8828 30.2695 32.9062C30.1484 32.9297 30.0469 33.0039 29.9883 33.1133C29.625 33.7656 28.9375 34.1719 28.1914 34.1719C27.4531 34.1719 26.7656 33.7734 26.4023 33.1328C26.3281 33 26.1875 32.9219 26.0391 32.9219C26 32.9219 25.9609 32.9258 25.9219 32.9375C24.9727 33.2148 23.957 32.5234 23.875 31.4922C23.7969 30.5234 24.5625 29.75 25.4648 29.7344C25.6523 29.7305 25.8203 29.6016 25.8633 29.4141C26.082 28.5078 26.9023 27.8555 27.8594 27.8555C28.7188 27.8555 29.4922 28.3984 29.7852 29.2031C29.875 29.4492 30.1836 29.5977 30.4844 29.3438C31.1094 28.6602 32.2656 29 32.4062 29.918C32.4219 30.0273 32.4844 30.1289 32.5781 30.1953C32.668 30.2617 32.7852 30.2852 32.8945 30.2656C33.5352 30.1484 34.1719 30.668 34.1719 31.3555C34.168 32.0977 33.457 32.6211 32.7734 32.4297Z" fill="#1AACFF"/>
</g>
<defs>
<clipPath id="clip0">
<rect width="20" height="20" fill="white" transform="translate(15 15)"/>
</clipPath>
</defs>
</svg>
