<svg width="80" height="80" viewBox="0 0 80 80" fill="none" xmlns="http://www.w3.org/2000/svg">
<path d="M79.9793 29.1447C79.9793 26.4536 78.4363 24.0223 76.0572 22.8308C76.6276 19.9145 76.3129 16.8305 75.0268 14.0226C74.7057 13.3217 74.0571 12.8212 73.2916 12.6836C72.5258 12.5458 71.7407 12.7884 71.1907 13.333L63.9532 20.495L61.1339 17.705L68.3737 10.5405C68.9234 9.99655 69.1683 9.22061 69.0291 8.46405C68.8899 7.70749 68.3843 7.06655 67.6761 6.74905C62.1061 4.25061 55.4588 5.44686 51.1349 9.72577C47.8126 13.0134 46.3041 17.5366 46.9505 22.0683H43.6012L42.7094 21.1856C41.9618 20.4459 40.968 20.0384 39.9106 20.0384C39.1197 20.0384 38.3644 20.2662 37.7212 20.6906L34.5498 17.5522C35.2804 16.1808 35.0627 14.4295 33.9067 13.2858L24.0101 3.49202C19.3888 -1.08142 11.8676 -1.1747 7.24377 3.28389C4.95248 5.49327 3.67924 8.45218 3.65854 11.6158C3.65586 12.0175 3.67387 12.4162 3.71132 12.8108C1.44752 14.0476 0.0208572 16.4045 0.0208572 19.0041L0 75.1506C0 76.907 0.94916 78.4483 2.3665 79.2991C3.10425 79.7436 3.96998 80 4.89512 80H75.1049C76.03 80 76.8958 79.7436 77.6335 79.2991C79.051 78.4483 80 76.907 80 75.1506L79.9793 29.1447ZM4.7616 75.1777V36.1959H75.2385V75.1777H4.7616ZM74.3818 27.3195C74.9132 27.7648 75.2384 28.4269 75.2384 29.1447V31.5078H70.7508C71.1904 31.1611 71.6141 30.7878 72.019 30.3873C72.9548 29.4612 73.7441 28.427 74.3818 27.3195ZM51.2229 24.672C51.8098 24.0914 52.0466 23.2494 51.8474 22.4523C50.9936 19.0395 51.981 15.5206 54.4885 13.0392C56.5153 11.0337 59.2926 10.0251 62.0642 10.1519L56.1062 16.048C55.1812 16.9633 55.1812 18.4464 56.1062 19.3617L62.2766 25.468C63.3326 26.3526 64.6864 26.2633 65.63 25.468L71.584 19.5759C71.711 22.3181 70.6922 25.0678 68.6654 27.0736C66.1586 29.5542 62.604 30.5308 59.157 29.6869C58.3501 29.4894 57.4978 29.7239 56.9103 30.3053L55.695 31.5078H44.3541L51.2229 24.672ZM10.5536 6.6403C13.3285 3.96452 17.8609 4.03858 20.6568 6.80561L29.9143 15.9669C29.1707 17.3528 29.3846 19.0731 30.5534 20.2295L34.868 24.4992C35.6156 25.2389 36.6094 25.6464 37.6668 25.6464C38.4577 25.6464 39.213 25.4184 39.8562 24.9942L42.0258 27.1414L37.6362 31.5078H28.9351C28.8215 31.2664 28.6666 31.0394 28.4653 30.8401L24.1511 26.5706C22.9946 25.4261 21.2246 25.2101 19.8379 25.9325L10.486 16.6778C9.12803 15.3339 8.38712 13.547 8.39945 11.6461C8.41161 9.74577 9.17669 7.96796 10.5536 6.6403ZM7.13221 19.9916L17.1291 29.8847C18.2984 31.0416 20.037 31.2539 21.4384 30.5187L22.4379 31.5078H4.7616V19.0041C4.7616 18.4726 4.93857 17.9717 5.24717 17.5661C5.76006 18.4408 6.38941 19.2566 7.13221 19.9916Z" fill="#2F344C"/>
</svg>
