<svg width="22" height="18" viewBox="0 0 22 18" fill="none" xmlns="http://www.w3.org/2000/svg">
<path d="M0.827567 7.93625L9.74519 0.861735C9.75706 0.933461 9.76548 1.02791 9.76548 1.14951V4.05126V4.74407L10.4561 4.7989L11.0917 4.84937C12.5088 4.98365 13.8452 5.41909 15.1074 6.16135C16.3818 6.91081 17.4676 7.86556 18.3688 9.0287C19.2717 10.194 19.9857 11.5551 20.5057 13.1202C20.7259 13.783 20.8974 14.4578 21.0199 15.1449C20.3078 14.2757 19.4977 13.5066 18.5897 12.8394C16.8783 11.5818 14.9798 10.852 12.906 10.6608C12.066 10.5792 11.2356 10.5927 10.4161 10.7022L9.76548 10.7892V11.4456V15.0219C9.76548 15.1435 9.75706 15.2379 9.74519 15.3096L0.809013 8.20775C0.752551 8.15044 0.75 8.1176 0.75 8.0857L0.749999 8.08563C0.749981 8.08442 0.74979 8.07156 0.76349 8.04165C0.781704 8.00188 0.795141 7.9767 0.803271 7.96277L0.827567 7.93625ZM9.69336 0.690401C9.69338 0.69037 9.69376 0.690836 9.69447 0.691888C9.6937 0.690957 9.69335 0.690431 9.69336 0.690401ZM9.69336 15.481C9.69335 15.481 9.6937 15.4804 9.69447 15.4795C9.69376 15.4806 9.69338 15.481 9.69336 15.481Z" stroke="#D1D2D7" stroke-width="1.5"/>
</svg>
