<svg width="27" height="26" viewBox="0 0 27 26" fill="none" xmlns="http://www.w3.org/2000/svg">
<path d="M10.6875 13.5648H10.125C9.96453 13.5648 9.80591 13.5993 9.6598 13.6659C9.51369 13.7326 9.38347 13.8299 9.27787 13.9514L7.3125 16.2121V14.6952C7.3125 14.3954 7.19397 14.1078 6.983 13.8958C6.77202 13.6839 6.48587 13.5648 6.1875 13.5648H5.625C4.72989 13.5648 3.87145 13.2075 3.23851 12.5715C2.60558 11.9355 2.25 11.073 2.25 10.1736V5.65198C2.25 4.75258 2.60558 3.89002 3.23851 3.25405C3.87145 2.61808 4.72989 2.26079 5.625 2.26079H16.3125C17.2076 2.26079 18.0661 2.61808 18.699 3.25405C19.3319 3.89002 19.6875 4.75258 19.6875 5.65198V9.60837C19.6875 9.90817 19.806 10.1957 20.017 10.4077C20.228 10.6197 20.5141 10.7388 20.8125 10.7388C21.1109 10.7388 21.397 10.6197 21.608 10.4077C21.819 10.1957 21.9375 9.90817 21.9375 9.60837V5.65198C21.9357 4.15353 21.3425 2.71697 20.288 1.65741C19.2335 0.597846 17.8038 0.00179491 16.3125 0H5.625C4.13371 0.00179491 2.704 0.597846 1.6495 1.65741C0.594992 2.71697 0.00178634 4.15353 0 5.65198L0 10.1736C0.00171717 11.5743 0.520234 12.9247 1.45531 13.9637C2.39038 15.0026 3.6756 15.6563 5.0625 15.7984V19.2167C5.06228 19.4469 5.13197 19.6716 5.26226 19.8609C5.39255 20.0502 5.57724 20.195 5.79163 20.2759C6.00602 20.3569 6.23991 20.3702 6.46203 20.3141C6.68414 20.2579 6.88391 20.135 7.03462 19.9617L10.6346 15.8255H10.6875C10.9859 15.8255 11.272 15.7065 11.483 15.4945C11.694 15.2825 11.8125 14.995 11.8125 14.6952C11.8125 14.3954 11.694 14.1078 11.483 13.8958C11.272 13.6839 10.9859 13.5648 10.6875 13.5648Z" fill="#A3A5B0"/>
<path d="M23.625 12.4344H16.3125C15.4174 12.4344 14.5589 12.7916 13.926 13.4276C13.2931 14.0636 12.9375 14.9262 12.9375 15.8256V19.2167C12.9375 20.1161 13.2931 20.9787 13.926 21.6147C14.5589 22.2506 15.4174 22.6079 16.3125 22.6079H18.0968L21.1421 25.669C21.2995 25.8272 21.5001 25.9348 21.7184 25.9784C21.9367 26.0219 22.1629 25.9994 22.3685 25.9138C22.5741 25.8281 22.7498 25.6831 22.8733 25.497C22.9968 25.311 23.0627 25.0924 23.0625 24.8687V22.6079H23.625C24.5201 22.6079 25.3786 22.2506 26.0115 21.6147C26.6444 20.9787 27 20.1161 27 19.2167V15.8256C27 14.9262 26.6444 14.0636 26.0115 13.4276C25.3786 12.7916 24.5201 12.4344 23.625 12.4344ZM24.75 19.2167C24.75 19.5165 24.6315 19.8041 24.4205 20.0161C24.2095 20.228 23.9234 20.3471 23.625 20.3471H21.9375C21.6391 20.3471 21.353 20.4662 21.142 20.6782C20.931 20.8902 20.8125 21.1777 20.8125 21.4775V22.1399L19.3579 20.6783C19.1469 20.4663 18.8608 20.3472 18.5625 20.3471H16.3125C16.0141 20.3471 15.728 20.228 15.517 20.0161C15.306 19.8041 15.1875 19.5165 15.1875 19.2167V15.8256C15.1875 15.5258 15.306 15.2382 15.517 15.0262C15.728 14.8143 16.0141 14.6952 16.3125 14.6952H23.625C23.9234 14.6952 24.2095 14.8143 24.4205 15.0262C24.6315 15.2382 24.75 15.5258 24.75 15.8256V19.2167Z" fill="#FF4D61"/>
</svg>
