<svg width="23" height="22" viewBox="0 0 23 22" fill="none" xmlns="http://www.w3.org/2000/svg">
<path d="M22.8753 11.2341C23.0062 10.8099 23.0345 10.3613 22.9581 9.92431C22.8816 9.48733 22.7025 9.07411 22.435 8.71779C22.1676 8.36147 21.8193 8.07196 21.418 7.87249C21.0167 7.67301 20.5737 7.56912 20.1244 7.56914L15.4278 7.56914C15.281 7.56919 15.1361 7.53594 15.0044 7.47198C14.8727 7.40802 14.7576 7.31504 14.668 7.20023C14.5785 7.08541 14.5168 6.95182 14.4879 6.80977C14.4589 6.66771 14.4634 6.52099 14.501 6.38091L15.3454 3.21831C15.5004 2.63667 15.4434 2.01976 15.1845 1.47534C14.9256 0.930925 14.4811 0.493599 13.9287 0.239746C13.3763 -0.0141068 12.7511 -0.0683517 12.1623 0.0864868C11.5735 0.241327 11.0585 0.595407 10.7073 1.08689L6.02026 7.64104C5.93173 7.76504 5.81429 7.86622 5.67783 7.93603C5.54138 8.00584 5.38991 8.04224 5.23622 8.04216H3.26653C3.16776 7.76643 2.9851 7.52756 2.74353 7.35821C2.50196 7.18887 2.21327 7.09733 1.91698 7.09612L0.479242 7.09612C0.35214 7.09612 0.230242 7.14596 0.140366 7.23466C0.0504913 7.32337 0 7.44369 0 7.56914V20.8137C0 20.9391 0.0504913 21.0594 0.140366 21.1481C0.230242 21.2369 0.35214 21.2867 0.479242 21.2867H1.91314C2.29445 21.2867 2.66014 21.1372 2.92977 20.8711C3.1994 20.6049 3.35087 20.244 3.35087 19.8676V19.2745C8.26025 21.7115 9.33471 22 12.6597 22C12.9961 22 14.8968 21.9811 15.5869 21.9811C18.2707 21.9811 20.0583 20.4551 21.0455 17.2906L22.8666 11.2767C22.8666 11.2625 22.8714 11.2483 22.8753 11.2341ZM21.0446 10.6731L21.0359 10.6996L19.2062 16.7542C18.4777 19.09 17.3946 20.0852 15.5869 20.0852C14.8891 20.0852 14.2767 20.0918 13.7275 20.0975C9.72577 20.141 9.33088 20.141 3.61446 17.2831C3.536 17.244 3.46992 17.1845 3.42343 17.1109C3.37695 17.0373 3.35184 16.9526 3.35087 16.8659V10.4082C3.35087 10.2827 3.40136 10.1624 3.49124 10.0737C3.58112 9.98501 3.70301 9.93518 3.83012 9.93518H5.23334C5.69385 9.93487 6.14758 9.82561 6.5565 9.61657C6.96541 9.40752 7.3176 9.10478 7.58355 8.73371L12.2648 2.17956C12.3285 2.09809 12.4096 2.0315 12.5023 1.98453C12.5951 1.93756 12.6972 1.91138 12.8014 1.90786C12.9056 1.90434 13.0093 1.92356 13.1051 1.96414C13.2009 2.00473 13.2864 2.06569 13.3556 2.14266C13.4226 2.22465 13.4693 2.32103 13.4918 2.42405C13.5142 2.52707 13.5119 2.63386 13.485 2.73583L12.6396 5.89844C12.5272 6.31846 12.514 6.75834 12.601 7.18419C12.688 7.61004 12.8729 8.01048 13.1415 8.35468C13.41 8.69888 13.755 8.97764 14.1499 9.16948C14.5448 9.36133 14.9791 9.46113 15.4192 9.46121L20.1244 9.46121C20.2732 9.46132 20.42 9.49563 20.5531 9.56142C20.6861 9.62722 20.8018 9.7227 20.891 9.84029C20.9802 9.95788 21.0404 10.0944 21.0669 10.2389C21.0934 10.3835 21.0854 10.5321 21.0436 10.6731H21.0446Z" fill="#A3A5B0"/>
</svg>
