<svg width="20" height="12" viewBox="0 0 20 12" fill="none" xmlns="http://www.w3.org/2000/svg">
<path d="M11.4208 11.4276C11.5219 11.3272 11.6073 11.216 11.6816 11.1004L19.433 3.34861C20.1889 2.59205 20.1892 1.36591 19.4327 0.608982C18.6765 -0.147583 17.45 -0.147583 16.693 0.608982L10.0174 7.28533L3.30661 0.57526C2.55076 -0.181663 1.3239 -0.181663 0.566975 0.57526C0.18923 0.953722 0.000179228 1.44913 0.000179206 1.94454C0.000179184 2.43995 0.18923 2.93643 0.567692 3.31382L8.35324 11.1004C8.4275 11.216 8.51252 11.3268 8.61404 11.4276C9.00147 11.815 9.51015 12.0009 10.0174 11.9923C10.525 12.0012 11.0344 11.815 11.4208 11.4276Z" fill="#181E39"/>
</svg>
