<svg width="16" height="18" viewBox="0 0 16 18" fill="none" xmlns="http://www.w3.org/2000/svg">
<path d="M0.609861 10.7654L7.7348 17.8903C7.88105 18.0366 8.11881 18.0366 8.26506 17.8903L15.39 10.7654C16.1565 9.99887 16.1565 8.75164 15.39 7.98514C14.6235 7.21863 13.3762 7.21863 12.6097 7.98514L9.87527 10.7196L9.87527 1.87494C9.87527 0.841456 9.03378 -3.37263e-05 8.0003 -3.3636e-05C6.96682 -3.35456e-05 6.12533 0.841456 6.12533 1.87494L6.12533 10.7196L3.39087 7.98517C2.62436 7.21867 1.37714 7.21867 0.610634 7.98517C-0.155869 8.7509 -0.155869 9.9989 0.609861 10.7654Z" fill="#FA4B5F"/>
</svg>
