<svg width="1600" height="499" viewBox="0 0 1600 499" fill="none" xmlns="http://www.w3.org/2000/svg">
<g clip-path="url(#clip0_3063_76241)">
<rect y="-67.7598" width="1600" height="566.759" fill="black"/>
<g opacity="0.1">
<path d="M1844 -661.532C1844 -683.291 1834.34 -703.922 1817.63 -717.834L1756.14 -769.023V-527.636L1479.84 -753.496C1453.11 -775.348 1414.76 -775.517 1387.83 -753.902L1059.6 -490.383C1037.09 -472.316 1024 -444.998 1024 -416.118V-6.01837C1024 31.0649 1067.06 51.4688 1095.7 27.9603L1399.2 -221.112C1421.23 -239.193 1434 -266.211 1434 -294.732V-359.397L1111.86 -99.1646V-174.108C1111.86 -191.541 1119.61 -208.069 1133.02 -219.198L1399.62 -440.568C1421.4 -458.653 1434 -485.511 1434 -513.841V-578.839L1111.86 -314.95V-389.336C1111.86 -407.028 1119.84 -423.772 1133.59 -434.894L1420.18 -666.821C1428.24 -673.343 1439.75 -673.331 1447.8 -666.792L1772.46 -402.913C1801.14 -379.602 1844 -400.037 1844 -437.023V-661.532Z" fill="#50556C"/>
<path d="M2044 -53.5324C2044 -75.2906 2034.34 -95.922 2017.63 -109.834L1956.14 -161.023V80.364L1679.84 -145.496C1653.11 -167.348 1614.76 -167.517 1587.83 -145.902L1259.6 117.617C1237.09 135.684 1224 163.002 1224 191.882V601.982C1224 639.065 1267.06 659.469 1295.7 635.96L1599.2 386.888C1621.23 368.807 1634 341.789 1634 313.268V248.603L1311.86 508.835V433.892C1311.86 416.459 1319.61 399.931 1333.02 388.802L1599.62 167.432C1621.4 149.347 1634 122.489 1634 94.1594V29.1607L1311.86 293.05V218.664C1311.86 200.972 1319.84 184.228 1333.59 173.106L1620.18 -58.8213C1628.24 -65.343 1639.75 -65.3308 1647.8 -58.7919L1972.46 205.087C2001.14 228.398 2044 207.963 2044 170.977V-53.5324Z" fill="#50556C"/>
<path d="M824 -53.5324C824 -75.2906 814.335 -95.922 797.626 -109.834L736.143 -161.023V80.364L459.84 -145.496C433.107 -167.348 394.756 -167.517 367.832 -145.902L39.5985 117.617C17.0949 135.684 4 163.002 4 191.882V601.982C4 639.065 47.0557 659.469 75.7008 635.96L379.196 386.888C401.227 368.807 414 341.789 414 313.268V248.603L91.8571 508.835V433.892C91.8571 416.459 99.6128 399.931 113.016 388.802L379.617 167.432C401.397 149.347 414 122.489 414 94.1594V29.1607L91.8571 293.05V218.664C91.8571 200.972 99.8435 184.228 113.587 173.106L400.177 -58.8213C408.236 -65.343 419.754 -65.3308 427.799 -58.7919L752.46 205.087C781.141 228.398 824 207.963 824 170.977V-53.5324Z" fill="#50556C"/>
<path d="M624 -661.532C624 -683.291 614.335 -703.922 597.626 -717.834L536.143 -769.023V-527.636L259.84 -753.496C233.107 -775.348 194.756 -775.517 167.832 -753.902L-160.402 -490.383C-182.905 -472.316 -196 -444.998 -196 -416.118V-6.01837C-196 31.0649 -152.944 51.4688 -124.299 27.9603L179.196 -221.112C201.227 -239.193 214 -266.211 214 -294.732V-359.397L-108.143 -99.1646V-174.108C-108.143 -191.541 -100.387 -208.069 -86.9841 -219.198L179.617 -440.568C201.397 -458.653 214 -485.511 214 -513.841V-578.839L-108.143 -314.95V-389.336C-108.143 -407.028 -100.156 -423.772 -86.4135 -434.894L200.177 -666.821C208.236 -673.343 219.754 -673.331 227.799 -666.792L552.46 -402.913C581.141 -379.602 624 -400.037 624 -437.023V-661.532Z" fill="#50556C"/>
<path d="M1124 354.468C1124 332.709 1114.34 312.078 1097.63 298.166L1036.14 246.977V488.364L759.84 262.504C733.107 240.652 694.756 240.483 667.832 262.098L339.598 525.617C317.095 543.684 304 571.002 304 599.882V1009.98C304 1047.06 347.056 1067.47 375.701 1043.96L679.196 794.888C701.227 776.807 714 749.789 714 721.268V656.603L391.857 916.835V841.892C391.857 824.459 399.613 807.931 413.016 796.802L679.617 575.432C701.397 557.347 714 530.489 714 502.159V437.161L391.857 701.05V626.664C391.857 608.972 399.844 592.228 413.587 581.106L700.177 349.179C708.236 342.657 719.754 342.669 727.799 349.208L1052.46 613.087C1081.14 636.398 1124 615.963 1124 578.977V354.468Z" fill="#50556C"/>
</g>
<rect opacity="0.5" width="1758" height="584" transform="matrix(-1 0 0 1 1703 -59.6133)" fill="#454A61"/>
</g>
<defs>
<clipPath id="clip0_3063_76241">
<rect width="1600" height="566.759" fill="white" transform="translate(0 -67.7598)"/>
</clipPath>
</defs>
</svg>
