<svg width="20" height="20" viewBox="0 0 20 20" fill="none" xmlns="http://www.w3.org/2000/svg">
<g clip-path="url(#clip0_3621_105842)">
<path d="M8.75129 4.16668C9.90129 4.16668 10.8346 3.23418 10.8346 2.08336C10.8346 0.9325 9.90129 0 8.75129 0C7.60047 0 6.66797 0.9325 6.66797 2.08332C6.66797 3.23418 7.60047 4.16668 8.75129 4.16668Z" fill="#A3A5B0"/>
<path d="M14.5834 14.1664H14.1667V13.7497C14.1667 13.5197 13.98 13.333 13.75 13.333C13.52 13.333 13.3334 13.5197 13.3334 13.7497V14.1664H12.9167C12.6867 14.1664 12.5 14.353 12.5 14.583V19.583C12.5 19.813 12.6867 19.9997 12.9167 19.9997H14.5834C14.8134 19.9997 15 19.813 15 19.583V14.583C15.0001 14.353 14.8134 14.1664 14.5834 14.1664Z" fill="#A3A5B0"/>
<path d="M12.4912 11.8632L11.9379 7.02398C11.8063 5.86984 10.8929 4.99984 9.81377 4.99984C9.64795 4.99984 9.49877 5.09816 9.43209 5.24984L8.73127 6.85234L8.07046 5.25652C8.00628 5.1007 7.85378 4.99902 7.68546 4.99902C6.60628 4.99902 5.69214 5.86902 5.56128 7.0232L5.0096 11.8632C4.96292 12.2682 5.08792 12.6699 5.3521 12.9649C5.57878 13.2199 5.88042 13.3674 6.20792 13.3857L6.66792 19.6132C6.68374 19.8307 6.86542 19.999 7.08374 19.999H10.4171C10.6354 19.999 10.8162 19.8307 10.8329 19.6132L11.2929 13.3857C11.6204 13.3674 11.9212 13.219 12.1487 12.9649C12.4121 12.6698 12.5371 12.2682 12.4912 11.8632Z" fill="#A3A5B0"/>
</g>
<defs>
<clipPath id="clip0_3621_105842">
<rect width="20" height="20" fill="white"/>
</clipPath>
</defs>
</svg>
