<svg width="20" height="20" viewBox="0 0 20 20" fill="none" xmlns="http://www.w3.org/2000/svg">
<g clip-path="url(#clip0_549_4724)">
<path d="M4.11758 10.0001C4.11758 9.76462 4.18824 9.52938 4.31771 9.35296L10.1999 0.529427C10.4117 0.211684 10.7647 -7.20318e-05 11.1764 -7.20678e-05L14.7058 -7.23764e-05C15.3529 -7.2433e-05 15.8824 0.529427 15.8824 1.17654C15.8824 1.41178 15.8118 1.64702 15.6823 1.82344L10.2353 10.0001L15.6823 18.1765C15.8118 18.3529 15.8824 18.5881 15.8824 18.8236C15.8824 19.4705 15.3529 20 14.7058 20L11.1764 20C10.7648 20 10.4117 19.7882 10.1999 19.4705L4.31771 10.647C4.18824 10.4705 4.11758 10.2353 4.11758 10.0001Z" fill="#E6E7EC"/>
</g>
<defs>
<clipPath id="clip0_549_4724">
<rect width="20" height="20" fill="white" transform="translate(20 20) rotate(180)"/>
</clipPath>
</defs>
</svg>
