<svg width="150" height="150" viewBox="0 0 150 150" fill="none" xmlns="http://www.w3.org/2000/svg">
<circle cx="75" cy="75" r="75" fill="#E8F7FF"/>
<g clip-path="url(#clip0_197_1080)">
<path d="M89.6021 47.8551C92.7496 47.8551 95.3013 45.3035 95.3013 42.156V22.503C95.3013 21.4404 94.3403 19.2039 92.9694 17.8329C92.0601 17.422 91.052 17.1912 89.9894 17.1912H31.9017C27.9011 17.1912 24.6582 20.4341 24.6582 24.4346V42.5433C24.6582 43.6059 24.889 44.6142 25.3 45.5232C26.6574 46.8807 28.9075 47.8551 29.9701 47.8551H89.6021Z" fill="#D3EFFD"/>
<path d="M92.9689 17.8329C93.3799 18.7422 93.6107 19.7502 93.6107 20.8128V30.4708H62.4257C56.4346 30.4708 51.5605 35.3449 51.5605 41.336V46.165H28.2798C27.2171 46.165 26.2089 45.9341 25.2998 45.5232C26.4363 48.0367 28.9638 49.7867 31.9015 49.7867H58.1796L64.211 60.6497C64.9008 61.8922 66.6875 61.8922 67.3773 60.6497L73.4087 49.7867H89.9892C93.9898 49.7867 97.2327 46.5438 97.2327 42.5432V24.4346C97.2324 21.4969 95.4824 18.9694 92.9689 17.8329V17.8329Z" fill="#B2E5FB"/>
<path d="M60.9449 26.3558C59.8941 25.1773 58.3648 24.4346 56.6616 24.4346C53.4933 24.4346 50.9248 27.0031 50.9248 30.1714C50.9248 32.0948 51.5902 33.9402 53.0481 35.858L69.3515 31.7174C69.7146 30.7134 70.3168 27.5922 67.7342 25.0097C66.977 24.6415 66.1271 24.4346 65.2285 24.4346C63.5251 24.4346 61.9955 25.177 60.9449 26.3558V26.3558Z" fill="#E279B3"/>
<path d="M67.7342 25.0098C68.1024 25.7669 68.3093 26.6168 68.3093 27.5155C68.3093 28.4818 68.1326 29.4669 67.7692 30.4709H62.4252C58.4312 30.4709 54.9357 32.6386 53.0479 35.8581C54.1583 37.3188 55.7296 38.8218 57.8208 40.4333C58.0253 40.5699 58.7267 40.8058 58.9534 40.7102C66.5811 37.4985 70.9583 30.4711 70.9583 30.4711C70.9619 30.3714 70.965 30.2719 70.965 30.1717C70.9653 27.9016 69.647 25.9401 67.7342 25.0098V25.0098Z" fill="#DE5791"/>
<path d="M58.4971 40.4313C58.2933 40.5697 58.0258 40.5697 57.8213 40.4332C58.6644 41.083 59.5897 41.7496 60.6054 42.439C60.8104 42.578 61.0801 42.578 61.2851 42.439C67.9559 37.912 70.819 34.3345 70.9588 30.4708H67.7695C66.6371 33.6007 63.6779 36.9153 58.4971 40.4313Z" fill="#C4237C"/>
<path d="M90.5728 87.2113H97.7148V78.3067L89.1757 67.8954L52.1829 63.0664H33.5911C29.5906 63.0664 26.3477 66.3093 26.3477 70.3099V77.5533L90.5728 87.2113Z" fill="#D3EFFD"/>
<path d="M91.6786 63.0664H52.1829C53.678 67.2819 57.7036 70.3099 62.4252 70.3099H89.1757L94.1725 79.3094C94.4714 79.8478 94.8546 80.3225 95.3003 80.7209V84.7965H90.5728C89.0777 80.5811 85.052 77.5531 80.3305 77.5531H26.3477V88.4183C26.3477 92.4188 29.5906 95.6617 33.5911 95.6617H47.7968L53.8281 106.525C54.518 107.767 56.3047 107.767 56.9945 106.525L63.0259 95.6617H91.6788C95.6794 95.6617 98.9223 92.4188 98.9223 88.4183V70.3096C98.9221 66.3093 95.6792 63.0664 91.6786 63.0664V63.0664Z" fill="#B2E5FB"/>
<path d="M84.4358 75.7426H40.8353C39.835 75.7426 39.0244 74.932 39.0244 73.9317C39.0244 72.9314 39.835 72.1208 40.8353 72.1208H84.4358C85.4362 72.1208 86.2467 72.9314 86.2467 73.9317C86.2467 74.932 85.4362 75.7426 84.4358 75.7426Z" fill="#607882"/>
<path d="M44.4435 124.292L51.3574 111.839H80.3471C83.272 111.839 85.6431 109.468 85.6431 106.543V86.4869C85.6431 85.4243 84.9293 83.435 83.3112 81.8168C82.4019 81.4059 81.3938 81.175 80.3312 81.175H22.2435C18.2429 81.175 15 84.4179 15 88.4185V106.527C15 107.59 15.2308 108.598 15.6418 109.507C17.2363 111.102 19.2493 111.839 20.3119 111.839H33.0918C34.3009 111.839 35.6782 112.382 36.4491 113.771L41.8052 123.417C42.4802 124.634 44.2189 124.696 44.4435 124.292V124.292Z" fill="#F5FCFF"/>
<path d="M35.4728 112.013L36.4489 113.771H22.2433C19.3056 113.771 16.7781 112.021 15.6416 109.507C16.5509 109.918 17.5589 110.149 18.6216 110.149H32.3064C33.622 110.149 34.8341 110.862 35.4728 112.013V112.013ZM83.3107 81.8169C83.7217 82.7262 83.9525 83.7342 83.9525 84.7969H69.6689C63.6778 84.7969 58.8037 89.671 58.8037 95.6621V110.149H51.7988C50.4831 110.149 49.2711 110.862 48.6324 112.013L42.7534 122.601C42.5286 123.006 42.187 123.277 41.8052 123.418L42.4803 124.634C43.1701 125.876 44.9569 125.876 45.6467 124.634L51.6781 113.771H80.331C84.3316 113.771 87.5745 110.528 87.5745 106.527V88.4186C87.5742 85.4809 85.8242 82.9534 83.3107 81.8169Z" fill="#D3EFFD"/>
<path d="M50.6181 105.2C51.1377 104.823 49.5487 99.7243 49.7471 99.1134C49.8739 98.7237 51.8209 94.3523 51.8209 94.3523C50.486 94.2091 49.2005 94.1176 48.9289 93.9203C48.3424 93.4942 46.7638 88.4185 45.6869 88.4185C44.6101 88.4185 43.0315 93.4942 42.445 93.9203C41.8585 94.3465 36.5433 94.2791 36.2106 95.3034C35.8779 96.3276 40.2174 99.3974 40.4415 100.087C40.5453 100.407 40.2341 101.661 39.9571 102.978C39.9571 102.978 44.6919 102.49 45.1 102.49C45.7422 102.49 50.0985 105.578 50.6181 105.2V105.2Z" fill="#F8E883"/>
<path d="M55.1638 95.3034C54.9851 94.7533 53.3698 94.5182 51.8211 94.3523C50.4596 95.8435 48.4409 97.5957 48.3327 97.9286C48.1632 98.4504 49.5209 102.806 49.0768 103.129C48.6328 103.451 44.9111 100.813 44.3626 100.813C44.0139 100.813 41.7706 102.159 39.9576 102.978C39.6374 104.499 39.3636 106.104 39.8308 106.443C40.702 107.076 44.9626 103.898 45.6876 103.898C46.4127 103.898 50.6731 107.076 51.5444 106.443C52.4158 105.81 50.7093 100.776 50.9333 100.087C51.1569 99.3974 55.4967 96.3278 55.1638 95.3034V95.3034Z" fill="#FFD064"/>
<path d="M106.317 131.535L113.23 119.082H127.773C130.698 119.082 133.069 116.711 133.069 113.787V93.7303C133.069 92.6677 132.355 90.6784 130.737 89.0602C129.827 88.6493 128.819 88.4185 127.757 88.4185H69.6692C65.6687 88.4185 62.4258 91.6614 62.4258 95.6619V113.771C62.4258 114.833 62.6566 115.841 63.0675 116.751C64.6621 118.345 66.675 119.082 67.7377 119.082H94.9649C96.174 119.082 97.5513 119.625 98.3222 121.014L103.678 130.661C104.353 131.877 106.092 131.94 106.317 131.535V131.535Z" fill="#F5FCFF"/>
<path d="M97.3459 119.256L98.322 121.014H69.6691C66.7314 121.014 64.2039 119.264 63.0674 116.751C63.9767 117.162 64.9847 117.392 66.0473 117.392H94.1795C95.4949 117.392 96.7072 118.106 97.3459 119.256ZM130.737 89.0603C131.147 89.9696 131.378 90.9777 131.378 92.0403V113.771C131.378 115.771 129.757 117.392 127.757 117.392H113.672C112.356 117.392 111.144 118.106 110.506 119.256L104.627 129.845C104.402 130.25 104.06 130.52 103.678 130.661L104.353 131.877C105.043 133.12 106.83 133.12 107.52 131.877L113.551 121.014H127.757C131.757 121.014 135 117.771 135 113.771V95.662C135 92.7243 133.25 90.1968 130.737 89.0603Z" fill="#D3EFFD"/>
<path d="M99.0724 77.209L105.986 64.7565H120.529C123.453 64.7565 125.824 62.3855 125.824 59.4606V39.4044C125.824 38.3418 125.111 36.3525 123.493 34.7343C122.583 34.3234 121.575 34.0925 120.513 34.0925H62.4251C58.4245 34.0925 55.1816 37.3354 55.1816 41.336V59.4446C55.1816 60.5073 55.4125 61.5156 55.8234 62.4246C57.4179 64.0191 59.4309 64.7565 60.4935 64.7565H87.7207C88.9299 64.7565 90.3071 65.2995 91.0781 66.6881L96.4344 76.3349C97.1092 77.5511 98.8476 77.6137 99.0724 77.209Z" fill="#F5FCFF"/>
<path d="M90.1027 64.9301L91.0789 66.6881H62.4259C59.4882 66.6881 56.9607 64.938 55.8242 62.4246C56.7335 62.8355 57.7416 63.0663 58.8042 63.0663H86.9363C88.2517 63.0663 89.4641 63.7798 90.1027 64.9301Z" fill="#D3EFFD"/>
<path d="M123.493 34.7344C123.904 35.6437 124.135 36.6517 124.135 37.7143V59.4447C124.135 61.4449 122.513 63.0664 120.513 63.0664H106.428C105.112 63.0664 103.9 63.7799 103.262 64.9302L97.3827 75.5189C97.158 75.9236 96.8163 76.194 96.4346 76.3352L97.1097 77.5512C97.7995 78.7937 99.5862 78.7937 100.276 77.5512L106.307 66.6882H120.513C124.513 66.6882 127.756 63.4453 127.756 59.4447V41.3361C127.756 38.3984 126.006 35.8709 123.493 34.7344V34.7344Z" fill="#D3EFFD"/>
<path d="M113.27 46.7687H69.6693C68.6689 46.7687 67.8584 45.9582 67.8584 44.9578C67.8584 43.9575 68.6689 43.147 69.6693 43.147H113.27C114.27 43.147 115.081 43.9575 115.081 44.9578C115.081 45.9582 114.27 46.7687 113.27 46.7687Z" fill="#607882"/>
<path d="M98.7829 57.6339H69.6693C68.6689 57.6339 67.8584 56.8234 67.8584 55.8231C67.8584 54.8227 68.6689 54.0122 69.6693 54.0122H98.7829C99.7832 54.0122 100.594 54.8227 100.594 55.8231C100.594 56.8234 99.7832 57.6339 98.7829 57.6339Z" fill="#607882"/>
<path d="M97.7127 112.624C104.555 107.981 107.284 103.93 107.284 99.9502C107.284 99.0518 106.794 97.4228 105.502 96.2372C104.744 95.869 103.894 95.6621 102.996 95.6621C101.293 95.6621 99.763 96.4046 98.7125 97.5833C97.6617 96.4048 96.1324 95.6621 94.4292 95.6621C91.2609 95.6621 88.6924 98.2306 88.6924 101.399C88.6924 104.788 90.7522 107.934 95.5886 111.66C95.7929 111.797 97.5091 112.762 97.7127 112.624V112.624Z" fill="#E279B3"/>
<path d="M105.502 96.2371C105.87 96.9942 106.077 97.8441 106.077 98.7428C106.077 102.722 103.107 107.015 96.2647 111.658C96.0609 111.797 95.7934 111.797 95.5889 111.66C96.432 112.31 97.3572 112.977 98.373 113.666C98.578 113.805 98.8477 113.805 99.0527 113.666C105.895 109.022 108.733 105.378 108.733 101.399C108.733 99.1289 107.415 97.1674 105.502 96.2371V96.2371Z" fill="#DE5791"/>
</g>
<defs>
<clipPath id="clip0_197_1080">
<rect width="120" height="120" fill="white" transform="translate(15 15)"/>
</clipPath>
</defs>
</svg>
