<svg width="20" height="20" viewBox="0 0 20 20" fill="none" xmlns="http://www.w3.org/2000/svg">
<path d="M5.36248 0H0.724792C0.404616 0 0.145081 0.259536 0.145081 0.579711V5.2174C0.145081 5.53757 0.404616 5.79711 0.724792 5.79711H5.36248C5.68265 5.79711 5.94219 5.53757 5.94219 5.2174V0.579711C5.94219 0.259536 5.68265 0 5.36248 0Z" fill="#181E39"/>
<path d="M12.3188 0H7.68115C7.36098 0 7.10144 0.259536 7.10144 0.579711V5.2174C7.10144 5.53757 7.36098 5.79711 7.68115 5.79711H12.3188C12.639 5.79711 12.8985 5.53757 12.8985 5.2174V0.579711C12.8985 0.259536 12.639 0 12.3188 0Z" fill="#181E39"/>
<path d="M5.36248 6.9566H0.724792C0.404616 6.9566 0.145081 7.21614 0.145081 7.53632V12.174C0.145081 12.4942 0.404616 12.7537 0.724792 12.7537H5.36248C5.68265 12.7537 5.94219 12.4942 5.94219 12.174V7.53632C5.94219 7.21614 5.68265 6.9566 5.36248 6.9566Z" fill="#181E39"/>
<path d="M12.3188 6.9566H7.68115C7.36098 6.9566 7.10144 7.21614 7.10144 7.53632V12.174C7.10144 12.4942 7.36098 12.7537 7.68115 12.7537H12.3188C12.639 12.7537 12.8985 12.4942 12.8985 12.174V7.53632C12.8985 7.21614 12.639 6.9566 12.3188 6.9566Z" fill="#181E39"/>
<path d="M19.2757 0H14.638C14.3178 0 14.0583 0.259536 14.0583 0.579711V5.2174C14.0583 5.53757 14.3178 5.79711 14.638 5.79711H19.2757C19.5959 5.79711 19.8554 5.53757 19.8554 5.2174V0.579711C19.8554 0.259536 19.5958 0 19.2757 0Z" fill="#181E39"/>
<path d="M19.2757 6.9566H14.638C14.3178 6.9566 14.0583 7.21614 14.0583 7.53632V12.174C14.0583 12.4942 14.3178 12.7537 14.638 12.7537H19.2757C19.5959 12.7537 19.8554 12.4942 19.8554 12.174V7.53632C19.8554 7.21614 19.5958 6.9566 19.2757 6.9566Z" fill="#181E39"/>
<path d="M5.36248 14.2029H0.724792C0.404616 14.2029 0.145081 14.4624 0.145081 14.7826V19.4203C0.145081 19.7404 0.404616 20 0.724792 20H5.36248C5.68265 20 5.94219 19.7404 5.94219 19.4203V14.7826C5.94219 14.4624 5.68265 14.2029 5.36248 14.2029Z" fill="#181E39"/>
<path d="M12.3188 14.2029H7.68115C7.36098 14.2029 7.10144 14.4624 7.10144 14.7826V19.4203C7.10144 19.7404 7.36098 20 7.68115 20H12.3188C12.639 20 12.8985 19.7404 12.8985 19.4203V14.7826C12.8985 14.4624 12.639 14.2029 12.3188 14.2029Z" fill="#181E39"/>
<path d="M19.2757 14.2029H14.638C14.3178 14.2029 14.0583 14.4624 14.0583 14.7826V19.4203C14.0583 19.7404 14.3178 20 14.638 20H19.2757C19.5959 20 19.8554 19.7404 19.8554 19.4203V14.7826C19.8554 14.4624 19.5958 14.2029 19.2757 14.2029Z" fill="#181E39"/>
</svg>
