<svg width="30" height="30" viewBox="0 0 30 30" fill="none" xmlns="http://www.w3.org/2000/svg">
<path d="M15.8838 0.365986C15.6494 0.131645 15.3315 0 15 0C14.6685 0 14.3506 0.131645 14.1162 0.365986L0.36599 14.1161C0.191225 14.2909 0.0722151 14.5136 0.0240048 14.7561C-0.0242055 14.9985 0.000548643 15.2498 0.0951379 15.4782C0.189727 15.7066 0.349904 15.9018 0.55542 16.0391C0.760936 16.1765 1.00256 16.2498 1.24976 16.2499H2.81228C2.89517 16.2499 2.97465 16.2828 3.03326 16.3414C3.09186 16.4 3.12479 16.4795 3.12479 16.5624V28.75C3.12479 29.0815 3.25649 29.3995 3.49091 29.6339C3.72534 29.8683 4.04328 30 4.37481 30H11.2499C11.5815 30 11.8994 29.8683 12.1338 29.6339C12.3683 29.3995 12.5 29.0815 12.5 28.75V22.4999C12.5 21.8369 12.7634 21.201 13.2322 20.7322C13.7011 20.2633 14.3369 19.9999 15 19.9999C15.6631 19.9999 16.299 20.2633 16.7678 20.7322C17.2366 21.201 17.5 21.8369 17.5 22.4999V28.75C17.5 29.0815 17.6317 29.3995 17.8662 29.6339C18.1006 29.8683 18.4185 30 18.7501 30H25.6252C25.9567 30 26.2747 29.8683 26.5091 29.6339C26.7435 29.3995 26.8752 29.0815 26.8752 28.75V16.5624C26.8752 16.4795 26.9081 16.4 26.9667 16.3414C27.0253 16.2828 27.1048 16.2499 27.1877 16.2499H28.7502C28.9974 16.2498 29.2391 16.1765 29.4446 16.0391C29.6501 15.9018 29.8103 15.7066 29.9049 15.4782C29.9995 15.2498 30.0242 14.9985 29.976 14.7561C29.9278 14.5136 29.8088 14.2909 29.634 14.1161L15.8838 0.365986ZM25.3064 13.3236C25.3437 13.3608 25.3709 13.4068 25.3856 13.4574C25.4003 13.5079 25.402 13.5613 25.3905 13.6127C25.379 13.6641 25.3548 13.7117 25.32 13.7512C25.2852 13.7907 25.2409 13.8208 25.1914 13.8386C24.9508 13.9222 24.7426 14.0793 24.5961 14.2876C24.4496 14.496 24.3723 14.7452 24.3752 14.9999V27.1875C24.3752 27.2704 24.3422 27.3498 24.2836 27.4084C24.225 27.4671 24.1455 27.5 24.0627 27.5H20.3126C20.2297 27.5 20.1502 27.4671 20.0916 27.4084C20.033 27.3498 20.0001 27.2704 20.0001 27.1875V22.4999C20.0001 21.1738 19.4733 19.9021 18.5356 18.9644C17.5979 18.0267 16.3261 17.4999 15 17.4999C13.6739 17.4999 12.4021 18.0267 11.4644 18.9644C10.5267 19.9021 9.99991 21.1738 9.99991 22.4999V27.1875C9.99991 27.2704 9.96699 27.3498 9.90838 27.4084C9.84978 27.4671 9.77029 27.5 9.68741 27.5H5.93734C5.85446 27.5 5.77497 27.4671 5.71636 27.4084C5.65776 27.3498 5.62483 27.2704 5.62483 27.1875V14.9999C5.62805 14.7451 5.55092 14.4958 5.40439 14.2873C5.25786 14.0789 5.04939 13.9219 4.80857 13.8386C4.75905 13.8208 4.71484 13.7907 4.68004 13.7512C4.64525 13.7117 4.62099 13.6641 4.60951 13.6127C4.59804 13.5613 4.59973 13.5079 4.61443 13.4574C4.62912 13.4068 4.65634 13.3608 4.69357 13.3236L14.7787 3.23851C14.8078 3.20941 14.8423 3.18632 14.8802 3.17057C14.9182 3.15481 14.9589 3.1467 15 3.1467C15.0411 3.1467 15.0818 3.15481 15.1198 3.17057C15.1577 3.18632 15.1922 3.20941 15.2213 3.23851L25.3064 13.3236Z" fill="#EFF1F3"/>
</svg>
