<svg width="48" height="42" viewBox="0 0 48 42" fill="none" xmlns="http://www.w3.org/2000/svg">
<path d="M20.2074 24.1928C20.4431 23.5821 20.561 22.9393 20.5717 22.2857C20.5717 19.4464 18.2681 17.1428 15.4289 17.1428C12.5896 17.1428 10.286 19.4464 10.286 22.2857C10.286 22.9393 10.4146 23.5821 10.6503 24.1928C8.41099 24.8035 6.85742 26.8285 6.85742 29.1428V32.5714C6.85742 33.5142 7.62885 34.2857 8.57171 34.2857H22.286C23.2288 34.2857 24.0003 33.5142 24.0003 32.5714V29.1428C24.0003 26.8285 22.4467 24.8035 20.2074 24.1928ZM15.4289 20.5714C16.3717 20.5714 17.1431 21.3428 17.1431 22.2857C17.1431 23.2285 16.3717 24 15.4289 24C14.486 24 13.7146 23.2285 13.7146 22.2857C13.7146 21.3428 14.486 20.5714 15.4289 20.5714ZM20.5717 30.8571H10.286V29.1428C10.286 28.2 11.0574 27.4285 12.0003 27.4285H18.8574C19.8003 27.4285 20.5717 28.2 20.5717 29.1428V30.8571Z" fill="#5D6174"/>
<path d="M46.2857 6.85714H32.5714V5.14286C32.5714 2.30357 30.2679 0 27.4286 0H20.5714C17.7321 0 15.4286 2.30357 15.4286 5.14286V6.85714H1.71429C0.771429 6.85714 0 7.62857 0 8.57143V39.4286C0 40.3714 0.771429 41.1429 1.71429 41.1429H46.2857C47.2286 41.1429 48 40.3714 48 39.4286V8.57143C48 7.62857 47.2286 6.85714 46.2857 6.85714ZM18.8571 5.14286C18.8571 4.2 19.6286 3.42857 20.5714 3.42857H22.2857V5.14286C22.2857 6.08571 23.0571 6.85714 24 6.85714C24.9429 6.85714 25.7143 6.08571 25.7143 5.14286V3.42857H27.4286C28.3714 3.42857 29.1429 4.2 29.1429 5.14286V8.57143C29.1429 9.51429 28.3714 10.2857 27.4286 10.2857H20.5714C19.6286 10.2857 18.8571 9.51429 18.8571 8.57143V5.14286ZM44.5714 37.7143H3.42857V10.2857H15.7179C16.4464 12.3429 18.3857 13.7143 20.5714 13.7143H27.4286C29.6143 13.7143 31.5536 12.3429 32.2821 10.2857H44.5714V37.7143Z" fill="#5D6174"/>
<path d="M29.142 17.1428C28.1992 17.1428 27.4277 17.9143 27.4277 18.8571C27.4277 19.8 28.1992 20.5714 29.142 20.5714H39.4277C40.3706 20.5714 41.142 19.8 41.142 18.8571C41.142 17.9143 40.3706 17.1428 39.4277 17.1428H29.142Z" fill="#5D6174"/>
<path d="M39.4277 24H29.142C28.1992 24 27.4277 24.7714 27.4277 25.7143C27.4277 26.6571 28.1992 27.4286 29.142 27.4286H39.4277C40.3706 27.4286 41.142 26.6571 41.142 25.7143C41.142 24.7714 40.3706 24 39.4277 24Z" fill="#5D6174"/>
<path d="M39.4277 30.8572H29.142C28.1992 30.8572 27.4277 31.6286 27.4277 32.5715C27.4277 33.5143 28.1992 34.2857 29.142 34.2857H39.4277C40.3706 34.2857 41.142 33.5143 41.142 32.5715C41.142 31.6286 40.3706 30.8572 39.4277 30.8572Z" fill="#5D6174"/>
<path d="M20.2074 24.2464C20.4431 23.6357 20.561 22.9928 20.5717 22.3393C20.5717 19.5 18.2681 17.1964 15.4289 17.1964C12.5896 17.1964 10.286 19.5 10.286 22.3393C10.286 22.9928 10.4146 23.6357 10.6503 24.2464C8.41099 24.8571 6.85742 26.8821 6.85742 29.1964V32.625C6.85742 33.5678 7.62885 34.3393 8.57171 34.3393H22.286C23.2288 34.3393 24.0003 33.5678 24.0003 32.625V29.1964C24.0003 26.8821 22.4467 24.8571 20.2074 24.2464ZM15.4289 20.625C16.3717 20.625 17.1431 21.3964 17.1431 22.3393C17.1431 23.2821 16.3717 24.0536 15.4289 24.0536C14.486 24.0536 13.7146 23.2821 13.7146 22.3393C13.7146 21.3964 14.486 20.625 15.4289 20.625ZM20.5717 30.9107H10.286V29.1964C10.286 28.2536 11.0574 27.4821 12.0003 27.4821H18.8574C19.8003 27.4821 20.5717 28.2536 20.5717 29.1964V30.9107Z" fill="#FF4D61"/>
</svg>
