<svg width="100" height="100" viewBox="0 0 100 100" fill="none" xmlns="http://www.w3.org/2000/svg">
<g clip-path="url(#clip0_1072_30988)">
<path d="M12.0833 87.9161L71.25 28.7495C63.75 21.2495 53.3333 16.6661 41.6667 16.6661C18.75 16.6661 0 35.4161 0 58.3328C0 69.9995 4.58333 80.4161 12.0833 87.9161Z" fill="#FD3C65"/>
<path d="M12.084 87.9173C19.584 95.4173 30.0007 100.001 41.6673 100.001C64.584 100.001 83.334 81.2506 83.334 58.334C83.334 46.6673 78.7506 36.2506 71.2507 28.7506L12.084 87.9173Z" fill="#FD003A"/>
<path d="M21.25 78.7495L62.5 37.4995C57.0833 32.4995 49.5833 29.1661 41.6667 29.1661C25.4167 29.1661 12.5 42.0828 12.5 58.3328C12.5 66.2495 15.8333 73.7495 21.25 78.7495Z" fill="#F0F0F0"/>
<path d="M21.25 78.7504C26.6667 84.1671 33.75 87.5004 41.6667 87.5004C57.9167 87.5004 70.8333 74.5838 70.8333 58.3338C70.8333 50.4171 67.5 42.9171 62.0833 37.9171L21.25 78.7504Z" fill="#CFD3D4"/>
<path d="M30 69.9995L53.75 46.2495C50.4167 43.3328 46.25 41.6661 41.6667 41.6661C32.5 41.6661 25 49.1661 25 58.3328C25 62.9161 26.6667 67.0828 30 69.9995Z" fill="#FD3C65"/>
<path d="M30 69.9998C32.9167 73.3331 37.0833 74.9998 41.6667 74.9998C50.8333 74.9998 58.3333 67.4998 58.3333 58.3331C58.3333 53.7498 56.6667 49.5831 53.3333 46.6665L30 69.9998Z" fill="#FD003A"/>
<path d="M38.75 61.2495L44.5833 55.4162C43.75 54.5828 42.9167 54.1662 41.6667 54.1662C39.1667 54.1662 37.5 55.8328 37.5 58.3328C37.5 59.5828 37.9167 60.4162 38.75 61.2495Z" fill="#F0F0F0"/>
<path d="M38.75 61.2507C39.5833 62.0841 40.4167 62.5007 41.6667 62.5007C44.1667 62.5007 45.8333 60.8341 45.8333 58.3341C45.8333 57.0841 45.4167 56.2507 44.5833 55.4174L38.75 61.2507Z" fill="#CFD3D4"/>
<path d="M40.0008 60L74.1675 25.8333C74.1675 25 73.3341 25 72.9175 25C72.5008 25 71.6675 25 71.2508 25.4167L40.0008 56.6667C39.2175 57.45 39.0966 59.0958 40.0008 60Z" fill="#787780"/>
<path d="M40 59.9993C40.8333 60.8326 42.0833 60.8326 42.9167 59.9993L74.1667 28.7493C75 27.9159 75 26.6659 74.1667 25.8326L40 59.9993Z" fill="#57555C"/>
<path d="M71.2507 28.75L91.2506 8.75L89.584 1.66667C89.584 0.833333 88.7507 0.416667 87.9173 0C87.084 0 86.2507 0 85.834 0.416667L71.2507 15C71.2507 15.4167 70.834 16.25 70.834 16.6667V27.0833C70.834 27.5 71.2507 28.3333 71.2507 28.75Z" fill="#FEDB41"/>
<path d="M98.3333 10.416L91.25 8.74936L71.25 28.7494C71.6667 28.7494 72.5 29.166 72.9167 29.166H83.3333C83.75 29.166 84.5833 28.7494 85 28.7494L99.5833 14.166C100 13.3327 100 12.4994 100 12.0827C99.5833 11.2494 99.1667 10.8327 98.3333 10.416Z" fill="#FCBF29"/>
</g>
<defs>
<clipPath id="clip0_1072_30988">
<rect width="100" height="100" fill="white"/>
</clipPath>
</defs>
</svg>
