<svg width="50" height="50" viewBox="0 0 50 50" fill="none" xmlns="http://www.w3.org/2000/svg">
<path d="M25 0.000488281C11.1937 0.000488281 0 11.1928 0 24.9989C0 38.8068 11.1937 49.9989 25 49.9989C38.8063 49.9989 50 38.8068 50 24.9989C50 11.1944 38.8063 0.000488281 25 0.000488281ZM25 45.3115C13.7813 45.3115 4.68758 36.2178 4.68758 24.9991C4.68758 13.7804 13.7813 4.68649 25 4.68649C36.2187 4.68649 45.3124 13.7802 45.3124 24.9989C45.3124 36.2176 36.2187 45.3115 25 45.3115ZM35.1093 23.8474L20.8015 15.8802C19.7594 15.2443 18.7342 15.7568 18.7342 17.0209V32.9911C18.7342 34.2536 19.7592 34.7693 20.8015 34.1302L35.0859 26.2803C36.411 25.5256 35.9282 24.3083 35.1093 23.8474Z" fill="white"/>
</svg>
