<svg width="100" height="100" viewBox="0 0 100 100" fill="none" xmlns="http://www.w3.org/2000/svg">
<circle cx="50" cy="50" r="50" fill="#DFEDFF"/>
<g clip-path="url(#clip0_17_412)">
<path d="M57.7196 28.0887H50.8668V20.8916H57.7196C58.508 20.8916 59.1471 21.5308 59.1471 22.3191V26.6611C59.1471 27.4496 58.5079 28.0887 57.7196 28.0887Z" fill="#78D090"/>
<path d="M50.8664 33.9158C50.3737 33.9158 49.9744 33.5164 49.9744 33.0239V20.8919C49.9744 20.3993 50.3736 20 50.8664 20C51.3592 20 51.7583 20.3994 51.7583 20.8919V33.0238C51.7584 33.5164 51.3592 33.9158 50.8664 33.9158Z" fill="#595959"/>
<path d="M26.2985 50.8396V79.9992H33.749H67.9867H75.4373V50.8396" fill="#EAB14D"/>
<path d="M67.9883 72.1248H70.3916C71.4651 72.1248 72.3361 71.2539 72.3361 70.1803V59.6487C72.3361 58.5751 71.4651 57.7042 70.3916 57.7042H67.9883" fill="#D3EFFB"/>
<path d="M70.3901 73.0169H65.9311C65.4384 73.0169 65.0391 72.6176 65.0391 72.125C65.0391 71.6324 65.4383 71.233 65.9311 71.233H70.3901C70.9704 71.233 71.4427 70.7609 71.4427 70.1804V59.6488C71.4427 59.0684 70.9704 58.5962 70.3901 58.5962H65.9311C65.4384 58.5962 65.0391 58.1968 65.0391 57.7042C65.0391 57.2115 65.4383 56.8123 65.9311 56.8123H70.3901C71.9542 56.8123 73.2266 58.0847 73.2266 59.6488V70.1804C73.2266 71.7445 71.9542 73.0169 70.3901 73.0169V73.0169Z" fill="#C32430"/>
<path d="M33.7485 57.7031H31.3454C30.2718 57.7031 29.4009 58.5741 29.4009 59.6476V70.1793C29.4009 71.2528 30.2718 72.1237 31.3454 72.1237H33.7487" fill="#D3EFFB"/>
<path d="M29.4019 71.0716C28.9093 71.0716 28.51 70.6722 28.51 70.1797V59.648C28.51 58.0839 29.7824 56.8115 31.3464 56.8115H37.2208C37.7134 56.8115 38.1127 57.2109 38.1127 57.7034C38.1127 58.196 37.7134 58.5955 37.2208 58.5955H31.3464C30.7661 58.5955 30.294 59.0676 30.294 59.648V70.1797C30.2938 70.6722 29.8946 71.0716 29.4019 71.0716V71.0716Z" fill="#C32430"/>
<path d="M33.7487 52.3413H23.5577L29.6023 35.6793H50.867H72.1329L78.1774 52.3413H67.9865" fill="#C32430"/>
<path d="M67.9866 52.3407V80.0002H33.7489V52.3407L49.6698 34.3753L50.8672 33.0241L52.0646 34.3753L67.9866 52.3407Z" fill="#F6E266"/>
<path d="M67.9866 52.3409V59.3982C67.1633 59.3982 66.3459 59.0598 65.7574 58.395L50.8672 41.5947L35.9782 58.395C35.3895 59.0598 34.5721 59.3982 33.7489 59.3982V52.3409L49.6698 34.3755C50.0438 34.2123 50.4502 34.1241 50.8672 34.1241C51.2841 34.1241 51.6917 34.2123 52.0646 34.3755L67.9866 52.3409Z" fill="#EAB14D"/>
<path d="M67.9876 55.3187C67.1648 55.3187 66.3459 54.9798 65.7573 54.3156L50.8678 37.5144L35.9783 54.3156C34.8872 55.5469 33.0044 55.6603 31.7734 54.5692C30.5422 53.4781 30.4287 51.5954 31.5197 50.3643L48.6384 31.0476C49.2038 30.4096 50.0153 30.0444 50.8677 30.0444C51.7201 30.0444 52.5316 30.4096 53.0969 31.0476L70.2157 50.3643C71.3068 51.5954 71.1931 53.4781 69.962 54.5692C69.3951 55.0717 68.69 55.3187 67.9876 55.3187Z" fill="#DA4A54"/>
<path d="M50.8665 52.1837C53.2458 52.1837 55.1746 50.2549 55.1746 47.8756C55.1746 45.4963 53.2458 43.5676 50.8665 43.5676C48.4872 43.5676 46.5585 45.4963 46.5585 47.8756C46.5585 50.2549 48.4872 52.1837 50.8665 52.1837Z" fill="#D3EFFB"/>
<path d="M50.8676 53.0759C48.0003 53.0759 45.6676 50.7432 45.6676 47.8759C45.6676 45.0087 48.0003 42.676 50.8676 42.676C53.7349 42.676 56.0676 45.0087 56.0676 47.8759C56.0676 50.7432 53.7349 53.0759 50.8676 53.0759ZM50.8676 44.4598C48.984 44.4598 47.4515 45.9923 47.4515 47.8758C47.4515 49.7594 48.9839 51.2918 50.8676 51.2918C52.7511 51.2918 54.2837 49.7594 54.2837 47.8758C54.2837 45.9923 52.7512 44.4598 50.8676 44.4598Z" fill="#DA4A54"/>
<path d="M46.5165 72.1248H41.7107C40.6367 72.1248 39.766 71.2541 39.766 70.1801V59.6489C39.766 58.5749 40.6367 57.7042 41.7107 57.7042H46.5165C47.5905 57.7042 48.4612 58.5749 48.4612 59.6489V70.1801C48.4612 71.2541 47.5905 72.1248 46.5165 72.1248Z" fill="#D3EFFB"/>
<path d="M60.0256 72.1248H55.2199C54.1458 72.1248 53.2751 71.2541 53.2751 70.1801V59.6489C53.2751 58.5749 54.1458 57.7042 55.2199 57.7042H60.0256C61.0996 57.7042 61.9703 58.5749 61.9703 59.6489V70.1801C61.9703 71.2541 61.0998 72.1248 60.0256 72.1248Z" fill="#D3EFFB"/>
<path d="M60.0236 56.8123H55.2183C53.6542 56.8123 52.3818 58.0847 52.3818 59.6488V62.7745C52.3817 62.7784 52.3812 62.7821 52.3812 62.786C52.3812 62.7899 52.3817 62.7936 52.3818 62.7975V70.1805C52.3818 71.7445 53.6542 73.0171 55.2183 73.0171H60.0236C61.5883 73.0171 62.8613 71.7446 62.8613 70.1805V59.6489C62.8613 58.0848 61.5883 56.8123 60.0236 56.8123ZM55.2183 58.5962H60.0236C60.6046 58.5962 61.0774 59.0684 61.0774 59.6488V61.894H54.1658V59.6488C54.1658 59.0685 54.638 58.5962 55.2183 58.5962V58.5962ZM60.0236 71.233H55.2183C54.638 71.233 54.1658 70.7608 54.1658 70.1804V63.6779H61.0774V70.1805C61.0774 70.7609 60.6046 71.233 60.0236 71.233Z" fill="#DA4A54"/>
<path d="M49.3517 62.7737V59.6483C49.3517 58.0841 48.0792 56.8115 46.5149 56.8115H41.7093C40.1451 56.8115 38.8726 58.0841 38.8726 59.6483V70.1795C38.8726 71.7437 40.1451 73.0162 41.7093 73.0162H46.5149C48.0792 73.0162 49.3517 71.7437 49.3517 70.1795V62.7966C49.3518 62.7928 49.3523 62.789 49.3523 62.7852C49.3523 62.7813 49.3517 62.7775 49.3517 62.7737V62.7737ZM41.7093 58.5955H46.5149C47.0954 58.5955 47.5678 59.0677 47.5678 59.6483V61.8932H40.6565V59.6483C40.6564 59.0677 41.1288 58.5955 41.7093 58.5955V58.5955ZM46.5148 71.2323H41.7092C41.1288 71.2323 40.6564 70.76 40.6564 70.1795V63.6771H47.5676V70.1795C47.5678 70.76 47.0954 71.2323 46.5148 71.2323V71.2323Z" fill="#DA4A54"/>
<path d="M45.677 74.7563C45.677 77.6516 43.3286 80.0001 40.4332 80.0001H27.0646C24.1692 80.0001 21.8208 77.6516 21.8208 74.7563C21.8208 71.8598 24.1692 69.5113 27.0646 69.5113C27.3065 69.5113 27.5435 69.5292 27.7759 69.5614C28.9805 67.5155 31.2039 66.1429 33.7488 66.1429C36.2939 66.1429 38.5172 67.5155 39.7219 69.5614C39.9543 69.5291 40.1913 69.5113 40.4332 69.5113C43.3286 69.5113 45.677 71.8598 45.677 74.7563V74.7563Z" fill="#78D090"/>
<path d="M31.3457 72.1242C31.3457 72.1242 26.762 74.5121 30.0219 80.0001H27.0646C24.1692 80.0001 21.8208 77.6516 21.8208 74.7563C21.8208 71.8598 24.1692 69.5113 27.0646 69.5113C27.3065 69.5113 27.5435 69.5292 27.7759 69.5614C28.9805 67.5155 31.2039 66.1429 33.7488 66.1429C30.8381 66.1429 29.8742 69.1252 31.3457 72.1242V72.1242Z" fill="#66B49D"/>
<path d="M51.8393 48.7671H50.8688C50.3762 48.7671 49.9769 48.3677 49.9769 47.8751V46.1653C49.9769 45.6726 50.3762 45.2733 50.8688 45.2733C51.3615 45.2733 51.7609 45.6727 51.7609 46.1653V46.9832H51.8394C52.332 46.9832 52.7313 47.3826 52.7313 47.8751C52.7312 48.3677 52.3319 48.7671 51.8393 48.7671V48.7671Z" fill="#595959"/>
</g>
<defs>
<clipPath id="clip0_17_412">
<rect width="60" height="60" fill="white" transform="translate(20 20)"/>
</clipPath>
</defs>
</svg>
