<svg width="80" height="80" viewBox="0 0 80 80" fill="none" xmlns="http://www.w3.org/2000/svg">
<g clip-path="url(#clip0_4504_128941)">
<path d="M35.6255 0L8.06433 15.9137L35.6255 31.8249V0Z" fill="url(#paint0_linear_4504_128941)"/>
<path d="M30.6803 39.9999L3.12524 24.0911V55.9098L30.6803 39.9999Z" fill="url(#paint1_linear_4504_128941)"/>
<path d="M44.3743 0V31.8213L71.9317 15.9112L44.3743 0Z" fill="url(#paint2_linear_4504_128941)"/>
<path d="M44.3759 48.1726V80.0001L71.9371 64.0863L44.3759 48.1726Z" fill="url(#paint3_linear_4504_128941)"/>
<path d="M35.6253 48.1726L8.0603 64.0838L35.6253 80.0001V48.1726Z" fill="url(#paint4_linear_4504_128941)"/>
<path d="M49.3121 39.9991L76.8746 55.9115V24.0864L49.3121 39.9991Z" fill="url(#paint5_linear_4504_128941)"/>
<path d="M30.6803 39.9998L3.12524 42.0885V55.9097L30.6803 39.9998Z" fill="url(#paint6_linear_4504_128941)"/>
<path d="M49.3121 39.9985L76.8746 55.911V42.0823L49.3121 39.9985Z" fill="url(#paint7_linear_4504_128941)"/>
</g>
<defs>
<linearGradient id="paint0_linear_4504_128941" x1="21.845" y1="-0.831362" x2="21.845" y2="64.5146" gradientUnits="userSpaceOnUse">
<stop stop-color="#29D3DA"/>
<stop offset="0.519" stop-color="#0077FF"/>
<stop offset="0.999" stop-color="#064093"/>
<stop offset="1" stop-color="#084698"/>
</linearGradient>
<linearGradient id="paint1_linear_4504_128941" x1="10.7974" y1="66.4205" x2="16.4336" y2="34.6895" gradientUnits="userSpaceOnUse">
<stop offset="0.012" stop-color="#E0B386"/>
<stop offset="0.519" stop-color="#DA498C"/>
<stop offset="1" stop-color="#961484"/>
</linearGradient>
<linearGradient id="paint2_linear_4504_128941" x1="58.1529" y1="-0.831362" x2="58.1529" y2="64.5146" gradientUnits="userSpaceOnUse">
<stop stop-color="#29D3DA"/>
<stop offset="0.519" stop-color="#0077FF"/>
<stop offset="0.999" stop-color="#064093"/>
<stop offset="1" stop-color="#084698"/>
</linearGradient>
<linearGradient id="paint3_linear_4504_128941" x1="58.1564" y1="97.9147" x2="58.1564" y2="69.8523" gradientUnits="userSpaceOnUse">
<stop stop-color="#29D3DA"/>
<stop offset="0.519" stop-color="#0077FF"/>
<stop offset="0.999" stop-color="#064093"/>
<stop offset="1" stop-color="#084698"/>
</linearGradient>
<linearGradient id="paint4_linear_4504_128941" x1="21.8429" y1="97.9147" x2="21.8429" y2="69.8523" gradientUnits="userSpaceOnUse">
<stop stop-color="#29D3DA"/>
<stop offset="0.519" stop-color="#0077FF"/>
<stop offset="0.999" stop-color="#064093"/>
<stop offset="1" stop-color="#084698"/>
</linearGradient>
<linearGradient id="paint5_linear_4504_128941" x1="60.5671" y1="62.1645" x2="66.2096" y2="30.432" gradientUnits="userSpaceOnUse">
<stop offset="0.012" stop-color="#E0B386"/>
<stop offset="0.519" stop-color="#DA498C"/>
<stop offset="1" stop-color="#961484"/>
</linearGradient>
<linearGradient id="paint6_linear_4504_128941" x1="12.8919" y1="63.6269" x2="16.5769" y2="42.8819" gradientUnits="userSpaceOnUse">
<stop offset="0.012" stop-color="#E0B386"/>
<stop offset="0.519" stop-color="#DA498C"/>
<stop offset="1" stop-color="#961484"/>
</linearGradient>
<linearGradient id="paint7_linear_4504_128941" x1="61.4603" y1="57.1518" x2="63.909" y2="43.3642" gradientUnits="userSpaceOnUse">
<stop offset="0.012" stop-color="#E0B386"/>
<stop offset="0.519" stop-color="#DA498C"/>
<stop offset="1" stop-color="#961484"/>
</linearGradient>
<clipPath id="clip0_4504_128941">
<rect width="80" height="80" fill="white"/>
</clipPath>
</defs>
</svg>
