<svg width="157" height="157" viewBox="0 0 157 157" fill="none" xmlns="http://www.w3.org/2000/svg">
<path d="M46.4326 67.8754L12.1464 132.472L43.2813 129.595L58.3506 156.995L92.6368 92.3985L46.4326 67.8754Z" fill="#E95454"/>
<path d="M50.3593 138.185C51.3213 136.119 50.3151 133.65 48.3026 132.58L46.3293 131.529C44.3561 130.405 43.6051 127.907 44.6801 125.885C45.7698 123.828 48.332 123.043 50.3887 124.132L55.9648 127.092C57.6877 128.005 59.8475 127.342 60.7359 125.61L60.8734 125.345C61.8944 123.71 61.2906 121.55 59.5922 120.652L42.913 111.802C40.8809 110.722 39.8844 108.263 40.8318 106.191C41.8773 103.988 44.5181 103.119 46.6435 104.248L62.1152 112.46C63.8381 113.373 65.9979 112.71 66.9109 110.987L66.9993 110.761L67.0238 110.712C68.0104 108.906 67.3183 106.638 65.4972 105.671L56.8189 101.067C54.7868 99.9871 53.7903 97.5279 54.7524 95.4319C55.7881 93.2525 58.4387 92.3592 60.5641 93.4881L70.1505 98.5783C71.9422 99.5306 74.0823 98.7354 75.01 96.929C75.0247 96.9045 75.0247 96.9045 75.0345 96.8799C75.0493 96.8554 75.0493 96.8554 75.0591 96.8309C76.0359 95.0491 75.4959 92.8304 73.6994 91.883L63.3571 86.3953C61.3495 85.3301 60.3531 82.8709 61.3004 80.7995C62.3459 78.5956 64.9867 77.7268 67.1121 78.8557L92.6268 92.3984L58.3406 156.995L48.8916 139.82C49.5003 139.408 50.0304 138.897 50.3593 138.185Z" fill="#ED6362"/>
<path d="M110.569 67.8754L144.855 132.472L113.72 129.595L98.6507 156.995L64.3645 92.3985L110.569 67.8754Z" fill="#ED6362"/>
<path d="M106.64 138.185C105.678 136.119 106.684 133.65 108.697 132.58L110.67 131.529C112.643 130.405 113.394 127.907 112.319 125.885C111.229 123.828 108.667 123.043 106.61 124.132L101.034 127.092C99.3114 128.005 97.1516 127.343 96.2632 125.61L96.1258 125.345C95.1048 123.71 95.7085 121.55 97.4069 120.652L114.091 111.797C116.123 110.717 117.12 108.258 116.172 106.187C115.127 103.983 112.486 103.114 110.361 104.243L94.8888 112.455C93.1659 113.368 91.0061 112.705 90.0931 110.982L90.0048 110.757L89.9802 110.707C88.9936 108.901 89.6857 106.633 91.5068 105.666L100.185 101.062C102.217 99.9823 103.214 97.5231 102.252 95.4271C101.216 93.2477 98.5653 92.3544 96.4399 93.4833L86.8437 98.5833C85.0521 99.5356 82.9119 98.7404 81.9842 96.934C81.9695 96.9095 81.9695 96.9095 81.9597 96.885C81.945 96.8604 81.9449 96.8604 81.9351 96.8359C80.9583 95.0541 81.4983 92.8354 83.2948 91.888L93.6371 86.4003C95.6447 85.3351 96.6412 82.8759 95.6938 80.8045C94.6483 78.6006 92.0075 77.7318 89.8821 78.8608L64.3674 92.4034L98.6537 157L108.103 139.825C107.499 139.408 106.969 138.897 106.64 138.185Z" fill="#E95454"/>
<path d="M78.4989 114.575C110.138 114.575 135.787 88.9268 135.787 57.2877C135.787 25.6486 110.138 0 78.4989 0C46.8598 0 21.2112 25.6486 21.2112 57.2877C21.2112 88.9268 46.8598 114.575 78.4989 114.575Z" fill="#FFCC5B"/>
<path d="M86.2706 50.7151H49.9669C47.1445 50.7151 44.8277 48.3983 44.8277 45.5759L44.8669 45.2225V45.1439C44.8277 42.1644 47.2574 39.7298 50.2418 39.7298H75.403C78.7359 39.7298 81.6811 37.2608 81.8774 33.923C82.0345 30.433 79.2513 27.4879 75.7564 27.4879H49.103C46.1628 27.4879 43.9638 25.0189 44.003 22.0737C44.003 22.0345 44.003 22.0345 44.003 21.9952C44.003 21.9559 44.003 21.9559 44.003 21.9167C43.9638 18.9764 46.1579 16.5025 49.103 16.5025H76.9934C80.287 16.5025 83.2322 14.0335 83.4285 10.735C83.5856 7.20573 80.8024 4.29987 77.3075 4.29987H56.8831C36.0561 12.8849 21.3795 33.3634 21.3795 57.2877C21.3795 81.2119 36.0561 101.686 56.888 110.261H82.8198C86.1135 110.261 89.0586 107.792 89.255 104.493C89.412 100.964 86.6289 98.063 83.134 98.063L53.6336 98.0581C50.1534 98.0581 47.3507 95.1473 47.5372 91.623C47.709 88.3244 50.6737 85.8456 53.9772 85.8456H65.4141C68.7029 85.7524 71.3584 83.0576 71.3584 79.7443C71.3584 76.3721 68.6145 73.6233 65.2374 73.6233H47.9004C45.078 73.6233 42.7612 71.3114 42.8004 68.4841V68.0521C42.6041 65.269 44.8424 62.9129 47.6255 62.9129H85.9171C89.25 62.9129 92.1952 60.4439 92.3915 57.1453C92.5486 53.621 89.7605 50.7151 86.2706 50.7151Z" fill="#FDBC4B"/>
<path d="M78.4998 98.176C55.9499 98.176 37.6067 79.8279 37.6067 57.2829C37.6067 34.7379 55.9499 16.3947 78.4998 16.3947C101.05 16.3947 119.393 34.7428 119.393 57.2878C119.393 79.8328 101.05 98.176 78.4998 98.176Z" fill="#FFDB70"/>
<path opacity="0.2" d="M119.392 57.2877C119.392 35.533 102.301 17.7395 80.8454 16.5124H77.0364C74.5232 16.5124 72.28 18.3973 72.1278 20.9105C72.01 23.6003 74.1305 25.819 76.7959 25.819L99.2967 25.8239C101.952 25.8239 104.087 28.0426 103.945 30.7325C103.813 33.2506 101.555 35.1403 99.0316 35.1403H90.3091C87.8008 35.214 85.7736 37.2657 85.7736 39.7937C85.7736 42.3657 87.8696 44.4617 90.4416 44.4617H103.665C105.82 44.4617 107.582 46.2288 107.553 48.3787V48.7027C107.7 50.8281 105.997 52.6197 103.871 52.6197H74.6705C72.1278 52.6197 69.8846 54.5046 69.7325 57.0178C69.6147 59.7076 71.7352 61.9263 74.4005 61.9263H102.085C104.24 61.9263 106.002 63.6934 106.002 65.8433L105.972 66.1133V66.1722C106.002 68.4449 104.146 70.3003 101.874 70.3003H82.6812C80.1386 70.3003 77.8954 72.1852 77.7432 74.7278C77.6254 77.3882 79.7459 79.6364 82.4112 79.6364H102.738C104.981 79.6364 106.655 81.5212 106.625 83.7645C106.625 83.7939 106.625 83.7939 106.625 83.8234C106.625 83.8528 106.625 83.8528 106.625 83.8823C106.655 86.1255 104.981 88.0104 102.738 88.0104H81.4688C78.9556 88.0104 76.7124 89.8952 76.5603 92.4084C76.4425 95.1032 78.5629 97.317 81.2283 97.317H86.8388C105.408 93.449 119.392 76.971 119.392 57.2877Z" fill="white"/>
<path d="M107.05 48.2313H87.1603L81.0099 29.3138C80.2196 26.884 76.7787 26.884 75.9885 29.3138L69.843 48.2313H49.9535C47.3962 48.2313 46.331 51.5053 48.4024 53.0073L64.4926 64.6995L58.3471 83.6171C57.5569 86.0468 60.34 88.0691 62.4114 86.5671L78.5016 74.875L94.5919 86.5671C96.6633 88.0691 99.4464 86.0468 98.6562 83.6171L92.5107 64.6995L108.601 53.0073C110.667 51.5053 109.607 48.2313 107.05 48.2313Z" fill="#EC9922"/>
</svg>
