<svg width="110" height="110" viewBox="0 0 110 110" fill="none" xmlns="http://www.w3.org/2000/svg">
<g filter="url(#filter0_d_2598_61746)">
<path d="M75.8593 90.9998C74.8595 90.9998 73.8561 90.749 72.9308 90.2411L55.7146 80.7897C55.2672 80.5445 54.7332 80.5445 54.2858 80.7897L37.069 90.2411C34.9663 91.3954 32.4572 91.223 30.5205 89.7916C28.5479 88.3344 27.5756 85.891 27.9827 83.4149L31.2706 63.3973C31.3616 62.8443 31.1882 62.2831 30.808 61.8956L16.8792 47.7197C15.1622 45.9717 14.5659 43.4141 15.3228 41.044C16.0711 38.7009 17.9985 37.0237 20.3527 36.6663L39.6013 33.7457C40.1073 33.6693 40.5474 33.3319 40.7781 32.8435L49.3871 14.631C50.4454 12.3913 52.5963 11 54.9999 11C57.4034 11 59.5543 12.3913 60.6133 14.631L69.2217 32.8435C69.4524 33.3313 69.8925 33.6693 70.3984 33.7457L89.6471 36.6663C92.0012 37.0237 93.9287 38.7009 94.677 41.044C95.4338 43.4135 94.8375 45.9717 93.1206 47.7191L79.1918 61.8956C78.8115 62.2831 78.6382 62.8443 78.7291 63.3967L82.0171 83.4143C82.4242 85.8904 81.4519 88.3338 79.4792 89.7916C78.3953 90.5929 77.1306 90.9998 75.8593 90.9998Z" fill="url(#paint0_linear_2598_61746)"/>
</g>
<defs>
<filter id="filter0_d_2598_61746" x="0" y="0" width="110" height="110" filterUnits="userSpaceOnUse" color-interpolation-filters="sRGB">
<feFlood flood-opacity="0" result="BackgroundImageFix"/>
<feColorMatrix in="SourceAlpha" type="matrix" values="0 0 0 0 0 0 0 0 0 0 0 0 0 0 0 0 0 0 127 0" result="hardAlpha"/>
<feOffset dy="4"/>
<feGaussianBlur stdDeviation="7.5"/>
<feComposite in2="hardAlpha" operator="out"/>
<feColorMatrix type="matrix" values="0 0 0 0 0 0 0 0 0 0 0 0 0 0 0 0 0 0 0.5 0"/>
<feBlend mode="normal" in2="BackgroundImageFix" result="effect1_dropShadow_2598_61746"/>
<feBlend mode="normal" in="SourceGraphic" in2="effect1_dropShadow_2598_61746" result="shape"/>
</filter>
<linearGradient id="paint0_linear_2598_61746" x1="54.9999" y1="11" x2="54.9999" y2="91" gradientUnits="userSpaceOnUse">
<stop stop-color="#FABA59"/>
<stop offset="1" stop-color="#FBE2A6"/>
</linearGradient>
</defs>
</svg>
