<svg width="150" height="150" viewBox="0 0 150 150" fill="none" xmlns="http://www.w3.org/2000/svg">
<circle cx="75" cy="75" r="75" fill="#D1EEFF"/>
<g clip-path="url(#clip0_164_2581)">
<path d="M17.3674 129.461L43.8926 64.6128L85.389 106.109L20.5405 132.634C19.0152 131.109 18.8928 130.987 17.3674 129.461V129.461ZM109.195 67.0856C106.58 67.0856 104.46 69.2054 104.46 71.8205C104.46 74.4356 106.58 76.5554 109.195 76.5554C111.81 76.5554 113.93 74.4356 113.93 71.8205C113.93 69.2057 111.81 67.0856 109.195 67.0856Z" fill="#0592FD"/>
<path d="M75.6119 96.3322L85.3888 106.109L75.8485 110.011L32.6432 92.1153L37.3935 80.5018L75.6119 96.3322ZM42.854 123.507L59.3513 116.76L27.8929 103.729L23.1426 115.343L42.854 123.507ZM127.898 17.3691C125.283 17.3691 123.163 19.489 123.163 22.104C123.163 24.7191 125.283 26.839 127.898 26.839C130.513 26.839 132.633 24.7191 132.633 22.104C132.633 19.489 130.513 17.3691 127.898 17.3691Z" fill="#FA4B5F"/>
<path d="M127.898 48.3828C125.283 48.3828 123.163 50.5026 123.163 53.1177C123.163 55.7328 125.283 57.8526 127.898 57.8526C130.513 57.8526 132.633 55.7328 132.633 53.1177C132.633 50.5028 130.513 48.3828 127.898 48.3828ZM94.043 27.927C94.043 31.4574 91.1813 34.3192 87.6509 34.3192C84.1206 34.3192 81.2588 31.4574 81.2588 27.927C81.2588 24.3967 84.1206 21.5349 87.6509 21.5349C91.1813 21.5349 94.043 24.3969 94.043 27.927Z" fill="#1AACFF"/>
<path d="M124.672 36.0977L110.438 32.2513C108.742 31.7968 106.931 32.2819 105.689 33.5238L99.667 39.5459L116.643 44.126L124.672 36.0977ZM93.4508 63.8419C95.1475 64.2965 96.9582 63.8114 98.2001 62.5694L106.23 54.54C104.987 55.7822 103.177 56.2673 101.48 55.8125L89.9697 52.7203C88.2729 52.2658 86.4623 52.7509 85.2203 53.9929L79.1982 60.0149L93.4508 63.8419ZM73.0897 84.3318C74.7238 84.7695 76.4671 84.3024 77.6634 83.1064L85.7672 75.0026C84.525 76.2448 82.7146 76.7299 81.0179 76.2751L69.3996 73.1619C67.7656 72.7242 66.0222 73.1913 64.8259 74.3873L58.7292 80.4837L73.0897 84.3318Z" fill="#FEDB41"/>
<path d="M97.6596 41.5536L105.689 33.5242C104.447 34.7664 103.962 36.5768 104.417 38.2735L107.503 49.7905C107.957 51.4872 107.472 53.2979 106.23 54.5401L98.2749 62.4952C99.4709 61.2991 99.9383 59.5555 99.5003 57.9217L96.3871 46.3035C95.9323 44.6062 96.4174 42.7956 97.6596 41.5536V41.5536ZM75.9181 66.772L79.0374 78.3841C79.4752 80.0181 79.0081 81.7615 77.812 82.9578L85.7672 75.0027C87.0094 73.7605 87.4945 71.9501 87.0397 70.2531L83.9475 58.7425C83.493 57.0458 83.9781 55.2351 85.22 53.9932L77.1906 62.0224C75.9486 63.2646 75.4635 65.075 75.9181 66.772V66.772Z" fill="#1AACFF"/>
<path d="M60.7666 30.0036C62.3788 29.3059 63.4963 27.8012 63.6982 26.0561L64.6769 17.5979L51.1304 23.4495C49.5181 24.1472 48.4007 25.652 48.1987 27.397L47.2198 35.8574L60.7666 30.0036ZM57.5369 58.7087C59.0895 58.0368 60.1655 56.588 60.3601 54.9075L61.6774 43.5229C61.4754 45.268 60.358 46.7727 58.7458 47.4704L47.7068 52.2472C46.1542 52.9191 45.0782 54.368 44.8836 56.0484L43.8926 64.6129L57.5369 58.7087Z" fill="#0592FD"/>
<path d="M61.6767 43.5236L60.3829 54.6975C60.5792 53.0175 59.8625 51.362 58.5036 50.3532L48.8463 43.1898C47.4367 42.141 46.6926 40.422 46.8929 38.6769L48.1986 27.3965C47.9961 29.142 48.7409 30.8634 50.1519 31.9093L59.7252 39.0103C61.1343 40.0567 61.8791 41.7781 61.6767 43.5236V43.5236Z" fill="#FEDB41"/>
<path d="M97.827 102.415L103.842 88.8442L95.3719 89.7339C93.6247 89.9174 92.1084 91.019 91.3939 92.6239L85.4253 106.105L93.9929 105.205C95.678 105.028 97.1402 103.964 97.827 102.415V102.415ZM132.631 85.8201L124.161 86.7098C122.414 86.8932 120.897 87.9948 120.183 89.5997L115.341 100.491C114.627 102.095 113.11 103.197 111.363 103.381L122.657 102.194C124.404 102.011 125.92 100.909 126.635 99.3043L132.631 85.8201Z" fill="#FA4B5F"/>
<path d="M111.157 90.548L118.227 100.279C119.221 101.648 120.87 102.382 122.552 102.206L111.363 103.381C109.616 103.564 107.904 102.802 106.872 101.381L99.864 91.7343C98.8315 90.3131 97.1194 89.5506 95.3722 89.734L106.665 88.5477C108.412 88.3642 110.125 89.1266 111.157 90.548V90.548Z" fill="#FEDB41"/>
<path d="M109.195 64.7182C105.279 64.7182 102.092 67.9043 102.092 71.8206C102.092 75.7368 105.279 78.9229 109.195 78.9229C113.111 78.9229 116.297 75.7368 116.297 71.8206C116.297 67.9043 113.111 64.7182 109.195 64.7182ZM109.195 74.188C107.889 74.188 106.827 73.126 106.827 71.8206C106.827 70.5152 107.889 69.4531 109.195 69.4531C110.5 69.4531 111.562 70.5152 111.562 71.8206C111.562 73.126 110.5 74.188 109.195 74.188ZM127.898 29.2064C131.814 29.2064 135 26.0203 135 22.1041C135 18.1878 131.814 15.0017 127.898 15.0017C123.981 15.0017 120.795 18.1878 120.795 22.1041C120.795 26.0203 123.981 29.2064 127.898 29.2064ZM127.898 19.7366C129.203 19.7366 130.265 20.7987 130.265 22.1041C130.265 23.4095 129.203 24.4715 127.898 24.4715C126.592 24.4715 125.53 23.4095 125.53 22.1041C125.53 20.7987 126.592 19.7366 127.898 19.7366ZM127.898 46.0153C123.981 46.0153 120.795 49.2015 120.795 53.1177C120.795 57.0339 123.981 60.2201 127.898 60.2201C131.814 60.2201 135 57.0339 135 53.1177C135 49.2015 131.814 46.0153 127.898 46.0153ZM127.898 55.4852C126.592 55.4852 125.53 54.4231 125.53 53.1177C125.53 51.8123 126.592 50.7503 127.898 50.7503C129.203 50.7503 130.265 51.8123 130.265 53.1177C130.265 54.4231 129.203 55.4852 127.898 55.4852ZM87.6509 36.6869C92.481 36.6869 96.4105 32.7574 96.4105 27.9273C96.4105 23.0972 92.481 19.1677 87.6509 19.1677C82.8209 19.1677 78.8914 23.0972 78.8914 27.9273C78.8914 32.7574 82.8206 36.6869 87.6509 36.6869ZM87.6509 23.9026C89.8702 23.9026 91.6756 25.708 91.6756 27.9273C91.6756 30.1465 89.8702 31.952 87.6509 31.952C85.4317 31.952 83.6263 30.1465 83.6263 27.9273C83.6263 25.708 85.4317 23.9026 87.6509 23.9026ZM55.2512 100.498C55.2512 101.806 54.191 102.866 52.883 102.866C51.575 102.866 50.5149 101.806 50.5149 100.498C50.5149 99.1905 51.5752 98.1301 52.883 98.1301C54.1908 98.1301 55.2512 99.1905 55.2512 100.498V100.498ZM132.383 83.4654L123.914 84.3551C121.334 84.6261 119.075 86.2668 118.019 88.6385L116 93.185L113.073 89.1563C111.548 87.0575 108.997 85.923 106.418 86.1929L95.1252 87.3793H95.1247C92.5449 87.6503 90.2864 89.291 89.231 91.6606L84.6275 101.999L68.0643 85.4358L72.3754 86.5909C74.8811 87.2623 77.5772 86.5398 79.4115 84.7057L87.4409 76.676C89.2752 74.8417 89.9978 72.1456 89.3264 69.6399L89.3261 69.6385L88.0364 64.8373L92.8383 66.1283C95.338 66.798 98.027 66.08 99.8611 64.2554C99.8653 64.2511 107.904 56.2136 107.904 56.2136C109.738 54.3793 110.461 51.683 109.789 49.1771C109.788 49.1733 109.787 49.1697 109.786 49.1662L108.499 44.3633L116.055 46.388C117.067 46.6529 117.892 46.2251 118.342 45.7753L126.372 37.7458C127.844 36.0718 126.76 34.193 125.31 33.7851L111.052 29.9647C108.546 29.2933 105.849 30.0156 104.015 31.8502L95.9855 39.8796C94.151 41.7139 93.4285 44.41 94.1001 46.9157L95.3885 51.7245L90.5821 50.4332C88.0761 49.7618 85.3801 50.4844 83.5458 52.3189L75.5163 60.3484C73.682 62.1827 72.9597 64.8787 73.6314 67.3861L74.9221 72.1909L70.012 70.8753C67.5688 70.2207 64.94 70.925 63.1516 72.7136L59.2467 76.6187L48.0302 65.4022L58.3807 60.9232C60.7612 59.8931 62.4253 57.6528 62.7236 55.0765C62.7236 55.0761 62.7238 55.0756 62.7238 55.0754L64.029 43.7954C64.3273 41.2184 63.2188 38.6566 61.136 37.1099C61.1357 37.1097 61.1352 37.1095 61.1348 37.1092L57.1418 34.1475L61.707 32.1766C64.0879 31.1463 65.752 28.9055 66.0501 26.3286L67.0288 17.8704C67.2068 15.9719 65.3434 14.7347 63.7383 15.4248L50.1903 21.2771C47.8093 22.3074 46.145 24.5482 45.847 27.1254L44.5418 38.4054C44.2435 40.9824 45.3519 43.5442 47.436 45.0918L51.4318 48.0556L46.7665 50.0743C44.4452 51.0789 42.8225 53.2635 42.5318 55.7761L41.5782 64.0175L15.1761 128.565C14.8151 129.448 15.019 130.461 15.6934 131.135L18.8663 134.308C19.5981 135.032 20.5986 135.154 21.4366 134.826L85.9724 108.429L94.2109 107.563C96.7266 107.299 98.9283 105.699 99.9569 103.389L102.027 98.7397L104.956 102.772C106.332 104.665 108.687 106.004 111.611 105.735L122.904 104.549C122.905 104.549 122.905 104.549 122.906 104.549C125.485 104.277 127.743 102.637 128.798 100.266L134.794 86.7819C135.428 85.4372 134.553 83.3333 132.383 83.4654V83.4654ZM109.826 34.5382L120.124 37.2977L115.96 41.4611L107.084 39.0827L106.703 37.6608C106.232 35.8736 107.805 34.0254 109.826 34.5382ZM99.3336 43.2277L102.456 40.105L105.215 50.4032C105.216 50.406 105.217 50.4089 105.218 50.4117C105.449 51.2862 105.195 52.2261 104.555 52.866L101.433 55.9887L98.6738 45.6903C98.4385 44.8132 98.6915 43.8697 99.3336 43.2277V43.2277ZM89.355 55.0062L96.804 57.0074L97.1858 58.4329C97.6667 60.2965 96.04 62.0378 94.0651 61.5555L86.6164 59.5532L86.234 58.1298C85.8188 56.4759 87.0638 54.5521 89.355 55.0062V55.0062ZM78.8644 63.6964L81.9878 60.5731L84.7527 70.8656C84.9875 71.7425 84.7349 72.6861 84.0929 73.3282L80.9695 76.4513L78.2046 66.1588C77.9695 65.2821 78.2223 64.3385 78.8644 63.6964V63.6964ZM66.4997 76.0614C67.0958 75.4653 67.972 75.2304 68.7866 75.4487L76.3411 77.4729L76.7233 78.895C77.2138 80.9334 75.428 82.4684 73.6008 82.0177L63.3026 79.2582L66.4997 76.0614ZM52.0693 25.6231L61.8545 21.3962L61.3467 25.784C61.2423 26.686 60.6599 27.4701 59.8284 27.83L52.7467 30.8873L51.5632 30.0095C50.0847 28.8781 50.1306 26.4955 52.0693 25.6231V25.6231ZM50.258 41.2897C49.5291 40.7482 49.141 39.8517 49.2454 38.9497L49.7533 34.5621L58.3144 40.9118C59.0424 41.4533 59.43 42.3493 59.3256 43.2506L58.8177 47.6385L50.258 41.2897ZM47.2352 56.3204C47.3323 55.4828 47.873 54.7546 48.6467 54.4198L55.8246 51.3137L57.0076 52.1911C58.4316 53.2342 58.5005 55.6303 56.4998 56.5775L46.7153 60.8115L47.2352 56.3204ZM44.7359 68.8042L65.5221 89.5905L40.4769 79.2167L44.7359 68.8042ZM21.1014 129.847L20.1547 128.9L24.4334 118.44L36.6139 123.485L21.1014 129.847ZM42.8313 120.936L26.226 114.057L29.1839 106.826L53.0899 116.729L42.8313 120.936ZM75.782 107.422L63.6308 102.389C60.7207 101.184 58.9096 105.557 61.8197 106.762L69.5655 109.972L59.3071 114.179L30.9763 102.444L33.9342 95.2122L42.1341 98.6083C45.0456 99.8136 46.8567 95.4385 43.9452 94.2333L35.727 90.8289L38.6842 83.5991L74.2708 98.3391L81.1518 105.22L75.782 107.422ZM95.6314 101.463C95.2886 102.233 94.5547 102.766 93.7161 102.854L89.2198 103.326L93.5563 93.5869C94.4476 91.6156 96.9678 91.6958 97.9484 93.1255L98.8137 94.3166L95.6314 101.463ZM111.116 101.026C110.214 101.121 109.321 100.724 108.787 99.9893C108.787 99.9893 108.787 99.9893 108.787 99.989L102.521 91.3634L106.913 90.902C107.818 90.8083 108.708 91.2046 109.242 91.9392L115.508 100.565L111.116 101.026ZM124.472 98.3413C123.43 100.368 121.127 100.173 120.08 98.8024L119.214 97.6104L122.345 90.5625C122.715 89.733 123.505 89.1589 124.408 89.0639L128.802 88.6023L124.472 98.3413Z" fill="#181E39"/>
</g>
<defs>
<clipPath id="clip0_164_2581">
<rect width="120" height="120" fill="white" transform="translate(15 15)"/>
</clipPath>
</defs>
</svg>
