<svg width="300" height="300" viewBox="0 0 300 300" fill="none" xmlns="http://www.w3.org/2000/svg">
<circle cx="150" cy="150" r="150" fill="#F7F8F9"/>
<path d="M254.167 41.6667V204.167H41.6665C38.3513 204.167 35.1719 202.85 32.8277 200.506C30.4835 198.161 29.1665 194.982 29.1665 191.667V41.6667C29.2086 38.3646 30.5391 35.2096 32.8742 32.8745C35.2094 30.5393 38.3644 29.2089 41.6665 29.1667H241.667C244.969 29.2067 248.126 30.5365 250.461 32.8721C252.797 35.2077 254.127 38.364 254.167 41.6667Z" fill="#D0E0EF"/>
<path d="M151.458 116.667L254.167 204.167H41.6667C38.4923 204.177 35.4351 202.969 33.125 200.792L131.875 116.667H151.458Z" fill="#C1D2E0"/>
<path d="M250.208 32.5416L150.292 117.667C147.88 119.705 144.824 120.823 141.667 120.823C138.509 120.823 135.453 119.705 133.042 117.667L33.125 32.5416C35.4351 30.3644 38.4923 29.1564 41.6667 29.1666H241.667C244.841 29.1564 247.898 30.3644 250.208 32.5416Z" fill="#E9F4FF"/>
<path d="M200 270.833C239.12 270.833 270.833 239.12 270.833 200C270.833 160.88 239.12 129.167 200 129.167C160.88 129.167 129.167 160.88 129.167 200C129.167 239.12 160.88 270.833 200 270.833Z" fill="#3778C6"/>
<path d="M200 150C187.709 150.017 175.854 154.556 166.694 162.751C157.534 170.946 151.709 182.224 150.329 194.438L148.779 192.888C147.993 192.129 146.941 191.709 145.848 191.718C144.756 191.728 143.711 192.166 142.938 192.938C142.166 193.711 141.727 194.756 141.718 195.848C141.708 196.941 142.128 197.993 142.887 198.779L151.221 207.113C152.002 207.894 153.062 208.332 154.167 208.332C155.271 208.332 156.331 207.894 157.112 207.113L165.446 198.779C166.205 197.993 166.625 196.941 166.615 195.848C166.606 194.756 166.168 193.711 165.395 192.938C164.622 192.166 163.577 191.728 162.485 191.718C161.392 191.709 160.34 192.129 159.554 192.888L158.883 193.558C160.408 183.966 165.243 175.211 172.548 168.811C179.854 162.411 189.169 158.771 198.879 158.521C208.588 158.272 218.078 161.429 225.703 167.445C233.327 173.461 238.605 181.957 240.621 191.458C242.636 200.959 241.262 210.866 236.737 219.459C232.212 228.053 224.821 234.792 215.847 238.506C206.873 242.22 196.881 242.675 187.607 239.792C178.332 236.91 170.359 230.872 165.071 222.725C164.772 222.266 164.386 221.871 163.934 221.562C163.483 221.253 162.975 221.035 162.439 220.922C161.904 220.809 161.351 220.803 160.813 220.904C160.275 221.004 159.763 221.21 159.304 221.508C158.846 221.807 158.45 222.193 158.141 222.645C157.832 223.096 157.614 223.604 157.501 224.14C157.388 224.675 157.382 225.228 157.483 225.766C157.583 226.304 157.789 226.816 158.087 227.275C162.813 234.536 169.345 240.444 177.041 244.421C184.738 248.398 193.336 250.306 201.993 249.96C210.649 249.614 219.067 247.024 226.421 242.445C233.776 237.865 239.814 231.454 243.944 223.838C248.075 216.223 250.156 207.665 249.983 199.003C249.81 190.342 247.39 181.874 242.959 174.429C238.529 166.984 232.24 160.818 224.709 156.536C217.178 152.253 208.663 150.001 200 150Z" fill="white"/>
<path d="M212.5 195.833H204.167V183.333C204.167 182.228 203.728 181.168 202.946 180.387C202.165 179.606 201.105 179.167 200 179.167C198.895 179.167 197.835 179.606 197.054 180.387C196.272 181.168 195.833 182.228 195.833 183.333V195.833H187.5V183.333C187.5 180.018 188.817 176.839 191.161 174.495C193.505 172.15 196.685 170.833 200 170.833C203.315 170.833 206.495 172.15 208.839 174.495C211.183 176.839 212.5 180.018 212.5 183.333V195.833Z" fill="#E9F4FF"/>
<path d="M208.333 191.667H191.667C187.064 191.667 183.333 195.398 183.333 200V216.667C183.333 221.269 187.064 225 191.667 225H208.333C212.936 225 216.667 221.269 216.667 216.667V200C216.667 195.398 212.936 191.667 208.333 191.667Z" fill="#E69B45"/>
</svg>
