<svg width="12" height="20" viewBox="0 0 12 20" fill="none" xmlns="http://www.w3.org/2000/svg">
<path d="M11.4279 8.57943C11.3274 8.47827 11.2162 8.39289 11.1007 8.31863L3.34886 0.567158C2.59229 -0.188689 1.36615 -0.189048 0.609226 0.567517C-0.147339 1.32372 -0.147339 2.55023 0.609226 3.30715L7.28558 9.98278L0.575505 16.6936C-0.181418 17.4494 -0.181418 18.6763 0.575505 19.4332C0.953967 19.811 1.44937 20 1.94478 20C2.44019 20 2.93668 19.811 3.31406 19.4325L11.1007 11.6469C11.2162 11.5727 11.327 11.4877 11.4279 11.3861C11.8153 10.9987 12.0011 10.49 11.9925 9.98278C12.0015 9.47518 11.8153 8.96578 11.4279 8.57943Z" fill="#181E39"/>
</svg>
