<svg width="541" height="541" viewBox="0 0 541 541" fill="none" xmlns="http://www.w3.org/2000/svg">
<g clip-path="url(#clip0_144_5241)">
<rect width="540.5" height="540.5" fill="#181E39"/>
<g style="mix-blend-mode:overlay" opacity="0.35">
<path d="M-23.9328 144.3C-1.42693 144.3 16.6482 161.665 16.6482 183.024C16.6482 204.319 -1.42693 221.692 -23.9328 221.692C-46.2607 221.692 -64.3722 204.319 -64.3722 183.024C-64.3722 161.665 -46.2607 144.3 -23.9328 144.3Z" fill="white"/>
</g>
<g style="mix-blend-mode:overlay" opacity="0.29">
<path d="M250.367 262.363C258.6 290.335 241.728 319.337 212.87 327.303C184.013 335.269 153.9 318.887 145.735 290.765C137.429 262.865 154.353 233.876 183.215 226.076C212.077 218.276 242.381 234.382 250.367 262.363Z" fill="white"/>
</g>
<g style="mix-blend-mode:overlay" opacity="0.29">
<path d="M501.891 296.985C510.129 324.637 493.252 353.316 464.393 361.187C435.534 369.058 405.421 352.867 397.259 325.062C388.957 297.49 405.878 268.827 434.741 261.121C463.604 253.414 493.922 269.324 501.891 296.985Z" fill="white"/>
</g>
<g style="mix-blend-mode:overlay" opacity="0.29">
<path d="M413.595 183.321C421.916 210.975 404.861 239.644 375.679 247.515C346.497 255.387 316.051 239.203 307.795 211.4C299.406 183.818 316.517 155.157 345.699 147.45C374.881 139.743 405.533 155.654 413.595 183.321Z" fill="white"/>
</g>
<g style="mix-blend-mode:overlay" opacity="0.29">
<path d="M188.693 202.67C196.93 230.319 180.058 258.987 151.197 266.861C122.335 274.736 92.2234 258.566 84.062 230.748C75.7563 203.17 92.6843 174.515 121.546 166.801C150.407 159.087 180.724 175.008 188.693 202.67Z" fill="white"/>
</g>
<g style="mix-blend-mode:overlay" opacity="0.29">
<path d="M68.9535 356.681C77.2821 384.659 60.2156 413.659 31.0351 421.626C1.85463 429.592 -28.5863 413.205 -36.842 385.085C-45.2354 357.184 -28.1243 328.188 1.05216 320.396C30.2286 312.604 60.8965 328.695 68.9535 356.681Z" fill="white"/>
</g>
<g style="mix-blend-mode:overlay" opacity="0.24">
<path d="M356.268 279.152C361.794 298.131 350.371 317.84 330.692 323.118C311.258 328.505 290.856 317.434 285.297 298.354C279.758 279.485 291.105 259.824 310.925 254.436C330.491 249.232 350.709 260.059 356.268 279.152Z" fill="white"/>
</g>
<g style="mix-blend-mode:overlay" opacity="0.24">
<path d="M439.682 312.567C445.302 331.223 433.695 350.605 413.698 355.789C393.955 361.088 373.206 350.202 367.546 331.447C361.926 312.895 373.451 293.58 393.595 288.277C413.502 283.149 434.038 293.8 439.682 312.567Z" fill="white"/>
</g>
<g style="mix-blend-mode:overlay" opacity="0.24">
<path d="M111.995 270.239C117.527 288.895 106.102 308.284 86.4109 313.471C66.9694 318.755 46.5631 307.885 41.0233 289.13C35.4916 270.583 46.8365 251.261 66.6558 245.962C86.2139 240.814 106.431 251.469 111.995 270.239Z" fill="white"/>
</g>
<g style="mix-blend-mode:overlay" opacity="0.24">
<path d="M191.807 326.312C197.338 345.291 185.91 365 166.235 370.277C146.796 375.671 126.389 364.594 120.838 345.518C115.299 326.657 126.638 307.004 146.462 301.598C166.034 296.391 186.244 307.228 191.807 326.312Z" fill="white"/>
</g>
<g style="mix-blend-mode:overlay" opacity="0.24">
<path d="M520.724 231.551C526.258 250.206 514.831 269.576 495.151 274.768C475.713 280.071 455.31 269.181 449.755 250.426C444.22 231.882 455.559 212.564 475.387 207.261C494.954 202.125 515.169 212.779 520.724 231.551Z" fill="white"/>
</g>
<g style="mix-blend-mode:overlay" opacity="0.35">
<path d="M544.435 212.019C566.928 212.019 585 194.649 585 173.288C585 151.996 566.928 134.626 544.435 134.626C522.1 134.626 503.979 151.996 503.979 173.288C504 194.637 522.1 212.019 544.435 212.019Z" fill="white"/>
</g>
<g style="mix-blend-mode:overlay" opacity="0.35">
<path d="M-27.5586 461.126C-5.05788 461.126 13.0204 443.761 13.0204 422.405C13.0204 401.05 -5.04575 383.733 -27.5586 383.733C-49.8894 383.733 -68 401.106 -68 422.405C-68 443.705 -49.8772 461.126 -27.5586 461.126Z" fill="white"/>
</g>
<g style="mix-blend-mode:overlay" opacity="0.29">
<path d="M246.739 343.504C254.972 315.853 238.1 287.184 209.243 279.309C180.385 271.434 150.273 287.628 142.108 315.428C133.802 343.007 150.714 371.668 179.576 379.374C208.437 387.08 238.766 371.167 246.739 343.504Z" fill="white"/>
</g>
<g style="mix-blend-mode:overlay" opacity="0.29">
<path d="M461.985 275.348C470.223 247.376 453.35 218.37 424.492 210.404C395.633 202.438 365.515 218.824 357.354 246.946C349.052 274.838 365.972 303.831 394.835 311.631C423.698 319.431 454.016 303.333 461.985 275.348Z" fill="white"/>
</g>
<g style="mix-blend-mode:overlay" opacity="0.29">
<path d="M297.505 145.965C305.83 117.986 288.77 88.9768 259.592 81.0129C230.415 73.049 199.964 89.4309 191.708 117.54C183.314 145.442 200.426 174.443 229.612 182.24C258.798 190.038 289.443 173.956 297.505 145.965Z" fill="white"/>
</g>
<g style="mix-blend-mode:overlay" opacity="0.29">
<path d="M408.781 422.875C417.011 394.898 400.139 365.896 371.279 357.933C342.418 349.97 312.307 366.346 304.146 394.473C295.844 422.376 312.768 451.37 341.628 459.163C370.489 466.956 400.804 450.863 408.781 422.875Z" fill="white"/>
</g>
<g style="mix-blend-mode:overlay" opacity="0.29">
<path d="M185.042 403.533C193.371 375.558 176.311 346.548 147.129 338.585C117.947 330.622 87.5045 346.998 79.2484 375.12C70.8505 403.027 87.9666 432.028 117.149 439.817C146.331 447.605 176.98 431.521 185.042 403.533Z" fill="white"/>
</g>
<g style="mix-blend-mode:overlay" opacity="0.29">
<path d="M65.3247 248.746C73.6538 220.774 56.5983 191.772 27.4119 183.802C-1.77459 175.832 -32.2135 192.222 -40.4696 220.34C-48.8636 248.24 -31.7514 277.234 -2.56901 285.029C26.6134 292.825 57.2671 276.727 65.3247 248.746Z" fill="white"/>
</g>
<g style="mix-blend-mode:overlay" opacity="0.24">
<path d="M263.153 387.952C268.684 368.971 257.256 349.259 237.575 343.982C218.14 338.591 197.732 349.665 192.177 368.744C186.658 387.615 197.985 407.263 217.81 412.657C237.379 417.874 257.594 407.039 263.153 387.952Z" fill="white"/>
</g>
<g style="mix-blend-mode:overlay" opacity="0.24">
<path d="M108.368 335.949C113.898 316.972 102.475 297.267 82.7891 291.982C63.3518 286.595 42.95 297.665 37.3954 316.744C31.8648 335.608 43.2072 355.264 63.0223 360.655C82.576 365.883 102.809 355.044 108.368 335.949Z" fill="white"/>
</g>
<g style="mix-blend-mode:overlay" opacity="0.24">
<path d="M188.174 279.563C193.717 260.909 182.288 241.524 162.611 236.337C143.171 231.03 122.766 241.923 117.21 260.677C111.671 279.22 123.011 298.54 142.841 303.843C162.414 308.979 182.626 298.325 188.174 279.563Z" fill="white"/>
</g>
<g style="mix-blend-mode:overlay" opacity="0.24">
<path d="M517.071 374.643C522.701 355.665 511.086 335.961 491.08 330.68C471.323 325.289 450.585 336.363 444.939 355.442C439.318 374.306 450.839 393.962 470.992 399.353C490.88 404.577 511.425 393.738 517.071 374.643Z" fill="white"/>
</g>
<g style="mix-blend-mode:color-dodge">
<g style="mix-blend-mode:color-dodge" opacity="0.04">
<path d="M40.9746 55.462C45.1193 46.7951 52.8198 41.8275 58.1753 44.3831C63.5308 46.9386 64.5311 56.0171 60.3769 64.7128C56.2227 73.4084 48.5316 78.3521 43.1714 75.7917C37.8111 73.2313 36.8252 64.1241 40.9746 55.462Z" fill="#0A0A0A"/>
</g>
<g style="mix-blend-mode:color-dodge" opacity="0.08">
<path d="M41.2953 55.6206C45.3059 47.2409 52.748 42.4408 57.9264 44.9102C63.1048 47.3796 64.062 56.1566 60.0562 64.5316C56.0503 72.9066 48.6034 77.7163 43.425 75.2421C38.2466 72.7678 37.2894 63.9909 41.2953 55.6206Z" fill="#141414"/>
</g>
<g style="mix-blend-mode:color-dodge" opacity="0.12">
<path d="M41.6207 55.7732C45.4877 47.6806 52.6762 43.0432 57.6727 45.4313C62.6692 47.8194 63.6025 56.2901 59.7307 64.3827C55.8588 72.4753 48.6751 77.1079 43.6738 74.7198C38.6725 72.3318 37.7536 63.8515 41.6207 55.7732Z" fill="#1D1D1D"/>
</g>
<g style="mix-blend-mode:color-dodge" opacity="0.15">
<path d="M41.9462 55.9271C45.6745 48.1264 52.6045 43.6566 57.424 45.9585C62.2434 48.2604 63.1384 56.4248 59.4053 64.2351C55.6723 72.0454 48.7375 76.4961 43.9515 74.1942C39.1656 71.8922 38.2084 63.7183 41.9462 55.9271Z" fill="#272727"/>
</g>
<g style="mix-blend-mode:color-dodge" opacity="0.19">
<path d="M42.2716 56.099C45.8658 48.5711 52.5279 44.2735 57.175 46.4798C61.8222 48.686 62.6741 56.5585 59.0894 64.072C55.5047 71.5856 48.8283 75.8879 44.186 73.6722C39.5436 71.4564 38.6869 63.5839 42.2716 56.099Z" fill="#313131"/>
</g>
<g style="mix-blend-mode:color-dodge" opacity="0.23">
<path d="M42.5923 56.2375C46.0477 49.0158 52.4561 44.881 56.9214 47.0058C61.3867 49.1307 62.2147 56.6921 58.7592 63.9185C55.3037 71.1449 48.8906 75.275 44.4301 73.1454C39.9696 71.0157 39.1368 63.4447 42.5923 56.2375Z" fill="#3B3B3B"/>
</g>
<g style="mix-blend-mode:color-dodge" opacity="0.27">
<path d="M42.9178 56.3907C46.2344 49.4563 52.3844 45.4937 56.6726 47.5324C60.9608 49.5711 61.7505 56.831 58.4338 63.756C55.1171 70.6809 48.9624 74.6578 44.679 72.6095C40.3956 70.5612 39.6011 63.3109 42.9178 56.3907Z" fill="#454545"/>
</g>
<g style="mix-blend-mode:color-dodge" opacity="0.31">
<path d="M43.2432 56.5441C46.4163 49.9016 52.3365 46.1017 56.4189 48.0543C60.5013 50.0069 61.291 56.9653 58.1083 63.6126C54.9257 70.26 49.015 74.0551 44.9278 72.0977C40.8406 70.1403 40.0605 63.1724 43.2432 56.5441Z" fill="#4E4E4E"/>
</g>
<g style="mix-blend-mode:color-dodge" opacity="0.35">
<path d="M43.5638 56.702C46.6029 50.3466 52.2408 46.7142 56.17 48.5663C60.0993 50.4184 60.8267 57.0849 57.7829 63.4403C54.739 69.7957 49.106 73.4329 45.1767 71.576C41.2474 69.7192 40.5248 63.0383 43.5638 56.702Z" fill="#585858"/>
</g>
<g style="mix-blend-mode:color-dodge" opacity="0.38">
<path d="M43.8893 56.8552C46.7896 50.7917 52.169 47.3221 55.9211 49.1024C59.6733 50.8827 60.3625 57.2381 57.4622 63.3016C54.5619 69.3651 49.1777 72.8491 45.4303 71.0449C41.683 69.2407 40.989 62.9044 43.8893 56.8552Z" fill="#626262"/>
</g>
<g style="mix-blend-mode:color-dodge" opacity="0.42">
<path d="M44.2148 57.0086C46.9762 51.2322 52.0972 47.9157 55.6675 49.629C59.2378 51.3423 59.9031 57.3723 57.1368 63.1487C54.3705 68.925 49.2496 72.2415 45.6793 70.5235C42.1089 68.8054 41.4485 62.7658 44.2148 57.0086Z" fill="#6C6C6C"/>
</g>
<g style="mix-blend-mode:color-dodge" opacity="0.46">
<path d="M44.5354 57.1664C47.1629 51.6772 52.0254 48.5522 55.4186 50.1554C58.8118 51.7586 59.4388 57.5062 56.8113 62.9954C54.1838 68.4846 49.3213 71.6097 45.9329 69.9969C42.5444 68.3841 41.9127 62.6317 44.5354 57.1664Z" fill="#767676"/>
</g>
<g style="mix-blend-mode:color-dodge" opacity="0.5">
<path d="M44.8608 57.3194C47.3495 52.1221 51.9536 49.1502 55.165 50.6768C58.3763 52.2035 58.9937 57.64 56.4859 62.8421C53.9781 68.0442 49.3931 70.9969 46.1818 69.499C42.9704 68.0011 42.3722 62.4975 44.8608 57.3194Z" fill="#7F7F7F"/>
</g>
<g style="mix-blend-mode:color-dodge" opacity="0.54">
<path d="M45.1862 57.4768C47.5314 52.5667 51.8866 49.7575 54.9161 51.2028C57.9456 52.6481 58.5151 57.7783 56.1652 62.6885C53.8153 67.5986 49.4649 70.3935 46.4306 68.953C43.3963 67.5125 42.8363 62.3583 45.1862 57.4768Z" fill="#898989"/>
</g>
<g style="mix-blend-mode:color-dodge" opacity="0.58">
<path d="M45.5069 57.6301C47.7181 53.0119 51.81 50.3558 54.6672 51.7293C57.5245 53.1028 58.0509 57.9124 55.8398 62.5306C53.6287 67.1488 49.5367 69.7762 46.6843 68.4218C43.8319 67.0675 43.2958 62.2243 45.5069 57.6301Z" fill="#939393"/>
</g>
<g style="mix-blend-mode:color-dodge" opacity="0.62">
<path d="M45.8323 57.7836C47.9046 53.4765 51.7382 50.9784 54.4135 52.2514C57.0889 53.5243 57.5914 58.0468 55.5143 62.3779C53.4372 66.709 49.6084 69.1688 46.9331 67.9006C44.2578 66.6324 43.76 62.086 45.8323 57.7836Z" fill="#9D9D9D"/>
</g>
<g style="mix-blend-mode:color-dodge" opacity="0.65">
<path d="M46.1577 57.941C48.0721 53.8971 51.6664 51.5856 54.1646 52.7772C56.6629 53.9689 57.1271 58.1803 55.1888 62.2242C53.2505 66.2681 49.6946 68.5413 47.1867 67.3736C44.6789 66.2059 44.2242 61.9514 46.1577 57.941Z" fill="#A7A7A7"/>
</g>
<g style="mix-blend-mode:color-dodge" opacity="0.69">
<path d="M46.4785 58.0949C48.2588 54.3429 51.609 52.1989 53.9158 53.3044C56.2227 54.4099 56.663 58.3198 54.873 62.067C53.0831 65.8142 49.7568 67.9487 47.4405 66.8527C45.1241 65.7568 44.6837 61.8421 46.4785 58.0949Z" fill="#B1B1B1"/>
</g>
<g style="mix-blend-mode:color-dodge" opacity="0.73">
<path d="M46.8231 58.2473C48.479 54.7872 51.542 52.806 53.6814 53.8253C55.8207 54.8447 56.2227 58.4531 54.562 61.9132C52.9012 65.3732 49.8239 67.3354 47.6846 66.3256C45.5452 65.3158 45.148 61.6787 46.8231 58.2473Z" fill="#BABABA"/>
</g>
<g style="mix-blend-mode:color-dodge" opacity="0.77">
<path d="M47.1294 58.406C48.6466 55.233 51.4368 53.4193 53.4134 54.3525C55.39 55.2857 55.7393 58.5878 54.2174 61.7608C52.6955 64.9337 49.9101 66.7235 47.9383 65.7999C45.9665 64.8763 45.6075 61.5454 47.1294 58.406Z" fill="#C4C4C4"/>
</g>
<g style="mix-blend-mode:color-dodge" opacity="0.81">
<path d="M47.45 58.5586C48.8379 55.6872 51.3792 54.0266 53.1596 54.8736C54.94 55.7207 55.2798 58.7022 53.8918 61.6071C52.5039 64.5121 49.9674 66.1153 48.187 65.273C46.4066 64.4307 46.0764 61.4109 47.45 58.5586Z" fill="#CECECE"/>
</g>
<g style="mix-blend-mode:color-dodge" opacity="0.85">
<path d="M47.7803 58.7121C49.0294 56.123 51.3123 54.6346 52.9156 55.4004C54.5189 56.1661 54.8299 58.8604 53.576 61.4543C52.3221 64.0481 50.044 65.503 48.4455 64.7516C46.847 64.0003 46.5407 61.2772 47.7803 58.7121Z" fill="#D8D8D8"/>
</g>
<g style="mix-blend-mode:color-dodge" opacity="0.88">
<path d="M48.1009 58.87C49.216 56.5776 51.2357 55.2472 52.6619 55.9268C54.0881 56.6063 54.3513 58.9944 53.2458 61.2963C52.1402 63.5983 50.111 64.8952 48.6895 64.2348C47.2681 63.5743 47.0001 61.1384 48.1009 58.87Z" fill="#E2E2E2"/>
</g>
<g style="mix-blend-mode:color-dodge" opacity="0.92">
<path d="M48.4216 59.0226C49.3788 57.0078 51.164 55.8544 52.4083 56.4478C53.6527 57.0413 53.892 59.1278 52.9204 61.1426C51.9489 63.1574 50.1733 64.282 48.9385 63.703C47.7037 63.1239 47.4644 61.0038 48.4216 59.0226Z" fill="#EBEBEB"/>
</g>
<g style="mix-blend-mode:color-dodge" opacity="0.96">
<path d="M48.7374 59.1762C49.5749 57.4534 51.0825 56.4627 52.1498 56.9748C53.217 57.4869 53.418 59.2672 52.5853 60.99C51.7525 62.7129 50.2545 63.6748 49.216 63.1771C48.1774 62.6794 47.9286 60.8847 48.7374 59.1762Z" fill="#F5F5F5"/>
</g>
<g style="mix-blend-mode:color-dodge">
<path d="M51.9105 57.5011C52.7959 57.9127 52.9634 59.4154 52.2695 60.8511C51.5755 62.2869 50.3216 63.0861 49.441 62.6649C48.5604 62.2438 48.3833 60.7506 49.0725 59.3484C49.7616 57.9462 51.0251 57.0561 51.9105 57.5011Z" fill="white"/>
</g>
</g>
<g style="mix-blend-mode:overlay" opacity="0.8">
<g style="mix-blend-mode:overlay" opacity="0.04">
<path d="M187.52 305.291L48.9624 65.3304L53.7388 56.3477L298.856 182.585L187.52 305.291Z" fill="#ACACAC"/>
</g>
<g style="mix-blend-mode:overlay" opacity="0.08">
<path d="M187.812 301.452L49.0581 65.1819L53.6622 56.4814L295.113 183.035L187.812 301.452Z" fill="#AEAEAE"/>
</g>
<g style="mix-blend-mode:overlay" opacity="0.11">
<path d="M188.099 297.62L49.1538 65.0343L53.5904 56.6162L291.375 183.485L188.099 297.62Z" fill="#B0B0B0"/>
</g>
<g style="mix-blend-mode:overlay" opacity="0.15">
<path d="M188.387 293.782L49.2495 64.8809L53.5138 56.75L287.633 183.94L188.387 293.782Z" fill="#B2B2B2"/>
</g>
<g style="mix-blend-mode:overlay" opacity="0.19">
<path d="M188.674 289.943L49.3452 64.7324L53.442 56.8838L283.89 184.389L188.674 289.943Z" fill="#B3B3B3"/>
</g>
<g style="mix-blend-mode:overlay" opacity="0.23">
<path d="M188.961 286.11L49.4362 64.5839L53.3654 57.0225L280.152 184.839L188.961 286.11Z" fill="#B5B5B5"/>
</g>
<g style="mix-blend-mode:overlay" opacity="0.27">
<path d="M189.253 282.271L49.5319 64.4353L53.2936 57.1562L276.41 185.289L189.253 282.271Z" fill="#B7B7B7"/>
</g>
<g style="mix-blend-mode:overlay" opacity="0.3">
<path d="M189.54 278.439L49.6277 64.2877L53.2171 57.291L272.672 185.744L189.54 278.439Z" fill="#B9B9B9"/>
</g>
<g style="mix-blend-mode:overlay" opacity="0.34">
<path d="M189.827 274.6L49.7234 64.1392L53.1453 57.4248L268.929 186.194L189.827 274.6Z" fill="#BBBBBB"/>
</g>
<g style="mix-blend-mode:overlay" opacity="0.38">
<path d="M190.114 270.762L49.819 63.9859L53.0686 57.5635L265.191 186.644L190.114 270.762Z" fill="#BDBDBD"/>
</g>
<g style="mix-blend-mode:overlay" opacity="0.42">
<path d="M190.401 266.929L49.9099 63.8373L52.9921 57.6973L261.449 187.093L190.401 266.929Z" fill="#BFBFBF"/>
</g>
<g style="mix-blend-mode:overlay" opacity="0.46">
<path d="M190.689 263.09L50.0057 63.6888L52.9204 57.8311L257.706 187.548L190.689 263.09Z" fill="#C1C1C1"/>
</g>
<g style="mix-blend-mode:overlay" opacity="0.49">
<path d="M190.981 259.258L50.1014 63.5412L52.8438 57.9658L253.968 187.998L190.981 259.258Z" fill="#C3C3C3"/>
</g>
<g style="mix-blend-mode:overlay" opacity="0.53">
<path d="M191.268 255.419L50.1971 63.3927L52.772 58.1045L250.226 188.448L191.268 255.419Z" fill="#C4C4C4"/>
</g>
<g style="mix-blend-mode:overlay" opacity="0.57">
<path d="M191.555 251.586L50.288 63.2441L52.6953 58.2383L246.488 188.903L191.555 251.586Z" fill="#C6C6C6"/>
</g>
<g style="mix-blend-mode:overlay" opacity="0.61">
<path d="M191.842 247.747L50.3838 63.0956L52.6236 58.3721L242.745 189.352L191.842 247.747Z" fill="#C8C8C8"/>
</g>
<g style="mix-blend-mode:overlay" opacity="0.65">
<path d="M192.129 243.909L50.4795 62.9422L52.547 58.5059L239.008 189.802L192.129 243.909Z" fill="#CACACA"/>
</g>
<g style="mix-blend-mode:overlay" opacity="0.69">
<path d="M192.421 240.076L50.5752 62.7936L52.4704 58.6396L235.265 190.252L192.421 240.076Z" fill="#CCCCCC"/>
</g>
<g style="mix-blend-mode:overlay" opacity="0.72">
<path d="M192.708 236.238L50.6661 62.6462L52.3986 58.7793L231.527 190.702L192.708 236.238Z" fill="#CECECE"/>
</g>
<g style="mix-blend-mode:overlay" opacity="0.76">
<path d="M192.995 232.405L50.7618 62.4976L52.3221 58.9131L227.784 191.157L192.995 232.405Z" fill="#D0D0D0"/>
</g>
<g style="mix-blend-mode:overlay" opacity="0.8">
<path d="M193.283 228.566L50.8577 62.349L52.2504 59.0469L224.042 191.606L193.283 228.566Z" fill="#D2D2D2"/>
</g>
<g style="mix-blend-mode:overlay" opacity="0.84">
<path d="M193.57 224.728L50.9532 62.2004L52.1737 59.1807L220.304 192.056L193.57 224.728Z" fill="#D3D3D3"/>
</g>
<g style="mix-blend-mode:overlay" opacity="0.88">
<path d="M193.857 220.895L51.0491 62.052L52.0972 59.3193L216.561 192.51L193.857 220.895Z" fill="#D5D5D5"/>
</g>
<g style="mix-blend-mode:overlay" opacity="0.91">
<path d="M194.149 217.057L51.14 61.8996L52.0254 59.4541L212.824 192.961L194.149 217.057Z" fill="#D7D7D7"/>
</g>
<g style="mix-blend-mode:overlay" opacity="0.95">
<path d="M194.436 213.224L51.2357 61.751L51.9488 59.5879L209.081 193.411L194.436 213.224Z" fill="#D9D9D9"/>
</g>
<g style="mix-blend-mode:overlay" opacity="0.99">
<path d="M51.3314 61.6025L194.723 209.385L205.338 193.86L51.877 59.7217L51.3314 61.6025Z" fill="#DBDBDB"/>
</g>
</g>
<g style="mix-blend-mode:color-dodge">
<g style="mix-blend-mode:color-dodge" opacity="0.04">
<path d="M500.602 55.2038C497.027 46.2928 489.667 40.8467 484.153 43.0481C478.64 45.2495 477.075 54.2515 480.645 63.1481C484.215 72.0447 491.595 77.5052 497.104 75.3038C502.612 73.1024 504.182 64.1196 500.602 55.2038Z" fill="#0A0A0A"/>
</g>
<g style="mix-blend-mode:color-dodge" opacity="0.08">
<path d="M500.267 55.338C496.812 46.7238 489.7 41.4595 484.373 43.5891C479.046 45.7188 477.524 54.4144 480.98 63.0382C484.435 71.6621 491.562 76.9168 496.888 74.7872C502.215 72.6575 503.732 63.9523 500.267 55.338Z" fill="#141414"/>
</g>
<g style="mix-blend-mode:color-dodge" opacity="0.12">
<path d="M499.932 55.4722C496.582 47.1547 489.734 42.0723 484.589 44.1253C479.444 46.1784 477.979 54.5773 481.315 62.9045C484.651 71.2316 491.528 76.3044 496.673 74.2466C501.818 72.1887 503.278 63.7898 499.932 55.4722Z" fill="#1D1D1D"/>
</g>
<g style="mix-blend-mode:color-dodge" opacity="0.15">
<path d="M499.602 55.6201C496.386 47.5993 489.767 42.6987 484.804 44.68C479.841 46.6613 478.429 54.7587 481.65 62.7843C484.871 70.81 491.495 75.7058 496.453 73.7197C501.411 71.7336 502.823 63.6218 499.602 55.6201Z" fill="#272727"/>
</g>
<g style="mix-blend-mode:color-dodge" opacity="0.19">
<path d="M499.267 55.7397C496.171 48.0155 489.796 43.2968 485.019 45.2111C480.243 47.1254 478.884 54.9117 481.98 62.6407C485.077 70.3696 491.466 75.0835 496.238 73.1692C501.009 71.2549 502.373 63.459 499.267 55.7397Z" fill="#313131"/>
</g>
<g style="mix-blend-mode:color-dodge" opacity="0.23">
<path d="M498.937 55.8739C495.955 48.4465 489.844 43.9096 485.235 45.7473C480.626 47.585 479.334 55.0747 482.315 62.4973C485.297 69.9199 491.409 74.4616 496.022 72.6239C500.636 70.7862 501.919 63.2774 498.937 55.8739Z" fill="#3B3B3B"/>
</g>
<g style="mix-blend-mode:color-dodge" opacity="0.27">
<path d="M498.616 56.0081C495.745 48.8774 489.877 44.5224 485.464 46.2835C481.052 48.0447 479.803 55.2376 482.665 62.3731C485.527 69.5086 491.409 73.8588 495.821 72.0881C500.234 70.3174 501.488 63.1292 498.616 56.0081Z" fill="#454545"/>
</g>
<g style="mix-blend-mode:color-dodge" opacity="0.31">
<path d="M498.267 56.142C495.529 49.3128 489.896 45.1349 485.67 46.8242C481.444 48.5136 480.243 55.405 482.985 62.239C485.728 69.073 491.361 73.2462 495.587 71.5472C499.813 69.8483 501.009 62.9617 498.267 56.142Z" fill="#4E4E4E"/>
</g>
<g style="mix-blend-mode:color-dodge" opacity="0.35">
<path d="M497.937 56.2762C495.314 49.7437 489.93 45.7477 485.886 47.3652C481.842 48.9828 480.693 55.5679 483.301 62.1052C485.91 68.6425 491.318 72.6338 495.357 71.0114C499.396 69.3891 500.564 62.7991 497.937 56.2762Z" fill="#585858"/>
</g>
<g style="mix-blend-mode:color-dodge" opacity="0.38">
<path d="M497.602 56.4096C495.103 50.1882 489.944 46.3596 486.115 47.9054C482.287 49.4512 481.162 55.73 483.665 61.9706C486.168 68.2112 491.323 72.0206 495.151 70.47C498.98 68.9195 500.11 62.631 497.602 56.4096Z" fill="#626262"/>
</g>
<g style="mix-blend-mode:color-dodge" opacity="0.42">
<path d="M497.271 56.5437C494.878 50.6046 489.992 46.9722 486.316 48.4415C482.641 49.9107 481.597 55.8976 483.986 61.8414C486.374 67.7853 491.265 71.4129 494.936 69.9293C498.607 68.4457 499.655 62.4684 497.271 56.5437Z" fill="#6C6C6C"/>
</g>
<g style="mix-blend-mode:color-dodge" opacity="0.46">
<path d="M496.936 56.6779C494.673 51.0355 490.026 47.585 486.532 48.9824C483.038 50.3799 482.052 56.0605 484.321 61.7077C486.589 67.3548 491.232 70.8005 494.721 69.3648C498.21 67.9291 499.205 62.3202 496.936 56.6779Z" fill="#767676"/>
</g>
<g style="mix-blend-mode:color-dodge" opacity="0.5">
<path d="M496.601 56.8121C494.457 51.4664 490.059 48.1978 486.747 49.5234C483.435 50.8491 482.502 56.2234 484.651 61.5739C486.8 66.9243 491.198 70.1881 494.505 68.8529C497.812 67.5177 498.75 62.1386 496.601 56.8121Z" fill="#7F7F7F"/>
</g>
<g style="mix-blend-mode:color-dodge" opacity="0.54">
<path d="M496.271 56.9463C494.247 51.8974 490.093 48.8106 486.967 50.0644C483.842 51.3183 482.957 56.3911 484.986 61.4401C487.015 66.489 491.165 69.5758 494.29 68.3123C497.415 67.0489 498.3 61.9713 496.271 56.9463Z" fill="#898989"/>
</g>
<g style="mix-blend-mode:color-dodge" opacity="0.58">
<path d="M495.936 57.0805C494.022 52.3283 490.121 49.4234 487.183 50.6054C484.244 51.7875 483.411 56.5588 485.321 61.3063C487.23 66.0537 491.136 68.9634 494.07 67.7718C497.003 66.5801 497.846 61.8088 495.936 57.0805Z" fill="#939393"/>
</g>
<g style="mix-blend-mode:color-dodge" opacity="0.62">
<path d="M495.606 57.2137C493.816 52.7582 490.155 50.0352 487.398 51.1407C484.641 52.2462 483.861 56.7208 485.656 61.1907C487.451 65.6605 491.102 68.3405 493.854 67.2446C496.606 66.1486 497.396 61.6405 495.606 57.2137Z" fill="#9D9D9D"/>
</g>
<g style="mix-blend-mode:color-dodge" opacity="0.65">
<path d="M495.266 57.3479C493.601 53.1891 490.183 50.6479 487.609 51.6816C485.034 52.7154 484.311 56.8837 485.986 61.0425C487.661 65.2013 491.064 67.7138 493.644 66.6944C496.223 65.6751 496.941 61.478 495.266 57.3479Z" fill="#A7A7A7"/>
</g>
<g style="mix-blend-mode:color-dodge" opacity="0.69">
<path d="M494.936 57.4821C493.39 53.6201 490.222 51.2607 487.829 52.2179C485.436 53.175 484.766 57.0466 486.321 60.9039C487.877 64.7612 491.035 67.0966 493.419 66.1682C495.802 65.2398 496.486 61.3107 494.936 57.4821Z" fill="#B1B1B1"/>
</g>
<g style="mix-blend-mode:color-dodge" opacity="0.73">
<path d="M494.606 57.6163C493.17 54.051 490.255 51.8735 488.044 52.7636C485.833 53.6538 485.22 57.2143 486.656 60.7749C488.092 64.3355 491.002 66.4843 493.203 65.6133C495.405 64.7423 496.037 61.1482 494.606 57.6163Z" fill="#BABABA"/>
</g>
<g style="mix-blend-mode:color-dodge" opacity="0.77">
<path d="M494.271 57.7503C492.954 54.4864 490.284 52.486 488.264 53.2996C486.244 54.1131 485.67 57.3818 486.991 60.6408C488.312 63.8999 490.973 65.8716 492.988 65.0724C495.003 64.2732 495.577 60.9854 494.271 57.7503Z" fill="#C4C4C4"/>
</g>
<g style="mix-blend-mode:color-dodge" opacity="0.81">
<path d="M493.94 57.8845C492.739 54.9173 490.317 53.0988 488.48 53.8406C486.642 54.5823 486.125 57.5447 487.326 60.5118C488.527 63.479 490.94 65.2593 492.773 64.5366C494.606 63.814 495.123 60.8181 493.94 57.8845Z" fill="#CECECE"/>
</g>
<g style="mix-blend-mode:color-dodge" opacity="0.85">
<path d="M493.605 58.0128C492.524 55.3424 490.351 53.7057 488.695 54.3757C487.039 55.0457 486.58 57.7257 487.656 60.3722C488.733 63.0187 490.906 64.641 492.552 63.9902C494.199 63.3393 494.673 60.6545 493.605 58.0128Z" fill="#D8D8D8"/>
</g>
<g style="mix-blend-mode:color-dodge" opacity="0.88">
<path d="M493.27 58.1521C492.313 55.7592 490.399 54.3235 488.91 54.9217C487.422 55.5199 487.029 57.8745 487.991 60.2434C488.953 62.6124 490.863 64.0337 492.337 63.4547C493.811 62.8756 494.218 60.4875 493.27 58.1521Z" fill="#E2E2E2"/>
</g>
<g style="mix-blend-mode:color-dodge" opacity="0.92">
<path d="M492.94 58.2861C492.098 56.2091 490.418 54.9361 489.111 55.4578C487.805 55.9794 487.47 58.0421 488.312 60.1095C489.154 62.1769 490.825 63.4164 492.107 62.9187C493.39 62.421 493.763 60.3248 492.94 58.2861Z" fill="#EBEBEB"/>
</g>
<g style="mix-blend-mode:color-dodge" opacity="0.96">
<path d="M492.605 58.4203C491.882 56.6401 490.447 55.5489 489.341 55.9988C488.236 56.4486 487.939 58.205 488.662 59.9805C489.384 61.756 490.81 62.8041 491.906 62.3733C493.002 61.9426 493.313 60.1576 492.605 58.4203Z" fill="#F5F5F5"/>
</g>
<g style="mix-blend-mode:color-dodge">
<path d="M489.557 56.5395C488.652 56.8889 488.389 58.3677 488.992 59.8465C489.595 61.3252 490.782 62.201 491.686 61.8373C492.591 61.4736 492.868 59.99 492.275 58.5543C491.681 57.1186 490.48 56.1567 489.557 56.5395Z" fill="white"/>
</g>
</g>
<g style="mix-blend-mode:overlay" opacity="0.8">
<g style="mix-blend-mode:overlay" opacity="0.04">
<path d="M338.34 295.121L235.107 165.533L487.805 55.2705L491.993 64.5404L338.34 295.121Z" fill="#ACACAC"/>
</g>
<g style="mix-blend-mode:overlay" opacity="0.08">
<path d="M338.297 291.273L238.811 166.222L487.872 55.4092L491.906 64.3872L338.297 291.273Z" fill="#AEAEAE"/>
</g>
<g style="mix-blend-mode:overlay" opacity="0.11">
<path d="M338.254 287.425L242.516 166.911L487.939 55.5479L491.825 64.2339L338.254 287.425Z" fill="#B0B0B0"/>
</g>
<g style="mix-blend-mode:overlay" opacity="0.15">
<path d="M338.211 283.582L246.22 167.605L488.001 55.6865L491.739 64.0759L338.211 283.582Z" fill="#B2B2B2"/>
</g>
<g style="mix-blend-mode:overlay" opacity="0.19">
<path d="M338.168 279.734L249.924 168.294L488.068 55.8301L491.653 63.9227L338.168 279.734Z" fill="#B3B3B3"/>
</g>
<g style="mix-blend-mode:overlay" opacity="0.23">
<path d="M338.129 275.888L253.624 168.984L488.135 55.9697L491.567 63.7704L338.129 275.888Z" fill="#B5B5B5"/>
</g>
<g style="mix-blend-mode:overlay" opacity="0.27">
<path d="M338.086 272.04L257.328 169.673L488.197 56.1084L491.485 63.6124L338.086 272.04Z" fill="#B7B7B7"/>
</g>
<g style="mix-blend-mode:overlay" opacity="0.3">
<path d="M338.043 268.192L261.032 170.362L488.264 56.2471L491.399 63.4591L338.043 268.192Z" fill="#B9B9B9"/>
</g>
<g style="mix-blend-mode:overlay" opacity="0.34">
<path d="M338.005 264.349L264.737 171.051L488.331 56.3857L491.313 63.3059L338.005 264.349Z" fill="#BBBBBB"/>
</g>
<g style="mix-blend-mode:overlay" opacity="0.38">
<path d="M337.962 260.501L268.441 171.745L488.398 56.5244L491.227 63.1478L337.962 260.501Z" fill="#BDBDBD"/>
</g>
<g style="mix-blend-mode:overlay" opacity="0.42">
<path d="M337.919 256.653L272.145 172.434L488.46 56.668L491.145 62.9947L337.919 256.653Z" fill="#BFBFBF"/>
</g>
<g style="mix-blend-mode:overlay" opacity="0.46">
<path d="M337.876 252.805L275.845 173.123L488.528 56.8066L491.059 62.8414L337.876 252.805Z" fill="#C1C1C1"/>
</g>
<g style="mix-blend-mode:overlay" opacity="0.49">
<path d="M337.832 248.962L279.549 173.812L488.594 56.9453L490.973 62.6834L337.832 248.962Z" fill="#C3C3C3"/>
</g>
<g style="mix-blend-mode:overlay" opacity="0.53">
<path d="M337.794 245.115L283.253 174.501L488.657 57.084L490.887 62.5301L337.794 245.115Z" fill="#C4C4C4"/>
</g>
<g style="mix-blend-mode:overlay" opacity="0.57">
<path d="M337.751 241.268L286.958 175.196L488.724 57.2236L490.806 62.3778L337.751 241.268Z" fill="#C6C6C6"/>
</g>
<g style="mix-blend-mode:overlay" opacity="0.61">
<path d="M337.708 237.42L290.662 175.885L488.791 57.3623L490.719 62.2198L337.708 237.42Z" fill="#C8C8C8"/>
</g>
<g style="mix-blend-mode:overlay" opacity="0.65">
<path d="M337.665 233.572L294.362 176.574L488.858 57.5059L490.634 62.0666L337.665 233.572Z" fill="#CACACA"/>
</g>
<g style="mix-blend-mode:overlay" opacity="0.69">
<path d="M337.627 229.729L298.066 177.263L488.92 57.6445L490.547 61.9134L337.627 229.729Z" fill="#CCCCCC"/>
</g>
<g style="mix-blend-mode:overlay" opacity="0.72">
<path d="M337.583 225.881L301.77 177.952L488.987 57.7832L490.466 61.7553L337.583 225.881Z" fill="#CECECE"/>
</g>
<g style="mix-blend-mode:overlay" opacity="0.76">
<path d="M337.54 222.033L305.475 178.641L489.054 57.9219L490.38 61.6021L337.54 222.033Z" fill="#D0D0D0"/>
</g>
<g style="mix-blend-mode:overlay" opacity="0.8">
<path d="M337.497 218.186L309.179 179.33L489.116 58.0605L490.294 61.4488L337.497 218.186Z" fill="#D2D2D2"/>
</g>
<g style="mix-blend-mode:overlay" opacity="0.84">
<path d="M337.459 214.338L312.883 180.024L489.183 58.1992L490.207 61.2908L337.459 214.338Z" fill="#D3D3D3"/>
</g>
<g style="mix-blend-mode:overlay" opacity="0.88">
<path d="M337.416 210.495L316.583 180.713L489.25 58.3428L490.126 61.1376L337.416 210.495Z" fill="#D5D5D5"/>
</g>
<g style="mix-blend-mode:overlay" opacity="0.91">
<path d="M337.373 206.647L320.287 181.402L489.312 58.4814L490.04 60.9844L337.373 206.647Z" fill="#D7D7D7"/>
</g>
<g style="mix-blend-mode:overlay" opacity="0.95">
<path d="M337.33 202.8L323.991 182.092L489.379 58.6211L489.954 60.8273L337.33 202.8Z" fill="#D9D9D9"/>
</g>
<g style="mix-blend-mode:overlay" opacity="0.99">
<path d="M334.918 184.175L403.042 131.941L338.586 190.356L334.918 184.175Z" fill="#DBDBDB"/>
<path d="M334.918 184.175L403.042 131.941L338.586 190.356L334.918 184.175Z" stroke="white" stroke-width="11"/>
</g>
</g>
<g style="mix-blend-mode:color-dodge">
<g style="mix-blend-mode:color-dodge" opacity="0.04">
<path d="M40.9746 55.462C45.1193 46.7951 52.8198 41.8275 58.1753 44.3831C63.5308 46.9386 64.5311 56.0171 60.3769 64.7128C56.2227 73.4084 48.5316 78.3521 43.1714 75.7917C37.8111 73.2313 36.8252 64.1241 40.9746 55.462Z" fill="#0A0A0A"/>
</g>
<g style="mix-blend-mode:color-dodge" opacity="0.08">
<path d="M41.2953 55.6206C45.3059 47.2409 52.748 42.4408 57.9264 44.9102C63.1048 47.3796 64.062 56.1566 60.0562 64.5316C56.0503 72.9066 48.6034 77.7163 43.425 75.2421C38.2466 72.7678 37.2894 63.9909 41.2953 55.6206Z" fill="#141414"/>
</g>
<g style="mix-blend-mode:color-dodge" opacity="0.12">
<path d="M41.6207 55.7732C45.4877 47.6806 52.6762 43.0432 57.6727 45.4313C62.6692 47.8194 63.6025 56.2901 59.7307 64.3827C55.8588 72.4753 48.6751 77.1079 43.6738 74.7198C38.6725 72.3318 37.7536 63.8515 41.6207 55.7732Z" fill="#1D1D1D"/>
</g>
<g style="mix-blend-mode:color-dodge" opacity="0.15">
<path d="M41.9462 55.9271C45.6745 48.1264 52.6045 43.6566 57.424 45.9585C62.2434 48.2604 63.1384 56.4248 59.4053 64.2351C55.6723 72.0454 48.7375 76.4961 43.9515 74.1942C39.1656 71.8922 38.2084 63.7183 41.9462 55.9271Z" fill="#272727"/>
</g>
<g style="mix-blend-mode:color-dodge" opacity="0.19">
<path d="M42.2716 56.099C45.8658 48.5711 52.5279 44.2735 57.175 46.4798C61.8222 48.686 62.6741 56.5585 59.0894 64.072C55.5047 71.5856 48.8283 75.8879 44.186 73.6722C39.5436 71.4564 38.6869 63.5839 42.2716 56.099Z" fill="#313131"/>
</g>
<g style="mix-blend-mode:color-dodge" opacity="0.23">
<path d="M42.5923 56.2375C46.0477 49.0158 52.4561 44.881 56.9214 47.0058C61.3867 49.1307 62.2147 56.6921 58.7592 63.9185C55.3037 71.1449 48.8906 75.275 44.4301 73.1454C39.9696 71.0157 39.1368 63.4447 42.5923 56.2375Z" fill="#3B3B3B"/>
</g>
<g style="mix-blend-mode:color-dodge" opacity="0.27">
<path d="M42.9178 56.3907C46.2344 49.4563 52.3844 45.4937 56.6726 47.5324C60.9608 49.5711 61.7505 56.831 58.4338 63.756C55.1171 70.6809 48.9624 74.6578 44.679 72.6095C40.3956 70.5612 39.6011 63.3109 42.9178 56.3907Z" fill="#454545"/>
</g>
<g style="mix-blend-mode:color-dodge" opacity="0.31">
<path d="M43.2432 56.5441C46.4163 49.9016 52.3365 46.1017 56.4189 48.0543C60.5013 50.0069 61.291 56.9653 58.1083 63.6126C54.9257 70.26 49.015 74.0551 44.9278 72.0977C40.8406 70.1403 40.0605 63.1724 43.2432 56.5441Z" fill="#4E4E4E"/>
</g>
<g style="mix-blend-mode:color-dodge" opacity="0.35">
<path d="M43.5638 56.702C46.6029 50.3466 52.2408 46.7142 56.17 48.5663C60.0993 50.4184 60.8267 57.0849 57.7829 63.4403C54.739 69.7957 49.106 73.4329 45.1767 71.576C41.2474 69.7192 40.5248 63.0383 43.5638 56.702Z" fill="#585858"/>
</g>
<g style="mix-blend-mode:color-dodge" opacity="0.38">
<path d="M43.8893 56.8552C46.7896 50.7917 52.169 47.3221 55.9211 49.1024C59.6733 50.8827 60.3625 57.2381 57.4622 63.3016C54.5619 69.3651 49.1777 72.8491 45.4303 71.0449C41.683 69.2407 40.989 62.9044 43.8893 56.8552Z" fill="#626262"/>
</g>
<g style="mix-blend-mode:color-dodge" opacity="0.42">
<path d="M44.2148 57.0086C46.9762 51.2322 52.0972 47.9157 55.6675 49.629C59.2378 51.3423 59.9031 57.3723 57.1368 63.1487C54.3705 68.925 49.2496 72.2415 45.6793 70.5235C42.1089 68.8054 41.4485 62.7658 44.2148 57.0086Z" fill="#6C6C6C"/>
</g>
<g style="mix-blend-mode:color-dodge" opacity="0.46">
<path d="M44.5354 57.1664C47.1629 51.6772 52.0254 48.5522 55.4186 50.1554C58.8118 51.7586 59.4388 57.5062 56.8113 62.9954C54.1838 68.4846 49.3213 71.6097 45.9329 69.9969C42.5444 68.3841 41.9127 62.6317 44.5354 57.1664Z" fill="#767676"/>
</g>
<g style="mix-blend-mode:color-dodge" opacity="0.5">
<path d="M44.8608 57.3194C47.3495 52.1221 51.9536 49.1502 55.165 50.6768C58.3763 52.2035 58.9937 57.64 56.4859 62.8421C53.9781 68.0442 49.3931 70.9969 46.1818 69.499C42.9704 68.0011 42.3722 62.4975 44.8608 57.3194Z" fill="#7F7F7F"/>
</g>
<g style="mix-blend-mode:color-dodge" opacity="0.54">
<path d="M45.1862 57.4768C47.5314 52.5667 51.8866 49.7575 54.9161 51.2028C57.9456 52.6481 58.5151 57.7783 56.1652 62.6885C53.8153 67.5986 49.4649 70.3935 46.4306 68.953C43.3963 67.5125 42.8363 62.3583 45.1862 57.4768Z" fill="#898989"/>
</g>
<g style="mix-blend-mode:color-dodge" opacity="0.58">
<path d="M45.5069 57.6301C47.7181 53.0119 51.81 50.3558 54.6672 51.7293C57.5245 53.1028 58.0509 57.9124 55.8398 62.5306C53.6287 67.1488 49.5367 69.7762 46.6843 68.4218C43.8319 67.0675 43.2958 62.2243 45.5069 57.6301Z" fill="#939393"/>
</g>
<g style="mix-blend-mode:color-dodge" opacity="0.62">
<path d="M45.8323 57.7836C47.9046 53.4765 51.7382 50.9784 54.4135 52.2514C57.0889 53.5243 57.5914 58.0468 55.5143 62.3779C53.4372 66.709 49.6084 69.1688 46.9331 67.9006C44.2578 66.6324 43.76 62.086 45.8323 57.7836Z" fill="#9D9D9D"/>
</g>
<g style="mix-blend-mode:color-dodge" opacity="0.65">
<path d="M46.1577 57.941C48.0721 53.8971 51.6664 51.5856 54.1646 52.7772C56.6629 53.9689 57.1271 58.1803 55.1888 62.2242C53.2505 66.2681 49.6946 68.5413 47.1867 67.3736C44.6789 66.2059 44.2242 61.9514 46.1577 57.941Z" fill="#A7A7A7"/>
</g>
<g style="mix-blend-mode:color-dodge" opacity="0.69">
<path d="M46.4785 58.0949C48.2588 54.3429 51.609 52.1989 53.9158 53.3044C56.2227 54.4099 56.663 58.3198 54.873 62.067C53.0831 65.8142 49.7568 67.9487 47.4405 66.8527C45.1241 65.7568 44.6837 61.8421 46.4785 58.0949Z" fill="#B1B1B1"/>
</g>
<g style="mix-blend-mode:color-dodge" opacity="0.73">
<path d="M46.8231 58.2473C48.479 54.7872 51.542 52.806 53.6814 53.8253C55.8207 54.8447 56.2227 58.4531 54.562 61.9132C52.9012 65.3732 49.8239 67.3354 47.6846 66.3256C45.5452 65.3158 45.148 61.6787 46.8231 58.2473Z" fill="#BABABA"/>
</g>
<g style="mix-blend-mode:color-dodge" opacity="0.77">
<path d="M47.1294 58.406C48.6466 55.233 51.4368 53.4193 53.4134 54.3525C55.39 55.2857 55.7393 58.5878 54.2174 61.7608C52.6955 64.9337 49.9101 66.7235 47.9383 65.7999C45.9665 64.8763 45.6075 61.5454 47.1294 58.406Z" fill="#C4C4C4"/>
</g>
<g style="mix-blend-mode:color-dodge" opacity="0.81">
<path d="M47.45 58.5586C48.8379 55.6872 51.3792 54.0266 53.1596 54.8736C54.94 55.7207 55.2798 58.7022 53.8918 61.6071C52.5039 64.5121 49.9674 66.1153 48.187 65.273C46.4066 64.4307 46.0764 61.4109 47.45 58.5586Z" fill="#CECECE"/>
</g>
<g style="mix-blend-mode:color-dodge" opacity="0.85">
<path d="M47.7803 58.7121C49.0294 56.123 51.3123 54.6346 52.9156 55.4004C54.5189 56.1661 54.8299 58.8604 53.576 61.4543C52.3221 64.0481 50.044 65.503 48.4455 64.7516C46.847 64.0003 46.5407 61.2772 47.7803 58.7121Z" fill="#D8D8D8"/>
</g>
<g style="mix-blend-mode:color-dodge" opacity="0.88">
<path d="M48.1009 58.87C49.216 56.5776 51.2357 55.2472 52.6619 55.9268C54.0881 56.6063 54.3513 58.9944 53.2458 61.2963C52.1402 63.5983 50.111 64.8952 48.6895 64.2348C47.2681 63.5743 47.0001 61.1384 48.1009 58.87Z" fill="#E2E2E2"/>
</g>
<g style="mix-blend-mode:color-dodge" opacity="0.92">
<path d="M48.4216 59.0226C49.3788 57.0078 51.164 55.8544 52.4083 56.4478C53.6527 57.0413 53.892 59.1278 52.9204 61.1426C51.9489 63.1574 50.1733 64.282 48.9385 63.703C47.7037 63.1239 47.4644 61.0038 48.4216 59.0226Z" fill="#EBEBEB"/>
</g>
<g style="mix-blend-mode:color-dodge" opacity="0.96">
<path d="M48.7374 59.1762C49.5749 57.4534 51.0825 56.4627 52.1498 56.9748C53.217 57.4869 53.418 59.2672 52.5853 60.99C51.7525 62.7129 50.2545 63.6748 49.216 63.1771C48.1774 62.6794 47.9286 60.8847 48.7374 59.1762Z" fill="#F5F5F5"/>
</g>
<g style="mix-blend-mode:color-dodge">
<path d="M51.9105 57.5011C52.7959 57.9127 52.9634 59.4154 52.2695 60.8511C51.5755 62.2869 50.3216 63.0861 49.441 62.6649C48.5604 62.2438 48.3833 60.7506 49.0725 59.3484C49.7616 57.9462 51.0251 57.0561 51.9105 57.5011Z" fill="white"/>
</g>
</g>
<g style="mix-blend-mode:overlay" opacity="0.8">
<g style="mix-blend-mode:overlay" opacity="0.04">
<path d="M187.52 305.291L48.9624 65.3304L53.7388 56.3477L298.856 182.585L187.52 305.291Z" fill="#ACACAC"/>
</g>
<g style="mix-blend-mode:overlay" opacity="0.08">
<path d="M187.812 301.452L49.0581 65.1819L53.6622 56.4814L295.113 183.035L187.812 301.452Z" fill="#AEAEAE"/>
</g>
<g style="mix-blend-mode:overlay" opacity="0.11">
<path d="M188.099 297.62L49.1538 65.0343L53.5904 56.6162L291.375 183.485L188.099 297.62Z" fill="#B0B0B0"/>
</g>
<g style="mix-blend-mode:overlay" opacity="0.15">
<path d="M188.387 293.782L49.2495 64.8809L53.5138 56.75L287.633 183.94L188.387 293.782Z" fill="#B2B2B2"/>
</g>
<g style="mix-blend-mode:overlay" opacity="0.19">
<path d="M188.674 289.943L49.3452 64.7324L53.442 56.8838L283.89 184.389L188.674 289.943Z" fill="#B3B3B3"/>
</g>
<g style="mix-blend-mode:overlay" opacity="0.23">
<path d="M188.961 286.11L49.4362 64.5839L53.3654 57.0225L280.152 184.839L188.961 286.11Z" fill="#B5B5B5"/>
</g>
<g style="mix-blend-mode:overlay" opacity="0.27">
<path d="M189.253 282.271L49.5319 64.4353L53.2936 57.1562L276.41 185.289L189.253 282.271Z" fill="#B7B7B7"/>
</g>
<g style="mix-blend-mode:overlay" opacity="0.3">
<path d="M189.54 278.439L49.6277 64.2877L53.2171 57.291L272.672 185.744L189.54 278.439Z" fill="#B9B9B9"/>
</g>
<g style="mix-blend-mode:overlay" opacity="0.34">
<path d="M189.827 274.6L49.7234 64.1392L53.1453 57.4248L268.929 186.194L189.827 274.6Z" fill="#BBBBBB"/>
</g>
<g style="mix-blend-mode:overlay" opacity="0.38">
<path d="M190.114 270.762L49.819 63.9859L53.0686 57.5635L265.191 186.644L190.114 270.762Z" fill="#BDBDBD"/>
</g>
<g style="mix-blend-mode:overlay" opacity="0.42">
<path d="M190.401 266.929L49.9099 63.8373L52.9921 57.6973L261.449 187.093L190.401 266.929Z" fill="#BFBFBF"/>
</g>
<g style="mix-blend-mode:overlay" opacity="0.46">
<path d="M190.689 263.09L50.0057 63.6888L52.9204 57.8311L257.706 187.548L190.689 263.09Z" fill="#C1C1C1"/>
</g>
<g style="mix-blend-mode:overlay" opacity="0.49">
<path d="M190.981 259.258L50.1014 63.5412L52.8438 57.9658L253.968 187.998L190.981 259.258Z" fill="#C3C3C3"/>
</g>
<g style="mix-blend-mode:overlay" opacity="0.53">
<path d="M191.268 255.419L50.1971 63.3927L52.772 58.1045L250.226 188.448L191.268 255.419Z" fill="#C4C4C4"/>
</g>
<g style="mix-blend-mode:overlay" opacity="0.57">
<path d="M191.555 251.586L50.288 63.2441L52.6953 58.2383L246.488 188.903L191.555 251.586Z" fill="#C6C6C6"/>
</g>
<g style="mix-blend-mode:overlay" opacity="0.61">
<path d="M191.842 247.747L50.3838 63.0956L52.6236 58.3721L242.745 189.352L191.842 247.747Z" fill="#C8C8C8"/>
</g>
<g style="mix-blend-mode:overlay" opacity="0.65">
<path d="M192.129 243.909L50.4795 62.9422L52.547 58.5059L239.008 189.802L192.129 243.909Z" fill="#CACACA"/>
</g>
<g style="mix-blend-mode:overlay" opacity="0.69">
<path d="M192.421 240.076L50.5752 62.7936L52.4704 58.6396L235.265 190.252L192.421 240.076Z" fill="#CCCCCC"/>
</g>
<g style="mix-blend-mode:overlay" opacity="0.72">
<path d="M192.708 236.238L50.6661 62.6462L52.3986 58.7793L231.527 190.702L192.708 236.238Z" fill="#CECECE"/>
</g>
<g style="mix-blend-mode:overlay" opacity="0.76">
<path d="M192.995 232.405L50.7618 62.4976L52.3221 58.9131L227.784 191.157L192.995 232.405Z" fill="#D0D0D0"/>
</g>
<g style="mix-blend-mode:overlay" opacity="0.8">
<path d="M193.283 228.566L50.8577 62.349L52.2504 59.0469L224.042 191.606L193.283 228.566Z" fill="#D2D2D2"/>
</g>
<g style="mix-blend-mode:overlay" opacity="0.84">
<path d="M193.57 224.728L50.9532 62.2004L52.1737 59.1807L220.304 192.056L193.57 224.728Z" fill="#D3D3D3"/>
</g>
<g style="mix-blend-mode:overlay" opacity="0.88">
<path d="M193.857 220.895L51.0491 62.052L52.0972 59.3193L216.561 192.51L193.857 220.895Z" fill="#D5D5D5"/>
</g>
<g style="mix-blend-mode:overlay" opacity="0.91">
<path d="M194.149 217.057L51.14 61.8996L52.0254 59.4541L212.824 192.961L194.149 217.057Z" fill="#D7D7D7"/>
</g>
<g style="mix-blend-mode:overlay" opacity="0.95">
<path d="M194.436 213.224L51.2357 61.751L51.9488 59.5879L209.081 193.411L194.436 213.224Z" fill="#D9D9D9"/>
</g>
<g style="mix-blend-mode:overlay" opacity="0.99">
<path d="M51.3314 61.6025L194.723 209.385L205.338 193.86L51.877 59.7217L51.3314 61.6025Z" fill="#DBDBDB"/>
</g>
</g>
<g style="mix-blend-mode:color-dodge">
<g style="mix-blend-mode:color-dodge" opacity="0.04">
<path d="M500.602 55.2038C497.027 46.2928 489.667 40.8467 484.153 43.0481C478.64 45.2495 477.075 54.2515 480.645 63.1481C484.215 72.0447 491.595 77.5052 497.104 75.3038C502.612 73.1024 504.182 64.1196 500.602 55.2038Z" fill="#0A0A0A"/>
</g>
<g style="mix-blend-mode:color-dodge" opacity="0.08">
<path d="M500.267 55.338C496.812 46.7238 489.7 41.4595 484.373 43.5891C479.046 45.7188 477.524 54.4144 480.98 63.0382C484.435 71.6621 491.562 76.9168 496.888 74.7872C502.215 72.6575 503.732 63.9523 500.267 55.338Z" fill="#141414"/>
</g>
<g style="mix-blend-mode:color-dodge" opacity="0.12">
<path d="M499.932 55.4722C496.582 47.1547 489.734 42.0723 484.589 44.1253C479.444 46.1784 477.979 54.5773 481.315 62.9045C484.651 71.2316 491.528 76.3044 496.673 74.2466C501.818 72.1887 503.278 63.7898 499.932 55.4722Z" fill="#1D1D1D"/>
</g>
<g style="mix-blend-mode:color-dodge" opacity="0.15">
<path d="M499.602 55.6201C496.386 47.5993 489.767 42.6987 484.804 44.68C479.841 46.6613 478.429 54.7587 481.65 62.7843C484.871 70.81 491.495 75.7058 496.453 73.7197C501.411 71.7336 502.823 63.6218 499.602 55.6201Z" fill="#272727"/>
</g>
<g style="mix-blend-mode:color-dodge" opacity="0.19">
<path d="M499.267 55.7397C496.171 48.0155 489.796 43.2968 485.019 45.2111C480.243 47.1254 478.884 54.9117 481.98 62.6407C485.077 70.3696 491.466 75.0835 496.238 73.1692C501.009 71.2549 502.373 63.459 499.267 55.7397Z" fill="#313131"/>
</g>
<g style="mix-blend-mode:color-dodge" opacity="0.23">
<path d="M498.937 55.8739C495.955 48.4465 489.844 43.9096 485.235 45.7473C480.626 47.585 479.334 55.0747 482.315 62.4973C485.297 69.9199 491.409 74.4616 496.022 72.6239C500.636 70.7862 501.919 63.2774 498.937 55.8739Z" fill="#3B3B3B"/>
</g>
<g style="mix-blend-mode:color-dodge" opacity="0.27">
<path d="M498.616 56.0081C495.745 48.8774 489.877 44.5224 485.464 46.2835C481.052 48.0447 479.803 55.2376 482.665 62.3731C485.527 69.5086 491.409 73.8588 495.821 72.0881C500.234 70.3174 501.488 63.1292 498.616 56.0081Z" fill="#454545"/>
</g>
<g style="mix-blend-mode:color-dodge" opacity="0.31">
<path d="M498.267 56.142C495.529 49.3128 489.896 45.1349 485.67 46.8242C481.444 48.5136 480.243 55.405 482.985 62.239C485.728 69.073 491.361 73.2462 495.587 71.5472C499.813 69.8483 501.009 62.9617 498.267 56.142Z" fill="#4E4E4E"/>
</g>
<g style="mix-blend-mode:color-dodge" opacity="0.35">
<path d="M497.937 56.2762C495.314 49.7437 489.93 45.7477 485.886 47.3652C481.842 48.9828 480.693 55.5679 483.301 62.1052C485.91 68.6425 491.318 72.6338 495.357 71.0114C499.396 69.3891 500.564 62.7991 497.937 56.2762Z" fill="#585858"/>
</g>
<g style="mix-blend-mode:color-dodge" opacity="0.38">
<path d="M497.602 56.4096C495.103 50.1882 489.944 46.3596 486.115 47.9054C482.287 49.4512 481.162 55.73 483.665 61.9706C486.168 68.2112 491.323 72.0206 495.151 70.47C498.98 68.9195 500.11 62.631 497.602 56.4096Z" fill="#626262"/>
</g>
<g style="mix-blend-mode:color-dodge" opacity="0.42">
<path d="M497.271 56.5437C494.878 50.6046 489.992 46.9722 486.316 48.4415C482.641 49.9107 481.597 55.8976 483.986 61.8414C486.374 67.7853 491.265 71.4129 494.936 69.9293C498.607 68.4457 499.655 62.4684 497.271 56.5437Z" fill="#6C6C6C"/>
</g>
<g style="mix-blend-mode:color-dodge" opacity="0.46">
<path d="M496.936 56.6779C494.673 51.0355 490.026 47.585 486.532 48.9824C483.038 50.3799 482.052 56.0605 484.321 61.7077C486.589 67.3548 491.232 70.8005 494.721 69.3648C498.21 67.9291 499.205 62.3202 496.936 56.6779Z" fill="#767676"/>
</g>
<g style="mix-blend-mode:color-dodge" opacity="0.5">
<path d="M496.601 56.8121C494.457 51.4664 490.059 48.1978 486.747 49.5234C483.435 50.8491 482.502 56.2234 484.651 61.5739C486.8 66.9243 491.198 70.1881 494.505 68.8529C497.812 67.5177 498.75 62.1386 496.601 56.8121Z" fill="#7F7F7F"/>
</g>
<g style="mix-blend-mode:color-dodge" opacity="0.54">
<path d="M496.271 56.9463C494.247 51.8974 490.093 48.8106 486.967 50.0644C483.842 51.3183 482.957 56.3911 484.986 61.4401C487.015 66.489 491.165 69.5758 494.29 68.3123C497.415 67.0489 498.3 61.9713 496.271 56.9463Z" fill="#898989"/>
</g>
<g style="mix-blend-mode:color-dodge" opacity="0.58">
<path d="M495.936 57.0805C494.022 52.3283 490.121 49.4234 487.183 50.6054C484.244 51.7875 483.411 56.5588 485.321 61.3063C487.23 66.0537 491.136 68.9634 494.07 67.7718C497.003 66.5801 497.846 61.8088 495.936 57.0805Z" fill="#939393"/>
</g>
<g style="mix-blend-mode:color-dodge" opacity="0.62">
<path d="M495.606 57.2137C493.816 52.7582 490.155 50.0352 487.398 51.1407C484.641 52.2462 483.861 56.7208 485.656 61.1907C487.451 65.6605 491.102 68.3405 493.854 67.2446C496.606 66.1486 497.396 61.6405 495.606 57.2137Z" fill="#9D9D9D"/>
</g>
<g style="mix-blend-mode:color-dodge" opacity="0.65">
<path d="M495.266 57.3479C493.601 53.1891 490.183 50.6479 487.609 51.6816C485.034 52.7154 484.311 56.8837 485.986 61.0425C487.661 65.2013 491.064 67.7138 493.644 66.6944C496.223 65.6751 496.941 61.478 495.266 57.3479Z" fill="#A7A7A7"/>
</g>
<g style="mix-blend-mode:color-dodge" opacity="0.69">
<path d="M494.936 57.4821C493.39 53.6201 490.222 51.2607 487.829 52.2179C485.436 53.175 484.766 57.0466 486.321 60.9039C487.877 64.7612 491.035 67.0966 493.419 66.1682C495.802 65.2398 496.486 61.3107 494.936 57.4821Z" fill="#B1B1B1"/>
</g>
<g style="mix-blend-mode:color-dodge" opacity="0.73">
<path d="M494.606 57.6163C493.17 54.051 490.255 51.8735 488.044 52.7636C485.833 53.6538 485.22 57.2143 486.656 60.7749C488.092 64.3355 491.002 66.4843 493.203 65.6133C495.405 64.7423 496.037 61.1482 494.606 57.6163Z" fill="#BABABA"/>
</g>
<g style="mix-blend-mode:color-dodge" opacity="0.77">
<path d="M494.271 57.7503C492.954 54.4864 490.284 52.486 488.264 53.2996C486.244 54.1131 485.67 57.3818 486.991 60.6408C488.312 63.8999 490.973 65.8716 492.988 65.0724C495.003 64.2732 495.577 60.9854 494.271 57.7503Z" fill="#C4C4C4"/>
</g>
<g style="mix-blend-mode:color-dodge" opacity="0.81">
<path d="M493.94 57.8845C492.739 54.9173 490.317 53.0988 488.48 53.8406C486.642 54.5823 486.125 57.5447 487.326 60.5118C488.527 63.479 490.94 65.2593 492.773 64.5366C494.606 63.814 495.123 60.8181 493.94 57.8845Z" fill="#CECECE"/>
</g>
<g style="mix-blend-mode:color-dodge" opacity="0.85">
<path d="M493.605 58.0128C492.524 55.3424 490.351 53.7057 488.695 54.3757C487.039 55.0457 486.58 57.7257 487.656 60.3722C488.733 63.0187 490.906 64.641 492.552 63.9902C494.199 63.3393 494.673 60.6545 493.605 58.0128Z" fill="#D8D8D8"/>
</g>
<g style="mix-blend-mode:color-dodge" opacity="0.88">
<path d="M493.27 58.1521C492.313 55.7592 490.399 54.3235 488.91 54.9217C487.422 55.5199 487.029 57.8745 487.991 60.2434C488.953 62.6124 490.863 64.0337 492.337 63.4547C493.811 62.8756 494.218 60.4875 493.27 58.1521Z" fill="#E2E2E2"/>
</g>
<g style="mix-blend-mode:color-dodge" opacity="0.92">
<path d="M492.94 58.2861C492.098 56.2091 490.418 54.9361 489.111 55.4578C487.805 55.9794 487.47 58.0421 488.312 60.1095C489.154 62.1769 490.825 63.4164 492.107 62.9187C493.39 62.421 493.763 60.3248 492.94 58.2861Z" fill="#EBEBEB"/>
</g>
<g style="mix-blend-mode:color-dodge" opacity="0.96">
<path d="M492.605 58.4203C491.882 56.6401 490.447 55.5489 489.341 55.9988C488.236 56.4486 487.939 58.205 488.662 59.9805C489.384 61.756 490.81 62.8041 491.906 62.3733C493.002 61.9426 493.313 60.1576 492.605 58.4203Z" fill="#F5F5F5"/>
</g>
<g style="mix-blend-mode:color-dodge">
<path d="M489.557 56.5395C488.652 56.8889 488.389 58.3677 488.992 59.8465C489.595 61.3252 490.782 62.201 491.686 61.8373C492.591 61.4736 492.868 59.99 492.275 58.5543C491.681 57.1186 490.48 56.1567 489.557 56.5395Z" fill="white"/>
</g>
</g>
<g style="mix-blend-mode:overlay" opacity="0.8">
<g style="mix-blend-mode:overlay" opacity="0.04">
<path d="M338.34 295.121L235.107 165.533L487.805 55.2705L491.993 64.5404L338.34 295.121Z" fill="#ACACAC"/>
</g>
<g style="mix-blend-mode:overlay" opacity="0.08">
<path d="M338.297 291.273L238.811 166.222L487.872 55.4092L491.906 64.3872L338.297 291.273Z" fill="#AEAEAE"/>
</g>
<g style="mix-blend-mode:overlay" opacity="0.11">
<path d="M338.254 287.425L242.516 166.911L487.939 55.5479L491.825 64.2339L338.254 287.425Z" fill="#B0B0B0"/>
</g>
<g style="mix-blend-mode:overlay" opacity="0.15">
<path d="M338.211 283.582L246.22 167.605L488.001 55.6865L491.739 64.0759L338.211 283.582Z" fill="#B2B2B2"/>
</g>
<g style="mix-blend-mode:overlay" opacity="0.19">
<path d="M338.168 279.734L249.924 168.294L488.068 55.8301L491.653 63.9227L338.168 279.734Z" fill="#B3B3B3"/>
</g>
<g style="mix-blend-mode:overlay" opacity="0.23">
<path d="M338.129 275.888L253.624 168.984L488.135 55.9697L491.567 63.7704L338.129 275.888Z" fill="#B5B5B5"/>
</g>
<g style="mix-blend-mode:overlay" opacity="0.27">
<path d="M338.086 272.04L257.328 169.673L488.197 56.1084L491.485 63.6124L338.086 272.04Z" fill="#B7B7B7"/>
</g>
<g style="mix-blend-mode:overlay" opacity="0.3">
<path d="M338.043 268.192L261.032 170.362L488.264 56.2471L491.399 63.4591L338.043 268.192Z" fill="#B9B9B9"/>
</g>
<g style="mix-blend-mode:overlay" opacity="0.34">
<path d="M338.005 264.349L264.737 171.051L488.331 56.3857L491.313 63.3059L338.005 264.349Z" fill="#BBBBBB"/>
</g>
<g style="mix-blend-mode:overlay" opacity="0.38">
<path d="M337.962 260.501L268.441 171.745L488.398 56.5244L491.227 63.1478L337.962 260.501Z" fill="#BDBDBD"/>
</g>
<g style="mix-blend-mode:overlay" opacity="0.42">
<path d="M337.919 256.653L272.145 172.434L488.46 56.668L491.145 62.9947L337.919 256.653Z" fill="#BFBFBF"/>
</g>
<g style="mix-blend-mode:overlay" opacity="0.46">
<path d="M337.876 252.805L275.845 173.123L488.528 56.8066L491.059 62.8414L337.876 252.805Z" fill="#C1C1C1"/>
</g>
<g style="mix-blend-mode:overlay" opacity="0.49">
<path d="M337.832 248.962L279.549 173.812L488.594 56.9453L490.973 62.6834L337.832 248.962Z" fill="#C3C3C3"/>
</g>
<g style="mix-blend-mode:overlay" opacity="0.53">
<path d="M337.794 245.115L283.253 174.501L488.657 57.084L490.887 62.5301L337.794 245.115Z" fill="#C4C4C4"/>
</g>
<g style="mix-blend-mode:overlay" opacity="0.57">
<path d="M337.751 241.268L286.958 175.196L488.724 57.2236L490.806 62.3778L337.751 241.268Z" fill="#C6C6C6"/>
</g>
<g style="mix-blend-mode:overlay" opacity="0.61">
<path d="M337.708 237.42L290.662 175.885L488.791 57.3623L490.719 62.2198L337.708 237.42Z" fill="#C8C8C8"/>
</g>
<g style="mix-blend-mode:overlay" opacity="0.65">
<path d="M337.665 233.572L294.362 176.574L488.858 57.5059L490.634 62.0666L337.665 233.572Z" fill="#CACACA"/>
</g>
<g style="mix-blend-mode:overlay" opacity="0.69">
<path d="M337.627 229.729L298.066 177.263L488.92 57.6445L490.547 61.9134L337.627 229.729Z" fill="#CCCCCC"/>
</g>
<g style="mix-blend-mode:overlay" opacity="0.72">
<path d="M337.583 225.881L301.77 177.952L488.987 57.7832L490.466 61.7553L337.583 225.881Z" fill="#CECECE"/>
</g>
<g style="mix-blend-mode:overlay" opacity="0.76">
<path d="M337.54 222.033L305.475 178.641L489.054 57.9219L490.38 61.6021L337.54 222.033Z" fill="#D0D0D0"/>
</g>
<g style="mix-blend-mode:overlay" opacity="0.8">
<path d="M337.497 218.186L309.179 179.33L489.116 58.0605L490.294 61.4488L337.497 218.186Z" fill="#D2D2D2"/>
</g>
<g style="mix-blend-mode:overlay" opacity="0.84">
<path d="M337.459 214.338L312.883 180.024L489.183 58.1992L490.207 61.2908L337.459 214.338Z" fill="#D3D3D3"/>
</g>
<g style="mix-blend-mode:overlay" opacity="0.88">
<path d="M337.416 210.495L316.583 180.713L489.25 58.3428L490.126 61.1376L337.416 210.495Z" fill="#D5D5D5"/>
</g>
<g style="mix-blend-mode:overlay" opacity="0.91">
<path d="M337.373 206.647L320.287 181.402L489.312 58.4814L490.04 60.9844L337.373 206.647Z" fill="#D7D7D7"/>
</g>
<g style="mix-blend-mode:overlay" opacity="0.95">
<path d="M337.33 202.8L323.991 182.092L489.379 58.6211L489.954 60.8273L337.33 202.8Z" fill="#D9D9D9"/>
</g>
<g style="mix-blend-mode:overlay" opacity="0.99">
<path d="M334.918 184.175L403.042 131.941L338.586 190.356L334.918 184.175Z" fill="#DBDBDB"/>
<path d="M334.918 184.175L403.042 131.941L338.586 190.356L334.918 184.175Z" stroke="white" stroke-width="11"/>
</g>
</g>
</g>
<defs>
<clipPath id="clip0_144_5241">
<rect width="540.5" height="540.5" fill="white"/>
</clipPath>
</defs>
</svg>
