<svg width="20" height="20" viewBox="0 0 20 20" fill="none" xmlns="http://www.w3.org/2000/svg">
<g clip-path="url(#clip0_3621_105827)">
<path d="M18.3333 4.16703H14.1667V3.33367C14.1667 2.41449 13.4192 1.66699 12.5 1.66699H7.5C6.58082 1.66699 5.83332 2.41445 5.83332 3.33367V4.16699H1.66668C0.747461 4.16703 0 4.91449 0 5.83367V8.33367C0 9.25289 0.747461 10.0004 1.66668 10.0004H8.33336V9.58367C8.33336 9.35336 8.51973 9.16699 8.75004 9.16699H11.25C11.4804 9.16699 11.6667 9.35336 11.6667 9.58367V10.0004H18.3334C19.2525 10.0004 20 9.25289 20 8.33367V5.83367C20 4.91449 19.2525 4.16703 18.3333 4.16703ZM12.5 4.16703H7.5V3.33367H12.5V4.16703Z" fill="#A3A5B0"/>
<path d="M19.7689 10.4503C19.6269 10.3799 19.4572 10.3962 19.3318 10.4913C19.0356 10.7156 18.6905 10.834 18.3333 10.834H11.6667V12.084C11.6667 12.3143 11.4803 12.5006 11.25 12.5006H8.75C8.51969 12.5006 8.33332 12.3143 8.33332 12.084V10.834H1.66668C1.30941 10.834 0.964375 10.7156 0.668125 10.4913C0.542383 10.3953 0.373125 10.379 0.231094 10.4503C0.0895312 10.5207 0 10.6651 0 10.8234V16.6673C0 17.5865 0.747461 18.334 1.66668 18.334H18.3334C19.2525 18.334 20 17.5865 20 16.6673V10.8234C20 10.6651 19.9105 10.5207 19.7689 10.4503Z" fill="#A3A5B0"/>
</g>
<defs>
<clipPath id="clip0_3621_105827">
<rect width="20" height="20" fill="white"/>
</clipPath>
</defs>
</svg>
