<svg width="20" height="20" viewBox="0 0 20 20" fill="none" xmlns="http://www.w3.org/2000/svg">
<g clip-path="url(#clip0_532_6448)">
<path d="M15.8824 9.99993C15.8824 10.2354 15.8118 10.4706 15.6823 10.647L9.80008 19.4706C9.58832 19.7883 9.23525 20.0001 8.82359 20.0001H5.29417C4.64705 20.0001 4.11755 19.4706 4.11755 18.8235C4.11755 18.5882 4.18821 18.353 4.31768 18.1766L9.76475 9.99993L4.31768 1.82352C4.18821 1.64709 4.11755 1.41185 4.11755 1.1764C4.11755 0.529498 4.64705 0 5.29417 0H8.82359C9.23525 0 9.58832 0.211756 9.80008 0.529498L15.6823 9.35303C15.8118 9.52946 15.8824 9.76469 15.8824 9.99993Z" fill="#E6E7EC"/>
</g>
<defs>
<clipPath id="clip0_532_6448">
<rect width="20" height="20" fill="white"/>
</clipPath>
</defs>
</svg>
