<svg width="20" height="20" viewBox="0 0 20 20" fill="none" xmlns="http://www.w3.org/2000/svg">
<g clip-path="url(#clip0_109_3466)">
<path d="M12.7816 9.08517C11.9968 8.65145 11.1624 8.32099 10.3363 7.97815C9.85711 7.77988 9.3986 7.54856 8.9938 7.22637C8.19658 6.59025 8.34941 5.55758 9.28294 5.14864C9.54731 5.03298 9.82406 4.99581 10.1049 4.97929C11.1872 4.92146 12.2157 5.11973 13.1947 5.59062C13.6821 5.82607 13.8432 5.75172 14.0084 5.24365C14.1819 4.70666 14.3265 4.16141 14.4876 3.6203C14.595 3.2568 14.4628 3.01722 14.12 2.86439C13.4921 2.58763 12.8477 2.38936 12.1703 2.28196C11.2863 2.14565 11.2863 2.14152 11.2822 1.25343C11.2781 0.00183588 11.2781 0.00183585 10.0223 0.00183585C9.84058 0.00183585 9.65883 -0.00229481 9.47708 0.00183585C8.89053 0.0183585 8.79139 0.121625 8.77487 0.71231C8.76661 0.976673 8.77487 1.24104 8.77074 1.50953C8.76661 2.29435 8.76248 2.28196 8.0107 2.55459C6.19321 3.21549 5.06967 4.45469 4.94988 6.43741C4.84248 8.19294 5.75949 9.37844 7.20109 10.2418C8.08918 10.7746 9.07228 11.0885 10.0141 11.5057C10.3817 11.6668 10.7328 11.8527 11.0385 12.1088C11.9431 12.8565 11.7779 14.0998 10.7039 14.5707C10.1297 14.8227 9.52252 14.8846 8.89879 14.8061C7.93635 14.6863 7.01521 14.4344 6.14777 13.9841C5.6397 13.7198 5.49099 13.79 5.31751 14.3394C5.1688 14.8144 5.03662 15.2936 4.90444 15.7727C4.72682 16.4171 4.79291 16.5699 5.40838 16.8715C6.19321 17.2515 7.03173 17.4456 7.88678 17.5819C8.55595 17.6893 8.5766 17.7183 8.58486 18.4122C8.58899 18.7261 8.58899 19.0442 8.59312 19.3581C8.59725 19.7547 8.78726 19.986 9.1962 19.9943C9.65883 20.0025 10.1256 20.0025 10.5882 19.9901C10.9683 19.9819 11.1624 19.7753 11.1624 19.3912C11.1624 18.9616 11.183 18.5279 11.1665 18.0983C11.1459 17.6604 11.3359 17.4374 11.7572 17.3217C12.7279 17.0573 13.554 16.5369 14.1902 15.7603C15.9581 13.6124 15.2848 10.4689 12.7816 9.08517Z" fill="#181E39"/>
</g>
<defs>
<clipPath id="clip0_109_3466">
<rect width="20" height="20" fill="white"/>
</clipPath>
</defs>
</svg>
