<svg width="300" height="300" viewBox="0 0 300 300" fill="none" xmlns="http://www.w3.org/2000/svg">
<circle cx="150" cy="150" r="150" fill="#E8F7FF"/>
<path d="M50 125.001L146.3 186.288C147.4 187.101 148.7 187.501 150 187.501C151.3 187.501 152.6 187.101 153.7 186.288L250 125.001L153.75 51.2509C151.525 49.5884 148.475 49.5884 146.25 51.2509L50 125.001Z" fill="#64B5F6"/>
<path d="M212.5 50H87.5C80.6125 50 75 55.6125 75 62.5V200C75 203.45 77.8 206.25 81.25 206.25H218.75C222.2 206.25 225 203.45 225 200V62.5C225 55.6125 219.4 50 212.5 50Z" fill="#ECEFF1"/>
<path d="M106.25 87.5H193.75C197.2 87.5 200 84.7 200 81.25C200 77.8 197.2 75 193.75 75H106.25C102.8 75 100 77.8 100 81.25C100 84.7 102.8 87.5 106.25 87.5Z" fill="#90A4AE"/>
<path d="M193.75 100H106.25C102.8 100 100 102.8 100 106.25C100 109.7 102.8 112.5 106.25 112.5H193.75C197.2 112.5 200 109.7 200 106.25C200 102.8 197.2 100 193.75 100Z" fill="#90A4AE"/>
<path d="M156.25 125H106.25C102.8 125 100 127.8 100 131.25C100 134.7 102.8 137.5 106.25 137.5H156.25C159.7 137.5 162.5 134.7 162.5 131.25C162.5 127.8 159.7 125 156.25 125Z" fill="#90A4AE"/>
<path d="M153.7 186.287C152.6 187.1 151.3 187.5 150 187.5C148.7 187.5 147.4 187.1 146.3 186.287L50 125V237.5C50 244.4 55.6 250 62.5 250H237.5C244.4 250 250 244.4 250 237.5V125L153.7 186.287Z" fill="#1E88E5"/>
<path d="M237.5 250H62.5C55.4875 250 50 244.512 50 237.5C50 235.512 50.95 233.638 52.55 232.463L146.3 169.963C147.4 169.15 148.7 168.75 150 168.75C151.3 168.75 152.6 169.15 153.7 169.963L247.45 232.463C249.05 233.638 250 235.512 250 237.5C250 244.512 244.512 250 237.5 250Z" fill="#2196F3"/>
</svg>
