<svg width="36" height="36" viewBox="0 0 36 36" fill="none" xmlns="http://www.w3.org/2000/svg">
<path d="M35.6653 4.71717C35.6653 3.77092 35.245 2.87368 34.5182 2.26866L31.8441 0.0424874V10.5402L19.8265 0.717745C18.6637 -0.232587 16.9957 -0.239944 15.8246 0.700095L1.54833 12.1603C0.569552 12.946 0 14.1341 0 15.39V33.2249C0 34.8376 1.87268 35.725 3.11858 34.7026L16.3189 23.8707C17.2771 23.0844 17.8327 21.9094 17.8327 20.669V17.8568L3.82129 29.1741V25.9149C3.82129 25.1567 4.15861 24.4379 4.74157 23.9539L16.3372 14.3267C17.2845 13.5402 17.8327 12.3722 17.8327 11.1402V8.31342L3.82129 19.7897V16.5548C3.82129 15.7854 4.16865 15.0572 4.76639 14.5735L17.2315 4.48716C17.582 4.20353 18.0829 4.20406 18.4328 4.48843L32.5538 15.9643C33.8012 16.9781 35.6653 16.0894 35.6653 14.4809V4.71717Z" fill="#FA4B5F"/>
</svg>
