<svg width="159" height="44" viewBox="0 0 159 44" fill="none" xmlns="http://www.w3.org/2000/svg">
<path d="M40.2444 5.3228C40.2444 4.25506 39.77 3.24262 38.9499 2.55993L35.9325 0.0479423V11.8934L22.3719 0.809895C21.0599 -0.262448 19.1777 -0.27075 17.8563 0.789979L1.74712 13.7215C0.642676 14.6081 0 15.9487 0 17.3659V37.4906C0 39.3104 2.11311 40.3117 3.51897 39.158L18.414 26.9354C19.4953 26.0481 20.1222 24.7223 20.1222 23.3227V20.1494L4.31189 32.9197V29.242C4.31189 28.3865 4.69253 27.5754 5.35034 27.0293L18.4347 16.1661C19.5036 15.2786 20.1222 13.9606 20.1222 12.5704V9.38076L4.31189 22.3305V18.6802C4.31189 17.812 4.70386 16.9903 5.37834 16.4445L19.4438 5.06326C19.8393 4.74322 20.4046 4.74382 20.7994 5.0647L36.7333 18.0139C38.1409 19.1579 40.2444 18.1551 40.2444 16.3401V5.3228Z" fill="#FA4B5F"/>
<path d="M38.4163 30.4771C38.4163 28.4784 37.7682 26.8738 36.5001 25.607C35.232 24.3402 33.6539 23.7209 31.7377 23.7209C29.596 23.7209 27.8488 24.3965 26.5244 25.7196C25.1999 27.0427 24.5518 28.7036 24.5518 30.7586C24.5518 32.7855 25.2281 34.4746 26.5525 35.7977C27.9052 37.1208 29.6523 37.7964 31.794 37.7964C34.9784 37.7964 37.5427 36.1355 38.2473 33.5456H34.1611C33.7384 34.2212 32.9776 34.559 31.8786 34.559C30.1032 34.559 28.976 33.7708 28.497 32.1662H38.3318C38.3882 31.8002 38.4163 31.2372 38.4163 30.4771ZM31.6249 26.9301C33.2312 26.9301 34.302 27.8591 34.5275 29.4355H28.4406C28.8633 27.7746 29.9341 26.9301 31.6249 26.9301Z" fill="#2F344C"/>
<path d="M53.5873 24.0024H49.4448L45.7533 32.5322L42.0617 24.0024H37.9192L44.0061 37.4867H47.5004L53.5873 24.0024Z" fill="#2F344C"/>
<path d="M67.7478 30.4771C67.7478 28.4784 67.0996 26.8738 65.8315 25.607C64.5634 24.3402 62.9854 23.7209 61.0691 23.7209C58.9274 23.7209 57.1803 24.3965 55.8558 25.7196C54.5313 27.0427 53.8832 28.7036 53.8832 30.7586C53.8832 32.7855 54.5595 34.4746 55.884 35.7977C57.2366 37.1208 58.9838 37.7964 61.1255 37.7964C64.3098 37.7964 66.8742 36.1355 67.5787 33.5456H63.4926C63.0699 34.2212 62.309 34.559 61.21 34.559C59.4347 34.559 58.3075 33.7708 57.8284 32.1662H67.6632C67.7196 31.8002 67.7478 31.2372 67.7478 30.4771ZM60.9564 26.9301C62.5627 26.9301 63.6335 27.8591 63.8589 29.4355H57.772C58.1947 27.7746 59.2656 26.9301 60.9564 26.9301Z" fill="#2F344C"/>
<path d="M73.2132 24.0024H69.2961V37.4867H73.2132V29.4355C74.3122 28.225 75.8903 27.5776 77.9474 27.4931V23.7772C76.0593 23.7772 74.4813 24.3684 73.2132 25.5226V24.0024Z" fill="#2F344C"/>
<path d="M95.3501 23.9742H91.2358L87.2906 33.1796L82.9227 23.9742H78.7521L85.318 37.8245L82.6973 43.9615H86.8116L95.3501 23.9742Z" fill="#2F344C"/>
<path d="M104.643 23.5801C103.234 23.5801 101.938 24.0305 100.782 24.9595V24.0024H96.8652V37.4867H100.782V28.8162C101.712 27.6902 102.698 27.1272 103.741 27.1272C105.573 27.1272 106.644 28.2814 106.644 30.4208V37.4867H110.561V30.083C110.561 28.1124 110.025 26.536 108.926 25.3536C107.855 24.1713 106.418 23.5801 104.643 23.5801Z" fill="#2F344C"/>
<path d="M119.257 23.7209C117.171 23.7209 115.452 24.3965 114.072 25.7196C112.691 27.0427 112.014 28.7036 112.014 30.7586C112.014 32.8137 112.691 34.5309 114.072 35.8821C115.452 37.2334 117.171 37.909 119.257 37.909C121.314 37.909 123.033 37.2334 124.385 35.8821C125.766 34.5309 126.443 32.8137 126.443 30.7586C126.443 28.7036 125.766 27.0427 124.385 25.7196C123.033 24.3965 121.314 23.7209 119.257 23.7209ZM119.257 34.4183C117.228 34.4183 115.875 32.8137 115.875 30.7586C115.875 28.7318 117.228 27.2116 119.257 27.2116C121.257 27.2116 122.582 28.7318 122.582 30.7586C122.582 32.8137 121.257 34.4183 119.257 34.4183Z" fill="#2F344C"/>
<path d="M134.696 23.7209C132.611 23.7209 130.892 24.3965 129.511 25.7196C128.13 27.0427 127.454 28.7036 127.454 30.7586C127.454 32.8137 128.13 34.5309 129.511 35.8821C130.892 37.2334 132.611 37.909 134.696 37.909C136.753 37.909 138.472 37.2334 139.825 35.8821C141.206 34.5309 141.882 32.8137 141.882 30.7586C141.882 28.7036 141.206 27.0427 139.825 25.7196C138.472 24.3965 136.753 23.7209 134.696 23.7209ZM134.696 34.4183C132.667 34.4183 131.315 32.8137 131.315 30.7586C131.315 28.7318 132.667 27.2116 134.696 27.2116C136.697 27.2116 138.021 28.7318 138.021 30.7586C138.021 32.8137 136.697 34.4183 134.696 34.4183Z" fill="#2F344C"/>
<path d="M149.629 32.4196L153.207 37.4867H158.139L152.306 29.5763L157.547 24.0024H152.672L147.459 29.6045V17.4995H143.542V37.4867H147.459V34.6998L149.629 32.4196Z" fill="#2F344C"/>
</svg>
