<svg width="50" height="50" viewBox="0 0 50 50" fill="none" xmlns="http://www.w3.org/2000/svg">
<circle cx="25" cy="25" r="25" fill="#4C4372"/>
<path d="M39.8646 21.4031C39.5042 20.2983 38.5204 19.5844 37.3582 19.5844H29.8641L27.5041 12.4177C27.1414 11.316 26.1596 10.6058 25.0008 10.6058C24.9971 10.6058 24.9933 10.6058 24.9896 10.6059C23.8261 10.6105 22.8447 11.3294 22.4895 12.4374L20.1984 19.5844H12.6418C11.4768 19.5844 10.4922 20.3007 10.1335 21.4092C9.77479 22.5176 10.1531 23.6749 11.0974 24.3574L17.2115 28.7768L14.8581 35.9237C14.4939 37.0298 14.8659 38.1888 15.8058 38.8762C16.2779 39.2215 16.8198 39.3942 17.362 39.3942C17.8993 39.3942 18.4369 39.2245 18.9066 38.8849L25.0313 34.458L31.0832 38.8775C32.0221 39.5632 33.238 39.5665 34.1808 38.8861C35.1236 38.2057 35.5034 37.0507 35.1485 35.9435L32.8509 28.7768L38.913 24.3499C39.8515 23.6645 40.2251 22.5079 39.8646 21.4031V21.4031Z" fill="white"/>
</svg>
