<svg width="100" height="100" viewBox="0 0 100 100" fill="none" xmlns="http://www.w3.org/2000/svg">
<circle cx="50" cy="50" r="50" fill="white"/>
<circle cx="50" cy="50" r="47.5" stroke="#7BABF1" stroke-opacity="0.3" stroke-width="5"/>
<circle cx="50" cy="50" r="40" fill="#7BABF1" fill-opacity="0.3"/>
<path d="M65.1045 41.6666L70.417 34.5833C70.6491 34.2737 70.7905 33.9057 70.8252 33.5204C70.86 33.135 70.7867 32.7476 70.6137 32.4016C70.4407 32.0555 70.1747 31.7645 69.8456 31.5611C69.5165 31.3577 69.1372 31.2499 68.7503 31.2499H43.7503C43.7503 30.6974 43.5308 30.1675 43.1401 29.7768C42.7494 29.3861 42.2195 29.1666 41.667 29.1666C41.1145 29.1666 40.5846 29.3861 40.1939 29.7768C39.8032 30.1675 39.5837 30.6974 39.5837 31.2499V66.6666H37.5003C36.9478 66.6666 36.4179 66.8861 36.0272 67.2768C35.6365 67.6675 35.417 68.1974 35.417 68.7499C35.417 69.3025 35.6365 69.8324 36.0272 70.2231C36.4179 70.6138 36.9478 70.8333 37.5003 70.8333H45.8337C46.3862 70.8333 46.9161 70.6138 47.3068 70.2231C47.6975 69.8324 47.917 69.3025 47.917 68.7499C47.917 68.1974 47.6975 67.6675 47.3068 67.2768C46.9161 66.8861 46.3862 66.6666 45.8337 66.6666H43.7503V52.0833H68.7503C69.1372 52.0833 69.5165 51.9755 69.8456 51.7721C70.1747 51.5687 70.4407 51.2777 70.6137 50.9316C70.7867 50.5856 70.86 50.1982 70.8252 49.8128C70.7905 49.4275 70.6491 49.0594 70.417 48.7499L65.1045 41.6666ZM60.8337 42.9166L64.5837 47.9166H43.7503V35.4166H64.5837L60.8337 40.4166C60.5629 40.7771 60.4165 41.2157 60.4165 41.6666C60.4165 42.1175 60.5629 42.5561 60.8337 42.9166V42.9166Z" fill="#7BABF1"/>
</svg>
