<svg width="1600" height="239" viewBox="0 0 1600 239" fill="none" preserveAspectRatio="none" xmlns="http://www.w3.org/2000/svg">
<g opacity="0.5">
<path d="M292.24 231.699H303.74C304.34 231.699 304.74 231.299 304.74 230.699V212.699C304.74 212.099 304.34 211.699 303.74 211.699H292.24C291.64 211.699 291.24 212.099 291.24 212.699V230.699C291.24 231.299 291.64 231.699 292.24 231.699ZM293.24 229.699V217.699H302.74V229.699H293.24ZM302.74 213.699V215.699H293.24V213.699H302.74Z" fill="#A3A5B0"/>
<path d="M308.74 231.699H320.24C320.84 231.699 321.24 231.299 321.24 230.699V212.699C321.24 212.099 320.84 211.699 320.24 211.699H308.74C308.14 211.699 307.74 212.099 307.74 212.699V230.699C307.74 231.299 308.14 231.699 308.74 231.699ZM309.74 229.699V217.699H319.24V229.699H309.74ZM319.24 213.699V215.699H309.74V213.699H319.24Z" fill="#A3A5B0"/>
<path d="M262.44 176.699H273.94C274.54 176.699 274.94 176.299 274.94 175.699V157.699C274.94 157.099 274.54 156.699 273.94 156.699H262.44C261.84 156.699 261.44 157.099 261.44 157.699V175.699C261.44 176.299 261.94 176.699 262.44 176.699ZM263.44 174.699V162.699H272.94V174.699H263.44ZM272.94 158.699V160.699H263.44V158.699H272.94Z" fill="#A3A5B0"/>
<path d="M278.94 176.699H290.44C291.04 176.699 291.44 176.299 291.44 175.699V157.699C291.44 157.099 291.04 156.699 290.44 156.699H278.94C278.34 156.699 277.94 157.099 277.94 157.699V175.699C277.94 176.299 278.44 176.699 278.94 176.699ZM279.94 174.699V162.699H289.44V174.699H279.94ZM289.44 158.699V160.699H279.94V158.699H289.44Z" fill="#A3A5B0"/>
<path d="M334.34 176.699H345.84C346.44 176.699 346.84 176.299 346.84 175.699V157.699C346.84 157.099 346.44 156.699 345.84 156.699H334.34C333.74 156.699 333.34 157.099 333.34 157.699V175.699C333.34 176.299 333.84 176.699 334.34 176.699ZM335.34 174.699V162.699H344.84V174.699H335.34ZM344.84 158.699V160.699H335.34V158.699H344.84Z" fill="#A3A5B0"/>
<path d="M317.84 176.699H329.34C329.94 176.699 330.34 176.299 330.34 175.699V157.699C330.34 157.099 329.94 156.699 329.34 156.699H317.84C317.24 156.699 316.84 157.099 316.84 157.699V175.699C316.84 176.299 317.34 176.699 317.84 176.699ZM318.84 174.699V162.699H328.34V174.699H318.84ZM328.34 158.699V160.699H318.84V158.699H328.34Z" fill="#A3A5B0"/>
<path d="M298.44 152.199H309.94C310.54 152.199 310.94 151.799 310.94 151.199V139.699C310.94 139.099 310.54 138.699 309.94 138.699H298.44C297.84 138.699 297.44 139.099 297.44 139.699V151.199C297.44 151.799 297.84 152.199 298.44 152.199ZM299.44 140.699H308.94V150.199H299.44V140.699Z" fill="#A3A5B0"/>
<path d="M370.04 234.1H362.04C361.44 234.1 361.04 234.5 361.04 235.1C361.04 235.7 361.44 236.1 362.04 236.1H370.04C370.64 236.1 371.04 235.7 371.04 235.1C371.04 234.5 370.54 234.1 370.04 234.1Z" fill="#A3A5B0"/>
<path d="M41.2398 195.199H42.7398H57.7398H59.2398C59.8398 195.199 60.2398 194.799 60.2398 194.199C60.2398 193.599 59.8398 193.199 59.2398 193.199H58.7398V173.199C58.7398 172.599 58.3398 172.199 57.7398 172.199H42.7398C42.1398 172.199 41.7398 172.599 41.7398 173.199V193.199H41.2398C40.6398 193.199 40.2398 193.599 40.2398 194.199C40.2398 194.799 40.6398 195.199 41.2398 195.199ZM56.7398 174.199V182.699H43.7398V174.199H56.7398ZM43.7398 184.699H56.7398V193.199H43.7398V184.699Z" fill="#A3A5B0"/>
<path d="M83.0395 195.199H84.5395H99.5395H101.04C101.64 195.199 102.04 194.799 102.04 194.199C102.04 193.599 101.64 193.199 101.04 193.199H100.54V163.199C100.54 162.599 100.14 162.199 99.5395 162.199H84.5395C83.9395 162.199 83.5395 162.599 83.5395 163.199V193.199H83.0395C82.4395 193.199 82.0395 193.599 82.0395 194.199C82.0395 194.799 82.5395 195.199 83.0395 195.199ZM85.5395 174.699H98.5395V182.699H85.5395V174.699ZM98.5395 164.199V172.699H85.5395V164.199H98.5395ZM85.5395 184.699H98.5395V193.199H85.5395V184.699Z" fill="#A3A5B0"/>
<path d="M126.24 195.199H127.74H142.74H144.24C144.84 195.199 145.24 194.799 145.24 194.199C145.24 193.599 144.84 193.199 144.24 193.199H143.74V173.199C143.74 172.599 143.34 172.199 142.74 172.199H127.74C127.14 172.199 126.74 172.599 126.74 173.199V193.199H126.24C125.64 193.199 125.24 193.599 125.24 194.199C125.24 194.799 125.64 195.199 126.24 195.199ZM141.74 174.199V182.699H128.74V174.199H141.74ZM128.74 184.699H141.74V193.199H128.74V184.699Z" fill="#A3A5B0"/>
<path d="M59.2398 225.199H58.7398V205.199C58.7398 204.599 58.3398 204.199 57.7398 204.199H42.7398C42.1398 204.199 41.7398 204.599 41.7398 205.199V225.199H41.2398C40.6398 225.199 40.2398 225.599 40.2398 226.199C40.2398 226.799 40.6398 227.199 41.2398 227.199H42.7398H57.7398H59.2398C59.8398 227.199 60.2398 226.799 60.2398 226.199C60.2398 225.699 59.7398 225.199 59.2398 225.199ZM56.7398 206.199V214.699H43.7398V206.199H56.7398ZM43.7398 225.199V216.699H56.7398V225.199H43.7398Z" fill="#A3A5B0"/>
<path d="M126.24 227.199H127.74H142.74H144.24C144.84 227.199 145.24 226.799 145.24 226.199C145.24 225.599 144.84 225.199 144.24 225.199H143.74V205.199C143.74 204.599 143.34 204.199 142.74 204.199H127.74C127.14 204.199 126.74 204.599 126.74 205.199V225.199H126.24C125.64 225.199 125.24 225.599 125.24 226.199C125.24 226.799 125.64 227.199 126.24 227.199ZM141.74 206.199V214.699H128.74V206.199H141.74ZM128.74 216.699H141.74V225.199H128.74V216.699Z" fill="#A3A5B0"/>
<path d="M84.0395 205.699H81.0395C80.4395 205.699 80.0395 206.099 80.0395 206.699V230.699C80.0395 231.299 80.4395 231.699 81.0395 231.699H84.0395C84.6395 231.699 85.0395 231.299 85.0395 230.699V206.699C85.0395 206.199 84.6395 205.699 84.0395 205.699ZM83.0395 229.699H82.0395V207.699H83.0395V229.699Z" fill="#A3A5B0"/>
<path d="M97.0395 205.699H87.0395C86.4395 205.699 86.0395 206.099 86.0395 206.699V222.199C86.0395 222.799 86.4395 223.199 87.0395 223.199H97.0395C97.6395 223.199 98.0395 222.799 98.0395 222.199V206.699C98.0395 206.199 97.6395 205.699 97.0395 205.699ZM96.0395 221.199H88.0395V207.699H96.0395V221.199Z" fill="#A3A5B0"/>
<path d="M97.0395 224.199H87.0395C86.4395 224.199 86.0395 224.599 86.0395 225.199V230.699C86.0395 231.299 86.4395 231.699 87.0395 231.699H97.0395C97.6395 231.699 98.0395 231.299 98.0395 230.699V225.199C98.0395 224.699 97.6395 224.199 97.0395 224.199ZM96.0395 229.699H88.0395V226.199H96.0395V229.699Z" fill="#A3A5B0"/>
<path d="M103.04 205.699H100.04C99.4395 205.699 99.0395 206.099 99.0395 206.699V230.699C99.0395 231.299 99.4395 231.699 100.04 231.699H103.04C103.64 231.699 104.04 231.299 104.04 230.699V206.699C104.04 206.199 103.64 205.699 103.04 205.699ZM102.04 229.699H101.04V207.699H102.04V229.699Z" fill="#A3A5B0"/>
<path d="M790.84 178.6H775.84C775.24 178.6 774.84 179 774.84 179.6V201.1C774.84 201.7 775.24 202.1 775.84 202.1H790.84C791.44 202.1 791.84 201.7 791.84 201.1V179.6C791.84 179.1 791.34 178.6 790.84 178.6ZM789.84 180.6V187.1H776.84V180.6H789.84ZM776.84 189.1H782.34V200.1H776.84V189.1ZM784.34 200.1V189.1H789.84V200.1H784.34Z" fill="#A3A5B0"/>
<path d="M790.84 205.6H775.84C775.24 205.6 774.84 206 774.84 206.6V228.1C774.84 228.7 775.24 229.1 775.84 229.1H790.84C791.44 229.1 791.84 228.7 791.84 228.1V206.6C791.84 206.1 791.34 205.6 790.84 205.6ZM789.84 207.6V214.1H776.84V207.6H789.84ZM776.84 216.1H782.34V227.1H776.84V216.1ZM784.34 227.1V216.1H789.84V227.1H784.34Z" fill="#A3A5B0"/>
<path d="M798.84 202.1H813.84C814.44 202.1 814.84 201.7 814.84 201.1V179.6C814.84 179 814.44 178.6 813.84 178.6H798.84C798.24 178.6 797.84 179 797.84 179.6V201.1C797.84 201.7 798.24 202.1 798.84 202.1ZM799.84 189.1H805.34V200.1H799.84V189.1ZM807.34 200.1V189.1H812.84V200.1H807.34ZM812.84 180.6V187.1H799.84V180.6H812.84Z" fill="#A3A5B0"/>
<path d="M724.34 193.6H723.34V172.6C723.34 172 722.94 171.6 722.34 171.6H708.34C707.74 171.6 707.34 172 707.34 172.6V193.6H706.34C705.74 193.6 705.34 194 705.34 194.6C705.34 195.2 705.74 195.6 706.34 195.6H708.34H722.34H724.34C724.94 195.6 725.34 195.2 725.34 194.6C725.34 194.1 724.94 193.6 724.34 193.6ZM721.34 173.6V182.6H709.34V173.6H721.34ZM709.34 193.6V184.6H721.34V193.6H709.34Z" fill="#A3A5B0"/>
<path d="M765.84 193.6H764.84V172.6C764.84 172 764.44 171.6 763.84 171.6H749.84C749.24 171.6 748.84 172 748.84 172.6V193.6H747.84C747.24 193.6 746.84 194 746.84 194.6C746.84 195.2 747.24 195.6 747.84 195.6H749.84H763.84H765.84C766.44 195.6 766.84 195.2 766.84 194.6C766.84 194.1 766.34 193.6 765.84 193.6ZM762.84 173.6V182.6H750.84V173.6H762.84ZM750.84 193.6V184.6H762.84V193.6H750.84Z" fill="#A3A5B0"/>
<path d="M745.04 193.6H744.04V172.6C744.04 172 743.64 171.6 743.04 171.6H729.04C728.44 171.6 728.04 172 728.04 172.6V193.6H727.04C726.44 193.6 726.04 194 726.04 194.6C726.04 195.2 726.44 195.6 727.04 195.6H729.04H743.04H745.04C745.64 195.6 746.04 195.2 746.04 194.6C746.04 194.1 745.64 193.6 745.04 193.6ZM742.04 173.6V182.6H730.04V173.6H742.04ZM730.04 193.6V184.6H742.04V193.6H730.04Z" fill="#A3A5B0"/>
<path d="M724.34 226.1H723.34V205.1C723.34 204.5 722.94 204.1 722.34 204.1H708.34C707.74 204.1 707.34 204.5 707.34 205.1V226.1H706.34C705.74 226.1 705.34 226.5 705.34 227.1C705.34 227.7 705.74 228.1 706.34 228.1H708.34H722.34H724.34C724.94 228.1 725.34 227.7 725.34 227.1C725.34 226.6 724.94 226.1 724.34 226.1ZM721.34 206.1V215.1H709.34V206.1H721.34ZM709.34 226.1V217.1H721.34V226.1H709.34Z" fill="#A3A5B0"/>
<path d="M765.84 226.1H764.84V205.1C764.84 204.5 764.44 204.1 763.84 204.1H749.84C749.24 204.1 748.84 204.5 748.84 205.1V226.1H747.84C747.24 226.1 746.84 226.5 746.84 227.1C746.84 227.7 747.24 228.1 747.84 228.1H749.84H763.84H765.84C766.44 228.1 766.84 227.7 766.84 227.1C766.84 226.6 766.34 226.1 765.84 226.1ZM762.84 206.1V215.1H750.84V206.1H762.84ZM750.84 226.1V217.1H762.84V226.1H750.84Z" fill="#A3A5B0"/>
<path d="M745.04 226.1H744.04V205.1C744.04 204.5 743.64 204.1 743.04 204.1H729.04C728.44 204.1 728.04 204.5 728.04 205.1V226.1H727.04C726.44 226.1 726.04 226.5 726.04 227.1C726.04 227.7 726.44 228.1 727.04 228.1H729.04H743.04H745.04C745.64 228.1 746.04 227.7 746.04 227.1C746.04 226.6 745.64 226.1 745.04 226.1ZM742.04 206.1V215.1H730.04V206.1H742.04ZM730.04 226.1V217.1H742.04V226.1H730.04Z" fill="#A3A5B0"/>
<path d="M736.04 152.201C740.04 152.201 743.24 148.901 743.24 145.001C743.24 141.001 739.94 137.801 736.04 137.801C732.04 137.801 728.84 141.101 728.84 145.001C728.84 149.001 732.04 152.201 736.04 152.201ZM730.94 146.001H735.04V150.101C733.04 149.701 731.34 148.101 730.94 146.001ZM737.04 150.101V146.001H741.14C740.84 148.101 739.14 149.701 737.04 150.101ZM741.24 144.001H737.14V139.901C739.14 140.201 740.84 141.901 741.24 144.001ZM735.04 139.801V143.901H730.94C731.34 141.901 733.04 140.201 735.04 139.801Z" fill="#A3A5B0"/>
<path d="M806.24 218.1C808.44 218.1 810.24 216.3 810.24 214.1C810.24 211.9 808.44 210.1 806.24 210.1C804.04 210.1 802.24 211.9 802.24 214.1C802.24 216.3 804.04 218.1 806.24 218.1ZM806.24 212.1C807.34 212.1 808.24 213 808.24 214.1C808.24 215.2 807.34 216.1 806.24 216.1C805.14 216.1 804.24 215.2 804.24 214.1C804.24 213 805.14 212.1 806.24 212.1Z" fill="#A3A5B0"/>
<path d="M512.44 174.899L498.84 166.599C498.54 166.399 498.14 166.399 497.84 166.599L484.24 174.899C483.74 175.199 483.64 175.799 483.94 176.299L486.24 180.099C486.34 180.299 486.64 180.499 486.84 180.599C486.94 180.599 487.04 180.599 487.04 180.599C487.24 180.599 487.44 180.599 487.54 180.499L488.24 180.099V194.799C488.24 195.399 488.64 195.799 489.24 195.799H507.24C507.84 195.799 508.24 195.399 508.24 194.799V179.999L508.94 180.399C509.14 180.499 509.44 180.599 509.74 180.499C510.04 180.399 510.24 180.299 510.34 179.999L512.64 176.199C513.04 175.799 512.84 175.199 512.44 174.899ZM506.24 193.699H490.24V178.799L498.24 173.899L506.24 178.799V193.699ZM509.24 178.199L507.94 177.399C507.94 177.399 507.94 177.399 507.84 177.399L498.84 171.899C498.84 171.899 498.74 171.899 498.74 171.799C498.54 171.699 498.24 171.699 497.94 171.799C497.94 171.799 497.84 171.799 497.84 171.899L488.84 177.399C488.84 177.399 488.84 177.399 488.74 177.399L487.44 178.199L486.14 176.099L498.34 168.599L510.54 176.099L509.24 178.199Z" fill="#A3A5B0"/>
<path d="M588.74 166.599L575.14 174.899C574.64 175.199 574.54 175.799 574.84 176.299L577.14 180.099C577.24 180.299 577.54 180.499 577.74 180.599C577.84 180.599 577.94 180.599 577.94 180.599C578.14 180.599 578.34 180.599 578.44 180.499L579.14 180.099V194.799C579.14 195.399 579.54 195.799 580.14 195.799H598.14C598.74 195.799 599.14 195.399 599.14 194.799V179.999L599.84 180.399C600.04 180.499 600.34 180.599 600.64 180.499C600.94 180.399 601.14 180.299 601.24 179.999L603.54 176.199C603.84 175.699 603.64 175.099 603.24 174.799L589.64 166.499C589.44 166.399 589.04 166.399 588.74 166.599ZM597.24 193.699H581.24V178.799L589.24 173.899L597.24 178.799V193.699ZM601.54 176.099L600.24 178.199L598.94 177.399C598.94 177.399 598.94 177.399 598.84 177.399L589.84 171.899C589.84 171.899 589.74 171.899 589.74 171.799C589.54 171.699 589.24 171.699 588.94 171.799C588.94 171.799 588.84 171.799 588.84 171.899L579.84 177.399C579.84 177.399 579.84 177.399 579.74 177.399L578.44 178.199L577.14 176.099L589.34 168.599L601.54 176.099Z" fill="#A3A5B0"/>
<path d="M494.24 212.199H484.24C483.64 212.199 483.24 212.599 483.24 213.199V231.199C483.24 231.799 483.64 232.199 484.24 232.199H494.24C494.84 232.199 495.24 231.799 495.24 231.199V213.199C495.24 212.699 494.84 212.199 494.24 212.199ZM493.24 230.199H485.24V214.199H493.24V230.199Z" fill="#A3A5B0"/>
<path d="M510.24 212.199H500.24C499.64 212.199 499.24 212.599 499.24 213.199V231.199C499.24 231.799 499.64 232.199 500.24 232.199H510.24C510.84 232.199 511.24 231.799 511.24 231.199V213.199C511.24 212.699 510.84 212.199 510.24 212.199ZM509.24 230.199H501.24V214.199H509.24V230.199Z" fill="#A3A5B0"/>
<path d="M603.24 212.199H593.24C592.64 212.199 592.24 212.599 592.24 213.199V231.199C592.24 231.799 592.64 232.199 593.24 232.199H603.24C603.84 232.199 604.24 231.799 604.24 231.199V213.199C604.24 212.699 603.84 212.199 603.24 212.199ZM602.24 230.199H594.24V214.199H602.24V230.199Z" fill="#A3A5B0"/>
<path d="M587.24 212.199H577.24C576.64 212.199 576.24 212.599 576.24 213.199V231.199C576.24 231.799 576.64 232.199 577.24 232.199H587.24C587.84 232.199 588.24 231.799 588.24 231.199V213.199C588.24 212.699 587.84 212.199 587.24 212.199ZM586.24 230.199H578.24V214.199H586.24V230.199Z" fill="#A3A5B0"/>
<path d="M896.14 237.2C896.14 236.6 895.74 236.2 895.14 236.2H880.84V203.7V193C880.84 180 870.34 169.5 857.34 169.5C849.14 169.5 841.54 173.8 837.34 180.7C835.34 180 833.24 179.7 831.14 179.7C827.44 179.7 823.94 180.7 820.84 182.6V173.7H823.84C824.44 173.7 824.84 173.3 824.84 172.7V133.8C824.84 133.2 824.44 132.8 823.84 132.8H748.84L736.84 121.9C736.44 121.6 735.84 121.6 735.54 121.9L695.54 158.1C695.34 158.3 695.24 158.6 695.24 158.9C695.24 159.2 695.34 159.5 695.64 159.7L699.14 162.5C699.34 162.6 699.54 162.7 699.74 162.7C699.94 162.7 700.24 162.6 700.44 162.4L701.54 161.4V173.2C699.84 172.2 697.94 171.7 695.94 171.7C693.24 171.7 690.74 172.7 688.74 174.4C686.14 168.7 680.54 165 674.14 165C665.64 165 658.74 171.6 658.14 180C657.14 179.8 656.04 179.6 654.94 179.6C647.54 179.6 641.44 185.7 641.44 193.1V203.7V236.2H612.44V200.2H619.44C619.54 200.2 619.64 200.2 619.84 200.1C619.94 200.1 619.94 200 620.04 200C620.04 200 620.14 200 620.14 199.9C620.14 199.9 620.24 199.8 620.24 199.7C620.24 199.6 620.34 199.6 620.34 199.5C620.34 199.5 620.34 199.4 620.34 199.3C620.34 199.2 620.34 199.1 620.34 199.1C620.34 199 620.34 199 620.34 198.9C620.34 198.8 620.34 198.8 620.34 198.7L604.34 156.7C604.24 156.3 603.84 156.1 603.44 156.1H590.44V151.1H591.44C592.04 151.1 592.44 150.7 592.44 150.1V147.1C592.44 146.5 592.04 146.1 591.44 146.1H577.44C576.84 146.1 576.44 146.5 576.44 147.1V150.1C576.44 150.7 576.84 151.1 577.44 151.1H578.44V156.1H509.44V151.1H510.44C511.04 151.1 511.44 150.7 511.44 150.1V147.1C511.44 146.5 511.04 146.1 510.44 146.1H496.44C495.84 146.1 495.44 146.5 495.44 147.1V150.1C495.44 150.7 495.84 151.1 496.44 151.1H497.44V156.1H490.14C488.84 154.1 487.14 152.3 485.24 150.8C486.74 148.5 487.44 146 487.44 143.3C487.44 135.6 481.24 129.4 473.54 129.4C470.04 129.4 466.54 130.8 464.04 133.2C460.24 128.7 454.74 126.2 448.84 126.2C437.84 126.2 428.84 135.2 428.84 146.2C428.84 152.8 432.14 159 437.54 162.7C437.54 162.8 437.54 162.9 437.54 163.1C437.54 169.9 443.04 175.5 449.94 175.5C450.04 175.5 450.24 175.5 450.34 175.5C451.64 179.5 454.14 183.1 457.44 185.7C455.54 193.9 453.94 203.1 452.84 213.1C449.64 205 446.94 201.2 445.84 199.9C446.84 197.7 447.34 195.4 447.34 193C447.34 184 440.14 176.5 431.14 176.1C428.74 172.6 424.84 170.6 420.64 170.6C413.64 170.6 407.84 176.3 407.84 183.4C407.84 187.7 409.94 191.6 413.44 194C413.94 202.9 421.34 210 430.34 210C434.94 210 439.34 208.1 442.54 204.8C444.74 208.2 451.14 219.7 451.14 233.1C451.04 234.5 451.04 235.6 451.04 236.3H401.54V200.9L405.64 202.8C405.74 202.9 405.94 202.9 406.04 202.9C406.34 202.9 406.54 202.8 406.74 202.6L409.84 199.5C410.04 199.3 410.14 198.9 410.14 198.6C410.04 198.3 409.84 198 409.54 197.9L366.24 178C365.94 177.9 365.64 177.9 365.44 178L354.14 183.2V149.1L362.24 152.8C362.34 152.9 362.54 152.9 362.64 152.9C362.94 152.9 363.14 152.8 363.34 152.6L366.44 149.5C366.64 149.3 366.74 148.9 366.74 148.6C366.64 148.3 366.44 148 366.14 147.9L304.54 119.5C304.24 119.4 303.94 119.4 303.74 119.5L278.44 131V120.3H278.94C279.54 120.3 279.94 119.9 279.94 119.3V115.3C279.94 114.7 279.54 114.3 278.94 114.3H260.94C260.34 114.3 259.94 114.7 259.94 115.3V119.3C259.94 119.9 260.34 120.3 260.94 120.3H261.44V138.8L242.14 147.7C241.84 147.8 241.64 148.1 241.54 148.4C241.44 148.7 241.54 149.1 241.84 149.3L244.94 152.4C245.24 152.7 245.64 152.8 246.04 152.6L253.24 149.3V182.6L248.24 199C248.14 199.3 248.24 199.6 248.44 199.9C248.64 200.2 248.94 200.3 249.24 200.3H253.24V236.3H231.94V221.3H242.94C243.34 221.3 243.64 221.1 243.84 220.8C244.04 220.5 244.04 220.1 243.84 219.8L235.14 205.3H238.74C239.14 205.3 239.44 205.1 239.64 204.8C239.84 204.5 239.84 204.1 239.64 203.8L231.74 190.6H234.04C234.34 190.6 234.74 190.4 234.94 190.1C235.14 189.8 235.14 189.4 234.94 189.1L228.94 177.1C228.64 176.4 227.44 176.4 227.14 177.1L221.14 189.1C220.94 189.4 221.04 189.8 221.14 190.1C221.34 190.4 221.64 190.6 222.04 190.6H224.34L216.44 203.8C216.24 204.1 216.24 204.5 216.44 204.8C216.64 205.1 216.94 205.3 217.34 205.3H220.94L212.24 219.8C212.04 220.1 212.04 220.5 212.24 220.8C212.44 221.1 212.74 221.3 213.14 221.3H224.14V236.3H207.44V202.3C207.44 201.7 207.04 201.3 206.44 201.3H202.84C204.04 198 204.04 194.5 202.64 191.3C201.24 188 198.64 185.4 195.34 184C191.24 182.3 186.54 182.8 182.84 185.2C180.64 182.1 177.64 179.7 174.14 178.3C168.74 176.1 162.54 176.4 157.44 179.1V161.2H160.44C161.04 161.2 161.44 160.8 161.44 160.2V156.2C161.44 155.6 161.04 155.2 160.44 155.2L125.84 132.6C125.64 132.5 125.44 132.4 125.34 132.4H99.9396L93.4396 127.6C93.0396 127.3 92.6397 127.3 92.2397 127.6L85.7397 132.4H60.3397C60.1397 132.4 59.9397 132.5 59.8397 132.6L24.9396 155.4C24.9396 155.4 24.9397 155.4 24.8397 155.5C24.7397 155.5 24.7397 155.6 24.7397 155.6C24.7397 155.6 24.6396 155.7 24.6396 155.8C24.6396 155.9 24.5396 155.9 24.5396 156C24.5396 156.1 24.5396 156.1 24.5396 156.2V156.3V160.3C24.5396 160.9 24.9396 161.3 25.5396 161.3H28.5396V179.2C25.0396 176.2 20.4397 174.5 15.7397 174.5C6.33965 174.5 -1.56036 180.9 -3.56036 190C-4.36036 189.8 -5.26036 189.8 -6.06036 189.8C-12.7604 189.8 -18.4604 194.8 -19.3604 201.3H-20.4604C-21.0604 201.3 -21.4604 201.7 -21.4604 202.3V236.3H-45.9604V196.8L-42.7603 198.2C-42.6603 198.3 -42.4604 198.3 -42.3604 198.3C-42.2604 198.3 -42.0604 198.3 -41.9604 198.2C-41.7604 198.1 -41.5604 197.9 -41.4604 197.7L-39.2603 192.6C-39.0603 192.1 -39.2603 191.5 -39.7603 191.3L-52.9604 185.6V172.7C-50.9604 174.5 -48.3604 175.6 -45.6604 175.6C-39.7604 175.6 -34.9604 170.8 -34.9604 164.9C-34.9604 164 -35.0604 163 -35.3604 162.1C-30.5604 160.6 -27.1604 156 -27.1604 150.9C-27.1604 147 -29.0603 143.4 -32.2603 141.2C-29.6603 138.2 -28.2603 134.5 -28.2603 130.5C-28.2603 121.5 -35.5603 114.2 -44.5603 114.2C-48.5603 114.2 -52.3604 115.6 -55.3604 118.3C-58.9604 117.4 -62.8604 117.4 -66.4604 118C-67.9604 114.5 -71.4603 112.2 -75.2603 112.2C-80.5603 112.2 -84.8604 116.5 -84.8604 121.8C-84.8604 124.1 -84.0604 126.2 -82.6604 128C-84.8604 130.9 -86.4604 134.3 -87.3604 137.8C-94.4604 139.8 -99.2603 146.1 -99.2603 153.5C-99.2603 162.5 -91.9604 169.8 -82.9604 169.8C-79.8604 169.8 -76.9604 169 -74.3604 167.3C-71.4604 168.9 -68.2604 169.9 -64.9604 170.4V180.3L-81.5603 173.2C-81.8603 173.1 -82.0604 173.1 -82.3604 173.2L-105.96 183.3V146.1H-99.9604C-99.5604 146.1 -99.2603 145.9 -99.0603 145.6C-98.8603 145.3 -98.8603 144.9 -99.0603 144.6L-115.06 118.6C-115.26 118.3 -115.56 118.1 -115.96 118.1H-126.96V108.6H-125.96C-125.36 108.6 -124.96 108.2 -124.96 107.6V103.6C-124.96 103 -125.36 102.6 -125.96 102.6H-144.96C-145.56 102.6 -145.96 103 -145.96 103.6V107.6C-145.96 108.2 -145.56 108.6 -144.96 108.6H-143.96V118.1H-232.96C-233.26 118.1 -233.66 118.3 -233.86 118.6L-249.86 144.6C-250.06 144.9 -250.06 145.3 -249.86 145.6C-249.66 145.9 -249.36 146.1 -248.96 146.1H-242.96V219C-243.16 219 -243.36 219 -243.56 219C-246.86 219 -249.86 220.2 -252.26 222.3C-254.56 220.6 -257.36 219.6 -260.26 219.6C-267.56 219.6 -273.46 225.5 -273.46 232.8C-273.46 233.9 -273.36 235 -273.06 236.1H-276.86C-277.46 236.1 -277.86 236.5 -277.86 237.1C-277.86 237.7 -277.46 238.1 -276.86 238.1H-271.86H-242.26H-232.96H-199.76H-183.76H-165.76H-149.76H-117.26H-107.26H-57.2603H-47.2603H-20.7603H-15.7603H-10.7603H-5.76035H-0.760345H4.23965H9.23965H14.2397H19.2397H24.2397H29.2397H73.6396H110.64H156.24H161.24H166.24H171.24H176.24H181.24H186.24H191.24H196.24H201.24H206.24H224.94H230.94H254.24H269.24H283.74H331.24H341.04H391.04H400.84H452.14H456.64H476.24H518.74H536.24H551.24H568.74H611.24H642.24H648.24H652.24H658.24H662.24H668.24H672.24H678.24H682.24H688.24H692.24H698.24H702.24H769.74H795.24H817.24H819.74H823.74H829.74H833.74H839.74H843.74H849.74H853.74H859.74H863.74H869.74H873.74H879.74H895.04C895.64 238.2 896.14 237.8 896.14 237.2ZM831.14 181.7C833.34 181.7 835.44 182.1 837.44 182.9C837.94 183.1 838.44 182.9 838.64 182.5C842.44 175.8 849.64 171.6 857.34 171.6C869.24 171.6 878.84 181.2 878.84 193.1V200.3C878.24 200 877.54 199.7 876.84 199.7C874.64 199.7 872.84 201.5 872.84 203.7V208.7H870.84V203.7C870.84 201.5 869.04 199.7 866.84 199.7C864.64 199.7 862.84 201.5 862.84 203.7V208.7H860.84V203.7C860.84 201.5 859.04 199.7 856.84 199.7C854.64 199.7 852.84 201.5 852.84 203.7V208.7H850.84V203.7C850.84 201.5 849.04 199.7 846.84 199.7C844.64 199.7 842.84 201.5 842.84 203.7V208.7H840.84V203.7C840.84 201.5 839.04 199.7 836.84 199.7C834.64 199.7 832.84 201.5 832.84 203.7V208.7H830.84V203.7C830.84 201.5 829.04 199.7 826.84 199.7C824.64 199.7 822.84 201.5 822.84 203.7V208.7H820.84V185C823.84 182.9 827.34 181.7 831.14 181.7ZM870.84 229.2H872.84V230.2H870.84V229.2ZM872.84 227.2H870.84V213.7H872.84V227.2ZM872.84 211.7H870.84V210.7H872.84V211.7ZM870.84 232.2H872.84V236.2H870.84V232.2ZM860.84 229.2H862.84V230.2H860.84V229.2ZM862.84 227.2H860.84V213.7H862.84V227.2ZM862.84 211.7H860.84V210.7H862.84V211.7ZM860.84 232.2H862.84V236.2H860.84V232.2ZM850.84 229.2H852.84V230.2H850.84V229.2ZM852.84 227.2H850.84V213.7H852.84V227.2ZM852.84 211.7H850.84V210.7H852.84V211.7ZM850.84 232.2H852.84V236.2H850.84V232.2ZM840.84 229.2H842.84V230.2H840.84V229.2ZM842.84 227.2H840.84V213.7H842.84V227.2ZM842.84 211.7H840.84V210.7H842.84V211.7ZM840.84 232.2H842.84V236.2H840.84V232.2ZM830.84 229.2H832.84V230.2H830.84V229.2ZM832.84 227.2H830.84V213.7H832.84V227.2ZM832.84 211.7H830.84V210.7H832.84V211.7ZM830.84 232.2H832.84V236.2H830.84V232.2ZM822.84 211.7H820.84V210.7H822.84V211.7ZM820.84 213.7H822.84V227.2H820.84V213.7ZM820.84 229.2H822.84V230.2H820.84V229.2ZM819.84 171.7H770.84V169.8L771.84 170.6C772.24 170.9 772.74 170.9 773.14 170.6L776.14 168.1L779.14 170.6C779.54 170.9 780.04 170.9 780.44 170.6L783.44 168.1L786.44 170.6C786.84 170.9 787.34 170.9 787.74 170.6L790.74 168.1L793.74 170.6C794.14 170.9 794.64 170.9 795.04 170.6L798.04 168.1L801.04 170.6C801.44 170.9 801.94 170.9 802.34 170.6L805.34 168.1L808.34 170.6C808.74 170.9 809.24 170.9 809.64 170.6L812.64 168.1L815.64 170.6C816.04 170.9 816.54 170.9 816.94 170.6L819.94 168.1L822.64 170.3V171.7H819.84ZM771.34 161.9C771.74 162.2 772.24 162.2 772.64 161.9L776.14 159.1C776.34 158.9 776.44 158.7 776.54 158.4L779.14 160.6C779.54 160.9 780.04 160.9 780.44 160.6L783.44 158.1L786.44 160.6C786.84 160.9 787.34 160.9 787.74 160.6L790.74 158.1L793.74 160.6C794.14 160.9 794.64 160.9 795.04 160.6L798.04 158.1L801.04 160.6C801.44 160.9 801.94 160.9 802.34 160.6L805.34 158.1L808.34 160.6C808.74 160.9 809.24 160.9 809.64 160.6L812.64 158.1L815.64 160.6C816.04 160.9 816.54 160.9 816.94 160.6L819.94 158.1L822.64 160.3V162.7L820.64 161C820.24 160.7 819.74 160.7 819.34 161L816.34 163.5L813.34 161C812.94 160.7 812.44 160.7 812.04 161L809.04 163.5L806.04 161C805.64 160.7 805.14 160.7 804.74 161L801.74 163.5L798.74 161C798.34 160.7 797.84 160.7 797.44 161L794.44 163.5L791.44 161C791.04 160.7 790.54 160.7 790.14 161L787.14 163.5L784.14 161C783.74 160.7 783.24 160.7 782.84 161L779.84 163.5L776.84 161C776.44 160.7 775.94 160.7 775.54 161L772.54 163.5L770.94 162.2V161.4L771.34 161.9ZM770.84 164.8L771.84 165.6C772.24 165.9 772.74 165.9 773.14 165.6L776.14 163.1L779.14 165.6C779.54 165.9 780.04 165.9 780.44 165.6L783.44 163.1L786.44 165.6C786.84 165.9 787.34 165.9 787.74 165.6L790.74 163.1L793.74 165.6C794.14 165.9 794.64 165.9 795.04 165.6L798.04 163.1L801.04 165.6C801.44 165.9 801.94 165.9 802.34 165.6L805.34 163.1L808.34 165.6C808.74 165.9 809.24 165.9 809.64 165.6L812.64 163.1L815.64 165.6C816.04 165.9 816.54 165.9 816.94 165.6L819.94 163.1L822.64 165.3V167.7L820.64 166C820.24 165.7 819.74 165.7 819.34 166L816.34 168.5L813.34 166C812.94 165.7 812.44 165.7 812.04 166L809.04 168.5L806.04 166C805.64 165.7 805.14 165.7 804.74 166L801.74 168.5L798.74 166C798.34 165.7 797.84 165.7 797.44 166L794.44 168.5L791.44 166C791.04 165.7 790.54 165.7 790.14 166L787.14 168.5L784.14 166C783.74 165.7 783.24 165.7 782.84 166L779.84 168.5L776.84 166C776.44 165.7 775.94 165.7 775.54 166L772.54 168.5L770.94 167.2V164.8H770.84ZM822.84 142.8L820.84 141.1C820.44 140.8 819.94 140.8 819.54 141.1L816.54 143.6L813.54 141.1C813.14 140.8 812.64 140.8 812.24 141.1L809.24 143.6L806.24 141.1C805.84 140.8 805.34 140.8 804.94 141.1L801.94 143.6L798.94 141.1C798.54 140.8 798.04 140.8 797.64 141.1L794.64 143.6L791.64 141.1C791.24 140.8 790.74 140.8 790.34 141.1L787.34 143.6L784.34 141.1C783.94 140.8 783.44 140.8 783.04 141.1L780.04 143.6L777.04 141.1C776.64 140.8 776.14 140.8 775.74 141.1L772.74 143.6L769.84 141.1C769.44 140.8 768.84 140.8 768.54 141.1L765.94 143.5L762.84 141C762.44 140.7 761.94 140.7 761.64 141L759.84 142.4L755.14 138.2L755.54 138L758.64 140.6C759.04 140.9 759.64 140.9 759.94 140.5L762.24 138.3L764.94 140.7C765.34 141 765.84 141 766.24 140.7L769.14 138.2L772.14 140.7C772.54 141 773.04 141 773.44 140.7L776.44 138.2L779.44 140.7C779.84 141 780.34 141 780.74 140.7L783.74 138.2L786.74 140.7C787.14 141 787.64 141 788.04 140.7L791.04 138.2L794.04 140.7C794.44 141 794.94 141 795.34 140.7L798.34 138.2L801.34 140.7C801.74 141 802.24 141 802.64 140.7L805.64 138.2L808.64 140.7C809.04 141 809.54 141 809.94 140.7L812.94 138.2L815.94 140.7C816.34 141 816.84 141 817.24 140.7L820.24 138.2L822.94 140.4V142.8H822.84ZM761.84 143.1L765.04 145.6C765.44 145.9 765.94 145.9 766.34 145.6L768.94 143.2L771.84 145.6C772.24 145.9 772.74 145.9 773.14 145.6L776.14 143.1L779.14 145.6C779.54 145.9 780.04 145.9 780.44 145.6L783.44 143.1L786.44 145.6C786.84 145.9 787.34 145.9 787.74 145.6L790.74 143.1L793.74 145.6C794.14 145.9 794.64 145.9 795.04 145.6L798.04 143.1L801.04 145.6C801.44 145.9 801.94 145.9 802.34 145.6L805.34 143.1L808.34 145.6C808.74 145.9 809.24 145.9 809.64 145.6L812.64 143.1L815.64 145.6C816.04 145.9 816.54 145.9 816.94 145.6L819.94 143.1L822.64 145.3V147.7L820.64 146C820.24 145.7 819.74 145.7 819.34 146L816.34 148.5L813.34 146C812.94 145.7 812.44 145.7 812.04 146L809.04 148.5L806.04 146C805.64 145.7 805.14 145.7 804.74 146L801.74 148.5L798.74 146C798.34 145.7 797.84 145.7 797.44 146L794.44 148.5L791.44 146C791.04 145.7 790.54 145.7 790.14 146L787.14 148.5L784.14 146C783.74 145.7 783.24 145.7 782.84 146L779.84 148.5L776.84 146C776.44 145.7 775.94 145.7 775.54 146L772.54 148.5L769.54 146C769.14 145.7 768.64 145.7 768.24 146L765.74 148L760.94 143.7L761.84 143.1ZM768.74 148.2L771.74 150.7C772.14 151 772.64 151 773.04 150.7L776.04 148.2L779.04 150.7C779.44 151 779.94 151 780.34 150.7L783.34 148.2L786.34 150.7C786.74 151 787.24 151 787.64 150.7L790.64 148.2L793.64 150.7C794.04 151 794.54 151 794.94 150.7L797.94 148.2L800.94 150.7C801.34 151 801.84 151 802.24 150.7L805.24 148.2L808.24 150.7C808.64 151 809.14 151 809.54 150.7L812.54 148.2L815.54 150.7C815.94 151 816.44 151 816.84 150.7L819.84 148.2L822.54 150.4V152.8L820.54 151.1C820.14 150.8 819.64 150.8 819.24 151.1L816.24 153.6L813.24 151.1C812.84 150.8 812.34 150.8 811.94 151.1L808.94 153.6L805.94 151.1C805.54 150.8 805.04 150.8 804.64 151.1L801.64 153.6L798.64 151.1C798.24 150.8 797.74 150.8 797.34 151.1L794.34 153.6L791.34 151.1C790.94 150.8 790.44 150.8 790.04 151.1L787.04 153.6L784.04 151.1C783.64 150.8 783.14 150.8 782.74 151.1L779.74 153.6L776.74 151.1C776.34 150.8 775.84 150.8 775.44 151.1L772.04 153.9L767.14 149.5L768.74 148.2ZM776.14 153.2L779.14 155.7C779.54 156 780.04 156 780.44 155.7L783.44 153.2L786.44 155.7C786.84 156 787.34 156 787.74 155.7L790.74 153.2L793.74 155.7C794.14 156 794.64 156 795.04 155.7L798.04 153.2L801.04 155.7C801.44 156 801.94 156 802.34 155.7L805.34 153.2L808.34 155.7C808.74 156 809.24 156 809.64 155.7L812.64 153.2L815.64 155.7C816.04 156 816.54 156 816.94 155.7L819.94 153.2L822.64 155.4V157.8L820.64 156.1C820.24 155.8 819.74 155.8 819.34 156.1L816.34 158.6L813.34 156.1C812.94 155.8 812.44 155.8 812.04 156.1L809.04 158.6L806.04 156.1C805.64 155.8 805.14 155.8 804.74 156.1L801.74 158.6L798.74 156.1C798.34 155.8 797.84 155.8 797.44 156.1L794.44 158.6L791.44 156.1C791.04 155.8 790.54 155.8 790.14 156.1L787.14 158.6L784.14 156.1C783.74 155.8 783.24 155.8 782.84 156.1L779.84 158.6L776.84 156.1C776.44 155.8 775.94 155.8 775.54 156.1L775.04 156.5L773.64 155.2L776.14 153.2ZM822.84 134.9V137.8L820.84 136.1C820.44 135.8 819.94 135.8 819.54 136.1L816.54 138.6L813.54 136.1C813.14 135.8 812.64 135.8 812.24 136.1L809.24 138.6L806.24 136.1C805.84 135.8 805.34 135.8 804.94 136.1L801.94 138.6L798.94 136.1C798.54 135.8 798.04 135.8 797.64 136.1L794.64 138.6L791.64 136.1C791.24 135.8 790.74 135.8 790.34 136.1L787.34 138.6L784.34 136.1C783.94 135.8 783.44 135.8 783.04 136.1L780.04 138.6L777.04 136.1C776.64 135.8 776.14 135.8 775.74 136.1L772.74 138.6L769.74 136.1C769.34 135.8 768.84 135.8 768.44 136.1L765.54 138.5L762.84 136.1C762.44 135.8 761.84 135.8 761.44 136.1L759.14 138.4L756.14 136C755.84 135.7 755.34 135.7 755.04 135.9L753.44 136.8L751.34 134.9H822.84V134.9ZM699.54 160.4L697.64 158.9L736.14 124.1L774.04 158.3L772.14 159.8L770.64 158.4L736.94 127.9C736.54 127.6 735.94 127.6 735.64 127.9L701.84 158.4L699.54 160.4ZM699.34 229.2H701.34V230.2H699.34V229.2ZM701.34 227.2H699.34V213.7H701.34V227.2ZM701.34 211.7H699.34V210.7H701.34V211.7ZM699.34 232.2H701.34V236.2H699.34V232.2ZM654.84 181.6C656.14 181.6 657.44 181.8 658.64 182.2C658.94 182.3 659.34 182.3 659.54 182.1C659.84 181.9 659.94 181.6 659.94 181.3V181C659.94 173.3 666.24 167 673.94 167C679.94 167 685.24 170.8 687.14 176.5C687.24 176.8 687.54 177.1 687.94 177.2C688.34 177.3 688.64 177.1 688.84 176.9C690.54 174.9 693.04 173.8 695.64 173.8C697.74 173.8 699.64 174.5 701.24 175.8V208.8H699.24V203.8C699.24 201.6 697.44 199.8 695.24 199.8C693.04 199.8 691.24 201.6 691.24 203.8V208.8H689.24V203.8C689.24 201.6 687.44 199.8 685.24 199.8C683.04 199.8 681.24 201.6 681.24 203.8V208.8H679.24V203.8C679.24 201.6 677.44 199.8 675.24 199.8C673.04 199.8 671.24 201.6 671.24 203.8V208.8H669.24V203.8C669.24 201.6 667.44 199.8 665.24 199.8C663.04 199.8 661.24 201.6 661.24 203.8V208.8H659.24V203.8C659.24 201.6 657.44 199.8 655.24 199.8C653.04 199.8 651.24 201.6 651.24 203.8V208.8H649.24V203.8C649.24 201.6 647.44 199.8 645.24 199.8C644.54 199.8 643.84 200 643.24 200.4V193.3C643.34 186.8 648.54 181.6 654.84 181.6ZM689.34 229.2H691.34V230.2H689.34V229.2ZM691.34 227.2H689.34V213.7H691.34V227.2ZM691.34 211.7H689.34V210.7H691.34V211.7ZM689.34 232.2H691.34V236.2H689.34V232.2ZM679.34 229.2H681.34V230.2H679.34V229.2ZM681.34 227.2H679.34V213.7H681.34V227.2ZM681.34 211.7H679.34V210.7H681.34V211.7ZM679.34 232.2H681.34V236.2H679.34V232.2ZM669.34 229.2H671.34V230.2H669.34V229.2ZM671.34 227.2H669.34V213.7H671.34V227.2ZM671.34 211.7H669.34V210.7H671.34V211.7ZM669.34 232.2H671.34V236.2H669.34V232.2ZM659.34 229.2H661.34V230.2H659.34V229.2ZM661.34 227.2H659.34V213.7H661.34V227.2ZM661.34 211.7H659.34V210.7H661.34V211.7ZM659.34 232.2H661.34V236.2H659.34V232.2ZM649.34 229.2H651.34V230.2H649.34V229.2ZM651.34 227.2H649.34V213.7H651.34V227.2ZM651.34 211.7H649.34V210.7H651.34V211.7ZM649.34 232.2H651.34V236.2H649.34V232.2ZM617.84 198.2H581.34L544.24 177.4C543.94 177.2 543.54 177.2 543.24 177.4L506.24 198.1H469.64L472.84 189.8L484.94 158.1H489.44H498.24H508.24H579.24H589.24H602.54L617.84 198.2ZM551.24 209.2H536.24C535.64 209.2 535.24 209.6 535.24 210.2V236.2H519.74V199.8L543.74 186.3L567.74 199.7V236.1H552.24V210.1C552.24 209.7 551.84 209.2 551.24 209.2ZM544.24 184.3C543.94 184.1 543.54 184.1 543.24 184.3L542.74 184.6L518.24 198.3L518.14 198.4L509.74 203.1L507.74 199.6L543.64 179.5L579.64 199.6L577.64 203.1L544.24 184.3ZM462.24 188.6C464.84 189.8 467.64 190.5 470.54 190.6L467.34 198.9C467.34 199 467.34 199 467.34 199.1C467.34 199.2 467.34 199.2 467.34 199.3C467.34 199.4 467.34 199.5 467.34 199.5V199.6C467.34 199.7 467.44 199.7 467.44 199.8C467.44 199.9 467.54 199.9 467.54 200L467.64 200.1C467.74 200.1 467.74 200.2 467.84 200.2C467.94 200.2 468.04 200.3 468.24 200.3H475.24V236.3H457.64C457.54 231.5 457.24 209.9 462.24 188.6ZM578.24 148.2H590.24V149.2H589.24H579.24H578.24V148.2ZM580.24 151.2H588.24V156.2H580.24V151.2ZM497.24 148.2H509.24V149.2H508.24H498.24H497.24V148.2ZM499.24 151.2H507.24V156.2H499.24V151.2ZM365.94 179.8L407.54 198.9L405.94 200.5L401.14 198.3L366.34 182.3C366.04 182.2 365.74 182.2 365.54 182.3L330.84 198.3L326.04 200.5L324.44 198.9L365.94 179.8ZM261.94 116.3H277.94V118.3H277.44H262.44H261.94V116.3ZM263.44 120.3H276.44V131.9L263.44 137.9V120.3ZM245.84 150.5L244.24 148.9L304.14 121.3L364.04 148.9L362.44 150.5L304.54 123.8C304.44 123.7 304.24 123.7 304.14 123.7C304.04 123.7 303.84 123.7 303.74 123.8L253.94 146.7C253.84 146.7 253.74 146.8 253.74 146.8L245.84 150.5ZM304.14 125.8L352.14 147.9V181.7H255.14V148.4L304.14 125.8ZM254.94 183.7H352.24V183.9L322.24 197.7C322.04 197.8 321.84 198 321.74 198.2H250.54L254.94 183.7ZM173.14 180.1C176.64 181.5 179.44 183.9 181.44 187.1C181.64 187.3 181.84 187.5 182.14 187.6C182.44 187.7 182.74 187.6 182.94 187.4C186.14 184.9 190.54 184.3 194.34 185.8C197.14 187 199.44 189.2 200.64 192C201.84 194.8 201.84 198 200.64 200.8C200.54 201 200.54 201.1 200.44 201.3H196.24H191.24H186.24H181.24H176.24H171.24H166.24H161.24H157.24V181.5C162.04 178.4 167.94 177.9 173.14 180.1ZM124.74 134.5L156.54 155.3H130.64L102.34 134.5H124.74ZM60.3397 134.5H82.7397L54.4396 155.3H28.5396L60.3397 134.5ZM26.2397 157.2H54.8397C55.0397 157.2 55.2396 157.1 55.4396 157L92.5396 129.7L129.64 157C129.84 157.1 130.04 157.2 130.24 157.2H159.14V159.2H156.14H129.24L93.1396 132.7C92.7396 132.4 92.3396 132.4 91.9396 132.7L55.7397 159.3H29.1396H26.1396V157.2H26.2397ZM-6.36035 191.7C-5.36035 191.7 -4.36035 191.8 -3.36035 192.1C-3.06035 192.2 -2.76036 192.1 -2.56036 192C-2.36036 191.8 -2.16034 191.6 -2.16034 191.3C-0.760339 182.7 6.63966 176.4 15.3397 176.4C20.1397 176.4 24.7396 178.4 28.1396 181.8V201.1H24.1396H19.1396H14.1396H9.13965H4.13965H-0.860352H-5.86035H-10.8604H-15.8604H-17.7603C-16.6603 195.8 -11.8604 191.7 -6.36035 191.7ZM-63.2603 181.3V169.7C-63.2603 169.2 -63.6604 168.8 -64.1604 168.7C-67.6604 168.4 -71.0604 167.3 -74.1604 165.5C-74.4604 165.3 -74.8603 165.3 -75.2603 165.5C-77.6603 167.1 -80.4603 168 -83.2603 168C-91.1603 168 -97.5603 161.6 -97.5603 153.7C-97.5603 147 -93.0603 141.3 -86.5603 139.8C-86.1603 139.7 -85.8604 139.4 -85.8604 139C-85.0604 135.3 -83.3604 131.7 -80.9604 128.8C-80.6604 128.4 -80.6603 127.8 -81.0603 127.5C-82.4603 126.1 -83.2603 124.1 -83.2603 122.1C-83.2603 117.9 -79.8604 114.5 -75.6604 114.5C-72.3604 114.5 -69.4604 116.6 -68.4604 119.7C-68.2604 120.2 -67.7603 120.5 -67.2603 120.4C-63.4603 119.6 -59.4603 119.6 -55.7603 120.6C-55.4603 120.7 -55.0604 120.6 -54.8604 120.4C-52.1604 117.9 -48.7603 116.5 -45.0603 116.5C-37.1603 116.5 -30.7603 122.9 -30.7603 130.8C-30.7603 134.6 -32.2604 138.3 -34.9604 141C-35.1604 141.2 -35.2603 141.5 -35.2603 141.9C-35.2603 142.2 -35.0603 142.5 -34.7603 142.6C-31.5603 144.3 -29.6604 147.6 -29.6604 151.2C-29.6604 155.7 -32.8603 159.7 -37.2603 160.7C-37.5603 160.8 -37.7604 160.9 -37.9604 161.2C-38.0604 161.5 -38.1603 161.8 -38.0603 162C-37.6603 163 -37.4604 164 -37.4604 165.1C-37.4604 169.9 -41.3604 173.8 -46.1604 173.8C-49.2604 173.8 -52.0604 172.2 -53.6604 169.5C-53.8604 169.1 -54.3603 168.9 -54.7603 169C-55.1603 169.1 -55.4604 169.5 -55.4604 170V184.8L-61.3604 182.3L-63.2603 181.3ZM-82.2603 175.3L-58.2603 185.6L-54.6604 187.2L-41.7603 192.7L-43.1604 195.9L-81.8604 179.3C-81.9604 179.2 -82.1603 179.2 -82.2603 179.2C-82.3603 179.2 -82.5604 179.2 -82.6604 179.3L-117.66 194.3L-121.36 195.9L-122.76 192.7L-82.2603 175.3ZM-144.26 104.7H-127.26V106.7H-128.26H-143.26H-144.26V104.7ZM-142.26 108.7H-129.26V118.2H-142.26V108.7ZM-232.66 120.2H-143.26H-128.26H-116.86L-102.06 144.2H-107.26H-242.26H-247.46L-232.66 120.2ZM-241.26 146.2H-108.26V184.3L-124.46 191.3C-124.96 191.5 -125.16 192.1 -124.96 192.6L-122.76 197.7C-122.66 197.9 -122.46 198.1 -122.26 198.2C-122.06 198.3 -121.76 198.3 -121.46 198.2L-118.26 196.8V236.3H-148.76V197L-146.06 198.6C-145.86 198.7 -145.76 198.7 -145.56 198.7C-145.26 198.7 -144.86 198.5 -144.66 198.2L-141.86 193.5C-141.76 193.3 -141.66 193 -141.76 192.7C-141.86 192.4 -141.96 192.2 -142.26 192.1L-174.26 173C-174.56 172.8 -174.96 172.8 -175.26 173L-207.36 192.2C-207.56 192.3 -207.76 192.6 -207.86 192.8C-207.96 193.1 -207.86 193.3 -207.76 193.6L-204.96 198.3C-204.66 198.8 -204.06 198.9 -203.56 198.6L-200.86 197V236.2H-231.46C-231.06 234.9 -230.76 233.5 -230.76 232.1C-230.76 225.8 -235.26 220.6 -241.16 219.4V146.2H-241.26ZM-203.66 196.4L-205.46 193.4L-174.76 175L-144.06 193.4L-145.86 196.4L-174.26 179.4C-174.56 179.2 -174.96 179.2 -175.26 179.4L-203.66 196.4ZM-242.26 236.2H-271.16C-271.46 235.1 -271.66 234 -271.66 232.9C-271.66 226.7 -266.66 221.7 -260.46 221.7C-257.76 221.7 -255.16 222.7 -253.06 224.5C-252.66 224.9 -252.06 224.8 -251.66 224.4C-249.56 222.2 -246.76 221 -243.76 221C-237.66 221 -232.76 225.9 -232.76 232C-232.76 233.4 -233.06 234.8 -233.56 236.1H-242.26V236.2ZM-182.76 236.2V205.7H-166.76V236.2H-182.76ZM-164.76 236.2V204.7C-164.76 204.1 -165.16 203.7 -165.76 203.7H-183.76C-184.36 203.7 -184.76 204.1 -184.76 204.7V236.2H-198.76V195.8L-174.76 181.4L-150.76 195.8V236.2H-164.76ZM-58.2603 213.7V215.2H-106.26V213.7H-58.2603ZM-106.26 211.7V210.2H-58.2603V211.7H-106.26ZM-58.2603 217.2V218.7H-106.26V217.2H-58.2603ZM-58.2603 220.7V222.2H-106.26V220.7H-58.2603ZM-58.2603 224.2V225.7H-106.26V224.2H-58.2603ZM-58.2603 227.7V229.2H-106.26V227.7H-58.2603ZM-58.2603 208.2H-106.26V206.7H-58.2603V208.2ZM-106.26 231.2H-58.2603V232.7H-106.26V231.2ZM-58.2603 204.7H-106.26V203.2H-58.2603V204.7ZM-106.26 236.2V234.7H-58.2603V236.2H-106.26ZM-56.2603 236.2V202.2C-56.2603 201.6 -56.6603 201.2 -57.2603 201.2H-107.26C-107.86 201.2 -108.26 201.6 -108.26 202.2V236.2H-116.26V195.9L-82.2603 181.3L-48.2603 195.9V236.2H-56.2603ZM-19.7603 203.2H-16.7603V236.2H-19.7603V203.2ZM-14.7603 203.2H-11.7603V236.2H-14.7603V203.2ZM-9.76035 203.2H-6.76035V236.2H-9.76035V203.2ZM-4.76035 203.2H-1.76035V236.2H-4.76035V203.2ZM0.239655 203.2H3.23965V236.2H0.239655V203.2ZM5.23965 203.2H8.23965V236.2H5.23965V203.2ZM10.2397 203.2H13.2397V236.2H10.2397V203.2ZM15.2397 203.2H18.2397V236.2H15.2397V203.2ZM20.2397 203.2H23.2397V236.2H20.2397V203.2ZM25.2397 203.2H28.2397V236.2H25.2397V203.2ZM30.2397 202.2V161.2H56.1396C56.3396 161.2 56.5397 161.1 56.7397 161L92.5396 134.7L128.34 161C128.54 161.1 128.74 161.2 128.94 161.2H155.14V202.2V236.2H111.54V234.2C111.54 233.6 111.14 233.2 110.54 233.2H109.54V231.2C109.54 230.6 109.14 230.2 108.54 230.2H107.04V201.2H109.54C110.14 201.2 110.54 200.8 110.54 200.2V197.2C110.54 196.6 110.14 196.2 109.54 196.2H74.5396C73.9396 196.2 73.5396 196.6 73.5396 197.2V200.2C73.5396 200.8 73.9396 201.2 74.5396 201.2H77.0396V230.2H75.5396C74.9396 230.2 74.5396 230.6 74.5396 231.2V233.2H73.5396C72.9396 233.2 72.5396 233.6 72.5396 234.2V236.2H30.1396V202.2H30.2397ZM106.04 199.2H78.0396H75.5396V198.2H108.54V199.2H106.04ZM79.0396 201.2H105.04V230.2H79.0396V201.2ZM78.0396 232.2H106.04H107.54V233.2H76.5396V232.2H78.0396ZM74.5396 236.2V235.2H75.5396H108.54H109.54V236.2H74.5396ZM157.24 203.2H160.24V236.2H157.24V203.2ZM162.24 203.2H165.24V236.2H162.24V203.2ZM167.24 203.2H170.24V236.2H167.24V203.2ZM172.24 203.2H175.24V236.2H172.24V203.2ZM177.24 203.2H180.24V236.2H177.24V203.2ZM182.24 203.2H185.24V236.2H182.24V203.2ZM187.24 203.2H190.24V236.2H187.24V203.2ZM192.24 203.2H195.24V236.2H192.24V203.2ZM197.24 203.2H200.24V236.2H197.24V203.2ZM202.24 236.2V203.2H205.24V236.2H202.24ZM225.94 236.2V220.2C225.94 219.6 225.54 219.2 224.94 219.2H214.74L223.44 204.7C223.64 204.4 223.64 204 223.44 203.7C223.24 203.4 222.94 203.2 222.54 203.2H218.94L226.84 190C227.04 189.7 227.04 189.3 226.84 189C226.64 188.7 226.34 188.5 225.94 188.5H223.54L227.94 179.7L232.34 188.5H229.94C229.54 188.5 229.24 188.7 229.04 189C228.84 189.3 228.84 189.7 229.04 190L236.94 203.2H233.34C232.94 203.2 232.64 203.4 232.44 203.7C232.24 204 232.24 204.4 232.44 204.7L241.14 219.2H230.94C230.34 219.2 229.94 219.6 229.94 220.2V236.2H225.94ZM255.24 200.2H322.84L325.04 202.4C325.34 202.7 325.74 202.8 326.14 202.6L330.24 200.7V236.1H284.74V209.6C284.74 209 284.34 208.6 283.74 208.6H269.24C268.64 208.6 268.24 209 268.24 209.6V236.1H255.24V200.2V200.2ZM270.24 236.2V210.7H282.74V236.2H270.24ZM341.94 236.2V210.7H389.94V236.2H341.94ZM391.94 236.2V209.7C391.94 209.1 391.54 208.7 390.94 208.7H340.94C340.34 208.7 339.94 209.1 339.94 209.7V236.2H332.14V199.8L365.94 184.3L399.74 199.8V236.2H391.94ZM453.24 236.2C453.24 235.5 453.34 234.4 453.34 233V232.9C453.34 217.3 445.04 204.6 443.84 202.7C443.74 202.5 443.64 202.3 443.44 202.2C443.04 201.9 442.44 202 442.04 202.4C439.14 205.9 434.94 207.9 430.44 207.9C422.44 207.9 415.74 201.3 415.54 193.3C415.54 193 415.34 192.6 415.04 192.5C411.84 190.5 409.94 187.1 409.94 183.3C409.94 177.4 414.74 172.5 420.74 172.5C424.44 172.5 427.84 174.4 429.84 177.5C430.04 177.8 430.34 178 430.64 178C438.74 178.1 445.44 184.8 445.44 192.9C445.44 195.3 444.94 197.5 443.84 199.7C443.64 200.2 443.74 200.8 444.24 201C444.34 201 444.34 201.1 444.44 201.1C445.44 202.3 448.74 206.9 452.54 217.6C452.64 218.1 452.94 218.4 453.44 218.5C454.04 218.5 454.44 218.1 454.54 217.6C455.64 205.7 457.44 194.9 459.74 185.5C459.84 185.1 459.64 184.7 459.34 184.5C455.94 181.9 453.34 178.2 452.14 174.1C452.04 173.6 451.54 173.3 451.04 173.4C450.74 173.4 450.34 173.5 449.94 173.5C444.24 173.5 439.54 168.8 439.54 163.1C439.54 162.8 439.54 162.6 439.54 162.3C439.54 161.9 439.44 161.6 439.04 161.4C433.84 158.1 430.74 152.4 430.74 146.3C430.74 136.4 438.84 128.3 448.74 128.3C454.44 128.3 459.64 130.9 463.04 135.4C463.24 135.6 463.54 135.8 463.84 135.8C464.14 135.8 464.44 135.7 464.64 135.5C466.94 133 470.14 131.5 473.54 131.5C480.14 131.5 485.44 136.8 485.44 143.4C485.44 146 484.64 148.5 483.04 150.6C482.84 150.8 482.84 151.1 482.84 151.4C482.84 151.7 483.04 151.9 483.24 152.1C484.94 153.3 486.44 154.8 487.64 156.4H484.34C483.94 156.4 483.54 156.7 483.44 157L471.34 188.7C468.14 188.7 464.94 187.9 462.04 186.4C461.74 186.3 461.44 186.2 461.14 186.4C460.84 186.5 460.64 186.8 460.54 187.1C455.24 208.9 455.54 231.4 455.64 236.4H453.24V236.2ZM477.24 200.2H505.84L508.54 205C508.64 205.2 508.84 205.4 509.14 205.5C509.24 205.5 509.34 205.5 509.44 205.5C509.64 205.5 509.74 205.5 509.94 205.4L517.74 201V236.3H477.24V200.2ZM537.24 236.2V211.2H550.24V236.2H537.24ZM569.74 236.2V200.9L577.64 205.3C578.14 205.6 578.74 205.4 579.04 204.9L581.74 200.2H610.34V236.2H569.74ZM643.34 236.2V203.7C643.34 202.6 644.24 201.7 645.34 201.7C646.44 201.7 647.34 202.6 647.34 203.7V209.7V212.7V228.2V231.2V236.2H643.34ZM653.34 236.2V231.2V228.2V212.7V209.7V203.7C653.34 202.6 654.24 201.7 655.34 201.7C656.44 201.7 657.34 202.6 657.34 203.7V209.7V212.7V228.2V231.2V236.2H653.34ZM663.34 236.2V231.2V228.2V212.7V209.7V203.7C663.34 202.6 664.24 201.7 665.34 201.7C666.44 201.7 667.34 202.6 667.34 203.7V209.7V212.7V228.2V231.2V236.2H663.34ZM673.34 236.2V231.2V228.2V212.7V209.7V203.7C673.34 202.6 674.24 201.7 675.34 201.7C676.44 201.7 677.34 202.6 677.34 203.7V209.7V212.7V228.2V231.2V236.2H673.34ZM683.34 236.2V231.2V228.2V212.7V209.7V203.7C683.34 202.6 684.24 201.7 685.34 201.7C686.44 201.7 687.34 202.6 687.34 203.7V209.7V212.7V228.2V231.2V236.2H683.34ZM693.34 236.2V231.2V228.2V212.7V209.7V203.7C693.34 202.6 694.24 201.7 695.34 201.7C696.44 201.7 697.34 202.6 697.34 203.7V209.7V212.7V228.2V231.2V236.2H693.34ZM703.34 231.2V228.2V212.7V209.7V159.6L736.14 130L768.84 159.6V172.7V236.2H703.34V231.2ZM770.84 173.7H818.84V184.5V236.2H818.34V233.7C818.34 233.1 817.94 232.7 817.34 232.7H816.84V229.7C816.84 229.1 816.44 228.7 815.84 228.7H814.84V203.7C814.84 203.1 814.44 202.7 813.84 202.7H798.84C798.24 202.7 797.84 203.1 797.84 203.7V228.7H796.84C796.24 228.7 795.84 229.1 795.84 229.7V232.7H795.34C794.74 232.7 794.34 233.1 794.34 233.7V236.2H770.84V173.7ZM812.84 228.7H799.84V204.7H812.84V228.7ZM798.84 230.7H813.84H814.84V232.7H797.84V230.7H798.84ZM796.34 236.2V234.7H796.84H815.84H816.34V236.2H796.34ZM820.84 232.2H822.84V236.2H820.84V232.2ZM824.84 236.2V231.2V228.2V212.7V209.7V203.7C824.84 202.6 825.74 201.7 826.84 201.7C827.94 201.7 828.84 202.6 828.84 203.7V209.7V212.7V228.2V231.2V236.2H824.84ZM834.84 236.2V231.2V228.2V212.7V209.7V203.7C834.84 202.6 835.74 201.7 836.84 201.7C837.94 201.7 838.84 202.6 838.84 203.7V209.7V212.7V228.2V231.2V236.2H834.84ZM844.84 236.2V231.2V228.2V212.7V209.7V203.7C844.84 202.6 845.74 201.7 846.84 201.7C847.94 201.7 848.84 202.6 848.84 203.7V209.7V212.7V228.2V231.2V236.2H844.84ZM854.84 236.2V231.2V228.2V212.7V209.7V203.7C854.84 202.6 855.74 201.7 856.84 201.7C857.94 201.7 858.84 202.6 858.84 203.7V209.7V212.7V228.2V231.2V236.2H854.84ZM864.84 236.2V231.2V228.2V212.7V209.7V203.7C864.84 202.6 865.74 201.7 866.84 201.7C867.94 201.7 868.84 202.6 868.84 203.7V209.7V212.7V228.2V231.2V236.2H864.84ZM874.84 236.2V231.2V228.2V212.7V209.7V203.7C874.84 202.6 875.74 201.7 876.84 201.7C877.94 201.7 878.84 202.6 878.84 203.7V236.2H874.84Z" fill="#A3A5B0"/>
<path d="M-53.5602 38H57.0398C57.3398 38 57.6398 37.8 57.8398 37.6C58.0398 37.3 58.0398 37 58.0398 36.7C55.3398 27.7 47.6398 21.1 38.4398 19.6C38.4398 19.4 38.4398 19.2 38.4398 19C38.4398 12.5 33.2398 7.3 26.7398 7.3C26.3398 7.3 26.0398 7.3 25.6398 7.4C22.5398 2.8 17.4398 0 11.7398 0C5.13977 0 -0.860249 4 -3.56025 10C-5.66025 9.1 -7.86022 8.7 -10.1602 8.7C-18.1602 8.7 -25.0602 14.2 -26.8602 21.9C-28.9602 21.3 -31.0602 21 -33.1602 21C-43.0602 21 -51.6602 27.3 -54.6602 36.7C-54.7602 37 -54.6602 37.3 -54.5602 37.6C-54.2602 37.8 -53.9602 38 -53.5602 38ZM-33.0602 23C-30.7602 23 -28.5602 23.4 -26.3602 24.1C-26.0602 24.2 -25.7602 24.2 -25.5602 24C-25.2602 23.8 -25.1602 23.6 -25.0602 23.3C-23.8602 15.9 -17.5602 10.6 -10.1602 10.6C-7.86022 10.6 -5.66024 11.1 -3.46024 12.2C-3.16024 12.3 -2.96022 12.3 -2.66022 12.2C-2.36022 12.1 -2.16025 11.9 -2.06025 11.6C0.0397506 5.8 5.63977 1.9 11.7398 1.9C16.8398 1.9 21.5398 4.5 24.2398 8.9C24.4398 9.2 24.8398 9.4 25.2398 9.4C25.8398 9.3 26.2398 9.3 26.7398 9.3C32.1398 9.3 36.4398 13.7 36.4398 19C36.4398 19.4 36.4398 19.8 36.3398 20.3C36.3398 20.6 36.3398 20.8 36.5398 21C36.7398 21.2 36.9398 21.3 37.2398 21.4C45.6398 22.4 52.7398 28 55.7398 35.9H-52.1602C-49.0602 28.2 -41.5602 23 -33.0602 23Z" fill="#A3A5B0"/>
<path d="M198.24 75.3008H313.54C313.84 75.3008 314.14 75.2008 314.34 74.9008C314.54 74.7008 314.64 74.3008 314.54 74.0008C312.44 65.7008 305.04 59.9008 296.44 59.9008C293.94 59.9008 291.54 60.4008 289.14 61.4008C285.44 50.7008 275.24 43.3008 263.84 43.3008C249.84 43.3008 238.24 54.3008 237.14 68.1008C233.84 67.1008 230.24 66.8008 226.74 67.2008C224.44 61.3008 218.84 57.4008 212.44 57.4008C203.94 57.4008 197.14 64.3008 197.14 72.7008C197.14 73.3008 197.14 73.9008 197.24 74.5008C197.24 75.0008 197.74 75.3008 198.24 75.3008ZM212.44 59.3008C218.24 59.3008 223.34 63.0008 225.14 68.6008C225.34 69.1008 225.74 69.4008 226.24 69.3008C230.14 68.7008 234.14 69.1008 237.74 70.4008C238.04 70.5008 238.34 70.5008 238.64 70.3008C238.94 70.1008 239.04 69.8008 239.04 69.5008C239.34 56.2008 250.44 45.3008 263.74 45.3008C274.64 45.3008 284.44 52.6008 287.54 63.1008C287.64 63.4008 287.84 63.6008 288.14 63.7008C288.44 63.8008 288.74 63.8008 288.94 63.7008C291.24 62.5008 293.74 61.9008 296.34 61.9008C303.54 61.9008 309.84 66.5008 312.14 73.2008H199.14C199.14 73.0008 199.14 72.8008 199.14 72.5008C199.14 65.3008 205.14 59.3008 212.44 59.3008Z" fill="#A3A5B0"/>
<path d="M431.939 40.7H545.939C546.339 40.7 546.639 40.5 546.839 40.2C547.039 39.9 547.039 39.5 546.739 39.2C542.739 33.3 536.039 29.8 528.939 29.8C528.739 29.8 528.539 29.8 528.439 29.8C528.939 28.6 529.139 27.3 529.139 26C529.139 20 524.239 15.2 518.339 15.2C512.339 15.2 507.539 20.1 507.539 26C507.539 26.6 507.539 27.2 507.639 27.8C503.339 25.7 498.339 25.3 493.639 26.6C490.939 19.5 484.339 15 476.939 15C471.139 15 465.739 17.8 462.439 22.5C459.739 21.5 457.039 21 454.139 21C443.039 21 433.439 28.6 431.039 39.4C430.939 39.7 431.039 40 431.239 40.2C431.339 40.5 431.639 40.7 431.939 40.7ZM454.139 23C457.039 23 459.839 23.6 462.439 24.6C462.839 24.8 463.439 24.6 463.639 24.2C466.539 19.7 471.539 16.9 476.939 16.9C483.839 16.9 489.839 21.3 492.039 27.8C492.139 28.1 492.339 28.3 492.539 28.4C492.739 28.5 493.039 28.5 493.339 28.5C498.539 26.8 504.239 27.5 508.739 30.4C509.139 30.6 509.539 30.6 509.939 30.3C510.239 30 510.339 29.5 510.239 29.1C509.739 28 509.539 26.8 509.539 25.6C509.539 20.7 513.539 16.8 518.339 16.8C523.239 16.8 527.139 20.8 527.139 25.6C527.139 27.2 526.739 28.7 525.939 30C525.739 30.3 525.739 30.7 525.939 31C526.139 31.3 526.539 31.5 526.839 31.5C527.539 31.4 528.239 31.4 528.939 31.4C534.739 31.4 540.239 34 543.939 38.4H433.239C435.939 29.4 444.339 23 454.139 23Z" fill="#A3A5B0"/>
</g>
<g opacity="0.5">
<path d="M1458.24 231.699H1469.74C1470.34 231.699 1470.74 231.299 1470.74 230.699V212.699C1470.74 212.099 1470.34 211.699 1469.74 211.699H1458.24C1457.64 211.699 1457.24 212.099 1457.24 212.699V230.699C1457.24 231.299 1457.64 231.699 1458.24 231.699ZM1459.24 229.699V217.699H1468.74V229.699H1459.24ZM1468.74 213.699V215.699H1459.24V213.699H1468.74Z" fill="#A3A5B0"/>
<path d="M1474.74 231.699H1486.24C1486.84 231.699 1487.24 231.299 1487.24 230.699V212.699C1487.24 212.099 1486.84 211.699 1486.24 211.699H1474.74C1474.14 211.699 1473.74 212.099 1473.74 212.699V230.699C1473.74 231.299 1474.14 231.699 1474.74 231.699ZM1475.74 229.699V217.699H1485.24V229.699H1475.74ZM1485.24 213.699V215.699H1475.74V213.699H1485.24Z" fill="#A3A5B0"/>
<path d="M1428.44 176.699H1439.94C1440.54 176.699 1440.94 176.299 1440.94 175.699V157.699C1440.94 157.099 1440.54 156.699 1439.94 156.699H1428.44C1427.84 156.699 1427.44 157.099 1427.44 157.699V175.699C1427.44 176.299 1427.94 176.699 1428.44 176.699ZM1429.44 174.699V162.699H1438.94V174.699H1429.44ZM1438.94 158.699V160.699H1429.44V158.699H1438.94Z" fill="#A3A5B0"/>
<path d="M1444.94 176.699H1456.44C1457.04 176.699 1457.44 176.299 1457.44 175.699V157.699C1457.44 157.099 1457.04 156.699 1456.44 156.699H1444.94C1444.34 156.699 1443.94 157.099 1443.94 157.699V175.699C1443.94 176.299 1444.44 176.699 1444.94 176.699ZM1445.94 174.699V162.699H1455.44V174.699H1445.94ZM1455.44 158.699V160.699H1445.94V158.699H1455.44Z" fill="#A3A5B0"/>
<path d="M1500.34 176.699H1511.84C1512.44 176.699 1512.84 176.299 1512.84 175.699V157.699C1512.84 157.099 1512.44 156.699 1511.84 156.699H1500.34C1499.74 156.699 1499.34 157.099 1499.34 157.699V175.699C1499.34 176.299 1499.84 176.699 1500.34 176.699ZM1501.34 174.699V162.699H1510.84V174.699H1501.34ZM1510.84 158.699V160.699H1501.34V158.699H1510.84Z" fill="#A3A5B0"/>
<path d="M1483.84 176.699H1495.34C1495.94 176.699 1496.34 176.299 1496.34 175.699V157.699C1496.34 157.099 1495.94 156.699 1495.34 156.699H1483.84C1483.24 156.699 1482.84 157.099 1482.84 157.699V175.699C1482.84 176.299 1483.34 176.699 1483.84 176.699ZM1484.84 174.699V162.699H1494.34V174.699H1484.84ZM1494.34 158.699V160.699H1484.84V158.699H1494.34Z" fill="#A3A5B0"/>
<path d="M1464.44 152.199H1475.94C1476.54 152.199 1476.94 151.799 1476.94 151.199V139.699C1476.94 139.099 1476.54 138.699 1475.94 138.699H1464.44C1463.84 138.699 1463.44 139.099 1463.44 139.699V151.199C1463.44 151.799 1463.84 152.199 1464.44 152.199ZM1465.44 140.699H1474.94V150.199H1465.44V140.699Z" fill="#A3A5B0"/>
<path d="M1536.04 234.1H1528.04C1527.44 234.1 1527.04 234.5 1527.04 235.1C1527.04 235.7 1527.44 236.1 1528.04 236.1H1536.04C1536.64 236.1 1537.04 235.7 1537.04 235.1C1537.04 234.5 1536.54 234.1 1536.04 234.1Z" fill="#A3A5B0"/>
<path d="M1207.24 195.199H1208.74H1223.74H1225.24C1225.84 195.199 1226.24 194.799 1226.24 194.199C1226.24 193.599 1225.84 193.199 1225.24 193.199H1224.74V173.199C1224.74 172.599 1224.34 172.199 1223.74 172.199H1208.74C1208.14 172.199 1207.74 172.599 1207.74 173.199V193.199H1207.24C1206.64 193.199 1206.24 193.599 1206.24 194.199C1206.24 194.799 1206.64 195.199 1207.24 195.199ZM1222.74 174.199V182.699H1209.74V174.199H1222.74ZM1209.74 184.699H1222.74V193.199H1209.74V184.699Z" fill="#A3A5B0"/>
<path d="M1249.04 195.199H1250.54H1265.54H1267.04C1267.64 195.199 1268.04 194.799 1268.04 194.199C1268.04 193.599 1267.64 193.199 1267.04 193.199H1266.54V163.199C1266.54 162.599 1266.14 162.199 1265.54 162.199H1250.54C1249.94 162.199 1249.54 162.599 1249.54 163.199V193.199H1249.04C1248.44 193.199 1248.04 193.599 1248.04 194.199C1248.04 194.799 1248.54 195.199 1249.04 195.199ZM1251.54 174.699H1264.54V182.699H1251.54V174.699ZM1264.54 164.199V172.699H1251.54V164.199H1264.54ZM1251.54 184.699H1264.54V193.199H1251.54V184.699Z" fill="#A3A5B0"/>
<path d="M1292.24 195.199H1293.74H1308.74H1310.24C1310.84 195.199 1311.24 194.799 1311.24 194.199C1311.24 193.599 1310.84 193.199 1310.24 193.199H1309.74V173.199C1309.74 172.599 1309.34 172.199 1308.74 172.199H1293.74C1293.14 172.199 1292.74 172.599 1292.74 173.199V193.199H1292.24C1291.64 193.199 1291.24 193.599 1291.24 194.199C1291.24 194.799 1291.64 195.199 1292.24 195.199ZM1307.74 174.199V182.699H1294.74V174.199H1307.74ZM1294.74 184.699H1307.74V193.199H1294.74V184.699Z" fill="#A3A5B0"/>
<path d="M1225.24 225.199H1224.74V205.199C1224.74 204.599 1224.34 204.199 1223.74 204.199H1208.74C1208.14 204.199 1207.74 204.599 1207.74 205.199V225.199H1207.24C1206.64 225.199 1206.24 225.599 1206.24 226.199C1206.24 226.799 1206.64 227.199 1207.24 227.199H1208.74H1223.74H1225.24C1225.84 227.199 1226.24 226.799 1226.24 226.199C1226.24 225.699 1225.74 225.199 1225.24 225.199ZM1222.74 206.199V214.699H1209.74V206.199H1222.74ZM1209.74 225.199V216.699H1222.74V225.199H1209.74Z" fill="#A3A5B0"/>
<path d="M1292.24 227.199H1293.74H1308.74H1310.24C1310.84 227.199 1311.24 226.799 1311.24 226.199C1311.24 225.599 1310.84 225.199 1310.24 225.199H1309.74V205.199C1309.74 204.599 1309.34 204.199 1308.74 204.199H1293.74C1293.14 204.199 1292.74 204.599 1292.74 205.199V225.199H1292.24C1291.64 225.199 1291.24 225.599 1291.24 226.199C1291.24 226.799 1291.64 227.199 1292.24 227.199ZM1307.74 206.199V214.699H1294.74V206.199H1307.74ZM1294.74 216.699H1307.74V225.199H1294.74V216.699Z" fill="#A3A5B0"/>
<path d="M1250.04 205.699H1247.04C1246.44 205.699 1246.04 206.099 1246.04 206.699V230.699C1246.04 231.299 1246.44 231.699 1247.04 231.699H1250.04C1250.64 231.699 1251.04 231.299 1251.04 230.699V206.699C1251.04 206.199 1250.64 205.699 1250.04 205.699ZM1249.04 229.699H1248.04V207.699H1249.04V229.699Z" fill="#A3A5B0"/>
<path d="M1263.04 205.699H1253.04C1252.44 205.699 1252.04 206.099 1252.04 206.699V222.199C1252.04 222.799 1252.44 223.199 1253.04 223.199H1263.04C1263.64 223.199 1264.04 222.799 1264.04 222.199V206.699C1264.04 206.199 1263.64 205.699 1263.04 205.699ZM1262.04 221.199H1254.04V207.699H1262.04V221.199Z" fill="#A3A5B0"/>
<path d="M1263.04 224.199H1253.04C1252.44 224.199 1252.04 224.599 1252.04 225.199V230.699C1252.04 231.299 1252.44 231.699 1253.04 231.699H1263.04C1263.64 231.699 1264.04 231.299 1264.04 230.699V225.199C1264.04 224.699 1263.64 224.199 1263.04 224.199ZM1262.04 229.699H1254.04V226.199H1262.04V229.699Z" fill="#A3A5B0"/>
<path d="M1269.04 205.699H1266.04C1265.44 205.699 1265.04 206.099 1265.04 206.699V230.699C1265.04 231.299 1265.44 231.699 1266.04 231.699H1269.04C1269.64 231.699 1270.04 231.299 1270.04 230.699V206.699C1270.04 206.199 1269.64 205.699 1269.04 205.699ZM1268.04 229.699H1267.04V207.699H1268.04V229.699Z" fill="#A3A5B0"/>
<path d="M938.74 181.699H961.24C961.84 181.699 962.24 181.299 962.24 180.699V158.199C962.24 157.599 961.84 157.199 961.24 157.199H938.74C938.14 157.199 937.74 157.599 937.74 158.199V180.699C937.74 181.299 938.24 181.699 938.74 181.699ZM939.74 159.199H960.24V179.699H939.74V159.199Z" fill="#A3A5B0"/>
<path d="M938.74 228.699H953.74C954.34 228.699 954.74 228.299 954.74 227.699V205.199C954.74 204.599 954.34 204.199 953.74 204.199H938.74C938.14 204.199 937.74 204.599 937.74 205.199V227.699C937.74 228.299 938.24 228.699 938.74 228.699ZM939.74 206.199H952.74V226.699H939.74V206.199V206.199Z" fill="#A3A5B0"/>
<path d="M1021.24 181.699H1043.74C1044.34 181.699 1044.74 181.299 1044.74 180.699V158.199C1044.74 157.599 1044.34 157.199 1043.74 157.199H1021.24C1020.64 157.199 1020.24 157.599 1020.24 158.199V180.699C1020.24 181.299 1020.74 181.699 1021.24 181.699ZM1022.24 159.199H1042.74V179.699H1022.24V159.199Z" fill="#A3A5B0"/>
<path d="M1027.74 205.199V227.699C1027.74 228.299 1028.14 228.699 1028.74 228.699H1043.74C1044.34 228.699 1044.74 228.299 1044.74 227.699V205.199C1044.74 204.599 1044.34 204.199 1043.74 204.199H1028.74C1028.24 204.199 1027.74 204.699 1027.74 205.199ZM1029.74 206.199H1042.74V226.699H1029.74V206.199Z" fill="#A3A5B0"/>
<path d="M985.54 170.801H997.04C997.64 170.801 998.04 170.401 998.04 169.801V158.301C998.04 157.701 997.64 157.301 997.04 157.301H985.54C984.94 157.301 984.54 157.701 984.54 158.301V169.801C984.54 170.301 984.94 170.801 985.54 170.801ZM986.54 159.301H996.04V168.801H986.54V159.301Z" fill="#A3A5B0"/>
<path d="M996.74 210.199H985.74C985.14 210.199 984.74 210.599 984.74 211.199V232.699C984.74 233.299 985.14 233.699 985.74 233.699H996.74C997.34 233.699 997.74 233.299 997.74 232.699V211.199C997.74 210.699 997.34 210.199 996.74 210.199ZM995.74 231.699H986.74V212.199H995.74V231.699Z" fill="#A3A5B0"/>
<path d="M1083.74 190.699C1081.84 190.699 1080.24 192.299 1080.24 194.199C1080.24 196.099 1081.84 197.699 1083.74 197.699C1085.64 197.699 1087.24 196.099 1087.24 194.199C1087.24 192.299 1085.64 190.699 1083.74 190.699ZM1083.74 195.699C1082.94 195.699 1082.24 194.999 1082.24 194.199C1082.24 193.399 1082.94 192.699 1083.74 192.699C1084.54 192.699 1085.24 193.399 1085.24 194.199C1085.24 194.999 1084.54 195.699 1083.74 195.699Z" fill="#A3A5B0"/>
<path d="M2062.14 237.2C2062.14 236.6 2061.74 236.2 2061.14 236.2H2046.84V203.7V193C2046.84 180 2036.34 169.5 2023.34 169.5C2015.14 169.5 2007.54 173.8 2003.34 180.7C2001.34 180 1999.24 179.7 1997.14 179.7C1993.44 179.7 1989.94 180.7 1986.84 182.6V173.7H1989.84C1990.44 173.7 1990.84 173.3 1990.84 172.7V133.8C1990.84 133.2 1990.44 132.8 1989.84 132.8H1914.84L1902.84 121.9C1902.44 121.6 1901.84 121.6 1901.54 121.9L1861.54 158.1C1861.34 158.3 1861.24 158.6 1861.24 158.9C1861.24 159.2 1861.34 159.5 1861.64 159.7L1865.14 162.5C1865.34 162.6 1865.54 162.7 1865.74 162.7C1865.94 162.7 1866.24 162.6 1866.44 162.4L1867.54 161.4V173.2C1865.84 172.2 1863.94 171.7 1861.94 171.7C1859.24 171.7 1856.74 172.7 1854.74 174.4C1852.14 168.7 1846.54 165 1840.14 165C1831.64 165 1824.74 171.6 1824.14 180C1823.14 179.8 1822.04 179.6 1820.94 179.6C1813.54 179.6 1807.44 185.7 1807.44 193.1V203.7V236.2H1778.44V200.2H1785.44C1785.54 200.2 1785.64 200.2 1785.84 200.1C1785.94 200.1 1785.94 200 1786.04 200C1786.04 200 1786.14 200 1786.14 199.9C1786.14 199.9 1786.24 199.8 1786.24 199.7C1786.24 199.6 1786.34 199.6 1786.34 199.5C1786.34 199.5 1786.34 199.4 1786.34 199.3C1786.34 199.2 1786.34 199.1 1786.34 199.1C1786.34 199 1786.34 199 1786.34 198.9C1786.34 198.8 1786.34 198.8 1786.34 198.7L1770.34 156.7C1770.24 156.3 1769.84 156.1 1769.44 156.1H1756.44V151.1H1757.44C1758.04 151.1 1758.44 150.7 1758.44 150.1V147.1C1758.44 146.5 1758.04 146.1 1757.44 146.1H1743.44C1742.84 146.1 1742.44 146.5 1742.44 147.1V150.1C1742.44 150.7 1742.84 151.1 1743.44 151.1H1744.44V156.1H1675.44V151.1H1676.44C1677.04 151.1 1677.44 150.7 1677.44 150.1V147.1C1677.44 146.5 1677.04 146.1 1676.44 146.1H1662.44C1661.84 146.1 1661.44 146.5 1661.44 147.1V150.1C1661.44 150.7 1661.84 151.1 1662.44 151.1H1663.44V156.1H1656.14C1654.84 154.1 1653.14 152.3 1651.24 150.8C1652.74 148.5 1653.44 146 1653.44 143.3C1653.44 135.6 1647.24 129.4 1639.54 129.4C1636.04 129.4 1632.54 130.8 1630.04 133.2C1626.24 128.7 1620.74 126.2 1614.84 126.2C1603.84 126.2 1594.84 135.2 1594.84 146.2C1594.84 152.8 1598.14 159 1603.54 162.7C1603.54 162.8 1603.54 162.9 1603.54 163.1C1603.54 169.9 1609.04 175.5 1615.94 175.5C1616.04 175.5 1616.24 175.5 1616.34 175.5C1617.64 179.5 1620.14 183.1 1623.44 185.7C1621.54 193.9 1619.94 203.1 1618.84 213.1C1615.64 205 1612.94 201.2 1611.84 199.9C1612.84 197.7 1613.34 195.4 1613.34 193C1613.34 184 1606.14 176.5 1597.14 176.1C1594.74 172.6 1590.84 170.6 1586.64 170.6C1579.64 170.6 1573.84 176.3 1573.84 183.4C1573.84 187.7 1575.94 191.6 1579.44 194C1579.94 202.9 1587.34 210 1596.34 210C1600.94 210 1605.34 208.1 1608.54 204.8C1610.74 208.2 1617.14 219.7 1617.14 233.1C1617.04 234.5 1617.04 235.6 1617.04 236.3H1567.54V200.9L1571.64 202.8C1571.74 202.9 1571.94 202.9 1572.04 202.9C1572.34 202.9 1572.54 202.8 1572.74 202.6L1575.84 199.5C1576.04 199.3 1576.14 198.9 1576.14 198.6C1576.04 198.3 1575.84 198 1575.54 197.9L1532.24 178C1531.94 177.9 1531.64 177.9 1531.44 178L1520.14 183.2V149.1L1528.24 152.8C1528.34 152.9 1528.54 152.9 1528.64 152.9C1528.94 152.9 1529.14 152.8 1529.34 152.6L1532.44 149.5C1532.64 149.3 1532.74 148.9 1532.74 148.6C1532.64 148.3 1532.44 148 1532.14 147.9L1470.54 119.5C1470.24 119.4 1469.94 119.4 1469.74 119.5L1444.44 131V120.3H1444.94C1445.54 120.3 1445.94 119.9 1445.94 119.3V115.3C1445.94 114.7 1445.54 114.3 1444.94 114.3H1426.94C1426.34 114.3 1425.94 114.7 1425.94 115.3V119.3C1425.94 119.9 1426.34 120.3 1426.94 120.3H1427.44V138.8L1408.14 147.7C1407.84 147.8 1407.64 148.1 1407.54 148.4C1407.44 148.7 1407.54 149.1 1407.84 149.3L1410.94 152.4C1411.24 152.7 1411.64 152.8 1412.04 152.6L1419.24 149.3V182.6L1414.24 199C1414.14 199.3 1414.24 199.6 1414.44 199.9C1414.64 200.2 1414.94 200.3 1415.24 200.3H1419.24V236.3H1397.94V221.3H1408.94C1409.34 221.3 1409.64 221.1 1409.84 220.8C1410.04 220.5 1410.04 220.1 1409.84 219.8L1401.14 205.3H1404.74C1405.14 205.3 1405.44 205.1 1405.64 204.8C1405.84 204.5 1405.84 204.1 1405.64 203.8L1397.74 190.6H1400.04C1400.34 190.6 1400.74 190.4 1400.94 190.1C1401.14 189.8 1401.14 189.4 1400.94 189.1L1394.94 177.1C1394.64 176.4 1393.44 176.4 1393.14 177.1L1387.14 189.1C1386.94 189.4 1387.04 189.8 1387.14 190.1C1387.34 190.4 1387.64 190.6 1388.04 190.6H1390.34L1382.44 203.8C1382.24 204.1 1382.24 204.5 1382.44 204.8C1382.64 205.1 1382.94 205.3 1383.34 205.3H1386.94L1378.24 219.8C1378.04 220.1 1378.04 220.5 1378.24 220.8C1378.44 221.1 1378.74 221.3 1379.14 221.3H1390.14V236.3H1373.44V202.3C1373.44 201.7 1373.04 201.3 1372.44 201.3H1368.84C1370.04 198 1370.04 194.5 1368.64 191.3C1367.24 188 1364.64 185.4 1361.34 184C1357.24 182.3 1352.54 182.8 1348.84 185.2C1346.64 182.1 1343.64 179.7 1340.14 178.3C1334.74 176.1 1328.54 176.4 1323.44 179.1V161.2H1326.44C1327.04 161.2 1327.44 160.8 1327.44 160.2V156.2C1327.44 155.6 1327.04 155.2 1326.44 155.2L1291.84 132.6C1291.64 132.5 1291.44 132.4 1291.34 132.4H1265.94L1259.44 127.6C1259.04 127.3 1258.64 127.3 1258.24 127.6L1251.74 132.4H1226.34C1226.14 132.4 1225.94 132.5 1225.84 132.6L1190.94 155.4C1190.94 155.4 1190.94 155.4 1190.84 155.5C1190.74 155.5 1190.74 155.6 1190.74 155.6C1190.74 155.6 1190.64 155.7 1190.64 155.8C1190.64 155.9 1190.54 155.9 1190.54 156C1190.54 156.1 1190.54 156.1 1190.54 156.2V156.3V160.3C1190.54 160.9 1190.94 161.3 1191.54 161.3H1194.54V179.2C1191.04 176.2 1186.44 174.5 1181.74 174.5C1172.34 174.5 1164.44 180.9 1162.44 190C1161.64 189.8 1160.74 189.8 1159.94 189.8C1153.24 189.8 1147.54 194.8 1146.64 201.3H1145.54C1144.94 201.3 1144.54 201.7 1144.54 202.3V236.3H1120.04V196.8L1123.24 198.2C1123.34 198.3 1123.54 198.3 1123.64 198.3C1123.74 198.3 1123.94 198.3 1124.04 198.2C1124.24 198.1 1124.44 197.9 1124.54 197.7L1126.74 192.6C1126.94 192.1 1126.74 191.5 1126.24 191.3L1113.04 185.6V172.7C1115.04 174.5 1117.64 175.6 1120.34 175.6C1126.24 175.6 1131.04 170.8 1131.04 164.9C1131.04 164 1130.94 163 1130.64 162.1C1135.44 160.6 1138.84 156 1138.84 150.9C1138.84 147 1136.94 143.4 1133.74 141.2C1136.34 138.2 1137.74 134.5 1137.74 130.5C1137.74 121.5 1130.44 114.2 1121.44 114.2C1117.44 114.2 1113.64 115.6 1110.64 118.3C1107.04 117.4 1103.14 117.4 1099.54 118C1098.04 114.5 1094.54 112.2 1090.74 112.2C1085.44 112.2 1081.14 116.5 1081.14 121.8C1081.14 124.1 1081.94 126.2 1083.34 128C1081.14 130.9 1079.54 134.3 1078.64 137.8C1071.54 139.8 1066.74 146.1 1066.74 153.5C1066.74 162.5 1074.04 169.8 1083.04 169.8C1086.14 169.8 1089.04 169 1091.64 167.3C1094.54 168.9 1097.74 169.9 1101.04 170.4V180.3L1084.44 173.2C1084.14 173.1 1083.94 173.1 1083.64 173.2L1060.04 183.3V146.1H1066.04C1066.44 146.1 1066.74 145.9 1066.94 145.6C1067.14 145.3 1067.14 144.9 1066.94 144.6L1050.94 118.6C1050.74 118.3 1050.44 118.1 1050.04 118.1H1039.04V108.6H1040.04C1040.64 108.6 1041.04 108.2 1041.04 107.6V103.6C1041.04 103 1040.64 102.6 1040.04 102.6H1021.04C1020.44 102.6 1020.04 103 1020.04 103.6V107.6C1020.04 108.2 1020.44 108.6 1021.04 108.6H1022.04V118.1H933.04C932.74 118.1 932.34 118.3 932.14 118.6L916.14 144.6C915.94 144.9 915.94 145.3 916.14 145.6C916.34 145.9 916.64 146.1 917.04 146.1H923.04V219C922.84 219 922.64 219 922.44 219C919.14 219 916.14 220.2 913.74 222.3C911.44 220.6 908.64 219.6 905.74 219.6C898.44 219.6 892.54 225.5 892.54 232.8C892.54 233.9 892.64 235 892.94 236.1H889.14C888.54 236.1 888.14 236.5 888.14 237.1C888.14 237.7 888.54 238.1 889.14 238.1H894.14H923.74H933.04H966.24H982.24H1000.24H1016.24H1048.74H1058.74H1108.74H1118.74H1145.24H1150.24H1155.24H1160.24H1165.24H1170.24H1175.24H1180.24H1185.24H1190.24H1195.24H1239.64H1276.64H1322.24H1327.24H1332.24H1337.24H1342.24H1347.24H1352.24H1357.24H1362.24H1367.24H1372.24H1390.94H1396.94H1420.24H1435.24H1449.74H1497.24H1507.04H1557.04H1566.84H1618.14H1622.64H1642.24H1684.74H1702.24H1717.24H1734.74H1777.24H1808.24H1814.24H1818.24H1824.24H1828.24H1834.24H1838.24H1844.24H1848.24H1854.24H1858.24H1864.24H1868.24H1935.74H1961.24H1983.24H1985.74H1989.74H1995.74H1999.74H2005.74H2009.74H2015.74H2019.74H2025.74H2029.74H2035.74H2039.74H2045.74H2061.04C2061.64 238.2 2062.14 237.8 2062.14 237.2ZM1997.14 181.7C1999.34 181.7 2001.44 182.1 2003.44 182.9C2003.94 183.1 2004.44 182.9 2004.64 182.5C2008.44 175.8 2015.64 171.6 2023.34 171.6C2035.24 171.6 2044.84 181.2 2044.84 193.1V200.3C2044.24 200 2043.54 199.7 2042.84 199.7C2040.64 199.7 2038.84 201.5 2038.84 203.7V208.7H2036.84V203.7C2036.84 201.5 2035.04 199.7 2032.84 199.7C2030.64 199.7 2028.84 201.5 2028.84 203.7V208.7H2026.84V203.7C2026.84 201.5 2025.04 199.7 2022.84 199.7C2020.64 199.7 2018.84 201.5 2018.84 203.7V208.7H2016.84V203.7C2016.84 201.5 2015.04 199.7 2012.84 199.7C2010.64 199.7 2008.84 201.5 2008.84 203.7V208.7H2006.84V203.7C2006.84 201.5 2005.04 199.7 2002.84 199.7C2000.64 199.7 1998.84 201.5 1998.84 203.7V208.7H1996.84V203.7C1996.84 201.5 1995.04 199.7 1992.84 199.7C1990.64 199.7 1988.84 201.5 1988.84 203.7V208.7H1986.84V185C1989.84 182.9 1993.34 181.7 1997.14 181.7ZM2036.84 229.2H2038.84V230.2H2036.84V229.2ZM2038.84 227.2H2036.84V213.7H2038.84V227.2ZM2038.84 211.7H2036.84V210.7H2038.84V211.7ZM2036.84 232.2H2038.84V236.2H2036.84V232.2ZM2026.84 229.2H2028.84V230.2H2026.84V229.2ZM2028.84 227.2H2026.84V213.7H2028.84V227.2ZM2028.84 211.7H2026.84V210.7H2028.84V211.7ZM2026.84 232.2H2028.84V236.2H2026.84V232.2ZM2016.84 229.2H2018.84V230.2H2016.84V229.2ZM2018.84 227.2H2016.84V213.7H2018.84V227.2ZM2018.84 211.7H2016.84V210.7H2018.84V211.7ZM2016.84 232.2H2018.84V236.2H2016.84V232.2ZM2006.84 229.2H2008.84V230.2H2006.84V229.2ZM2008.84 227.2H2006.84V213.7H2008.84V227.2ZM2008.84 211.7H2006.84V210.7H2008.84V211.7ZM2006.84 232.2H2008.84V236.2H2006.84V232.2ZM1996.84 229.2H1998.84V230.2H1996.84V229.2ZM1998.84 227.2H1996.84V213.7H1998.84V227.2ZM1998.84 211.7H1996.84V210.7H1998.84V211.7ZM1996.84 232.2H1998.84V236.2H1996.84V232.2ZM1988.84 211.7H1986.84V210.7H1988.84V211.7ZM1986.84 213.7H1988.84V227.2H1986.84V213.7ZM1986.84 229.2H1988.84V230.2H1986.84V229.2ZM1985.84 171.7H1936.84V169.8L1937.84 170.6C1938.24 170.9 1938.74 170.9 1939.14 170.6L1942.14 168.1L1945.14 170.6C1945.54 170.9 1946.04 170.9 1946.44 170.6L1949.44 168.1L1952.44 170.6C1952.84 170.9 1953.34 170.9 1953.74 170.6L1956.74 168.1L1959.74 170.6C1960.14 170.9 1960.64 170.9 1961.04 170.6L1964.04 168.1L1967.04 170.6C1967.44 170.9 1967.94 170.9 1968.34 170.6L1971.34 168.1L1974.34 170.6C1974.74 170.9 1975.24 170.9 1975.64 170.6L1978.64 168.1L1981.64 170.6C1982.04 170.9 1982.54 170.9 1982.94 170.6L1985.94 168.1L1988.64 170.3V171.7H1985.84ZM1937.34 161.9C1937.74 162.2 1938.24 162.2 1938.64 161.9L1942.14 159.1C1942.34 158.9 1942.44 158.7 1942.54 158.4L1945.14 160.6C1945.54 160.9 1946.04 160.9 1946.44 160.6L1949.44 158.1L1952.44 160.6C1952.84 160.9 1953.34 160.9 1953.74 160.6L1956.74 158.1L1959.74 160.6C1960.14 160.9 1960.64 160.9 1961.04 160.6L1964.04 158.1L1967.04 160.6C1967.44 160.9 1967.94 160.9 1968.34 160.6L1971.34 158.1L1974.34 160.6C1974.74 160.9 1975.24 160.9 1975.64 160.6L1978.64 158.1L1981.64 160.6C1982.04 160.9 1982.54 160.9 1982.94 160.6L1985.94 158.1L1988.64 160.3V162.7L1986.64 161C1986.24 160.7 1985.74 160.7 1985.34 161L1982.34 163.5L1979.34 161C1978.94 160.7 1978.44 160.7 1978.04 161L1975.04 163.5L1972.04 161C1971.64 160.7 1971.14 160.7 1970.74 161L1967.74 163.5L1964.74 161C1964.34 160.7 1963.84 160.7 1963.44 161L1960.44 163.5L1957.44 161C1957.04 160.7 1956.54 160.7 1956.14 161L1953.14 163.5L1950.14 161C1949.74 160.7 1949.24 160.7 1948.84 161L1945.84 163.5L1942.84 161C1942.44 160.7 1941.94 160.7 1941.54 161L1938.54 163.5L1936.94 162.2V161.4L1937.34 161.9ZM1936.84 164.8L1937.84 165.6C1938.24 165.9 1938.74 165.9 1939.14 165.6L1942.14 163.1L1945.14 165.6C1945.54 165.9 1946.04 165.9 1946.44 165.6L1949.44 163.1L1952.44 165.6C1952.84 165.9 1953.34 165.9 1953.74 165.6L1956.74 163.1L1959.74 165.6C1960.14 165.9 1960.64 165.9 1961.04 165.6L1964.04 163.1L1967.04 165.6C1967.44 165.9 1967.94 165.9 1968.34 165.6L1971.34 163.1L1974.34 165.6C1974.74 165.9 1975.24 165.9 1975.64 165.6L1978.64 163.1L1981.64 165.6C1982.04 165.9 1982.54 165.9 1982.94 165.6L1985.94 163.1L1988.64 165.3V167.7L1986.64 166C1986.24 165.7 1985.74 165.7 1985.34 166L1982.34 168.5L1979.34 166C1978.94 165.7 1978.44 165.7 1978.04 166L1975.04 168.5L1972.04 166C1971.64 165.7 1971.14 165.7 1970.74 166L1967.74 168.5L1964.74 166C1964.34 165.7 1963.84 165.7 1963.44 166L1960.44 168.5L1957.44 166C1957.04 165.7 1956.54 165.7 1956.14 166L1953.14 168.5L1950.14 166C1949.74 165.7 1949.24 165.7 1948.84 166L1945.84 168.5L1942.84 166C1942.44 165.7 1941.94 165.7 1941.54 166L1938.54 168.5L1936.94 167.2V164.8H1936.84ZM1988.84 142.8L1986.84 141.1C1986.44 140.8 1985.94 140.8 1985.54 141.1L1982.54 143.6L1979.54 141.1C1979.14 140.8 1978.64 140.8 1978.24 141.1L1975.24 143.6L1972.24 141.1C1971.84 140.8 1971.34 140.8 1970.94 141.1L1967.94 143.6L1964.94 141.1C1964.54 140.8 1964.04 140.8 1963.64 141.1L1960.64 143.6L1957.64 141.1C1957.24 140.8 1956.74 140.8 1956.34 141.1L1953.34 143.6L1950.34 141.1C1949.94 140.8 1949.44 140.8 1949.04 141.1L1946.04 143.6L1943.04 141.1C1942.64 140.8 1942.14 140.8 1941.74 141.1L1938.74 143.6L1935.84 141.1C1935.44 140.8 1934.84 140.8 1934.54 141.1L1931.94 143.5L1928.84 141C1928.44 140.7 1927.94 140.7 1927.64 141L1925.84 142.4L1921.14 138.2L1921.54 138L1924.64 140.6C1925.04 140.9 1925.64 140.9 1925.94 140.5L1928.24 138.3L1930.94 140.7C1931.34 141 1931.84 141 1932.24 140.7L1935.14 138.2L1938.14 140.7C1938.54 141 1939.04 141 1939.44 140.7L1942.44 138.2L1945.44 140.7C1945.84 141 1946.34 141 1946.74 140.7L1949.74 138.2L1952.74 140.7C1953.14 141 1953.64 141 1954.04 140.7L1957.04 138.2L1960.04 140.7C1960.44 141 1960.94 141 1961.34 140.7L1964.34 138.2L1967.34 140.7C1967.74 141 1968.24 141 1968.64 140.7L1971.64 138.2L1974.64 140.7C1975.04 141 1975.54 141 1975.94 140.7L1978.94 138.2L1981.94 140.7C1982.34 141 1982.84 141 1983.24 140.7L1986.24 138.2L1988.94 140.4V142.8H1988.84ZM1927.84 143.1L1931.04 145.6C1931.44 145.9 1931.94 145.9 1932.34 145.6L1934.94 143.2L1937.84 145.6C1938.24 145.9 1938.74 145.9 1939.14 145.6L1942.14 143.1L1945.14 145.6C1945.54 145.9 1946.04 145.9 1946.44 145.6L1949.44 143.1L1952.44 145.6C1952.84 145.9 1953.34 145.9 1953.74 145.6L1956.74 143.1L1959.74 145.6C1960.14 145.9 1960.64 145.9 1961.04 145.6L1964.04 143.1L1967.04 145.6C1967.44 145.9 1967.94 145.9 1968.34 145.6L1971.34 143.1L1974.34 145.6C1974.74 145.9 1975.24 145.9 1975.64 145.6L1978.64 143.1L1981.64 145.6C1982.04 145.9 1982.54 145.9 1982.94 145.6L1985.94 143.1L1988.64 145.3V147.7L1986.64 146C1986.24 145.7 1985.74 145.7 1985.34 146L1982.34 148.5L1979.34 146C1978.94 145.7 1978.44 145.7 1978.04 146L1975.04 148.5L1972.04 146C1971.64 145.7 1971.14 145.7 1970.74 146L1967.74 148.5L1964.74 146C1964.34 145.7 1963.84 145.7 1963.44 146L1960.44 148.5L1957.44 146C1957.04 145.7 1956.54 145.7 1956.14 146L1953.14 148.5L1950.14 146C1949.74 145.7 1949.24 145.7 1948.84 146L1945.84 148.5L1942.84 146C1942.44 145.7 1941.94 145.7 1941.54 146L1938.54 148.5L1935.54 146C1935.14 145.7 1934.64 145.7 1934.24 146L1931.74 148L1926.94 143.7L1927.84 143.1ZM1934.74 148.2L1937.74 150.7C1938.14 151 1938.64 151 1939.04 150.7L1942.04 148.2L1945.04 150.7C1945.44 151 1945.94 151 1946.34 150.7L1949.34 148.2L1952.34 150.7C1952.74 151 1953.24 151 1953.64 150.7L1956.64 148.2L1959.64 150.7C1960.04 151 1960.54 151 1960.94 150.7L1963.94 148.2L1966.94 150.7C1967.34 151 1967.84 151 1968.24 150.7L1971.24 148.2L1974.24 150.7C1974.64 151 1975.14 151 1975.54 150.7L1978.54 148.2L1981.54 150.7C1981.94 151 1982.44 151 1982.84 150.7L1985.84 148.2L1988.54 150.4V152.8L1986.54 151.1C1986.14 150.8 1985.64 150.8 1985.24 151.1L1982.24 153.6L1979.24 151.1C1978.84 150.8 1978.34 150.8 1977.94 151.1L1974.94 153.6L1971.94 151.1C1971.54 150.8 1971.04 150.8 1970.64 151.1L1967.64 153.6L1964.64 151.1C1964.24 150.8 1963.74 150.8 1963.34 151.1L1960.34 153.6L1957.34 151.1C1956.94 150.8 1956.44 150.8 1956.04 151.1L1953.04 153.6L1950.04 151.1C1949.64 150.8 1949.14 150.8 1948.74 151.1L1945.74 153.6L1942.74 151.1C1942.34 150.8 1941.84 150.8 1941.44 151.1L1938.04 153.9L1933.14 149.5L1934.74 148.2ZM1942.14 153.2L1945.14 155.7C1945.54 156 1946.04 156 1946.44 155.7L1949.44 153.2L1952.44 155.7C1952.84 156 1953.34 156 1953.74 155.7L1956.74 153.2L1959.74 155.7C1960.14 156 1960.64 156 1961.04 155.7L1964.04 153.2L1967.04 155.7C1967.44 156 1967.94 156 1968.34 155.7L1971.34 153.2L1974.34 155.7C1974.74 156 1975.24 156 1975.64 155.7L1978.64 153.2L1981.64 155.7C1982.04 156 1982.54 156 1982.94 155.7L1985.94 153.2L1988.64 155.4V157.8L1986.64 156.1C1986.24 155.8 1985.74 155.8 1985.34 156.1L1982.34 158.6L1979.34 156.1C1978.94 155.8 1978.44 155.8 1978.04 156.1L1975.04 158.6L1972.04 156.1C1971.64 155.8 1971.14 155.8 1970.74 156.1L1967.74 158.6L1964.74 156.1C1964.34 155.8 1963.84 155.8 1963.44 156.1L1960.44 158.6L1957.44 156.1C1957.04 155.8 1956.54 155.8 1956.14 156.1L1953.14 158.6L1950.14 156.1C1949.74 155.8 1949.24 155.8 1948.84 156.1L1945.84 158.6L1942.84 156.1C1942.44 155.8 1941.94 155.8 1941.54 156.1L1941.04 156.5L1939.64 155.2L1942.14 153.2ZM1988.84 134.9V137.8L1986.84 136.1C1986.44 135.8 1985.94 135.8 1985.54 136.1L1982.54 138.6L1979.54 136.1C1979.14 135.8 1978.64 135.8 1978.24 136.1L1975.24 138.6L1972.24 136.1C1971.84 135.8 1971.34 135.8 1970.94 136.1L1967.94 138.6L1964.94 136.1C1964.54 135.8 1964.04 135.8 1963.64 136.1L1960.64 138.6L1957.64 136.1C1957.24 135.8 1956.74 135.8 1956.34 136.1L1953.34 138.6L1950.34 136.1C1949.94 135.8 1949.44 135.8 1949.04 136.1L1946.04 138.6L1943.04 136.1C1942.64 135.8 1942.14 135.8 1941.74 136.1L1938.74 138.6L1935.74 136.1C1935.34 135.8 1934.84 135.8 1934.44 136.1L1931.54 138.5L1928.84 136.1C1928.44 135.8 1927.84 135.8 1927.44 136.1L1925.14 138.4L1922.14 136C1921.84 135.7 1921.34 135.7 1921.04 135.9L1919.44 136.8L1917.34 134.9H1988.84V134.9ZM1865.54 160.4L1863.64 158.9L1902.14 124.1L1940.04 158.3L1938.14 159.8L1936.64 158.4L1902.94 127.9C1902.54 127.6 1901.94 127.6 1901.64 127.9L1867.84 158.4L1865.54 160.4ZM1865.34 229.2H1867.34V230.2H1865.34V229.2ZM1867.34 227.2H1865.34V213.7H1867.34V227.2ZM1867.34 211.7H1865.34V210.7H1867.34V211.7ZM1865.34 232.2H1867.34V236.2H1865.34V232.2ZM1820.84 181.6C1822.14 181.6 1823.44 181.8 1824.64 182.2C1824.94 182.3 1825.34 182.3 1825.54 182.1C1825.84 181.9 1825.94 181.6 1825.94 181.3V181C1825.94 173.3 1832.24 167 1839.94 167C1845.94 167 1851.24 170.8 1853.14 176.5C1853.24 176.8 1853.54 177.1 1853.94 177.2C1854.34 177.3 1854.64 177.1 1854.84 176.9C1856.54 174.9 1859.04 173.8 1861.64 173.8C1863.74 173.8 1865.64 174.5 1867.24 175.8V208.8H1865.24V203.8C1865.24 201.6 1863.44 199.8 1861.24 199.8C1859.04 199.8 1857.24 201.6 1857.24 203.8V208.8H1855.24V203.8C1855.24 201.6 1853.44 199.8 1851.24 199.8C1849.04 199.8 1847.24 201.6 1847.24 203.8V208.8H1845.24V203.8C1845.24 201.6 1843.44 199.8 1841.24 199.8C1839.04 199.8 1837.24 201.6 1837.24 203.8V208.8H1835.24V203.8C1835.24 201.6 1833.44 199.8 1831.24 199.8C1829.04 199.8 1827.24 201.6 1827.24 203.8V208.8H1825.24V203.8C1825.24 201.6 1823.44 199.8 1821.24 199.8C1819.04 199.8 1817.24 201.6 1817.24 203.8V208.8H1815.24V203.8C1815.24 201.6 1813.44 199.8 1811.24 199.8C1810.54 199.8 1809.84 200 1809.24 200.4V193.3C1809.34 186.8 1814.54 181.6 1820.84 181.6ZM1855.34 229.2H1857.34V230.2H1855.34V229.2ZM1857.34 227.2H1855.34V213.7H1857.34V227.2ZM1857.34 211.7H1855.34V210.7H1857.34V211.7ZM1855.34 232.2H1857.34V236.2H1855.34V232.2ZM1845.34 229.2H1847.34V230.2H1845.34V229.2ZM1847.34 227.2H1845.34V213.7H1847.34V227.2ZM1847.34 211.7H1845.34V210.7H1847.34V211.7ZM1845.34 232.2H1847.34V236.2H1845.34V232.2ZM1835.34 229.2H1837.34V230.2H1835.34V229.2ZM1837.34 227.2H1835.34V213.7H1837.34V227.2ZM1837.34 211.7H1835.34V210.7H1837.34V211.7ZM1835.34 232.2H1837.34V236.2H1835.34V232.2ZM1825.34 229.2H1827.34V230.2H1825.34V229.2ZM1827.34 227.2H1825.34V213.7H1827.34V227.2ZM1827.34 211.7H1825.34V210.7H1827.34V211.7ZM1825.34 232.2H1827.34V236.2H1825.34V232.2ZM1815.34 229.2H1817.34V230.2H1815.34V229.2ZM1817.34 227.2H1815.34V213.7H1817.34V227.2ZM1817.34 211.7H1815.34V210.7H1817.34V211.7ZM1815.34 232.2H1817.34V236.2H1815.34V232.2ZM1783.84 198.2H1747.34L1710.24 177.4C1709.94 177.2 1709.54 177.2 1709.24 177.4L1672.24 198.1H1635.64L1638.84 189.8L1650.94 158.1H1655.44H1664.24H1674.24H1745.24H1755.24H1768.54L1783.84 198.2ZM1717.24 209.2H1702.24C1701.64 209.2 1701.24 209.6 1701.24 210.2V236.2H1685.74V199.8L1709.74 186.3L1733.74 199.7V236.1H1718.24V210.1C1718.24 209.7 1717.84 209.2 1717.24 209.2ZM1710.24 184.3C1709.94 184.1 1709.54 184.1 1709.24 184.3L1708.74 184.6L1684.24 198.3L1684.14 198.4L1675.74 203.1L1673.74 199.6L1709.64 179.5L1745.64 199.6L1743.64 203.1L1710.24 184.3ZM1628.24 188.6C1630.84 189.8 1633.64 190.5 1636.54 190.6L1633.34 198.9C1633.34 199 1633.34 199 1633.34 199.1C1633.34 199.2 1633.34 199.2 1633.34 199.3C1633.34 199.4 1633.34 199.5 1633.34 199.5V199.6C1633.34 199.7 1633.44 199.7 1633.44 199.8C1633.44 199.9 1633.54 199.9 1633.54 200L1633.64 200.1C1633.74 200.1 1633.74 200.2 1633.84 200.2C1633.94 200.2 1634.04 200.3 1634.24 200.3H1641.24V236.3H1623.64C1623.54 231.5 1623.24 209.9 1628.24 188.6ZM1744.24 148.2H1756.24V149.2H1755.24H1745.24H1744.24V148.2ZM1746.24 151.2H1754.24V156.2H1746.24V151.2ZM1663.24 148.2H1675.24V149.2H1674.24H1664.24H1663.24V148.2ZM1665.24 151.2H1673.24V156.2H1665.24V151.2ZM1531.94 179.8L1573.54 198.9L1571.94 200.5L1567.14 198.3L1532.34 182.3C1532.04 182.2 1531.74 182.2 1531.54 182.3L1496.84 198.3L1492.04 200.5L1490.44 198.9L1531.94 179.8ZM1427.94 116.3H1443.94V118.3H1443.44H1428.44H1427.94V116.3ZM1429.44 120.3H1442.44V131.9L1429.44 137.9V120.3ZM1411.84 150.5L1410.24 148.9L1470.14 121.3L1530.04 148.9L1528.44 150.5L1470.54 123.8C1470.44 123.7 1470.24 123.7 1470.14 123.7C1470.04 123.7 1469.84 123.7 1469.74 123.8L1419.94 146.7C1419.84 146.7 1419.74 146.8 1419.74 146.8L1411.84 150.5ZM1470.14 125.8L1518.14 147.9V181.7H1421.14V148.4L1470.14 125.8ZM1420.94 183.7H1518.24V183.9L1488.24 197.7C1488.04 197.8 1487.84 198 1487.74 198.2H1416.54L1420.94 183.7ZM1339.14 180.1C1342.64 181.5 1345.44 183.9 1347.44 187.1C1347.64 187.3 1347.84 187.5 1348.14 187.6C1348.44 187.7 1348.74 187.6 1348.94 187.4C1352.14 184.9 1356.54 184.3 1360.34 185.8C1363.14 187 1365.44 189.2 1366.64 192C1367.84 194.8 1367.84 198 1366.64 200.8C1366.54 201 1366.54 201.1 1366.44 201.3H1362.24H1357.24H1352.24H1347.24H1342.24H1337.24H1332.24H1327.24H1323.24V181.5C1328.04 178.4 1333.94 177.9 1339.14 180.1ZM1290.74 134.5L1322.54 155.3H1296.64L1268.34 134.5H1290.74ZM1226.34 134.5H1248.74L1220.44 155.3H1194.54L1226.34 134.5ZM1192.24 157.2H1220.84C1221.04 157.2 1221.24 157.1 1221.44 157L1258.54 129.7L1295.64 157C1295.84 157.1 1296.04 157.2 1296.24 157.2H1325.14V159.2H1322.14H1295.24L1259.14 132.7C1258.74 132.4 1258.34 132.4 1257.94 132.7L1221.74 159.3H1195.14H1192.14V157.2H1192.24ZM1159.64 191.7C1160.64 191.7 1161.64 191.8 1162.64 192.1C1162.94 192.2 1163.24 192.1 1163.44 192C1163.64 191.8 1163.84 191.6 1163.84 191.3C1165.24 182.7 1172.64 176.4 1181.34 176.4C1186.14 176.4 1190.74 178.4 1194.14 181.8V201.1H1190.14H1185.14H1180.14H1175.14H1170.14H1165.14H1160.14H1155.14H1150.14H1148.24C1149.34 195.8 1154.14 191.7 1159.64 191.7ZM1102.74 181.3V169.7C1102.74 169.2 1102.34 168.8 1101.84 168.7C1098.34 168.4 1094.94 167.3 1091.84 165.5C1091.54 165.3 1091.14 165.3 1090.74 165.5C1088.34 167.1 1085.54 168 1082.74 168C1074.84 168 1068.44 161.6 1068.44 153.7C1068.44 147 1072.94 141.3 1079.44 139.8C1079.84 139.7 1080.14 139.4 1080.14 139C1080.94 135.3 1082.64 131.7 1085.04 128.8C1085.34 128.4 1085.34 127.8 1084.94 127.5C1083.54 126.1 1082.74 124.1 1082.74 122.1C1082.74 117.9 1086.14 114.5 1090.34 114.5C1093.64 114.5 1096.54 116.6 1097.54 119.7C1097.74 120.2 1098.24 120.5 1098.74 120.4C1102.54 119.6 1106.54 119.6 1110.24 120.6C1110.54 120.7 1110.94 120.6 1111.14 120.4C1113.84 117.9 1117.24 116.5 1120.94 116.5C1128.84 116.5 1135.24 122.9 1135.24 130.8C1135.24 134.6 1133.74 138.3 1131.04 141C1130.84 141.2 1130.74 141.5 1130.74 141.9C1130.74 142.2 1130.94 142.5 1131.24 142.6C1134.44 144.3 1136.34 147.6 1136.34 151.2C1136.34 155.7 1133.14 159.7 1128.74 160.7C1128.44 160.8 1128.24 160.9 1128.04 161.2C1127.94 161.5 1127.84 161.8 1127.94 162C1128.34 163 1128.54 164 1128.54 165.1C1128.54 169.9 1124.64 173.8 1119.84 173.8C1116.74 173.8 1113.94 172.2 1112.34 169.5C1112.14 169.1 1111.64 168.9 1111.24 169C1110.84 169.1 1110.54 169.5 1110.54 170V184.8L1104.64 182.3L1102.74 181.3ZM1083.74 175.3L1107.74 185.6L1111.34 187.2L1124.24 192.7L1122.84 195.9L1084.14 179.3C1084.04 179.2 1083.84 179.2 1083.74 179.2C1083.64 179.2 1083.44 179.2 1083.34 179.3L1048.34 194.3L1044.64 195.9L1043.24 192.7L1083.74 175.3ZM1021.74 104.7H1038.74V106.7H1037.74H1022.74H1021.74V104.7ZM1023.74 108.7H1036.74V118.2H1023.74V108.7ZM933.34 120.2H1022.74H1037.74H1049.14L1063.94 144.2H1058.74H923.74H918.54L933.34 120.2ZM924.74 146.2H1057.74V184.3L1041.54 191.3C1041.04 191.5 1040.84 192.1 1041.04 192.6L1043.24 197.7C1043.34 197.9 1043.54 198.1 1043.74 198.2C1043.94 198.3 1044.24 198.3 1044.54 198.2L1047.74 196.8V236.3H1017.24V197L1019.94 198.6C1020.14 198.7 1020.24 198.7 1020.44 198.7C1020.74 198.7 1021.14 198.5 1021.34 198.2L1024.14 193.5C1024.24 193.3 1024.34 193 1024.24 192.7C1024.14 192.4 1024.04 192.2 1023.74 192.1L991.74 173C991.44 172.8 991.04 172.8 990.74 173L958.64 192.2C958.44 192.3 958.24 192.6 958.14 192.8C958.04 193.1 958.14 193.3 958.24 193.6L961.04 198.3C961.34 198.8 961.94 198.9 962.44 198.6L965.14 197V236.2H934.54C934.94 234.9 935.24 233.5 935.24 232.1C935.24 225.8 930.74 220.6 924.84 219.4V146.2H924.74ZM962.34 196.4L960.54 193.4L991.24 175L1021.94 193.4L1020.14 196.4L991.74 179.4C991.44 179.2 991.04 179.2 990.74 179.4L962.34 196.4ZM923.74 236.2H894.84C894.54 235.1 894.34 234 894.34 232.9C894.34 226.7 899.34 221.7 905.54 221.7C908.24 221.7 910.84 222.7 912.94 224.5C913.34 224.9 913.94 224.8 914.34 224.4C916.44 222.2 919.24 221 922.24 221C928.34 221 933.24 225.9 933.24 232C933.24 233.4 932.94 234.8 932.44 236.1H923.74V236.2ZM983.24 236.2V205.7H999.24V236.2H983.24ZM1001.24 236.2V204.7C1001.24 204.1 1000.84 203.7 1000.24 203.7H982.24C981.64 203.7 981.24 204.1 981.24 204.7V236.2H967.24V195.8L991.24 181.4L1015.24 195.8V236.2H1001.24ZM1107.74 213.7V215.2H1059.74V213.7H1107.74ZM1059.74 211.7V210.2H1107.74V211.7H1059.74ZM1107.74 217.2V218.7H1059.74V217.2H1107.74ZM1107.74 220.7V222.2H1059.74V220.7H1107.74ZM1107.74 224.2V225.7H1059.74V224.2H1107.74ZM1107.74 227.7V229.2H1059.74V227.7H1107.74ZM1107.74 208.2H1059.74V206.7H1107.74V208.2ZM1059.74 231.2H1107.74V232.7H1059.74V231.2ZM1107.74 204.7H1059.74V203.2H1107.74V204.7ZM1059.74 236.2V234.7H1107.74V236.2H1059.74ZM1109.74 236.2V202.2C1109.74 201.6 1109.34 201.2 1108.74 201.2H1058.74C1058.14 201.2 1057.74 201.6 1057.74 202.2V236.2H1049.74V195.9L1083.74 181.3L1117.74 195.9V236.2H1109.74ZM1146.24 203.2H1149.24V236.2H1146.24V203.2ZM1151.24 203.2H1154.24V236.2H1151.24V203.2ZM1156.24 203.2H1159.24V236.2H1156.24V203.2ZM1161.24 203.2H1164.24V236.2H1161.24V203.2ZM1166.24 203.2H1169.24V236.2H1166.24V203.2ZM1171.24 203.2H1174.24V236.2H1171.24V203.2ZM1176.24 203.2H1179.24V236.2H1176.24V203.2ZM1181.24 203.2H1184.24V236.2H1181.24V203.2ZM1186.24 203.2H1189.24V236.2H1186.24V203.2ZM1191.24 203.2H1194.24V236.2H1191.24V203.2ZM1196.24 202.2V161.2H1222.14C1222.34 161.2 1222.54 161.1 1222.74 161L1258.54 134.7L1294.34 161C1294.54 161.1 1294.74 161.2 1294.94 161.2H1321.14V202.2V236.2H1277.54V234.2C1277.54 233.6 1277.14 233.2 1276.54 233.2H1275.54V231.2C1275.54 230.6 1275.14 230.2 1274.54 230.2H1273.04V201.2H1275.54C1276.14 201.2 1276.54 200.8 1276.54 200.2V197.2C1276.54 196.6 1276.14 196.2 1275.54 196.2H1240.54C1239.94 196.2 1239.54 196.6 1239.54 197.2V200.2C1239.54 200.8 1239.94 201.2 1240.54 201.2H1243.04V230.2H1241.54C1240.94 230.2 1240.54 230.6 1240.54 231.2V233.2H1239.54C1238.94 233.2 1238.54 233.6 1238.54 234.2V236.2H1196.14V202.2H1196.24ZM1272.04 199.2H1244.04H1241.54V198.2H1274.54V199.2H1272.04ZM1245.04 201.2H1271.04V230.2H1245.04V201.2ZM1244.04 232.2H1272.04H1273.54V233.2H1242.54V232.2H1244.04ZM1240.54 236.2V235.2H1241.54H1274.54H1275.54V236.2H1240.54ZM1323.24 203.2H1326.24V236.2H1323.24V203.2ZM1328.24 203.2H1331.24V236.2H1328.24V203.2ZM1333.24 203.2H1336.24V236.2H1333.24V203.2ZM1338.24 203.2H1341.24V236.2H1338.24V203.2ZM1343.24 203.2H1346.24V236.2H1343.24V203.2ZM1348.24 203.2H1351.24V236.2H1348.24V203.2ZM1353.24 203.2H1356.24V236.2H1353.24V203.2ZM1358.24 203.2H1361.24V236.2H1358.24V203.2ZM1363.24 203.2H1366.24V236.2H1363.24V203.2ZM1368.24 236.2V203.2H1371.24V236.2H1368.24ZM1391.94 236.2V220.2C1391.94 219.6 1391.54 219.2 1390.94 219.2H1380.74L1389.44 204.7C1389.64 204.4 1389.64 204 1389.44 203.7C1389.24 203.4 1388.94 203.2 1388.54 203.2H1384.94L1392.84 190C1393.04 189.7 1393.04 189.3 1392.84 189C1392.64 188.7 1392.34 188.5 1391.94 188.5H1389.54L1393.94 179.7L1398.34 188.5H1395.94C1395.54 188.5 1395.24 188.7 1395.04 189C1394.84 189.3 1394.84 189.7 1395.04 190L1402.94 203.2H1399.34C1398.94 203.2 1398.64 203.4 1398.44 203.7C1398.24 204 1398.24 204.4 1398.44 204.7L1407.14 219.2H1396.94C1396.34 219.2 1395.94 219.6 1395.94 220.2V236.2H1391.94ZM1421.24 200.2H1488.84L1491.04 202.4C1491.34 202.7 1491.74 202.8 1492.14 202.6L1496.24 200.7V236.1H1450.74V209.6C1450.74 209 1450.34 208.6 1449.74 208.6H1435.24C1434.64 208.6 1434.24 209 1434.24 209.6V236.1H1421.24V200.2V200.2ZM1436.24 236.2V210.7H1448.74V236.2H1436.24ZM1507.94 236.2V210.7H1555.94V236.2H1507.94ZM1557.94 236.2V209.7C1557.94 209.1 1557.54 208.7 1556.94 208.7H1506.94C1506.34 208.7 1505.94 209.1 1505.94 209.7V236.2H1498.14V199.8L1531.94 184.3L1565.74 199.8V236.2H1557.94ZM1619.24 236.2C1619.24 235.5 1619.34 234.4 1619.34 233V232.9C1619.34 217.3 1611.04 204.6 1609.84 202.7C1609.74 202.5 1609.64 202.3 1609.44 202.2C1609.04 201.9 1608.44 202 1608.04 202.4C1605.14 205.9 1600.94 207.9 1596.44 207.9C1588.44 207.9 1581.74 201.3 1581.54 193.3C1581.54 193 1581.34 192.6 1581.04 192.5C1577.84 190.5 1575.94 187.1 1575.94 183.3C1575.94 177.4 1580.74 172.5 1586.74 172.5C1590.44 172.5 1593.84 174.4 1595.84 177.5C1596.04 177.8 1596.34 178 1596.64 178C1604.74 178.1 1611.44 184.8 1611.44 192.9C1611.44 195.3 1610.94 197.5 1609.84 199.7C1609.64 200.2 1609.74 200.8 1610.24 201C1610.34 201 1610.34 201.1 1610.44 201.1C1611.44 202.3 1614.74 206.9 1618.54 217.6C1618.64 218.1 1618.94 218.4 1619.44 218.5C1620.04 218.5 1620.44 218.1 1620.54 217.6C1621.64 205.7 1623.44 194.9 1625.74 185.5C1625.84 185.1 1625.64 184.7 1625.34 184.5C1621.94 181.9 1619.34 178.2 1618.14 174.1C1618.04 173.6 1617.54 173.3 1617.04 173.4C1616.74 173.4 1616.34 173.5 1615.94 173.5C1610.24 173.5 1605.54 168.8 1605.54 163.1C1605.54 162.8 1605.54 162.6 1605.54 162.3C1605.54 161.9 1605.44 161.6 1605.04 161.4C1599.84 158.1 1596.74 152.4 1596.74 146.3C1596.74 136.4 1604.84 128.3 1614.74 128.3C1620.44 128.3 1625.64 130.9 1629.04 135.4C1629.24 135.6 1629.54 135.8 1629.84 135.8C1630.14 135.8 1630.44 135.7 1630.64 135.5C1632.94 133 1636.14 131.5 1639.54 131.5C1646.14 131.5 1651.44 136.8 1651.44 143.4C1651.44 146 1650.64 148.5 1649.04 150.6C1648.84 150.8 1648.84 151.1 1648.84 151.4C1648.84 151.7 1649.04 151.9 1649.24 152.1C1650.94 153.3 1652.44 154.8 1653.64 156.4H1650.34C1649.94 156.4 1649.54 156.7 1649.44 157L1637.34 188.7C1634.14 188.7 1630.94 187.9 1628.04 186.4C1627.74 186.3 1627.44 186.2 1627.14 186.4C1626.84 186.5 1626.64 186.8 1626.54 187.1C1621.24 208.9 1621.54 231.4 1621.64 236.4H1619.24V236.2ZM1643.24 200.2H1671.84L1674.54 205C1674.64 205.2 1674.84 205.4 1675.14 205.5C1675.24 205.5 1675.34 205.5 1675.44 205.5C1675.64 205.5 1675.74 205.5 1675.94 205.4L1683.74 201V236.3H1643.24V200.2ZM1703.24 236.2V211.2H1716.24V236.2H1703.24ZM1735.74 236.2V200.9L1743.64 205.3C1744.14 205.6 1744.74 205.4 1745.04 204.9L1747.74 200.2H1776.34V236.2H1735.74ZM1809.34 236.2V203.7C1809.34 202.6 1810.24 201.7 1811.34 201.7C1812.44 201.7 1813.34 202.6 1813.34 203.7V209.7V212.7V228.2V231.2V236.2H1809.34ZM1819.34 236.2V231.2V228.2V212.7V209.7V203.7C1819.34 202.6 1820.24 201.7 1821.34 201.7C1822.44 201.7 1823.34 202.6 1823.34 203.7V209.7V212.7V228.2V231.2V236.2H1819.34ZM1829.34 236.2V231.2V228.2V212.7V209.7V203.7C1829.34 202.6 1830.24 201.7 1831.34 201.7C1832.44 201.7 1833.34 202.6 1833.34 203.7V209.7V212.7V228.2V231.2V236.2H1829.34ZM1839.34 236.2V231.2V228.2V212.7V209.7V203.7C1839.34 202.6 1840.24 201.7 1841.34 201.7C1842.44 201.7 1843.34 202.6 1843.34 203.7V209.7V212.7V228.2V231.2V236.2H1839.34ZM1849.34 236.2V231.2V228.2V212.7V209.7V203.7C1849.34 202.6 1850.24 201.7 1851.34 201.7C1852.44 201.7 1853.34 202.6 1853.34 203.7V209.7V212.7V228.2V231.2V236.2H1849.34ZM1859.34 236.2V231.2V228.2V212.7V209.7V203.7C1859.34 202.6 1860.24 201.7 1861.34 201.7C1862.44 201.7 1863.34 202.6 1863.34 203.7V209.7V212.7V228.2V231.2V236.2H1859.34ZM1869.34 231.2V228.2V212.7V209.7V159.6L1902.14 130L1934.84 159.6V172.7V236.2H1869.34V231.2ZM1936.84 173.7H1984.84V184.5V236.2H1984.34V233.7C1984.34 233.1 1983.94 232.7 1983.34 232.7H1982.84V229.7C1982.84 229.1 1982.44 228.7 1981.84 228.7H1980.84V203.7C1980.84 203.1 1980.44 202.7 1979.84 202.7H1964.84C1964.24 202.7 1963.84 203.1 1963.84 203.7V228.7H1962.84C1962.24 228.7 1961.84 229.1 1961.84 229.7V232.7H1961.34C1960.74 232.7 1960.34 233.1 1960.34 233.7V236.2H1936.84V173.7ZM1978.84 228.7H1965.84V204.7H1978.84V228.7ZM1964.84 230.7H1979.84H1980.84V232.7H1963.84V230.7H1964.84ZM1962.34 236.2V234.7H1962.84H1981.84H1982.34V236.2H1962.34ZM1986.84 232.2H1988.84V236.2H1986.84V232.2ZM1990.84 236.2V231.2V228.2V212.7V209.7V203.7C1990.84 202.6 1991.74 201.7 1992.84 201.7C1993.94 201.7 1994.84 202.6 1994.84 203.7V209.7V212.7V228.2V231.2V236.2H1990.84ZM2000.84 236.2V231.2V228.2V212.7V209.7V203.7C2000.84 202.6 2001.74 201.7 2002.84 201.7C2003.94 201.7 2004.84 202.6 2004.84 203.7V209.7V212.7V228.2V231.2V236.2H2000.84ZM2010.84 236.2V231.2V228.2V212.7V209.7V203.7C2010.84 202.6 2011.74 201.7 2012.84 201.7C2013.94 201.7 2014.84 202.6 2014.84 203.7V209.7V212.7V228.2V231.2V236.2H2010.84ZM2020.84 236.2V231.2V228.2V212.7V209.7V203.7C2020.84 202.6 2021.74 201.7 2022.84 201.7C2023.94 201.7 2024.84 202.6 2024.84 203.7V209.7V212.7V228.2V231.2V236.2H2020.84ZM2030.84 236.2V231.2V228.2V212.7V209.7V203.7C2030.84 202.6 2031.74 201.7 2032.84 201.7C2033.94 201.7 2034.84 202.6 2034.84 203.7V209.7V212.7V228.2V231.2V236.2H2030.84ZM2040.84 236.2V231.2V228.2V212.7V209.7V203.7C2040.84 202.6 2041.74 201.7 2042.84 201.7C2043.94 201.7 2044.84 202.6 2044.84 203.7V236.2H2040.84Z" fill="#A3A5B0"/>
<path d="M1112.44 38H1223.04C1223.34 38 1223.64 37.8 1223.84 37.6C1224.04 37.3 1224.04 37 1224.04 36.7C1221.34 27.7 1213.64 21.1 1204.44 19.6C1204.44 19.4 1204.44 19.2 1204.44 19C1204.44 12.5 1199.24 7.3 1192.74 7.3C1192.34 7.3 1192.04 7.3 1191.64 7.4C1188.54 2.8 1183.44 0 1177.74 0C1171.14 0 1165.14 4 1162.44 10C1160.34 9.1 1158.14 8.7 1155.84 8.7C1147.84 8.7 1140.94 14.2 1139.14 21.9C1137.04 21.3 1134.94 21 1132.84 21C1122.94 21 1114.34 27.3 1111.34 36.7C1111.24 37 1111.34 37.3 1111.44 37.6C1111.74 37.8 1112.04 38 1112.44 38ZM1132.94 23C1135.24 23 1137.44 23.4 1139.64 24.1C1139.94 24.2 1140.24 24.2 1140.44 24C1140.74 23.8 1140.84 23.6 1140.94 23.3C1142.14 15.9 1148.44 10.6 1155.84 10.6C1158.14 10.6 1160.34 11.1 1162.54 12.2C1162.84 12.3 1163.04 12.3 1163.34 12.2C1163.64 12.1 1163.84 11.9 1163.94 11.6C1166.04 5.8 1171.64 1.9 1177.74 1.9C1182.84 1.9 1187.54 4.5 1190.24 8.9C1190.44 9.2 1190.84 9.4 1191.24 9.4C1191.84 9.3 1192.24 9.3 1192.74 9.3C1198.14 9.3 1202.44 13.7 1202.44 19C1202.44 19.4 1202.44 19.8 1202.34 20.3C1202.34 20.6 1202.34 20.8 1202.54 21C1202.74 21.2 1202.94 21.3 1203.24 21.4C1211.64 22.4 1218.74 28 1221.74 35.9H1113.84C1116.94 28.2 1124.44 23 1132.94 23Z" fill="#A3A5B0"/>
</g>
</svg>
