<svg width="87" height="75" viewBox="0 0 87 75" fill="none" xmlns="http://www.w3.org/2000/svg">
<g clip-path="url(#clip0_91_4411)">
<path d="M36.6571 33.163C36.3846 32.6939 35.7847 32.5325 35.3135 32.8016L27.5356 37.2506C27.3074 37.381 27.1405 37.5971 27.0721 37.851C27.0037 38.1048 27.0394 38.3754 27.1713 38.6029L29.2965 42.2673C29.5561 42.7136 30.1153 42.8848 30.5803 42.6605V47.4659C30.5801 47.8185 30.7683 48.1444 31.0737 48.3208L39.5764 53.2296C39.8818 53.4058 40.258 53.4058 40.5633 53.2296C40.8686 53.0533 41.0567 52.7274 41.0567 52.3747V49.2057C41.3493 49.347 41.6927 49.3355 41.9753 49.1748L44.1006 47.9642C44.3292 47.834 44.4965 47.6179 44.5651 47.3637C44.6337 47.1097 44.5979 46.8387 44.4658 46.611L36.6571 33.163ZM41.849 46.9743L40.9237 45.3782C40.6997 44.9922 40.2444 44.8044 39.8134 44.9204C39.3824 45.0365 39.0828 45.4273 39.0828 45.8737V50.6648L32.5541 46.8963V40.9649C32.5539 40.6134 32.3669 40.2884 32.063 40.1117C31.759 39.9351 31.3841 39.9333 31.0785 40.1072L30.5128 40.4291L29.3774 38.4707L35.4417 35.0018L42.2588 46.7411L41.849 46.9743Z" fill="#EFF1F3"/>
<path d="M48.1459 44.1762C47.8403 44.3526 47.6522 44.6785 47.6523 45.0313C47.6525 45.3841 47.8407 45.71 48.1463 45.8863L62.5245 54.1875C62.83 54.364 63.2063 54.3642 63.5119 54.1878C63.8175 54.0114 64.0056 53.6854 64.0055 53.3327C64.0053 52.9799 63.8171 52.6539 63.5115 52.4778L49.1333 44.1765C48.8279 43.9998 48.4515 43.9998 48.1459 44.1762Z" fill="#EFF1F3"/>
<path d="M63.512 57.6853L56.7017 53.7538C56.3962 53.5773 56.0199 53.5772 55.7143 53.7535C55.4087 53.9299 55.2206 54.2559 55.2207 54.6087C55.2208 54.9614 55.4091 55.2874 55.7147 55.4636L62.525 59.3951C62.8305 59.5716 63.2068 59.5717 63.5124 59.3954C63.818 59.219 64.0061 58.893 64.006 58.5402C64.006 58.1873 63.8176 57.8615 63.512 57.6853Z" fill="#EFF1F3"/>
<path d="M48.1463 51.0935L52.6868 53.7151C53.159 53.9873 53.7622 53.8254 54.0347 53.3534C54.3072 52.8814 54.1456 52.2779 53.6738 52.0053L49.1333 49.3837C48.8279 49.2072 48.4515 49.207 48.1459 49.3834C47.8403 49.5598 47.6522 49.8858 47.6523 50.2385C47.6523 50.5914 47.8407 50.9174 48.1463 51.0935Z" fill="#EFF1F3"/>
<path d="M63.512 62.8935L59.728 60.7087C59.4226 60.5321 59.0462 60.532 58.7406 60.7084C58.435 60.8848 58.2469 61.2107 58.2471 61.5635C58.2472 61.9163 58.4355 62.2422 58.7411 62.4185L62.525 64.6033C62.8304 64.7799 63.2068 64.78 63.5124 64.6036C63.818 64.4272 64.0061 64.1013 64.006 63.7485C64.006 63.3957 63.8176 63.0698 63.512 62.8935Z" fill="#EFF1F3"/>
<path d="M56.7012 58.9611L49.1333 54.5922C48.8279 54.4157 48.4515 54.4155 48.1459 54.5919C47.8403 54.7683 47.6522 55.0943 47.6523 55.447C47.6525 55.7998 47.8407 56.1258 48.1463 56.3018L55.7142 60.6707C56.0196 60.8473 56.396 60.8474 56.7016 60.671C57.0072 60.4946 57.1953 60.1687 57.1952 59.8159C57.1952 59.4633 57.0068 59.1373 56.7012 58.9611Z" fill="#EFF1F3"/>
<path d="M76.2033 30.6839C76.0767 28.0808 74.6947 25.7007 72.4964 24.3006C71.797 23.856 70.9665 23.6642 70.1429 23.7573L29.1347 0.124449C29.0923 0.106723 29.0487 0.0920726 29.0042 0.0806456C28.9464 0.0547153 28.8864 0.0344984 28.8248 0.0204345C28.6432 -0.0198528 28.4535 -0.000221942 28.284 0.0762507C28.2355 0.0884101 28.188 0.104525 28.142 0.124302L23.2943 2.92346L23.2804 2.92918C23.1782 2.991 23.0881 3.07113 23.0148 3.16548C22.9984 3.18555 22.9833 3.20474 22.9685 3.22584C22.9022 3.3174 22.8522 3.41966 22.8209 3.52836L22.8181 3.54872C22.7983 3.62563 22.7877 3.7046 22.7869 3.784V8.44795C22.7867 8.80057 22.975 9.12653 23.2803 9.30292L26.5813 11.2081L23.2795 13.1147C23.2693 13.1205 23.264 13.1309 23.2541 13.1372C23.1678 13.192 23.0907 13.26 23.0255 13.3387C23.003 13.3649 22.982 13.3924 22.9625 13.421C22.903 13.5057 22.8572 13.5994 22.827 13.6985L22.8185 13.7282C22.7976 13.8079 22.7866 13.89 22.7861 13.9724V48.9752C22.786 49.3278 22.9742 49.6538 23.2795 49.8302L66.6453 74.8681L66.6499 74.87C66.6954 74.893 66.7425 74.9125 66.791 74.9281C66.8608 74.9661 66.9391 74.9854 67.0185 74.9844C67.0582 74.992 67.0984 74.9973 67.1388 75.0001H67.1392H67.1397C67.3126 75.0002 67.4825 74.9547 67.6322 74.8681L72.4956 72.0604C72.5336 72.0317 72.5694 72.0002 72.6025 71.9661C72.7114 71.889 72.7987 71.7854 72.8561 71.665C72.8792 71.6253 72.8995 71.5839 72.9166 71.5411C72.945 71.459 72.9623 71.3735 72.9679 71.2869C72.9702 71.2586 72.9843 71.2344 72.9843 71.2054V36.2047C72.9843 36.1863 72.9781 36.1691 72.9771 36.1508C72.9745 36.1033 72.9682 36.0562 72.9583 36.0096C72.9424 35.9328 72.9173 35.8581 72.8835 35.7873C72.8715 35.7616 72.8715 35.7336 72.857 35.7085C72.8431 35.6845 72.8196 35.6712 72.8041 35.6488C72.7584 35.582 72.7045 35.5212 72.6438 35.4677C72.6098 35.4375 72.5736 35.4098 72.5357 35.3849C72.519 35.3739 72.5061 35.359 72.4887 35.349L72.1048 35.1285L74.6523 33.6575C74.6605 33.6529 74.6646 33.6446 74.6725 33.6397C75.7105 33.0321 76.306 31.882 76.2033 30.6839ZM28.6398 2.11669L67.9825 24.7896L65.5209 26.2105C65.4557 26.239 65.3939 26.2747 65.3366 26.3169L65.0333 26.492L25.7492 3.78561L28.6398 2.11669ZM69.3641 33.4955C69.3814 33.8423 69.3 34.1867 69.1293 34.4889L69.129 34.4892L69.1286 34.4902C69.0843 34.5576 69.0281 34.6164 68.9624 34.6633L68.8759 34.7132C68.4457 34.8232 67.9889 34.734 67.6321 34.47C66.5478 33.7582 65.7219 32.716 65.2765 31.4978L65.2761 31.4967C65.0527 30.953 64.9297 30.3733 64.9132 29.7859C64.8533 29.3371 65.0175 28.8875 65.3527 28.583C65.4583 28.5266 65.577 28.4986 65.6968 28.5021C66.0339 28.523 66.3602 28.6292 66.6453 28.8105C68.2346 29.8607 69.2408 31.5944 69.3641 33.4955ZM24.7609 7.87836V5.49482L63.4341 27.8478C63.0992 28.4381 62.9284 29.1073 62.9394 29.7859C62.9394 29.8295 62.9492 29.8754 62.9502 29.9193L24.7609 7.87836ZM57.1254 32.0885L33.7071 18.5681C34.0587 17.6956 34.5007 16.8623 35.026 16.0819L58.4345 29.5923C57.9214 30.3817 57.483 31.2174 57.1254 32.0885ZM57.8119 38.4485C58.9237 39.1957 59.63 40.4126 59.727 41.7485C59.727 42.1418 59.6228 42.3779 59.5207 42.4367C59.4138 42.4973 59.1486 42.4684 58.7987 42.2661C57.6864 41.5194 56.9797 40.3023 56.8827 38.9661C56.8827 38.5729 56.9868 38.3367 57.089 38.278C57.131 38.2569 57.1779 38.2469 57.2249 38.2491C57.4341 38.2658 57.6358 38.3344 57.8119 38.4485ZM28.5562 12.3476L33.309 15.0908C32.792 15.8758 32.3481 16.7066 31.9831 17.5727L25.7447 13.971L28.5562 12.3476ZM34.0289 26.9117C34.0289 27.3049 33.9248 27.5411 33.8227 27.5998C33.7157 27.6615 33.4516 27.6326 33.0998 27.4293C31.9878 26.6824 31.281 25.4653 31.1838 24.1292C31.1838 23.736 31.2879 23.4999 31.3911 23.4411C31.4328 23.42 31.4793 23.4099 31.526 23.4123C31.7352 23.429 31.9369 23.4975 32.113 23.6118C33.2252 24.3582 33.9319 25.5755 34.0289 26.9117ZM66.1518 72.3033L24.7599 48.4056V15.6822L31.3289 19.4747C31.1523 20.1399 31.0365 20.8198 30.9834 21.506C30.7803 21.5523 30.5852 21.6282 30.4041 21.731C29.6 22.254 29.1429 23.1722 29.2098 24.1289C29.3099 26.1703 30.3915 28.0369 32.1129 29.1388C32.59 29.4283 33.1347 29.5875 33.6926 29.6004C34.084 29.6036 34.4695 29.5033 34.8096 29.3093C35.6129 28.7856 36.0695 27.8679 36.0029 26.9114C35.9034 24.8699 34.8215 23.0029 33.0998 21.9016C33.0471 21.8711 32.9941 21.8581 32.9412 21.8305C32.9623 21.384 33.0181 20.9396 33.1082 20.5018L56.4955 34.004C56.2823 34.8342 56.1708 35.6871 56.1635 36.5443C56.144 36.5547 56.1213 36.5569 56.1021 36.568C55.2989 37.0918 54.8422 38.0094 54.9089 38.9659C55.0084 41.0074 56.0903 42.8744 57.8119 43.9758C58.2889 44.2654 58.8338 44.4246 59.3916 44.4374C59.7829 44.4411 60.1681 44.3406 60.5077 44.1463C61.3112 43.6229 61.7678 42.705 61.7009 41.7484C61.6013 39.7072 60.52 37.8404 58.7989 36.7386C58.59 36.6193 58.3699 36.521 58.1417 36.445C58.1511 35.9734 58.2009 35.5034 58.2904 35.0403L66.1517 39.5789V72.3033H66.1518ZM67.1387 37.8697L58.8613 33.0907C59.2003 32.2112 59.632 31.3701 60.149 30.5819L63.5721 32.5576C64.2009 34.0515 65.2737 35.3159 66.6451 36.1797C67.2315 36.5363 67.901 36.7329 68.5872 36.7503C68.7975 36.7484 69.0068 36.7225 69.2113 36.6732L67.1387 37.8697ZM71.0103 70.6382L68.1256 72.3036V39.5795L71.0103 37.9141V70.6382ZM73.7544 31.8984C73.7207 31.9135 73.6879 31.9306 73.6561 31.9495L73.609 31.9775L73.6 31.9857L71.3224 33.3008C71.1349 30.8281 69.8247 28.5777 67.7671 27.1936L70.1889 25.7957C70.4698 25.6112 70.9589 25.6875 71.507 26.0087C73.098 27.0535 74.1062 28.7847 74.2298 30.684C74.2295 31.3105 74.0521 31.7645 73.7544 31.8984Z" fill="#EFF1F3"/>
</g>
<g clip-path="url(#clip1_91_4411)">
<path d="M16.4381 34.1087C16.2564 33.796 15.8565 33.6884 15.5424 33.8678L10.3571 36.8338C10.2049 36.9207 10.0937 37.0648 10.0481 37.2341C10.0024 37.4033 10.0263 37.5837 10.1142 37.7354L11.531 40.1783C11.7041 40.4758 12.0769 40.59 12.3869 40.4404V43.644C12.3868 43.8791 12.5122 44.0964 12.7158 44.214L18.3842 47.4865C18.5879 47.604 18.8387 47.604 19.0422 47.4865C19.2458 47.369 19.3712 47.1517 19.3712 46.9166V44.8039C19.5662 44.8981 19.7951 44.8904 19.9835 44.7833L21.4004 43.9762C21.5528 43.8894 21.6644 43.7454 21.7101 43.5759C21.7558 43.4066 21.7319 43.2259 21.6439 43.0741L16.4381 34.1087ZM19.8993 43.3163L19.2825 42.2522C19.1331 41.9949 18.8296 41.8697 18.5423 41.947C18.2549 42.0244 18.0552 42.285 18.0552 42.5825V45.7766L13.7027 43.2643V39.31C13.7026 39.0756 13.5779 38.859 13.3753 38.7412C13.1727 38.6235 12.9228 38.6223 12.719 38.7382L12.3418 38.9528L11.5849 37.6472L15.6278 35.3346L20.1725 43.1608L19.8993 43.3163Z" fill="#2F344C"/>
<path d="M24.0976 41.4507C23.8939 41.5683 23.7685 41.7856 23.7686 42.0208C23.7687 42.256 23.8942 42.4733 24.0979 42.5908L33.6833 48.1249C33.887 48.2426 34.1379 48.2427 34.3416 48.1251C34.5453 48.0075 34.6707 47.7902 34.6706 47.555C34.6705 47.3199 34.545 47.1025 34.3413 46.9852L24.7559 41.4509C24.5522 41.3331 24.3013 41.3331 24.0976 41.4507Z" fill="#2F344C"/>
<path d="M34.341 50.4569L29.8008 47.8359C29.5972 47.7182 29.3462 47.7181 29.1425 47.8357C28.9388 47.9533 28.8134 48.1706 28.8135 48.4058C28.8136 48.6409 28.9391 48.8583 29.1428 48.9757L33.683 51.5967C33.8866 51.7144 34.1376 51.7145 34.3413 51.5969C34.545 51.4793 34.6704 51.262 34.6703 51.0268C34.6703 50.7916 34.5447 50.5743 34.341 50.4569Z" fill="#2F344C"/>
<path d="M24.0979 46.0624L27.1249 47.8101C27.4396 47.9916 27.8418 47.8837 28.0235 47.569C28.2051 47.2543 28.0974 46.852 27.7828 46.6703L24.7559 44.9226C24.5522 44.8049 24.3013 44.8048 24.0976 44.9224C23.8939 45.0399 23.7685 45.2573 23.7686 45.4924C23.7686 45.7277 23.8942 45.945 24.0979 46.0624Z" fill="#2F344C"/>
<path d="M34.341 53.9289L31.8184 52.4724C31.6147 52.3547 31.3638 52.3546 31.1601 52.4722C30.9564 52.5898 30.831 52.8071 30.8311 53.0422C30.8312 53.2774 30.9567 53.4947 31.1604 53.6122L33.683 55.0688C33.8866 55.1865 34.1375 55.1866 34.3413 55.069C34.545 54.9514 34.6704 54.7341 34.6703 54.4989C34.6703 54.2637 34.5447 54.0464 34.341 53.9289Z" fill="#2F344C"/>
<path d="M29.8011 51.3076L24.7559 48.395C24.5522 48.2773 24.3013 48.2772 24.0976 48.3948C23.8939 48.5124 23.7685 48.7297 23.7686 48.9648C23.7687 49.2 23.8942 49.4173 24.0979 49.5347L29.1431 52.4473C29.3468 52.565 29.5977 52.5651 29.8014 52.4475C30.0051 52.3299 30.1305 52.1126 30.1304 51.8774C30.1304 51.6424 30.0048 51.425 29.8011 51.3076Z" fill="#2F344C"/>
<path d="M42.8019 32.4559C42.7175 30.7205 41.7961 29.1338 40.3306 28.2004C39.8644 27.904 39.3107 27.7762 38.7616 27.8382L11.4228 12.083C11.3946 12.0711 11.3655 12.0614 11.3358 12.0538C11.2973 12.0365 11.2573 12.023 11.2162 12.0136C11.0951 11.9868 10.9686 11.9999 10.8556 12.0508C10.8233 12.0589 10.7917 12.0697 10.761 12.0829L7.52923 13.949L7.51996 13.9528C7.45178 13.994 7.39172 14.0474 7.34289 14.1103C7.33195 14.1237 7.32189 14.1365 7.31202 14.1506C7.26778 14.2116 7.23448 14.2798 7.21358 14.3522L7.21172 14.3658C7.19854 14.4171 7.1915 14.4697 7.19092 14.5227V17.632C7.19082 17.867 7.31632 18.0844 7.51986 18.2019L9.72057 19.4721L7.51937 20.7431C7.51253 20.747 7.50902 20.754 7.50238 20.7582C7.44485 20.7947 7.39348 20.84 7.35002 20.8925C7.33498 20.9099 7.32101 20.9283 7.30802 20.9473C7.26837 21.0038 7.2378 21.0663 7.21768 21.1323L7.21201 21.1521C7.19805 21.2053 7.19072 21.26 7.19043 21.315V44.6501C7.19033 44.8852 7.31583 45.1025 7.51937 45.2201L36.4298 61.912L36.433 61.9133C36.4632 61.9287 36.4947 61.9416 36.527 61.9521C36.5735 61.9774 36.6258 61.9903 36.6787 61.9896C36.7052 61.9947 36.7319 61.9982 36.7589 62H36.7592H36.7595C36.8747 62.0001 36.988 61.9698 37.0878 61.912L40.33 60.0403C40.3554 60.0211 40.3793 60.0001 40.4013 59.9774C40.4739 59.926 40.5321 59.857 40.5704 59.7767C40.5858 59.7502 40.5993 59.7226 40.6107 59.6941C40.6297 59.6394 40.6412 59.5823 40.6449 59.5246C40.6465 59.5057 40.6559 59.4896 40.6559 59.4703V36.1365C40.6559 36.1242 40.6518 36.1128 40.6511 36.1005C40.6493 36.0689 40.6451 36.0374 40.6386 36.0064C40.6279 35.9552 40.6112 35.9054 40.5887 35.8582C40.5807 35.841 40.5807 35.8224 40.571 35.8057C40.5617 35.7897 40.5461 35.7808 40.5357 35.7658C40.5053 35.7213 40.4693 35.6808 40.4289 35.6451C40.4062 35.625 40.3821 35.6065 40.3568 35.5899C40.3457 35.5826 40.3371 35.5727 40.3255 35.566L40.0696 35.419L41.7679 34.4384C41.7734 34.4352 41.7761 34.4298 41.7814 34.4264C42.4733 34.0214 42.8703 33.2546 42.8019 32.4559ZM11.0929 13.4111L37.3213 28.5264L35.6803 29.4737C35.6368 29.4926 35.5956 29.5165 35.5574 29.5446L35.3552 29.6613L9.16583 14.5237L11.0929 13.4111ZM38.2424 34.3303C38.254 34.5615 38.1997 34.7911 38.0859 34.9926L38.0857 34.9928L38.0854 34.9935C38.0559 35.0384 38.0184 35.0776 37.9746 35.1088L37.9169 35.1421C37.6302 35.2155 37.3256 35.156 37.0877 34.98C36.3649 34.5055 35.8143 33.8107 35.5173 32.9986L35.5171 32.9978C35.3681 32.6353 35.2862 32.2489 35.2751 31.8572C35.2352 31.5581 35.3447 31.2584 35.5681 31.0553C35.6385 31.0177 35.7177 30.999 35.7976 31.0014C36.0223 31.0154 36.2398 31.0862 36.4298 31.207C37.4894 31.9071 38.1602 33.0629 38.2424 34.3303ZM8.50697 17.2522V15.6632L34.2891 30.5652C34.0658 30.9587 33.952 31.4049 33.9593 31.8572C33.9593 31.8863 33.9658 31.9169 33.9665 31.9462L8.50697 17.2522ZM30.0833 33.3924L14.4711 24.3787C14.7055 23.797 15.0001 23.2415 15.3503 22.7213L30.956 31.7282C30.6139 32.2544 30.3217 32.8116 30.0833 33.3924ZM30.541 37.6323C31.2821 38.1304 31.753 38.9417 31.8177 39.8324C31.8177 40.0945 31.7482 40.2519 31.6801 40.2911C31.6088 40.3315 31.4321 40.3123 31.1988 40.1774C30.4573 39.6796 29.9861 38.8682 29.9215 37.9774C29.9215 37.7153 29.9909 37.5578 30.059 37.5187C30.087 37.5046 30.1183 37.4979 30.1496 37.4994C30.2891 37.5105 30.4236 37.5563 30.541 37.6323ZM11.0371 20.2317L14.2057 22.0605C13.861 22.5838 13.5651 23.1377 13.3217 23.7151L9.1628 21.314L11.0371 20.2317ZM14.6856 29.9411C14.6856 30.2033 14.6162 30.3607 14.5481 30.3999C14.4768 30.441 14.3007 30.4217 14.0662 30.2862C13.3248 29.7883 12.8537 28.9769 12.7889 28.0862C12.7889 27.824 12.8583 27.6666 12.9271 27.6274C12.9549 27.6134 12.9858 27.6066 13.017 27.6082C13.1565 27.6193 13.291 27.665 13.4083 27.7412C14.1498 28.2388 14.621 29.0503 14.6856 29.9411ZM36.1009 60.2022L8.50629 44.2704V22.4548L12.8856 24.9831C12.7679 25.4266 12.6907 25.8799 12.6552 26.3373C12.5199 26.3682 12.3898 26.4188 12.2691 26.4874C11.733 26.836 11.4283 27.4481 11.4729 28.086C11.5396 29.4468 12.2607 30.6913 13.4083 31.4258C13.7264 31.6188 14.0895 31.725 14.4614 31.7336C14.7224 31.7357 14.9793 31.6688 15.2061 31.5395C15.7416 31.1904 16.046 30.5786 16.0016 29.9409C15.9353 28.58 15.214 27.3353 14.0662 26.601C14.0311 26.5807 13.9957 26.572 13.9605 26.5537C13.9745 26.256 14.0117 25.9598 14.0718 25.6678L29.6633 34.6693C29.5212 35.2228 29.4469 35.7914 29.442 36.3629C29.429 36.3698 29.4139 36.3713 29.4011 36.3787C28.8656 36.7279 28.5612 37.3396 28.6056 37.9773C28.6719 39.3383 29.3932 40.5829 30.541 41.3172C30.859 41.5103 31.2222 41.6164 31.5941 41.6249C31.855 41.6274 32.1117 41.5604 32.3381 41.4309C32.8738 41.0819 33.1782 40.47 33.1336 39.8323C33.0672 38.4715 32.3463 37.2269 31.1989 36.4924C31.0597 36.4129 30.913 36.3473 30.7608 36.2967C30.7671 35.9823 30.8003 35.669 30.8599 35.3602L36.1008 38.3859V60.2022H36.1009ZM36.7588 37.2465L31.2405 34.0605C31.4665 33.4741 31.7544 32.9134 32.099 32.388L34.3811 33.7051C34.8003 34.701 35.5155 35.5439 36.4297 36.1198C36.8207 36.3575 37.267 36.4886 37.7245 36.5002C37.8647 36.4989 38.0042 36.4816 38.1406 36.4488L36.7588 37.2465ZM39.3399 59.0921L37.4168 60.2024V38.3863L39.3399 37.2761V59.0921ZM41.1693 33.2656C41.1468 33.2756 41.1249 33.2871 41.1038 33.2997L41.0723 33.3183L41.0663 33.3238L39.5479 34.2005C39.4229 32.552 38.5495 31.0518 37.1778 30.129L38.7923 29.1971C38.9795 29.0741 39.3056 29.125 39.671 29.3391C40.7316 30.0357 41.4038 31.1898 41.4862 32.456C41.486 32.8737 41.3677 33.1763 41.1693 33.2656Z" fill="#2F344C"/>
</g>
<defs>
<clipPath id="clip0_91_4411">
<rect width="75" height="75" fill="white" transform="translate(12)"/>
</clipPath>
<clipPath id="clip1_91_4411">
<rect width="50" height="50" fill="white" transform="translate(0 12)"/>
</clipPath>
</defs>
</svg>
