<svg width="100" height="100" viewBox="0 0 100 100" fill="none" xmlns="http://www.w3.org/2000/svg">
<circle cx="50" cy="50" r="50" fill="white"/>
<circle cx="50" cy="50" r="47.5" stroke="#FF4D61" stroke-opacity="0.3" stroke-width="5"/>
<circle cx="50" cy="50" r="40" fill="#FF4D61" fill-opacity="0.3"/>
<g clip-path="url(#clip0_1972_36278)">
<path d="M54.3944 25V40.8549L46.2981 56.5266L41.2556 47.2818L25.0371 75H74.964L57.3241 40.8549V36.7188H71.78L67.8737 30.8594L71.78 25H54.3944ZM55.8593 44.4024L60.0542 52.5226L58.789 53.7878L55.8593 50.8581L52.9296 53.7878L51.6644 52.5226L55.8593 44.4024ZM30.1457 72.0703L41.1661 53.2359L44.6749 59.6688L38.2681 72.0703H30.1457ZM41.5656 72.0703L50.253 55.2544L52.9296 57.931L55.8593 55.0013L58.789 57.931L61.4655 55.2544L70.1529 72.0703H41.5656ZM66.3058 33.7891H57.3241V27.9297H66.3058L64.3526 30.8594L66.3058 33.7891Z" fill="#FF4D61"/>
</g>
<defs>
<clipPath id="clip0_1972_36278">
<rect width="50" height="50" fill="white" transform="translate(25 25)"/>
</clipPath>
</defs>
</svg>
