<svg width="20" height="20" viewBox="0 0 20 20" fill="none" xmlns="http://www.w3.org/2000/svg">
<path d="M8.46157 0H0.769234C0.344385 0 0 0.344385 0 0.769234V8.46157C0 8.88642 0.344385 9.2308 0.769234 9.2308H8.46157C8.88642 9.2308 9.2308 8.88642 9.2308 8.46157V0.769234C9.2308 0.344385 8.88642 0 8.46157 0Z" fill="#181E39"/>
<path d="M19.2306 0H11.5383C11.1134 0 10.769 0.344385 10.769 0.769234V8.46157C10.769 8.88642 11.1134 9.2308 11.5383 9.2308H19.2306C19.6555 9.2308 19.9998 8.88642 19.9998 8.46157V0.769234C19.9998 0.344385 19.6555 0 19.2306 0Z" fill="#181E39"/>
<path d="M8.46157 10.7692H0.769234C0.344385 10.7692 0 11.1136 0 11.5384V19.2307C0 19.6556 0.344385 20 0.769234 20H8.46157C8.88642 20 9.2308 19.6556 9.2308 19.2307V11.5384C9.2308 11.1136 8.88642 10.7692 8.46157 10.7692Z" fill="#181E39"/>
<path d="M19.2306 10.7692H11.5383C11.1134 10.7692 10.769 11.1136 10.769 11.5384V19.2307C10.769 19.6556 11.1134 20 11.5383 20H19.2306C19.6555 20 19.9998 19.6556 19.9998 19.2307V11.5384C19.9998 11.1136 19.6555 10.7692 19.2306 10.7692Z" fill="#181E39"/>
</svg>
