<svg width="100" height="100" viewBox="0 0 100 100" fill="none" xmlns="http://www.w3.org/2000/svg">
<circle cx="50" cy="50" r="50" fill="#F6F7F8"/>
<g clip-path="url(#clip0_16_387)">
<path d="M49.9995 25.6251L29.1277 45.9276V75.7518H70.8712V45.9276L49.9995 25.6251Z" fill="#DFEBFA"/>
<path d="M34.0777 48.9727C34.0777 48.2608 34.3655 47.5791 34.8759 47.0827L53.4673 28.9984L49.9995 25.6251L29.1277 45.9276V75.7517H34.0777V48.9727Z" fill="#B1DBFC"/>
<path d="M62.7933 24.2465V31.816L69.4768 38.3172V24.2465H62.7933Z" fill="#695D67"/>
<path d="M66.6639 32.3303C66.3258 32.0015 66.1351 31.5499 66.1351 31.0782V24.2465H62.7933V31.816L69.4768 38.3172V35.0666L66.6639 32.3303Z" fill="#544E55"/>
<path d="M76.4094 44.7006L51.7437 20.7074C50.7731 19.7632 49.2277 19.7632 48.2572 20.7074L23.5915 44.7006C22.6017 45.6633 22.5798 47.2462 23.5426 48.2359C24.5054 49.2257 26.0883 49.2476 27.0779 48.2848L49.6574 26.321C49.8484 26.1353 50.1525 26.1353 50.3435 26.321L72.923 48.2847C73.9132 49.2478 75.4959 49.2253 76.4583 48.2358C77.4211 47.2462 77.3992 45.6633 76.4094 44.7006V44.7006Z" fill="#FF656F"/>
<path d="M49.6574 26.321C49.7432 26.2376 49.8519 26.1938 49.9629 26.1852L52.1606 24.0474C52.8096 23.416 53.7154 23.2091 54.5347 23.4223L51.7437 20.7074C50.7731 19.7632 49.2277 19.7632 48.2572 20.7074L23.5915 44.7006C22.6017 45.6633 22.5798 47.2462 23.5426 48.2359C24.5054 49.2257 26.0883 49.2476 27.0779 48.2848L49.6574 26.321Z" fill="#FF4756"/>
<path d="M71.4148 23.7365V20.873C71.4148 20.3909 71.0238 20 70.5417 20H61.7266C61.2445 20 60.8537 20.3908 60.8537 20.873V23.7366C60.8537 24.2187 61.2445 24.6097 61.7266 24.6097H70.5417C71.0238 24.6096 71.4148 24.2188 71.4148 23.7365V23.7365Z" fill="#7B6C79"/>
<path d="M64.1954 23.7365V20.873C64.1954 20.3909 64.5862 20 65.0683 20H61.7266C61.2445 20 60.8537 20.3908 60.8537 20.873V23.7366C60.8537 24.2187 61.2445 24.6097 61.7266 24.6097H65.0683C64.5862 24.6096 64.1954 24.2188 64.1954 23.7365V23.7365Z" fill="#695D67"/>
<path d="M33.9596 53.1475H47.9602V75.7522H33.9596V53.1475Z" fill="#AB6B51"/>
<path d="M33.9596 53.1475H38.4938V75.7522H33.9596V53.1475Z" fill="#965A44"/>
<path d="M52.0427 53.2671V70.172C52.0427 70.5447 52.3449 70.8471 52.7178 70.8471H65.3683C65.7411 70.8471 66.0435 70.5449 66.0435 70.172V53.2671H52.0427Z" fill="#60B8FE"/>
<path d="M56.5769 70.172V53.2671H52.0427V70.172C52.0427 70.5447 52.3449 70.8471 52.7178 70.8471H57.2521C56.8792 70.8471 56.5769 70.5447 56.5769 70.172Z" fill="#23A8FE"/>
<path d="M59.9484 53.3878C59.9484 53.3468 59.9448 53.3067 59.9395 53.2671H58.1466C58.1413 53.3067 58.1376 53.3468 58.1376 53.3878V61.212H52.0427V63.0229H58.1376V70.847H59.9485V63.0229H66.0435V61.212H59.9485V53.3878H59.9484Z" fill="#8BCAFF"/>
<path d="M52.0427 61.2132H56.5769V63.0241H52.0427V61.2132Z" fill="#60B8FE"/>
<path d="M65.3683 48.9932H52.7178C52.3449 48.9932 52.0427 49.2955 52.0427 49.6683V53.389H66.0433V49.6683C66.0433 49.2956 65.7411 48.9932 65.3683 48.9932V48.9932Z" fill="#23A8FE"/>
<path d="M57.2521 48.9932H52.7178C52.3449 48.9932 52.0427 49.2955 52.0427 49.6683V53.3892H56.5769V49.6683C56.5769 49.2956 56.8792 48.9932 57.2521 48.9932V48.9932Z" fill="#0193FA"/>
<path d="M47.2852 48.9932H34.6347C34.2619 48.9932 33.9596 49.2955 33.9596 49.6683V53.3892H47.9602V49.6683C47.9602 49.2956 47.658 48.9932 47.2852 48.9932V48.9932Z" fill="#BC7C63"/>
<path d="M39.1689 48.9932H34.6347C34.2619 48.9932 33.9596 49.2955 33.9596 49.6683V53.3892H38.4938V49.6683C38.4938 49.2956 38.796 48.9932 39.1689 48.9932V48.9932Z" fill="#AB6B51"/>
<path d="M43.0792 64.9302C44.0802 64.9302 44.8917 64.1187 44.8917 63.1177C44.8917 62.1166 44.0802 61.3051 43.0792 61.3051C42.0782 61.3051 41.2667 62.1166 41.2667 63.1177C41.2667 64.1187 42.0782 64.9302 43.0792 64.9302Z" fill="#DFEBFA"/>
<path d="M71.7549 75.3903H28.2487C27.7666 75.3903 27.3757 75.7811 27.3757 76.2633V79.1269C27.3757 79.609 27.7666 79.9999 28.2487 79.9999H71.7549C72.237 79.9999 72.6279 79.6091 72.6279 79.1269V76.2633C72.6279 75.7811 72.237 75.3903 71.7549 75.3903Z" fill="#43CB8E"/>
<path d="M32.8988 79.1259V76.2623C32.8988 75.7802 33.2896 75.3893 33.7717 75.3893H28.2487C27.7666 75.3893 27.3757 75.7801 27.3757 76.2623V79.1259C27.3757 79.608 27.7666 79.999 28.2487 79.999H33.7718C33.2896 79.999 32.8988 79.6082 32.8988 79.1259V79.1259Z" fill="#00BA66"/>
</g>
<defs>
<clipPath id="clip0_16_387">
<rect width="60" height="60" fill="white" transform="translate(20 20)"/>
</clipPath>
</defs>
</svg>
