<svg width="80" height="80" viewBox="0 0 80 80" fill="none" xmlns="http://www.w3.org/2000/svg">
<g clip-path="url(#clip0_4385_127043)">
<path d="M39.0625 54.8438H40.9375C49.9839 54.8438 57.3438 47.4839 57.3438 38.4375V16.5625C57.3438 7.42987 49.9839 3.05176e-05 40.9375 3.05176e-05H39.0625C30.0261 3.05176e-05 22.6725 7.41378 22.6562 16.5325V38.4375C22.6562 47.4839 30.0161 54.8438 39.0625 54.8438ZM39.0625 4.68753H40.9375C46.9294 4.68753 51.8823 9.26909 52.5712 15.1563H48.75C47.4556 15.1563 46.4062 16.2057 46.4062 17.5C46.4062 18.7944 47.4556 19.8438 48.75 19.8438H52.6562V25.1563H46.25C44.9556 25.1563 43.9062 26.2057 43.9062 27.5C43.9062 28.7944 44.9556 29.8438 46.25 29.8438H52.6562V35.1563H48.75C47.4556 35.1563 46.4062 36.2057 46.4062 37.5C46.4062 38.7944 47.4556 39.8438 48.75 39.8438H52.5689C51.8716 45.6446 46.9231 50.1563 40.9375 50.1563H39.0625C33.077 50.1563 28.1284 45.6446 27.4311 39.8438H31.25C32.5444 39.8438 33.5938 38.7944 33.5938 37.5C33.5938 36.2057 32.5444 35.1563 31.25 35.1563H27.3438V29.8438H33.75C35.0444 29.8438 36.0938 28.7944 36.0938 27.5C36.0938 26.2057 35.0444 25.1563 33.75 25.1563H27.3438V19.8438H31.25C32.5444 19.8438 33.5938 18.7944 33.5938 17.5C33.5938 16.2057 32.5444 15.1563 31.25 15.1563H27.4288C28.1177 9.26909 33.0706 4.68753 39.0625 4.68753Z" fill="#2F344C"/>
<path d="M67.3438 37.5C67.3438 36.2057 66.2944 35.1563 65 35.1563C63.7056 35.1563 62.6562 36.2057 62.6562 37.5C62.6562 49.9927 52.4927 60.1563 40 60.1563C27.5073 60.1563 17.3438 49.9927 17.3438 37.5C17.3438 36.2057 16.2944 35.1563 15 35.1563C13.7056 35.1563 12.6562 36.2057 12.6562 37.5C12.6562 51.7878 23.672 63.5494 37.6562 64.7422V75.3125H25C23.7056 75.3125 22.6562 76.3619 22.6562 77.6563C22.6562 78.9507 23.7056 80 25 80H55C56.2944 80 57.3438 78.9507 57.3438 77.6563C57.3438 76.3619 56.2944 75.3125 55 75.3125H42.3438V64.7422C56.328 63.5494 67.3438 51.7878 67.3438 37.5Z" fill="#2F344C"/>
</g>
<defs>
<clipPath id="clip0_4385_127043">
<rect width="80" height="80" fill="white"/>
</clipPath>
</defs>
</svg>
