<svg width="48" height="48" viewBox="0 0 48 48" fill="none" xmlns="http://www.w3.org/2000/svg">
<path d="M14.3771 11.925L12.3532 13.9125L14.1289 15.6563L0 42.2813L5.81384 48L32.926 34.125L34.7017 35.8688L36.7255 33.8813L14.3771 11.925ZM23.6086 24.975H12.4296L16.2578 17.7563L23.6086 24.975ZM6.05251 36.9938H21.1169L6.358 44.55L3.52267 41.7657L6.05251 36.9938ZM26.6158 34.1813H7.54177L10.9308 27.7875H26.4726L30.7971 32.0344L26.6158 34.1813Z" fill="#5D6174"/>
<path d="M27.189 13.9219C27.7905 14.2594 28.4492 14.5031 29.1747 14.6531C28.516 16.3125 27.4754 17.8218 26.1389 19.0125L28.0578 21.1031C29.9575 19.4156 31.38 17.2031 32.1532 14.8031C37.4134 14.3437 42.158 10.4625 43.5327 5.45623L40.7642 4.72498C40.2392 6.63748 39.0267 8.4281 37.3561 9.76873C35.9909 10.8562 34.3967 11.5875 32.7642 11.8875C32.917 10.2844 32.7069 8.98123 32.1437 7.9031C31.3036 6.28123 29.6234 5.30623 27.9623 5.4656C25.948 5.66248 24.3537 7.5281 24.4014 9.6281C24.4396 11.3437 25.5088 12.9844 27.189 13.9219ZM28.2487 8.26873C28.2773 8.26873 28.2964 8.26873 28.3251 8.26873C28.7833 8.26873 29.3179 8.64373 29.5948 9.18748C29.9098 9.79685 29.8812 10.6125 29.8812 11.925C29.4038 11.8312 28.9742 11.6812 28.6115 11.475C27.8286 11.0437 27.294 10.275 27.2845 9.57185C27.2559 8.96248 27.7427 8.3156 28.2487 8.26873Z" fill="#5D6174"/>
<path d="M43.9037 22.5749C40.066 20.578 35.0445 21.3093 31.9609 24.3187L33.9848 26.3155C36.1614 24.1968 39.8559 23.653 42.5671 25.0687L43.9037 22.5749Z" fill="#FF4D61"/>
<path d="M41.8047 30.1687H44.6686V32.9812H41.8047V30.1687Z" fill="#5D6174"/>
<path d="M31.7324 0H34.5964V2.8125H31.7324V0Z" fill="#FF4D61"/>
<path d="M42.5391 14.4375L46.94 12.7219L47.9997 15.3375L43.5987 17.0625L42.5391 14.4375Z" fill="#5D6174"/>
<path d="M17.8711 3.3844H20.7351V7.64065H17.8711V3.3844Z" fill="#FF4D61"/>
</svg>
