<svg width="124" height="108" viewBox="0 0 124 108" fill="none" xmlns="http://www.w3.org/2000/svg">
<path d="M71.7544 30.1387C75.804 27.1424 78.4357 22.3336 78.4357 16.9206C78.4357 7.85805 71.063 0.485352 62.0005 0.485352C52.938 0.485352 45.5653 7.85805 45.5653 16.9206C45.5653 22.3336 48.197 27.1424 52.2466 30.1387C44.9031 33.7533 39.8359 41.3125 39.8359 50.0358V67.8491C39.8359 71.5613 42.2356 74.7233 45.5656 75.8655V100.829C45.5656 104.515 48.5648 107.515 52.2513 107.515H71.7503C75.4368 107.515 78.436 104.515 78.436 100.829V75.8655C81.766 74.7233 84.1657 71.5613 84.1657 67.8491V50.0358C84.1654 41.3128 79.0982 33.7533 71.7544 30.1387ZM62.0008 5.96992C68.0387 5.96992 72.9515 10.8824 72.9515 16.9206C72.9515 22.9588 68.039 27.8712 62.0008 27.8712C55.9626 27.8712 51.0501 22.9588 51.0501 16.9206C51.0501 10.8824 55.9626 5.96992 62.0008 5.96992ZM78.6808 67.8491C78.6808 69.5069 77.3232 70.8538 75.6617 70.8362C74.152 70.8203 72.9515 72.1147 72.9515 73.6244V100.829C72.9515 101.493 72.4137 102.03 71.7503 102.03H66.0732C65.3386 102.03 64.7431 101.435 64.7431 100.7V77.5199C64.7431 76.0592 63.641 74.7839 62.1835 74.6895C60.5864 74.5862 59.2585 75.8511 59.2585 77.4258V100.7C59.2585 101.435 58.663 102.03 57.9284 102.03H52.2513C51.5879 102.03 51.0501 101.493 51.0501 100.829V73.6246C51.0501 72.115 49.8496 70.8206 48.3399 70.8365C46.6781 70.8538 45.3205 69.5069 45.3205 67.8491V50.289C45.3205 41.1355 52.589 33.4972 61.7416 33.3575C71.0573 33.2155 78.6808 40.7519 78.6808 50.0355V67.8491Z" fill="#B0B7C4"/>
<path d="M24.5746 37.21C27.0401 34.9599 28.5896 31.7223 28.5896 28.1293C28.5896 21.3492 23.0736 15.8335 16.2935 15.8335C9.51342 15.8335 3.99738 21.3492 3.99738 28.1293C3.99738 31.7223 5.54692 34.9599 8.01238 37.21C3.22088 40.0502 0 45.2718 0 51.2341V63.663C0 66.4032 1.64422 68.7668 3.99767 69.8195V86.6736C3.99767 89.7028 6.46226 92.1674 9.49148 92.1674H23.0961C26.1253 92.1674 28.5896 89.7028 28.5896 86.6736V69.8195C30.9431 68.7671 32.587 66.4035 32.587 63.6633V51.2344C32.587 45.2718 29.3661 40.0502 24.5746 37.21ZM9.48224 28.129C9.48224 24.3733 12.5377 21.3178 16.2938 21.3178C20.0498 21.3178 23.1053 24.3733 23.1053 28.129C23.1053 31.8848 20.0498 34.9406 16.2938 34.9406C12.5377 34.9406 9.48224 31.8848 9.48224 28.129ZM27.1024 63.663C27.1024 64.3549 26.5392 64.9181 25.8473 64.9181C24.3327 64.9181 23.105 66.1457 23.105 67.6603L23.0961 86.6826L19.0361 86.6797V70.3443C19.0361 68.8297 17.8084 67.602 16.2938 67.602C14.7792 67.602 13.5515 68.8297 13.5515 70.3443V86.6759L9.48224 86.673V67.6601C9.48224 66.1455 8.25456 64.9178 6.73996 64.9178C6.04775 64.9178 5.48457 64.3546 5.48457 63.6627V51.2338C5.48457 45.2738 10.3335 40.4249 16.2935 40.4249C22.2535 40.4249 27.1024 45.2738 27.1024 51.2338V63.663Z" fill="#B0B7C4"/>
<path d="M115.987 37.21C118.452 34.9599 120.002 31.7223 120.002 28.1293C120.002 21.3492 114.486 15.8335 107.706 15.8335C100.926 15.8335 95.4095 21.3492 95.4095 28.1293C95.4095 31.7223 96.959 34.9599 99.4245 37.21C94.633 40.0502 91.4121 45.2718 91.4121 51.2341V63.663C91.4121 66.4032 93.0563 68.7668 95.4098 69.8195V86.6736C95.4098 89.7028 97.8744 92.1674 100.904 92.1674H114.508C117.537 92.1674 120.002 89.7028 120.002 86.6736V69.8195C122.355 68.7671 123.999 66.4035 123.999 63.663V51.2341C123.999 45.2718 120.778 40.0502 115.987 37.21ZM100.894 28.129C100.894 24.3733 103.95 21.3178 107.706 21.3178C111.462 21.3178 114.517 24.3733 114.517 28.129C114.517 31.8848 111.462 34.9406 107.706 34.9406C103.95 34.9406 100.894 31.8848 100.894 28.129ZM118.515 63.663C118.515 64.3549 117.951 64.9181 117.259 64.9181C115.745 64.9181 114.517 66.1457 114.517 67.6603L114.508 86.6826L110.448 86.6797V70.3443C110.448 68.8297 109.22 67.602 107.706 67.602C106.191 67.602 104.963 68.8297 104.963 70.3443V86.6759L100.894 86.673V67.6601C100.894 66.1455 99.6664 64.9178 98.1518 64.9178C97.4596 64.9178 96.8964 64.3546 96.8964 63.6627V51.2338C96.8964 45.2738 101.745 40.4249 107.705 40.4249C113.665 40.4249 118.514 45.2738 118.514 51.2338V63.663H118.515Z" fill="#B0B7C4"/>
</svg>
