<svg width="18" height="16" viewBox="0 0 18 16" fill="none" xmlns="http://www.w3.org/2000/svg">
<mask id="path-1-inside-1" fill="white">
<path d="M16.5273 1.3166C16.0909 0.885168 15.5966 0.557881 15.0443 0.334728C14.492 0.111575 13.9295 0 13.3568 0C12.7841 0 12.2216 0.111575 11.6693 0.334728C11.117 0.557881 10.6227 0.885168 10.1864 1.3166L9 2.4993L7.81364 1.3166C7.37727 0.885168 6.88296 0.557881 6.33068 0.334728C5.77841 0.111575 5.21591 0 4.64318 0C4.07045 0 3.50796 0.111575 2.95568 0.334728C2.40341 0.557881 1.90909 0.885168 1.47273 1.3166C0.981816 1.80753 0.613638 2.36169 0.368182 2.97908C0.122726 3.59647 0 4.22873 0 4.87587C0 5.52302 0.122726 6.15899 0.368182 6.78382C0.613638 7.40865 0.981816 7.96652 1.47273 8.45746L9 16L16.5273 8.45746C17.0182 7.96652 17.3864 7.40865 17.6318 6.78382C17.8773 6.15899 18 5.52302 18 4.87587C18 4.22873 17.8773 3.59647 17.6318 2.97908C17.3864 2.36169 17.0182 1.80753 16.5273 1.3166ZM15.4227 7.27476L9 13.8131L2.57727 7.27476C2.26363 6.94746 2.03864 6.57927 1.90227 6.17015C1.76591 5.76104 1.69773 5.33334 1.69773 4.88703C1.69773 4.44072 1.74886 4.0279 1.85114 3.64854C1.95341 3.26918 2.16136 2.92329 2.475 2.61088C2.76136 2.31334 3.09204 2.09019 3.46705 1.94142C3.84205 1.79265 4.23409 1.71827 4.64318 1.71827C5.05227 1.71827 5.44432 1.83356 5.81932 2.06416C6.19432 2.29475 6.51818 2.55137 6.79091 2.83403L9 4.90934L11.1886 2.83403C11.475 2.55137 11.8057 2.29475 12.1807 2.06416C12.5557 1.83356 12.9477 1.71827 13.3568 1.71827C13.7659 1.71827 14.158 1.79265 14.533 1.94142C14.908 2.09019 15.2386 2.31334 15.525 2.61088C15.8386 2.92329 16.0466 3.26918 16.1489 3.64854C16.2511 4.0279 16.3023 4.44072 16.3023 4.88703C16.3023 5.33334 16.2341 5.76104 16.0977 6.17015C15.9614 6.57927 15.7364 6.94746 15.4227 7.27476Z"/>
</mask>
<path d="M16.5273 1.3166C16.0909 0.885168 15.5966 0.557881 15.0443 0.334728C14.492 0.111575 13.9295 0 13.3568 0C12.7841 0 12.2216 0.111575 11.6693 0.334728C11.117 0.557881 10.6227 0.885168 10.1864 1.3166L9 2.4993L7.81364 1.3166C7.37727 0.885168 6.88296 0.557881 6.33068 0.334728C5.77841 0.111575 5.21591 0 4.64318 0C4.07045 0 3.50796 0.111575 2.95568 0.334728C2.40341 0.557881 1.90909 0.885168 1.47273 1.3166C0.981816 1.80753 0.613638 2.36169 0.368182 2.97908C0.122726 3.59647 0 4.22873 0 4.87587C0 5.52302 0.122726 6.15899 0.368182 6.78382C0.613638 7.40865 0.981816 7.96652 1.47273 8.45746L9 16L16.5273 8.45746C17.0182 7.96652 17.3864 7.40865 17.6318 6.78382C17.8773 6.15899 18 5.52302 18 4.87587C18 4.22873 17.8773 3.59647 17.6318 2.97908C17.3864 2.36169 17.0182 1.80753 16.5273 1.3166ZM15.4227 7.27476L9 13.8131L2.57727 7.27476C2.26363 6.94746 2.03864 6.57927 1.90227 6.17015C1.76591 5.76104 1.69773 5.33334 1.69773 4.88703C1.69773 4.44072 1.74886 4.0279 1.85114 3.64854C1.95341 3.26918 2.16136 2.92329 2.475 2.61088C2.76136 2.31334 3.09204 2.09019 3.46705 1.94142C3.84205 1.79265 4.23409 1.71827 4.64318 1.71827C5.05227 1.71827 5.44432 1.83356 5.81932 2.06416C6.19432 2.29475 6.51818 2.55137 6.79091 2.83403L9 4.90934L11.1886 2.83403C11.475 2.55137 11.8057 2.29475 12.1807 2.06416C12.5557 1.83356 12.9477 1.71827 13.3568 1.71827C13.7659 1.71827 14.158 1.79265 14.533 1.94142C14.908 2.09019 15.2386 2.31334 15.525 2.61088C15.8386 2.92329 16.0466 3.26918 16.1489 3.64854C16.2511 4.0279 16.3023 4.44072 16.3023 4.88703C16.3023 5.33334 16.2341 5.76104 16.0977 6.17015C15.9614 6.57927 15.7364 6.94746 15.4227 7.27476Z" stroke="#FA4B5F" stroke-width="3" mask="url(#path-1-inside-1)"/>
</svg>
