<svg width="100" height="100" viewBox="0 0 100 100" fill="none" xmlns="http://www.w3.org/2000/svg">
<circle cx="50" cy="50" r="50" fill="white"/>
<circle cx="50" cy="50" r="47.5" stroke="#1ACA8E" stroke-opacity="0.3" stroke-width="5"/>
<circle cx="50" cy="50" r="40" fill="#1ACA8E" fill-opacity="0.3"/>
<path d="M68.5781 52.7344C69.6855 51.5772 70.3063 50.0391 70.3125 48.4375V46.875C70.3125 45.2174 69.654 43.6277 68.4819 42.4556C67.3098 41.2835 65.7201 40.625 64.0625 40.625C62.4049 40.625 60.8152 41.2835 59.6431 42.4556C58.471 43.6277 57.8125 45.2174 57.8125 46.875V48.4375C57.8189 50.0467 58.4457 51.5914 59.5625 52.75H59.4688C58.2805 51.3743 56.8096 50.2711 55.1562 49.5156C55.984 48.7991 56.6492 47.9141 57.1073 46.9198C57.5654 45.9255 57.8058 44.8448 57.8125 43.75V40.625C57.8125 38.553 56.9894 36.5659 55.5243 35.1007C54.0591 33.6356 52.072 32.8125 50 32.8125C47.928 32.8125 45.9409 33.6356 44.4757 35.1007C43.0106 36.5659 42.1875 38.553 42.1875 40.625V43.75C42.1875 44.8527 42.4247 45.9424 42.883 46.9453C43.3413 47.9483 44.01 48.8408 44.8438 49.5625C43.1904 50.318 41.7195 51.4212 40.5312 52.7969H40.4375C41.5655 51.6266 42.1932 50.0629 42.1875 48.4375V46.875C42.1875 45.2174 41.529 43.6277 40.3569 42.4556C39.1848 41.2835 37.5951 40.625 35.9375 40.625C34.2799 40.625 32.6902 41.2835 31.5181 42.4556C30.346 43.6277 29.6875 45.2174 29.6875 46.875V48.4375C29.6937 50.0391 30.3145 51.5772 31.4219 52.7344C29.9523 53.5421 28.7262 54.7293 27.8715 56.1721C27.0168 57.6149 26.5648 59.2605 26.5625 60.9375V65.625C26.5625 66.0394 26.7271 66.4368 27.0201 66.7299C27.3132 67.0229 27.7106 67.1875 28.125 67.1875H71.875C72.2894 67.1875 72.6868 67.0229 72.9799 66.7299C73.2729 66.4368 73.4375 66.0394 73.4375 65.625V60.9375C73.4352 59.2605 72.9832 57.6149 72.1285 56.1721C71.2738 54.7293 70.0477 53.5421 68.5781 52.7344ZM60.9375 48.4375V46.875C60.9375 46.0462 61.2667 45.2513 61.8528 44.6653C62.4388 44.0792 63.2337 43.75 64.0625 43.75C64.8913 43.75 65.6862 44.0792 66.2722 44.6653C66.8583 45.2513 67.1875 46.0462 67.1875 46.875V48.4375C67.1875 49.2663 66.8583 50.0612 66.2722 50.6472C65.6862 51.2333 64.8913 51.5625 64.0625 51.5625C63.2337 51.5625 62.4388 51.2333 61.8528 50.6472C61.2667 50.0612 60.9375 49.2663 60.9375 48.4375ZM45.3125 43.75V40.625C45.3125 39.3818 45.8064 38.1895 46.6854 37.3104C47.5645 36.4314 48.7568 35.9375 50 35.9375C51.2432 35.9375 52.4355 36.4314 53.3146 37.3104C54.1936 38.1895 54.6875 39.3818 54.6875 40.625V43.75C54.6875 44.9932 54.1936 46.1855 53.3146 47.0646C52.4355 47.9436 51.2432 48.4375 50 48.4375C48.7568 48.4375 47.5645 47.9436 46.6854 47.0646C45.8064 46.1855 45.3125 44.9932 45.3125 43.75ZM32.8125 48.4375V46.875C32.8125 46.0462 33.1417 45.2513 33.7278 44.6653C34.3138 44.0792 35.1087 43.75 35.9375 43.75C36.7663 43.75 37.5612 44.0792 38.1472 44.6653C38.7333 45.2513 39.0625 46.0462 39.0625 46.875V48.4375C39.0625 49.2663 38.7333 50.0612 38.1472 50.6472C37.5612 51.2333 36.7663 51.5625 35.9375 51.5625C35.1087 51.5625 34.3138 51.2333 33.7278 50.6472C33.1417 50.0612 32.8125 49.2663 32.8125 48.4375ZM29.6875 60.9375C29.6875 59.2799 30.346 57.6902 31.5181 56.5181C32.6902 55.346 34.2799 54.6875 35.9375 54.6875C36.9362 54.6955 37.9179 54.9476 38.7969 55.4219C37.9433 57.1352 37.4993 59.0233 37.5 60.9375V64.0625H29.6875V60.9375ZM59.375 64.0625H40.625V60.9375C40.625 58.4511 41.6127 56.0665 43.3709 54.3084C45.129 52.5502 47.5136 51.5625 50 51.5625C52.4864 51.5625 54.871 52.5502 56.6291 54.3084C58.3873 56.0665 59.375 58.4511 59.375 60.9375V64.0625ZM70.3125 64.0625H62.5V60.9375C62.5007 59.0233 62.0567 57.1352 61.2031 55.4219C62.0821 54.9476 63.0638 54.6955 64.0625 54.6875C65.7201 54.6875 67.3098 55.346 68.4819 56.5181C69.654 57.6902 70.3125 59.2799 70.3125 60.9375V64.0625Z" fill="#1ACA8E"/>
</svg>
