<svg width="100" height="100" viewBox="0 0 100 100" fill="none" xmlns="http://www.w3.org/2000/svg">
<path d="M93.7474 12.5H6.2474C5.0968 12.5 4.16406 13.4327 4.16406 14.5833V72.9167C4.16406 74.0672 5.0968 75 6.2474 75H93.7474C94.898 75 95.8307 74.0672 95.8307 72.9167V14.5833C95.8307 13.4327 94.898 12.5 93.7474 12.5Z" fill="#D3EFFB"/>
<path d="M53.0182 12.5C52.6231 35.7752 43.5515 58.0641 27.5807 75H6.2474C5.69535 74.9984 5.16637 74.7784 4.77602 74.388C4.38566 73.9977 4.16566 73.4687 4.16406 72.9167V14.5833C4.16566 14.0313 4.38566 13.5023 4.77602 13.112C5.16637 12.7216 5.69535 12.5016 6.2474 12.5H53.0182Z" fill="#D3EFFB"/>
<path d="M89.5807 29.1667V58.3333C86.8206 58.3414 84.1757 59.4415 82.224 61.3932C80.2722 63.345 79.1722 65.9898 79.1641 68.75H20.8307C20.2754 68.7472 19.744 68.5239 19.3533 68.1293C18.9626 67.7347 18.7447 67.2011 18.7474 66.6458C18.7323 64.9984 18.0712 63.4227 16.9063 62.2578C15.7413 61.0928 14.1656 60.4317 12.5182 60.4167C11.9629 60.4194 11.4293 60.2014 11.0347 59.8107C10.6401 59.42 10.4169 58.8886 10.4141 58.3333V29.1667C10.4169 28.6114 10.6401 28.08 11.0347 27.6893C11.4293 27.2986 11.9629 27.0806 12.5182 27.0833C14.1656 27.0683 15.7413 26.4072 16.9063 25.2422C18.0712 24.0773 18.7323 22.5016 18.7474 20.8542C18.7447 20.2989 18.9626 19.7653 19.3533 19.3707C19.744 18.9761 20.2754 18.7528 20.8307 18.75H79.1641C79.7194 18.7528 80.2508 18.9761 80.6415 19.3707C81.0322 19.7653 81.2501 20.2989 81.2474 20.8542C81.2625 22.5016 81.9236 24.0773 83.0885 25.2422C84.2535 26.4072 85.8292 27.0683 87.4766 27.0833C88.0319 27.0806 88.5655 27.2986 88.9601 27.6893C89.3547 28.08 89.5779 28.6114 89.5807 29.1667Z" fill="white"/>
<path d="M52.7057 18.75C51.1662 36.9924 44.2982 54.3797 32.9557 68.75H20.8307C20.2754 68.7472 19.744 68.5239 19.3533 68.1293C18.9626 67.7347 18.7447 67.2011 18.7474 66.6458C18.7323 64.9984 18.0712 63.4227 16.9063 62.2578C15.7413 61.0928 14.1656 60.4317 12.5182 60.4167C11.9629 60.4194 11.4293 60.2014 11.0347 59.8107C10.6401 59.42 10.4169 58.8886 10.4141 58.3333V29.1667C10.4169 28.6114 10.6401 28.08 11.0347 27.6893C11.4293 27.2986 11.9629 27.0806 12.5182 27.0833C14.1656 27.0683 15.7413 26.4072 16.9063 25.2422C18.0712 24.0773 18.7323 22.5016 18.7474 20.8542C18.7447 20.2989 18.9626 19.7653 19.3533 19.3707C19.744 18.9761 20.2754 18.7528 20.8307 18.75H52.7057Z" fill="#E6E7EC"/>
<path d="M85.4167 68.75V91.6667C85.4193 92.0443 85.3176 92.4153 85.1228 92.7388C84.928 93.0624 84.6476 93.3258 84.3125 93.5C83.9831 93.6803 83.6103 93.7659 83.2353 93.7475C82.8603 93.7292 82.4977 93.6074 82.1875 93.3958L77.0833 90L73.9167 92.1042L71.9792 93.3958C71.6661 93.6036 71.3026 93.7228 70.9273 93.7405C70.552 93.7582 70.1789 93.6739 69.8477 93.4966C69.5164 93.3192 69.2394 93.0554 69.0462 92.7332C68.8529 92.411 68.7505 92.0424 68.75 91.6667V68.75C68.7521 68.3602 68.8623 67.9786 69.0682 67.6476C69.2742 67.3166 69.5679 67.0491 69.9167 66.875C70.2607 66.7019 70.6467 66.6297 71.0301 66.6665C71.4134 66.7034 71.7785 66.8479 72.0833 67.0833C73.2265 67.9213 74.5615 68.4596 75.9662 68.6488C77.371 68.838 78.8008 68.6723 80.125 68.1667C80.8242 67.8967 81.4831 67.5322 82.0833 67.0833C82.3881 66.8479 82.7532 66.7034 83.1366 66.6665C83.52 66.6297 83.9059 66.7019 84.25 66.875C84.5988 67.0491 84.8925 67.3166 85.0984 67.6476C85.3044 67.9786 85.4145 68.3602 85.4167 68.75Z" fill="#EE4042"/>
<path d="M80.1667 69.6667C80.1853 77.5781 78.0227 85.3416 73.9167 92.1042L71.9792 93.3958C71.6661 93.6037 71.3026 93.7228 70.9273 93.7405C70.552 93.7582 70.1789 93.6739 69.8477 93.4966C69.5164 93.3192 69.2394 93.0554 69.0462 92.7332C68.8529 92.411 68.7505 92.0424 68.75 91.6667V68.75C68.7521 68.3602 68.8623 67.9786 69.0682 67.6476C69.2742 67.3166 69.5679 67.0491 69.9167 66.875C70.2607 66.7019 70.6467 66.6297 71.0301 66.6665C71.4134 66.7034 71.7785 66.8479 72.0833 67.0833C73.2265 67.9213 74.5615 68.4596 75.9662 68.6488C77.371 68.838 78.8008 68.6723 80.125 68.1667C80.1667 68.6667 80.1667 69.1667 80.1667 69.6667Z" fill="#FF5543"/>
<path d="M89.582 60.4167C89.5758 62.3561 89.1213 64.2679 88.2539 66.0026C87.3865 67.7373 86.1299 69.248 84.582 70.4166C82.9049 71.6748 80.9382 72.4908 78.863 72.7893C76.7878 73.0879 74.6708 72.8594 72.707 72.125C71.5845 71.7179 70.5307 71.1418 69.582 70.4166C67.4832 68.8425 65.9329 66.6479 65.1506 64.1437C64.3684 61.6395 64.3939 58.9527 65.2235 56.4638C66.0531 53.9749 67.6448 51.8101 69.7732 50.2761C71.9015 48.7421 74.4585 47.9167 77.082 47.9167C80.3972 47.9167 83.5767 49.2336 85.9209 51.5778C88.2651 53.922 89.582 57.1014 89.582 60.4167Z" fill="#1AACFF"/>
<path d="M62.5 31.25C62.4984 31.802 62.2784 32.331 61.888 32.7214C61.4977 33.1117 60.9687 33.3317 60.4167 33.3333H39.5833C39.0308 33.3333 38.5009 33.1138 38.1102 32.7231C37.7195 32.3324 37.5 31.8025 37.5 31.25C37.5 30.6975 37.7195 30.1676 38.1102 29.7769C38.5009 29.3862 39.0308 29.1667 39.5833 29.1667H60.4167C60.9687 29.1683 61.4977 29.3883 61.888 29.7786C62.2784 30.169 62.4984 30.6979 62.5 31.25Z" fill="#181E39"/>
<path d="M72.9154 39.5833C72.9138 40.1354 72.6938 40.6644 72.3034 41.0547C71.913 41.4451 71.3841 41.6651 70.832 41.6667H29.1654C28.6128 41.6667 28.0829 41.4472 27.6922 41.0565C27.3015 40.6658 27.082 40.1359 27.082 39.5833C27.082 39.0308 27.3015 38.5009 27.6922 38.1102C28.0829 37.7195 28.6128 37.5 29.1654 37.5H70.832C71.3841 37.5016 71.913 37.7216 72.3034 38.112C72.6938 38.5023 72.9138 39.0313 72.9154 39.5833Z" fill="#181E39"/>
<path d="M66.6654 47.9166C66.6638 48.4687 66.4438 48.9977 66.0534 49.388C65.663 49.7784 65.1341 49.9984 64.582 50H29.1654C28.6128 50 28.0829 49.7805 27.6922 49.3898C27.3015 48.9991 27.082 48.4692 27.082 47.9166C27.082 47.3641 27.3015 46.8342 27.6922 46.4435C28.0829 46.0528 28.6128 45.8333 29.1654 45.8333H64.582C65.1341 45.8349 65.663 46.0549 66.0534 46.4453C66.4438 46.8356 66.6638 47.3646 66.6654 47.9166Z" fill="#181E39"/>
<path d="M62.4987 56.25C62.4971 56.802 62.2771 57.331 61.8867 57.7214C61.4964 58.1117 60.9674 58.3317 60.4154 58.3333H29.1654C28.6128 58.3333 28.0829 58.1138 27.6922 57.7231C27.3015 57.3324 27.082 56.8025 27.082 56.25C27.082 55.6975 27.3015 55.1675 27.6922 54.7768C28.0829 54.3861 28.6128 54.1667 29.1654 54.1667H60.4154C60.9674 54.1683 61.4964 54.3883 61.8867 54.7786C62.2771 55.169 62.4971 55.6979 62.4987 56.25Z" fill="#181E39"/>
<path d="M29.1654 54.1667H42.4154C41.6654 55.5833 40.8945 56.9792 40.082 58.3333H29.1654C28.6128 58.3333 28.0829 58.1138 27.6922 57.7231C27.3015 57.3324 27.082 56.8025 27.082 56.25C27.082 55.6975 27.3015 55.1675 27.6922 54.7768C28.0829 54.3861 28.6128 54.1667 29.1654 54.1667Z" fill="#181E39"/>
<path d="M29.1654 45.8333H46.2487C45.6862 47.25 45.082 48.625 44.457 50H29.1654C28.6128 50 28.0829 49.7805 27.6922 49.3898C27.3015 48.9991 27.082 48.4692 27.082 47.9166C27.082 47.3641 27.3015 46.8342 27.6922 46.4435C28.0829 46.0528 28.6128 45.8333 29.1654 45.8333Z" fill="#181E39"/>
<path d="M29.1654 37.5H49.1654C48.7487 38.9167 48.3112 40.2917 47.8112 41.6667H29.1654C28.6128 41.6667 28.0829 41.4472 27.6922 41.0565C27.3015 40.6658 27.082 40.1359 27.082 39.5833C27.082 39.0308 27.3015 38.5009 27.6922 38.1102C28.0829 37.7195 28.6128 37.5 29.1654 37.5Z" fill="#181E39"/>
<path d="M51.25 29.1667C50.9583 30.5625 50.6458 31.9583 50.2917 33.3333H39.5833C39.0308 33.3333 38.5009 33.1138 38.1102 32.7231C37.7195 32.3324 37.5 31.8025 37.5 31.25C37.5 30.6975 37.7195 30.1676 38.1102 29.7769C38.5009 29.3862 39.0308 29.1667 39.5833 29.1667H51.25Z" fill="#181E39"/>
<path d="M84.207 50.1458C83.1807 58.629 79.0911 66.4451 72.707 72.125C71.5845 71.7179 70.5307 71.1418 69.582 70.4166C67.4832 68.8425 65.9329 66.6479 65.1506 64.1437C64.3684 61.6395 64.3939 58.9527 65.2235 56.4638C66.0531 53.9749 67.6448 51.8101 69.7732 50.2761C71.9015 48.7421 74.4585 47.9166 77.082 47.9166C79.63 47.9075 82.1186 48.6861 84.207 50.1458Z" fill="#D3EFFB"/>
<path d="M93.7487 77.0833H83.332C82.7795 77.0833 82.2496 76.8638 81.8589 76.4731C81.4682 76.0824 81.2487 75.5525 81.2487 75C81.2487 74.4474 81.4682 73.9175 81.8589 73.5268C82.2496 73.1361 82.7795 72.9166 83.332 72.9166H93.7487V14.5833H6.2487V72.9166H70.832C71.3846 72.9166 71.9145 73.1361 72.3052 73.5268C72.6959 73.9175 72.9154 74.4474 72.9154 75C72.9154 75.5525 72.6959 76.0824 72.3052 76.4731C71.9145 76.8638 71.3846 77.0833 70.832 77.0833H6.2487C5.14402 77.082 4.08495 76.6426 3.30382 75.8615C2.52269 75.0804 2.0833 74.0213 2.08203 72.9166V14.5833C2.0833 13.4786 2.52269 12.4196 3.30382 11.6384C4.08495 10.8573 5.14402 10.4179 6.2487 10.4167H93.7487C94.8534 10.4179 95.9125 10.8573 96.6936 11.6384C97.4747 12.4196 97.9141 13.4786 97.9154 14.5833V72.9166C97.9141 74.0213 97.4747 75.0804 96.6936 75.8615C95.9125 76.6426 94.8534 77.082 93.7487 77.0833Z" fill="#181E39"/>
<path d="M68.7555 68.75H20.8307C20.2782 68.75 19.7483 68.5305 19.3576 68.1398C18.9669 67.7491 18.7474 67.2192 18.7474 66.6667C18.7456 65.0096 18.0865 63.421 16.9148 62.2493C15.7431 61.0775 14.1544 60.4185 12.4974 60.4167C11.9449 60.4167 11.415 60.1972 11.0243 59.8065C10.6336 59.4158 10.4141 58.8859 10.4141 58.3333V29.1667C10.4141 28.6141 10.6336 28.0842 11.0243 27.6935C11.415 27.3028 11.9449 27.0833 12.4974 27.0833C14.1544 27.0815 15.7431 26.4224 16.9148 25.2507C18.0865 24.079 18.7456 22.4904 18.7474 20.8333C18.7474 20.2808 18.9669 19.7509 19.3576 19.3602C19.7483 18.9695 20.2782 18.75 20.8307 18.75H79.1641C79.7166 18.75 80.2465 18.9695 80.6372 19.3602C81.0279 19.7509 81.2474 20.2808 81.2474 20.8333C81.2492 22.4904 81.9083 24.079 83.08 25.2507C84.2517 26.4224 85.8404 27.0815 87.4974 27.0833C88.0499 27.0833 88.5798 27.3028 88.9706 27.6935C89.3613 28.0842 89.5807 28.6141 89.5807 29.1667L89.5787 60.4167C89.5787 60.9692 89.3592 61.4991 88.9685 61.8898C88.5778 62.2805 88.0479 62.5 87.4953 62.5C86.9428 62.5 86.4129 62.2805 86.0222 61.8898C85.6315 61.4991 85.412 60.9692 85.412 60.4167L85.4141 31.0404C83.4143 30.6283 81.579 29.6393 80.1352 28.1955C78.6915 26.7517 77.7024 24.9165 77.2903 22.9167H22.7045C22.2924 24.9165 21.3034 26.7517 19.8596 28.1955C18.4158 29.6393 16.5805 30.6283 14.5807 31.0404V56.4596C16.5805 56.8716 18.4158 57.8607 19.8596 59.3045C21.3034 60.7483 22.2924 62.5835 22.7045 64.5833H68.7555C69.3081 64.5833 69.838 64.8028 70.2287 65.1935C70.6194 65.5842 70.8389 66.1141 70.8389 66.6667C70.8389 67.2192 70.6194 67.7491 70.2287 68.1398C69.838 68.5305 69.3081 68.75 68.7555 68.75Z" fill="#181E39"/>
<path d="M83.3333 93.75C82.922 93.7498 82.52 93.628 82.1777 93.4L77.0833 90.0044L71.989 93.4002C71.6752 93.6094 71.3105 93.7294 70.9339 93.7476C70.5572 93.7659 70.1827 93.6815 69.8503 93.5035C69.5178 93.3256 69.2398 93.0608 69.0461 92.7373C68.8523 92.4138 68.75 92.0437 68.75 91.6666V68.75C68.7499 68.362 68.8581 67.9818 69.0624 67.652C69.2668 67.3222 69.5592 67.0561 69.9066 66.8835C70.2541 66.7109 70.6428 66.6388 71.029 66.6753C71.4153 66.7117 71.7837 66.8553 72.0927 67.0898C73.5412 68.1487 75.289 68.7195 77.0833 68.7195C78.8776 68.7195 80.6254 68.1487 82.074 67.0898C82.383 66.8553 82.7514 66.7117 83.1376 66.6753C83.5239 66.6388 83.9126 66.7109 84.26 66.8835C84.6075 67.0561 84.8999 67.3222 85.1042 67.652C85.3086 67.9818 85.4168 68.362 85.4167 68.75V91.6666C85.4167 92.2192 85.1972 92.7491 84.8065 93.1398C84.4158 93.5305 83.8859 93.75 83.3333 93.75ZM77.0833 85.4166C77.4947 85.4162 77.8969 85.538 78.239 85.7666L81.25 87.7746V72.2121C78.5497 73.1398 75.617 73.1398 72.9167 72.2121V87.7746L75.9277 85.7666C76.2697 85.538 76.672 85.4162 77.0833 85.4166Z" fill="#181E39"/>
<path d="M77.0829 72.9166C74.3722 72.9302 71.7327 72.0492 69.5736 70.4102C67.4766 68.8347 65.9283 66.6394 65.148 64.1353C64.3677 61.6311 64.3949 58.945 65.2257 56.4571C66.0565 53.9693 67.6489 51.8058 69.7773 50.273C71.9057 48.7403 74.4624 47.9159 77.0853 47.9166C79.7082 47.9173 82.2645 48.743 84.3921 50.2769C86.5197 51.8108 88.111 53.9751 88.9405 56.4634C89.77 58.9517 89.7957 61.6378 89.0141 64.1416C88.2325 66.6453 86.6831 68.8397 84.5852 70.4142C82.428 72.0512 79.791 72.9309 77.0829 72.9166ZM77.0829 52.0833C75.3335 52.0831 73.6283 52.6335 72.2091 53.6565C70.7899 54.6794 69.7286 56.1231 69.1757 57.7829C68.6228 59.4427 68.6063 61.2344 69.1285 62.9041C69.6507 64.5738 70.6851 66.0368 72.0852 67.0858C73.3235 68.0138 74.7957 68.5788 76.3369 68.7173C77.8781 68.8558 79.4274 68.5625 80.8113 67.8702C82.1953 67.1779 83.3591 66.1139 84.1724 64.7974C84.9857 63.481 85.4164 61.9641 85.4163 60.4167C85.414 58.2072 84.5352 56.089 82.9729 54.5267C81.4106 52.9644 79.2924 52.0856 77.0829 52.0833Z" fill="#181E39"/>
<path d="M60.4167 33.3333H39.5833C39.0308 33.3333 38.5009 33.1138 38.1102 32.7231C37.7195 32.3324 37.5 31.8025 37.5 31.25C37.5 30.6975 37.7195 30.1676 38.1102 29.7769C38.5009 29.3862 39.0308 29.1667 39.5833 29.1667H60.4167C60.9692 29.1667 61.4991 29.3862 61.8898 29.7769C62.2805 30.1676 62.5 30.6975 62.5 31.25C62.5 31.8025 62.2805 32.3324 61.8898 32.7231C61.4991 33.1138 60.9692 33.3333 60.4167 33.3333Z" fill="#181E39"/>
<path d="M70.832 41.6667H29.1654C28.6128 41.6667 28.0829 41.4472 27.6922 41.0565C27.3015 40.6658 27.082 40.1359 27.082 39.5833C27.082 39.0308 27.3015 38.5009 27.6922 38.1102C28.0829 37.7195 28.6128 37.5 29.1654 37.5H70.832C71.3846 37.5 71.9145 37.7195 72.3052 38.1102C72.6959 38.5009 72.9154 39.0308 72.9154 39.5833C72.9154 40.1359 72.6959 40.6658 72.3052 41.0565C71.9145 41.4472 71.3846 41.6667 70.832 41.6667Z" fill="#181E39"/>
<path d="M64.582 50H29.1654C28.6128 50 28.0829 49.7805 27.6922 49.3898C27.3015 48.9991 27.082 48.4692 27.082 47.9166C27.082 47.3641 27.3015 46.8342 27.6922 46.4435C28.0829 46.0528 28.6128 45.8333 29.1654 45.8333H64.582C65.1346 45.8333 65.6645 46.0528 66.0552 46.4435C66.4459 46.8342 66.6654 47.3641 66.6654 47.9166C66.6654 48.4692 66.4459 48.9991 66.0552 49.3898C65.6645 49.7805 65.1346 50 64.582 50Z" fill="#181E39"/>
<path d="M60.4154 58.3333H29.1654C28.6128 58.3333 28.0829 58.1138 27.6922 57.7231C27.3015 57.3324 27.082 56.8025 27.082 56.25C27.082 55.6975 27.3015 55.1675 27.6922 54.7768C28.0829 54.3861 28.6128 54.1667 29.1654 54.1667H60.4154C60.9679 54.1667 61.4978 54.3861 61.8885 54.7768C62.2792 55.1675 62.4987 55.6975 62.4987 56.25C62.4987 56.8025 62.2792 57.3324 61.8885 57.7231C61.4978 58.1138 60.9679 58.3333 60.4154 58.3333Z" fill="#181E39"/>
</svg>
