<svg width="50" height="50" viewBox="0 0 50 50" fill="none" xmlns="http://www.w3.org/2000/svg">
<g clip-path="url(#clip0_4141_124651)">
<path d="M29.4664 4.72266C28.1274 5.16895 27.1361 6.16749 26.7026 7.42638H23.2895C22.8561 6.16749 21.8646 5.16905 20.5257 4.72266C18.6932 4.11182 16.7734 4.7169 15.6219 6.25333C13.1657 9.52774 11.8125 13.586 11.8125 17.6802V20.6099C11.8125 21.2822 12.2703 21.8673 12.9226 22.0304C16.8708 23.0189 20.9334 23.5124 24.9961 23.5124C29.0588 23.5124 33.1214 23.0189 37.0696 22.0304C37.722 21.8673 38.1797 21.2822 38.1797 20.6099V17.6802C38.1797 13.586 36.8265 9.52774 34.3702 6.2547C33.2187 4.71544 31.2903 4.11466 29.4664 4.72266Z" fill="#B0B7C4"/>
<path d="M41.1172 38.188C41.1172 37.3783 40.462 36.7231 39.6523 36.7231H37.3727C36.3564 34.9803 34.4877 33.7935 32.3281 33.7935C30.1686 33.7935 28.2998 34.9803 27.2836 36.7231H22.7242C21.708 34.9803 19.8393 33.7935 17.6797 33.7935C15.5201 33.7935 13.6514 34.9803 12.6352 36.7231H10.3555C9.5458 36.7231 8.89062 37.3783 8.89062 38.188C8.89062 38.9977 9.5458 39.6528 10.3555 39.6528H11.8203C11.8203 42.8844 14.4481 45.5122 17.6797 45.5122C20.9112 45.5122 23.5391 42.8844 23.5391 39.6528H26.4688C26.4688 42.8844 29.0966 45.5122 32.3281 45.5122C35.5597 45.5122 38.1875 42.8844 38.1875 39.6528H39.6523C40.462 39.6528 41.1172 38.9977 41.1172 38.188Z" fill="#B0B7C4"/>
<path d="M41.0104 16.424C41.0352 16.844 41.1133 17.2589 41.1133 17.6802V20.6099C41.1133 22.6298 39.7442 24.3821 37.7845 24.8728C33.6245 25.9142 29.3229 26.442 25 26.442C20.6771 26.442 16.3755 25.9142 12.2155 24.8728C10.2558 24.3821 8.88672 22.6298 8.88672 20.6099V17.6802C8.88672 17.2589 8.96484 16.8438 8.98955 16.4238C3.96895 16.7444 0 17.6412 0 20.6099C0 25.1303 11.8222 30.8638 25 30.8638C38.1778 30.8638 50 25.1303 50 20.6099C50 17.6412 46.0311 16.7446 41.0104 16.424Z" fill="#B0B7C4"/>
</g>
<defs>
<clipPath id="clip0_4141_124651">
<rect width="50" height="50" fill="white"/>
</clipPath>
</defs>
</svg>
