<svg width="100" height="100" viewBox="0 0 100 100" fill="none" xmlns="http://www.w3.org/2000/svg">
<g clip-path="url(#clip0_1360_30863)">
<path d="M11.7647 1.47067H5.88235V7.35303H0V13.2354H5.88235V19.1177H11.7647V13.2354H17.6471V7.35303H11.7647V1.47067Z" fill="#76E2F8"/>
<path d="M29.4102 7.35339H35.2925V13.2358H29.4102V7.35339Z" fill="#76E2F8"/>
<path d="M99.9986 7.35303H94.1163V1.47067H88.2339V7.35303H82.3516V13.2354H88.2339V19.1177H94.1163V13.2354H99.9986V7.35303Z" fill="#4BB9EC"/>
<path d="M50 1.47067H55.8824V7.35303H50V1.47067Z" fill="#4BB9EC"/>
<path d="M67.6484 10.294H73.5308V16.1763H67.6484V10.294Z" fill="#4BB9EC"/>
<path d="M20.3071 24.4163C18.7326 27.2504 8.17533 46.2534 6.58984 49.1075C9.00259 51.5204 47.5869 90.1049 50 92.5181L51.9608 58.4673L50 24.4165C41.9538 24.4163 25.0473 24.4163 20.3071 24.4163Z" fill="#76E2F8"/>
<path d="M79.6929 24.4163C78.0429 24.4163 51.65 24.4163 50 24.4163V92.5179C52.4129 90.1051 90.9973 51.5206 93.4104 49.1075C91.7424 46.1051 81.3635 27.4238 79.6929 24.4163Z" fill="#4BB9EC"/>
<path d="M39.3752 53.1933H50.0004L51.9612 50.2521L50.0004 47.311C46.9134 47.311 43.3801 47.311 40.293 47.311C42.9232 42.5767 48.4504 32.6278 50.0004 29.8378L51.9612 25.3392L50.0004 20.8406C49.122 20.8406 19.7361 20.8406 18.8581 20.8406C18.3891 21.6847 2.7032 49.9194 2.23438 50.7633C4.88771 53.4167 47.3471 95.8759 50.0004 98.5292L51.9612 91.799L50.0004 85.069C49.7008 84.17 39.675 54.0925 39.3752 53.1933ZM45.0018 26.7227C42.3716 31.457 36.8446 41.4059 35.2944 44.1959C32.6642 39.4616 27.1371 29.5127 25.5871 26.7227H45.0018ZM20.5887 29.8378C21.7118 31.8596 29.1655 45.2763 30.2959 47.311C25.0397 47.311 13.985 47.311 10.8812 47.311C12.0046 45.2894 19.4583 31.8725 20.5887 29.8378ZM12.9834 53.1933H33.1746C34.3744 56.7923 42.0659 79.8674 43.2702 83.4802C41.5977 81.8076 14.6669 54.8769 12.9834 53.1933Z" fill="#4BB9EC"/>
<path d="M81.1424 20.8404C80.2639 20.8404 50.878 20.8404 50 20.8404V29.8378C52.6302 34.5721 58.1573 44.5209 59.7075 47.3109C56.6206 47.3109 53.0869 47.3109 50 47.3109V53.1933H60.6253C60.3257 54.0923 50.2996 84.1698 50 85.069V98.5292C52.6533 95.8758 95.1128 53.4166 97.7661 50.7633C97.2973 49.919 81.6114 21.6843 81.1424 20.8404ZM89.119 47.3109C83.8628 47.3109 72.808 47.3109 69.7043 47.3109C72.3345 42.5766 77.8618 32.6278 79.4118 29.8378C80.4602 31.7249 88.0578 45.4009 89.119 47.3109ZM54.9986 26.7227H74.4131C73.3647 28.61 65.7671 42.2858 64.7059 44.1958C63.6573 42.3086 56.0596 28.6327 54.9986 26.7227ZM56.7302 83.4802C57.8669 80.0702 65.6792 56.6329 66.8257 53.1933H87.0169C86.679 53.5311 57.0682 83.1421 56.7302 83.4802Z" fill="#0999FC"/>
</g>
<defs>
<clipPath id="clip0_1360_30863">
<rect width="100" height="100" fill="white"/>
</clipPath>
</defs>
</svg>
