<svg width="259" height="72" viewBox="0 0 259 72" fill="none" xmlns="http://www.w3.org/2000/svg">
<path d="M65.9123 8.71769C65.9123 6.96894 65.1354 5.31078 63.7923 4.19265L58.8502 0.0785199V19.4791L36.6408 1.32645C34.492 -0.429838 31.4093 -0.443435 29.2451 1.29383L2.86144 22.4732C1.05258 23.9252 0 26.1208 0 28.4419V61.4022C0 64.3826 3.46085 66.0225 5.76337 64.1331L30.1585 44.1148C31.9294 42.6617 32.9561 40.4902 32.9561 38.1979V33.0007L7.06203 53.9159V47.8927C7.06203 46.4915 7.68544 45.1631 8.76279 44.2687L30.1924 26.4769C31.9431 25.0234 32.9561 22.8648 32.9561 20.5879V15.3638L7.06203 36.573V30.5945C7.06203 29.1725 7.70398 27.8268 8.80865 26.9329L31.8451 8.29261C32.4928 7.76845 33.4186 7.76943 34.0653 8.29497L60.1618 29.5032C62.4672 31.3768 65.9123 29.7344 65.9123 26.7618V8.71769Z" fill="#FA4B5F"/>
<path d="M62.9184 49.9149C62.9184 46.6414 61.8568 44.0134 59.7799 41.9386C57.703 39.8639 55.1185 38.8495 51.98 38.8495C48.4724 38.8495 45.6109 39.9561 43.4417 42.123C41.2725 44.29 40.2109 47.0103 40.2109 50.376C40.2109 53.6956 41.3186 56.462 43.4878 58.6289C45.7032 60.7959 48.5647 61.9024 52.0723 61.9024C57.2877 61.9024 61.4876 59.1822 62.6414 54.9405H55.9492C55.2569 56.047 54.0108 56.6003 52.2108 56.6003C49.3031 56.6003 47.457 55.3093 46.6724 52.6813H62.7799C62.8722 52.0819 62.9184 51.1598 62.9184 49.9149ZM51.7954 44.1056C54.4262 44.1056 56.18 45.6271 56.5492 48.209H46.5801C47.2724 45.4888 49.0262 44.1056 51.7954 44.1056Z" fill="white"/>
<path d="M87.7654 39.3106H80.9809L74.9348 53.2806L68.8887 39.3106H62.1042L72.0733 61.3953H77.7963L87.7654 39.3106Z" fill="white"/>
<path d="M110.957 49.9149C110.957 46.6414 109.896 44.0134 107.819 41.9386C105.742 39.8639 103.158 38.8495 100.019 38.8495C96.5115 38.8495 93.65 39.9561 91.4808 42.123C89.3116 44.29 88.25 47.0103 88.25 50.376C88.25 53.6956 89.3577 56.462 91.5269 58.6289C93.7423 60.7959 96.6038 61.9024 100.111 61.9024C105.327 61.9024 109.527 59.1822 110.681 54.9405H103.988C103.296 56.047 102.05 56.6003 100.25 56.6003C97.3422 56.6003 95.4961 55.3093 94.7115 52.6813H110.819C110.911 52.0819 110.957 51.1598 110.957 49.9149ZM99.8345 44.1056C102.465 44.1056 104.219 45.6271 104.588 48.209H94.6192C95.3115 45.4888 97.0653 44.1056 99.8345 44.1056Z" fill="white"/>
<path d="M119.909 39.3106H113.493V61.3953H119.909V48.209C121.709 46.2265 124.293 45.166 127.662 45.0277V38.9417C124.57 38.9417 121.986 39.91 119.909 41.8003V39.3106Z" fill="white"/>
<path d="M156.165 39.2645H149.426L142.965 54.3411L135.811 39.2645H128.98L139.734 61.9485L135.442 71.9996H142.18L156.165 39.2645Z" fill="white"/>
<path d="M171.384 38.619C169.077 38.619 166.954 39.3567 165.061 40.8782V39.3106H158.646V61.3953H165.061V47.1947C166.584 45.3505 168.2 44.4283 169.907 44.4283C172.907 44.4283 174.661 46.3187 174.661 49.8227V61.3953H181.077V49.2694C181.077 46.042 180.2 43.4601 178.4 41.5237C176.646 39.5872 174.292 38.619 171.384 38.619Z" fill="white"/>
<path d="M195.319 38.8495C191.903 38.8495 189.088 39.9561 186.827 42.123C184.565 44.29 183.457 47.0103 183.457 50.376C183.457 53.7417 184.565 56.5542 186.827 58.7672C189.088 60.9803 191.903 62.0869 195.319 62.0869C198.688 62.0869 201.503 60.9803 203.719 58.7672C205.98 56.5542 207.088 53.7417 207.088 50.376C207.088 47.0103 205.98 44.29 203.719 42.123C201.503 39.9561 198.688 38.8495 195.319 38.8495ZM195.319 56.3697C191.996 56.3697 189.78 53.7417 189.78 50.376C189.78 47.0564 191.996 44.5667 195.319 44.5667C198.596 44.5667 200.765 47.0564 200.765 50.376C200.765 53.7417 198.596 56.3697 195.319 56.3697Z" fill="white"/>
<path d="M220.606 38.8495C217.19 38.8495 214.375 39.9561 212.114 42.123C209.852 44.29 208.744 47.0103 208.744 50.376C208.744 53.7417 209.852 56.5542 212.114 58.7672C214.375 60.9803 217.19 62.0869 220.606 62.0869C223.975 62.0869 226.79 60.9803 229.006 58.7672C231.267 56.5542 232.375 53.7417 232.375 50.376C232.375 47.0103 231.267 44.29 229.006 42.123C226.79 39.9561 223.975 38.8495 220.606 38.8495ZM220.606 56.3697C217.283 56.3697 215.067 53.7417 215.067 50.376C215.067 47.0564 217.283 44.5667 220.606 44.5667C223.883 44.5667 226.052 47.0564 226.052 50.376C226.052 53.7417 223.883 56.3697 220.606 56.3697Z" fill="white"/>
<path d="M245.062 53.0962L250.923 61.3953H259L249.447 48.4395L258.031 39.3106H250.047L241.508 48.4856V28.6602H235.093V61.3953H241.508V56.8308L245.062 53.0962Z" fill="white"/>
</svg>
