<svg width="200" height="200" viewBox="0 0 200 200" fill="none" xmlns="http://www.w3.org/2000/svg">
<circle cx="100" cy="100" r="100" fill="#E8F7FF"/>
<g clip-path="url(#clip0_1823_41773)">
<path d="M127.156 73.2362L133.689 64.369C134.016 63.9255 134.066 63.336 133.817 62.8444C133.569 62.3528 133.065 62.0428 132.514 62.0428H118.171C117.365 62.0428 116.711 62.6966 116.711 63.503V72.5243H109.88C109.074 72.5243 108.42 73.178 108.42 73.9844V82.9698C108.42 83.7762 109.074 84.43 109.88 84.43H132.514C133.065 84.43 133.569 84.12 133.817 83.6284C134.066 83.1368 134.016 82.5471 133.689 82.1036L127.156 73.2362Z" fill="#B32425"/>
<path d="M119.509 73.3982C119.276 72.867 118.751 72.5238 118.171 72.5238H109.88C109.074 72.5238 108.42 73.1775 108.42 73.984V82.9693C108.42 83.5705 108.788 84.1105 109.349 84.3293C109.521 84.3968 109.702 84.4295 109.88 84.4295C110.28 84.4295 110.671 84.265 110.953 83.9593L119.245 74.974C119.638 74.5482 119.741 73.9297 119.509 73.3982Z" fill="#8C1E23"/>
<path d="M118.171 53.0569H91.7336C90.9271 53.0569 90.2734 53.7107 90.2734 54.5171V73.9841C90.2734 74.7905 90.9271 75.4443 91.7336 75.4443H118.171C118.978 75.4443 119.632 74.7905 119.632 73.9841V54.5171C119.632 53.7107 118.978 53.0569 118.171 53.0569Z" fill="#E93234"/>
<path d="M91.7336 90.5435C90.9271 90.5435 90.2734 89.8898 90.2734 89.0833V51.7648C90.2734 50.9583 90.9271 50.3046 91.7336 50.3046C92.54 50.3046 93.1937 50.9583 93.1937 51.7648V89.0835C93.1937 89.89 92.54 90.5435 91.7336 90.5435Z" fill="#475D63"/>
<path d="M149.746 147.414L120.362 104.254C120.09 103.855 119.638 103.616 119.155 103.616C118.672 103.616 118.22 103.855 117.948 104.254L109.681 116.397C109.343 116.893 109.343 117.544 109.681 118.04L130.799 149.057C131.071 149.457 131.522 149.696 132.006 149.696H148.539C149.08 149.696 149.577 149.397 149.83 148.919C150.083 148.44 150.051 147.861 149.746 147.414Z" fill="#546F7A"/>
<path d="M144.473 149.696H148.541C149.082 149.696 149.579 149.397 149.832 148.919C150.085 148.441 150.053 147.861 149.748 147.414L120.363 104.254C120.091 103.855 119.64 103.616 119.156 103.616C118.673 103.616 118.221 103.855 117.949 104.254L115.742 107.496L144.473 149.696Z" fill="#475D63"/>
<path d="M133.213 147.414L92.9405 88.2614C92.6684 87.8618 92.2167 87.6229 91.7335 87.6229C91.2503 87.6229 90.7983 87.8618 90.5264 88.2614L50.2532 147.414C49.9487 147.861 49.9165 148.44 50.1694 148.919C50.4225 149.397 50.9192 149.696 51.4602 149.696H132.006C132.547 149.696 133.044 149.397 133.297 148.919C133.55 148.44 133.518 147.861 133.213 147.414Z" fill="#546F7A"/>
<path d="M128.132 149.696H132.005C132.546 149.696 133.043 149.397 133.296 148.919C133.549 148.441 133.517 147.861 133.212 147.414L92.94 88.2614C92.668 87.8618 92.2162 87.6229 91.733 87.6229C91.2498 87.6229 90.7979 87.8618 90.526 88.2614L88.416 91.3604L128.132 149.696Z" fill="#475D63"/>
<path d="M106.325 107.922L92.9397 88.2616C92.6677 87.862 92.2159 87.6232 91.7327 87.6232C91.2495 87.6232 90.7976 87.862 90.5257 88.2616L77.1399 107.922C76.7274 108.528 76.828 109.347 77.3753 109.834L84.0028 115.741C84.2796 115.988 84.627 116.111 84.9743 116.111C85.3169 116.111 85.6601 115.991 85.9353 115.75L91.7325 110.684L97.5296 115.75C98.0841 116.235 98.9124 116.231 99.4622 115.741L106.09 109.834C106.637 109.346 106.738 108.528 106.325 107.922Z" fill="#E0E0E0"/>
<path d="M102.918 112.661L106.09 109.834C106.637 109.347 106.738 108.529 106.326 107.923L92.94 88.2616C92.668 87.862 92.2162 87.6232 91.733 87.6232C91.2498 87.6232 90.7978 87.862 90.526 88.2616L88.416 91.3607L102.918 112.661Z" fill="#C9C9C9"/>
</g>
<defs>
<clipPath id="clip0_1823_41773">
<rect width="100" height="100" fill="white" transform="translate(50 50)"/>
</clipPath>
</defs>
</svg>
