<svg width="20" height="20" viewBox="0 0 20 20" fill="none" xmlns="http://www.w3.org/2000/svg">
<g clip-path="url(#clip0_149_3966)">
<path d="M19.1667 0H0.833333C0.373333 0 0 0.373333 0 0.833333V4.16667C0 4.62667 0.373333 5 0.833333 5H19.1667C19.6267 5 20 4.62667 20 4.16667V0.833333C20 0.373333 19.6267 0 19.1667 0Z" fill="#181E39"/>
<path d="M19.1667 7.5H0.833333C0.373333 7.5 0 7.87333 0 8.33333V11.6667C0 12.1267 0.373333 12.5 0.833333 12.5H19.1667C19.6267 12.5 20 12.1267 20 11.6667V8.33333C20 7.87333 19.6267 7.5 19.1667 7.5Z" fill="#181E39"/>
<path d="M19.1667 15H0.833333C0.373333 15 0 15.3733 0 15.8333V19.1667C0 19.6267 0.373333 20 0.833333 20H19.1667C19.6267 20 20 19.6267 20 19.1667V15.8333C20 15.3733 19.6267 15 19.1667 15Z" fill="#181E39"/>
</g>
<defs>
<clipPath id="clip0_149_3966">
<rect width="20" height="20" fill="white"/>
</clipPath>
</defs>
</svg>
