<svg width="80" height="80" viewBox="0 0 80 80" fill="none" xmlns="http://www.w3.org/2000/svg">
<g clip-path="url(#clip0_4385_126989)">
<path d="M76.5689 60.0577C69.4089 52.8977 69.8785 53.3513 69.6769 53.2025L50.7242 39.2094L58.0766 31.8577C63.9878 33.9641 70.6805 32.5078 75.1847 28.0036C80.0919 23.0964 81.38 15.5941 78.39 9.33517C77.6931 7.87689 75.7605 7.54658 74.6191 8.68829L68.558 14.7494C67.6445 15.6628 66.1585 15.663 65.2444 14.7494C64.3286 13.8336 64.3286 12.3517 65.2444 11.436L71.3056 5.3747C72.4484 4.23204 72.1161 2.29986 70.6588 1.60392C64.3999 -1.38608 56.8977 -0.0979556 51.9903 4.80908C47.485 9.31439 46.0305 16.0074 48.1363 21.917L39.6569 30.3956C37.9305 29.0528 40.2086 31.3464 23.9485 14.1049L25.653 12.4003C26.7311 11.3224 26.5064 9.51736 25.2017 8.73454L12.6527 1.20501C9.36314 -0.768737 5.17142 -0.252799 2.45876 2.45986C-0.253735 5.17236 -0.769829 9.36439 1.20392 12.6538L8.73345 25.203C9.51752 26.5102 11.3233 26.7302 12.3992 25.6542L14.0067 24.0467C30.1827 41.1991 28.0536 38.8692 29.3324 40.5135C29.3627 40.5524 29.3964 40.5867 29.4286 40.6233L21.9097 48.1416C16.0003 46.0358 9.30689 47.4903 4.80189 51.9956C-0.105298 56.9028 -1.39342 64.405 1.59673 70.6641C2.29376 72.1225 4.22595 72.4525 5.36767 71.311L11.4288 65.2497C12.3427 64.3361 13.8288 64.3364 14.7424 65.2497C15.6581 66.1655 15.6581 67.6474 14.7424 68.5631L8.68095 74.6244C7.53814 75.767 7.87064 77.6992 9.32783 78.3953C11.5775 79.47 13.9872 79.992 16.38 79.992C20.6441 79.9919 24.8528 78.3335 27.9963 75.1902C32.5016 70.6849 33.9561 63.9919 31.8503 58.082L38.2716 51.6613L53.2222 69.83C53.3359 69.9678 52.9606 69.5838 59.6474 76.2705C62.0816 78.7047 65.3178 79.9666 68.5002 79.9666C70.8352 79.9666 73.1413 79.2866 75.0783 77.8917C80.9894 73.6344 81.6863 65.1745 76.5689 60.0577ZM15.7606 19.0766C14.8524 18.1136 13.3297 18.0967 12.3992 19.0274L11.2075 20.2189L5.22205 10.2428C4.35673 8.80064 4.58283 6.96267 5.7722 5.77329C6.96158 4.58376 8.79955 4.35783 10.2416 5.22314L20.2177 11.2088L19.026 12.4002C18.1299 13.2963 18.1086 14.7425 18.9781 15.6644C37.6613 35.4752 34.7224 32.4941 36.3174 33.7347L32.7616 37.2902C31.5327 35.7099 34.3861 38.8263 15.7606 19.0766ZM27.4305 55.8747C26.7283 56.5769 26.545 57.6453 26.9731 58.5414C29.1089 63.012 28.1883 68.371 24.6828 71.8764C22.4369 74.1224 19.4306 75.3074 16.3841 75.307C15.8361 75.307 15.287 75.2688 14.7406 75.1913L18.0556 71.8763C20.8027 69.1294 20.8031 64.683 18.0556 61.9358C15.3152 59.1952 10.8556 59.1953 8.11517 61.9358L4.80017 65.2508C4.29267 61.6672 5.46548 57.9586 8.11517 55.3089C11.6208 51.8031 16.9795 50.883 21.4502 53.0185C22.3461 53.4464 23.4144 53.2635 24.1169 52.5611L52.556 24.1241C53.2581 23.4219 53.4414 22.3534 53.0134 21.4574C50.8777 16.9869 51.7983 11.6278 55.3038 8.12236C57.9539 5.47236 61.6622 4.2997 65.2456 4.80736L61.9306 8.12236C60.603 9.44986 59.8717 11.2152 59.8717 13.0927C59.8717 14.9702 60.603 16.7352 61.9306 18.063C64.6711 20.8036 69.1306 20.8035 71.8711 18.063L75.1861 14.748C75.6936 18.3316 74.5208 22.0402 71.8711 24.6899C68.3655 28.1955 63.0066 29.1159 58.536 26.9803C57.6403 26.5524 56.5717 26.7355 55.8694 27.4377L27.4305 55.8747ZM41.5908 48.3422L47.3735 42.56L53.267 46.9113L46.2256 53.9527C41.4381 48.1349 41.7369 48.4855 41.5908 48.3422ZM72.3395 74.0894C69.6067 76.0575 65.5745 75.5711 62.9605 72.957L56.7681 66.7649L49.2169 57.5881L57.0791 49.726L66.7525 56.868L73.2553 63.371C76.2277 66.3433 76.0367 71.4266 72.3395 74.0894Z" fill="#2F344C"/>
<path d="M69.903 66.2825L60.5309 56.9104C59.6161 55.9954 58.1325 55.9954 57.2175 56.9104C56.3025 57.8254 56.3025 59.3089 57.2175 60.2239L66.5895 69.5959C67.5044 70.5107 68.988 70.5109 69.903 69.5959C70.818 68.6809 70.818 67.1975 69.903 66.2825Z" fill="#2F344C"/>
</g>
<defs>
<clipPath id="clip0_4385_126989">
<rect width="80" height="80" fill="white"/>
</clipPath>
</defs>
</svg>
