<svg width="10" height="10" viewBox="0 0 10 10" fill="none" xmlns="http://www.w3.org/2000/svg">
<g clip-path="url(#clip0_4509_133107)">
<path d="M9.61218 7.74085L6.87163 5.0003L9.61218 2.25975C10.129 1.74292 10.129 0.904918 9.61218 0.388088C9.09535 -0.128743 8.25734 -0.128743 7.74051 0.388088L4.99974 3.12864L2.2592 0.387867C1.74214 -0.128964 0.904141 -0.128964 0.387531 0.387867C-0.129299 0.904918 -0.129299 1.74292 0.387531 2.25953L3.1283 5.00008L0.387531 7.74063C-0.129299 8.25768 -0.129299 9.09568 0.387531 9.61229C0.646278 9.87082 0.984655 9.99986 1.32347 9.99986C1.66207 9.99986 2.00089 9.87059 2.25942 9.61229L4.99974 6.87196L7.74051 9.61251C7.99926 9.87082 8.33764 10.0001 8.67645 10.0001C9.01527 10.0001 9.35387 9.87082 9.6124 9.61251C10.129 9.09568 10.129 8.2579 9.61218 7.74085Z" fill="white"/>
</g>
<defs>
<clipPath id="clip0_4509_133107">
<rect width="10" height="10" fill="white"/>
</clipPath>
</defs>
</svg>
