<svg width="318" height="145" viewBox="0 0 318 145" fill="none" xmlns="http://www.w3.org/2000/svg">
<rect width="318" height="145" fill="#C4C4C4"/>
<path d="M94.7021 73.6846C94.6247 74.7555 94.2282 75.5986 93.5127 76.2139C92.8018 76.8291 91.863 77.1367 90.6963 77.1367C89.4202 77.1367 88.4154 76.7083 87.6816 75.8516C86.9525 74.9902 86.5879 73.8099 86.5879 72.3105V71.7021C86.5879 70.7451 86.7565 69.902 87.0938 69.1729C87.431 68.4437 87.9118 67.8854 88.5361 67.498C89.165 67.1061 89.8942 66.9102 90.7236 66.9102C91.8721 66.9102 92.7972 67.2178 93.499 67.833C94.2008 68.4482 94.6064 69.3118 94.7158 70.4238H92.665C92.6149 69.7812 92.4349 69.3164 92.125 69.0293C91.8197 68.7376 91.3525 68.5918 90.7236 68.5918C90.04 68.5918 89.5273 68.8379 89.1855 69.3301C88.8483 69.8177 88.6751 70.5765 88.666 71.6064V72.3584C88.666 73.4339 88.8278 74.2201 89.1514 74.7168C89.4795 75.2135 89.9945 75.4619 90.6963 75.4619C91.3298 75.4619 91.8014 75.3184 92.1113 75.0312C92.4258 74.7396 92.6058 74.2907 92.6514 73.6846H94.7021ZM104.149 77H102.099V72.7344H98.0996V77H96.0488V67.0469H98.0996V71.0801H102.099V67.0469H104.149V77ZM111.689 74.9492H108.094L107.41 77H105.229L108.935 67.0469H110.835L114.561 77H112.38L111.689 74.9492ZM108.647 73.2881H111.136L109.885 69.5625L108.647 73.2881ZM119.175 73.3564H117.541V77H115.49V67.0469H119.188C120.364 67.0469 121.271 67.3089 121.909 67.833C122.547 68.3571 122.866 69.0977 122.866 70.0547C122.866 70.7337 122.718 71.3011 122.422 71.7568C122.13 72.208 121.686 72.568 121.089 72.8369L123.242 76.9043V77H121.041L119.175 73.3564ZM117.541 71.6953H119.195C119.71 71.6953 120.109 71.5654 120.392 71.3057C120.674 71.0413 120.815 70.679 120.815 70.2188C120.815 69.7493 120.681 69.3802 120.412 69.1113C120.148 68.8424 119.74 68.708 119.188 68.708H117.541V71.6953ZM131.582 68.708H128.533V77H126.482V68.708H123.475V67.0469H131.582V68.708ZM137.885 73.4932V77H135.834V67.0469H139.717C140.464 67.0469 141.12 67.1836 141.686 67.457C142.255 67.7305 142.693 68.1201 142.998 68.626C143.303 69.1273 143.456 69.6992 143.456 70.3418C143.456 71.3171 143.121 72.0872 142.451 72.6523C141.786 73.2129 140.863 73.4932 139.683 73.4932H137.885ZM137.885 71.832H139.717C140.259 71.832 140.672 71.7044 140.954 71.4492C141.241 71.194 141.385 70.8294 141.385 70.3555C141.385 69.8678 141.241 69.4736 140.954 69.1729C140.667 68.8721 140.271 68.7171 139.765 68.708H137.885V71.832ZM146.922 75.3525H151.276V77H144.871V67.0469H146.922V75.3525ZM158.215 74.9492H154.619L153.936 77H151.755L155.46 67.0469H157.36L161.086 77H158.905L158.215 74.9492ZM155.173 73.2881H157.661L156.41 69.5625L155.173 73.2881ZM169.679 73.6846C169.601 74.7555 169.205 75.5986 168.489 76.2139C167.778 76.8291 166.84 77.1367 165.673 77.1367C164.397 77.1367 163.392 76.7083 162.658 75.8516C161.929 74.9902 161.564 73.8099 161.564 72.3105V71.7021C161.564 70.7451 161.733 69.902 162.07 69.1729C162.408 68.4437 162.888 67.8854 163.513 67.498C164.142 67.1061 164.871 66.9102 165.7 66.9102C166.849 66.9102 167.774 67.2178 168.476 67.833C169.177 68.4482 169.583 69.3118 169.692 70.4238H167.642C167.591 69.7812 167.411 69.3164 167.102 69.0293C166.796 68.7376 166.329 68.5918 165.7 68.5918C165.017 68.5918 164.504 68.8379 164.162 69.3301C163.825 69.8177 163.652 70.5765 163.643 71.6064V72.3584C163.643 73.4339 163.804 74.2201 164.128 74.7168C164.456 75.2135 164.971 75.4619 165.673 75.4619C166.306 75.4619 166.778 75.3184 167.088 75.0312C167.402 74.7396 167.582 74.2907 167.628 73.6846H169.679ZM177.014 72.6865H173.076V75.3525H177.697V77H171.025V67.0469H177.684V68.708H173.076V71.0801H177.014V72.6865ZM187.001 77H184.95V72.7344H180.951V77H178.9V67.0469H180.951V71.0801H184.95V67.0469H187.001V77ZM196.975 72.249C196.975 73.2288 196.801 74.0879 196.455 74.8262C196.109 75.5645 195.612 76.1341 194.965 76.5352C194.322 76.9362 193.584 77.1367 192.75 77.1367C191.925 77.1367 191.189 76.9385 190.542 76.542C189.895 76.1455 189.394 75.5804 189.038 74.8467C188.683 74.1084 188.503 73.2607 188.498 72.3037V71.8115C188.498 70.8317 188.674 69.9704 189.024 69.2275C189.38 68.4801 189.879 67.9082 190.521 67.5117C191.169 67.1107 191.907 66.9102 192.736 66.9102C193.566 66.9102 194.302 67.1107 194.944 67.5117C195.591 67.9082 196.09 68.4801 196.441 69.2275C196.797 69.9704 196.975 70.8294 196.975 71.8047V72.249ZM194.896 71.7979C194.896 70.7542 194.71 69.9613 194.336 69.4189C193.962 68.8766 193.429 68.6055 192.736 68.6055C192.048 68.6055 191.517 68.8743 191.144 69.4121C190.77 69.9453 190.581 70.7292 190.576 71.7637V72.249C190.576 73.2653 190.763 74.0537 191.137 74.6143C191.51 75.1748 192.048 75.4551 192.75 75.4551C193.438 75.4551 193.967 75.1862 194.336 74.6484C194.705 74.1061 194.892 73.3177 194.896 72.2832V71.7979ZM200.516 75.3525H204.87V77H198.465V67.0469H200.516V75.3525ZM206.053 77V67.0469H209.115C209.99 67.0469 210.772 67.2451 211.46 67.6416C212.153 68.0335 212.693 68.5941 213.08 69.3232C213.467 70.0479 213.661 70.8727 213.661 71.7979V72.2559C213.661 73.181 213.47 74.0036 213.087 74.7236C212.709 75.4437 212.173 76.002 211.48 76.3984C210.788 76.7949 210.006 76.9954 209.136 77H206.053ZM208.104 68.708V75.3525H209.095C209.897 75.3525 210.51 75.0905 210.934 74.5664C211.357 74.0423 211.574 73.2926 211.583 72.3174V71.791C211.583 70.7793 211.373 70.0137 210.954 69.4941C210.535 68.9701 209.922 68.708 209.115 68.708H208.104ZM221.146 72.6865H217.209V75.3525H221.83V77H215.158V67.0469H221.816V68.708H217.209V71.0801H221.146V72.6865ZM226.718 73.3564H225.084V77H223.033V67.0469H226.731C227.907 67.0469 228.814 67.3089 229.452 67.833C230.09 68.3571 230.409 69.0977 230.409 70.0547C230.409 70.7337 230.261 71.3011 229.965 71.7568C229.673 72.208 229.229 72.568 228.632 72.8369L230.785 76.9043V77H228.584L226.718 73.3564ZM225.084 71.6953H226.738C227.253 71.6953 227.652 71.5654 227.935 71.3057C228.217 71.0413 228.358 70.679 228.358 70.2188C228.358 69.7493 228.224 69.3802 227.955 69.1113C227.691 68.8424 227.283 68.708 226.731 68.708H225.084V71.6953Z" fill="black"/>
</svg>
