<svg width="150" height="150" viewBox="0 0 150 150" fill="none" xmlns="http://www.w3.org/2000/svg">
<circle cx="75" cy="75" r="75" fill="#D4E1F4" fill-opacity="0.4"/>
<path d="M80.4477 18.4498C77.1606 16.2117 72.839 16.2117 69.5518 18.4498L21.9476 50.8613C19.7037 52.389 18.361 54.928 18.361 57.6425V127.532C18.361 130.686 20.9175 133.242 24.0708 133.242H125.929C129.083 133.242 131.639 130.686 131.639 127.532V57.6425C131.639 54.9277 130.297 52.3892 128.053 50.8613L80.4477 18.4498Z" fill="#96C8EF"/>
<path d="M125.929 133.243C129.083 133.243 131.639 130.686 131.639 127.533V57.6427C131.639 54.9282 130.296 52.3894 128.052 50.8613L118.483 44.3461L77.9971 68.8496C77.0926 69.3957 76.0562 69.6847 74.9997 69.6847C73.9532 69.6847 72.9264 69.4013 72.0278 68.8651L31.7349 44.1978L21.9476 50.8615C19.7037 52.3892 18.361 54.9282 18.361 57.6429V127.533C18.361 130.686 20.9175 133.243 24.0708 133.243H125.929Z" fill="#78B9EB"/>
<path d="M117.217 114.785H32.7827V39.9708C32.7827 34.6579 37.0898 30.3508 42.4027 30.3508H107.597C112.909 30.3508 117.216 34.6579 117.216 39.9708V114.785H117.217Z" fill="#FFF5CC"/>
<path d="M77.997 68.8502C77.0926 69.3963 76.0562 69.6853 74.9996 69.6853C73.9531 69.6853 72.9263 69.4019 72.0277 68.8656L32.7827 44.8394V114.784H117.216V45.1129L77.997 68.8502Z" fill="#FFEB99"/>
<path d="M64.734 80.8865L19.6259 53.2712C18.8126 54.5622 18.361 56.0725 18.361 57.6428V127.533C18.361 130.686 20.9175 133.243 24.0708 133.243H125.929C129.083 133.243 131.639 130.686 131.639 127.533V57.6428C131.639 56.1646 131.239 54.7401 130.514 53.5009L85.2658 80.8865C78.9526 84.6989 71.0472 84.6989 64.734 80.8865Z" fill="#B9D8F4"/>
<path d="M65.2868 81.2321L20.838 132.269C21.749 132.884 22.8466 133.243 24.0279 133.243H125.886C127.105 133.243 128.234 132.859 129.161 132.209L84.7916 81.1372C78.7517 84.5811 71.3513 84.6142 65.2868 81.2321Z" fill="#D1E7F8"/>
<path d="M49.1543 44.1157H100.845C101.816 44.1157 102.602 43.329 102.602 42.3582C102.602 41.3872 101.815 40.6006 100.845 40.6006H49.1543C48.1835 40.6006 47.3967 41.3874 47.3967 42.3582C47.3967 43.329 48.1838 44.1157 49.1543 44.1157Z" fill="black"/>
<path d="M49.1543 53.2376H100.845C101.816 53.2376 102.602 52.4508 102.602 51.48C102.602 50.509 101.815 49.7224 100.845 49.7224H49.1543C48.1835 49.7224 47.3967 50.5092 47.3967 51.48C47.3967 52.451 48.1838 53.2376 49.1543 53.2376Z" fill="black"/>
<path d="M49.1543 62.3594H73.408C74.3787 62.3594 75.1655 61.5726 75.1655 60.6018C75.1655 59.6308 74.3785 58.8442 73.408 58.8442H49.1543C48.1835 58.8442 47.3967 59.631 47.3967 60.6018C47.3967 61.5726 48.1838 62.3594 49.1543 62.3594Z" fill="black"/>
<path d="M129.042 49.4089L118.975 42.5544V39.9704C118.975 33.6968 113.871 28.5928 107.597 28.5928H98.4691L81.437 16.9969C77.5267 14.3344 72.4733 14.3344 68.5628 16.9969L51.5457 28.583L51.5525 28.5931H42.4027C36.1292 28.5931 31.0254 33.6971 31.0254 39.9704V42.5541L20.9583 49.4084C18.2311 51.2652 16.6031 54.3434 16.6031 57.6425V127.532C16.6031 129.966 17.5847 135 24.0706 135H125.929C130.047 135 133.397 131.65 133.397 127.532V57.6425C133.397 54.3434 131.768 51.2654 129.042 49.4089ZM129.881 57.6425V127.532C129.881 128.31 129.653 129.034 129.263 129.646L87.5081 81.5837L129.683 56.0577C129.813 56.57 129.881 57.1013 129.881 57.6425ZM70.5411 19.9022C73.2501 18.0586 76.7505 18.0586 79.4587 19.9022L92.2235 28.5931H57.7768L70.5411 19.9022ZM42.403 32.1082H107.597C111.932 32.1082 115.459 35.6351 115.459 39.9704V53.2712C115.459 54.2422 116.246 55.0288 117.217 55.0288C118.187 55.0288 118.974 54.242 118.974 53.2712V46.8071C118.974 46.8071 127.657 52.7605 127.921 53.0155L84.3571 79.382C78.5856 82.8669 71.4144 82.8674 65.6518 79.3874L34.5406 60.3413V39.9708C34.5406 35.6354 38.0677 32.1082 42.403 32.1082ZM31.0254 46.8069V58.1891L22.275 52.8319C22.4829 52.6473 31.0254 46.8069 31.0254 46.8069ZM23.8611 131.474L30.0943 124.317C30.7318 123.585 30.6554 122.475 29.9232 121.837C29.1912 121.2 28.081 121.276 27.4432 122.008L20.7591 129.683C20.3553 129.063 20.1181 128.325 20.1181 127.532V57.6425C20.1181 57.0097 20.2128 56.3902 20.389 55.7994L62.6 81.6409L32.7064 115.965C32.0689 116.697 32.1453 117.807 32.8775 118.445C33.2105 118.735 34.359 119.21 35.3574 118.274L65.7207 83.4102C68.6601 84.8111 71.8293 85.5126 74.9997 85.5126C78.2097 85.5126 81.4197 84.7916 84.3906 83.3551L126.193 131.472C126.105 131.477 23.9309 131.478 23.8611 131.474Z" fill="black"/>
</svg>
