<svg width="1600" height="1173" viewBox="0 0 1600 1173" fill="none" xmlns="http://www.w3.org/2000/svg">
<path d="M1485 98C1385 -172 1205 -362 1045 -362C1020 -362 1000 -357 980.001 -352C935.001 -337 895.001 -302 870.001 -257C570.001 83 155.001 238 150.001 238C50.0009 273 20.0009 433 85.0009 608C140.001 758 240.001 853 330.001 853C340.001 853 355.001 853 365.001 848C375.001 843 430.001 833 530.001 818L630.001 1028C635.001 1038 645.001 1048 660.001 1053L820.001 1108C825.001 1108 830.001 1113 835.001 1113C845.001 1113 855.001 1108 865.001 1103C880.001 1093 885.001 1073 885.001 1058L850.001 773C975.001 763 1115 758 1255 768H1265C1285 773 1305 778 1325 778C1350 778 1370 773 1390 768C1475 738 1535 643 1550 508C1560 388 1540 238 1485 98ZM710.001 963L635.001 798L750.001 783L775.001 983L710.001 963ZM1070 483C1035 428 1000 363 970.001 283C945.001 208 925.001 138 920.001 68C935.001 68 955.001 83 975.001 98C1010 133 1045 188 1065 248C1105 363 1095 453 1070 483ZM340.001 753C335.001 753 335.001 753 335.001 753C300.001 763 225.001 698 175.001 573C130.001 448 150.001 343 180.001 333C195.001 328 520.001 208 815.001 -62C810.001 53 830.001 188 875.001 318C930.001 463 1005 583 1090 668C700.001 663 355.001 748 340.001 753ZM1445 498C1435 593 1400 653 1350 673C1340 678 1330 678 1320 678C1265 678 1200 638 1130 558C1200 498 1215 363 1160 213C1130 138 1090 73 1045 28C1005 -12 960.001 -32 915.001 -32C915.001 -52 915.001 -67 920.001 -82C930.001 -177 965.001 -237 1015 -257C1025 -262 1035 -262 1045 -262C1145 -262 1300 -112 1390 133C1440 258 1460 393 1445 498Z" fill="url(#paint0_linear_3317_68446)"/>
<defs>
<linearGradient id="paint0_linear_3317_68446" x1="801.524" y1="-362" x2="801.524" y2="1113" gradientUnits="userSpaceOnUse">
<stop stop-color="#F6F7FC"/>
<stop offset="1" stop-color="#F6F7FC" stop-opacity="0"/>
</linearGradient>
</defs>
</svg>
