<svg width="300" height="300" viewBox="0 0 300 300" fill="none" xmlns="http://www.w3.org/2000/svg">
<circle cx="150" cy="150" r="150" fill="#E8F7FF"/>
<g clip-path="url(#clip0_388:4343)">
<path d="M155.209 76.422H45.3798C37.0905 76.422 30.3708 83.1416 30.3708 91.431V269.503C30.3708 277.793 37.0905 284.512 45.3798 284.512H155.209C163.498 284.512 170.218 277.793 170.218 269.503V91.431C170.218 83.1416 163.498 76.422 155.209 76.422Z" fill="#42444C"/>
<path d="M42.9023 102.406H157.683V258.528H42.9023V102.406Z" fill="#E8F7FF"/>
<path d="M157.683 102.406V258.528H74.6328L114.784 102.406H157.683Z" fill="#D1EEFF"/>
<path d="M110.611 275.366H89.9775C87.8661 275.366 86.1571 273.656 86.1571 271.544C86.1571 269.435 87.8661 267.724 89.9775 267.724H110.611C112.721 267.724 114.432 269.435 114.432 271.544C114.432 273.656 112.721 275.366 110.611 275.366Z" fill="#2C2E35"/>
<path d="M149.622 34.5117H254.475C263.31 34.5117 270.472 41.6738 270.472 50.5087V119.225C270.472 128.06 263.31 135.222 254.475 135.222H222.704L188.509 170.668V135.222H149.622C140.787 135.222 133.625 128.06 133.625 119.225V50.5087C133.625 41.6738 140.787 34.5117 149.622 34.5117V34.5117Z" fill="#1AACFF"/>
<path d="M242.932 68.5236H161.164C159.052 68.5236 157.343 66.8127 157.343 64.7032C157.343 62.5936 159.052 60.8828 161.164 60.8828H242.932C245.043 60.8828 246.754 62.5936 246.754 64.7032C246.754 66.8127 245.043 68.5236 242.932 68.5236Z" fill="white"/>
<path d="M242.932 88.3943H161.164C159.052 88.3943 157.343 86.6835 157.343 84.572C157.343 82.4625 159.052 80.7516 161.164 80.7516H242.932C245.043 80.7516 246.754 82.4625 246.754 84.572C246.754 86.6835 245.043 88.3943 242.932 88.3943Z" fill="white"/>
<path d="M242.932 108.263H161.164C159.052 108.263 157.343 106.552 157.343 104.441C157.343 102.331 159.052 100.621 161.164 100.621H242.932C245.043 100.621 246.754 102.331 246.754 104.441C246.754 106.552 245.043 108.263 242.932 108.263Z" fill="white"/>
</g>
<defs>
<clipPath id="clip0_388:4343">
<rect width="250" height="250" fill="white" transform="translate(25 35)"/>
</clipPath>
</defs>
</svg>
