<svg width="150" height="150" viewBox="0 0 150 150" fill="none" xmlns="http://www.w3.org/2000/svg">
<g clip-path="url(#clip0_2755_60245)">
<path d="M93.2227 69.1904H56.7774L24.228 131.1C23.2559 132.95 24.3809 135.208 26.4426 135.545L39.5324 137.688C40.8396 137.902 42.042 138.534 42.9593 139.49L52.1453 149.058C53.5923 150.565 56.0904 150.212 57.0625 148.363L75.0001 114.245L92.9377 148.363C93.9097 150.212 96.4079 150.566 97.8549 149.059L107.041 139.49C107.958 138.535 109.161 137.903 110.468 137.689L123.558 135.545C125.619 135.208 126.745 132.95 125.772 131.101L93.2227 69.1904Z" fill="#5EC5FF"/>
<path d="M115.531 111.622L93.2228 69.1904H56.7774L34.4688 111.622C36.2447 112.973 38.4265 113.726 40.6791 113.726C41.6271 113.726 42.5646 113.595 43.4761 113.336C44.6181 117.873 48.6821 121.084 53.4376 121.083C55.2974 121.083 57.0944 120.584 58.6829 119.635C60.4847 122.852 63.9183 124.89 67.6489 124.889C68.2735 124.889 68.8899 124.83 69.4929 124.72L75.0001 114.245L80.5073 124.72C81.1105 124.83 81.7272 124.889 82.3521 124.889C86.0828 124.889 89.5158 122.851 91.3173 119.634C92.9061 120.584 94.7034 121.083 96.5635 121.083C101.318 121.083 105.382 117.872 106.524 113.336C107.436 113.595 108.374 113.726 109.322 113.726C111.574 113.726 113.756 112.972 115.531 111.622Z" fill="#1AACFF"/>
<path d="M77.1956 4.62889L80.1625 1.03504C81.5008 -0.586246 84.0745 -0.247281 84.9476 1.66493L86.8832 5.90418C87.6262 7.53133 89.6676 8.07831 91.1245 7.04061L94.9205 4.33709C96.6329 3.11746 99.0312 4.11092 99.3795 6.18397L100.152 10.7798C100.449 12.5437 102.279 13.6005 103.955 12.9753L108.321 11.3464C110.291 10.6116 112.35 12.1919 112.15 14.2846L111.707 18.9237C111.537 20.7041 113.031 22.1988 114.812 22.0286L119.451 21.5853C121.544 21.3852 123.124 23.4448 122.389 25.4144L120.76 29.7808C120.135 31.4566 121.192 33.2871 122.956 33.5836L127.552 34.3561C129.625 34.7045 130.618 37.1027 129.399 38.8151L126.695 42.6111C125.657 44.0681 126.205 46.1095 127.831 46.8524L132.071 48.7881C133.983 49.6611 134.322 52.2349 132.701 53.5731L129.107 56.54C127.727 57.6788 127.727 59.7923 129.107 60.931L132.701 63.8979C134.322 65.2362 133.983 67.81 132.071 68.683L127.831 70.6186C126.204 71.3616 125.657 73.403 126.695 74.86L129.399 78.656C130.618 80.3684 129.625 82.7666 127.552 83.1149L122.956 83.8875C121.192 84.184 120.135 86.0145 120.76 87.6902L122.389 92.0566C123.124 94.0263 121.544 96.0858 119.451 95.8857L114.812 95.4425C113.032 95.2723 111.537 96.7667 111.707 98.5474L112.15 103.187C112.35 105.279 110.291 106.859 108.321 106.125L103.955 104.496C102.279 103.871 100.449 104.927 100.152 106.691L99.3795 111.287C99.0312 113.36 96.6329 114.354 94.9205 113.134L91.1245 110.43C89.6676 109.393 87.6262 109.94 86.8832 111.567L84.9476 115.806C84.0745 117.719 81.5008 118.057 80.1625 116.436L77.1956 112.842C76.0569 111.463 73.9434 111.463 72.8046 112.842L69.8377 116.436C68.4994 118.057 65.9257 117.718 65.0527 115.806L63.117 111.567C62.3741 109.94 60.3327 109.393 58.8757 110.43L55.0797 113.134C53.3673 114.354 50.9691 113.36 50.6207 111.287L49.8482 106.691C49.5517 104.927 47.7212 103.871 46.0454 104.496L41.679 106.125C39.7094 106.859 37.6498 105.279 37.8499 103.187L38.2932 98.5474C38.4634 96.767 36.969 95.2723 35.1883 95.4425L30.5492 95.8857C28.4565 96.0858 26.8762 94.0263 27.611 92.0566L29.2399 87.6902C29.8651 86.0145 28.8083 84.184 27.0444 83.8875L22.4486 83.1149C20.3752 82.7666 19.3821 80.3684 20.6017 78.656L23.3052 74.86C24.3429 73.403 23.7956 71.3616 22.1688 70.6186L17.9295 68.683C16.017 67.81 15.6784 65.2362 17.2996 63.8979L20.8935 60.931C22.2728 59.7923 22.2728 57.6788 20.8935 56.54L17.2999 53.5728C15.6786 52.2346 16.0176 49.6608 17.9298 48.7878L22.1691 46.8521C23.7962 46.1092 24.3432 44.0678 23.3055 42.6108L20.602 38.8148C19.3824 37.1024 20.3758 34.7042 22.4489 34.3558L27.0447 33.5833C28.8086 33.2868 29.8654 31.4563 29.2402 29.7806L27.6113 25.4141C26.8765 23.4445 28.4568 21.3849 30.5494 21.585L35.1886 22.0283C36.969 22.1985 38.4637 20.7041 38.2935 18.9234L37.8502 14.2843C37.6501 12.1916 39.7097 10.6113 41.6793 11.3461L46.0457 12.975C47.7215 13.6002 49.552 12.5434 49.8485 10.7795L50.621 6.18368C50.9694 4.11034 53.3676 3.11717 55.08 4.3368L58.876 7.04032C60.3329 8.07801 62.3744 7.53075 63.1173 5.90389L65.053 1.66463C65.926 -0.247867 68.4997 -0.586539 69.838 1.03475L72.8046 4.62889C73.9434 6.00819 76.0569 6.00819 77.1956 4.62889Z" fill="#F7E365"/>
<path d="M132.7 63.8974L129.107 60.9305C127.727 59.7917 127.727 57.6782 129.107 56.5397L132.7 53.5728C134.322 52.2346 133.983 49.6608 132.07 48.7878L127.831 46.8521C126.204 46.1092 125.657 44.0678 126.695 42.6108L129.398 38.8148C130.618 37.1024 129.624 34.7042 127.551 34.3558L122.956 33.5833C121.192 33.2868 120.135 31.4563 120.76 29.7806L122.389 25.4141C123.124 23.4445 121.544 21.3849 119.451 21.585L114.812 22.0283C113.031 22.1985 111.537 20.7038 111.707 18.9234L112.15 14.2843C112.35 12.1916 110.291 10.6113 108.321 11.3461L105.836 12.273C111.418 20.9768 114.654 31.3283 114.654 42.4359C114.654 73.338 89.6035 98.3889 58.7014 98.3889C47.5941 98.3889 37.2423 95.1521 28.5385 89.5708L27.6116 92.0555C26.8768 94.0251 28.4571 96.0847 30.5498 95.8846L35.1889 95.4413C36.9693 95.2711 38.464 96.7658 38.2938 98.5462L37.8505 103.185C37.6505 105.278 39.71 106.858 41.6797 106.124L46.0461 104.495C47.7218 103.869 49.5523 104.926 49.8488 106.69L50.6213 111.286C50.9697 113.359 53.3679 114.352 55.0803 113.133L58.8763 110.429C60.3333 109.392 62.3747 109.939 63.1176 111.566L65.0533 115.805C65.9263 117.717 68.5001 118.056 69.8383 116.435L72.8052 112.841C73.944 111.462 76.0575 111.462 77.1963 112.841L80.1631 116.435C81.5014 118.056 84.0752 117.717 84.9482 115.805L86.8838 111.566C87.6268 109.939 89.6682 109.392 91.1252 110.429L94.9212 113.133C96.6336 114.352 99.0318 113.359 99.3801 111.286L100.153 106.69C100.449 104.926 102.28 103.869 103.955 104.495L108.322 106.124C110.291 106.858 112.351 105.278 112.151 103.185L111.708 98.5462C111.537 96.7658 113.032 95.2711 114.813 95.4413L119.452 95.8846C121.544 96.0847 123.125 94.0251 122.39 92.0555L120.761 87.6891C120.136 86.0133 121.193 84.1828 122.957 83.8863L127.552 83.1138C129.626 82.7654 130.619 80.3672 129.399 78.6548L126.696 74.8588C125.658 73.4018 126.205 71.3604 127.832 70.6175L132.071 68.6818C133.983 67.8094 134.322 65.2359 132.7 63.8974Z" fill="#F3D332"/>
<path d="M75.0002 102.013C98.9023 102.013 118.279 82.637 118.279 58.7349C118.279 34.8329 98.9023 15.4564 75.0002 15.4564C51.0981 15.4564 31.7217 34.8329 31.7217 58.7349C31.7217 82.637 51.0981 102.013 75.0002 102.013Z" fill="#E69642"/>
<path d="M114.654 42.4363C114.654 73.3383 89.6036 98.3892 58.7016 98.3892C58.34 98.3892 57.9794 98.3854 57.6196 98.3786C62.9396 100.714 68.8178 102.014 75.0003 102.014C98.9024 102.014 118.279 82.6374 118.279 58.7353C118.279 52.5528 116.979 46.6746 114.644 41.3546C114.651 41.7141 114.654 42.0747 114.654 42.4363Z" fill="#E38523"/>
<path d="M74.9999 92.121C93.4386 92.121 108.386 77.1735 108.386 58.7349C108.386 40.2962 93.4386 25.3488 74.9999 25.3488C56.5612 25.3488 41.6138 40.2962 41.6138 58.7349C41.6138 77.1735 56.5612 92.121 74.9999 92.121Z" fill="#F7E365"/>
<path d="M93.2194 30.7561C96.6381 35.9956 98.6271 42.2528 98.6271 48.9755C98.6271 67.4141 83.6795 82.3617 65.2409 82.3617C58.5182 82.3617 52.2609 80.373 47.0215 76.9543C52.9796 86.085 63.2842 92.1213 75.0003 92.1213C93.4389 92.1213 108.386 77.1738 108.386 58.7352C108.386 47.0191 102.35 36.7142 93.2194 30.7561Z" fill="#F3D332"/>
<path d="M73.3444 74.891L65.7743 78.1553C62.8581 79.4127 59.6595 77.0889 59.9545 73.9268L60.7198 65.7187C60.8267 64.5726 60.4564 63.4333 59.6964 62.569L54.2528 56.3783C52.1557 53.9935 53.3774 50.2333 56.4758 49.5366L64.5187 47.7278C65.6416 47.4753 66.6108 46.771 67.1982 45.781L71.4037 38.6906C73.0239 35.9593 76.9775 35.9593 78.5976 38.6906L82.8032 45.781C83.3903 46.771 84.3597 47.4753 85.4826 47.7278L93.5255 49.5366C96.624 50.2333 97.8456 53.9935 95.7486 56.3783L90.3049 62.569C89.5449 63.4333 89.1746 64.5729 89.2816 65.7187L90.0468 73.9268C90.3415 77.0889 87.1432 79.4127 84.227 78.1553L76.657 74.891C75.5993 74.4351 74.4011 74.4351 73.3444 74.891Z" fill="#E69642"/>
<path d="M93.5246 49.5363L89.8634 48.713C86.6038 62.6654 74.5956 73.2532 59.9375 74.3756C59.968 77.3032 62.9976 79.3523 65.7737 78.1552L73.3438 74.8909C74.4008 74.4351 75.5987 74.4351 76.6558 74.8909L84.2258 78.1552C87.142 79.4126 90.3403 77.0888 90.0456 73.9268L89.2804 65.7184C89.1734 64.5723 89.5438 63.4329 90.3037 62.5687L95.7477 56.378C97.8447 53.9932 96.6231 50.2329 93.5246 49.5363Z" fill="#E38523"/>
</g>
<defs>
<clipPath id="clip0_2755_60245">
<rect width="150" height="150" fill="white"/>
</clipPath>
</defs>
</svg>
