<svg width="197" height="168" viewBox="0 0 197 168" fill="none" xmlns="http://www.w3.org/2000/svg">
<path d="M100.729 9.09053C100.685 9.13264 100.652 9.18475 100.633 9.24236C100.614 9.29997 100.61 9.36133 100.62 9.4211L101.365 13.7702C101.377 13.8393 101.369 13.9103 101.343 13.9753C101.317 14.0402 101.273 14.0966 101.216 14.138C101.16 14.1794 101.093 14.2042 101.023 14.2095C100.953 14.2149 100.883 14.2006 100.821 14.1684L96.9162 12.1154C96.8622 12.0869 96.8021 12.072 96.741 12.072C96.68 12.072 96.6199 12.0869 96.5659 12.1154L92.6601 14.1686C92.615 14.1926 92.5654 14.2069 92.5145 14.2107C92.4635 14.2145 92.4124 14.2077 92.3642 14.1907C92.2797 14.1615 92.2084 14.1031 92.163 14.0261C92.1176 13.949 92.101 13.8583 92.1163 13.7702L92.8612 9.42356C92.8715 9.36341 92.867 9.30165 92.8481 9.24362C92.8292 9.1856 92.7964 9.13305 92.7526 9.09053L89.5946 6.01284C89.5443 5.96378 89.5088 5.90165 89.4919 5.83344C89.4751 5.76524 89.4777 5.69369 89.4993 5.62688C89.521 5.56006 89.5609 5.50063 89.6146 5.45529C89.6683 5.40996 89.7335 5.38053 89.803 5.37033L94.167 4.7353C94.2276 4.72678 94.2851 4.70355 94.3345 4.66764C94.3839 4.63173 94.4238 4.58424 94.4507 4.52933L96.4027 0.575867C96.4392 0.500711 96.4999 0.440016 96.5751 0.403548C96.6502 0.367079 96.7355 0.356957 96.8171 0.374809C96.8735 0.385229 96.9266 0.40889 96.972 0.443846C97.0174 0.478801 97.0539 0.52405 97.0785 0.575867L99.0305 4.52921C99.0573 4.58411 99.0972 4.63159 99.1467 4.66749C99.1961 4.7034 99.2536 4.72664 99.3141 4.73519L103.678 5.37021C103.747 5.38044 103.812 5.4097 103.866 5.45473C103.919 5.49976 103.959 5.55878 103.981 5.6252C104.003 5.69161 104.006 5.7628 103.99 5.8308C103.973 5.89881 103.939 5.96094 103.889 6.01027L100.729 9.09053Z" fill="#FABA59"/>
<path opacity="0.5" d="M100.729 9.09072L100.587 9.2289L100.62 9.42129L101.365 13.7704C101.377 13.8395 101.369 13.9105 101.343 13.9755C101.317 14.0404 101.273 14.0968 101.216 14.1382C101.16 14.1796 101.093 14.2043 101.023 14.2097C100.953 14.2151 100.883 14.2008 100.821 14.1686L96.9162 12.1156L96.7406 12.0231L96.5649 12.1156L92.6602 14.1688C92.6151 14.1928 92.5655 14.2071 92.5145 14.2109C92.4636 14.2147 92.4124 14.2079 92.3643 14.1909L96.7406 10.3301L99.9985 12.0589L98.8666 8.81086L102.234 6.21761L97.6691 5.73914L96.8171 0.375C96.8735 0.385419 96.9266 0.409081 96.9721 0.444036C97.0175 0.478992 97.054 0.524241 97.0785 0.576057L99.0305 4.5294L99.1181 4.70704L99.3141 4.73538L103.678 5.3704C103.747 5.38063 103.812 5.40989 103.866 5.45492C103.919 5.49995 103.959 5.55897 103.981 5.62539C104.003 5.6918 104.006 5.76299 103.99 5.83099C103.973 5.899 103.939 5.96113 103.889 6.01046L100.729 9.09072Z" fill="#BA6F0C"/>
<path d="M123.321 14.0451C123.265 14.0697 123.217 14.1075 123.179 14.1552C123.142 14.2028 123.117 14.2589 123.106 14.3186L122.318 18.6602C122.306 18.7292 122.274 18.7933 122.227 18.8454C122.181 18.8975 122.12 18.9354 122.053 18.955C121.986 18.9746 121.914 18.9749 121.847 18.9561C121.779 18.9372 121.718 18.8999 121.671 18.8483L118.704 15.5836C118.663 15.5384 118.611 15.5038 118.554 15.4829C118.497 15.462 118.435 15.4555 118.375 15.4638L114.002 16.0573C113.952 16.0644 113.9 16.061 113.851 16.0471C113.802 16.0333 113.756 16.0094 113.716 15.9769C113.647 15.9205 113.6 15.8413 113.584 15.7534C113.567 15.6654 113.583 15.5746 113.627 15.497L115.814 11.6672C115.844 11.6142 115.861 11.5547 115.863 11.4937C115.865 11.4327 115.852 11.3721 115.826 11.3172L113.911 7.34497C113.88 7.28167 113.868 7.21112 113.876 7.14127C113.883 7.07143 113.91 7.00507 113.953 6.9497C113.997 6.89432 114.054 6.85213 114.12 6.82788C114.186 6.80364 114.258 6.79831 114.327 6.81249L118.645 7.70834C118.704 7.72103 118.766 7.71886 118.825 7.70203C118.884 7.68519 118.937 7.65421 118.981 7.61179L122.168 4.56438C122.228 4.50624 122.306 4.46997 122.389 4.46141C122.472 4.45285 122.556 4.4725 122.626 4.51719C122.676 4.54626 122.717 4.58665 122.748 4.63504C122.779 4.68343 122.798 4.73843 122.803 4.79551L123.285 9.17807C123.292 9.23884 123.313 9.29709 123.347 9.34775C123.381 9.3984 123.427 9.4399 123.481 9.46863L127.365 11.558C127.426 11.5912 127.477 11.641 127.512 11.7016C127.547 11.7622 127.565 11.8313 127.562 11.9012C127.56 11.9711 127.539 12.039 127.5 12.0973C127.462 12.1557 127.408 12.2021 127.344 12.2315L123.321 14.0451Z" fill="#FABA59"/>
<path opacity="0.5" d="M123.321 14.045L123.14 14.1263L123.106 14.3185L122.318 18.6601C122.306 18.7291 122.274 18.7932 122.228 18.8453C122.181 18.8974 122.12 18.9354 122.053 18.9549C121.986 18.9745 121.914 18.9749 121.847 18.956C121.779 18.9372 121.718 18.8998 121.671 18.8482L118.704 15.5836L118.57 15.4365L118.374 15.4634L114.002 16.0573C113.952 16.0644 113.9 16.0609 113.851 16.0471C113.802 16.0332 113.756 16.0093 113.717 15.9769L119.149 13.8456L121.62 16.5845L121.667 13.1452L125.718 11.8601L121.592 9.84917L122.626 4.51712C122.676 4.54619 122.717 4.58658 122.748 4.63497C122.779 4.68336 122.798 4.73836 122.803 4.79544L123.285 9.178L123.307 9.37488L123.481 9.46856L127.365 11.5579C127.427 11.5912 127.478 11.6409 127.512 11.7015C127.547 11.7621 127.565 11.8312 127.562 11.9011C127.56 11.971 127.539 12.0389 127.5 12.0972C127.462 12.1556 127.408 12.202 127.344 12.2314L123.321 14.045Z" fill="#BA6F0C"/>
<path d="M142.321 22.0451C142.265 22.0697 142.217 22.1075 142.179 22.1552C142.142 22.2028 142.117 22.2589 142.106 22.3186L141.318 26.6602C141.306 26.7292 141.274 26.7933 141.227 26.8454C141.181 26.8975 141.12 26.9354 141.053 26.955C140.986 26.9746 140.914 26.9749 140.847 26.9561C140.779 26.9372 140.718 26.8999 140.671 26.8483L137.704 23.5836C137.663 23.5384 137.611 23.5038 137.554 23.4829C137.497 23.462 137.435 23.4555 137.375 23.4638L133.002 24.0573C132.952 24.0644 132.9 24.061 132.851 24.0471C132.802 24.0333 132.756 24.0094 132.716 23.9769C132.647 23.9205 132.6 23.8413 132.584 23.7534C132.567 23.6654 132.583 23.5746 132.627 23.497L134.814 19.6672C134.844 19.6142 134.861 19.5547 134.863 19.4937C134.865 19.4327 134.852 19.3721 134.826 19.3172L132.911 15.345C132.88 15.2817 132.868 15.2111 132.876 15.1413C132.883 15.0714 132.91 15.0051 132.953 14.9497C132.997 14.8943 133.054 14.8521 133.12 14.8279C133.186 14.8036 133.258 14.7983 133.327 14.8125L137.645 15.7083C137.704 15.721 137.766 15.7189 137.825 15.702C137.884 15.6852 137.937 15.6542 137.981 15.6118L141.168 12.5644C141.228 12.5062 141.306 12.47 141.389 12.4614C141.472 12.4528 141.556 12.4725 141.626 12.5172C141.676 12.5463 141.717 12.5867 141.748 12.635C141.779 12.6834 141.798 12.7384 141.803 12.7955L142.285 17.1781C142.292 17.2388 142.313 17.2971 142.347 17.3477C142.381 17.3984 142.427 17.4399 142.481 17.4686L146.365 19.558C146.426 19.5912 146.477 19.641 146.512 19.7016C146.547 19.7622 146.565 19.8313 146.562 19.9012C146.56 19.9711 146.539 20.039 146.5 20.0973C146.462 20.1557 146.408 20.2021 146.344 20.2315L142.321 22.0451Z" fill="#FABA59"/>
<path opacity="0.5" d="M142.321 22.045L142.14 22.1263L142.106 22.3185L141.318 26.6601C141.306 26.7291 141.274 26.7932 141.228 26.8453C141.181 26.8974 141.12 26.9354 141.053 26.9549C140.986 26.9745 140.914 26.9749 140.847 26.956C140.779 26.9372 140.718 26.8998 140.671 26.8482L137.704 23.5836L137.57 23.4365L137.374 23.4634L133.002 24.0573C132.952 24.0644 132.9 24.0609 132.851 24.0471C132.802 24.0332 132.756 24.0093 132.717 23.9769L138.149 21.8456L140.62 24.5845L140.667 21.1452L144.718 19.8601L140.592 17.8492L141.626 12.5171C141.676 12.5462 141.717 12.5866 141.748 12.635C141.779 12.6834 141.798 12.7384 141.803 12.7954L142.285 17.178L142.307 17.3749L142.481 17.4686L146.365 19.5579C146.427 19.5912 146.478 19.6409 146.512 19.7015C146.547 19.7621 146.565 19.8312 146.562 19.9011C146.56 19.971 146.539 20.0389 146.5 20.0972C146.462 20.1556 146.408 20.202 146.344 20.2314L142.321 22.045Z" fill="#BA6F0C"/>
<path d="M159.908 32.913C159.847 32.9172 159.789 32.9361 159.737 32.9681C159.686 33.0001 159.643 33.0441 159.612 33.0965L157.387 36.9069C157.352 36.9675 157.301 37.017 157.239 37.0499C157.177 37.0829 157.107 37.0978 157.037 37.0932C156.967 37.0886 156.9 37.0645 156.843 37.0237C156.786 36.9829 156.742 36.927 156.715 36.8623L155.043 32.7797C155.02 32.7231 154.984 32.6731 154.937 32.6338C154.89 32.5946 154.834 32.5674 154.775 32.5545L150.463 31.6168C150.413 31.6061 150.366 31.5853 150.324 31.5554C150.283 31.5256 150.248 31.4875 150.222 31.4435C150.176 31.3668 150.159 31.2762 150.174 31.188C150.189 31.0998 150.234 31.0197 150.303 30.9621L153.667 28.1111C153.714 28.0716 153.75 28.0214 153.773 27.9648C153.796 27.9082 153.804 27.8469 153.798 27.7862L153.357 23.3986C153.35 23.3287 153.363 23.2583 153.394 23.1952C153.425 23.1321 153.473 23.079 153.532 23.0417C153.592 23.0045 153.661 22.9846 153.731 22.9844C153.801 22.9841 153.87 23.0035 153.93 23.0404L157.681 25.3591C157.733 25.3914 157.792 25.4106 157.853 25.4149C157.914 25.4192 157.975 25.4084 158.031 25.3836L162.067 23.6098C162.144 23.5757 162.229 23.5682 162.31 23.5886C162.391 23.609 162.463 23.656 162.514 23.7222C162.55 23.7664 162.576 23.8186 162.588 23.8746C162.601 23.9306 162.599 23.9887 162.585 24.0442L161.539 28.3274C161.524 28.3867 161.524 28.4487 161.539 28.508C161.554 28.5673 161.583 28.622 161.624 28.6674L164.559 31.9591C164.605 32.0114 164.636 32.0756 164.648 32.1445C164.66 32.2133 164.653 32.2842 164.627 32.3491C164.601 32.4141 164.558 32.4705 164.501 32.5122C164.445 32.5538 164.379 32.579 164.309 32.5849L159.908 32.913Z" fill="#FABA59"/>
<path opacity="0.5" d="M159.908 32.9135L159.71 32.9282L159.612 33.0969L157.387 36.9073C157.352 36.9679 157.301 37.0175 157.239 37.0504C157.177 37.0833 157.107 37.0983 157.037 37.0937C156.967 37.089 156.9 37.065 156.843 37.0242C156.786 36.9834 156.742 36.9275 156.715 36.8628L155.043 32.7801L154.968 32.5963L154.774 32.5543L150.463 31.6172C150.413 31.6066 150.366 31.5857 150.324 31.5559C150.283 31.5261 150.248 31.4879 150.222 31.444L156.056 31.2994L157.441 34.7179L158.661 31.5022L162.908 31.6803L159.719 28.3794L162.514 23.7226C162.55 23.7668 162.576 23.8191 162.588 23.8751C162.601 23.9311 162.599 23.9892 162.585 24.0446L161.539 28.3278L161.492 28.5202L161.624 28.6679L164.559 31.9596C164.605 32.0119 164.636 32.076 164.648 32.1449C164.66 32.2138 164.653 32.2847 164.627 32.3496C164.601 32.4145 164.558 32.471 164.501 32.5126C164.445 32.5542 164.379 32.5794 164.309 32.5854L159.908 32.9135Z" fill="#BA6F0C"/>
<path d="M174.908 48.913C174.847 48.9172 174.789 48.9361 174.737 48.9681C174.686 49.0001 174.643 49.0441 174.612 49.0965L172.387 52.9069C172.352 52.9675 172.301 53.017 172.239 53.0499C172.177 53.0829 172.107 53.0978 172.037 53.0932C171.967 53.0886 171.9 53.0645 171.843 53.0237C171.786 52.9829 171.742 52.927 171.715 52.8623L170.043 48.7797C170.02 48.7231 169.984 48.6731 169.937 48.6338C169.89 48.5946 169.834 48.5674 169.775 48.5545L165.463 47.6168C165.413 47.6061 165.366 47.5853 165.324 47.5554C165.283 47.5256 165.248 47.4875 165.222 47.4435C165.176 47.3668 165.159 47.2762 165.174 47.188C165.189 47.0998 165.234 47.0197 165.303 46.9621L168.667 44.1111C168.714 44.0716 168.75 44.0214 168.773 43.9648C168.796 43.9082 168.804 43.8469 168.798 43.7862L168.357 39.3986C168.35 39.3287 168.363 39.2583 168.394 39.1952C168.425 39.1321 168.473 39.079 168.532 39.0417C168.592 39.0045 168.661 38.9846 168.731 38.9844C168.801 38.9841 168.87 39.0035 168.93 39.0404L172.681 41.3591C172.733 41.3914 172.792 41.4106 172.853 41.4149C172.914 41.4192 172.975 41.4084 173.031 41.3836L177.067 39.6098C177.144 39.5757 177.229 39.5682 177.31 39.5886C177.391 39.609 177.463 39.656 177.514 39.7222C177.55 39.7664 177.576 39.8186 177.588 39.8746C177.601 39.9306 177.599 39.9887 177.585 40.0442L176.539 44.3274C176.524 44.3867 176.524 44.4487 176.539 44.508C176.554 44.5673 176.583 44.622 176.624 44.6674L179.559 47.9591C179.605 48.0114 179.636 48.0756 179.648 48.1445C179.66 48.2133 179.653 48.2842 179.627 48.3491C179.601 48.4141 179.558 48.4705 179.501 48.5122C179.445 48.5538 179.379 48.579 179.309 48.5849L174.908 48.913Z" fill="#FABA59"/>
<path opacity="0.5" d="M174.908 48.9135L174.71 48.9282L174.612 49.0969L172.387 52.9073C172.352 52.9679 172.301 53.0175 172.239 53.0504C172.177 53.0833 172.107 53.0983 172.037 53.0937C171.967 53.089 171.9 53.065 171.843 53.0242C171.786 52.9834 171.742 52.9275 171.715 52.8628L170.043 48.7801L169.968 48.5963L169.774 48.5543L165.463 47.6172C165.413 47.6066 165.366 47.5857 165.324 47.5559C165.283 47.5261 165.248 47.4879 165.222 47.444L171.056 47.2994L172.441 50.7179L173.661 47.5022L177.908 47.6803L174.719 44.3794L177.514 39.7226C177.55 39.7668 177.576 39.8191 177.588 39.8751C177.601 39.9311 177.599 39.9892 177.585 40.0446L176.539 44.3278L176.492 44.5202L176.624 44.6679L179.559 47.9596C179.605 48.0119 179.636 48.076 179.648 48.1449C179.66 48.2138 179.653 48.2847 179.627 48.3496C179.601 48.4145 179.558 48.471 179.501 48.5126C179.445 48.5542 179.379 48.5794 179.309 48.5854L174.908 48.9135Z" fill="#BA6F0C"/>
<path d="M182.059 71.1028C182 71.0861 181.939 71.0838 181.88 71.0963C181.82 71.1087 181.765 71.1354 181.718 71.1741L178.324 73.9937C178.27 74.0386 178.205 74.0676 178.136 74.0774C178.066 74.0872 177.996 74.0774 177.932 74.0491C177.867 74.0208 177.812 73.9752 177.773 73.9174C177.733 73.8596 177.711 73.7919 177.707 73.7219L177.533 69.3137C177.531 69.2527 177.514 69.1932 177.483 69.1403C177.453 69.0874 177.41 69.0428 177.358 69.0104L173.627 66.6544C173.584 66.6274 173.546 66.5916 173.518 66.5494C173.489 66.5072 173.469 66.4594 173.46 66.4092C173.443 66.3214 173.458 66.2305 173.502 66.1526C173.546 66.0748 173.616 66.0151 173.7 65.9843L177.837 64.456C177.894 64.4349 177.945 64.4001 177.986 64.3547C178.027 64.3093 178.056 64.2547 178.071 64.1955L179.157 59.9217C179.175 59.8537 179.211 59.7918 179.261 59.7431C179.312 59.6944 179.375 59.6609 179.444 59.6463C179.513 59.6316 179.584 59.6365 179.65 59.6603C179.716 59.6841 179.774 59.7259 179.818 59.781L182.55 63.2428C182.587 63.291 182.636 63.3291 182.692 63.354C182.748 63.3789 182.809 63.3897 182.87 63.3854L187.27 63.0992C187.353 63.0932 187.436 63.1155 187.505 63.1623C187.574 63.2092 187.626 63.278 187.651 63.3576C187.67 63.4116 187.676 63.4694 187.669 63.5263C187.661 63.5831 187.64 63.6373 187.608 63.6845L185.16 67.3516C185.126 67.4023 185.105 67.4606 185.098 67.5214C185.092 67.5822 185.101 67.6436 185.123 67.7002L186.756 71.7972C186.781 71.8622 186.788 71.9331 186.776 72.0019C186.764 72.0708 186.733 72.1349 186.686 72.187C186.64 72.2391 186.579 72.2773 186.512 72.2972C186.445 72.3171 186.374 72.318 186.307 72.2998L182.059 71.1028Z" fill="#FABA59"/>
<path opacity="0.5" d="M182.059 71.1025L181.868 71.0488L181.718 71.1738L178.324 73.9935C178.27 74.0383 178.205 74.0673 178.136 74.0771C178.066 74.0869 177.996 74.0771 177.931 74.0488C177.867 74.0205 177.812 73.9749 177.773 73.9171C177.733 73.8593 177.711 73.7916 177.707 73.7216L177.533 69.3134L177.525 69.115L177.357 69.0092L173.627 66.6541C173.583 66.6271 173.546 66.5913 173.517 66.5491C173.489 66.5069 173.469 66.4592 173.46 66.4089L178.991 68.2685L179.123 71.9544L181.37 69.3501L185.3 70.9699L183.432 66.7772L187.651 63.3573C187.67 63.4113 187.676 63.4691 187.669 63.526C187.661 63.5828 187.64 63.637 187.608 63.6842L185.16 67.3513L185.05 67.516L185.123 67.6999L186.755 71.7969C186.781 71.8619 186.788 71.9328 186.776 72.0016C186.764 72.0705 186.733 72.1346 186.686 72.1867C186.639 72.2389 186.579 72.277 186.512 72.2969C186.445 72.3168 186.374 72.3177 186.307 72.2995L182.059 71.1025Z" fill="#BA6F0C"/>
<path d="M185.543 93.9881C185.494 93.9525 185.437 93.9293 185.377 93.9207C185.317 93.9121 185.256 93.9182 185.199 93.9386L181.045 95.4274C180.979 95.4512 180.908 95.4561 180.84 95.4415C180.771 95.427 180.708 95.3936 180.657 95.3451C180.607 95.2966 180.571 95.235 180.553 95.1671C180.536 95.0992 180.538 95.0278 180.559 94.961L181.903 90.759C181.921 90.7009 181.926 90.6391 181.915 90.579C181.904 90.5188 181.879 90.4622 181.842 90.414L179.141 86.9241C179.11 86.8838 179.087 86.8375 179.075 86.788C179.062 86.7385 179.06 86.6869 179.068 86.6365C179.082 86.5482 179.128 86.4679 179.196 86.4098C179.264 86.3517 179.35 86.3196 179.439 86.3194L183.849 86.2981C183.91 86.2978 183.97 86.2827 184.024 86.254C184.078 86.2253 184.124 86.1839 184.158 86.1334L186.641 82.4889C186.681 82.4309 186.736 82.3851 186.8 82.3567C186.864 82.3283 186.935 82.3184 187.005 82.3281C187.074 82.3378 187.14 82.3668 187.194 82.4118C187.248 82.4568 187.288 82.516 187.31 82.5826L188.693 86.7701C188.712 86.8282 188.745 86.8808 188.789 86.9232C188.833 86.9657 188.887 86.9967 188.945 87.0136L193.178 88.2495C193.258 88.2723 193.328 88.3216 193.377 88.3893C193.426 88.457 193.451 88.5392 193.448 88.6227C193.447 88.68 193.433 88.7364 193.406 88.7872C193.38 88.838 193.342 88.8818 193.295 88.915L189.741 91.5238C189.691 91.5598 189.651 91.6073 189.625 91.6622C189.598 91.7172 189.585 91.7778 189.587 91.8389L189.719 96.247C189.721 96.3169 189.704 96.3859 189.669 96.4464C189.634 96.5069 189.583 96.5565 189.521 96.5896C189.459 96.6226 189.39 96.6379 189.32 96.6337C189.25 96.6295 189.183 96.606 189.126 96.5657L185.543 93.9881Z" fill="#FABA59"/>
<path opacity="0.5" d="M185.543 93.988L185.383 93.8724L185.199 93.9385L181.045 95.4273C180.979 95.4511 180.908 95.456 180.84 95.4414C180.771 95.4269 180.708 95.3935 180.657 95.345C180.607 95.2965 180.571 95.2348 180.553 95.167C180.536 95.0991 180.538 95.0277 180.559 94.9609L181.903 90.7588L181.963 90.5698L181.842 90.4129L179.141 86.924C179.11 86.8837 179.087 86.8374 179.075 86.7879C179.062 86.7384 179.06 86.6868 179.068 86.6364L183.63 90.2758L182.494 93.7844L185.496 92.1057L188.634 94.9719L188.313 90.3931L193.448 88.6225C193.447 88.6799 193.433 88.7363 193.406 88.7871C193.38 88.8379 193.342 88.8817 193.295 88.9148L189.741 91.5237L189.581 91.6408L189.587 91.8388L189.719 96.2469C189.721 96.3168 189.704 96.3858 189.669 96.4463C189.634 96.5068 189.583 96.5564 189.521 96.5894C189.459 96.6225 189.39 96.6378 189.32 96.6336C189.25 96.6294 189.183 96.6058 189.126 96.5656L185.543 93.988Z" fill="#BA6F0C"/>
<path d="M185.611 117.966C185.577 117.916 185.532 117.874 185.478 117.846C185.425 117.817 185.365 117.802 185.305 117.802L180.892 117.78C180.822 117.78 180.754 117.76 180.694 117.723C180.635 117.686 180.587 117.633 180.556 117.57C180.525 117.507 180.512 117.437 180.519 117.367C180.526 117.297 180.552 117.231 180.595 117.175L183.294 113.686C183.332 113.638 183.357 113.582 183.368 113.521C183.378 113.461 183.374 113.399 183.355 113.341L182.011 109.138C181.996 109.09 181.99 109.038 181.995 108.988C182 108.937 182.016 108.888 182.041 108.843C182.085 108.765 182.154 108.705 182.238 108.674C182.322 108.642 182.414 108.642 182.498 108.672L186.65 110.16C186.707 110.181 186.769 110.187 186.829 110.179C186.889 110.17 186.947 110.147 186.996 110.111L190.576 107.536C190.633 107.495 190.7 107.47 190.77 107.466C190.84 107.461 190.91 107.476 190.972 107.509C191.034 107.542 191.086 107.591 191.121 107.652C191.157 107.713 191.174 107.782 191.172 107.853L191.04 112.261C191.038 112.322 191.051 112.382 191.077 112.437C191.104 112.492 191.144 112.54 191.193 112.576L194.748 115.184C194.816 115.233 194.865 115.304 194.888 115.384C194.91 115.464 194.906 115.55 194.874 115.627C194.854 115.681 194.821 115.729 194.779 115.768C194.737 115.807 194.686 115.835 194.63 115.85L190.398 117.086C190.34 117.103 190.286 117.134 190.242 117.176C190.198 117.219 190.165 117.271 190.146 117.329L188.763 121.517C188.741 121.583 188.701 121.642 188.647 121.687C188.593 121.732 188.528 121.761 188.459 121.771C188.39 121.781 188.319 121.772 188.255 121.744C188.191 121.716 188.136 121.671 188.096 121.613L185.611 117.966Z" fill="#FABA59"/>
<path opacity="0.5" d="M185.611 117.966L185.5 117.802L185.305 117.802L180.892 117.78C180.822 117.78 180.754 117.76 180.694 117.723C180.635 117.686 180.587 117.633 180.556 117.57C180.525 117.507 180.512 117.437 180.519 117.367C180.526 117.297 180.552 117.231 180.595 117.175L183.295 113.686L183.416 113.529L183.356 113.34L182.012 109.138C181.996 109.09 181.99 109.038 181.995 108.988C182 108.937 182.016 108.888 182.041 108.843L185.083 113.823L182.815 116.732L186.21 116.181L188.179 119.948L189.443 115.535L194.874 115.627C194.854 115.681 194.821 115.729 194.779 115.768C194.737 115.807 194.686 115.835 194.631 115.85L190.398 117.086L190.208 117.141L190.146 117.329L188.763 121.517C188.741 121.583 188.701 121.642 188.647 121.687C188.594 121.732 188.529 121.761 188.459 121.771C188.39 121.781 188.32 121.771 188.255 121.744C188.191 121.716 188.136 121.671 188.096 121.613L185.611 117.966Z" fill="#BA6F0C"/>
<path d="M179.524 141.904C179.509 141.845 179.481 141.791 179.44 141.746C179.4 141.7 179.349 141.666 179.292 141.645L175.153 140.115C175.087 140.091 175.03 140.049 174.987 139.994C174.943 139.939 174.917 139.872 174.909 139.803C174.901 139.733 174.913 139.663 174.944 139.599C174.974 139.536 175.021 139.483 175.08 139.445L178.811 137.09C178.862 137.057 178.905 137.013 178.936 136.96C178.966 136.907 178.984 136.848 178.986 136.787L179.161 132.377C179.162 132.326 179.175 132.276 179.197 132.23C179.219 132.184 179.251 132.143 179.289 132.11C179.357 132.052 179.443 132.019 179.533 132.018C179.622 132.017 179.709 132.048 179.777 132.106L183.169 134.924C183.216 134.963 183.272 134.99 183.332 135.003C183.391 135.015 183.453 135.013 183.512 134.997L187.756 133.8C187.824 133.781 187.896 133.782 187.963 133.801C188.031 133.821 188.091 133.859 188.138 133.911C188.185 133.963 188.217 134.027 188.229 134.097C188.242 134.166 188.235 134.237 188.209 134.302L186.577 138.399C186.554 138.456 186.545 138.517 186.551 138.578C186.558 138.639 186.579 138.697 186.613 138.748L189.061 142.415C189.108 142.484 189.13 142.567 189.124 142.65C189.118 142.734 189.084 142.813 189.028 142.874C188.991 142.918 188.944 142.952 188.891 142.974C188.838 142.996 188.78 143.005 188.723 143L184.323 142.714C184.262 142.71 184.201 142.721 184.146 142.745C184.09 142.77 184.041 142.809 184.003 142.857L181.271 146.319C181.228 146.373 181.17 146.415 181.104 146.439C181.038 146.463 180.967 146.468 180.899 146.453C180.83 146.439 180.767 146.406 180.717 146.358C180.666 146.31 180.629 146.249 180.611 146.181L179.524 141.904Z" fill="#FABA59"/>
<path opacity="0.5" d="M179.524 141.903L179.475 141.712L179.292 141.644L175.153 140.115C175.088 140.09 175.03 140.048 174.987 139.993C174.943 139.938 174.917 139.872 174.909 139.802C174.901 139.733 174.913 139.662 174.944 139.599C174.974 139.536 175.021 139.482 175.08 139.445L178.811 137.089L178.979 136.984L178.986 136.785L179.161 132.377C179.162 132.326 179.175 132.276 179.197 132.23C179.219 132.184 179.251 132.143 179.289 132.11L180.445 137.83L177.319 139.787L180.698 140.431L181.26 144.644L183.956 140.93L189.028 142.874C188.991 142.918 188.944 142.952 188.891 142.974C188.838 142.995 188.78 143.004 188.723 143L184.323 142.714L184.126 142.701L184.003 142.856L181.271 146.318C181.228 146.373 181.17 146.415 181.104 146.438C181.038 146.462 180.967 146.467 180.899 146.453C180.831 146.439 180.767 146.406 180.717 146.358C180.666 146.309 180.629 146.248 180.612 146.181L179.524 141.903Z" fill="#BA6F0C"/>
<path d="M165.412 158.931C165.418 158.871 165.41 158.81 165.387 158.754C165.365 158.698 165.329 158.648 165.283 158.608L161.916 155.755C161.863 155.71 161.823 155.651 161.801 155.584C161.78 155.518 161.777 155.446 161.794 155.378C161.81 155.31 161.846 155.248 161.896 155.199C161.946 155.15 162.009 155.116 162.077 155.101L166.388 154.164C166.448 154.151 166.503 154.124 166.55 154.084C166.597 154.045 166.633 153.995 166.656 153.938L168.329 149.855C168.348 149.808 168.377 149.765 168.413 149.729C168.45 149.693 168.493 149.666 168.541 149.648C168.625 149.616 168.717 149.615 168.801 149.645C168.885 149.675 168.956 149.733 169.001 149.811L171.225 153.619C171.255 153.672 171.299 153.716 171.35 153.749C171.402 153.781 171.461 153.8 171.522 153.805L175.919 154.132C175.989 154.138 176.057 154.162 176.113 154.204C176.17 154.245 176.214 154.302 176.24 154.367C176.267 154.432 176.274 154.503 176.262 154.572C176.25 154.641 176.219 154.706 176.173 154.758L173.238 158.05C173.197 158.095 173.168 158.15 173.153 158.209C173.138 158.269 173.138 158.331 173.153 158.39L174.199 162.673C174.219 162.754 174.212 162.84 174.178 162.916C174.143 162.992 174.085 163.055 174.011 163.094C173.961 163.122 173.905 163.138 173.848 163.14C173.79 163.143 173.733 163.132 173.681 163.108L169.645 161.334C169.589 161.309 169.528 161.299 169.467 161.303C169.406 161.307 169.347 161.326 169.295 161.359L165.544 163.677C165.484 163.714 165.416 163.733 165.346 163.733C165.276 163.733 165.207 163.713 165.148 163.677C165.088 163.64 165.04 163.587 165.009 163.525C164.978 163.462 164.965 163.392 164.971 163.322L165.412 158.931Z" fill="#FABA59"/>
<path opacity="0.5" d="M165.412 158.931L165.432 158.734L165.283 158.608L161.917 155.755C161.863 155.71 161.823 155.651 161.801 155.584C161.78 155.518 161.777 155.446 161.794 155.378C161.811 155.31 161.846 155.248 161.896 155.199C161.946 155.15 162.009 155.116 162.077 155.101L166.388 154.164L166.582 154.122L166.657 153.938L168.329 149.855C168.348 149.808 168.377 149.765 168.413 149.729C168.45 149.693 168.493 149.666 168.541 149.648L167.67 155.418L164.063 156.188L167.018 157.949L166.105 162.1L169.91 159.532L174.011 163.094C173.961 163.122 173.905 163.138 173.848 163.14C173.79 163.143 173.733 163.132 173.681 163.108L169.645 161.334L169.464 161.254L169.295 161.359L165.544 163.677C165.484 163.714 165.416 163.733 165.346 163.733C165.276 163.733 165.207 163.713 165.148 163.677C165.088 163.64 165.04 163.587 165.009 163.525C164.978 163.462 164.965 163.392 164.971 163.322L165.412 158.931Z" fill="#BA6F0C"/>
<g clip-path="url(#clip0_147_5241)">
<path d="M67.56 11.7702C67.4945 11.7445 67.4386 11.6991 67.4 11.6402C67.3607 11.581 67.3398 11.5114 67.34 11.4402C67.3206 11.375 67.3206 11.3055 67.34 11.2403C67.3713 11.1769 67.4246 11.1271 67.49 11.1003L71.37 9.01024C71.4224 8.98134 71.467 8.94016 71.5 8.89024C71.5377 8.84059 71.5618 8.78203 71.57 8.72026L72.05 4.34025C72.05 4.28306 72.0674 4.22726 72.1 4.18028C72.138 4.12038 72.1916 4.07192 72.255 4.0402C72.3185 4.00849 72.3893 3.99466 72.46 4.00023C72.5433 4.0122 72.6205 4.05083 72.68 4.11027L75.87 7.11027C75.9106 7.15873 75.9675 7.19069 76.03 7.20024C76.0891 7.21548 76.151 7.21548 76.21 7.20024L80.52 6.30027C80.5886 6.28055 80.6614 6.28055 80.73 6.30027C80.7961 6.32499 80.8546 6.36632 80.9 6.42027C80.9421 6.47502 80.9665 6.5413 80.97 6.61027C80.9892 6.67896 80.9892 6.75155 80.97 6.82023L79.05 10.8202C79.0397 10.8764 79.0397 10.9341 79.05 10.9903C79.0501 11.0537 79.0674 11.1159 79.1 11.1703L81.28 15.0002C81.3082 15.0812 81.3082 15.1693 81.28 15.2502C81.2592 15.3399 81.2101 15.4206 81.14 15.4803L81.01 15.5503C80.9605 15.5602 80.9095 15.5602 80.86 15.5503L76.49 14.9502C76.4305 14.9398 76.3696 14.9398 76.31 14.9502C76.2531 14.9717 76.2018 15.006 76.16 15.0503L73.16 18.3202C73.1104 18.3716 73.0484 18.4095 72.98 18.4303C72.9149 18.4503 72.8452 18.4503 72.78 18.4303C72.7117 18.4095 72.6497 18.3716 72.6 18.3202C72.5564 18.2643 72.5256 18.1994 72.51 18.1302L71.79 13.8403C71.7837 13.781 71.7593 13.7252 71.72 13.6803C71.6856 13.6303 71.6368 13.5919 71.58 13.5702L67.56 11.7702Z" fill="#FABA59"/>
<path opacity="0.5" d="M67.56 11.7696C67.4945 11.7439 67.4386 11.6984 67.4 11.6396C67.3607 11.5803 67.3398 11.5107 67.34 11.4396C67.3206 11.3743 67.3206 11.3049 67.34 11.2396C67.3713 11.1762 67.4246 11.1264 67.49 11.0996L71.37 9.00958L71.54 8.91962V8.7196L72.02 4.3396C72.02 4.28241 72.0374 4.2266 72.07 4.17963C72.0993 4.13013 72.1405 4.08878 72.19 4.05957L73.19 9.38959L69.06 11.3896L73.06 12.6796L73.11 16.1196L75.58 13.3796L81.01 15.5096L80.88 15.5796C80.8305 15.5896 80.7795 15.5896 80.73 15.5796L76.36 14.9796H76.16L76.03 15.1196L73.03 18.3896C72.9804 18.441 72.9184 18.4788 72.85 18.4996C72.7849 18.5196 72.7152 18.5196 72.65 18.4996C72.5817 18.4788 72.5197 18.441 72.47 18.3896C72.4264 18.3337 72.3956 18.2688 72.38 18.1996L71.79 13.8396V13.6496L71.61 13.5696L67.56 11.7696Z" fill="#BA6F0C"/>
<path d="M48.56 19.7702C48.4945 19.7445 48.4386 19.6991 48.4 19.6402C48.3607 19.581 48.3398 19.5114 48.34 19.4402C48.3206 19.375 48.3206 19.3055 48.34 19.2403C48.3713 19.1769 48.4246 19.1271 48.49 19.1003L52.37 17.0102C52.4224 16.9813 52.467 16.9402 52.5 16.8902C52.5377 16.8406 52.5618 16.782 52.57 16.7203L53.05 12.3403C53.05 12.2831 53.0674 12.2273 53.1 12.1803C53.138 12.1204 53.1916 12.0719 53.255 12.0402C53.3185 12.0085 53.3893 11.9947 53.46 12.0002C53.5433 12.0122 53.6205 12.0508 53.68 12.1103L56.87 15.1103C56.9106 15.1587 56.9675 15.1907 57.03 15.2002C57.0891 15.2155 57.151 15.2155 57.21 15.2002L61.52 14.3003C61.5886 14.2805 61.6614 14.2805 61.73 14.3003C61.7961 14.325 61.8546 14.3663 61.9 14.4203C61.9421 14.475 61.9665 14.5413 61.97 14.6103C61.9892 14.679 61.9892 14.7515 61.97 14.8202L60.05 18.8202C60.0397 18.8764 60.0397 18.9341 60.05 18.9903C60.0501 19.0537 60.0674 19.1159 60.1 19.1703L62.28 23.0002C62.3082 23.0812 62.3082 23.1693 62.28 23.2502C62.2592 23.3399 62.2101 23.4206 62.14 23.4803L62.01 23.5503C61.9605 23.5602 61.9095 23.5602 61.86 23.5503L57.49 22.9502C57.4305 22.9398 57.3696 22.9398 57.31 22.9502C57.2531 22.9717 57.2018 23.006 57.16 23.0503L54.16 26.3202C54.1104 26.3716 54.0484 26.4095 53.98 26.4303C53.9149 26.4503 53.8452 26.4503 53.78 26.4303C53.7117 26.4095 53.6497 26.3716 53.6 26.3202C53.5564 26.2643 53.5256 26.1994 53.51 26.1302L52.79 21.8403C52.7837 21.781 52.7593 21.7252 52.72 21.6803C52.6856 21.6303 52.6368 21.5919 52.58 21.5702L48.56 19.7702Z" fill="#FABA59"/>
<path opacity="0.5" d="M48.56 19.7696C48.4945 19.7439 48.4386 19.6984 48.4 19.6396C48.3607 19.5803 48.3398 19.5107 48.34 19.4396C48.3206 19.3743 48.3206 19.3049 48.34 19.2396C48.3713 19.1762 48.4246 19.1264 48.49 19.0996L52.37 17.0096L52.54 16.9196V16.7196L53.02 12.3396C53.02 12.2824 53.0374 12.2266 53.07 12.1796C53.0993 12.1301 53.1405 12.0888 53.19 12.0596L54.19 17.3896L50.06 19.3896L54.06 20.6796L54.11 24.1196L56.58 21.3796L62.01 23.5096L61.88 23.5796C61.8305 23.5896 61.7795 23.5896 61.73 23.5796L57.36 22.9796H57.16L57.03 23.1196L54.03 26.3896C53.9804 26.441 53.9184 26.4788 53.85 26.4996C53.7849 26.5196 53.7152 26.5196 53.65 26.4996C53.5817 26.4788 53.5197 26.441 53.47 26.3896C53.4264 26.3337 53.3956 26.2688 53.38 26.1996L52.79 21.8396V21.6496L52.61 21.5696L48.56 19.7696Z" fill="#BA6F0C"/>
<path d="M30.59 32.1299C30.5215 32.118 30.4565 32.0907 30.4 32.05C30.3412 32.0114 30.2958 31.9555 30.27 31.89C30.2554 31.8241 30.2554 31.7558 30.27 31.6899C30.2834 31.62 30.3144 31.5546 30.36 31.4999L33.3 28.21C33.3401 28.1645 33.3677 28.1094 33.38 28.05C33.3998 27.9916 33.3998 27.9284 33.38 27.87L32.38 23.59C32.3652 23.5343 32.3652 23.4757 32.38 23.42C32.3924 23.3606 32.42 23.3055 32.46 23.26C32.5108 23.1954 32.5815 23.1496 32.6612 23.1296C32.7409 23.1097 32.8249 23.1169 32.9 23.15L36.9 24.92C36.9592 24.934 37.0209 24.934 37.08 24.92C37.1399 24.9107 37.1976 24.8903 37.25 24.86L41 22.54C41.0653 22.5205 41.1348 22.5205 41.2 22.54C41.2659 22.5253 41.3342 22.5253 41.4 22.54C41.4617 22.578 41.5105 22.6337 41.54 22.7C41.5601 22.7651 41.5601 22.8348 41.54 22.9L41.1 27.29C41.0856 27.3491 41.0856 27.4108 41.1 27.47C41.1241 27.5226 41.158 27.5702 41.2 27.61L44.57 30.46C44.6376 30.5202 44.6833 30.601 44.7 30.6899C44.7254 30.7713 44.7254 30.8585 44.7 30.9399C44.6749 30.9861 44.6409 31.0269 44.6 31.0599C44.5574 31.0883 44.51 31.1087 44.46 31.12L40.15 32.0599C40.0896 32.0728 40.032 32.0965 39.98 32.1299C39.9357 32.1717 39.9015 32.223 39.88 32.28L38.19 36.4C38.1607 36.4633 38.116 36.5182 38.06 36.5599C38.0037 36.606 37.9328 36.6308 37.86 36.6299C37.7949 36.65 37.7252 36.65 37.66 36.6299C37.5987 36.5971 37.547 36.5489 37.51 36.49L35.29 32.68C35.2574 32.6272 35.2129 32.5826 35.16 32.55C35.1076 32.5196 35.0499 32.4993 34.99 32.49L30.59 32.1299Z" fill="#FABA59"/>
<path opacity="0.5" d="M30.59 32.1298C30.5215 32.1178 30.4565 32.0905 30.4 32.0498C30.3412 32.0112 30.2958 31.9553 30.27 31.8898C30.2554 31.8239 30.2554 31.7556 30.27 31.6898C30.2834 31.6198 30.3144 31.5544 30.36 31.4998L33.3 28.2098L33.43 28.0598L33.38 27.8698L32.38 23.5898C32.3652 23.5341 32.3652 23.4755 32.38 23.4198C32.3924 23.3604 32.42 23.3053 32.46 23.2598L35.25 27.9198L32.06 31.2198L36.31 31.0398L37.53 34.2598L38.91 30.8398L44.75 30.9798C44.7249 31.026 44.6909 31.0668 44.65 31.0998C44.6074 31.1282 44.56 31.1485 44.51 31.1598L40.2 32.0898H40L39.93 32.2698L38.19 36.3998C38.1607 36.4631 38.116 36.518 38.06 36.5598C38.0037 36.6059 37.9328 36.6306 37.86 36.6298C37.7949 36.6498 37.7252 36.6498 37.66 36.6298C37.5987 36.5969 37.547 36.5487 37.51 36.4898L35.29 32.6798L35.19 32.5098H34.99L30.59 32.1298Z" fill="#BA6F0C"/>
<path d="M15.59 48.1299C15.5215 48.118 15.4565 48.0907 15.4 48.05C15.3412 48.0114 15.2958 47.9555 15.27 47.89C15.2554 47.8241 15.2554 47.7558 15.27 47.6899C15.2834 47.62 15.3144 47.5546 15.36 47.4999L18.3 44.21C18.3401 44.1645 18.3677 44.1094 18.38 44.05C18.3998 43.9916 18.3998 43.9284 18.38 43.87L17.38 39.59C17.3652 39.5343 17.3652 39.4757 17.38 39.42C17.3924 39.3606 17.42 39.3055 17.46 39.26C17.5108 39.1954 17.5815 39.1496 17.6612 39.1296C17.7409 39.1097 17.8249 39.1169 17.9 39.15L21.9 40.92C21.9592 40.934 22.0209 40.934 22.08 40.92C22.1399 40.9107 22.1976 40.8903 22.25 40.86L26 38.54C26.0653 38.5205 26.1348 38.5205 26.2 38.54C26.2659 38.5253 26.3342 38.5253 26.4 38.54C26.4617 38.578 26.5105 38.6337 26.54 38.7C26.5601 38.7651 26.5601 38.8348 26.54 38.9L26.1 43.29C26.0856 43.3491 26.0856 43.4108 26.1 43.47C26.1241 43.5226 26.158 43.5702 26.2 43.61L29.57 46.46C29.6376 46.5202 29.6833 46.601 29.7 46.6899C29.7254 46.7713 29.7254 46.8585 29.7 46.9399C29.6749 46.9861 29.6409 47.0269 29.6 47.0599C29.5574 47.0883 29.51 47.1087 29.46 47.12L25.15 48.0599C25.0896 48.0728 25.032 48.0965 24.98 48.1299C24.9357 48.1717 24.9015 48.223 24.88 48.28L23.19 52.4C23.1607 52.4633 23.116 52.5182 23.06 52.5599C23.0037 52.606 22.9328 52.6308 22.86 52.6299C22.7949 52.65 22.7252 52.65 22.66 52.6299C22.5987 52.5971 22.547 52.5489 22.51 52.49L20.29 48.68C20.2574 48.6272 20.2129 48.5826 20.16 48.55C20.1076 48.5196 20.0499 48.4993 19.99 48.49L15.59 48.1299Z" fill="#FABA59"/>
<path opacity="0.5" d="M15.59 48.1298C15.5215 48.1178 15.4565 48.0905 15.4 48.0498C15.3412 48.0112 15.2958 47.9553 15.27 47.8898C15.2554 47.8239 15.2554 47.7556 15.27 47.6898C15.2834 47.6198 15.3144 47.5544 15.36 47.4998L18.3 44.2098L18.43 44.0598L18.38 43.8698L17.38 39.5898C17.3652 39.5341 17.3652 39.4755 17.38 39.4198C17.3924 39.3604 17.42 39.3053 17.46 39.2598L20.25 43.9198L17.06 47.2198L21.31 47.0398L22.53 50.2598L23.91 46.8398L29.75 46.9798C29.7249 47.026 29.6909 47.0668 29.65 47.0998C29.6074 47.1282 29.56 47.1485 29.51 47.1598L25.2 48.0898H25L24.93 48.2698L23.19 52.3998C23.1607 52.4631 23.116 52.518 23.06 52.5598C23.0037 52.6059 22.9328 52.6306 22.86 52.6298C22.7949 52.6498 22.7252 52.6498 22.66 52.6298C22.5987 52.5969 22.547 52.5487 22.51 52.4898L20.29 48.6798L20.19 48.5098H19.99L15.59 48.1298Z" fill="#BA6F0C"/>
<path d="M8.58996 71.8396C8.5248 71.8597 8.45512 71.8597 8.38996 71.8396C8.32158 71.8189 8.25963 71.781 8.20997 71.7296C8.16824 71.6726 8.1377 71.6081 8.11996 71.5396C8.10461 71.4739 8.10461 71.4054 8.11996 71.3396L9.75997 67.2396C9.77479 67.1806 9.77479 67.1187 9.75997 67.0596C9.75516 66.9987 9.73446 66.9401 9.69996 66.8896L7.24996 63.2296C7.22127 63.18 7.201 63.1259 7.18996 63.0696C7.17463 63.014 7.17463 62.9553 7.18996 62.8996C7.21524 62.8176 7.26827 62.7469 7.33996 62.6996C7.40763 62.6541 7.48871 62.633 7.56996 62.6396L11.97 62.9297C12.0296 62.9392 12.0903 62.9392 12.15 62.9297C12.2033 62.8981 12.2507 62.8575 12.29 62.8096L15.02 59.3496C15.068 59.2986 15.1258 59.2578 15.19 59.2296C15.2586 59.2099 15.3314 59.2099 15.4 59.2296C15.467 59.2429 15.5291 59.274 15.58 59.3196C15.6322 59.3669 15.6674 59.4302 15.68 59.4996L16.77 63.7796C16.7823 63.839 16.8099 63.8941 16.85 63.9396C16.8951 63.9797 16.9456 64.0134 17 64.0396L21.14 65.5696C21.2207 65.6024 21.2902 65.6581 21.34 65.7296C21.3697 65.8138 21.3697 65.9055 21.34 65.9896C21.3305 66.0402 21.31 66.0879 21.28 66.1296C21.2513 66.1735 21.2138 66.211 21.17 66.2396L17.44 68.5896C17.39 68.6226 17.3489 68.6672 17.32 68.7196C17.3056 68.7754 17.3056 68.8339 17.32 68.8896L17.14 73.2996C17.1402 73.3708 17.1193 73.4403 17.08 73.4996C17.0389 73.5562 16.9837 73.601 16.92 73.6296C16.8513 73.6488 16.7787 73.6488 16.71 73.6296C16.6423 73.6185 16.5795 73.5871 16.53 73.5396L13.13 70.7296C13.086 70.6873 13.0302 70.6594 12.97 70.6496C12.9109 70.6348 12.8491 70.6348 12.79 70.6496L8.58996 71.8396Z" fill="#FABA59"/>
<path opacity="0.5" d="M8.58998 71.8404C8.52482 71.8604 8.45514 71.8604 8.38998 71.8404C8.3216 71.8196 8.25965 71.7818 8.20999 71.7304C8.16826 71.6733 8.13772 71.6089 8.11999 71.5404C8.10463 71.4746 8.10463 71.4062 8.11999 71.3404L9.75999 67.2404L9.82998 67.0604L9.71998 66.8904L7.26999 63.2304C7.2413 63.1807 7.22102 63.1267 7.20998 63.0704C7.19465 63.0147 7.19465 62.956 7.20998 62.9004L11.43 66.3204L9.55998 70.5104L13.49 68.8904L15.74 71.5004L15.87 67.8104L21.4 65.9504C21.3905 66.0009 21.37 66.0487 21.34 66.0904C21.3113 66.1343 21.2738 66.1717 21.23 66.2004L17.5 68.5504L17.34 68.6604V68.8404L17.16 73.2504C17.1602 73.3215 17.1393 73.3911 17.1 73.4504C17.0589 73.5069 17.0038 73.5518 16.94 73.5804C16.8713 73.5996 16.7987 73.5996 16.73 73.5804C16.6623 73.5692 16.5995 73.5379 16.55 73.4904L13.15 70.6804L13 70.5504H12.81L8.58998 71.8404Z" fill="#BA6F0C"/>
<path d="M5.76996 96.1105C5.71368 96.1497 5.64824 96.1739 5.57995 96.1805C5.51036 96.1792 5.44198 96.162 5.37996 96.1305C5.31864 96.0976 5.26693 96.0494 5.22996 95.9905C5.19837 95.9285 5.18127 95.8601 5.17995 95.7905L5.30996 91.3805C5.32437 91.3213 5.32437 91.2596 5.30996 91.2005C5.28106 91.1481 5.23988 91.1035 5.18996 91.0705L1.63995 88.4605C1.5924 88.4248 1.55174 88.3807 1.51996 88.3305C1.50962 88.2743 1.50962 88.2167 1.51996 88.1605C1.51849 88.0784 1.54299 87.9979 1.58996 87.9305C1.63766 87.8613 1.70864 87.8116 1.78995 87.7905L6.02995 86.5604C6.08762 86.5404 6.13924 86.506 6.17995 86.4605C6.22741 86.4215 6.26221 86.3693 6.27995 86.3104L7.65996 82.1205C7.68336 82.0538 7.72491 81.9949 7.77995 81.9505C7.83544 81.908 7.90084 81.8806 7.96995 81.8705C8.03511 81.8505 8.1048 81.8505 8.16996 81.8705C8.23373 81.8991 8.2889 81.9439 8.32995 82.0005L10.81 85.6405C10.8437 85.6959 10.8921 85.741 10.95 85.7705C11.0061 85.7808 11.0638 85.7808 11.1199 85.7705H15.53C15.6186 85.768 15.7048 85.8003 15.77 85.8605C15.8409 85.9179 15.8873 86.0001 15.9 86.0905C15.9099 86.14 15.9099 86.191 15.9 86.2405C15.8827 86.29 15.8592 86.337 15.83 86.3805L13.13 89.8705C13.0907 89.9154 13.0663 89.9712 13.06 90.0305C13.0451 90.0896 13.0451 90.1514 13.06 90.2105L14.4 94.4105C14.4148 94.4797 14.4148 94.5513 14.4 94.6205C14.3792 94.6889 14.3413 94.7508 14.29 94.8005C14.2416 94.8497 14.1783 94.8813 14.11 94.8905C14.0448 94.9105 13.9751 94.9105 13.91 94.8905L9.74995 93.4005C9.69087 93.3857 9.62905 93.3857 9.56996 93.4005C9.51131 93.409 9.45604 93.4332 9.40996 93.4705L5.76996 96.1105Z" fill="#FABA59"/>
<path opacity="0.5" d="M5.76992 96.1102C5.71364 96.1495 5.64821 96.1736 5.57992 96.1802C5.51033 96.1789 5.44194 96.1618 5.37992 96.1302C5.3186 96.0974 5.26689 96.0491 5.22992 95.9902C5.19833 95.9282 5.18124 95.8598 5.17991 95.7902L5.30992 91.3802V91.1802L5.14992 91.0702L1.59992 88.4602C1.55236 88.4245 1.5117 88.3805 1.47992 88.3302C1.46958 88.274 1.46958 88.2164 1.47992 88.1602L6.61992 89.9302L6.29992 94.5102L9.42992 91.6502L12.4299 93.3302L11.2699 89.8402L15.8299 86.2002C15.8399 86.2497 15.8399 86.3007 15.8299 86.3502C15.8127 86.3997 15.7892 86.4468 15.7599 86.4902L13.0599 89.9702L12.9399 90.1302L12.9999 90.3202L14.3399 94.5202C14.3548 94.5894 14.3548 94.661 14.3399 94.7302C14.3192 94.7986 14.2813 94.8606 14.2299 94.9102C14.1816 94.9594 14.1183 94.991 14.0499 95.0002C13.9848 95.0202 13.9151 95.0202 13.8499 95.0002L9.68992 93.5102L9.50992 93.4402L9.34992 93.5602L5.76992 96.1102Z" fill="#BA6F0C"/>
<path d="M6.79994 121.15C6.76296 121.209 6.71126 121.257 6.64994 121.29C6.58073 121.305 6.50915 121.305 6.43994 121.29C6.37075 121.283 6.30526 121.255 6.25183 121.211C6.1984 121.166 6.15944 121.107 6.13994 121.04L4.74994 116.84C4.73609 116.782 4.70467 116.729 4.65994 116.69C4.61502 116.647 4.55999 116.616 4.49994 116.6L0.269943 115.36C0.21286 115.349 0.160442 115.321 0.119941 115.28C0.0809026 115.24 0.050298 115.192 0.0299372 115.14C0.000763133 115.063 0.000763133 114.977 0.0299372 114.9C0.0545475 114.817 0.103322 114.744 0.169944 114.69L3.72994 112.09C3.77775 112.053 3.81558 112.005 3.83994 111.95C3.85398 111.891 3.85398 111.829 3.83994 111.77L3.70994 107.36C3.69048 107.295 3.69048 107.225 3.70994 107.16C3.74433 107.099 3.79671 107.05 3.85994 107.02C3.9251 107 3.99478 107 4.05994 107.02C4.12918 107.022 4.19585 107.047 4.24994 107.09L7.82994 109.66C7.87959 109.698 7.93817 109.722 7.99994 109.73C8.05902 109.745 8.12085 109.745 8.17994 109.73L12.3299 108.24C12.371 108.222 12.4153 108.213 12.4599 108.213C12.5046 108.213 12.5489 108.222 12.5899 108.24C12.674 108.267 12.7451 108.324 12.7899 108.4C12.8111 108.448 12.8278 108.499 12.8399 108.55C12.8448 108.6 12.8448 108.65 12.8399 108.7L11.4999 112.9C11.4851 112.959 11.4851 113.021 11.4999 113.08C11.512 113.142 11.5395 113.201 11.5799 113.25L14.2799 116.74C14.3192 116.796 14.3433 116.862 14.3499 116.93C14.3746 116.994 14.3746 117.066 14.3499 117.13C14.3236 117.192 14.2781 117.245 14.2199 117.28C14.1607 117.319 14.0911 117.34 14.0199 117.34H9.60994C9.55068 117.327 9.48921 117.327 9.42995 117.34C9.37755 117.369 9.33293 117.41 9.29994 117.46L6.79994 121.15Z" fill="#FABA59"/>
<path opacity="0.5" d="M6.80003 121.15C6.76306 121.209 6.71135 121.257 6.65003 121.29C6.58082 121.305 6.50924 121.305 6.44003 121.29C6.37085 121.283 6.30536 121.255 6.25192 121.211C6.19849 121.166 6.15953 121.107 6.14003 121.04L4.75003 116.84L4.69003 116.65L4.50003 116.6L0.270035 115.36C0.212952 115.35 0.160534 115.322 0.120033 115.28C0.0809948 115.24 0.0503901 115.192 0.0300293 115.14L5.46003 115.05L6.72003 119.46L8.72003 115.69L12.12 116.24L9.85004 113.33L12.85 108.33C12.8712 108.378 12.8879 108.429 12.9 108.48C12.9049 108.53 12.9049 108.58 12.9 108.63L11.55 112.83L11.49 113.02L11.62 113.18L14.32 116.67C14.3593 116.726 14.3834 116.792 14.39 116.86C14.4147 116.925 14.4147 116.996 14.39 117.06C14.3637 117.123 14.3182 117.175 14.26 117.21C14.2008 117.249 14.1312 117.27 14.06 117.27H9.65004H9.45003L9.34003 117.44L6.80003 121.15Z" fill="#BA6F0C"/>
<path d="M14.2901 145.72C14.2694 145.788 14.2315 145.85 14.1801 145.9C14.1318 145.949 14.0684 145.981 14.0001 145.99C13.9349 146.01 13.8653 146.01 13.8001 145.99C13.7326 145.968 13.6733 145.926 13.6301 145.87L10.9001 142.41C10.8634 142.362 10.8153 142.324 10.7601 142.3C10.7016 142.281 10.6386 142.281 10.5801 142.3L6.1801 142.58C6.12517 142.599 6.06503 142.599 6.0101 142.58C5.9579 142.559 5.9103 142.529 5.8701 142.49C5.81718 142.424 5.78574 142.344 5.7801 142.26C5.76983 142.178 5.79132 142.096 5.8401 142.03L8.29011 138.36C8.32045 138.307 8.34079 138.249 8.35011 138.19C8.3692 138.131 8.3692 138.068 8.35011 138.01L6.6901 133.84C6.67475 133.774 6.67475 133.705 6.6901 133.64C6.70569 133.57 6.73643 133.506 6.7801 133.45C6.82976 133.398 6.89172 133.36 6.9601 133.34C7.02526 133.32 7.09494 133.32 7.1601 133.34L11.4101 134.54C11.4685 134.559 11.5317 134.559 11.5901 134.54C11.651 134.532 11.7074 134.504 11.7501 134.46L15.1401 131.65C15.2099 131.591 15.2987 131.559 15.3901 131.56C15.4784 131.559 15.5639 131.591 15.6301 131.65C15.6687 131.682 15.6994 131.723 15.7201 131.77C15.7337 131.819 15.7337 131.871 15.7201 131.92L15.8901 136.33C15.8961 136.389 15.913 136.447 15.9401 136.5C15.9755 136.55 16.0195 136.594 16.0701 136.63L19.8001 138.99C19.8608 139.024 19.9097 139.075 19.9401 139.138C19.9705 139.2 19.981 139.271 19.9701 139.34C19.9627 139.412 19.935 139.482 19.8901 139.54C19.8458 139.59 19.7913 139.631 19.7301 139.66L15.5901 141.19C15.5325 141.209 15.4809 141.243 15.4406 141.289C15.4003 141.335 15.3725 141.39 15.3601 141.45L14.2901 145.72Z" fill="#FABA59"/>
<path opacity="0.5" d="M14.2901 145.72C14.2694 145.788 14.2315 145.85 14.1801 145.9C14.1318 145.949 14.0685 145.981 14.0001 145.99C13.935 146.01 13.8653 146.01 13.8001 145.99C13.7326 145.968 13.6733 145.926 13.6301 145.87L10.9001 142.41L10.7701 142.25H10.5801L6.18011 142.53C6.12519 142.55 6.06504 142.55 6.01012 142.53C5.95791 142.51 5.91031 142.479 5.87012 142.44L10.9401 140.44L13.6401 144.16L14.2001 139.94L17.5801 139.3L14.4601 137.3L15.6101 131.58C15.6487 131.613 15.6794 131.654 15.7001 131.7C15.7138 131.749 15.7138 131.801 15.7001 131.85L15.8701 136.26V136.45L16.0401 136.56L19.7701 138.92C19.8309 138.954 19.8797 139.006 19.9101 139.068C19.9405 139.131 19.951 139.201 19.9401 139.27C19.9328 139.343 19.905 139.412 19.8601 139.47C19.8158 139.521 19.7613 139.562 19.7001 139.59L15.5601 141.12L15.3801 141.18L15.3301 141.38L14.2901 145.72Z" fill="#BA6F0C"/>
</g>
<path d="M27.5125 164.16C27.4918 164.228 27.4539 164.29 27.4025 164.34C27.3542 164.389 27.2909 164.421 27.2225 164.43C27.1574 164.45 27.0877 164.45 27.0225 164.43C26.955 164.408 26.8957 164.366 26.8525 164.31L24.1225 160.85C24.0858 160.802 24.0377 160.764 23.9825 160.74C23.924 160.721 23.861 160.721 23.8025 160.74L19.4025 161.02C19.3476 161.04 19.2874 161.04 19.2325 161.02C19.1803 161 19.1327 160.969 19.0925 160.93C19.0396 160.864 19.0082 160.784 19.0025 160.7C18.9922 160.619 19.0137 160.536 19.0625 160.47L21.5125 156.8C21.5429 156.748 21.5632 156.69 21.5725 156.63C21.5916 156.572 21.5916 156.509 21.5725 156.45L19.9125 152.28C19.8972 152.214 19.8972 152.146 19.9125 152.08C19.9281 152.011 19.9588 151.946 20.0025 151.89C20.0522 151.839 20.1141 151.801 20.1825 151.78C20.2477 151.76 20.3174 151.76 20.3825 151.78L24.6325 152.98C24.6909 153 24.7541 153 24.8125 152.98C24.8734 152.972 24.9298 152.944 24.9725 152.9L28.3625 150.09C28.4323 150.031 28.5211 149.999 28.6125 150C28.7008 150 28.7863 150.032 28.8525 150.09C28.8911 150.123 28.9218 150.164 28.9425 150.21C28.9562 150.259 28.9562 150.311 28.9425 150.36L29.1125 154.77C29.1185 154.829 29.1354 154.887 29.1625 154.94C29.1979 154.991 29.2419 155.035 29.2925 155.07L33.0225 157.43C33.0833 157.464 33.1321 157.516 33.1625 157.578C33.1929 157.641 33.2034 157.711 33.1925 157.78C33.1852 157.853 33.1574 157.922 33.1125 157.98C33.0682 158.031 33.0137 158.072 32.9525 158.1L28.8125 159.63C28.7549 159.65 28.7033 159.684 28.663 159.73C28.6227 159.775 28.5949 159.83 28.5825 159.89L27.5125 164.16Z" fill="#FABA59"/>
<path opacity="0.5" d="M27.5125 164.16C27.4918 164.228 27.4539 164.29 27.4025 164.34C27.3542 164.389 27.2909 164.42 27.2225 164.43C27.1574 164.45 27.0877 164.45 27.0225 164.43C26.955 164.408 26.8957 164.366 26.8525 164.31L24.1225 160.85L23.9925 160.69H23.8025L19.4025 160.97C19.3476 160.989 19.2875 160.989 19.2325 160.97C19.1803 160.949 19.1327 160.919 19.0925 160.88L24.1625 158.88L26.8625 162.6L27.4225 158.38L30.8025 157.74L27.6825 155.74L28.8325 150.02C28.8711 150.052 28.9018 150.093 28.9225 150.14C28.9362 150.189 28.9362 150.24 28.9225 150.29L29.0925 154.7V154.89L29.2625 155L32.9925 157.36C33.0533 157.393 33.1021 157.445 33.1325 157.508C33.1629 157.57 33.1734 157.641 33.1625 157.71C33.1552 157.782 33.1274 157.852 33.0825 157.91C33.0382 157.96 32.9837 158.001 32.9225 158.03L28.7825 159.56L28.6025 159.62L28.5525 159.82L27.5125 164.16Z" fill="#BA6F0C"/>
<defs>
<clipPath id="clip0_147_5241">
<rect width="81.32" height="142" fill="white" transform="translate(0 4)"/>
</clipPath>
</defs>
</svg>
