<svg width="200" height="200" viewBox="0 0 200 200" fill="none" xmlns="http://www.w3.org/2000/svg">
<path d="M35.5469 70.3125C22.6266 70.3125 12.1094 59.8012 12.1094 46.875C12.1094 33.9488 22.6266 23.4375 35.5469 23.4375C48.4672 23.4375 58.9844 33.9488 58.9844 46.875C58.9844 59.8012 48.4672 70.3125 35.5469 70.3125Z" fill="#80BFFF"/>
<path d="M164.453 70.3125C151.533 70.3125 141.016 59.8012 141.016 46.875C141.016 33.9488 151.533 23.4375 164.453 23.4375C177.373 23.4375 187.891 33.9488 187.891 46.875C187.891 59.8012 177.373 70.3125 164.453 70.3125Z" fill="#6699FF"/>
<path d="M47.2656 200H23.8281C20.8184 200 18.3008 197.717 18.0031 194.724L12.6703 140.625H5.85938C2.6207 140.625 0 138.004 0 134.766V105.469C0 86.0824 16.1605 70.3125 35.5469 70.3125C54.9332 70.3125 70.7031 86.0824 70.7031 105.469V134.766C70.7031 138.004 68.0824 140.625 64.8438 140.625H58.4234L53.0906 194.724C52.793 197.717 50.2754 200 47.2656 200Z" fill="#80BFFF"/>
<path d="M176.172 200H152.734C149.725 200 147.207 197.717 146.909 194.724L141.577 140.625H135.156C131.918 140.625 129.297 138.004 129.297 134.766V105.469C129.297 86.0824 145.067 70.3125 164.453 70.3125C183.839 70.3125 200 86.0824 200 105.469V134.766C200 138.004 197.379 140.625 194.141 140.625H187.33L181.997 194.724C181.699 197.717 179.182 200 176.172 200Z" fill="#6699FF"/>
<path d="M105.859 59.0621L100 82.0313L94.1406 59.0621C74.3359 61.8746 58.9844 78.984 58.9844 99.6094V134.766C58.9844 138.047 61.5621 140.625 64.8438 140.625H77.9688L82.4219 194.609C82.6566 197.656 85.2344 200 88.2812 200H111.719C114.766 200 117.343 197.656 117.578 194.609L122.031 140.625H135.156C138.438 140.625 139.062 138.047 139.062 134.766V99.6094C139.062 78.9844 125.664 61.8746 105.859 59.0621Z" fill="#99EEFF"/>
<path d="M100 58.5938C83.841 58.5938 70.7031 45.4504 70.7031 29.2969C70.7031 13.1434 83.841 0 100 0C116.159 0 129.297 13.1434 129.297 29.2969C129.297 45.4504 116.159 58.5938 100 58.5938Z" fill="#99EEFF"/>
<path d="M111.719 200C114.766 200 117.343 197.656 117.578 194.609L122.031 140.625H135.156C138.438 140.625 141.016 138.047 141.016 134.766V99.6094C141.016 78.9844 125.664 61.8746 105.859 59.0621L100 82.0313V200H111.719Z" fill="#80BFFF"/>
<path d="M129.297 29.2969C129.297 13.1434 116.159 0 100 0V58.5938C116.159 58.5938 129.297 45.4504 129.297 29.2969Z" fill="#80BFFF"/>
<path d="M105.859 59.0621V99.6094C105.859 102.89 103.282 105.469 100 105.469C96.7184 105.469 94.1406 102.89 94.1406 99.6094V59.0621C96.0152 58.7109 98.0082 58.5938 100 58.5938C101.992 58.5938 103.985 58.7109 105.859 59.0621Z" fill="#47568C"/>
<path d="M105.859 99.6094V59.0621C103.985 58.7109 101.992 58.5938 100 58.5938V105.469C103.282 105.469 105.859 102.89 105.859 99.6094Z" fill="#29376D"/>
</svg>
