<svg width="30" height="30" viewBox="0 0 30 30" fill="none" xmlns="http://www.w3.org/2000/svg">
<g clip-path="url(#clip0_1216_24787)">
<path d="M15.0173 13.1156H14.9777C11.3617 13.1156 8.41992 10.1738 8.41992 6.55782C8.41992 2.94186 11.3617 0 14.9777 0H15.0172C18.6333 0 21.5751 2.94186 21.5751 6.55782C21.5751 10.1738 18.6333 13.1156 15.0173 13.1156ZM14.9777 1.92308C12.422 1.92308 10.3429 4.00224 10.3429 6.55782C10.3429 9.1134 12.4221 11.1926 14.9777 11.1926H15.0172C17.5729 11.1926 19.652 9.1134 19.652 6.55782C19.652 4.00224 17.5729 1.92308 15.0173 1.92308H14.9777Z" fill="#1AACFF"/>
<path d="M24.0375 29.9995H17.7946V28.0765H23.9734V17.1754L20.7434 16.0031L15.7279 21.8338C15.3514 22.2717 14.6466 22.2717 14.27 21.8338L9.25458 16.0031L6.02464 17.1754V28.0765H12.1785V29.9995H5.96054C4.93547 29.9995 4.10156 29.1656 4.10156 28.1406V17.1305C4.10156 16.3512 4.59374 15.649 5.32631 15.3831L9.22252 13.9689C9.59804 13.8325 10.0189 13.9428 10.2796 14.2457L14.999 19.7324L19.7185 14.2457C19.9791 13.9427 20.3999 13.8326 20.7755 13.9689L24.6717 15.3831C25.4042 15.6489 25.8964 16.3512 25.8964 17.1305V28.1406C25.8964 29.1656 25.0625 29.9995 24.0375 29.9995Z" fill="#1AACFF"/>
<path d="M13.9863 28.0767H16.2136V29.9998H13.9863V28.0767Z" fill="#1AACFF"/>
</g>
<defs>
<clipPath id="clip0_1216_24787">
<rect width="30" height="30" fill="white"/>
</clipPath>
</defs>
</svg>
