<svg width="80" height="80" viewBox="0 0 80 80" fill="none" xmlns="http://www.w3.org/2000/svg">
<g clip-path="url(#clip0)">
<path d="M45.9844 18.2188C44.0469 17.6875 42.0312 17.4219 40 17.4219C27.5469 17.4219 17.4219 27.5469 17.4219 40C17.4219 52.4531 27.5469 62.5781 40 62.5781C52.4531 62.5781 62.5781 52.4531 62.5781 40C62.5781 37.9688 62.3125 35.9531 61.7812 34.0156C61.4219 32.6875 62.2031 31.3125 63.5312 30.9375C64.8594 30.5781 66.2344 31.3594 66.6094 32.6875C67.2656 35.0625 67.5938 37.5156 67.5938 39.9844C67.5938 55.1875 55.2188 67.5625 40.0156 67.5625C24.8125 67.5625 12.4219 55.2031 12.4219 40C12.4219 24.7969 24.7969 12.4219 40 12.4219C42.4844 12.4219 44.9375 12.75 47.2969 13.4062C48.4062 13.7031 49.1406 14.7188 49.1406 15.8125C49.1406 16.0312 49.1094 16.25 49.0469 16.4688C48.6875 17.8125 47.3125 18.5938 45.9844 18.2188ZM75.25 26.9375C73.9219 27.3281 73.1719 28.7188 73.5625 30.0469C74.5156 33.2656 75 36.6094 75 40C75 59.2969 59.2969 75 40 75C20.7031 75 5 59.2969 5 40C5 20.7031 20.7031 5 40 5C43.3906 5 46.7344 5.48438 49.9531 6.4375C51.2812 6.82812 52.6719 6.07812 53.0625 4.75C53.125 4.51562 53.1719 4.28125 53.1719 4.04688C53.1719 2.96875 52.4688 1.96875 51.375 1.65625C47.6875 0.546875 43.875 0 40 0C29.3125 0 19.2656 4.15625 11.7188 11.7188C4.15625 19.2656 0 29.3125 0 40C0 50.6875 4.15625 60.7344 11.7188 68.2812C19.2812 75.8281 29.3125 80 40 80C50.6875 80 60.7344 75.8438 68.2812 68.2812C75.8438 60.7188 80 50.6875 80 40C80 36.1406 79.4531 32.3125 78.3594 28.625C77.9688 27.3125 76.5781 26.5469 75.25 26.9375ZM52.7656 23.7031L54.0156 11.2188C54.0781 10.6406 54.3281 10.1094 54.7344 9.70312L63.6875 0.75C64.375 0.0625 65.4062 -0.171875 66.3281 0.171875C67.25 0.515625 67.875 1.34375 67.9531 2.32812L68.6562 11.3594L77.6875 12.0625C78.6562 12.1406 79.5 12.7812 79.8438 13.6875C80.1875 14.6094 79.9531 15.625 79.2656 16.3281L70.3125 25.2656C69.9062 25.6719 69.375 25.9219 68.7969 25.9844L56.3125 27.2344L41.7812 41.7656C41.2969 42.25 40.6562 42.5 40.0156 42.5C39.375 42.5 38.7344 42.25 38.25 41.7656C37.2812 40.7969 37.2812 39.2031 38.25 38.2344L52.7656 23.7031ZM57.9531 22.0469L67.4062 21.1094L71.8906 16.625L66.125 16.1719C64.9062 16.0781 63.9219 15.0938 63.8281 13.875L63.375 8.10938L58.8906 12.5938L57.9531 22.0469Z" fill="#2F344C"/>
</g>
<defs>
<clipPath id="clip0">
<rect width="80" height="80" fill="white"/>
</clipPath>
</defs>
</svg>
