<svg width="150" height="104" viewBox="0 0 150 104" fill="none" xmlns="http://www.w3.org/2000/svg">
<path d="M63.2812 35.1562H72.6562C73.2779 35.1562 73.874 34.9093 74.3135 34.4698C74.7531 34.0302 75 33.4341 75 32.8125V18.75C75 18.1284 74.7531 17.5323 74.3135 17.0927C73.874 16.6532 73.2779 16.4062 72.6562 16.4062H63.2812C62.6596 16.4062 62.0635 16.6532 61.624 17.0927C61.1844 17.5323 60.9375 18.1284 60.9375 18.75V32.8125C60.9375 33.4341 61.1844 34.0302 61.624 34.4698C62.0635 34.9093 62.6596 35.1562 63.2812 35.1562ZM65.625 21.0938H70.3125V30.4688H65.625V21.0938Z" fill="#EFF1F3"/>
<path d="M82.0312 35.1562H91.4062C92.0279 35.1562 92.624 34.9093 93.0635 34.4698C93.5031 34.0302 93.75 33.4341 93.75 32.8125V18.75C93.75 18.1284 93.5031 17.5323 93.0635 17.0927C92.624 16.6532 92.0279 16.4062 91.4062 16.4062H82.0312C81.4096 16.4062 80.8135 16.6532 80.374 17.0927C79.9344 17.5323 79.6875 18.1284 79.6875 18.75V32.8125C79.6875 33.4341 79.9344 34.0302 80.374 34.4698C80.8135 34.9093 81.4096 35.1562 82.0312 35.1562ZM84.375 21.0938H89.0625V30.4688H84.375V21.0938Z" fill="#EFF1F3"/>
<path d="M100.781 35.1562H110.156C110.778 35.1562 111.374 34.9093 111.814 34.4698C112.253 34.0302 112.5 33.4341 112.5 32.8125V18.75C112.5 18.1284 112.253 17.5323 111.814 17.0927C111.374 16.6532 110.778 16.4062 110.156 16.4062H100.781C100.16 16.4062 99.5635 16.6532 99.124 17.0927C98.6844 17.5323 98.4375 18.1284 98.4375 18.75V32.8125C98.4375 33.4341 98.6844 34.0302 99.124 34.4698C99.5635 34.9093 100.16 35.1562 100.781 35.1562ZM103.125 21.0938H107.812V30.4688H103.125V21.0938Z" fill="#EFF1F3"/>
<path d="M63.2812 58.5938H72.6562C73.2779 58.5938 73.874 58.3468 74.3135 57.9073C74.7531 57.4677 75 56.8716 75 56.25V42.1875C75 41.5659 74.7531 40.9698 74.3135 40.5302C73.874 40.0907 73.2779 39.8438 72.6562 39.8438H63.2812C62.6596 39.8438 62.0635 40.0907 61.624 40.5302C61.1844 40.9698 60.9375 41.5659 60.9375 42.1875V56.25C60.9375 56.8716 61.1844 57.4677 61.624 57.9073C62.0635 58.3468 62.6596 58.5938 63.2812 58.5938ZM65.625 44.5312H70.3125V53.9062H65.625V44.5312Z" fill="#EFF1F3"/>
<path d="M82.0312 58.5938H91.4062C92.0279 58.5938 92.624 58.3468 93.0635 57.9073C93.5031 57.4677 93.75 56.8716 93.75 56.25V42.1875C93.75 41.5659 93.5031 40.9698 93.0635 40.5302C92.624 40.0907 92.0279 39.8438 91.4062 39.8438H82.0312C81.4096 39.8438 80.8135 40.0907 80.374 40.5302C79.9344 40.9698 79.6875 41.5659 79.6875 42.1875V56.25C79.6875 56.8716 79.9344 57.4677 80.374 57.9073C80.8135 58.3468 81.4096 58.5938 82.0312 58.5938ZM84.375 44.5312H89.0625V53.9062H84.375V44.5312Z" fill="#EFF1F3"/>
<path d="M100.781 58.5938H110.156C110.778 58.5938 111.374 58.3468 111.814 57.9073C112.253 57.4677 112.5 56.8716 112.5 56.25V42.1875C112.5 41.5659 112.253 40.9698 111.814 40.5302C111.374 40.0907 110.778 39.8438 110.156 39.8438H100.781C100.16 39.8438 99.5635 40.0907 99.124 40.5302C98.6844 40.9698 98.4375 41.5659 98.4375 42.1875V56.25C98.4375 56.8716 98.6844 57.4677 99.124 57.9073C99.5635 58.3468 100.16 58.5938 100.781 58.5938ZM103.125 44.5312H107.812V53.9062H103.125V44.5312Z" fill="#EFF1F3"/>
<path d="M44.5312 35.1562H53.9062C54.5279 35.1562 55.124 34.9093 55.5635 34.4698C56.0031 34.0302 56.25 33.4341 56.25 32.8125V18.75C56.25 18.1284 56.0031 17.5323 55.5635 17.0927C55.124 16.6532 54.5279 16.4062 53.9062 16.4062H44.5312C43.9096 16.4062 43.3135 16.6532 42.874 17.0927C42.4344 17.5323 42.1875 18.1284 42.1875 18.75V32.8125C42.1875 33.4341 42.4344 34.0302 42.874 34.4698C43.3135 34.9093 43.9096 35.1562 44.5312 35.1562ZM46.875 21.0938H51.5625V30.4688H46.875V21.0938Z" fill="#EFF1F3"/>
<path d="M44.5312 58.5938H53.9062C54.5279 58.5938 55.124 58.3468 55.5635 57.9073C56.0031 57.4677 56.25 56.8716 56.25 56.25V42.1875C56.25 41.5659 56.0031 40.9698 55.5635 40.5302C55.124 40.0907 54.5279 39.8438 53.9062 39.8438H44.5312C43.9096 39.8438 43.3135 40.0907 42.874 40.5302C42.4344 40.9698 42.1875 41.5659 42.1875 42.1875V56.25C42.1875 56.8716 42.4344 57.4677 42.874 57.9073C43.3135 58.3468 43.9096 58.5938 44.5312 58.5938ZM46.875 44.5312H51.5625V53.9062H46.875V44.5312Z" fill="#EFF1F3"/>
<path d="M63.2812 82.0312H72.6562C73.2779 82.0312 73.874 81.7843 74.3135 81.3448C74.7531 80.9052 75 80.3091 75 79.6875V65.625C75 65.0034 74.7531 64.4073 74.3135 63.9677C73.874 63.5282 73.2779 63.2812 72.6562 63.2812H63.2812C62.6596 63.2812 62.0635 63.5282 61.624 63.9677C61.1844 64.4073 60.9375 65.0034 60.9375 65.625V79.6875C60.9375 80.3091 61.1844 80.9052 61.624 81.3448C62.0635 81.7843 62.6596 82.0312 63.2812 82.0312ZM65.625 67.9688H70.3125V77.3438H65.625V67.9688Z" fill="#EFF1F3"/>
<path d="M44.5312 82.0312H53.9062C54.5279 82.0312 55.124 81.7843 55.5635 81.3448C56.0031 80.9052 56.25 80.3091 56.25 79.6875V65.625C56.25 65.0034 56.0031 64.4073 55.5635 63.9677C55.124 63.5282 54.5279 63.2812 53.9062 63.2812H44.5312C43.9096 63.2812 43.3135 63.5282 42.874 63.9677C42.4344 64.4073 42.1875 65.0034 42.1875 65.625V79.6875C42.1875 80.3091 42.4344 80.9052 42.874 81.3448C43.3135 81.7843 43.9096 82.0312 44.5312 82.0312ZM46.875 67.9688H51.5625V77.3438H46.875V67.9688Z" fill="#EFF1F3"/>
<path d="M82.0312 82.0312H91.4062C92.0279 82.0312 92.624 81.7843 93.0635 81.3448C93.5031 80.9052 93.75 80.3091 93.75 79.6875V65.625C93.75 65.0034 93.5031 64.4073 93.0635 63.9677C92.624 63.5282 92.0279 63.2812 91.4062 63.2812H82.0312C81.4096 63.2812 80.8135 63.5282 80.374 63.9677C79.9344 64.4073 79.6875 65.0034 79.6875 65.625V79.6875C79.6875 80.3091 79.9344 80.9052 80.374 81.3448C80.8135 81.7843 81.4096 82.0312 82.0312 82.0312ZM84.375 67.9688H89.0625V77.3438H84.375V67.9688Z" fill="#EFF1F3"/>
<path d="M100.781 82.0312H110.156C110.778 82.0312 111.374 81.7843 111.814 81.3448C112.253 80.9052 112.5 80.3091 112.5 79.6875V65.625C112.5 65.0034 112.253 64.4073 111.814 63.9677C111.374 63.5282 110.778 63.2812 110.156 63.2812H100.781C100.16 63.2812 99.5635 63.5282 99.124 63.9677C98.6844 64.4073 98.4375 65.0034 98.4375 65.625V79.6875C98.4375 80.3091 98.6844 80.9052 99.124 81.3448C99.5635 81.7843 100.16 82.0312 100.781 82.0312ZM103.125 67.9688H107.812V77.3438H103.125V67.9688Z" fill="#EFF1F3"/>
<path d="M63.2812 105.469H72.6562C73.2779 105.469 73.874 105.222 74.3135 104.782C74.7531 104.343 75 103.747 75 103.125V89.0625C75 88.4409 74.7531 87.8448 74.3135 87.4052C73.874 86.9657 73.2779 86.7188 72.6562 86.7188H63.2812C62.6596 86.7188 62.0635 86.9657 61.624 87.4052C61.1844 87.8448 60.9375 88.4409 60.9375 89.0625V103.125C60.9375 103.747 61.1844 104.343 61.624 104.782C62.0635 105.222 62.6596 105.469 63.2812 105.469ZM65.625 91.4062H70.3125V100.781H65.625V91.4062Z" fill="#EFF1F3"/>
<path d="M44.5312 105.469H53.9062C54.5279 105.469 55.124 105.222 55.5635 104.782C56.0031 104.343 56.25 103.747 56.25 103.125V89.0625C56.25 88.4409 56.0031 87.8448 55.5635 87.4052C55.124 86.9657 54.5279 86.7188 53.9062 86.7188H44.5312C43.9096 86.7188 43.3135 86.9657 42.874 87.4052C42.4344 87.8448 42.1875 88.4409 42.1875 89.0625V103.125C42.1875 103.747 42.4344 104.343 42.874 104.782C43.3135 105.222 43.9096 105.469 44.5312 105.469ZM46.875 91.4062H51.5625V100.781H46.875V91.4062Z" fill="#EFF1F3"/>
<path d="M82.0312 105.469H91.4062C92.0279 105.469 92.624 105.222 93.0635 104.782C93.5031 104.343 93.75 103.747 93.75 103.125V89.0625C93.75 88.4409 93.5031 87.8448 93.0635 87.4052C92.624 86.9657 92.0279 86.7188 91.4062 86.7188H82.0312C81.4096 86.7188 80.8135 86.9657 80.374 87.4052C79.9344 87.8448 79.6875 88.4409 79.6875 89.0625V103.125C79.6875 103.747 79.9344 104.343 80.374 104.782C80.8135 105.222 81.4096 105.469 82.0312 105.469ZM84.375 91.4062H89.0625V100.781H84.375V91.4062Z" fill="#EFF1F3"/>
<path d="M100.781 105.469H110.156C110.778 105.469 111.374 105.222 111.814 104.782C112.253 104.343 112.5 103.747 112.5 103.125V89.0625C112.5 88.4409 112.253 87.8448 111.814 87.4052C111.374 86.9657 110.778 86.7188 110.156 86.7188H100.781C100.16 86.7188 99.5635 86.9657 99.124 87.4052C98.6844 87.8448 98.4375 88.4409 98.4375 89.0625V103.125C98.4375 103.747 98.6844 104.343 99.124 104.782C99.5635 105.222 100.16 105.469 100.781 105.469ZM103.125 91.4062H107.812V100.781H103.125V91.4062Z" fill="#EFF1F3"/>
<path d="M142.969 91.4062H121.875V9.375C121.875 8.7534 121.629 8.15726 121.189 7.71772C120.749 7.27818 120.153 7.03125 119.532 7.03125H35.1567C34.5351 7.03125 33.939 7.27818 33.4994 7.71772C33.0599 8.15726 32.813 8.7534 32.813 9.375V93.4781C30.8423 92.2105 28.5663 91.4974 26.2246 91.414C23.8829 91.3306 21.5619 91.8799 19.5061 93.0042C17.4502 94.1284 15.7353 95.786 14.5419 97.8026C13.3486 99.8191 12.7208 102.12 12.7247 104.463C12.7271 105.765 12.9287 107.059 13.3223 108.3C10.4315 109.336 7.99958 111.36 6.45571 114.015C4.91184 116.669 4.35526 119.784 4.88419 122.809C5.41312 125.834 6.99356 128.575 9.34661 130.548C11.6997 132.521 14.6741 133.6 17.745 133.594C19.7232 133.582 21.6718 133.112 23.438 132.22V140.625C23.438 141.247 23.6849 141.843 24.1244 142.282C24.564 142.722 25.1601 142.969 25.7817 142.969C26.4033 142.969 26.9994 142.722 27.439 142.282C27.8785 141.843 28.1255 141.247 28.1255 140.625V132.22C29.5916 132.944 31.1827 133.381 32.813 133.507V140.625C32.813 141.247 33.0599 141.843 33.4994 142.282C33.939 142.722 34.5351 142.969 35.1567 142.969H138.282C138.903 142.969 139.499 142.722 139.939 142.282C140.379 141.843 140.625 141.247 140.625 140.625V105.469H142.969C143.591 105.469 144.187 105.222 144.626 104.782C145.066 104.343 145.313 103.747 145.313 103.125V93.75C145.313 93.1284 145.066 92.5323 144.626 92.0927C144.187 91.6532 143.591 91.4062 142.969 91.4062ZM25.7817 119.531C25.1601 119.531 24.564 119.778 24.1244 120.218C23.6849 120.657 23.438 121.253 23.438 121.875V126.562C21.9184 128.056 19.8756 128.897 17.745 128.906C15.6025 128.915 13.539 128.098 11.9821 126.626C10.4253 125.154 9.49446 123.14 9.38266 121C9.27086 118.861 9.98662 116.76 11.3816 115.134C12.7766 113.508 14.7438 112.481 16.8755 112.266C17.2663 112.224 17.6404 112.084 17.9633 111.86C18.2861 111.635 18.5473 111.333 18.7228 110.982C18.8984 110.63 18.9826 110.24 18.9678 109.847C18.9529 109.454 18.8395 109.071 18.638 108.734C17.8497 107.448 17.4297 105.971 17.4239 104.463C17.4239 102.244 18.3057 100.115 19.8753 98.5451C21.4449 96.9755 23.5737 96.0938 25.7934 96.0938C28.0132 96.0938 30.142 96.9755 31.7116 98.5451C33.2812 100.115 34.163 102.244 34.163 104.463C34.1571 105.971 33.7372 107.448 32.9489 108.734C32.7473 109.071 32.6339 109.454 32.6191 109.847C32.6043 110.24 32.6885 110.63 32.864 110.982C33.0396 111.333 33.3008 111.635 33.6236 111.86C33.9464 112.084 34.3205 112.224 34.7114 112.266C36.8442 112.481 38.8124 113.508 40.2075 115.136C41.6027 116.763 42.3178 118.865 42.2044 121.006C42.0911 123.147 41.158 125.162 39.5987 126.632C38.0394 128.103 35.9737 128.918 33.8301 128.906C31.6955 128.9 29.6479 128.059 28.1255 126.562V121.875C28.1255 121.253 27.8785 120.657 27.439 120.218C26.9994 119.778 26.4033 119.531 25.7817 119.531ZM89.063 138.281H65.6255V114.844H89.063V138.281ZM117.188 138.281H93.7505V112.5C93.7505 111.878 93.5035 111.282 93.064 110.843C92.6244 110.403 92.0283 110.156 91.4067 110.156H63.2817C62.6601 110.156 62.064 110.403 61.6244 110.843C61.1849 111.282 60.938 111.878 60.938 112.5V138.281H37.5005V133.057C40.1408 132.287 42.4695 130.7 44.1524 128.525C45.8354 126.349 46.7861 123.697 46.8684 120.948C46.9506 118.198 46.1601 115.494 44.6102 113.222C43.0603 110.95 40.8307 109.227 38.2411 108.3C38.6347 107.059 38.8363 105.765 38.8387 104.463C38.8367 102.479 38.3789 100.522 37.5005 98.7422V11.7188H117.188V138.281ZM135.938 138.281H121.875V105.469H135.938V138.281ZM140.625 100.781H121.875V96.0938H140.625V100.781Z" fill="#EFF1F3"/>
</svg>
