<svg width="19" height="19" viewBox="0 0 19 19" fill="none" xmlns="http://www.w3.org/2000/svg">
<path d="M2.33177 12.0004C2.31355 11.9714 2.28833 11.9477 2.25853 11.9316C2.22872 11.9154 2.19534 11.9073 2.16159 11.9081C2.12817 11.9093 2.09558 11.9191 2.06681 11.9365C2.03805 11.9539 2.01402 11.9783 1.99692 12.0076L0.105996 15.3297C0.0310673 15.4616 -0.00546747 15.6124 0.000662058 15.7646C0.00679158 15.9168 0.0553321 16.0641 0.14061 16.1892C0.225888 16.3144 0.34438 16.4122 0.482235 16.4713C0.62009 16.5304 0.771614 16.5483 0.919094 16.523L2.80293 16.198L3.45924 18.034C3.51025 18.1768 3.60004 18.3019 3.71816 18.3948C3.83627 18.4877 3.97786 18.5445 4.12643 18.5586C4.27501 18.5727 4.42447 18.5436 4.55742 18.4746C4.69037 18.4056 4.80135 18.2995 4.87743 18.1688L6.43272 15.4886C6.44755 15.4631 6.45666 15.4347 6.4594 15.4052C6.46215 15.3757 6.45845 15.346 6.44859 15.3182C6.43872 15.2903 6.42293 15.265 6.40234 15.2442C6.38175 15.2233 6.35688 15.2073 6.32951 15.1973C4.69472 14.596 3.29315 13.4752 2.33177 12.0004Z" fill="#30B4FF"/>
<path d="M18.018 15.3316L16.1176 11.9886C16.1007 11.9591 16.0768 11.9344 16.0479 11.9169C16.0191 11.8994 15.9863 11.8898 15.9528 11.8888C15.9193 11.8878 15.886 11.8956 15.8563 11.9114C15.8265 11.9272 15.8012 11.9504 15.7827 11.979C14.8237 13.4572 13.4236 14.5825 11.7889 15.1888C11.7617 15.1987 11.737 15.2146 11.7166 15.2354C11.6961 15.2563 11.6805 15.2814 11.6708 15.3091C11.661 15.3369 11.6573 15.3666 11.6601 15.396C11.6628 15.4254 11.6718 15.4538 11.6865 15.4793L13.2473 18.1699C13.3236 18.3005 13.4348 18.4065 13.5678 18.4753C13.7009 18.5441 13.8505 18.573 13.9991 18.5587C14.1477 18.5443 14.2892 18.4872 14.4072 18.3941C14.5252 18.301 14.6148 18.1756 14.6655 18.0327L15.321 16.1975L17.2057 16.5224C17.3532 16.5478 17.5048 16.5298 17.6426 16.4706C17.7805 16.4114 17.8989 16.3134 17.9841 16.1882C18.0693 16.0629 18.1178 15.9155 18.1238 15.7633C18.1298 15.611 18.0931 15.4602 18.018 15.3284V15.3316Z" fill="#30B4FF"/>
<path d="M15.9452 7.45892C15.9452 6.07022 15.5409 4.7127 14.7834 3.55803C14.0259 2.40336 12.9492 1.50341 11.6895 0.971977C10.4297 0.440542 9.04358 0.301495 7.70628 0.572418C6.36897 0.843341 5.14058 1.51207 4.17644 2.49403C3.21229 3.47599 2.5557 4.72709 2.2897 6.08911C2.02369 7.45113 2.16021 8.86291 2.682 10.1459C3.2038 11.4289 4.08742 12.5255 5.22113 13.297C6.35484 14.0685 7.68773 14.4803 9.05123 14.4803C10.8789 14.478 12.6311 13.7375 13.9235 12.4212C15.2159 11.105 15.9429 9.3204 15.9452 7.45892ZM11.8025 10.2065C11.8383 10.2988 11.8452 10.4 11.8223 10.4964C11.7994 10.5928 11.7478 10.6797 11.6746 10.7451C11.6014 10.8105 11.5101 10.8513 11.4133 10.8619C11.3165 10.8725 11.2188 10.8524 11.1336 10.8043L9.14814 9.66485C9.11855 9.64791 9.08518 9.63901 9.05123 9.63901C9.01729 9.63901 8.98391 9.64791 8.95432 9.66485L6.96885 10.8043C6.88367 10.8524 6.78599 10.8725 6.68916 10.8619C6.59233 10.8513 6.50107 10.8105 6.42787 10.7451C6.35467 10.6797 6.30309 10.5928 6.28019 10.4964C6.2573 10.4 6.26419 10.2988 6.29993 10.2065L7.1083 8.31353C7.12397 8.27628 7.1283 8.2351 7.12071 8.19533C7.11312 8.15555 7.09398 8.11901 7.06576 8.09045L5.60659 6.62518C5.53933 6.56401 5.49216 6.48326 5.47148 6.39387C5.45079 6.30448 5.4576 6.21078 5.49097 6.12546C5.52434 6.04014 5.58266 5.96734 5.65803 5.91692C5.73339 5.8665 5.82216 5.8409 5.91229 5.84359H7.58104C7.61804 5.8436 7.65429 5.83298 7.68564 5.81297C7.71699 5.79296 7.74218 5.76436 7.75831 5.73045L8.62499 3.9105C8.66443 3.83101 8.72475 3.76422 8.79923 3.71756C8.87372 3.6709 8.95945 3.64619 9.0469 3.64619C9.13435 3.64619 9.22008 3.6709 9.29456 3.71756C9.36905 3.76422 9.42937 3.83101 9.46881 3.9105L10.3402 5.72965C10.3563 5.76356 10.3815 5.79216 10.4129 5.81217C10.4442 5.83218 10.4805 5.84279 10.5175 5.84279H12.1862C12.2767 5.83923 12.366 5.8642 12.4421 5.91429C12.5181 5.96439 12.577 6.03716 12.6109 6.12268C12.6448 6.20819 12.6519 6.30227 12.6313 6.39207C12.6107 6.48186 12.5634 6.56299 12.4959 6.62438L11.0336 8.09045C11.0051 8.11889 10.9859 8.15543 10.9783 8.19526C10.9707 8.23509 10.9751 8.27632 10.991 8.31353L11.8025 10.2065Z" fill="#30B4FF"/>
</svg>
