<?xml version="1.0" encoding="utf-8"?>
<!-- Generator: Adobe Illustrator 22.0.0, SVG Export Plug-In . SVG Version: 6.00 Build 0)  -->
<svg version="1.1" id="Слой_1" xmlns="http://www.w3.org/2000/svg" xmlns:xlink="http://www.w3.org/1999/xlink" x="0px" y="0px"
	 viewBox="0 0 1600 192" style="enable-background:new 0 0 1600 192;" xml:space="preserve">
<style type="text/css">
	.st0{opacity:0.5;clip-path:url(#SVGID_2_);}
	.st1{fill:#A3A5B0;}
</style>
<defs>
	<rect id="SVGID_1_" x="1" y="-33" width="1600" height="224"/>
</defs>
<clipPath id="SVGID_2_">
	<use xlink:href="#SVGID_1_"  style="overflow:visible;"/>
</clipPath>
<g class="st0">
	<path class="st1" d="M255.4,180.7h11.5c0.6,0,1-0.4,1-1v-18c0-0.6-0.4-1-1-1h-11.5c-0.6,0-1,0.4-1,1v18
		C254.4,180.3,254.9,180.7,255.4,180.7z M256.4,178.7v-12h9.5v12H256.4z M265.9,162.7v2h-9.5v-2H265.9z"/>
	<path class="st1" d="M271.9,180.7h11.5c0.6,0,1-0.4,1-1v-18c0-0.6-0.4-1-1-1h-11.5c-0.6,0-1,0.4-1,1v18
		C270.9,180.3,271.4,180.7,271.9,180.7z M272.9,178.7v-12h9.5v12H272.9z M282.4,162.7v2h-9.5v-2H282.4z"/>
	<path class="st1" d="M327.3,180.7h11.5c0.6,0,1-0.4,1-1v-18c0-0.6-0.4-1-1-1h-11.5c-0.6,0-1,0.4-1,1v18
		C326.3,180.3,326.8,180.7,327.3,180.7z M328.3,178.7v-12h9.5v12H328.3z M337.8,162.7v2h-9.5v-2H337.8z"/>
	<path class="st1" d="M310.8,180.7h11.5c0.6,0,1-0.4,1-1v-18c0-0.6-0.4-1-1-1h-11.5c-0.6,0-1,0.4-1,1v18
		C309.8,180.3,310.3,180.7,310.8,180.7z M311.8,178.7v-12h9.5v12H311.8z M321.3,162.7v2h-9.5v-2H321.3z"/>
	<path class="st1" d="M291.4,156.2h11.5c0.6,0,1-0.4,1-1v-11.5c0-0.6-0.4-1-1-1h-11.5c-0.6,0-1,0.4-1,1v11.5
		C290.4,155.8,290.8,156.2,291.4,156.2z M292.4,144.7h9.5v9.5h-9.5V144.7z"/>
	<path class="st1" d="M34.2,199.2h1.5h15h1.5c0.6,0,1-0.4,1-1c0-0.6-0.4-1-1-1h-0.5v-20c0-0.6-0.4-1-1-1h-15c-0.6,0-1,0.4-1,1v20
		h-0.5c-0.6,0-1,0.4-1,1C33.2,198.8,33.6,199.2,34.2,199.2z M49.7,178.2v8.5h-13v-8.5H49.7z M36.7,188.7h13v8.5h-13V188.7z"/>
	<path class="st1" d="M76,199.2h1.5h15H94c0.6,0,1-0.4,1-1c0-0.6-0.4-1-1-1h-0.5v-30c0-0.6-0.4-1-1-1h-15c-0.6,0-1,0.4-1,1v30H76
		c-0.6,0-1,0.4-1,1C75,198.8,75.5,199.2,76,199.2z M78.5,178.7h13v8h-13V178.7z M91.5,168.2v8.5h-13v-8.5H91.5z M78.5,188.7h13v8.5
		h-13V188.7z"/>
	<path class="st1" d="M119.2,199.2h1.5h15h1.5c0.6,0,1-0.4,1-1c0-0.6-0.4-1-1-1h-0.5v-20c0-0.6-0.4-1-1-1h-15c-0.6,0-1,0.4-1,1v20
		h-0.5c-0.6,0-1,0.4-1,1C118.2,198.8,118.6,199.2,119.2,199.2z M134.7,178.2v8.5h-13v-8.5H134.7z M121.7,188.7h13v8.5h-13V188.7z"/>
	<path class="st1" d="M783.8,182.6h-15c-0.6,0-1,0.4-1,1v21.5c0,0.6,0.4,1,1,1h15c0.6,0,1-0.4,1-1v-21.5
		C784.8,183.1,784.3,182.6,783.8,182.6z M782.8,184.6v6.5h-13v-6.5H782.8z M769.8,193.1h5.5v11h-5.5V193.1z M777.3,204.1v-11h5.5v11
		H777.3z"/>
	<path class="st1" d="M791.8,206.1h15c0.6,0,1-0.4,1-1v-21.5c0-0.6-0.4-1-1-1h-15c-0.6,0-1,0.4-1,1v21.5
		C790.8,205.7,791.2,206.1,791.8,206.1z M792.8,193.1h5.5v11h-5.5V193.1z M800.3,204.1v-11h5.5v11H800.3z M805.8,184.6v6.5h-13v-6.5
		H805.8z"/>
	<path class="st1" d="M717.3,197.6h-1v-21c0-0.6-0.4-1-1-1h-14c-0.6,0-1,0.4-1,1v21h-1c-0.6,0-1,0.4-1,1c0,0.6,0.4,1,1,1h2h14h2
		c0.6,0,1-0.4,1-1C718.3,198.1,717.9,197.6,717.3,197.6z M714.3,177.6v9h-12v-9H714.3z M702.3,197.6v-9h12v9H702.3z"/>
	<path class="st1" d="M758.8,197.6h-1v-21c0-0.6-0.4-1-1-1h-14c-0.6,0-1,0.4-1,1v21h-1c-0.6,0-1,0.4-1,1c0,0.6,0.4,1,1,1h2h14h2
		c0.6,0,1-0.4,1-1C759.8,198.1,759.3,197.6,758.8,197.6z M755.8,177.6v9h-12v-9H755.8z M743.8,197.6v-9h12v9H743.8z"/>
	<path class="st1" d="M738,197.6h-1v-21c0-0.6-0.4-1-1-1h-14c-0.6,0-1,0.4-1,1v21h-1c-0.6,0-1,0.4-1,1c0,0.6,0.4,1,1,1h2h14h2
		c0.6,0,1-0.4,1-1C739,198.1,738.6,197.6,738,197.6z M735,177.6v9h-12v-9H735z M723,197.6v-9h12v9H723z"/>
	<path class="st1" d="M729,159.2c4,0,7.2-3.3,7.2-7.2c0-4-3.3-7.2-7.2-7.2c-4,0-7.2,3.3-7.2,7.2C721.8,156,725,159.2,729,159.2z
		 M723.9,153h4.1v4.1C726,156.7,724.3,155.1,723.9,153z M730,157.1V153h4.1C733.8,155.1,732.1,156.7,730,157.1z M734.2,151h-4.1
		v-4.1C732.1,147.2,733.8,148.9,734.2,151z M728,146.8v4.1h-4.1C724.3,148.9,726,147.2,728,146.8z"/>
	<path class="st1" d="M505.4,178.9l-13.6-8.3c-0.3-0.2-0.7-0.2-1,0l-13.6,8.3c-0.5,0.3-0.6,0.9-0.3,1.4l2.3,3.8
		c0.1,0.2,0.4,0.4,0.6,0.5c0.1,0,0.2,0,0.2,0c0.2,0,0.4,0,0.5-0.1l0.7-0.4v14.7c0,0.6,0.4,1,1,1h18c0.6,0,1-0.4,1-1V184l0.7,0.4
		c0.2,0.1,0.5,0.2,0.8,0.1s0.5-0.2,0.6-0.5l2.3-3.8C506,179.8,505.8,179.2,505.4,178.9z M499.2,197.7h-16v-14.9l8-4.9l8,4.9V197.7z
		 M502.2,182.2l-1.3-0.8c0,0,0,0-0.1,0l-9-5.5c0,0-0.1,0-0.1-0.1c-0.2-0.1-0.5-0.1-0.8,0c0,0-0.1,0-0.1,0.1l-9,5.5c0,0,0,0-0.1,0
		l-1.3,0.8l-1.3-2.1l12.2-7.5l12.2,7.5L502.2,182.2z"/>
	<path class="st1" d="M581.7,170.6l-13.6,8.3c-0.5,0.3-0.6,0.9-0.3,1.4l2.3,3.8c0.1,0.2,0.4,0.4,0.6,0.5c0.1,0,0.2,0,0.2,0
		c0.2,0,0.4,0,0.5-0.1l0.7-0.4v14.7c0,0.6,0.4,1,1,1h18c0.6,0,1-0.4,1-1V184l0.7,0.4c0.2,0.1,0.5,0.2,0.8,0.1
		c0.3-0.1,0.5-0.2,0.6-0.5l2.3-3.8c0.3-0.5,0.1-1.1-0.3-1.4l-13.6-8.3C582.4,170.4,582,170.4,581.7,170.6z M590.2,197.7h-16v-14.9
		l8-4.9l8,4.9V197.7z M594.5,180.1l-1.3,2.1l-1.3-0.8c0,0,0,0-0.1,0l-9-5.5c0,0-0.1,0-0.1-0.1c-0.2-0.1-0.5-0.1-0.8,0
		c0,0-0.1,0-0.1,0.1l-9,5.5c0,0,0,0-0.1,0l-1.3,0.8l-1.3-2.1l12.2-7.5L594.5,180.1z"/>
	<path class="st1" d="M889.1,244.2c0-0.6-0.4-1-1-1h-14.3v-32.5V200c0-13-10.5-23.5-23.5-23.5c-8.2,0-15.8,4.3-20,11.2
		c-2-0.7-4.1-1-6.2-1c-3.7,0-7.2,1-10.3,2.9v-8.9h3c0.6,0,1-0.4,1-1v-38.9c0-0.6-0.4-1-1-1h-75l-12-10.9c-0.4-0.3-1-0.3-1.3,0
		l-40,36.2c-0.2,0.2-0.3,0.5-0.3,0.8c0,0.3,0.1,0.6,0.4,0.8l3.5,2.8c0.2,0.1,0.4,0.2,0.6,0.2s0.5-0.1,0.7-0.3l1.1-1v11.8
		c-1.7-1-3.6-1.5-5.6-1.5c-2.7,0-5.2,1-7.2,2.7c-2.6-5.7-8.2-9.4-14.6-9.4c-8.5,0-15.4,6.6-16,15c-1-0.2-2.1-0.4-3.2-0.4
		c-7.4,0-13.5,6.1-13.5,13.5v10.6v32.5h-29v-36h7c0.1,0,0.2,0,0.4-0.1c0.1,0,0.1-0.1,0.2-0.1c0,0,0.1,0,0.1-0.1c0,0,0.1-0.1,0.1-0.2
		c0-0.1,0.1-0.1,0.1-0.2c0,0,0-0.1,0-0.2c0-0.1,0-0.2,0-0.2c0-0.1,0-0.1,0-0.2c0-0.1,0-0.1,0-0.2l-16-42c-0.1-0.4-0.5-0.6-0.9-0.6
		h-13v-5h1c0.6,0,1-0.4,1-1v-3c0-0.6-0.4-1-1-1h-14c-0.6,0-1,0.4-1,1v3c0,0.6,0.4,1,1,1h1v5h-69v-5h1c0.6,0,1-0.4,1-1v-3
		c0-0.6-0.4-1-1-1h-14c-0.6,0-1,0.4-1,1v3c0,0.6,0.4,1,1,1h1v5h-7.3c-1.3-2-3-3.8-4.9-5.3c1.5-2.3,2.2-4.8,2.2-7.5
		c0-7.7-6.2-13.9-13.9-13.9c-3.5,0-7,1.4-9.5,3.8c-3.8-4.5-9.3-7-15.2-7c-11,0-20,9-20,20c0,6.6,3.3,12.8,8.7,16.5
		c0,0.1,0,0.2,0,0.4c0,6.8,5.5,12.4,12.4,12.4c0.1,0,0.3,0,0.4,0c1.3,4,3.8,7.6,7.1,10.2c-1.9,8.2-3.5,17.4-4.6,27.4
		c-3.2-8.1-5.9-11.9-7-13.2c1-2.2,1.5-4.5,1.5-6.9c0-9-7.2-16.5-16.2-16.9c-2.4-3.5-6.3-5.5-10.5-5.5c-7,0-12.8,5.7-12.8,12.8
		c0,4.3,2.1,8.2,5.6,10.6c0.5,8.9,7.9,16,16.9,16c4.6,0,9-1.9,12.2-5.2c2.2,3.4,8.6,14.9,8.6,28.3c-0.1,1.4-0.1,2.5-0.1,3.2h-49.5
		v-35.4l4.1,1.9c0.1,0.1,0.3,0.1,0.4,0.1c0.3,0,0.5-0.1,0.7-0.3l3.1-3.1c0.2-0.2,0.3-0.6,0.3-0.9c-0.1-0.3-0.3-0.6-0.6-0.7
		L359.2,185c-0.3-0.1-0.6-0.1-0.8,0l-11.3,5.2v-34.1l8.1,3.7c0.1,0.1,0.3,0.1,0.4,0.1c0.3,0,0.5-0.1,0.7-0.3l3.1-3.1
		c0.2-0.2,0.3-0.6,0.3-0.9c-0.1-0.3-0.3-0.6-0.6-0.7l-61.6-28.4c-0.3-0.1-0.6-0.1-0.8,0L271.4,138v-10.7h0.5c0.6,0,1-0.4,1-1v-4
		c0-0.6-0.4-1-1-1h-18c-0.6,0-1,0.4-1,1v4c0,0.6,0.4,1,1,1h0.5v18.5l-19.3,8.9c-0.3,0.1-0.5,0.4-0.6,0.7c-0.1,0.3,0,0.7,0.3,0.9
		l3.1,3.1c0.3,0.3,0.7,0.4,1.1,0.2l7.2-3.3v33.3l-5,16.4c-0.1,0.3,0,0.6,0.2,0.9c0.2,0.3,0.5,0.4,0.8,0.4h4v36h-21.3v-15h11
		c0.4,0,0.7-0.2,0.9-0.5c0.2-0.3,0.2-0.7,0-1l-8.7-14.5h3.6c0.4,0,0.7-0.2,0.9-0.5s0.2-0.7,0-1l-7.9-13.2h2.3c0.3,0,0.7-0.2,0.9-0.5
		c0.2-0.3,0.2-0.7,0-1l-6-12c-0.3-0.7-1.5-0.7-1.8,0l-6,12c-0.2,0.3-0.1,0.7,0,1c0.2,0.3,0.5,0.5,0.9,0.5h2.3l-7.9,13.2
		c-0.2,0.3-0.2,0.7,0,1s0.5,0.5,0.9,0.5h3.6l-8.7,14.5c-0.2,0.3-0.2,0.7,0,1s0.5,0.5,0.9,0.5h11v15h-16.7v-34c0-0.6-0.4-1-1-1h-3.6
		c1.2-3.3,1.2-6.8-0.2-10c-1.4-3.3-4-5.9-7.3-7.3c-4.1-1.7-8.8-1.2-12.5,1.2c-2.2-3.1-5.2-5.5-8.7-6.9c-5.4-2.2-11.6-1.9-16.7,0.8
		v-17.9h3c0.6,0,1-0.4,1-1v-4c0-0.6-0.4-1-1-1l-34.6-22.6c-0.2-0.1-0.4-0.2-0.5-0.2H92.9l-6.5-4.8c-0.4-0.3-0.8-0.3-1.2,0l-6.5,4.8
		H53.3c-0.2,0-0.4,0.1-0.5,0.2l-34.9,22.8c0,0,0,0-0.1,0.1c-0.1,0-0.1,0.1-0.1,0.1s-0.1,0.1-0.1,0.2c0,0.1-0.1,0.1-0.1,0.2
		s0,0.1,0,0.2v0.1v4c0,0.6,0.4,1,1,1h3v17.9c-3.5-3-8.1-4.7-12.8-4.7c-9.4,0-17.3,6.4-19.3,15.5c-0.8-0.2-1.7-0.2-2.5-0.2
		c-6.7,0-12.4,5-13.3,11.5h-1.1c-0.6,0-1,0.4-1,1v34H-53v-39.5l3.2,1.4c0.1,0.1,0.3,0.1,0.4,0.1c0.1,0,0.3,0,0.4-0.1
		c0.2-0.1,0.4-0.3,0.5-0.5l2.2-5.1c0.2-0.5,0-1.1-0.5-1.3l-13.2-5.7v-12.9c2,1.8,4.6,2.9,7.3,2.9c5.9,0,10.7-4.8,10.7-10.7
		c0-0.9-0.1-1.9-0.4-2.8c4.8-1.5,8.2-6.1,8.2-11.2c0-3.9-1.9-7.5-5.1-9.7c2.6-3,4-6.7,4-10.7c0-9-7.3-16.3-16.3-16.3
		c-4,0-7.8,1.4-10.8,4.1c-3.6-0.9-7.5-0.9-11.1-0.3c-1.5-3.5-5-5.8-8.8-5.8c-5.3,0-9.6,4.3-9.6,9.6c0,2.3,0.8,4.4,2.2,6.2
		c-2.2,2.9-3.8,6.3-4.7,9.8c-7.1,2-11.9,8.3-11.9,15.7c0,9,7.3,16.3,16.3,16.3c3.1,0,6-0.8,8.6-2.5c2.9,1.6,6.1,2.6,9.4,3.1v9.9
		l-16.6-7.1c-0.3-0.1-0.5-0.1-0.8,0l-23.6,10.1v-37.2h6c0.4,0,0.7-0.2,0.9-0.5c0.2-0.3,0.2-0.7,0-1l-16-26c-0.2-0.3-0.5-0.5-0.9-0.5
		h-11v-9.5h1c0.6,0,1-0.4,1-1v-4c0-0.6-0.4-1-1-1h-19c-0.6,0-1,0.4-1,1v4c0,0.6,0.4,1,1,1h1v9.5h-89c-0.3,0-0.7,0.2-0.9,0.5l-16,26
		c-0.2,0.3-0.2,0.7,0,1c0.2,0.3,0.5,0.5,0.9,0.5h6V226c-0.2,0-0.4,0-0.6,0c-3.3,0-6.3,1.2-8.7,3.3c-2.3-1.7-5.1-2.7-8-2.7
		c-7.3,0-13.2,5.9-13.2,13.2c0,1.1,0.1,2.2,0.4,3.3h-3.8c-0.6,0-1,0.4-1,1c0,0.6,0.4,1,1,1h5h29.6h9.3h33.2h16h18h16h32.5h10h50h10
		h26.5h5h5h5h5h5h5h5h5h5h5h44.4h37h45.6h5h5h5h5h5h5h5h5h5h5h18.7h6h23.3h15h14.5h47.5h9.8h50h9.8h51.3h4.5h19.6h42.5h17.5h15h17.5
		h42.5h31h6h4h6h4h6h4h6h4h6h4h6h4h67.5h25.5h22h2.5h4h6h4h6h4h6h4h6h4h6h4h6H888C888.6,245.2,889.1,244.8,889.1,244.2z
		 M824.1,188.7c2.2,0,4.3,0.4,6.3,1.2c0.5,0.2,1,0,1.2-0.4c3.8-6.7,11-10.9,18.7-10.9c11.9,0,21.5,9.6,21.5,21.5v7.2
		c-0.6-0.3-1.3-0.6-2-0.6c-2.2,0-4,1.8-4,4v5h-2v-5c0-2.2-1.8-4-4-4c-2.2,0-4,1.8-4,4v5h-2v-5c0-2.2-1.8-4-4-4c-2.2,0-4,1.8-4,4v5
		h-2v-5c0-2.2-1.8-4-4-4c-2.2,0-4,1.8-4,4v5h-2v-5c0-2.2-1.8-4-4-4c-2.2,0-4,1.8-4,4v5h-2v-5c0-2.2-1.8-4-4-4c-2.2,0-4,1.8-4,4v5h-2
		V192C816.8,189.9,820.3,188.7,824.1,188.7z M863.8,236.2h2v1h-2V236.2z M865.8,234.2h-2v-13.5h2V234.2z M865.8,218.7h-2v-1h2V218.7
		z M863.8,239.2h2v4h-2V239.2z M853.8,236.2h2v1h-2V236.2z M855.8,234.2h-2v-13.5h2V234.2z M855.8,218.7h-2v-1h2V218.7z
		 M853.8,239.2h2v4h-2V239.2z M843.8,236.2h2v1h-2V236.2z M845.8,234.2h-2v-13.5h2V234.2z M845.8,218.7h-2v-1h2V218.7z M843.8,239.2
		h2v4h-2V239.2z M833.8,236.2h2v1h-2V236.2z M835.8,234.2h-2v-13.5h2V234.2z M835.8,218.7h-2v-1h2V218.7z M833.8,239.2h2v4h-2V239.2
		z M823.8,236.2h2v1h-2V236.2z M825.8,234.2h-2v-13.5h2V234.2z M825.8,218.7h-2v-1h2V218.7z M823.8,239.2h2v4h-2V239.2z
		 M815.8,218.7h-2v-1h2V218.7z M813.8,220.7h2v13.5h-2V220.7z M813.8,236.2h2v1h-2V236.2z M812.8,178.7h-49v-1.9l1,0.8
		c0.4,0.3,0.9,0.3,1.3,0l3-2.5l3,2.5c0.4,0.3,0.9,0.3,1.3,0l3-2.5l3,2.5c0.4,0.3,0.9,0.3,1.3,0l3-2.5l3,2.5c0.4,0.3,0.9,0.3,1.3,0
		l3-2.5l3,2.5c0.4,0.3,0.9,0.3,1.3,0l3-2.5l3,2.5c0.4,0.3,0.9,0.3,1.3,0l3-2.5l3,2.5c0.4,0.3,0.9,0.3,1.3,0l3-2.5l2.7,2.2v1.4H812.8
		z M764.3,168.9c0.4,0.3,0.9,0.3,1.3,0l3.5-2.8c0.2-0.2,0.3-0.4,0.4-0.7l2.6,2.2c0.4,0.3,0.9,0.3,1.3,0l3-2.5l3,2.5
		c0.4,0.3,0.9,0.3,1.3,0l3-2.5l3,2.5c0.4,0.3,0.9,0.3,1.3,0l3-2.5l3,2.5c0.4,0.3,0.9,0.3,1.3,0l3-2.5l3,2.5c0.4,0.3,0.9,0.3,1.3,0
		l3-2.5l3,2.5c0.4,0.3,0.9,0.3,1.3,0l3-2.5l2.7,2.2v2.4l-2-1.7c-0.4-0.3-0.9-0.3-1.3,0l-3,2.5l-3-2.5c-0.4-0.3-0.9-0.3-1.3,0l-3,2.5
		l-3-2.5c-0.4-0.3-0.9-0.3-1.3,0l-3,2.5l-3-2.5c-0.4-0.3-0.9-0.3-1.3,0l-3,2.5l-3-2.5c-0.4-0.3-0.9-0.3-1.3,0l-3,2.5l-3-2.5
		c-0.4-0.3-0.9-0.3-1.3,0l-3,2.5l-3-2.5c-0.4-0.3-0.9-0.3-1.3,0l-3,2.5l-1.6-1.3v-0.8L764.3,168.9z M763.8,171.8l1,0.8
		c0.4,0.3,0.9,0.3,1.3,0l3-2.5l3,2.5c0.4,0.3,0.9,0.3,1.3,0l3-2.5l3,2.5c0.4,0.3,0.9,0.3,1.3,0l3-2.5l3,2.5c0.4,0.3,0.9,0.3,1.3,0
		l3-2.5l3,2.5c0.4,0.3,0.9,0.3,1.3,0l3-2.5l3,2.5c0.4,0.3,0.9,0.3,1.3,0l3-2.5l3,2.5c0.4,0.3,0.9,0.3,1.3,0l3-2.5l2.7,2.2v2.4
		l-2-1.7c-0.4-0.3-0.9-0.3-1.3,0l-3,2.5l-3-2.5c-0.4-0.3-0.9-0.3-1.3,0l-3,2.5l-3-2.5c-0.4-0.3-0.9-0.3-1.3,0l-3,2.5l-3-2.5
		c-0.4-0.3-0.9-0.3-1.3,0l-3,2.5l-3-2.5c-0.4-0.3-0.9-0.3-1.3,0l-3,2.5l-3-2.5c-0.4-0.3-0.9-0.3-1.3,0l-3,2.5l-3-2.5
		c-0.4-0.3-0.9-0.3-1.3,0l-3,2.5l-1.6-1.3L763.8,171.8L763.8,171.8z M815.8,149.8l-2-1.7c-0.4-0.3-0.9-0.3-1.3,0l-3,2.5l-3-2.5
		c-0.4-0.3-0.9-0.3-1.3,0l-3,2.5l-3-2.5c-0.4-0.3-0.9-0.3-1.3,0l-3,2.5l-3-2.5c-0.4-0.3-0.9-0.3-1.3,0l-3,2.5l-3-2.5
		c-0.4-0.3-0.9-0.3-1.3,0l-3,2.5l-3-2.5c-0.4-0.3-0.9-0.3-1.3,0l-3,2.5l-3-2.5c-0.4-0.3-0.9-0.3-1.3,0l-3,2.5l-2.9-2.5
		c-0.4-0.3-1-0.3-1.3,0l-2.6,2.4l-3.1-2.5c-0.4-0.3-0.9-0.3-1.2,0l-1.8,1.4l-4.7-4.2l0.4-0.2l3.1,2.6c0.4,0.3,1,0.3,1.3-0.1l2.3-2.2
		l2.7,2.4c0.4,0.3,0.9,0.3,1.3,0l2.9-2.5l3,2.5c0.4,0.3,0.9,0.3,1.3,0l3-2.5l3,2.5c0.4,0.3,0.9,0.3,1.3,0l3-2.5l3,2.5
		c0.4,0.3,0.9,0.3,1.3,0l3-2.5l3,2.5c0.4,0.3,0.9,0.3,1.3,0l3-2.5l3,2.5c0.4,0.3,0.9,0.3,1.3,0l3-2.5l3,2.5c0.4,0.3,0.9,0.3,1.3,0
		l3-2.5l3,2.5c0.4,0.3,0.9,0.3,1.3,0l3-2.5l2.7,2.2L815.8,149.8L815.8,149.8z M754.8,150.1l3.2,2.5c0.4,0.3,0.9,0.3,1.3,0l2.6-2.4
		l2.9,2.4c0.4,0.3,0.9,0.3,1.3,0l3-2.5l3,2.5c0.4,0.3,0.9,0.3,1.3,0l3-2.5l3,2.5c0.4,0.3,0.9,0.3,1.3,0l3-2.5l3,2.5
		c0.4,0.3,0.9,0.3,1.3,0l3-2.5l3,2.5c0.4,0.3,0.9,0.3,1.3,0l3-2.5l3,2.5c0.4,0.3,0.9,0.3,1.3,0l3-2.5l3,2.5c0.4,0.3,0.9,0.3,1.3,0
		l3-2.5l2.7,2.2v2.4l-2-1.7c-0.4-0.3-0.9-0.3-1.3,0l-3,2.5l-3-2.5c-0.4-0.3-0.9-0.3-1.3,0l-3,2.5l-3-2.5c-0.4-0.3-0.9-0.3-1.3,0
		l-3,2.5l-3-2.5c-0.4-0.3-0.9-0.3-1.3,0l-3,2.5l-3-2.5c-0.4-0.3-0.9-0.3-1.3,0l-3,2.5l-3-2.5c-0.4-0.3-0.9-0.3-1.3,0l-3,2.5l-3-2.5
		c-0.4-0.3-0.9-0.3-1.3,0l-3,2.5l-3-2.5c-0.4-0.3-0.9-0.3-1.3,0l-2.5,2l-4.8-4.3L754.8,150.1z M761.7,155.2l3,2.5
		c0.4,0.3,0.9,0.3,1.3,0l3-2.5l3,2.5c0.4,0.3,0.9,0.3,1.3,0l3-2.5l3,2.5c0.4,0.3,0.9,0.3,1.3,0l3-2.5l3,2.5c0.4,0.3,0.9,0.3,1.3,0
		l3-2.5l3,2.5c0.4,0.3,0.9,0.3,1.3,0l3-2.5l3,2.5c0.4,0.3,0.9,0.3,1.3,0l3-2.5l3,2.5c0.4,0.3,0.9,0.3,1.3,0l3-2.5l2.7,2.2v2.4
		l-2-1.7c-0.4-0.3-0.9-0.3-1.3,0l-3,2.5l-3-2.5c-0.4-0.3-0.9-0.3-1.3,0l-3,2.5l-3-2.5c-0.4-0.3-0.9-0.3-1.3,0l-3,2.5l-3-2.5
		c-0.4-0.3-0.9-0.3-1.3,0l-3,2.5l-3-2.5c-0.4-0.3-0.9-0.3-1.3,0l-3,2.5l-3-2.5c-0.4-0.3-0.9-0.3-1.3,0l-3,2.5l-3-2.5
		c-0.4-0.3-0.9-0.3-1.3,0l-3.4,2.8l-4.9-4.4L761.7,155.2z M769.1,160.2l3,2.5c0.4,0.3,0.9,0.3,1.3,0l3-2.5l3,2.5
		c0.4,0.3,0.9,0.3,1.3,0l3-2.5l3,2.5c0.4,0.3,0.9,0.3,1.3,0l3-2.5l3,2.5c0.4,0.3,0.9,0.3,1.3,0l3-2.5l3,2.5c0.4,0.3,0.9,0.3,1.3,0
		l3-2.5l3,2.5c0.4,0.3,0.9,0.3,1.3,0l3-2.5l2.7,2.2v2.4l-2-1.7c-0.4-0.3-0.9-0.3-1.3,0l-3,2.5l-3-2.5c-0.4-0.3-0.9-0.3-1.3,0l-3,2.5
		l-3-2.5c-0.4-0.3-0.9-0.3-1.3,0l-3,2.5l-3-2.5c-0.4-0.3-0.9-0.3-1.3,0l-3,2.5l-3-2.5c-0.4-0.3-0.9-0.3-1.3,0l-3,2.5l-3-2.5
		c-0.4-0.3-0.9-0.3-1.3,0l-3,2.5l-3-2.5c-0.4-0.3-0.9-0.3-1.3,0l-0.5,0.4l-1.4-1.3L769.1,160.2z M815.8,141.9v2.9l-2-1.7
		c-0.4-0.3-0.9-0.3-1.3,0l-3,2.5l-3-2.5c-0.4-0.3-0.9-0.3-1.3,0l-3,2.5l-3-2.5c-0.4-0.3-0.9-0.3-1.3,0l-3,2.5l-3-2.5
		c-0.4-0.3-0.9-0.3-1.3,0l-3,2.5l-3-2.5c-0.4-0.3-0.9-0.3-1.3,0l-3,2.5l-3-2.5c-0.4-0.3-0.9-0.3-1.3,0l-3,2.5l-3-2.5
		c-0.4-0.3-0.9-0.3-1.3,0l-3,2.5l-3-2.5c-0.4-0.3-0.9-0.3-1.3,0l-2.9,2.4l-2.7-2.4c-0.4-0.3-1-0.3-1.4,0l-2.3,2.3l-3-2.4
		c-0.3-0.3-0.8-0.3-1.1-0.1l-1.6,0.9l-2.1-1.9H815.8L815.8,141.9z M692.5,167.4l-1.9-1.5l38.5-34.8l37.9,34.2l-1.9,1.5l-1.5-1.4
		l-33.7-30.5c-0.4-0.3-1-0.3-1.3,0l-33.8,30.5L692.5,167.4z M692.3,236.2h2v1h-2V236.2z M694.3,234.2h-2v-13.5h2V234.2z
		 M694.3,218.7h-2v-1h2V218.7z M692.3,239.2h2v4h-2V239.2z M647.8,188.6c1.3,0,2.6,0.2,3.8,0.6c0.3,0.1,0.7,0.1,0.9-0.1
		c0.3-0.2,0.4-0.5,0.4-0.8V188c0-7.7,6.3-14,14-14c6,0,11.3,3.8,13.2,9.5c0.1,0.3,0.4,0.6,0.8,0.7c0.4,0.1,0.7-0.1,0.9-0.3
		c1.7-2,4.2-3.1,6.8-3.1c2.1,0,4,0.7,5.6,2v33h-2v-5c0-2.2-1.8-4-4-4s-4,1.8-4,4v5h-2v-5c0-2.2-1.8-4-4-4s-4,1.8-4,4v5h-2v-5
		c0-2.2-1.8-4-4-4s-4,1.8-4,4v5h-2v-5c0-2.2-1.8-4-4-4s-4,1.8-4,4v5h-2v-5c0-2.2-1.8-4-4-4s-4,1.8-4,4v5h-2v-5c0-2.2-1.8-4-4-4
		c-0.7,0-1.4,0.2-2,0.6v-7.1C636.3,193.8,641.5,188.6,647.8,188.6z M682.3,236.2h2v1h-2V236.2z M684.3,234.2h-2v-13.5h2V234.2z
		 M684.3,218.7h-2v-1h2V218.7z M682.3,239.2h2v4h-2V239.2z M672.3,236.2h2v1h-2V236.2z M674.3,234.2h-2v-13.5h2V234.2z M674.3,218.7
		h-2v-1h2V218.7z M672.3,239.2h2v4h-2V239.2z M662.3,236.2h2v1h-2V236.2z M664.3,234.2h-2v-13.5h2V234.2z M664.3,218.7h-2v-1h2
		V218.7z M662.3,239.2h2v4h-2V239.2z M652.3,236.2h2v1h-2V236.2z M654.3,234.2h-2v-13.5h2V234.2z M654.3,218.7h-2v-1h2V218.7z
		 M652.3,239.2h2v4h-2V239.2z M642.3,236.2h2v1h-2V236.2z M644.3,234.2h-2v-13.5h2V234.2z M644.3,218.7h-2v-1h2V218.7z M642.3,239.2
		h2v4h-2V239.2z M610.8,205.2h-36.5l-37.1-20.8c-0.3-0.2-0.7-0.2-1,0l-37,20.7h-36.6l3.2-8.3l12.1-31.7h4.5h8.8h10h71h10h13.3
		L610.8,205.2z M544.2,216.2h-15c-0.6,0-1,0.4-1,1v26h-15.5v-36.4l24-13.5l24,13.4v36.4h-15.5v-26
		C545.2,216.7,544.8,216.2,544.2,216.2z M537.2,191.3c-0.3-0.2-0.7-0.2-1,0l-0.5,0.3l-24.5,13.7l-0.1,0.1l-8.4,4.7l-2-3.5l35.9-20.1
		l36,20.1l-2,3.5L537.2,191.3z M455.2,195.6c2.6,1.2,5.4,1.9,8.3,2l-3.2,8.3c0,0.1,0,0.1,0,0.2c0,0.1,0,0.1,0,0.2c0,0.1,0,0.2,0,0.2
		v0.1c0,0.1,0.1,0.1,0.1,0.2c0,0.1,0.1,0.1,0.1,0.2l0.1,0.1c0.1,0,0.1,0.1,0.2,0.1c0.1,0,0.2,0.1,0.4,0.1h7v36h-17.6
		C450.5,238.5,450.2,216.9,455.2,195.6z M571.2,155.2h12v1h-1h-10h-1V155.2z M573.2,158.2h8v5h-8V158.2z M490.2,155.2h12v1h-1h-10
		h-1V155.2z M492.2,158.2h8v5h-8V158.2z M358.9,186.8l41.6,19.1l-1.6,1.6l-4.8-2.2l-34.8-16c-0.3-0.1-0.6-0.1-0.8,0l-34.7,16
		l-4.8,2.2l-1.6-1.6L358.9,186.8z M254.9,123.3h16v2h-0.5h-15h-0.5V123.3z M256.4,127.3h13v11.6l-13,6V127.3z M238.8,157.5l-1.6-1.6
		l59.9-27.6l59.9,27.6l-1.6,1.6l-57.9-26.7c-0.1-0.1-0.3-0.1-0.4-0.1c-0.1,0-0.3,0-0.4,0.1l-49.8,22.9c-0.1,0-0.2,0.1-0.2,0.1
		L238.8,157.5z M297.1,132.8l48,22.1v33.8h-97v-33.3L297.1,132.8z M247.9,190.7h97.3v0.2l-30,13.8c-0.2,0.1-0.4,0.3-0.5,0.5h-71.2
		L247.9,190.7z M166.1,187.1c3.5,1.4,6.3,3.8,8.3,7c0.2,0.2,0.4,0.4,0.7,0.5c0.3,0.1,0.6,0,0.8-0.2c3.2-2.5,7.6-3.1,11.4-1.6
		c2.8,1.2,5.1,3.4,6.3,6.2s1.2,6,0,8.8c-0.1,0.2-0.1,0.3-0.2,0.5h-4.2h-5h-5h-5h-5h-5h-5h-5h-4v-19.8
		C155,185.4,160.9,184.9,166.1,187.1z M117.7,141.5l31.8,20.8h-25.9l-28.3-20.8H117.7z M53.3,141.5h22.4l-28.3,20.8H21.5L53.3,141.5
		z M19.2,164.2h28.6c0.2,0,0.4-0.1,0.6-0.2l37.1-27.3l37.1,27.3c0.2,0.1,0.4,0.2,0.6,0.2h28.9v2h-3h-26.9l-36.1-26.5
		c-0.4-0.3-0.8-0.3-1.2,0l-36.2,26.6H22.1h-3L19.2,164.2L19.2,164.2z M-13.4,198.7c1,0,2,0.1,3,0.4c0.3,0.1,0.6,0,0.8-0.1
		c0.2-0.2,0.4-0.4,0.4-0.7c1.4-8.6,8.8-14.9,17.5-14.9c4.8,0,9.4,2,12.8,5.4v19.3h-4h-5h-5h-5h-5h-5h-5h-5h-5h-1.9
		C-23.7,202.8-18.9,198.7-13.4,198.7z M-70.3,188.3v-11.6c0-0.5-0.4-0.9-0.9-1c-3.5-0.3-6.9-1.4-10-3.2c-0.3-0.2-0.7-0.2-1.1,0
		c-2.4,1.6-5.2,2.5-8,2.5c-7.9,0-14.3-6.4-14.3-14.3c0-6.7,4.5-12.4,11-13.9c0.4-0.1,0.7-0.4,0.7-0.8c0.8-3.7,2.5-7.3,4.9-10.2
		c0.3-0.4,0.3-1-0.1-1.3c-1.4-1.4-2.2-3.4-2.2-5.4c0-4.2,3.4-7.6,7.6-7.6c3.3,0,6.2,2.1,7.2,5.2c0.2,0.5,0.7,0.8,1.2,0.7
		c3.8-0.8,7.8-0.8,11.5,0.2c0.3,0.1,0.7,0,0.9-0.2c2.7-2.5,6.1-3.9,9.8-3.9c7.9,0,14.3,6.4,14.3,14.3c0,3.8-1.5,7.5-4.2,10.2
		c-0.2,0.2-0.3,0.5-0.3,0.9c0,0.3,0.2,0.6,0.5,0.7c3.2,1.7,5.1,5,5.1,8.6c0,4.5-3.2,8.5-7.6,9.5c-0.3,0.1-0.5,0.2-0.7,0.5
		c-0.1,0.3-0.2,0.6-0.1,0.8c0.4,1,0.6,2,0.6,3.1c0,4.8-3.9,8.7-8.7,8.7c-3.1,0-5.9-1.6-7.5-4.3c-0.2-0.4-0.7-0.6-1.1-0.5
		c-0.4,0.1-0.7,0.5-0.7,1v14.8l-5.9-2.5L-70.3,188.3z M-89.3,182.3l24,10.3l3.6,1.6l12.9,5.5l-1.4,3.2l-38.7-16.6
		c-0.1-0.1-0.3-0.1-0.4-0.1c-0.1,0-0.3,0-0.4,0.1l-35,15l-3.7,1.6l-1.4-3.2L-89.3,182.3z M-151.3,111.7h17v2h-1h-15h-1V111.7z
		 M-149.3,115.7h13v9.5h-13V115.7z M-239.7,127.2h89.4h15h11.4l14.8,24h-5.2h-135h-5.2L-239.7,127.2z M-248.3,153.2h133v38.1
		l-16.2,7c-0.5,0.2-0.7,0.8-0.5,1.3l2.2,5.1c0.1,0.2,0.3,0.4,0.5,0.5c0.2,0.1,0.5,0.1,0.8,0l3.2-1.4v39.5h-30.5V204l2.7,1.6
		c0.2,0.1,0.3,0.1,0.5,0.1c0.3,0,0.7-0.2,0.9-0.5l2.8-4.7c0.1-0.2,0.2-0.5,0.1-0.8c-0.1-0.3-0.2-0.5-0.5-0.6l-32-19.1
		c-0.3-0.2-0.7-0.2-1,0l-32.1,19.2c-0.2,0.1-0.4,0.4-0.5,0.6c-0.1,0.3,0,0.5,0.1,0.8l2.8,4.7c0.3,0.5,0.9,0.6,1.4,0.3l2.7-1.6v39.2
		h-30.6c0.4-1.3,0.7-2.7,0.7-4.1c0-6.3-4.5-11.5-10.4-12.7L-248.3,153.2L-248.3,153.2z M-210.7,203.4l-1.8-3l30.7-18.4l30.7,18.4
		l-1.8,3l-28.4-17c-0.3-0.2-0.7-0.2-1,0L-210.7,203.4z M-249.3,243.2h-28.9c-0.3-1.1-0.5-2.2-0.5-3.3c0-6.2,5-11.2,11.2-11.2
		c2.7,0,5.3,1,7.4,2.8c0.4,0.4,1,0.3,1.4-0.1c2.1-2.2,4.9-3.4,7.9-3.4c6.1,0,11,4.9,11,11c0,1.4-0.3,2.8-0.8,4.1L-249.3,243.2
		L-249.3,243.2z M-189.8,243.2v-30.5h16v30.5H-189.8z M-171.8,243.2v-31.5c0-0.6-0.4-1-1-1h-18c-0.6,0-1,0.4-1,1v31.5h-14v-40.4
		l24-14.4l24,14.4v40.4H-171.8z M-65.3,220.7v1.5h-48v-1.5H-65.3z M-113.3,218.7v-1.5h48v1.5H-113.3z M-65.3,224.2v1.5h-48v-1.5
		H-65.3z M-65.3,227.7v1.5h-48v-1.5H-65.3z M-65.3,231.2v1.5h-48v-1.5H-65.3z M-65.3,234.7v1.5h-48v-1.5H-65.3z M-65.3,215.2h-48
		v-1.5h48V215.2z M-113.3,238.2h48v1.5h-48V238.2z M-65.3,211.7h-48v-1.5h48V211.7z M-113.3,243.2v-1.5h48v1.5H-113.3z M-63.3,243.2
		v-34c0-0.6-0.4-1-1-1h-50c-0.6,0-1,0.4-1,1v34h-8v-40.3l34-14.6l34,14.6v40.3H-63.3z M-26.8,210.2h3v33h-3V210.2z M-21.8,210.2h3
		v33h-3V210.2z M-16.8,210.2h3v33h-3V210.2z M-11.8,210.2h3v33h-3V210.2z M-6.8,210.2h3v33h-3V210.2z M-1.8,210.2h3v33h-3V210.2z
		 M3.2,210.2h3v33h-3V210.2z M8.2,210.2h3v33h-3V210.2z M13.2,210.2h3v33h-3V210.2z M18.2,210.2h3v33h-3V210.2z M23.2,209.2v-41
		h25.9c0.2,0,0.4-0.1,0.6-0.2l35.8-26.3l35.8,26.3c0.2,0.1,0.4,0.2,0.6,0.2h26.2v41v34h-43.6v-2c0-0.6-0.4-1-1-1h-1v-2
		c0-0.6-0.4-1-1-1H100v-29h2.5c0.6,0,1-0.4,1-1v-3c0-0.6-0.4-1-1-1h-35c-0.6,0-1,0.4-1,1v3c0,0.6,0.4,1,1,1H70v29h-1.5
		c-0.6,0-1,0.4-1,1v2h-1c-0.6,0-1,0.4-1,1v2H23.1L23.2,209.2L23.2,209.2z M99,206.2H71h-2.5v-1h33v1H99z M72,208.2h26v29H72V208.2z
		 M71,239.2h28h1.5v1h-31v-1H71z M67.5,243.2v-1h1h33h1v1H67.5z M150.2,210.2h3v33h-3V210.2z M155.2,210.2h3v33h-3V210.2z
		 M160.2,210.2h3v33h-3V210.2z M165.2,210.2h3v33h-3V210.2z M170.2,210.2h3v33h-3V210.2z M175.2,210.2h3v33h-3V210.2z M180.2,210.2
		h3v33h-3V210.2z M185.2,210.2h3v33h-3V210.2z M190.2,210.2h3v33h-3V210.2z M195.2,243.2v-33h3v33H195.2z M218.9,243.2v-16
		c0-0.6-0.4-1-1-1h-10.2l8.7-14.5c0.2-0.3,0.2-0.7,0-1s-0.5-0.5-0.9-0.5h-3.6l7.9-13.2c0.2-0.3,0.2-0.7,0-1
		c-0.2-0.3-0.5-0.5-0.9-0.5h-2.4l4.4-8.8l4.4,8.8h-2.4c-0.4,0-0.7,0.2-0.9,0.5c-0.2,0.3-0.2,0.7,0,1l7.9,13.2h-3.6
		c-0.4,0-0.7,0.2-0.9,0.5s-0.2,0.7,0,1l8.7,14.5h-10.2c-0.6,0-1,0.4-1,1v16H218.9z M248.2,207.2h67.6l2.2,2.2
		c0.3,0.3,0.7,0.4,1.1,0.2l4.1-1.9v35.4h-45.5v-26.5c0-0.6-0.4-1-1-1h-14.5c-0.6,0-1,0.4-1,1v26.5h-13V207.2L248.2,207.2z
		 M263.2,243.2v-25.5h12.5v25.5H263.2z M334.9,243.2v-25.5h48v25.5H334.9z M384.9,243.2v-26.5c0-0.6-0.4-1-1-1h-50c-0.6,0-1,0.4-1,1
		v26.5h-7.8v-36.4l33.8-15.5l33.8,15.5v36.4H384.9z M446.2,243.2c0-0.7,0.1-1.8,0.1-3.2v-0.1c0-15.6-8.3-28.3-9.5-30.2
		c-0.1-0.2-0.2-0.4-0.4-0.5c-0.4-0.3-1-0.2-1.4,0.2c-2.9,3.5-7.1,5.5-11.6,5.5c-8,0-14.7-6.6-14.9-14.6c0-0.3-0.2-0.7-0.5-0.8
		c-3.2-2-5.1-5.4-5.1-9.2c0-5.9,4.8-10.8,10.8-10.8c3.7,0,7.1,1.9,9.1,5c0.2,0.3,0.5,0.5,0.8,0.5c8.1,0.1,14.8,6.8,14.8,14.9
		c0,2.4-0.5,4.6-1.6,6.8c-0.2,0.5-0.1,1.1,0.4,1.3c0.1,0,0.1,0.1,0.2,0.1c1,1.2,4.3,5.8,8.1,16.5c0.1,0.5,0.4,0.8,0.9,0.9
		c0.6,0,1-0.4,1.1-0.9c1.1-11.9,2.9-22.7,5.2-32.1c0.1-0.4-0.1-0.8-0.4-1c-3.4-2.6-6-6.3-7.2-10.4c-0.1-0.5-0.6-0.8-1.1-0.7
		c-0.3,0-0.7,0.1-1.1,0.1c-5.7,0-10.4-4.7-10.4-10.4c0-0.3,0-0.5,0-0.8c0-0.4-0.1-0.7-0.5-0.9c-5.2-3.3-8.3-9-8.3-15.1
		c0-9.9,8.1-18,18-18c5.7,0,10.9,2.6,14.3,7.1c0.2,0.2,0.5,0.4,0.8,0.4c0.3,0,0.6-0.1,0.8-0.3c2.3-2.5,5.5-4,8.9-4
		c6.6,0,11.9,5.3,11.9,11.9c0,2.6-0.8,5.1-2.4,7.2c-0.2,0.2-0.2,0.5-0.2,0.8c0,0.3,0.2,0.5,0.4,0.7c1.7,1.2,3.2,2.7,4.4,4.3h-3.3
		c-0.4,0-0.8,0.3-0.9,0.6l-12.1,31.7c-3.2,0-6.4-0.8-9.3-2.3c-0.3-0.1-0.6-0.2-0.9,0c-0.3,0.1-0.5,0.4-0.6,0.7
		c-5.3,21.8-5,44.3-4.9,49.3h-2.4V243.2z M470.2,207.2h28.6l2.7,4.8c0.1,0.2,0.3,0.4,0.6,0.5c0.1,0,0.2,0,0.3,0c0.2,0,0.3,0,0.5-0.1
		l7.8-4.4v35.3h-40.5V207.2z M530.2,243.2v-25h13v25H530.2z M562.7,243.2v-35.3l7.9,4.4c0.5,0.3,1.1,0.1,1.4-0.4l2.7-4.7h28.6v36
		H562.7z M636.3,243.2v-32.5c0-1.1,0.9-2,2-2s2,0.9,2,2v6v3v15.5v3v5H636.3z M646.3,243.2v-5v-3v-15.5v-3v-6c0-1.1,0.9-2,2-2
		s2,0.9,2,2v6v3v15.5v3v5H646.3z M656.3,243.2v-5v-3v-15.5v-3v-6c0-1.1,0.9-2,2-2s2,0.9,2,2v6v3v15.5v3v5H656.3z M666.3,243.2v-5v-3
		v-15.5v-3v-6c0-1.1,0.9-2,2-2s2,0.9,2,2v6v3v15.5v3v5H666.3z M676.3,243.2v-5v-3v-15.5v-3v-6c0-1.1,0.9-2,2-2s2,0.9,2,2v6v3v15.5v3
		v5H676.3z M686.3,243.2v-5v-3v-15.5v-3v-6c0-1.1,0.9-2,2-2s2,0.9,2,2v6v3v15.5v3v5H686.3z M696.3,238.2v-3v-15.5v-3v-50.1
		l32.8-29.6l32.7,29.6v13.1v63.5h-65.5V238.2z M763.8,180.7h48v10.8v51.7h-0.5v-2.5c0-0.6-0.4-1-1-1h-0.5v-3c0-0.6-0.4-1-1-1h-1v-25
		c0-0.6-0.4-1-1-1h-15c-0.6,0-1,0.4-1,1v25h-1c-0.6,0-1,0.4-1,1v3h-0.5c-0.6,0-1,0.4-1,1v2.5h-23.5V180.7z M805.8,235.7h-13v-24h13
		V235.7z M791.8,237.7h15h1v2h-17v-2H791.8z M789.3,243.2v-1.5h0.5h19h0.5v1.5H789.3z M813.8,239.2h2v4h-2V239.2z M817.8,243.2v-5
		v-3v-15.5v-3v-6c0-1.1,0.9-2,2-2s2,0.9,2,2v6v3v15.5v3v5H817.8z M827.8,243.2v-5v-3v-15.5v-3v-6c0-1.1,0.9-2,2-2s2,0.9,2,2v6v3
		v15.5v3v5H827.8z M837.8,243.2v-5v-3v-15.5v-3v-6c0-1.1,0.9-2,2-2s2,0.9,2,2v6v3v15.5v3v5H837.8z M847.8,243.2v-5v-3v-15.5v-3v-6
		c0-1.1,0.9-2,2-2s2,0.9,2,2v6v3v15.5v3v5H847.8z M857.8,243.2v-5v-3v-15.5v-3v-6c0-1.1,0.9-2,2-2s2,0.9,2,2v6v3v15.5v3v5H857.8z
		 M867.8,243.2v-5v-3v-15.5v-3v-6c0-1.1,0.9-2,2-2s2,0.9,2,2v32.5H867.8z"/>
	<path class="st1" d="M-60.6,42H50c0.3,0,0.6-0.2,0.8-0.4C51,41.3,51,41,51,40.7c-2.7-9-10.4-15.6-19.6-17.1c0-0.2,0-0.4,0-0.6
		c0-6.5-5.2-11.7-11.7-11.7c-0.4,0-0.7,0-1.1,0.1C15.5,6.8,10.4,4,4.7,4C-1.9,4-7.9,8-10.6,14c-2.1-0.9-4.3-1.3-6.6-1.3
		c-8,0-14.9,5.5-16.7,13.2c-2.1-0.6-4.2-0.9-6.3-0.9c-9.9,0-18.5,6.3-21.5,15.7c-0.1,0.3,0,0.6,0.1,0.9C-61.3,41.8-61,42-60.6,42z
		 M-40.1,27c2.3,0,4.5,0.4,6.7,1.1c0.3,0.1,0.6,0.1,0.8-0.1c0.3-0.2,0.4-0.4,0.5-0.7c1.2-7.4,7.5-12.7,14.9-12.7
		c2.3,0,4.5,0.5,6.7,1.6c0.3,0.1,0.5,0.1,0.8,0c0.3-0.1,0.5-0.3,0.6-0.6C-7,9.8-1.4,5.9,4.7,5.9c5.1,0,9.8,2.6,12.5,7
		c0.2,0.3,0.6,0.5,1,0.5c0.6-0.1,1-0.1,1.5-0.1c5.4,0,9.7,4.4,9.7,9.7c0,0.4,0,0.8-0.1,1.3c0,0.3,0,0.5,0.2,0.7
		c0.2,0.2,0.4,0.3,0.7,0.4c8.4,1,15.5,6.6,18.5,14.5H-59.2C-56.1,32.2-48.6,27-40.1,27z"/>
	<path class="st1" d="M191.2,79.3h115.3c0.3,0,0.6-0.1,0.8-0.4c0.2-0.2,0.3-0.6,0.2-0.9c-2.1-8.3-9.5-14.1-18.1-14.1
		c-2.5,0-4.9,0.5-7.3,1.5c-3.7-10.7-13.9-18.1-25.3-18.1c-14,0-25.6,11-26.7,24.8c-3.3-1-6.9-1.3-10.4-0.9
		c-2.3-5.9-7.9-9.8-14.3-9.8c-8.5,0-15.3,6.9-15.3,15.3c0,0.6,0,1.2,0.1,1.8C190.2,79,190.7,79.3,191.2,79.3z M205.4,63.3
		c5.8,0,10.9,3.7,12.7,9.3c0.2,0.5,0.6,0.8,1.1,0.7c3.9-0.6,7.9-0.2,11.5,1.1c0.3,0.1,0.6,0.1,0.9-0.1c0.3-0.2,0.4-0.5,0.4-0.8
		c0.3-13.3,11.4-24.2,24.7-24.2c10.9,0,20.7,7.3,23.8,17.8c0.1,0.3,0.3,0.5,0.6,0.6c0.3,0.1,0.6,0.1,0.8,0c2.3-1.2,4.8-1.8,7.4-1.8
		c7.2,0,13.5,4.6,15.8,11.3h-113c0-0.2,0-0.4,0-0.7C192.1,69.3,198.1,63.3,205.4,63.3z"/>
	<path class="st1" d="M424.9,47.7h114c0.4,0,0.7-0.2,0.9-0.5s0.2-0.7-0.1-1c-4-5.9-10.7-9.4-17.8-9.4c-0.2,0-0.4,0-0.5,0
		c0.5-1.2,0.7-2.5,0.7-3.8c0-6-4.9-10.8-10.8-10.8c-6,0-10.8,4.9-10.8,10.8c0,0.6,0,1.2,0.1,1.8c-4.3-2.1-9.3-2.5-14-1.2
		c-2.7-7.1-9.3-11.6-16.7-11.6c-5.8,0-11.2,2.8-14.5,7.5c-2.7-1-5.4-1.5-8.3-1.5c-11.1,0-20.7,7.6-23.1,18.4c-0.1,0.3,0,0.6,0.2,0.8
		C424.3,47.5,424.6,47.7,424.9,47.7z M447.1,30c2.9,0,5.7,0.6,8.3,1.6c0.4,0.2,1,0,1.2-0.4c2.9-4.5,7.9-7.3,13.3-7.3
		c6.9,0,12.9,4.4,15.1,10.9c0.1,0.3,0.3,0.5,0.5,0.6c0.2,0.1,0.5,0.1,0.8,0.1c5.2-1.7,10.9-1,15.4,1.9c0.4,0.2,0.8,0.2,1.2-0.1
		c0.3-0.3,0.4-0.8,0.3-1.2c-0.5-1.1-0.7-2.3-0.7-3.5c0-4.9,4-8.8,8.8-8.8c4.9,0,8.8,4,8.8,8.8c0,1.6-0.4,3.1-1.2,4.4
		c-0.2,0.3-0.2,0.7,0,1c0.2,0.3,0.6,0.5,0.9,0.5c0.7-0.1,1.4-0.1,2.1-0.1c5.8,0,11.3,2.6,15,7H426.2C428.9,36.4,437.3,30,447.1,30z"
		/>
</g>
<g class="st0">
	<path class="st1" d="M1421.4,180.7h11.5c0.6,0,1-0.4,1-1v-18c0-0.6-0.4-1-1-1h-11.5c-0.6,0-1,0.4-1,1v18
		C1420.4,180.3,1420.9,180.7,1421.4,180.7z M1422.4,178.7v-12h9.5v12H1422.4z M1431.9,162.7v2h-9.5v-2H1431.9z"/>
	<path class="st1" d="M1437.9,180.7h11.5c0.6,0,1-0.4,1-1v-18c0-0.6-0.4-1-1-1h-11.5c-0.6,0-1,0.4-1,1v18
		C1436.9,180.3,1437.4,180.7,1437.9,180.7z M1438.9,178.7v-12h9.5v12H1438.9z M1448.4,162.7v2h-9.5v-2H1448.4z"/>
	<path class="st1" d="M1493.3,180.7h11.5c0.6,0,1-0.4,1-1v-18c0-0.6-0.4-1-1-1h-11.5c-0.6,0-1,0.4-1,1v18
		C1492.3,180.3,1492.8,180.7,1493.3,180.7z M1494.3,178.7v-12h9.5v12H1494.3z M1503.8,162.7v2h-9.5v-2H1503.8z"/>
	<path class="st1" d="M1476.8,180.7h11.5c0.6,0,1-0.4,1-1v-18c0-0.6-0.4-1-1-1h-11.5c-0.6,0-1,0.4-1,1v18
		C1475.8,180.3,1476.3,180.7,1476.8,180.7z M1477.8,178.7v-12h9.5v12H1477.8z M1487.3,162.7v2h-9.5v-2H1487.3z"/>
	<path class="st1" d="M1457.4,156.2h11.5c0.6,0,1-0.4,1-1v-11.5c0-0.6-0.4-1-1-1h-11.5c-0.6,0-1,0.4-1,1v11.5
		C1456.4,155.8,1456.8,156.2,1457.4,156.2z M1458.4,144.7h9.5v9.5h-9.5V144.7z"/>
	<path class="st1" d="M1200.2,199.2h1.5h15h1.5c0.6,0,1-0.4,1-1c0-0.6-0.4-1-1-1h-0.5v-20c0-0.6-0.4-1-1-1h-15c-0.6,0-1,0.4-1,1v20
		h-0.5c-0.6,0-1,0.4-1,1C1199.2,198.8,1199.6,199.2,1200.2,199.2z M1215.7,178.2v8.5h-13v-8.5H1215.7z M1202.7,188.7h13v8.5h-13
		V188.7z"/>
	<path class="st1" d="M1242,199.2h1.5h15h1.5c0.6,0,1-0.4,1-1c0-0.6-0.4-1-1-1h-0.5v-30c0-0.6-0.4-1-1-1h-15c-0.6,0-1,0.4-1,1v30
		h-0.5c-0.6,0-1,0.4-1,1C1241,198.8,1241.5,199.2,1242,199.2z M1244.5,178.7h13v8h-13V178.7z M1257.5,168.2v8.5h-13v-8.5H1257.5z
		 M1244.5,188.7h13v8.5h-13V188.7z"/>
	<path class="st1" d="M1285.2,199.2h1.5h15h1.5c0.6,0,1-0.4,1-1c0-0.6-0.4-1-1-1h-0.5v-20c0-0.6-0.4-1-1-1h-15c-0.6,0-1,0.4-1,1v20
		h-0.5c-0.6,0-1,0.4-1,1C1284.2,198.8,1284.6,199.2,1285.2,199.2z M1300.7,178.2v8.5h-13v-8.5H1300.7z M1287.7,188.7h13v8.5h-13
		V188.7z"/>
	<path class="st1" d="M931.7,185.7h22.5c0.6,0,1-0.4,1-1v-22.5c0-0.6-0.4-1-1-1h-22.5c-0.6,0-1,0.4-1,1v22.5
		C930.7,185.3,931.2,185.7,931.7,185.7z M932.7,163.2h20.5v20.5h-20.5V163.2z"/>
	<path class="st1" d="M1014.2,185.7h22.5c0.6,0,1-0.4,1-1v-22.5c0-0.6-0.4-1-1-1h-22.5c-0.6,0-1,0.4-1,1v22.5
		C1013.2,185.3,1013.7,185.7,1014.2,185.7z M1015.2,163.2h20.5v20.5h-20.5V163.2z"/>
	<path class="st1" d="M978.5,174.8H990c0.6,0,1-0.4,1-1v-11.5c0-0.6-0.4-1-1-1h-11.5c-0.6,0-1,0.4-1,1v11.5
		C977.5,174.3,977.9,174.8,978.5,174.8z M979.5,163.3h9.5v9.5h-9.5V163.3z"/>
	<path class="st1" d="M2055.1,244.2c0-0.6-0.4-1-1-1h-14.3v-32.5V200c0-13-10.5-23.5-23.5-23.5c-8.2,0-15.8,4.3-20,11.2
		c-2-0.7-4.1-1-6.2-1c-3.7,0-7.2,1-10.3,2.9v-8.9h3c0.6,0,1-0.4,1-1v-38.9c0-0.6-0.4-1-1-1h-75l-12-10.9c-0.4-0.3-1-0.3-1.3,0
		l-40,36.2c-0.2,0.2-0.3,0.5-0.3,0.8c0,0.3,0.1,0.6,0.4,0.8l3.5,2.8c0.2,0.1,0.4,0.2,0.6,0.2s0.5-0.1,0.7-0.3l1.1-1v11.8
		c-1.7-1-3.6-1.5-5.6-1.5c-2.7,0-5.2,1-7.2,2.7c-2.6-5.7-8.2-9.4-14.6-9.4c-8.5,0-15.4,6.6-16,15c-1-0.2-2.1-0.4-3.2-0.4
		c-7.4,0-13.5,6.1-13.5,13.5v10.6v32.5h-29v-36h7c0.1,0,0.2,0,0.4-0.1c0.1,0,0.1-0.1,0.2-0.1c0,0,0.1,0,0.1-0.1c0,0,0.1-0.1,0.1-0.2
		c0-0.1,0.1-0.1,0.1-0.2c0,0,0-0.1,0-0.2c0-0.1,0-0.2,0-0.2c0-0.1,0-0.1,0-0.2c0-0.1,0-0.1,0-0.2l-16-42c-0.1-0.4-0.5-0.6-0.9-0.6
		h-13v-5h1c0.6,0,1-0.4,1-1v-3c0-0.6-0.4-1-1-1h-14c-0.6,0-1,0.4-1,1v3c0,0.6,0.4,1,1,1h1v5h-69v-5h1c0.6,0,1-0.4,1-1v-3
		c0-0.6-0.4-1-1-1h-14c-0.6,0-1,0.4-1,1v3c0,0.6,0.4,1,1,1h1v5h-7.3c-1.3-2-3-3.8-4.9-5.3c1.5-2.3,2.2-4.8,2.2-7.5
		c0-7.7-6.2-13.9-13.9-13.9c-3.5,0-7,1.4-9.5,3.8c-3.8-4.5-9.3-7-15.2-7c-11,0-20,9-20,20c0,6.6,3.3,12.8,8.7,16.5
		c0,0.1,0,0.2,0,0.4c0,6.8,5.5,12.4,12.4,12.4c0.1,0,0.3,0,0.4,0c1.3,4,3.8,7.6,7.1,10.2c-1.9,8.2-3.5,17.4-4.6,27.4
		c-3.2-8.1-5.9-11.9-7-13.2c1-2.2,1.5-4.5,1.5-6.9c0-9-7.2-16.5-16.2-16.9c-2.4-3.5-6.3-5.5-10.5-5.5c-7,0-12.8,5.7-12.8,12.8
		c0,4.3,2.1,8.2,5.6,10.6c0.5,8.9,7.9,16,16.9,16c4.6,0,9-1.9,12.2-5.2c2.2,3.4,8.6,14.9,8.6,28.3c-0.1,1.4-0.1,2.5-0.1,3.2h-49.5
		v-35.4l4.1,1.9c0.1,0.1,0.3,0.1,0.4,0.1c0.3,0,0.5-0.1,0.7-0.3l3.1-3.1c0.2-0.2,0.3-0.6,0.3-0.9c-0.1-0.3-0.3-0.6-0.6-0.7
		l-43.3-19.9c-0.3-0.1-0.6-0.1-0.8,0l-11.3,5.2v-34.1l8.1,3.7c0.1,0.1,0.3,0.1,0.4,0.1c0.3,0,0.5-0.1,0.7-0.3l3.1-3.1
		c0.2-0.2,0.3-0.6,0.3-0.9c-0.1-0.3-0.3-0.6-0.6-0.7l-61.6-28.4c-0.3-0.1-0.6-0.1-0.8,0l-25.3,11.5v-10.7h0.5c0.6,0,1-0.4,1-1v-4
		c0-0.6-0.4-1-1-1h-18c-0.6,0-1,0.4-1,1v4c0,0.6,0.4,1,1,1h0.5v18.5l-19.3,8.9c-0.3,0.1-0.5,0.4-0.6,0.7c-0.1,0.3,0,0.7,0.3,0.9
		l3.1,3.1c0.3,0.3,0.7,0.4,1.1,0.2l7.2-3.3v33.3l-5,16.4c-0.1,0.3,0,0.6,0.2,0.9c0.2,0.3,0.5,0.4,0.8,0.4h4v36h-21.3v-15h11
		c0.4,0,0.7-0.2,0.9-0.5c0.2-0.3,0.2-0.7,0-1l-8.7-14.5h3.6c0.4,0,0.7-0.2,0.9-0.5c0.2-0.3,0.2-0.7,0-1l-7.9-13.2h2.3
		c0.3,0,0.7-0.2,0.9-0.5c0.2-0.3,0.2-0.7,0-1l-6-12c-0.3-0.7-1.5-0.7-1.8,0l-6,12c-0.2,0.3-0.1,0.7,0,1c0.2,0.3,0.5,0.5,0.9,0.5h2.3
		l-7.9,13.2c-0.2,0.3-0.2,0.7,0,1c0.2,0.3,0.5,0.5,0.9,0.5h3.6l-8.7,14.5c-0.2,0.3-0.2,0.7,0,1s0.5,0.5,0.9,0.5h11v15h-16.7v-34
		c0-0.6-0.4-1-1-1h-3.6c1.2-3.3,1.2-6.8-0.2-10c-1.4-3.3-4-5.9-7.3-7.3c-4.1-1.7-8.8-1.2-12.5,1.2c-2.2-3.1-5.2-5.5-8.7-6.9
		c-5.4-2.2-11.6-1.9-16.7,0.8v-17.9h3c0.6,0,1-0.4,1-1v-4c0-0.6-0.4-1-1-1l-34.6-22.6c-0.2-0.1-0.4-0.2-0.5-0.2h-25.4l-6.5-4.8
		c-0.4-0.3-0.8-0.3-1.2,0l-6.5,4.8h-25.4c-0.2,0-0.4,0.1-0.5,0.2l-34.9,22.8c0,0,0,0-0.1,0.1c-0.1,0-0.1,0.1-0.1,0.1
		s-0.1,0.1-0.1,0.2c0,0.1-0.1,0.1-0.1,0.2s0,0.1,0,0.2v0.1v4c0,0.6,0.4,1,1,1h3v17.9c-3.5-3-8.1-4.7-12.8-4.7
		c-9.4,0-17.3,6.4-19.3,15.5c-0.8-0.2-1.7-0.2-2.5-0.2c-6.7,0-12.4,5-13.3,11.5h-1.1c-0.6,0-1,0.4-1,1v34H1113v-39.5l3.2,1.4
		c0.1,0.1,0.3,0.1,0.4,0.1s0.3,0,0.4-0.1c0.2-0.1,0.4-0.3,0.5-0.5l2.2-5.1c0.2-0.5,0-1.1-0.5-1.3l-13.2-5.7v-12.9
		c2,1.8,4.6,2.9,7.3,2.9c5.9,0,10.7-4.8,10.7-10.7c0-0.9-0.1-1.9-0.4-2.8c4.8-1.5,8.2-6.1,8.2-11.2c0-3.9-1.9-7.5-5.1-9.7
		c2.6-3,4-6.7,4-10.7c0-9-7.3-16.3-16.3-16.3c-4,0-7.8,1.4-10.8,4.1c-3.6-0.9-7.5-0.9-11.1-0.3c-1.5-3.5-5-5.8-8.8-5.8
		c-5.3,0-9.6,4.3-9.6,9.6c0,2.3,0.8,4.4,2.2,6.2c-2.2,2.9-3.8,6.3-4.7,9.8c-7.1,2-11.9,8.3-11.9,15.7c0,9,7.3,16.3,16.3,16.3
		c3.1,0,6-0.8,8.6-2.5c2.9,1.6,6.1,2.6,9.4,3.1v9.9l-16.6-7.1c-0.3-0.1-0.5-0.1-0.8,0l-23.6,10.1v-37.2h6c0.4,0,0.7-0.2,0.9-0.5
		c0.2-0.3,0.2-0.7,0-1l-16-26c-0.2-0.3-0.5-0.5-0.9-0.5h-11v-9.5h1c0.6,0,1-0.4,1-1v-4c0-0.6-0.4-1-1-1h-19c-0.6,0-1,0.4-1,1v4
		c0,0.6,0.4,1,1,1h1v9.5h-89c-0.3,0-0.7,0.2-0.9,0.5l-16,26c-0.2,0.3-0.2,0.7,0,1c0.2,0.3,0.5,0.5,0.9,0.5h6V226c-0.2,0-0.4,0-0.6,0
		c-3.3,0-6.3,1.2-8.7,3.3c-2.3-1.7-5.1-2.7-8-2.7c-7.3,0-13.2,5.9-13.2,13.2c0,1.1,0.1,2.2,0.4,3.3h-3.8c-0.6,0-1,0.4-1,1
		c0,0.6,0.4,1,1,1h5h29.6h9.3h33.2h16h18h16h32.5h10h50h10h26.5h5h5h5h5h5h5h5h5h5h5h44.4h37h45.6h5h5h5h5h5h5h5h5h5h5h18.7h6h23.3
		h15h14.5h47.5h9.8h50h9.8h51.3h4.5h19.6h42.5h17.5h15h17.5h42.5h31h6h4h6h4h6h4h6h4h6h4h6h4h67.5h25.5h22h2.5h4h6h4h6h4h6h4h6h4h6
		h4h6h15.3C2054.6,245.2,2055.1,244.8,2055.1,244.2z M1990.1,188.7c2.2,0,4.3,0.4,6.3,1.2c0.5,0.2,1,0,1.2-0.4
		c3.8-6.7,11-10.9,18.7-10.9c11.9,0,21.5,9.6,21.5,21.5v7.2c-0.6-0.3-1.3-0.6-2-0.6c-2.2,0-4,1.8-4,4v5h-2v-5c0-2.2-1.8-4-4-4
		c-2.2,0-4,1.8-4,4v5h-2v-5c0-2.2-1.8-4-4-4c-2.2,0-4,1.8-4,4v5h-2v-5c0-2.2-1.8-4-4-4c-2.2,0-4,1.8-4,4v5h-2v-5c0-2.2-1.8-4-4-4
		c-2.2,0-4,1.8-4,4v5h-2v-5c0-2.2-1.8-4-4-4c-2.2,0-4,1.8-4,4v5h-2V192C1982.8,189.9,1986.3,188.7,1990.1,188.7z M2029.8,236.2h2v1
		h-2V236.2z M2031.8,234.2h-2v-13.5h2V234.2z M2031.8,218.7h-2v-1h2V218.7z M2029.8,239.2h2v4h-2V239.2z M2019.8,236.2h2v1h-2V236.2
		z M2021.8,234.2h-2v-13.5h2V234.2z M2021.8,218.7h-2v-1h2V218.7z M2019.8,239.2h2v4h-2V239.2z M2009.8,236.2h2v1h-2V236.2z
		 M2011.8,234.2h-2v-13.5h2V234.2z M2011.8,218.7h-2v-1h2V218.7z M2009.8,239.2h2v4h-2V239.2z M1999.8,236.2h2v1h-2V236.2z
		 M2001.8,234.2h-2v-13.5h2V234.2z M2001.8,218.7h-2v-1h2V218.7z M1999.8,239.2h2v4h-2V239.2z M1989.8,236.2h2v1h-2V236.2z
		 M1991.8,234.2h-2v-13.5h2V234.2z M1991.8,218.7h-2v-1h2V218.7z M1989.8,239.2h2v4h-2V239.2z M1981.8,218.7h-2v-1h2V218.7z
		 M1979.8,220.7h2v13.5h-2V220.7z M1979.8,236.2h2v1h-2V236.2z M1978.8,178.7h-49v-1.9l1,0.8c0.4,0.3,0.9,0.3,1.3,0l3-2.5l3,2.5
		c0.4,0.3,0.9,0.3,1.3,0l3-2.5l3,2.5c0.4,0.3,0.9,0.3,1.3,0l3-2.5l3,2.5c0.4,0.3,0.9,0.3,1.3,0l3-2.5l3,2.5c0.4,0.3,0.9,0.3,1.3,0
		l3-2.5l3,2.5c0.4,0.3,0.9,0.3,1.3,0l3-2.5l3,2.5c0.4,0.3,0.9,0.3,1.3,0l3-2.5l2.7,2.2v1.4H1978.8z M1930.3,168.9
		c0.4,0.3,0.9,0.3,1.3,0l3.5-2.8c0.2-0.2,0.3-0.4,0.4-0.7l2.6,2.2c0.4,0.3,0.9,0.3,1.3,0l3-2.5l3,2.5c0.4,0.3,0.9,0.3,1.3,0l3-2.5
		l3,2.5c0.4,0.3,0.9,0.3,1.3,0l3-2.5l3,2.5c0.4,0.3,0.9,0.3,1.3,0l3-2.5l3,2.5c0.4,0.3,0.9,0.3,1.3,0l3-2.5l3,2.5
		c0.4,0.3,0.9,0.3,1.3,0l3-2.5l2.7,2.2v2.4l-2-1.7c-0.4-0.3-0.9-0.3-1.3,0l-3,2.5l-3-2.5c-0.4-0.3-0.9-0.3-1.3,0l-3,2.5l-3-2.5
		c-0.4-0.3-0.9-0.3-1.3,0l-3,2.5l-3-2.5c-0.4-0.3-0.9-0.3-1.3,0l-3,2.5l-3-2.5c-0.4-0.3-0.9-0.3-1.3,0l-3,2.5l-3-2.5
		c-0.4-0.3-0.9-0.3-1.3,0l-3,2.5l-3-2.5c-0.4-0.3-0.9-0.3-1.3,0l-3,2.5l-1.6-1.3v-0.8L1930.3,168.9z M1929.8,171.8l1,0.8
		c0.4,0.3,0.9,0.3,1.3,0l3-2.5l3,2.5c0.4,0.3,0.9,0.3,1.3,0l3-2.5l3,2.5c0.4,0.3,0.9,0.3,1.3,0l3-2.5l3,2.5c0.4,0.3,0.9,0.3,1.3,0
		l3-2.5l3,2.5c0.4,0.3,0.9,0.3,1.3,0l3-2.5l3,2.5c0.4,0.3,0.9,0.3,1.3,0l3-2.5l3,2.5c0.4,0.3,0.9,0.3,1.3,0l3-2.5l2.7,2.2v2.4
		l-2-1.7c-0.4-0.3-0.9-0.3-1.3,0l-3,2.5l-3-2.5c-0.4-0.3-0.9-0.3-1.3,0l-3,2.5l-3-2.5c-0.4-0.3-0.9-0.3-1.3,0l-3,2.5l-3-2.5
		c-0.4-0.3-0.9-0.3-1.3,0l-3,2.5l-3-2.5c-0.4-0.3-0.9-0.3-1.3,0l-3,2.5l-3-2.5c-0.4-0.3-0.9-0.3-1.3,0l-3,2.5l-3-2.5
		c-0.4-0.3-0.9-0.3-1.3,0l-3,2.5l-1.6-1.3L1929.8,171.8L1929.8,171.8z M1981.8,149.8l-2-1.7c-0.4-0.3-0.9-0.3-1.3,0l-3,2.5l-3-2.5
		c-0.4-0.3-0.9-0.3-1.3,0l-3,2.5l-3-2.5c-0.4-0.3-0.9-0.3-1.3,0l-3,2.5l-3-2.5c-0.4-0.3-0.9-0.3-1.3,0l-3,2.5l-3-2.5
		c-0.4-0.3-0.9-0.3-1.3,0l-3,2.5l-3-2.5c-0.4-0.3-0.9-0.3-1.3,0l-3,2.5l-3-2.5c-0.4-0.3-0.9-0.3-1.3,0l-3,2.5l-2.9-2.5
		c-0.4-0.3-1-0.3-1.3,0l-2.6,2.4l-3.1-2.5c-0.4-0.3-0.9-0.3-1.2,0l-1.8,1.4l-4.7-4.2l0.4-0.2l3.1,2.6c0.4,0.3,1,0.3,1.3-0.1l2.3-2.2
		l2.7,2.4c0.4,0.3,0.9,0.3,1.3,0l2.9-2.5l3,2.5c0.4,0.3,0.9,0.3,1.3,0l3-2.5l3,2.5c0.4,0.3,0.9,0.3,1.3,0l3-2.5l3,2.5
		c0.4,0.3,0.9,0.3,1.3,0l3-2.5l3,2.5c0.4,0.3,0.9,0.3,1.3,0l3-2.5l3,2.5c0.4,0.3,0.9,0.3,1.3,0l3-2.5l3,2.5c0.4,0.3,0.9,0.3,1.3,0
		l3-2.5l3,2.5c0.4,0.3,0.9,0.3,1.3,0l3-2.5l2.7,2.2L1981.8,149.8L1981.8,149.8z M1920.8,150.1l3.2,2.5c0.4,0.3,0.9,0.3,1.3,0
		l2.6-2.4l2.9,2.4c0.4,0.3,0.9,0.3,1.3,0l3-2.5l3,2.5c0.4,0.3,0.9,0.3,1.3,0l3-2.5l3,2.5c0.4,0.3,0.9,0.3,1.3,0l3-2.5l3,2.5
		c0.4,0.3,0.9,0.3,1.3,0l3-2.5l3,2.5c0.4,0.3,0.9,0.3,1.3,0l3-2.5l3,2.5c0.4,0.3,0.9,0.3,1.3,0l3-2.5l3,2.5c0.4,0.3,0.9,0.3,1.3,0
		l3-2.5l2.7,2.2v2.4l-2-1.7c-0.4-0.3-0.9-0.3-1.3,0l-3,2.5l-3-2.5c-0.4-0.3-0.9-0.3-1.3,0l-3,2.5l-3-2.5c-0.4-0.3-0.9-0.3-1.3,0
		l-3,2.5l-3-2.5c-0.4-0.3-0.9-0.3-1.3,0l-3,2.5l-3-2.5c-0.4-0.3-0.9-0.3-1.3,0l-3,2.5l-3-2.5c-0.4-0.3-0.9-0.3-1.3,0l-3,2.5l-3-2.5
		c-0.4-0.3-0.9-0.3-1.3,0l-3,2.5l-3-2.5c-0.4-0.3-0.9-0.3-1.3,0l-2.5,2l-4.8-4.3L1920.8,150.1z M1927.7,155.2l3,2.5
		c0.4,0.3,0.9,0.3,1.3,0l3-2.5l3,2.5c0.4,0.3,0.9,0.3,1.3,0l3-2.5l3,2.5c0.4,0.3,0.9,0.3,1.3,0l3-2.5l3,2.5c0.4,0.3,0.9,0.3,1.3,0
		l3-2.5l3,2.5c0.4,0.3,0.9,0.3,1.3,0l3-2.5l3,2.5c0.4,0.3,0.9,0.3,1.3,0l3-2.5l3,2.5c0.4,0.3,0.9,0.3,1.3,0l3-2.5l2.7,2.2v2.4
		l-2-1.7c-0.4-0.3-0.9-0.3-1.3,0l-3,2.5l-3-2.5c-0.4-0.3-0.9-0.3-1.3,0l-3,2.5l-3-2.5c-0.4-0.3-0.9-0.3-1.3,0l-3,2.5l-3-2.5
		c-0.4-0.3-0.9-0.3-1.3,0l-3,2.5l-3-2.5c-0.4-0.3-0.9-0.3-1.3,0l-3,2.5l-3-2.5c-0.4-0.3-0.9-0.3-1.3,0l-3,2.5l-3-2.5
		c-0.4-0.3-0.9-0.3-1.3,0l-3.4,2.8l-4.9-4.4L1927.7,155.2z M1935.1,160.2l3,2.5c0.4,0.3,0.9,0.3,1.3,0l3-2.5l3,2.5
		c0.4,0.3,0.9,0.3,1.3,0l3-2.5l3,2.5c0.4,0.3,0.9,0.3,1.3,0l3-2.5l3,2.5c0.4,0.3,0.9,0.3,1.3,0l3-2.5l3,2.5c0.4,0.3,0.9,0.3,1.3,0
		l3-2.5l3,2.5c0.4,0.3,0.9,0.3,1.3,0l3-2.5l2.7,2.2v2.4l-2-1.7c-0.4-0.3-0.9-0.3-1.3,0l-3,2.5l-3-2.5c-0.4-0.3-0.9-0.3-1.3,0l-3,2.5
		l-3-2.5c-0.4-0.3-0.9-0.3-1.3,0l-3,2.5l-3-2.5c-0.4-0.3-0.9-0.3-1.3,0l-3,2.5l-3-2.5c-0.4-0.3-0.9-0.3-1.3,0l-3,2.5l-3-2.5
		c-0.4-0.3-0.9-0.3-1.3,0l-3,2.5l-3-2.5c-0.4-0.3-0.9-0.3-1.3,0l-0.5,0.4l-1.4-1.3L1935.1,160.2z M1981.8,141.9v2.9l-2-1.7
		c-0.4-0.3-0.9-0.3-1.3,0l-3,2.5l-3-2.5c-0.4-0.3-0.9-0.3-1.3,0l-3,2.5l-3-2.5c-0.4-0.3-0.9-0.3-1.3,0l-3,2.5l-3-2.5
		c-0.4-0.3-0.9-0.3-1.3,0l-3,2.5l-3-2.5c-0.4-0.3-0.9-0.3-1.3,0l-3,2.5l-3-2.5c-0.4-0.3-0.9-0.3-1.3,0l-3,2.5l-3-2.5
		c-0.4-0.3-0.9-0.3-1.3,0l-3,2.5l-3-2.5c-0.4-0.3-0.9-0.3-1.3,0l-2.9,2.4l-2.7-2.4c-0.4-0.3-1-0.3-1.4,0l-2.3,2.3l-3-2.4
		c-0.3-0.3-0.8-0.3-1.1-0.1l-1.6,0.9l-2.1-1.9H1981.8L1981.8,141.9z M1858.5,167.4l-1.9-1.5l38.5-34.8l37.9,34.2l-1.9,1.5l-1.5-1.4
		l-33.7-30.5c-0.4-0.3-1-0.3-1.3,0l-33.8,30.5L1858.5,167.4z M1858.3,236.2h2v1h-2V236.2z M1860.3,234.2h-2v-13.5h2V234.2z
		 M1860.3,218.7h-2v-1h2V218.7z M1858.3,239.2h2v4h-2V239.2z M1813.8,188.6c1.3,0,2.6,0.2,3.8,0.6c0.3,0.1,0.7,0.1,0.9-0.1
		c0.3-0.2,0.4-0.5,0.4-0.8V188c0-7.7,6.3-14,14-14c6,0,11.3,3.8,13.2,9.5c0.1,0.3,0.4,0.6,0.8,0.7c0.4,0.1,0.7-0.1,0.9-0.3
		c1.7-2,4.2-3.1,6.8-3.1c2.1,0,4,0.7,5.6,2v33h-2v-5c0-2.2-1.8-4-4-4s-4,1.8-4,4v5h-2v-5c0-2.2-1.8-4-4-4s-4,1.8-4,4v5h-2v-5
		c0-2.2-1.8-4-4-4s-4,1.8-4,4v5h-2v-5c0-2.2-1.8-4-4-4s-4,1.8-4,4v5h-2v-5c0-2.2-1.8-4-4-4s-4,1.8-4,4v5h-2v-5c0-2.2-1.8-4-4-4
		c-0.7,0-1.4,0.2-2,0.6v-7.1C1802.3,193.8,1807.5,188.6,1813.8,188.6z M1848.3,236.2h2v1h-2V236.2z M1850.3,234.2h-2v-13.5h2V234.2z
		 M1850.3,218.7h-2v-1h2V218.7z M1848.3,239.2h2v4h-2V239.2z M1838.3,236.2h2v1h-2V236.2z M1840.3,234.2h-2v-13.5h2V234.2z
		 M1840.3,218.7h-2v-1h2V218.7z M1838.3,239.2h2v4h-2V239.2z M1828.3,236.2h2v1h-2V236.2z M1830.3,234.2h-2v-13.5h2V234.2z
		 M1830.3,218.7h-2v-1h2V218.7z M1828.3,239.2h2v4h-2V239.2z M1818.3,236.2h2v1h-2V236.2z M1820.3,234.2h-2v-13.5h2V234.2z
		 M1820.3,218.7h-2v-1h2V218.7z M1818.3,239.2h2v4h-2V239.2z M1808.3,236.2h2v1h-2V236.2z M1810.3,234.2h-2v-13.5h2V234.2z
		 M1810.3,218.7h-2v-1h2V218.7z M1808.3,239.2h2v4h-2V239.2z M1776.8,205.2h-36.5l-37.1-20.8c-0.3-0.2-0.7-0.2-1,0l-37,20.7h-36.6
		l3.2-8.3l12.1-31.7h4.5h8.8h10h71h10h13.3L1776.8,205.2z M1710.2,216.2h-15c-0.6,0-1,0.4-1,1v26h-15.5v-36.4l24-13.5l24,13.4v36.4
		h-15.5v-26C1711.2,216.7,1710.8,216.2,1710.2,216.2z M1703.2,191.3c-0.3-0.2-0.7-0.2-1,0l-0.5,0.3l-24.5,13.7l-0.1,0.1l-8.4,4.7
		l-2-3.5l35.9-20.1l36,20.1l-2,3.5L1703.2,191.3z M1621.2,195.6c2.6,1.2,5.4,1.9,8.3,2l-3.2,8.3c0,0.1,0,0.1,0,0.2
		c0,0.1,0,0.1,0,0.2c0,0.1,0,0.2,0,0.2v0.1c0,0.1,0.1,0.1,0.1,0.2c0,0.1,0.1,0.1,0.1,0.2l0.1,0.1c0.1,0,0.1,0.1,0.2,0.1
		c0.1,0,0.2,0.1,0.4,0.1h7v36h-17.6C1616.5,238.5,1616.2,216.9,1621.2,195.6z M1737.2,155.2h12v1h-1h-10h-1V155.2z M1739.2,158.2h8
		v5h-8V158.2z M1656.2,155.2h12v1h-1h-10h-1V155.2z M1658.2,158.2h8v5h-8V158.2z M1524.9,186.8l41.6,19.1l-1.6,1.6l-4.8-2.2
		l-34.8-16c-0.3-0.1-0.6-0.1-0.8,0l-34.7,16l-4.8,2.2l-1.6-1.6L1524.9,186.8z M1420.9,123.3h16v2h-0.5h-15h-0.5V123.3z
		 M1422.4,127.3h13v11.6l-13,6V127.3z M1404.8,157.5l-1.6-1.6l59.9-27.6l59.9,27.6l-1.6,1.6l-57.9-26.7c-0.1-0.1-0.3-0.1-0.4-0.1
		s-0.3,0-0.4,0.1l-49.8,22.9c-0.1,0-0.2,0.1-0.2,0.1L1404.8,157.5z M1463.1,132.8l48,22.1v33.8h-97v-33.3L1463.1,132.8z
		 M1413.9,190.7h97.3v0.2l-30,13.8c-0.2,0.1-0.4,0.3-0.5,0.5h-71.2L1413.9,190.7z M1332.1,187.1c3.5,1.4,6.3,3.8,8.3,7
		c0.2,0.2,0.4,0.4,0.7,0.5c0.3,0.1,0.6,0,0.8-0.2c3.2-2.5,7.6-3.1,11.4-1.6c2.8,1.2,5.1,3.4,6.3,6.2c1.2,2.8,1.2,6,0,8.8
		c-0.1,0.2-0.1,0.3-0.2,0.5h-4.2h-5h-5h-5h-5h-5h-5h-5h-4v-19.8C1321,185.4,1326.9,184.9,1332.1,187.1z M1283.7,141.5l31.8,20.8
		h-25.9l-28.3-20.8H1283.7z M1219.3,141.5h22.4l-28.3,20.8h-25.9L1219.3,141.5z M1185.2,164.2h28.6c0.2,0,0.4-0.1,0.6-0.2l37.1-27.3
		l37.1,27.3c0.2,0.1,0.4,0.2,0.6,0.2h28.9v2h-3h-26.9l-36.1-26.5c-0.4-0.3-0.8-0.3-1.2,0l-36.2,26.6h-26.6h-3L1185.2,164.2
		L1185.2,164.2z M1152.6,198.7c1,0,2,0.1,3,0.4c0.3,0.1,0.6,0,0.8-0.1c0.2-0.2,0.4-0.4,0.4-0.7c1.4-8.6,8.8-14.9,17.5-14.9
		c4.8,0,9.4,2,12.8,5.4v19.3h-4h-5h-5h-5h-5h-5h-5h-5h-5h-1.9C1142.3,202.8,1147.1,198.7,1152.6,198.7z M1095.7,188.3v-11.6
		c0-0.5-0.4-0.9-0.9-1c-3.5-0.3-6.9-1.4-10-3.2c-0.3-0.2-0.7-0.2-1.1,0c-2.4,1.6-5.2,2.5-8,2.5c-7.9,0-14.3-6.4-14.3-14.3
		c0-6.7,4.5-12.4,11-13.9c0.4-0.1,0.7-0.4,0.7-0.8c0.8-3.7,2.5-7.3,4.9-10.2c0.3-0.4,0.3-1-0.1-1.3c-1.4-1.4-2.2-3.4-2.2-5.4
		c0-4.2,3.4-7.6,7.6-7.6c3.3,0,6.2,2.1,7.2,5.2c0.2,0.5,0.7,0.8,1.2,0.7c3.8-0.8,7.8-0.8,11.5,0.2c0.3,0.1,0.7,0,0.9-0.2
		c2.7-2.5,6.1-3.9,9.8-3.9c7.9,0,14.3,6.4,14.3,14.3c0,3.8-1.5,7.5-4.2,10.2c-0.2,0.2-0.3,0.5-0.3,0.9c0,0.3,0.2,0.6,0.5,0.7
		c3.2,1.7,5.1,5,5.1,8.6c0,4.5-3.2,8.5-7.6,9.5c-0.3,0.1-0.5,0.2-0.7,0.5c-0.1,0.3-0.2,0.6-0.1,0.8c0.4,1,0.6,2,0.6,3.1
		c0,4.8-3.9,8.7-8.7,8.7c-3.1,0-5.9-1.6-7.5-4.3c-0.2-0.4-0.7-0.6-1.1-0.5s-0.7,0.5-0.7,1v14.8l-5.9-2.5L1095.7,188.3z
		 M1076.7,182.3l24,10.3l3.6,1.6l12.9,5.5l-1.4,3.2l-38.7-16.6c-0.1-0.1-0.3-0.1-0.4-0.1s-0.3,0-0.4,0.1l-35,15l-3.7,1.6l-1.4-3.2
		L1076.7,182.3z M1014.7,111.7h17v2h-1h-15h-1V111.7z M1016.7,115.7h13v9.5h-13V115.7z M926.3,127.2h89.4h15h11.4l14.8,24h-5.2h-135
		h-5.2L926.3,127.2z M917.7,153.2h133v38.1l-16.2,7c-0.5,0.2-0.7,0.8-0.5,1.3l2.2,5.1c0.1,0.2,0.3,0.4,0.5,0.5
		c0.2,0.1,0.5,0.1,0.8,0l3.2-1.4v39.5h-30.5V204l2.7,1.6c0.2,0.1,0.3,0.1,0.5,0.1c0.3,0,0.7-0.2,0.9-0.5l2.8-4.7
		c0.1-0.2,0.2-0.5,0.1-0.8s-0.2-0.5-0.5-0.6l-32-19.1c-0.3-0.2-0.7-0.2-1,0l-32.1,19.2c-0.2,0.1-0.4,0.4-0.5,0.6
		c-0.1,0.3,0,0.5,0.1,0.8l2.8,4.7c0.3,0.5,0.9,0.6,1.4,0.3l2.7-1.6v39.2h-30.6c0.4-1.3,0.7-2.7,0.7-4.1c0-6.3-4.5-11.5-10.4-12.7
		L917.7,153.2L917.7,153.2z M955.3,203.4l-1.8-3l30.7-18.4l30.7,18.4l-1.8,3l-28.4-17c-0.3-0.2-0.7-0.2-1,0L955.3,203.4z
		 M916.7,243.2h-28.9c-0.3-1.1-0.5-2.2-0.5-3.3c0-6.2,5-11.2,11.2-11.2c2.7,0,5.3,1,7.4,2.8c0.4,0.4,1,0.3,1.4-0.1
		c2.1-2.2,4.9-3.4,7.9-3.4c6.1,0,11,4.9,11,11c0,1.4-0.3,2.8-0.8,4.1L916.7,243.2L916.7,243.2z M976.2,243.2v-30.5h16v30.5H976.2z
		 M994.2,243.2v-31.5c0-0.6-0.4-1-1-1h-18c-0.6,0-1,0.4-1,1v31.5h-14v-40.4l24-14.4l24,14.4v40.4H994.2z M1100.7,220.7v1.5h-48v-1.5
		H1100.7z M1052.7,218.7v-1.5h48v1.5H1052.7z M1100.7,224.2v1.5h-48v-1.5H1100.7z M1100.7,227.7v1.5h-48v-1.5H1100.7z M1100.7,231.2
		v1.5h-48v-1.5H1100.7z M1100.7,234.7v1.5h-48v-1.5H1100.7z M1100.7,215.2h-48v-1.5h48V215.2z M1052.7,238.2h48v1.5h-48V238.2z
		 M1100.7,211.7h-48v-1.5h48V211.7z M1052.7,243.2v-1.5h48v1.5H1052.7z M1102.7,243.2v-34c0-0.6-0.4-1-1-1h-50c-0.6,0-1,0.4-1,1v34
		h-8v-40.3l34-14.6l34,14.6v40.3H1102.7z M1139.2,210.2h3v33h-3V210.2z M1144.2,210.2h3v33h-3V210.2z M1149.2,210.2h3v33h-3V210.2z
		 M1154.2,210.2h3v33h-3V210.2z M1159.2,210.2h3v33h-3V210.2z M1164.2,210.2h3v33h-3V210.2z M1169.2,210.2h3v33h-3V210.2z
		 M1174.2,210.2h3v33h-3V210.2z M1179.2,210.2h3v33h-3V210.2z M1184.2,210.2h3v33h-3V210.2z M1189.2,209.2v-41h25.9
		c0.2,0,0.4-0.1,0.6-0.2l35.8-26.3l35.8,26.3c0.2,0.1,0.4,0.2,0.6,0.2h26.2v41v34h-43.6v-2c0-0.6-0.4-1-1-1h-1v-2c0-0.6-0.4-1-1-1
		h-1.5v-29h2.5c0.6,0,1-0.4,1-1v-3c0-0.6-0.4-1-1-1h-35c-0.6,0-1,0.4-1,1v3c0,0.6,0.4,1,1,1h2.5v29h-1.5c-0.6,0-1,0.4-1,1v2h-1
		c-0.6,0-1,0.4-1,1v2h-42.4L1189.2,209.2L1189.2,209.2z M1265,206.2h-28h-2.5v-1h33v1H1265z M1238,208.2h26v29h-26V208.2z
		 M1237,239.2h28h1.5v1h-31v-1H1237z M1233.5,243.2v-1h1h33h1v1H1233.5z M1316.2,210.2h3v33h-3V210.2z M1321.2,210.2h3v33h-3V210.2z
		 M1326.2,210.2h3v33h-3V210.2z M1331.2,210.2h3v33h-3V210.2z M1336.2,210.2h3v33h-3V210.2z M1341.2,210.2h3v33h-3V210.2z
		 M1346.2,210.2h3v33h-3V210.2z M1351.2,210.2h3v33h-3V210.2z M1356.2,210.2h3v33h-3V210.2z M1361.2,243.2v-33h3v33H1361.2z
		 M1384.9,243.2v-16c0-0.6-0.4-1-1-1h-10.2l8.7-14.5c0.2-0.3,0.2-0.7,0-1c-0.2-0.3-0.5-0.5-0.9-0.5h-3.6l7.9-13.2
		c0.2-0.3,0.2-0.7,0-1c-0.2-0.3-0.5-0.5-0.9-0.5h-2.4l4.4-8.8l4.4,8.8h-2.4c-0.4,0-0.7,0.2-0.9,0.5c-0.2,0.3-0.2,0.7,0,1l7.9,13.2
		h-3.6c-0.4,0-0.7,0.2-0.9,0.5c-0.2,0.3-0.2,0.7,0,1l8.7,14.5h-10.2c-0.6,0-1,0.4-1,1v16H1384.9z M1414.2,207.2h67.6l2.2,2.2
		c0.3,0.3,0.7,0.4,1.1,0.2l4.1-1.9v35.4h-45.5v-26.5c0-0.6-0.4-1-1-1h-14.5c-0.6,0-1,0.4-1,1v26.5h-13V207.2L1414.2,207.2z
		 M1429.2,243.2v-25.5h12.5v25.5H1429.2z M1500.9,243.2v-25.5h48v25.5H1500.9z M1550.9,243.2v-26.5c0-0.6-0.4-1-1-1h-50
		c-0.6,0-1,0.4-1,1v26.5h-7.8v-36.4l33.8-15.5l33.8,15.5v36.4H1550.9z M1612.2,243.2c0-0.7,0.1-1.8,0.1-3.2v-0.1
		c0-15.6-8.3-28.3-9.5-30.2c-0.1-0.2-0.2-0.4-0.4-0.5c-0.4-0.3-1-0.2-1.4,0.2c-2.9,3.5-7.1,5.5-11.6,5.5c-8,0-14.7-6.6-14.9-14.6
		c0-0.3-0.2-0.7-0.5-0.8c-3.2-2-5.1-5.4-5.1-9.2c0-5.9,4.8-10.8,10.8-10.8c3.7,0,7.1,1.9,9.1,5c0.2,0.3,0.5,0.5,0.8,0.5
		c8.1,0.1,14.8,6.8,14.8,14.9c0,2.4-0.5,4.6-1.6,6.8c-0.2,0.5-0.1,1.1,0.4,1.3c0.1,0,0.1,0.1,0.2,0.1c1,1.2,4.3,5.8,8.1,16.5
		c0.1,0.5,0.4,0.8,0.9,0.9c0.6,0,1-0.4,1.1-0.9c1.1-11.9,2.9-22.7,5.2-32.1c0.1-0.4-0.1-0.8-0.4-1c-3.4-2.6-6-6.3-7.2-10.4
		c-0.1-0.5-0.6-0.8-1.1-0.7c-0.3,0-0.7,0.1-1.1,0.1c-5.7,0-10.4-4.7-10.4-10.4c0-0.3,0-0.5,0-0.8c0-0.4-0.1-0.7-0.5-0.9
		c-5.2-3.3-8.3-9-8.3-15.1c0-9.9,8.1-18,18-18c5.7,0,10.9,2.6,14.3,7.1c0.2,0.2,0.5,0.4,0.8,0.4c0.3,0,0.6-0.1,0.8-0.3
		c2.3-2.5,5.5-4,8.9-4c6.6,0,11.9,5.3,11.9,11.9c0,2.6-0.8,5.1-2.4,7.2c-0.2,0.2-0.2,0.5-0.2,0.8c0,0.3,0.2,0.5,0.4,0.7
		c1.7,1.2,3.2,2.7,4.4,4.3h-3.3c-0.4,0-0.8,0.3-0.9,0.6l-12.1,31.7c-3.2,0-6.4-0.8-9.3-2.3c-0.3-0.1-0.6-0.2-0.9,0
		c-0.3,0.1-0.5,0.4-0.6,0.7c-5.3,21.8-5,44.3-4.9,49.3h-2.4V243.2z M1636.2,207.2h28.6l2.7,4.8c0.1,0.2,0.3,0.4,0.6,0.5
		c0.1,0,0.2,0,0.3,0c0.2,0,0.3,0,0.5-0.1l7.8-4.4v35.3h-40.5V207.2z M1696.2,243.2v-25h13v25H1696.2z M1728.7,243.2v-35.3l7.9,4.4
		c0.5,0.3,1.1,0.1,1.4-0.4l2.7-4.7h28.6v36H1728.7z M1802.3,243.2v-32.5c0-1.1,0.9-2,2-2c1.1,0,2,0.9,2,2v6v3v15.5v3v5H1802.3z
		 M1812.3,243.2v-5v-3v-15.5v-3v-6c0-1.1,0.9-2,2-2c1.1,0,2,0.9,2,2v6v3v15.5v3v5H1812.3z M1822.3,243.2v-5v-3v-15.5v-3v-6
		c0-1.1,0.9-2,2-2c1.1,0,2,0.9,2,2v6v3v15.5v3v5H1822.3z M1832.3,243.2v-5v-3v-15.5v-3v-6c0-1.1,0.9-2,2-2c1.1,0,2,0.9,2,2v6v3v15.5
		v3v5H1832.3z M1842.3,243.2v-5v-3v-15.5v-3v-6c0-1.1,0.9-2,2-2c1.1,0,2,0.9,2,2v6v3v15.5v3v5H1842.3z M1852.3,243.2v-5v-3v-15.5v-3
		v-6c0-1.1,0.9-2,2-2c1.1,0,2,0.9,2,2v6v3v15.5v3v5H1852.3z M1862.3,238.2v-3v-15.5v-3v-50.1l32.8-29.6l32.7,29.6v13.1v63.5h-65.5
		V238.2z M1929.8,180.7h48v10.8v51.7h-0.5v-2.5c0-0.6-0.4-1-1-1h-0.5v-3c0-0.6-0.4-1-1-1h-1v-25c0-0.6-0.4-1-1-1h-15
		c-0.6,0-1,0.4-1,1v25h-1c-0.6,0-1,0.4-1,1v3h-0.5c-0.6,0-1,0.4-1,1v2.5h-23.5V180.7z M1971.8,235.7h-13v-24h13V235.7z
		 M1957.8,237.7h15h1v2h-17v-2H1957.8z M1955.3,243.2v-1.5h0.5h19h0.5v1.5H1955.3z M1979.8,239.2h2v4h-2V239.2z M1983.8,243.2v-5v-3
		v-15.5v-3v-6c0-1.1,0.9-2,2-2c1.1,0,2,0.9,2,2v6v3v15.5v3v5H1983.8z M1993.8,243.2v-5v-3v-15.5v-3v-6c0-1.1,0.9-2,2-2
		c1.1,0,2,0.9,2,2v6v3v15.5v3v5H1993.8z M2003.8,243.2v-5v-3v-15.5v-3v-6c0-1.1,0.9-2,2-2c1.1,0,2,0.9,2,2v6v3v15.5v3v5H2003.8z
		 M2013.8,243.2v-5v-3v-15.5v-3v-6c0-1.1,0.9-2,2-2c1.1,0,2,0.9,2,2v6v3v15.5v3v5H2013.8z M2023.8,243.2v-5v-3v-15.5v-3v-6
		c0-1.1,0.9-2,2-2c1.1,0,2,0.9,2,2v6v3v15.5v3v5H2023.8z M2033.8,243.2v-5v-3v-15.5v-3v-6c0-1.1,0.9-2,2-2c1.1,0,2,0.9,2,2v32.5
		H2033.8z"/>
	<path class="st1" d="M1105.4,42H1216c0.3,0,0.6-0.2,0.8-0.4c0.2-0.3,0.2-0.6,0.2-0.9c-2.7-9-10.4-15.6-19.6-17.1c0-0.2,0-0.4,0-0.6
		c0-6.5-5.2-11.7-11.7-11.7c-0.4,0-0.7,0-1.1,0.1c-3.1-4.6-8.2-7.4-13.9-7.4c-6.6,0-12.6,4-15.3,10c-2.1-0.9-4.3-1.3-6.6-1.3
		c-8,0-14.9,5.5-16.7,13.2c-2.1-0.6-4.2-0.9-6.3-0.9c-9.9,0-18.5,6.3-21.5,15.7c-0.1,0.3,0,0.6,0.1,0.9
		C1104.7,41.8,1105,42,1105.4,42z M1125.9,27c2.3,0,4.5,0.4,6.7,1.1c0.3,0.1,0.6,0.1,0.8-0.1c0.3-0.2,0.4-0.4,0.5-0.7
		c1.2-7.4,7.5-12.7,14.9-12.7c2.3,0,4.5,0.5,6.7,1.6c0.3,0.1,0.5,0.1,0.8,0c0.3-0.1,0.5-0.3,0.6-0.6c2.1-5.8,7.7-9.7,13.8-9.7
		c5.1,0,9.8,2.6,12.5,7c0.2,0.3,0.6,0.5,1,0.5c0.6-0.1,1-0.1,1.5-0.1c5.4,0,9.7,4.4,9.7,9.7c0,0.4,0,0.8-0.1,1.3
		c0,0.3,0,0.5,0.2,0.7c0.2,0.2,0.4,0.3,0.7,0.4c8.4,1,15.5,6.6,18.5,14.5h-107.9C1109.9,32.2,1117.4,27,1125.9,27z"/>
</g>
</svg>
