<svg width="1170" height="136" viewBox="0 0 1170 136" fill="none" xmlns="http://www.w3.org/2000/svg">
<path d="M1169.61 134.6C1169.61 134 1169.22 133.6 1168.62 133.6H1154.37V101.1V90.4C1154.37 77.4 1143.91 66.9 1130.96 66.9C1122.79 66.9 1115.22 71.2 1111.03 78.1C1109.04 77.4 1106.95 77.1 1104.86 77.1C1101.17 77.1 1097.68 78.1 1094.6 80V71.1H1097.58C1098.18 71.1 1098.58 70.7 1098.58 70.1V31.2C1098.58 30.6 1098.18 30.2 1097.58 30.2H1022.86L1010.91 19.3C1010.51 19 1009.91 19 1009.61 19.3L969.763 55.5C969.564 55.7 969.464 56 969.464 56.3C969.464 56.6 969.564 56.9 969.863 57.1L973.35 59.9C973.549 60 973.748 60.1 973.948 60.1C974.147 60.1 974.446 60 974.645 59.8L975.741 58.8V70.6C974.047 69.6 972.154 69.1 970.162 69.1C967.472 69.1 964.981 70.1 962.989 71.8C960.398 66.1 954.819 62.4 948.443 62.4C939.975 62.4 933.101 69 932.503 77.4C931.507 77.2 930.411 77 929.315 77C921.943 77 915.865 83.1 915.865 90.5V101.1V133.6H886.974V97.6H893.948C894.047 97.6 894.147 97.6 894.346 97.5C894.446 97.5 894.446 97.4 894.545 97.4C894.545 97.4 894.645 97.4 894.645 97.3C894.645 97.3 894.745 97.2 894.745 97.1C894.745 97 894.844 97 894.844 96.9C894.844 96.9 894.844 96.8 894.844 96.7C894.844 96.6 894.844 96.5 894.844 96.5C894.844 96.4 894.844 96.4 894.844 96.3C894.844 96.2 894.844 96.2 894.844 96.1L878.904 54.1C878.804 53.7 878.406 53.5 878.007 53.5H865.056V48.5H866.052C866.65 48.5 867.049 48.1 867.049 47.5V44.5C867.049 43.9 866.65 43.5 866.052 43.5H852.105C851.507 43.5 851.108 43.9 851.108 44.5V47.5C851.108 48.1 851.507 48.5 852.105 48.5H853.101V53.5H784.359V48.5H785.355C785.953 48.5 786.351 48.1 786.351 47.5V44.5C786.351 43.9 785.953 43.5 785.355 43.5H771.407C770.809 43.5 770.411 43.9 770.411 44.5V47.5C770.411 48.1 770.809 48.5 771.407 48.5H772.403V53.5H765.131C763.836 51.5 762.142 49.7 760.249 48.2C761.743 45.9 762.441 43.4 762.441 40.7C762.441 33 756.264 26.8 748.593 26.8C745.106 26.8 741.619 28.2 739.128 30.6C735.342 26.1 729.863 23.6 723.985 23.6C713.026 23.6 704.06 32.6 704.06 43.6C704.06 50.2 707.347 56.4 712.727 60.1C712.727 60.2 712.727 60.3 712.727 60.5C712.727 67.3 718.207 72.9 725.081 72.9C725.181 72.9 725.38 72.9 725.479 72.9C726.775 76.9 729.265 80.5 732.553 83.1C730.66 91.3 729.066 100.5 727.97 110.5C724.782 102.4 722.092 98.6 720.996 97.3C721.992 95.1 722.491 92.8 722.491 90.4C722.491 81.4 715.318 73.9 706.351 73.5C703.96 70 700.075 68 695.89 68C688.917 68 683.138 73.7 683.138 80.8C683.138 85.1 685.23 89 688.717 91.4C689.215 100.3 696.588 107.4 705.554 107.4C710.137 107.4 714.521 105.5 717.709 102.2C719.9 105.6 726.276 117.1 726.276 130.5C726.177 131.9 726.177 133 726.177 133.7H676.862V98.3L680.946 100.2C681.046 100.3 681.245 100.3 681.345 100.3C681.644 100.3 681.843 100.2 682.042 100L685.131 96.9C685.33 96.7 685.43 96.3 685.43 96C685.33 95.7 685.131 95.4 684.832 95.3L641.694 75.4C641.395 75.3 641.096 75.3 640.897 75.4L629.639 80.6V46.5L637.709 50.2C637.808 50.3 638.007 50.3 638.107 50.3C638.406 50.3 638.605 50.2 638.805 50L641.893 46.9C642.092 46.7 642.192 46.3 642.192 46C642.092 45.7 641.893 45.4 641.594 45.3L580.224 16.9C579.925 16.8 579.626 16.8 579.427 16.9L554.222 28.4V17.7H554.72C555.318 17.7 555.716 17.3 555.716 16.7V12.7C555.716 12.1 555.318 11.7 554.72 11.7H536.787C536.189 11.7 535.791 12.1 535.791 12.7V16.7C535.791 17.3 536.189 17.7 536.787 17.7H537.285V36.2L518.057 45.1C517.758 45.2 517.559 45.5 517.46 45.8C517.36 46.1 517.46 46.5 517.758 46.7L520.847 49.8C521.146 50.1 521.544 50.2 521.943 50L529.116 46.7V80L524.134 96.4C524.035 96.7 524.134 97 524.334 97.3C524.533 97.6 524.832 97.7 525.131 97.7H529.116V133.7H507.895V118.7H518.854C519.253 118.7 519.552 118.5 519.751 118.2C519.95 117.9 519.95 117.5 519.751 117.2L511.083 102.7H514.67C515.068 102.7 515.367 102.5 515.567 102.2C515.766 101.9 515.766 101.5 515.567 101.2L507.696 88H509.988C510.286 88 510.685 87.8 510.884 87.5C511.083 87.2 511.083 86.8 510.884 86.5L504.907 74.5C504.608 73.8 503.412 73.8 503.113 74.5L497.136 86.5C496.936 86.8 497.036 87.2 497.136 87.5C497.335 87.8 497.634 88 498.032 88H500.324L492.453 101.2C492.254 101.5 492.254 101.9 492.453 102.2C492.653 102.5 492.951 102.7 493.35 102.7H496.936L488.269 117.2C488.07 117.5 488.07 117.9 488.269 118.2C488.468 118.5 488.767 118.7 489.166 118.7H500.125V133.7H483.487V99.7C483.487 99.1 483.088 98.7 482.491 98.7H478.904C480.1 95.4 480.1 91.9 478.705 88.7C477.31 85.4 474.72 82.8 471.432 81.4C467.347 79.7 462.665 80.2 458.979 82.6C456.787 79.5 453.798 77.1 450.311 75.7C444.931 73.5 438.755 73.8 433.674 76.5V58.6H436.662C437.26 58.6 437.659 58.2 437.659 57.6V53.6C437.659 53 437.26 52.6 436.662 52.6L402.192 30C401.993 29.9 401.793 29.8 401.694 29.8H376.389L369.913 25C369.514 24.7 369.116 24.7 368.717 25L362.242 29.8H336.936C336.737 29.8 336.538 29.9 336.438 30L301.669 52.8C301.669 52.8 301.669 52.8 301.569 52.9C301.469 52.9 301.469 53 301.469 53C301.469 53 301.37 53.1 301.37 53.2C301.37 53.3 301.27 53.3 301.27 53.4C301.27 53.5 301.27 53.5 301.27 53.6V53.7V57.7C301.27 58.3 301.669 58.7 302.266 58.7H305.255V76.6C301.768 73.6 297.186 71.9 292.503 71.9C283.138 71.9 275.268 78.3 273.275 87.4C272.478 87.2 271.582 87.2 270.785 87.2C264.11 87.2 258.431 92.2 257.534 98.7H256.438C255.841 98.7 255.442 99.1 255.442 99.7V133.7H231.034V94.2L234.222 95.6C234.321 95.7 234.521 95.7 234.62 95.7C234.72 95.7 234.919 95.7 235.019 95.6C235.218 95.5 235.417 95.3 235.517 95.1L237.709 90C237.908 89.5 237.709 88.9 237.21 88.7L224.06 83V70.1C226.052 71.9 228.643 73 231.332 73C237.21 73 241.993 68.2 241.993 62.3C241.993 61.4 241.893 60.4 241.594 59.5C246.376 58 249.763 53.4 249.763 48.3C249.763 44.4 247.87 40.8 244.682 38.6C247.273 35.6 248.667 31.9 248.667 27.9C248.667 18.9 241.395 11.6 232.428 11.6C228.443 11.6 224.658 13 221.669 15.7C218.082 14.8 214.197 14.8 210.61 15.4C209.116 11.9 205.629 9.6 201.843 9.6C196.563 9.6 192.279 13.9 192.279 19.2C192.279 21.5 193.076 23.6 194.471 25.4C192.279 28.3 190.685 31.7 189.788 35.2C182.715 37.2 177.933 43.5 177.933 50.9C177.933 59.9 185.205 67.2 194.172 67.2C197.26 67.2 200.149 66.4 202.74 64.7C205.629 66.3 208.817 67.3 212.105 67.8V77.7L195.567 70.6C195.268 70.5 195.068 70.5 194.77 70.6L171.258 80.7V43.5H177.235C177.634 43.5 177.933 43.3 178.132 43C178.331 42.7 178.331 42.3 178.132 42L162.192 16C161.993 15.7 161.694 15.5 161.295 15.5H150.336V6.00001H151.332C151.93 6.00001 152.329 5.60001 152.329 5.00001V1.00001C152.329 0.400006 151.93 6.10352e-06 151.332 6.10352e-06H132.403C131.806 6.10352e-06 131.407 0.400006 131.407 1.00001V5.00001C131.407 5.60001 131.806 6.00001 132.403 6.00001H133.4V15.5H44.7323C44.4334 15.5 44.0349 15.7 43.8356 16L27.8954 42C27.6961 42.3 27.6961 42.7 27.8954 43C28.0946 43.3 28.3935 43.5 28.792 43.5H34.7696V116.4C34.5704 116.4 34.3711 116.4 34.1719 116.4C30.8842 116.4 27.8954 117.6 25.5044 119.7C23.213 118 20.4234 117 17.5342 117C10.2615 117 4.38356 122.9 4.38356 130.2C4.38356 131.3 4.48319 132.4 4.78207 133.5H0.996264C0.398506 133.5 0 133.9 0 134.5C0 135.1 0.398506 135.5 0.996264 135.5H5.97758H35.467H44.7323H77.8082H93.7484H111.681H127.621H160H169.963H219.776H229.738H256.139H261.121H266.102H271.083H276.065H281.046H286.027H291.009H295.99H300.971H305.953H350.187H387.049H432.478H437.46H442.441H447.422H452.403H457.385H462.366H467.347H472.329H477.31H482.291H500.922H506.899H530.112H545.056H559.502H606.824H616.588H666.401H676.164H727.273H731.756H751.283H793.624H811.058H826.002H843.437H885.778H916.662H922.64H926.625H932.603H936.588H942.565H946.55H952.528H956.513H962.491H966.476H972.453H976.438H1043.69H1069.09H1091.01H1093.5H1097.48H1103.46H1107.45H1113.42H1117.41H1123.39H1127.37H1133.35H1137.33H1143.31H1147.3H1153.28H1168.52C1169.12 135.6 1169.61 135.2 1169.61 134.6ZM1104.86 79.1C1107.05 79.1 1109.14 79.5 1111.13 80.3C1111.63 80.5 1112.13 80.3 1112.33 79.9C1116.11 73.2 1123.29 69 1130.96 69C1142.81 69 1152.38 78.6 1152.38 90.5V97.7C1151.78 97.4 1151.08 97.1 1150.39 97.1C1148.19 97.1 1146.4 98.9 1146.4 101.1V106.1H1144.41V101.1C1144.41 98.9 1142.62 97.1 1140.42 97.1C1138.23 97.1 1136.44 98.9 1136.44 101.1V106.1H1134.45V101.1C1134.45 98.9 1132.65 97.1 1130.46 97.1C1128.27 97.1 1126.48 98.9 1126.48 101.1V106.1H1124.48V101.1C1124.48 98.9 1122.69 97.1 1120.5 97.1C1118.31 97.1 1116.51 98.9 1116.51 101.1V106.1H1114.52V101.1C1114.52 98.9 1112.73 97.1 1110.54 97.1C1108.34 97.1 1106.55 98.9 1106.55 101.1V106.1H1104.56V101.1C1104.56 98.9 1102.76 97.1 1100.57 97.1C1098.38 97.1 1096.59 98.9 1096.59 101.1V106.1H1094.6V82.4C1097.58 80.3 1101.07 79.1 1104.86 79.1ZM1144.41 126.6H1146.4V127.6H1144.41V126.6ZM1146.4 124.6H1144.41V111.1H1146.4V124.6ZM1146.4 109.1H1144.41V108.1H1146.4V109.1ZM1144.41 129.6H1146.4V133.6H1144.41V129.6ZM1134.45 126.6H1136.44V127.6H1134.45V126.6ZM1136.44 124.6H1134.45V111.1H1136.44V124.6ZM1136.44 109.1H1134.45V108.1H1136.44V109.1ZM1134.45 129.6H1136.44V133.6H1134.45V129.6ZM1124.48 126.6H1126.48V127.6H1124.48V126.6ZM1126.48 124.6H1124.48V111.1H1126.48V124.6ZM1126.48 109.1H1124.48V108.1H1126.48V109.1ZM1124.48 129.6H1126.48V133.6H1124.48V129.6ZM1114.52 126.6H1116.51V127.6H1114.52V126.6ZM1116.51 124.6H1114.52V111.1H1116.51V124.6ZM1116.51 109.1H1114.52V108.1H1116.51V109.1ZM1114.52 129.6H1116.51V133.6H1114.52V129.6ZM1104.56 126.6H1106.55V127.6H1104.56V126.6ZM1106.55 124.6H1104.56V111.1H1106.55V124.6ZM1106.55 109.1H1104.56V108.1H1106.55V109.1ZM1104.56 129.6H1106.55V133.6H1104.56V129.6ZM1096.59 109.1H1094.6V108.1H1096.59V109.1ZM1094.6 111.1H1096.59V124.6H1094.6V111.1ZM1094.6 126.6H1096.59V127.6H1094.6V126.6ZM1093.6 69.1H1044.78V67.2L1045.78 68C1046.18 68.3 1046.67 68.3 1047.07 68L1050.06 65.5L1053.05 68C1053.45 68.3 1053.95 68.3 1054.35 68L1057.33 65.5L1060.32 68C1060.72 68.3 1061.22 68.3 1061.62 68L1064.61 65.5L1067.6 68C1067.99 68.3 1068.49 68.3 1068.89 68L1071.88 65.5L1074.87 68C1075.27 68.3 1075.77 68.3 1076.16 68L1079.15 65.5L1082.14 68C1082.54 68.3 1083.04 68.3 1083.44 68L1086.43 65.5L1089.41 68C1089.81 68.3 1090.31 68.3 1090.71 68L1093.7 65.5L1096.39 67.7V69.1H1093.6ZM1045.28 59.3C1045.68 59.6 1046.18 59.6 1046.58 59.3L1050.06 56.5C1050.26 56.3 1050.36 56.1 1050.46 55.8L1053.05 58C1053.45 58.3 1053.95 58.3 1054.35 58L1057.33 55.5L1060.32 58C1060.72 58.3 1061.22 58.3 1061.62 58L1064.61 55.5L1067.6 58C1067.99 58.3 1068.49 58.3 1068.89 58L1071.88 55.5L1074.87 58C1075.27 58.3 1075.77 58.3 1076.16 58L1079.15 55.5L1082.14 58C1082.54 58.3 1083.04 58.3 1083.44 58L1086.43 55.5L1089.41 58C1089.81 58.3 1090.31 58.3 1090.71 58L1093.7 55.5L1096.39 57.7V60.1L1094.4 58.4C1094 58.1 1093.5 58.1 1093.1 58.4L1090.11 60.9L1087.12 58.4C1086.72 58.1 1086.23 58.1 1085.83 58.4L1082.84 60.9L1079.85 58.4C1079.45 58.1 1078.95 58.1 1078.56 58.4L1075.57 60.9L1072.58 58.4C1072.18 58.1 1071.68 58.1 1071.28 58.4L1068.29 60.9L1065.31 58.4C1064.91 58.1 1064.41 58.1 1064.01 58.4L1061.02 60.9L1058.03 58.4C1057.63 58.1 1057.14 58.1 1056.74 58.4L1053.75 60.9L1050.76 58.4C1050.36 58.1 1049.86 58.1 1049.46 58.4L1046.48 60.9L1044.88 59.6V58.8L1045.28 59.3ZM1044.78 62.2L1045.78 63C1046.18 63.3 1046.67 63.3 1047.07 63L1050.06 60.5L1053.05 63C1053.45 63.3 1053.95 63.3 1054.35 63L1057.33 60.5L1060.32 63C1060.72 63.3 1061.22 63.3 1061.62 63L1064.61 60.5L1067.6 63C1067.99 63.3 1068.49 63.3 1068.89 63L1071.88 60.5L1074.87 63C1075.27 63.3 1075.77 63.3 1076.16 63L1079.15 60.5L1082.14 63C1082.54 63.3 1083.04 63.3 1083.44 63L1086.43 60.5L1089.41 63C1089.81 63.3 1090.31 63.3 1090.71 63L1093.7 60.5L1096.39 62.7V65.1L1094.4 63.4C1094 63.1 1093.5 63.1 1093.1 63.4L1090.11 65.9L1087.12 63.4C1086.72 63.1 1086.23 63.1 1085.83 63.4L1082.84 65.9L1079.85 63.4C1079.45 63.1 1078.95 63.1 1078.56 63.4L1075.57 65.9L1072.58 63.4C1072.18 63.1 1071.68 63.1 1071.28 63.4L1068.29 65.9L1065.31 63.4C1064.91 63.1 1064.41 63.1 1064.01 63.4L1061.02 65.9L1058.03 63.4C1057.63 63.1 1057.14 63.1 1056.74 63.4L1053.75 65.9L1050.76 63.4C1050.36 63.1 1049.86 63.1 1049.46 63.4L1046.48 65.9L1044.88 64.6V62.2H1044.78ZM1096.59 40.2L1094.6 38.5C1094.2 38.2 1093.7 38.2 1093.3 38.5L1090.31 41L1087.32 38.5C1086.92 38.2 1086.43 38.2 1086.03 38.5L1083.04 41L1080.05 38.5C1079.65 38.2 1079.15 38.2 1078.75 38.5L1075.77 41L1072.78 38.5C1072.38 38.2 1071.88 38.2 1071.48 38.5L1068.49 41L1065.5 38.5C1065.11 38.2 1064.61 38.2 1064.21 38.5L1061.22 41L1058.23 38.5C1057.83 38.2 1057.33 38.2 1056.94 38.5L1053.95 41L1050.96 38.5C1050.56 38.2 1050.06 38.2 1049.66 38.5L1046.67 41L1043.79 38.5C1043.39 38.2 1042.79 38.2 1042.49 38.5L1039.9 40.9L1036.81 38.4C1036.41 38.1 1035.92 38.1 1035.62 38.4L1033.82 39.8L1029.14 35.6L1029.54 35.4L1032.63 38C1033.03 38.3 1033.62 38.3 1033.92 37.9L1036.21 35.7L1038.9 38.1C1039.3 38.4 1039.8 38.4 1040.2 38.1L1043.09 35.6L1046.08 38.1C1046.48 38.4 1046.97 38.4 1047.37 38.1L1050.36 35.6L1053.35 38.1C1053.75 38.4 1054.25 38.4 1054.65 38.1L1057.63 35.6L1060.62 38.1C1061.02 38.4 1061.52 38.4 1061.92 38.1L1064.91 35.6L1067.9 38.1C1068.29 38.4 1068.79 38.4 1069.19 38.1L1072.18 35.6L1075.17 38.1C1075.57 38.4 1076.06 38.4 1076.46 38.1L1079.45 35.6L1082.44 38.1C1082.84 38.4 1083.34 38.4 1083.74 38.1L1086.72 35.6L1089.71 38.1C1090.11 38.4 1090.61 38.4 1091.01 38.1L1094 35.6L1096.69 37.8V40.2H1096.59ZM1035.82 40.5L1039 43C1039.4 43.3 1039.9 43.3 1040.3 43L1042.89 40.6L1045.78 43C1046.18 43.3 1046.67 43.3 1047.07 43L1050.06 40.5L1053.05 43C1053.45 43.3 1053.95 43.3 1054.35 43L1057.33 40.5L1060.32 43C1060.72 43.3 1061.22 43.3 1061.62 43L1064.61 40.5L1067.6 43C1067.99 43.3 1068.49 43.3 1068.89 43L1071.88 40.5L1074.87 43C1075.27 43.3 1075.77 43.3 1076.16 43L1079.15 40.5L1082.14 43C1082.54 43.3 1083.04 43.3 1083.44 43L1086.43 40.5L1089.41 43C1089.81 43.3 1090.31 43.3 1090.71 43L1093.7 40.5L1096.39 42.7V45.1L1094.4 43.4C1094 43.1 1093.5 43.1 1093.1 43.4L1090.11 45.9L1087.12 43.4C1086.72 43.1 1086.23 43.1 1085.83 43.4L1082.84 45.9L1079.85 43.4C1079.45 43.1 1078.95 43.1 1078.56 43.4L1075.57 45.9L1072.58 43.4C1072.18 43.1 1071.68 43.1 1071.28 43.4L1068.29 45.9L1065.31 43.4C1064.91 43.1 1064.41 43.1 1064.01 43.4L1061.02 45.9L1058.03 43.4C1057.63 43.1 1057.14 43.1 1056.74 43.4L1053.75 45.9L1050.76 43.4C1050.36 43.1 1049.86 43.1 1049.46 43.4L1046.48 45.9L1043.49 43.4C1043.09 43.1 1042.59 43.1 1042.19 43.4L1039.7 45.4L1034.92 41.1L1035.82 40.5ZM1042.69 45.6L1045.68 48.1C1046.08 48.4 1046.58 48.4 1046.97 48.1L1049.96 45.6L1052.95 48.1C1053.35 48.4 1053.85 48.4 1054.25 48.1L1057.24 45.6L1060.22 48.1C1060.62 48.4 1061.12 48.4 1061.52 48.1L1064.51 45.6L1067.5 48.1C1067.9 48.4 1068.39 48.4 1068.79 48.1L1071.78 45.6L1074.77 48.1C1075.17 48.4 1075.67 48.4 1076.06 48.1L1079.05 45.6L1082.04 48.1C1082.44 48.4 1082.94 48.4 1083.34 48.1L1086.33 45.6L1089.32 48.1C1089.71 48.4 1090.21 48.4 1090.61 48.1L1093.6 45.6L1096.29 47.8V50.2L1094.3 48.5C1093.9 48.2 1093.4 48.2 1093 48.5L1090.01 51L1087.02 48.5C1086.63 48.2 1086.13 48.2 1085.73 48.5L1082.74 51L1079.75 48.5C1079.35 48.2 1078.85 48.2 1078.46 48.5L1075.47 51L1072.48 48.5C1072.08 48.2 1071.58 48.2 1071.18 48.5L1068.19 51L1065.21 48.5C1064.81 48.2 1064.31 48.2 1063.91 48.5L1060.92 51L1057.93 48.5C1057.53 48.2 1057.04 48.2 1056.64 48.5L1053.65 51L1050.66 48.5C1050.26 48.2 1049.76 48.2 1049.36 48.5L1045.98 51.3L1041.1 46.9L1042.69 45.6ZM1050.06 50.6L1053.05 53.1C1053.45 53.4 1053.95 53.4 1054.35 53.1L1057.33 50.6L1060.32 53.1C1060.72 53.4 1061.22 53.4 1061.62 53.1L1064.61 50.6L1067.6 53.1C1067.99 53.4 1068.49 53.4 1068.89 53.1L1071.88 50.6L1074.87 53.1C1075.27 53.4 1075.77 53.4 1076.16 53.1L1079.15 50.6L1082.14 53.1C1082.54 53.4 1083.04 53.4 1083.44 53.1L1086.43 50.6L1089.41 53.1C1089.81 53.4 1090.31 53.4 1090.71 53.1L1093.7 50.6L1096.39 52.8V55.2L1094.4 53.5C1094 53.2 1093.5 53.2 1093.1 53.5L1090.11 56L1087.12 53.5C1086.72 53.2 1086.23 53.2 1085.83 53.5L1082.84 56L1079.85 53.5C1079.45 53.2 1078.95 53.2 1078.56 53.5L1075.57 56L1072.58 53.5C1072.18 53.2 1071.68 53.2 1071.28 53.5L1068.29 56L1065.31 53.5C1064.91 53.2 1064.41 53.2 1064.01 53.5L1061.02 56L1058.03 53.5C1057.63 53.2 1057.14 53.2 1056.74 53.5L1053.75 56L1050.76 53.5C1050.36 53.2 1049.86 53.2 1049.46 53.5L1048.97 53.9L1047.57 52.6L1050.06 50.6ZM1096.59 32.3V35.2L1094.6 33.5C1094.2 33.2 1093.7 33.2 1093.3 33.5L1090.31 36L1087.32 33.5C1086.92 33.2 1086.43 33.2 1086.03 33.5L1083.04 36L1080.05 33.5C1079.65 33.2 1079.15 33.2 1078.75 33.5L1075.77 36L1072.78 33.5C1072.38 33.2 1071.88 33.2 1071.48 33.5L1068.49 36L1065.5 33.5C1065.11 33.2 1064.61 33.2 1064.21 33.5L1061.22 36L1058.23 33.5C1057.83 33.2 1057.33 33.2 1056.94 33.5L1053.95 36L1050.96 33.5C1050.56 33.2 1050.06 33.2 1049.66 33.5L1046.67 36L1043.69 33.5C1043.29 33.2 1042.79 33.2 1042.39 33.5L1039.5 35.9L1036.81 33.5C1036.41 33.2 1035.82 33.2 1035.42 33.5L1033.13 35.8L1030.14 33.4C1029.84 33.1 1029.34 33.1 1029.04 33.3L1027.45 34.2L1025.35 32.3H1096.59ZM973.748 57.8L971.856 56.3L1010.21 21.5L1047.97 55.7L1046.08 57.2L1044.58 55.8L1011.01 25.3C1010.61 25 1010.01 25 1009.71 25.3L976.04 55.8L973.748 57.8ZM973.549 126.6H975.542V127.6H973.549V126.6ZM975.542 124.6H973.549V111.1H975.542V124.6ZM975.542 109.1H973.549V108.1H975.542V109.1ZM973.549 129.6H975.542V133.6H973.549V129.6ZM929.215 79C930.511 79 931.806 79.2 933.001 79.6C933.3 79.7 933.699 79.7 933.898 79.5C934.197 79.3 934.296 79 934.296 78.7V78.4C934.296 70.7 940.573 64.4 948.244 64.4C954.222 64.4 959.502 68.2 961.395 73.9C961.494 74.2 961.793 74.5 962.192 74.6C962.59 74.7 962.889 74.5 963.088 74.3C964.782 72.3 967.273 71.2 969.863 71.2C971.955 71.2 973.848 71.9 975.442 73.2V106.2H973.45V101.2C973.45 99 971.656 97.2 969.464 97.2C967.273 97.2 965.479 99 965.479 101.2V106.2H963.487V101.2C963.487 99 961.694 97.2 959.502 97.2C957.31 97.2 955.517 99 955.517 101.2V106.2H953.524V101.2C953.524 99 951.731 97.2 949.539 97.2C947.347 97.2 945.554 99 945.554 101.2V106.2H943.562V101.2C943.562 99 941.768 97.2 939.577 97.2C937.385 97.2 935.591 99 935.591 101.2V106.2H933.599V101.2C933.599 99 931.806 97.2 929.614 97.2C927.422 97.2 925.629 99 925.629 101.2V106.2H923.636V101.2C923.636 99 921.843 97.2 919.651 97.2C918.954 97.2 918.256 97.4 917.659 97.8V90.7C917.758 84.2 922.939 79 929.215 79ZM963.587 126.6H965.579V127.6H963.587V126.6ZM965.579 124.6H963.587V111.1H965.579V124.6ZM965.579 109.1H963.587V108.1H965.579V109.1ZM963.587 129.6H965.579V133.6H963.587V129.6ZM953.624 126.6H955.616V127.6H953.624V126.6ZM955.616 124.6H953.624V111.1H955.616V124.6ZM955.616 109.1H953.624V108.1H955.616V109.1ZM953.624 129.6H955.616V133.6H953.624V129.6ZM943.661 126.6H945.654V127.6H943.661V126.6ZM945.654 124.6H943.661V111.1H945.654V124.6ZM945.654 109.1H943.661V108.1H945.654V109.1ZM943.661 129.6H945.654V133.6H943.661V129.6ZM933.699 126.6H935.691V127.6H933.699V126.6ZM935.691 124.6H933.699V111.1H935.691V124.6ZM935.691 109.1H933.699V108.1H935.691V109.1ZM933.699 129.6H935.691V133.6H933.699V129.6ZM923.736 126.6H925.729V127.6H923.736V126.6ZM925.729 124.6H923.736V111.1H925.729V124.6ZM925.729 109.1H923.736V108.1H925.729V109.1ZM923.736 129.6H925.729V133.6H923.736V129.6ZM892.354 95.6H855.99L819.029 74.8C818.73 74.6 818.331 74.6 818.032 74.8L781.171 95.5H744.707L747.895 87.2L759.95 55.5H764.433H773.2H783.163H853.898H863.86H877.111L892.354 95.6ZM826.002 106.6H811.058C810.461 106.6 810.062 107 810.062 107.6V133.6H794.62V97.2L818.53 83.7L842.441 97.1V133.5H826.999V107.5C826.999 107.1 826.6 106.6 826.002 106.6ZM819.029 81.7C818.73 81.5 818.331 81.5 818.032 81.7L817.534 82L793.126 95.7L793.026 95.8L784.657 100.5L782.665 97L818.431 76.9L854.296 97L852.304 100.5L819.029 81.7ZM737.335 86C739.925 87.2 742.715 87.9 745.604 88L742.416 96.3C742.416 96.4 742.416 96.4 742.416 96.5C742.416 96.6 742.416 96.6 742.416 96.7C742.416 96.8 742.416 96.9 742.416 96.9V97C742.416 97.1 742.516 97.1 742.516 97.2C742.516 97.3 742.615 97.3 742.615 97.4L742.715 97.5C742.814 97.5 742.814 97.6 742.914 97.6C743.014 97.6 743.113 97.7 743.313 97.7H750.286V133.7H732.752C732.653 128.9 732.354 107.3 737.335 86ZM852.902 45.6H864.857V46.6H863.86H853.898H852.902V45.6ZM854.894 48.6H862.864V53.6H854.894V48.6ZM772.204 45.6H784.159V46.6H783.163H773.2H772.204V45.6ZM774.197 48.6H782.167V53.6H774.197V48.6ZM641.395 77.2L682.839 96.3L681.245 97.9L676.463 95.7L641.793 79.7C641.494 79.6 641.195 79.6 640.996 79.7L606.426 95.7L601.644 97.9L600.05 96.3L641.395 77.2ZM537.783 13.7H553.724V15.7H553.225H538.281H537.783V13.7ZM539.278 17.7H552.229V29.3L539.278 35.3V17.7ZM521.743 47.9L520.149 46.3L579.826 18.7L639.502 46.3L637.908 47.9L580.224 21.2C580.125 21.1 579.925 21.1 579.826 21.1C579.726 21.1 579.527 21.1 579.427 21.2L529.813 44.1C529.714 44.1 529.614 44.2 529.614 44.2L521.743 47.9ZM579.826 23.2L627.646 45.3V79.1H531.009V45.8L579.826 23.2ZM530.809 81.1H627.746V81.3L597.858 95.1C597.659 95.2 597.459 95.4 597.36 95.6H526.426L530.809 81.1ZM449.315 77.5C452.802 78.9 455.591 81.3 457.584 84.5C457.783 84.7 457.983 84.9 458.281 85C458.58 85.1 458.879 85 459.078 84.8C462.266 82.3 466.65 81.7 470.436 83.2C473.225 84.4 475.517 86.6 476.712 89.4C477.908 92.2 477.908 95.4 476.712 98.2C476.613 98.4 476.613 98.5 476.513 98.7H472.329H467.347H462.366H457.385H452.403H447.422H442.441H437.46H433.474V78.9C438.257 75.8 444.134 75.3 449.315 77.5ZM401.096 31.9L432.777 52.7H406.974L378.78 31.9H401.096ZM336.936 31.9H359.253L331.059 52.7H305.255L336.936 31.9ZM302.964 54.6H331.457C331.656 54.6 331.856 54.5 332.055 54.4L369.016 27.1L405.978 54.4C406.177 54.5 406.376 54.6 406.575 54.6H435.367V56.6H432.379H405.579L369.614 30.1C369.215 29.8 368.817 29.8 368.418 30.1L332.354 56.7H305.853H302.864V54.6H302.964ZM270.486 89.1C271.482 89.1 272.478 89.2 273.474 89.5C273.773 89.6 274.072 89.5 274.271 89.4C274.471 89.2 274.67 89 274.67 88.7C276.065 80.1 283.437 73.8 292.105 73.8C296.887 73.8 301.469 75.8 304.857 79.2V98.5H300.872H295.89H290.909H285.928H280.946H275.965H270.984H266.002H261.021H259.128C260.224 93.2 265.006 89.1 270.486 89.1ZM213.798 78.7V67.1C213.798 66.6 213.4 66.2 212.902 66.1C209.415 65.8 206.027 64.7 202.939 62.9C202.64 62.7 202.242 62.7 201.843 62.9C199.452 64.5 196.663 65.4 193.873 65.4C186.002 65.4 179.626 59 179.626 51.1C179.626 44.4 184.11 38.7 190.585 37.2C190.984 37.1 191.283 36.8 191.283 36.4C192.08 32.7 193.773 29.1 196.164 26.2C196.463 25.8 196.463 25.2 196.065 24.9C194.67 23.5 193.873 21.5 193.873 19.5C193.873 15.3 197.26 11.9 201.445 11.9C204.732 11.9 207.621 14 208.618 17.1C208.817 17.6 209.315 17.9 209.813 17.8C213.599 17 217.584 17 221.27 18C221.569 18.1 221.968 18 222.167 17.8C224.857 15.3 228.244 13.9 231.93 13.9C239.801 13.9 246.177 20.3 246.177 28.2C246.177 32 244.682 35.7 241.993 38.4C241.793 38.6 241.694 38.9 241.694 39.3C241.694 39.6 241.893 39.9 242.192 40C245.38 41.7 247.273 45 247.273 48.6C247.273 53.1 244.085 57.1 239.701 58.1C239.402 58.2 239.203 58.3 239.004 58.6C238.904 58.9 238.804 59.2 238.904 59.4C239.303 60.4 239.502 61.4 239.502 62.5C239.502 67.3 235.616 71.2 230.834 71.2C227.746 71.2 224.956 69.6 223.362 66.9C223.163 66.5 222.665 66.3 222.266 66.4C221.868 66.5 221.569 66.9 221.569 67.4V82.2L215.691 79.7L213.798 78.7ZM194.869 72.7L218.78 83L222.366 84.6L235.218 90.1L233.823 93.3L195.268 76.7C195.168 76.6 194.969 76.6 194.869 76.6C194.77 76.6 194.57 76.6 194.471 76.7L159.601 91.7L155.915 93.3L154.521 90.1L194.869 72.7ZM133.101 2.1H150.037V4.1H149.041H134.097H133.101V2.1ZM135.093 6.1H148.045V15.6H135.093V6.1ZM45.0311 17.6H134.097H149.041H160.398L175.143 41.6H169.963H35.467H30.2864L45.0311 17.6ZM36.4633 43.6H168.966V81.7L152.827 88.7C152.329 88.9 152.13 89.5 152.329 90L154.521 95.1C154.62 95.3 154.819 95.5 155.019 95.6C155.218 95.7 155.517 95.7 155.816 95.6L159.004 94.2V133.7H128.618V94.4L131.308 96C131.507 96.1 131.606 96.1 131.806 96.1C132.105 96.1 132.503 95.9 132.702 95.6L135.492 90.9C135.592 90.7 135.691 90.4 135.592 90.1C135.492 89.8 135.392 89.6 135.093 89.5L103.213 70.4C102.914 70.2 102.516 70.2 102.217 70.4L70.2366 89.6C70.0374 89.7 69.8381 90 69.7385 90.2C69.6389 90.5 69.7385 90.7 69.8381 91L72.6276 95.7C72.9265 96.2 73.5243 96.3 74.0224 96L76.7123 94.4V133.6H46.2267C46.6252 132.3 46.924 130.9 46.924 129.5C46.924 123.2 42.4408 118 36.5629 116.8V43.6H36.4633ZM73.9228 93.8L72.1295 90.8L102.715 72.4L133.3 90.8L131.507 93.8L103.213 76.8C102.914 76.6 102.516 76.6 102.217 76.8L73.9228 93.8ZM35.467 133.6H6.67497C6.37609 132.5 6.17684 131.4 6.17684 130.3C6.17684 124.1 11.1582 119.1 17.335 119.1C20.0249 119.1 22.6152 120.1 24.7073 121.9C25.1059 122.3 25.7036 122.2 26.1021 121.8C28.1943 119.6 30.9838 118.4 33.9726 118.4C40.0498 118.4 44.9315 123.3 44.9315 129.4C44.9315 130.8 44.6326 132.2 44.1345 133.5H35.467V133.6ZM94.7447 133.6V103.1H110.685V133.6H94.7447ZM112.677 133.6V102.1C112.677 101.5 112.279 101.1 111.681 101.1H93.7484C93.1507 101.1 92.7522 101.5 92.7522 102.1V133.6H78.8045V93.2L102.715 78.8L126.625 93.2V133.6H112.677ZM218.78 111.1V112.6H170.959V111.1H218.78ZM170.959 109.1V107.6H218.78V109.1H170.959ZM218.78 114.6V116.1H170.959V114.6H218.78ZM218.78 118.1V119.6H170.959V118.1H218.78ZM218.78 121.6V123.1H170.959V121.6H218.78ZM218.78 125.1V126.6H170.959V125.1H218.78ZM218.78 105.6H170.959V104.1H218.78V105.6ZM170.959 128.6H218.78V130.1H170.959V128.6ZM218.78 102.1H170.959V100.6H218.78V102.1ZM170.959 133.6V132.1H218.78V133.6H170.959ZM220.772 133.6V99.6C220.772 99 220.374 98.6 219.776 98.6H169.963C169.365 98.6 168.966 99 168.966 99.6V133.6H160.996V93.3L194.869 78.7L228.742 93.3V133.6H220.772ZM257.136 100.6H260.125V133.6H257.136V100.6ZM262.117 100.6H265.106V133.6H262.117V100.6ZM267.098 100.6H270.087V133.6H267.098V100.6ZM272.08 100.6H275.068V133.6H272.08V100.6ZM277.061 100.6H280.05V133.6H277.061V100.6ZM282.042 100.6H285.031V133.6H282.042V100.6ZM287.024 100.6H290.012V133.6H287.024V100.6ZM292.005 100.6H294.994V133.6H292.005V100.6ZM296.986 100.6H299.975V133.6H296.986V100.6ZM301.968 100.6H304.956V133.6H301.968V100.6ZM306.949 99.6V58.6H332.752C332.951 58.6 333.151 58.5 333.35 58.4L369.016 32.1L404.682 58.4C404.882 58.5 405.081 58.6 405.28 58.6H431.382V99.6V133.6H387.945V131.6C387.945 131 387.547 130.6 386.949 130.6H385.953V128.6C385.953 128 385.554 127.6 384.956 127.6H383.462V98.6H385.953C386.55 98.6 386.949 98.2 386.949 97.6V94.6C386.949 94 386.55 93.6 385.953 93.6H351.083C350.486 93.6 350.087 94 350.087 94.6V97.6C350.087 98.2 350.486 98.6 351.083 98.6H353.574V127.6H352.08C351.482 127.6 351.083 128 351.083 128.6V130.6H350.087C349.489 130.6 349.091 131 349.091 131.6V133.6H306.849V99.6H306.949ZM382.466 96.6H354.57H352.08V95.6H384.956V96.6H382.466ZM355.567 98.6H381.469V127.6H355.567V98.6ZM354.57 129.6H382.466H383.96V130.6H353.076V129.6H354.57ZM351.083 133.6V132.6H352.08H384.956H385.953V133.6H351.083ZM433.474 100.6H436.463V133.6H433.474V100.6ZM438.456 100.6H441.445V133.6H438.456V100.6ZM443.437 100.6H446.426V133.6H443.437V100.6ZM448.418 100.6H451.407V133.6H448.418V100.6ZM453.4 100.6H456.389V133.6H453.4V100.6ZM458.381 100.6H461.37V133.6H458.381V100.6ZM463.362 100.6H466.351V133.6H463.362V100.6ZM468.344 100.6H471.332V133.6H468.344V100.6ZM473.325 100.6H476.314V133.6H473.325V100.6ZM478.306 133.6V100.6H481.295V133.6H478.306ZM501.918 133.6V117.6C501.918 117 501.519 116.6 500.922 116.6H490.76L499.427 102.1C499.626 101.8 499.626 101.4 499.427 101.1C499.228 100.8 498.929 100.6 498.53 100.6H494.944L502.814 87.4C503.014 87.1 503.014 86.7 502.814 86.4C502.615 86.1 502.316 85.9 501.918 85.9H499.527L503.91 77.1L508.294 85.9H505.903C505.504 85.9 505.205 86.1 505.006 86.4C504.807 86.7 504.807 87.1 505.006 87.4L512.877 100.6H509.29C508.892 100.6 508.593 100.8 508.393 101.1C508.194 101.4 508.194 101.8 508.393 102.1L517.061 116.6H506.899C506.301 116.6 505.903 117 505.903 117.6V133.6H501.918ZM531.108 97.6H598.456L600.648 99.8C600.946 100.1 601.345 100.2 601.743 100L605.828 98.1V133.5H560.498V107C560.498 106.4 560.1 106 559.502 106H545.056C544.458 106 544.06 106.4 544.06 107V133.5H531.108V97.6ZM546.052 133.6V108.1H558.506V133.6H546.052ZM617.484 133.6V108.1H665.305V133.6H617.484ZM667.298 133.6V107.1C667.298 106.5 666.899 106.1 666.301 106.1H616.488C615.89 106.1 615.492 106.5 615.492 107.1V133.6H607.721V97.2L641.395 81.7L675.068 97.2V133.6H667.298ZM728.369 133.6C728.369 132.9 728.468 131.8 728.468 130.4V130.3C728.468 114.7 720.199 102 719.004 100.1C718.904 99.9 718.804 99.7 718.605 99.6C718.207 99.3 717.609 99.4 717.21 99.8C714.321 103.3 710.137 105.3 705.654 105.3C697.684 105.3 691.009 98.7 690.809 90.7C690.809 90.4 690.61 90 690.311 89.9C687.123 87.9 685.23 84.5 685.23 80.7C685.23 74.8 690.012 69.9 695.99 69.9C699.676 69.9 703.063 71.8 705.056 74.9C705.255 75.2 705.554 75.4 705.853 75.4C713.923 75.5 720.598 82.2 720.598 90.3C720.598 92.7 720.1 94.9 719.004 97.1C718.805 97.6 718.904 98.2 719.402 98.4C719.502 98.4 719.502 98.5 719.601 98.5C720.598 99.7 723.885 104.3 727.671 115C727.771 115.5 728.07 115.8 728.568 115.9C729.166 115.9 729.564 115.5 729.664 115C730.76 103.1 732.553 92.3 734.844 82.9C734.944 82.5 734.745 82.1 734.446 81.9C731.059 79.3 728.468 75.6 727.273 71.5C727.173 71 726.675 70.7 726.177 70.8C725.878 70.8 725.479 70.9 725.081 70.9C719.402 70.9 714.72 66.2 714.72 60.5C714.72 60.2 714.72 60 714.72 59.7C714.72 59.3 714.62 59 714.222 58.8C709.041 55.5 705.953 49.8 705.953 43.7C705.953 33.8 714.022 25.7 723.885 25.7C729.564 25.7 734.745 28.3 738.132 32.8C738.331 33 738.63 33.2 738.929 33.2C739.228 33.2 739.527 33.1 739.726 32.9C742.017 30.4 745.206 28.9 748.593 28.9C755.168 28.9 760.448 34.2 760.448 40.8C760.448 43.4 759.651 45.9 758.057 48C757.858 48.2 757.858 48.5 757.858 48.8C757.858 49.1 758.057 49.3 758.256 49.5C759.95 50.7 761.445 52.2 762.64 53.8H759.352C758.954 53.8 758.555 54.1 758.456 54.4L746.401 86.1C743.213 86.1 740.025 85.3 737.136 83.8C736.837 83.7 736.538 83.6 736.239 83.8C735.94 83.9 735.741 84.2 735.641 84.5C730.361 106.3 730.66 128.8 730.76 133.8H728.369V133.6ZM752.279 97.6H780.772L783.462 102.4C783.562 102.6 783.761 102.8 784.06 102.9C784.159 102.9 784.259 102.9 784.359 102.9C784.558 102.9 784.657 102.9 784.857 102.8L792.628 98.4V133.7H752.279V97.6ZM812.055 133.6V108.6H825.006V133.6H812.055ZM844.433 133.6V98.3L852.304 102.7C852.802 103 853.4 102.8 853.699 102.3L856.388 97.6H884.882V133.6H844.433ZM917.758 133.6V101.1C917.758 100 918.655 99.1 919.751 99.1C920.847 99.1 921.743 100 921.743 101.1V107.1V110.1V125.6V128.6V133.6H917.758ZM927.721 133.6V128.6V125.6V110.1V107.1V101.1C927.721 100 928.618 99.1 929.714 99.1C930.809 99.1 931.706 100 931.706 101.1V107.1V110.1V125.6V128.6V133.6H927.721ZM937.684 133.6V128.6V125.6V110.1V107.1V101.1C937.684 100 938.58 99.1 939.676 99.1C940.772 99.1 941.669 100 941.669 101.1V107.1V110.1V125.6V128.6V133.6H937.684ZM947.646 133.6V128.6V125.6V110.1V107.1V101.1C947.646 100 948.543 99.1 949.639 99.1C950.735 99.1 951.631 100 951.631 101.1V107.1V110.1V125.6V128.6V133.6H947.646ZM957.609 133.6V128.6V125.6V110.1V107.1V101.1C957.609 100 958.506 99.1 959.602 99.1C960.697 99.1 961.594 100 961.594 101.1V107.1V110.1V125.6V128.6V133.6H957.609ZM967.572 133.6V128.6V125.6V110.1V107.1V101.1C967.572 100 968.468 99.1 969.564 99.1C970.66 99.1 971.557 100 971.557 101.1V107.1V110.1V125.6V128.6V133.6H967.572ZM977.534 128.6V125.6V110.1V107.1V57L1010.21 27.4L1042.79 57V70.1V133.6H977.534V128.6ZM1044.78 71.1H1092.6V81.9V133.6H1092.1V131.1C1092.1 130.5 1091.71 130.1 1091.11 130.1H1090.61V127.1C1090.61 126.5 1090.21 126.1 1089.61 126.1H1088.62V101.1C1088.62 100.5 1088.22 100.1 1087.62 100.1H1072.68C1072.08 100.1 1071.68 100.5 1071.68 101.1V126.1H1070.68C1070.09 126.1 1069.69 126.5 1069.69 127.1V130.1H1069.19C1068.59 130.1 1068.19 130.5 1068.19 131.1V133.6H1044.78V71.1ZM1086.63 126.1H1073.67V102.1H1086.63V126.1ZM1072.68 128.1H1087.62H1088.62V130.1H1071.68V128.1H1072.68ZM1070.19 133.6V132.1H1070.68H1089.61H1090.11V133.6H1070.19ZM1094.6 129.6H1096.59V133.6H1094.6V129.6ZM1098.58 133.6V128.6V125.6V110.1V107.1V101.1C1098.58 100 1099.48 99.1 1100.57 99.1C1101.67 99.1 1102.57 100 1102.57 101.1V107.1V110.1V125.6V128.6V133.6H1098.58ZM1108.54 133.6V128.6V125.6V110.1V107.1V101.1C1108.54 100 1109.44 99.1 1110.54 99.1C1111.63 99.1 1112.53 100 1112.53 101.1V107.1V110.1V125.6V128.6V133.6H1108.54ZM1118.51 133.6V128.6V125.6V110.1V107.1V101.1C1118.51 100 1119.4 99.1 1120.5 99.1C1121.59 99.1 1122.49 100 1122.49 101.1V107.1V110.1V125.6V128.6V133.6H1118.51ZM1128.47 133.6V128.6V125.6V110.1V107.1V101.1C1128.47 100 1129.36 99.1 1130.46 99.1C1131.56 99.1 1132.45 100 1132.45 101.1V107.1V110.1V125.6V128.6V133.6H1128.47ZM1138.43 133.6V128.6V125.6V110.1V107.1V101.1C1138.43 100 1139.33 99.1 1140.42 99.1C1141.52 99.1 1142.42 100 1142.42 101.1V107.1V110.1V125.6V128.6V133.6H1138.43ZM1148.39 133.6V128.6V125.6V110.1V107.1V101.1C1148.39 100 1149.29 99.1 1150.39 99.1C1151.48 99.1 1152.38 100 1152.38 101.1V133.6H1148.39Z" fill="#444A67"/>
</svg>
