<svg width="1600" height="152" viewBox="0 0 1600 152" fill="none" xmlns="http://www.w3.org/2000/svg">
<rect width="1600" height="152" fill="#E5E5E5"/>
<g filter="url(#filter0_d)">
<mask id="mask0" mask-type="alpha" maskUnits="userSpaceOnUse" x="0" y="-320" width="1600" height="472">
<rect y="-320" width="1600" height="472" fill="#818181"/>
</mask>
<g mask="url(#mask0)">
<rect width="1758" height="447" transform="matrix(-1 0 0 1 1713 -264)" fill="#2F344C"/>
<path d="M815 -370.306C815 -393.892 804.522 -416.257 786.406 -431.338L719.75 -486.827V-225.16L420.197 -469.996C391.215 -493.684 349.637 -493.867 320.447 -470.436L-35.406 -184.777C-59.8033 -165.192 -74 -135.579 -74 -104.272V340.283C-74 380.482 -27.3214 402.6 3.73416 377.117L332.767 107.118C356.652 87.5183 370.5 58.2299 370.5 27.3125V-42.785L21.25 239.311V158.072C21.25 139.173 29.6583 121.257 44.1892 109.192L333.224 -130.777C356.837 -150.381 370.5 -179.495 370.5 -210.205V-280.665L21.25 5.39593V-75.2394C21.25 -94.4181 29.9084 -112.569 44.8078 -124.626L355.514 -376.039C364.251 -383.109 376.738 -383.095 385.46 -376.007L737.44 -89.9578C768.535 -64.6881 815 -86.8401 815 -126.934V-370.306Z" fill="#5D6174" fill-opacity="0.1"/>
<path d="M1179.71 3.58087C1179.71 -20.0055 1169.23 -42.3703 1151.11 -57.4511L1084.46 -112.941V148.727L784.905 -96.1094C755.923 -119.797 714.344 -119.981 685.155 -96.5493L329.301 189.11C304.904 208.695 290.707 238.308 290.707 269.614V714.17C290.707 754.369 337.386 776.487 368.442 751.003L697.474 481.005C721.359 461.405 735.207 432.116 735.207 401.199V331.101L385.957 613.198V531.958C385.957 513.06 394.366 495.143 408.897 483.079L697.931 243.11C721.544 223.506 735.207 194.391 735.207 163.681V93.2216L385.957 379.282V298.647C385.957 279.468 394.616 261.317 409.515 249.261L720.222 -2.1524C728.959 -9.2221 741.445 -9.20884 750.167 -2.1206L1102.15 283.929C1133.24 309.198 1179.71 287.046 1179.71 246.953V3.58087Z" fill="#5D6174" fill-opacity="0.1"/>
<path d="M776 427.419C776 451.006 786.478 473.37 804.594 488.451L871.25 543.941V282.273L1170.8 527.109C1199.78 550.797 1241.36 550.981 1270.55 527.549L1626.41 241.89C1650.8 222.305 1665 192.692 1665 161.386V-283.17C1665 -323.369 1618.32 -345.487 1587.27 -320.003L1258.23 -50.0045C1234.35 -30.4048 1220.5 -1.11635 1220.5 29.8011V99.8985L1569.75 -182.198V-100.958C1569.75 -82.0597 1561.34 -64.1431 1546.81 -52.0789L1257.78 187.89C1234.16 207.494 1220.5 236.609 1220.5 267.319V337.778L1569.75 51.7176V132.353C1569.75 151.532 1561.09 169.683 1546.19 181.739L1235.49 433.152C1226.75 440.222 1214.26 440.209 1205.54 433.121L853.56 147.071C822.465 121.802 776 143.954 776 184.047V427.419Z" fill="#5D6174" fill-opacity="0.1"/>
</g>
</g>
<defs>
<filter id="filter0_d" x="-20" y="-336" width="1640" height="512" filterUnits="userSpaceOnUse" color-interpolation-filters="sRGB">
<feFlood flood-opacity="0" result="BackgroundImageFix"/>
<feColorMatrix in="SourceAlpha" type="matrix" values="0 0 0 0 0 0 0 0 0 0 0 0 0 0 0 0 0 0 127 0"/>
<feOffset dy="4"/>
<feGaussianBlur stdDeviation="10"/>
<feColorMatrix type="matrix" values="0 0 0 0 0 0 0 0 0 0 0 0 0 0 0 0 0 0 0.25 0"/>
<feBlend mode="normal" in2="BackgroundImageFix" result="effect1_dropShadow"/>
<feBlend mode="normal" in="SourceGraphic" in2="effect1_dropShadow" result="shape"/>
</filter>
</defs>
</svg>
