<svg width="80" height="80" viewBox="0 0 80 80" fill="none" xmlns="http://www.w3.org/2000/svg">
<path d="M77.6562 23.5938H70.4688V2.34375C70.4688 1.04919 69.4196 0 68.125 0H54.0625C52.7679 0 51.7188 1.04919 51.7188 2.34375V23.5938H42.3438C42.3438 20.0677 42.3438 10.4901 42.3438 7.03125C42.3438 3.1543 39.1895 0 35.3125 0C31.4355 0 28.2812 3.1543 28.2812 7.03125V23.5938H18.75C18.75 18.4241 14.5447 14.2188 9.375 14.2188C4.20532 14.2188 0 18.4241 0 23.5938V70.625C0 75.7947 4.20532 80 9.375 80H77.6562C78.9508 80 80 78.9508 80 77.6562V25.9375C80 24.6429 78.9508 23.5938 77.6562 23.5938ZM65.7812 4.6875V65.9375H56.4062V61.25H58.75C60.0446 61.25 61.0938 60.2008 61.0938 58.9062C61.0938 57.6117 60.0446 56.5625 58.75 56.5625H56.4062V51.875H58.75C60.0446 51.875 61.0938 50.8258 61.0938 49.5312C61.0938 48.2367 60.0446 47.1875 58.75 47.1875H56.4062V42.3438H58.75C60.0446 42.3438 61.0938 41.2946 61.0938 40C61.0938 38.7054 60.0446 37.6562 58.75 37.6562H56.4062V32.9688H58.75C60.0446 32.9688 61.0938 31.9196 61.0938 30.625C61.0938 29.3304 60.0446 28.2812 58.75 28.2812H56.4062V25.9558C56.4062 25.9497 56.4075 25.9436 56.4075 25.9375C56.4075 25.9314 56.4062 25.9253 56.4062 25.9192V23.5938H58.75C60.0446 23.5938 61.0938 22.5446 61.0938 21.25C61.0938 19.9554 60.0446 18.9062 58.75 18.9062H56.4062V14.0625H58.75C60.0446 14.0625 61.0938 13.0133 61.0938 11.7188C61.0938 10.4242 60.0446 9.375 58.75 9.375H56.4062V4.6875H65.7812ZM37.6562 51.875H32.9688C32.9688 49.9902 32.9688 15.0342 32.9688 14.0625H37.6562V51.875ZM36.748 56.5625L35.3125 60.8698L33.877 56.5625H36.748ZM35.3125 4.6875C36.6046 4.6875 37.6562 5.73914 37.6562 7.03125V9.375H32.9688V7.03125C32.9688 5.73914 34.0204 4.6875 35.3125 4.6875ZM9.375 18.9062C11.9598 18.9062 14.0625 21.0089 14.0625 23.5938V62.511C12.6825 61.7108 11.0822 61.25 9.375 61.25C7.66785 61.25 6.0675 61.7108 4.6875 62.511V23.5938C4.6875 21.0089 6.79016 18.9062 9.375 18.9062ZM75.3125 75.3125H9.375C6.79016 75.3125 4.6875 73.2098 4.6875 70.625C4.6875 68.0402 6.79016 65.9375 9.375 65.9375C11.9598 65.9375 14.0625 68.0402 14.0625 70.625C14.0625 71.9196 15.1117 72.9688 16.4062 72.9688C17.7008 72.9688 18.75 71.9196 18.75 70.625V28.2812H28.2812V54.2188C28.2812 54.4672 28.3295 54.7437 28.4015 54.9597L33.089 69.0222C33.4082 69.9792 34.3036 70.625 35.3125 70.625C36.3214 70.625 37.2168 69.9792 37.536 69.0222L42.2235 54.9597C42.2253 54.9542 42.2266 54.9487 42.2284 54.9426C42.2986 54.726 42.3438 54.4623 42.3438 54.2188V28.2812H51.7188V68.2812C51.7188 69.5758 52.7679 70.625 54.0625 70.625H68.125C69.4196 70.625 70.4688 69.5758 70.4688 68.2812V28.2812H75.3125V75.3125Z" fill="#2F344C"/>
</svg>
