<svg width="150" height="150" viewBox="0 0 150 150" fill="none" xmlns="http://www.w3.org/2000/svg">
<circle cx="75" cy="75" r="75" fill="#D1E6FF" fill-opacity="0.5"/>
<g clip-path="url(#clip0)">
<path d="M134.425 100.565C138.226 100.565 141.849 102.175 144.398 104.995C146.946 107.816 148.181 111.583 147.797 115.365V140.95L90.7503 140.956V115.365C90.3665 111.583 91.6035 107.815 94.1522 104.995C96.7021 102.174 100.326 100.565 104.127 100.565H107.812L112.569 118.808L117.533 109.226H120.618L125.98 118.808H125.984L131.158 100.565H134.425Z" fill="#E6E7EC"/>
<path d="M131.766 73.244V78.4175C131.766 85.5635 125.974 91.3561 118.829 91.3561C111.683 91.3561 105.89 85.5635 105.89 78.4175V73.244C105.89 66.098 111.683 60.3054 118.829 60.3054C125.974 60.3054 131.766 66.098 131.766 73.244Z" fill="white"/>
<path d="M123.213 100.969L120.627 109.231H117.539L114.951 100.969H123.213Z" fill="#FA4B5F"/>
<path d="M91.5557 40.4021H62.3931V6.72778H108.916V48.3014L97.8913 40.4021H91.5557Z" fill="white"/>
<path d="M91.5527 40.4052V49.0863H56.0569L45.0337 56.9833V15.4097H62.3901V40.4052H91.5527Z" fill="#E6E7EC"/>
<path d="M45.8778 99.199C49.6777 99.1978 53.3018 100.807 55.8494 103.626C58.3981 106.446 59.6339 110.213 59.2501 113.995V143.126L2.20221 143.132V113.995C1.82079 110.213 3.05773 106.446 5.60647 103.626C8.1564 100.807 11.7793 99.199 15.5804 99.199H19.2639L24.0216 117.438L28.986 107.856H32.0706L37.4331 117.438H37.4366L42.6102 99.199H45.8778Z" fill="white"/>
<path d="M43.2102 68.916V80.5939C43.2078 87.5272 37.7396 93.2259 30.8123 93.5158C23.8849 93.8058 17.9604 88.5835 17.3794 81.674L17.4091 81.6716C17.4091 81.6716 21.2661 70.9788 30.7849 69.7109L30.7992 69.6705C34.3187 70.961 38.5048 71.1463 43.2102 68.916Z" fill="white"/>
<path d="M43.2092 68.5027V68.9162C38.5039 71.1465 34.3177 70.9611 30.7982 69.6707C23.5501 67.0245 19.1239 59.7003 18.7983 59.149C19.1168 59.0052 19.4626 58.9315 19.8119 58.9339H33.6393C38.9245 58.9339 43.2092 63.2174 43.2092 68.5027Z" fill="#DFE2E7"/>
<path d="M34.6521 99.5925L32.0666 107.854H28.9796L26.3916 99.5925H34.6521Z" fill="#FA4B5F"/>
<path d="M30.7987 69.6716L30.7844 69.712C21.2655 70.9799 17.4086 81.6727 17.4086 81.6727L17.3789 81.6751C17.348 81.3198 17.3325 80.9598 17.3325 80.595V61.4135C17.3337 60.4367 17.9076 59.5503 18.7988 59.1499C19.1244 59.7012 23.5505 67.0255 30.7987 69.6716Z" fill="#DFE2E7"/>
<path d="M45.8723 97.0693H42.6047C41.6529 97.0693 40.8164 97.7015 40.5562 98.6176L36.7824 111.923L34.3727 107.62L36.685 100.23C36.887 99.5836 36.7705 98.879 36.3689 98.3324C35.9673 97.787 35.3304 97.465 34.6531 97.465H26.3926C25.7141 97.465 25.0772 97.787 24.6756 98.3336C24.2752 98.879 24.1575 99.5836 24.3595 100.23L26.6861 107.655L24.6768 111.534L21.3189 98.6616C21.0741 97.724 20.2269 97.0693 19.2585 97.0693H15.575C11.1916 97.0693 7.01026 98.9158 4.05871 102.157C1.10716 105.399 -0.341287 109.733 0.0674623 114.098V143.132C0.0674623 144.308 1.02161 145.261 2.19676 145.261L59.2446 145.255C60.4198 145.255 61.3739 144.302 61.3739 143.126V114.098C61.785 109.735 60.3378 105.399 57.3874 102.157C54.4359 98.9158 50.2557 97.0681 45.8723 97.0693ZM31.7562 101.724L30.524 105.66L29.2907 101.724H31.7562ZM57.1248 113.778C57.1177 113.849 57.1141 113.922 57.1141 113.994V140.997L4.32606 141.003V113.994C4.32606 113.922 4.32249 113.851 4.31537 113.779C3.99336 110.596 5.03543 107.426 7.18017 105.053C9.32611 102.68 12.3763 101.327 15.575 101.328H17.6128L21.9557 117.975C22.1779 118.828 22.9028 119.455 23.7785 119.553C24.6554 119.652 25.5014 119.2 25.9066 118.417L30.2745 109.985H30.8163L35.5692 118.478C35.9899 119.229 36.8216 119.653 37.6771 119.552C38.5327 119.452 39.2432 118.847 39.4785 118.019L44.2136 101.328H45.8711C49.0698 101.327 52.12 102.68 54.2648 105.053C56.4095 107.426 57.4492 110.596 57.126 113.778H57.1248Z" fill="#50556C"/>
<path d="M19.6133 91.2405C23.9218 95.5502 30.4023 96.8394 36.0333 94.5081C41.6631 92.1768 45.3347 86.6825 45.3347 80.5881V68.4967C45.3288 62.0387 40.0947 56.8046 33.6355 56.7986H19.8081C19.1546 56.7962 18.5082 56.9353 17.9129 57.205C16.2637 57.9536 15.2026 59.5957 15.2002 61.4065V80.5881C15.2002 81.0123 15.218 81.4364 15.2525 81.8428C15.5472 85.3932 17.0918 88.7238 19.6133 91.2405ZM19.4576 63.7117C21.1651 65.8065 23.1518 67.6566 25.3643 69.2084C23.0888 70.4133 21.0795 72.0661 19.4576 74.0659V63.7117ZM30.2692 91.3973C24.8533 91.3973 20.2739 87.3906 19.5538 82.0234C20.2739 80.3088 23.7162 73.05 30.6851 71.8796C32.4164 72.4535 34.2272 72.7482 36.0511 72.7517C37.7539 72.747 39.4459 72.4951 41.0761 72.0055V80.5892C41.069 86.5553 36.2341 91.389 30.2692 91.3961V91.3973ZM41.012 67.5318C37.9749 68.7474 34.5956 68.7949 31.5252 67.6661C27.6765 66.2604 24.6632 63.316 22.7918 61.0572H33.6355C37.3689 61.0632 40.5224 63.8305 41.012 67.5307V67.5318Z" fill="#50556C"/>
<path d="M103.759 73.2444V78.4179C103.759 86.7402 110.504 93.4858 118.827 93.4858C127.148 93.4858 133.893 86.7402 133.893 78.4179V73.2444C133.893 64.9221 127.148 58.1765 118.827 58.1765C110.504 58.1765 103.759 64.9221 103.759 73.2444V73.2444ZM118.828 62.4339C124.796 62.4351 129.635 67.2747 129.635 73.2444V78.4179C129.635 84.3887 124.796 89.2272 118.827 89.2272C112.856 89.2272 108.017 84.3887 108.017 78.4179V73.2444C108.023 67.2759 112.859 62.4399 118.828 62.4339V62.4339Z" fill="#50556C"/>
<path d="M134.432 98.4365H131.165C130.213 98.4365 129.376 99.0687 129.117 99.9848L125.342 113.294L122.933 108.99L125.245 101.601C125.448 100.954 125.33 100.25 124.928 99.7044C124.527 99.1578 123.89 98.8358 123.213 98.8358H114.952C114.274 98.8358 113.637 99.1578 113.236 99.7044C112.835 100.251 112.717 100.956 112.92 101.602L115.247 109.026L113.238 112.904L109.88 100.029C109.635 99.0912 108.789 98.4365 107.819 98.4365H104.135C99.7512 98.4365 95.5698 100.284 92.6182 103.526C89.6667 106.767 88.2171 111.103 88.6282 115.469V140.956C88.6282 142.132 89.5811 143.085 90.7575 143.085L147.804 143.079C148.979 143.079 149.933 142.126 149.933 140.95V115.469C150.345 111.104 148.899 106.768 145.947 103.527C142.997 100.284 138.815 98.4365 134.432 98.4365V98.4365ZM120.316 103.094L119.084 107.031L117.85 103.094H120.316ZM145.686 115.149C145.678 115.221 145.675 115.293 145.675 115.365V138.821L92.8856 138.827V115.365C92.8856 115.293 92.882 115.221 92.8749 115.15C92.5529 111.967 93.5938 108.795 95.7397 106.423C97.8845 104.05 100.935 102.695 104.135 102.695H106.172L110.515 119.346C110.737 120.199 111.462 120.826 112.338 120.925C113.215 121.022 114.06 120.571 114.466 119.788L118.836 111.356H119.377L124.129 119.848C124.551 120.599 125.382 121.024 126.237 120.923C127.092 120.823 127.803 120.218 128.039 119.39L132.774 102.695H134.432C137.631 102.695 140.68 104.05 142.824 106.423C144.969 108.797 146.009 111.967 145.687 115.149H145.686Z" fill="#50556C"/>
<path d="M70.9037 18.0564H80.4499C81.625 18.0564 82.5792 17.1035 82.5792 15.9272C82.5792 14.7508 81.625 13.7979 80.4499 13.7979H70.9037C69.7286 13.7979 68.7744 14.7508 68.7744 15.9272C68.7744 17.1035 69.7286 18.0564 70.9037 18.0564V18.0564Z" fill="#50556C"/>
<path d="M100.413 32.8101C101.59 32.8101 102.543 31.8572 102.543 30.6808C102.543 29.5057 101.59 28.5515 100.413 28.5515H70.9037C69.7286 28.5515 68.7744 29.5057 68.7744 30.6808C68.7744 31.8572 69.7286 32.8101 70.9037 32.8101H100.413Z" fill="#50556C"/>
<path d="M70.9037 24.9998H100.413C101.59 24.9998 102.543 24.0468 102.543 22.8705C102.543 21.6954 101.59 20.7412 100.413 20.7412H70.9037C69.7286 20.7412 68.7744 21.6954 68.7744 22.8705C68.7744 24.0468 69.7286 24.9998 70.9037 24.9998Z" fill="#50556C"/>
<path d="M44.0678 58.8739C44.7783 59.2387 45.6315 59.1745 46.2802 58.7099L56.7485 51.2122H91.5599C92.7363 51.2122 93.6892 50.2581 93.6892 49.0829V42.5298H97.2111L107.679 50.0311C108.328 50.4969 109.182 50.5599 109.892 50.1951C110.602 49.8303 111.049 49.0983 111.049 48.3011V6.72744C111.049 5.55229 110.095 4.59814 108.92 4.59814H62.3973C61.221 4.59814 60.268 5.55229 60.268 6.72744V13.2769H45.0409C43.8646 13.2769 42.9116 14.2299 42.9116 15.4062V56.9798C42.9116 57.7771 43.3572 58.5091 44.0678 58.8739ZM64.5266 8.85674H106.791V44.1553L99.136 38.6705C98.7748 38.4115 98.3411 38.2724 97.8955 38.2724H92.0709C91.7358 38.1869 91.3853 38.1869 91.0514 38.2724H64.5266V8.85674ZM47.1702 17.5355H60.268V40.4017C60.268 41.5769 61.221 42.531 62.3973 42.531H89.4306V46.9536H56.0641C55.6197 46.9536 55.186 47.0926 54.8236 47.3517L47.1702 52.8353V17.5355Z" fill="#50556C"/>
</g>
<defs>
<clipPath id="clip0">
<rect width="150" height="150" fill="white"/>
</clipPath>
</defs>
</svg>
