<svg width="50" height="50" viewBox="0 0 50 50" fill="none" xmlns="http://www.w3.org/2000/svg">
<circle cx="25" cy="25" r="25" fill="#EDF5FF"/>
<g clip-path="url(#clip0)">
<path d="M34.8859 22.3028C34.7881 22.1835 34.6421 22.1138 34.489 22.1138H32.5425C32.0621 20.8469 31.4363 19.6055 30.725 19.1369C28.2643 17.5182 21.7374 17.5182 19.2767 19.1369C18.5649 19.606 17.9417 20.8489 17.4587 22.1138H15.5122C15.3575 22.1138 15.2121 22.1835 15.1153 22.3028C15.018 22.4216 14.9791 22.5788 15.0108 22.7299L15.2992 24.127C15.3483 24.3651 15.5583 24.5351 15.8005 24.5351H16.3772C15.8205 25.1773 15.5506 25.9859 15.547 26.7951C15.5434 27.7947 15.9229 28.6981 16.6168 29.3372C16.6245 29.3438 16.6322 29.3484 16.6394 29.3551V31.3098C16.6394 31.7333 16.9835 32.078 17.4075 32.078H19.203C19.627 32.078 19.9712 31.7333 19.9712 31.3098V30.5243H30.0295V31.3098C30.0295 31.7333 30.3737 32.078 30.7977 32.078H32.5932C33.0162 32.078 33.3613 31.7333 33.3613 31.3098V29.3935C34.0977 28.7191 34.4496 27.7911 34.4542 26.8647C34.4572 26.0279 34.1751 25.1896 33.5856 24.5341H34.2007C34.4439 24.5341 34.6539 24.3641 34.702 24.1254L34.9909 22.7289C35.0206 22.5788 34.9832 22.4226 34.8859 22.3028ZM20.1202 20.4198C22.0816 19.1287 27.9191 19.1287 29.8795 20.4198C30.2605 20.6697 30.7506 21.6801 31.1997 22.9173H18.801C19.2491 21.6806 19.7392 20.6707 20.1202 20.4198ZM17.8228 26.9876C17.8228 26.1529 18.4999 25.4769 19.3341 25.4769C20.1693 25.4769 20.8453 26.1529 20.8453 26.9876C20.8453 27.8224 20.1693 28.4988 19.3341 28.4988C18.4999 28.4988 17.8228 27.8224 17.8228 26.9876ZM30.6866 28.4988C29.8523 28.4988 29.1753 27.8224 29.1753 26.9876C29.1753 26.1529 29.8523 25.4769 30.6866 25.4769C31.5218 25.4769 32.1978 26.1529 32.1978 26.9876C32.1978 27.8224 31.5208 28.4988 30.6866 28.4988Z" fill="#1AACFF"/>
</g>
<defs>
<clipPath id="clip0">
<rect width="20.0005" height="20" fill="white" transform="translate(15 15)"/>
</clipPath>
</defs>
</svg>
