<svg width="160" height="140" viewBox="0 0 160 140" fill="none" xmlns="http://www.w3.org/2000/svg">
<path d="M98.6181 0C168.957 46.9391 146.147 98.5181 146.147 98.5181C146.147 98.5181 166.127 120.628 158.097 139.997C158.097 139.997 149.807 126.468 136.047 126.468C122.748 126.468 114.878 139.997 88.0283 139.997C28.3095 139.997 0 91.0582 0 91.0582C53.8189 125.858 90.5882 101.198 90.5882 101.198C66.2887 87.4183 14.7497 21.4296 14.7497 21.4296C59.6788 58.9388 79.0685 68.7887 79.0685 68.7887C67.4087 59.4288 34.9193 13.5597 34.9193 13.5597C60.9188 39.3492 112.598 75.3085 112.598 75.3085C127.418 35.5693 98.6181 0 98.6181 0Z" fill="#FF5722"/>
</svg>
