<svg width="24" height="29" viewBox="0 0 24 29" fill="none" xmlns="http://www.w3.org/2000/svg">
<path d="M19.5626 17.3902C20.9539 20.9972 19.1577 25.049 15.5507 26.4403C11.9437 27.8316 7.89186 26.0354 6.50058 22.4285C5.1093 18.8215 6.90547 14.7696 10.5124 13.3783C14.1194 11.987 18.1713 13.7832 19.5626 17.3902ZM9.7763 21.165C10.4698 22.9628 12.4894 23.8581 14.2872 23.1646C16.085 22.4711 16.9803 20.4515 16.2869 18.6537C15.5934 16.8559 13.5738 15.9606 11.776 16.654C9.97812 17.3475 9.08284 19.3671 9.7763 21.165Z" fill="#2F344C"/>
<rect x="15.2861" y="15.3135" width="4" height="14" rx="2" transform="rotate(178.907 15.2861 15.3135)" fill="#2F344C"/>
</svg>
