<svg width="786" height="329" viewBox="0 0 786 329" fill="none" xmlns="http://www.w3.org/2000/svg">
<rect width="786" height="329" rx="4" fill="#C4C4C4"/>
<path d="M248.032 174.252C246.091 174.252 244.392 173.841 242.936 173.02C241.48 172.199 240.36 171.023 239.576 169.492C238.792 167.961 238.4 166.169 238.4 164.116C238.4 162.063 238.792 160.28 239.576 158.768C240.36 157.237 241.48 156.061 242.936 155.24C244.392 154.419 246.091 154.008 248.032 154.008C250.477 154.008 252.587 154.68 254.36 156.024C254.64 156.248 254.836 156.472 254.948 156.696C255.06 156.92 255.116 157.2 255.116 157.536C255.116 158.021 254.976 158.441 254.696 158.796C254.435 159.132 254.108 159.3 253.716 159.3C253.455 159.3 253.221 159.272 253.016 159.216C252.829 159.141 252.615 159.02 252.372 158.852C251.625 158.367 250.935 158.021 250.3 157.816C249.665 157.592 248.984 157.48 248.256 157.48C246.464 157.48 245.111 158.04 244.196 159.16C243.3 160.261 242.852 161.913 242.852 164.116C242.852 168.559 244.653 170.78 248.256 170.78C248.947 170.78 249.6 170.677 250.216 170.472C250.832 170.248 251.551 169.893 252.372 169.408C252.652 169.24 252.885 169.128 253.072 169.072C253.259 168.997 253.473 168.96 253.716 168.96C254.108 168.96 254.435 169.137 254.696 169.492C254.976 169.828 255.116 170.239 255.116 170.724C255.116 171.06 255.051 171.349 254.92 171.592C254.808 171.816 254.621 172.031 254.36 172.236C252.587 173.58 250.477 174.252 248.032 174.252ZM273.414 154.12C274.067 154.12 274.59 154.316 274.982 154.708C275.374 155.1 275.57 155.623 275.57 156.276V171.984C275.57 172.637 275.374 173.169 274.982 173.58C274.59 173.972 274.067 174.168 273.414 174.168C272.76 174.168 272.238 173.972 271.846 173.58C271.472 173.188 271.286 172.656 271.286 171.984V165.712H262.186V171.984C262.186 172.637 261.99 173.169 261.598 173.58C261.206 173.972 260.692 174.168 260.058 174.168C259.404 174.168 258.882 173.972 258.49 173.58C258.098 173.188 257.902 172.656 257.902 171.984V156.276C257.902 155.623 258.098 155.1 258.49 154.708C258.882 154.316 259.404 154.12 260.058 154.12C260.711 154.12 261.224 154.316 261.598 154.708C261.99 155.1 262.186 155.623 262.186 156.276V162.24H271.286V156.276C271.286 155.623 271.472 155.1 271.846 154.708C272.238 154.316 272.76 154.12 273.414 154.12ZM297.864 171.34C298.013 171.676 298.088 171.975 298.088 172.236C298.088 172.759 297.873 173.207 297.444 173.58C297.033 173.935 296.557 174.112 296.016 174.112C295.661 174.112 295.325 174.019 295.008 173.832C294.691 173.627 294.448 173.328 294.28 172.936L292.796 169.632H283.304L281.82 172.936C281.652 173.328 281.409 173.627 281.092 173.832C280.793 174.019 280.457 174.112 280.084 174.112C279.543 174.112 279.057 173.935 278.628 173.58C278.199 173.207 277.984 172.759 277.984 172.236C277.984 171.975 278.059 171.676 278.208 171.34L285.768 155.464C285.973 155.016 286.281 154.68 286.692 154.456C287.103 154.213 287.541 154.092 288.008 154.092C288.493 154.092 288.941 154.213 289.352 154.456C289.763 154.699 290.08 155.035 290.304 155.464L297.864 171.34ZM291.312 166.328L288.064 159.048L284.788 166.328H291.312ZM316.644 171.228C316.924 171.639 317.064 172.04 317.064 172.432C317.064 172.955 316.85 173.384 316.42 173.72C316.01 174.056 315.524 174.224 314.964 174.224C314.61 174.224 314.264 174.14 313.928 173.972C313.592 173.804 313.312 173.543 313.088 173.188L309.392 167.7C309.075 167.215 308.739 166.869 308.384 166.664C308.03 166.44 307.582 166.328 307.04 166.328H304.772V171.984C304.772 172.656 304.576 173.188 304.184 173.58C303.811 173.972 303.298 174.168 302.644 174.168C301.972 174.168 301.44 173.972 301.048 173.58C300.656 173.188 300.46 172.656 300.46 171.984V156.304C300.46 155.651 300.638 155.147 300.992 154.792C301.347 154.437 301.851 154.26 302.504 154.26H309.532C311.847 154.26 313.592 154.773 314.768 155.8C315.963 156.808 316.56 158.273 316.56 160.196C316.56 161.708 316.14 162.968 315.3 163.976C314.46 164.984 313.275 165.647 311.744 165.964C312.304 166.076 312.799 166.3 313.228 166.636C313.676 166.953 314.106 167.42 314.516 168.036L316.644 171.228ZM308.888 163.024C310.139 163.024 311.044 162.809 311.604 162.38C312.164 161.932 312.444 161.241 312.444 160.308C312.444 159.356 312.164 158.665 311.604 158.236C311.044 157.807 310.139 157.592 308.888 157.592H304.716V163.024H308.888ZM326.259 174.14C325.606 174.14 325.074 173.944 324.663 173.552C324.271 173.16 324.075 172.637 324.075 171.984V157.816H319.539C318.158 157.816 317.467 157.219 317.467 156.024C317.467 154.848 318.158 154.26 319.539 154.26H332.979C334.361 154.26 335.051 154.848 335.051 156.024C335.051 157.219 334.361 157.816 332.979 157.816H328.443V171.984C328.443 172.637 328.247 173.16 327.855 173.552C327.463 173.944 326.931 174.14 326.259 174.14ZM346.864 174.168C346.192 174.168 345.66 173.972 345.268 173.58C344.876 173.188 344.68 172.656 344.68 171.984V156.304C344.68 155.651 344.857 155.147 345.212 154.792C345.566 154.437 346.07 154.26 346.724 154.26H353.752C355.898 154.26 357.569 154.801 358.764 155.884C359.958 156.967 360.556 158.479 360.556 160.42C360.556 162.361 359.958 163.873 358.764 164.956C357.569 166.039 355.898 166.58 353.752 166.58H349.048V171.984C349.048 172.656 348.852 173.188 348.46 173.58C348.068 173.972 347.536 174.168 346.864 174.168ZM353.192 163.276C355.376 163.276 356.468 162.333 356.468 160.448C356.468 158.544 355.376 157.592 353.192 157.592H349.048V163.276H353.192ZM365.392 174C364.738 174 364.234 173.823 363.88 173.468C363.525 173.113 363.348 172.609 363.348 171.956V156.276C363.348 155.623 363.544 155.1 363.936 154.708C364.328 154.316 364.86 154.12 365.532 154.12C366.204 154.12 366.736 154.316 367.128 154.708C367.52 155.1 367.716 155.623 367.716 156.276V170.444H374.884C376.246 170.444 376.928 171.041 376.928 172.236C376.928 173.412 376.246 174 374.884 174H365.392ZM397.459 171.34C397.608 171.676 397.683 171.975 397.683 172.236C397.683 172.759 397.468 173.207 397.039 173.58C396.628 173.935 396.152 174.112 395.611 174.112C395.256 174.112 394.92 174.019 394.603 173.832C394.285 173.627 394.043 173.328 393.875 172.936L392.391 169.632H382.899L381.415 172.936C381.247 173.328 381.004 173.627 380.687 173.832C380.388 174.019 380.052 174.112 379.679 174.112C379.137 174.112 378.652 173.935 378.223 173.58C377.793 173.207 377.579 172.759 377.579 172.236C377.579 171.975 377.653 171.676 377.803 171.34L385.363 155.464C385.568 155.016 385.876 154.68 386.287 154.456C386.697 154.213 387.136 154.092 387.603 154.092C388.088 154.092 388.536 154.213 388.947 154.456C389.357 154.699 389.675 155.035 389.899 155.464L397.459 171.34ZM390.907 166.328L387.659 159.048L384.383 166.328H390.907ZM408.58 174.252C406.639 174.252 404.94 173.841 403.484 173.02C402.028 172.199 400.908 171.023 400.124 169.492C399.34 167.961 398.948 166.169 398.948 164.116C398.948 162.063 399.34 160.28 400.124 158.768C400.908 157.237 402.028 156.061 403.484 155.24C404.94 154.419 406.639 154.008 408.58 154.008C411.026 154.008 413.135 154.68 414.908 156.024C415.188 156.248 415.384 156.472 415.496 156.696C415.608 156.92 415.664 157.2 415.664 157.536C415.664 158.021 415.524 158.441 415.244 158.796C414.983 159.132 414.656 159.3 414.264 159.3C414.003 159.3 413.77 159.272 413.564 159.216C413.378 159.141 413.163 159.02 412.92 158.852C412.174 158.367 411.483 158.021 410.848 157.816C410.214 157.592 409.532 157.48 408.804 157.48C407.012 157.48 405.659 158.04 404.744 159.16C403.848 160.261 403.4 161.913 403.4 164.116C403.4 168.559 405.202 170.78 408.804 170.78C409.495 170.78 410.148 170.677 410.764 170.472C411.38 170.248 412.099 169.893 412.92 169.408C413.2 169.24 413.434 169.128 413.62 169.072C413.807 168.997 414.022 168.96 414.264 168.96C414.656 168.96 414.983 169.137 415.244 169.492C415.524 169.828 415.664 170.239 415.664 170.724C415.664 171.06 415.599 171.349 415.468 171.592C415.356 171.816 415.17 172.031 414.908 172.236C413.135 173.58 411.026 174.252 408.58 174.252ZM420.494 174C419.841 174 419.337 173.823 418.982 173.468C418.627 173.113 418.45 172.609 418.45 171.956V156.304C418.45 155.651 418.627 155.147 418.982 154.792C419.337 154.437 419.841 154.26 420.494 154.26H430.406C431.787 154.26 432.478 154.82 432.478 155.94C432.478 157.079 431.787 157.648 430.406 157.648H422.706V162.268H429.846C431.227 162.268 431.918 162.837 431.918 163.976C431.918 165.096 431.227 165.656 429.846 165.656H422.706V170.612H430.406C431.787 170.612 432.478 171.181 432.478 172.32C432.478 173.44 431.787 174 430.406 174H420.494ZM450.525 154.12C451.178 154.12 451.701 154.316 452.093 154.708C452.485 155.1 452.681 155.623 452.681 156.276V171.984C452.681 172.637 452.485 173.169 452.093 173.58C451.701 173.972 451.178 174.168 450.525 174.168C449.871 174.168 449.349 173.972 448.957 173.58C448.583 173.188 448.397 172.656 448.397 171.984V165.712H439.297V171.984C439.297 172.637 439.101 173.169 438.709 173.58C438.317 173.972 437.803 174.168 437.169 174.168C436.515 174.168 435.993 173.972 435.601 173.58C435.209 173.188 435.013 172.656 435.013 171.984V156.276C435.013 155.623 435.209 155.1 435.601 154.708C435.993 154.316 436.515 154.12 437.169 154.12C437.822 154.12 438.335 154.316 438.709 154.708C439.101 155.1 439.297 155.623 439.297 156.276V162.24H448.397V156.276C448.397 155.623 448.583 155.1 448.957 154.708C449.349 154.316 449.871 154.12 450.525 154.12ZM465.651 174.252C463.691 174.252 461.983 173.841 460.527 173.02C459.09 172.18 457.979 171.004 457.195 169.492C456.411 167.961 456.019 166.169 456.019 164.116C456.019 162.063 456.411 160.28 457.195 158.768C457.979 157.237 459.09 156.061 460.527 155.24C461.983 154.419 463.691 154.008 465.651 154.008C467.611 154.008 469.31 154.419 470.747 155.24C472.203 156.061 473.323 157.237 474.107 158.768C474.891 160.28 475.283 162.063 475.283 164.116C475.283 166.169 474.891 167.961 474.107 169.492C473.323 171.004 472.203 172.18 470.747 173.02C469.31 173.841 467.611 174.252 465.651 174.252ZM465.651 170.864C467.294 170.864 468.582 170.285 469.515 169.128C470.467 167.971 470.943 166.3 470.943 164.116C470.943 161.932 470.476 160.271 469.543 159.132C468.61 157.975 467.312 157.396 465.651 157.396C463.99 157.396 462.692 157.975 461.759 159.132C460.844 160.271 460.387 161.932 460.387 164.116C460.387 166.3 460.854 167.971 461.787 169.128C462.72 170.285 464.008 170.864 465.651 170.864ZM480.627 174C479.974 174 479.47 173.823 479.115 173.468C478.76 173.113 478.583 172.609 478.583 171.956V156.276C478.583 155.623 478.779 155.1 479.171 154.708C479.563 154.316 480.095 154.12 480.767 154.12C481.439 154.12 481.971 154.316 482.363 154.708C482.755 155.1 482.951 155.623 482.951 156.276V170.444H490.119C491.482 170.444 492.163 171.041 492.163 172.236C492.163 173.412 491.482 174 490.119 174H480.627ZM496.369 174C495.716 174 495.212 173.823 494.857 173.468C494.503 173.113 494.325 172.609 494.325 171.956V156.304C494.325 155.651 494.503 155.147 494.857 154.792C495.212 154.437 495.716 154.26 496.369 154.26H501.997C504.144 154.26 505.992 154.652 507.541 155.436C509.091 156.22 510.276 157.349 511.097 158.824C511.919 160.299 512.329 162.063 512.329 164.116C512.329 166.169 511.919 167.943 511.097 169.436C510.295 170.911 509.119 172.04 507.569 172.824C506.02 173.608 504.163 174 501.997 174H496.369ZM501.689 170.472C505.889 170.472 507.989 168.353 507.989 164.116C507.989 159.897 505.889 157.788 501.689 157.788H498.693V170.472H501.689ZM517.69 174C517.037 174 516.533 173.823 516.178 173.468C515.823 173.113 515.646 172.609 515.646 171.956V156.304C515.646 155.651 515.823 155.147 516.178 154.792C516.533 154.437 517.037 154.26 517.69 154.26H527.602C528.983 154.26 529.674 154.82 529.674 155.94C529.674 157.079 528.983 157.648 527.602 157.648H519.902V162.268H527.042C528.423 162.268 529.114 162.837 529.114 163.976C529.114 165.096 528.423 165.656 527.042 165.656H519.902V170.612H527.602C528.983 170.612 529.674 171.181 529.674 172.32C529.674 173.44 528.983 174 527.602 174H517.69ZM548.393 171.228C548.673 171.639 548.813 172.04 548.813 172.432C548.813 172.955 548.598 173.384 548.169 173.72C547.758 174.056 547.273 174.224 546.713 174.224C546.358 174.224 546.013 174.14 545.677 173.972C545.341 173.804 545.061 173.543 544.837 173.188L541.141 167.7C540.823 167.215 540.487 166.869 540.133 166.664C539.778 166.44 539.33 166.328 538.789 166.328H536.521V171.984C536.521 172.656 536.325 173.188 535.933 173.58C535.559 173.972 535.046 174.168 534.393 174.168C533.721 174.168 533.189 173.972 532.797 173.58C532.405 173.188 532.209 172.656 532.209 171.984V156.304C532.209 155.651 532.386 155.147 532.741 154.792C533.095 154.437 533.599 154.26 534.253 154.26H541.281C543.595 154.26 545.341 154.773 546.517 155.8C547.711 156.808 548.309 158.273 548.309 160.196C548.309 161.708 547.889 162.968 547.049 163.976C546.209 164.984 545.023 165.647 543.493 165.964C544.053 166.076 544.547 166.3 544.977 166.636C545.425 166.953 545.854 167.42 546.265 168.036L548.393 171.228ZM540.637 163.024C541.887 163.024 542.793 162.809 543.353 162.38C543.913 161.932 544.193 161.241 544.193 160.308C544.193 159.356 543.913 158.665 543.353 158.236C542.793 157.807 541.887 157.592 540.637 157.592H536.465V163.024H540.637Z" fill="white"/>
</svg>
