<svg width="151" height="75" viewBox="0 0 151 75" fill="none" xmlns="http://www.w3.org/2000/svg">
<g clip-path="url(#clip0)">
<path d="M150.999 75C150.999 55.1086 143.097 36.0321 129.032 21.9669C114.967 7.90158 95.89 -0.00012207 75.999 -0.00012207C56.1077 -0.00012207 37.0311 7.90158 22.9659 21.9669C8.9007 36.0321 0.998901 55.1086 0.998901 75H30.9989C30.9989 63.0651 35.74 51.6192 44.1791 43.1801C52.6182 34.7409 64.0642 29.9999 75.999 29.9999C87.934 29.9999 99.38 34.7409 107.819 43.1801C116.258 51.6192 120.999 63.0651 120.999 75H150.999Z" fill="#F6F7FC"/>
<path d="M24.8515 20.1497C36.1061 9.65474 50.3167 2.87565 65.5554 0.732346C80.794 -1.41105 96.323 1.18504 110.036 8.16844L96.422 34.9016C88.195 30.7116 78.877 29.1539 69.7338 30.4399C60.5906 31.7259 52.0642 35.7933 45.3115 42.0903L24.8515 20.1497Z" fill="#A4CFF2"/>
<path d="M0.998901 74.9999C0.998901 59.6111 5.7326 44.5948 14.5578 31.9882C23.3831 19.3816 35.8726 9.79484 50.3321 4.52844L60.5988 32.7169C51.9231 35.8768 44.4294 41.6288 39.1343 49.1928C33.8391 56.7568 30.9989 65.7666 30.9989 74.9999H0.998901Z" fill="#1AACFF"/>
<path d="M0.998901 75C0.998901 62.1156 4.3181 49.4487 10.6365 38.2201L36.7815 52.932C32.9904 59.6692 30.9989 67.2693 30.9989 75H0.998901Z" fill="#2F344C"/>
</g>
<defs>
<clipPath id="clip0">
<rect width="151" height="75.0001" fill="white" transform="translate(0 -0.00012207)"/>
</clipPath>
</defs>
</svg>
