<svg width="552" height="330" viewBox="0 0 552 330" fill="none" xmlns="http://www.w3.org/2000/svg">
<rect width="552" height="330" rx="10" fill="#C4C4C4"/>
<path d="M131.032 174.252C129.091 174.252 127.392 173.841 125.936 173.02C124.48 172.199 123.36 171.023 122.576 169.492C121.792 167.961 121.4 166.169 121.4 164.116C121.4 162.063 121.792 160.28 122.576 158.768C123.36 157.237 124.48 156.061 125.936 155.24C127.392 154.419 129.091 154.008 131.032 154.008C133.477 154.008 135.587 154.68 137.36 156.024C137.64 156.248 137.836 156.472 137.948 156.696C138.06 156.92 138.116 157.2 138.116 157.536C138.116 158.021 137.976 158.441 137.696 158.796C137.435 159.132 137.108 159.3 136.716 159.3C136.455 159.3 136.221 159.272 136.016 159.216C135.829 159.141 135.615 159.02 135.372 158.852C134.625 158.367 133.935 158.021 133.3 157.816C132.665 157.592 131.984 157.48 131.256 157.48C129.464 157.48 128.111 158.04 127.196 159.16C126.3 160.261 125.852 161.913 125.852 164.116C125.852 168.559 127.653 170.78 131.256 170.78C131.947 170.78 132.6 170.677 133.216 170.472C133.832 170.248 134.551 169.893 135.372 169.408C135.652 169.24 135.885 169.128 136.072 169.072C136.259 168.997 136.473 168.96 136.716 168.96C137.108 168.96 137.435 169.137 137.696 169.492C137.976 169.828 138.116 170.239 138.116 170.724C138.116 171.06 138.051 171.349 137.92 171.592C137.808 171.816 137.621 172.031 137.36 172.236C135.587 173.58 133.477 174.252 131.032 174.252ZM156.414 154.12C157.067 154.12 157.59 154.316 157.982 154.708C158.374 155.1 158.57 155.623 158.57 156.276V171.984C158.57 172.637 158.374 173.169 157.982 173.58C157.59 173.972 157.067 174.168 156.414 174.168C155.76 174.168 155.238 173.972 154.846 173.58C154.472 173.188 154.286 172.656 154.286 171.984V165.712H145.186V171.984C145.186 172.637 144.99 173.169 144.598 173.58C144.206 173.972 143.692 174.168 143.058 174.168C142.404 174.168 141.882 173.972 141.49 173.58C141.098 173.188 140.902 172.656 140.902 171.984V156.276C140.902 155.623 141.098 155.1 141.49 154.708C141.882 154.316 142.404 154.12 143.058 154.12C143.711 154.12 144.224 154.316 144.598 154.708C144.99 155.1 145.186 155.623 145.186 156.276V162.24H154.286V156.276C154.286 155.623 154.472 155.1 154.846 154.708C155.238 154.316 155.76 154.12 156.414 154.12ZM180.864 171.34C181.013 171.676 181.088 171.975 181.088 172.236C181.088 172.759 180.873 173.207 180.444 173.58C180.033 173.935 179.557 174.112 179.016 174.112C178.661 174.112 178.325 174.019 178.008 173.832C177.691 173.627 177.448 173.328 177.28 172.936L175.796 169.632H166.304L164.82 172.936C164.652 173.328 164.409 173.627 164.092 173.832C163.793 174.019 163.457 174.112 163.084 174.112C162.543 174.112 162.057 173.935 161.628 173.58C161.199 173.207 160.984 172.759 160.984 172.236C160.984 171.975 161.059 171.676 161.208 171.34L168.768 155.464C168.973 155.016 169.281 154.68 169.692 154.456C170.103 154.213 170.541 154.092 171.008 154.092C171.493 154.092 171.941 154.213 172.352 154.456C172.763 154.699 173.08 155.035 173.304 155.464L180.864 171.34ZM174.312 166.328L171.064 159.048L167.788 166.328H174.312ZM199.644 171.228C199.924 171.639 200.064 172.04 200.064 172.432C200.064 172.955 199.85 173.384 199.42 173.72C199.01 174.056 198.524 174.224 197.964 174.224C197.61 174.224 197.264 174.14 196.928 173.972C196.592 173.804 196.312 173.543 196.088 173.188L192.392 167.7C192.075 167.215 191.739 166.869 191.384 166.664C191.03 166.44 190.582 166.328 190.04 166.328H187.772V171.984C187.772 172.656 187.576 173.188 187.184 173.58C186.811 173.972 186.298 174.168 185.644 174.168C184.972 174.168 184.44 173.972 184.048 173.58C183.656 173.188 183.46 172.656 183.46 171.984V156.304C183.46 155.651 183.638 155.147 183.992 154.792C184.347 154.437 184.851 154.26 185.504 154.26H192.532C194.847 154.26 196.592 154.773 197.768 155.8C198.963 156.808 199.56 158.273 199.56 160.196C199.56 161.708 199.14 162.968 198.3 163.976C197.46 164.984 196.275 165.647 194.744 165.964C195.304 166.076 195.799 166.3 196.228 166.636C196.676 166.953 197.106 167.42 197.516 168.036L199.644 171.228ZM191.888 163.024C193.139 163.024 194.044 162.809 194.604 162.38C195.164 161.932 195.444 161.241 195.444 160.308C195.444 159.356 195.164 158.665 194.604 158.236C194.044 157.807 193.139 157.592 191.888 157.592H187.716V163.024H191.888ZM209.259 174.14C208.606 174.14 208.074 173.944 207.663 173.552C207.271 173.16 207.075 172.637 207.075 171.984V157.816H202.539C201.158 157.816 200.467 157.219 200.467 156.024C200.467 154.848 201.158 154.26 202.539 154.26H215.979C217.361 154.26 218.051 154.848 218.051 156.024C218.051 157.219 217.361 157.816 215.979 157.816H211.443V171.984C211.443 172.637 211.247 173.16 210.855 173.552C210.463 173.944 209.931 174.14 209.259 174.14ZM229.864 174.168C229.192 174.168 228.66 173.972 228.268 173.58C227.876 173.188 227.68 172.656 227.68 171.984V156.304C227.68 155.651 227.857 155.147 228.212 154.792C228.566 154.437 229.07 154.26 229.724 154.26H236.752C238.898 154.26 240.569 154.801 241.764 155.884C242.958 156.967 243.556 158.479 243.556 160.42C243.556 162.361 242.958 163.873 241.764 164.956C240.569 166.039 238.898 166.58 236.752 166.58H232.048V171.984C232.048 172.656 231.852 173.188 231.46 173.58C231.068 173.972 230.536 174.168 229.864 174.168ZM236.192 163.276C238.376 163.276 239.468 162.333 239.468 160.448C239.468 158.544 238.376 157.592 236.192 157.592H232.048V163.276H236.192ZM248.392 174C247.738 174 247.234 173.823 246.88 173.468C246.525 173.113 246.348 172.609 246.348 171.956V156.276C246.348 155.623 246.544 155.1 246.936 154.708C247.328 154.316 247.86 154.12 248.532 154.12C249.204 154.12 249.736 154.316 250.128 154.708C250.52 155.1 250.716 155.623 250.716 156.276V170.444H257.884C259.246 170.444 259.928 171.041 259.928 172.236C259.928 173.412 259.246 174 257.884 174H248.392ZM280.459 171.34C280.608 171.676 280.683 171.975 280.683 172.236C280.683 172.759 280.468 173.207 280.039 173.58C279.628 173.935 279.152 174.112 278.611 174.112C278.256 174.112 277.92 174.019 277.603 173.832C277.285 173.627 277.043 173.328 276.875 172.936L275.391 169.632H265.899L264.415 172.936C264.247 173.328 264.004 173.627 263.687 173.832C263.388 174.019 263.052 174.112 262.679 174.112C262.137 174.112 261.652 173.935 261.223 173.58C260.793 173.207 260.579 172.759 260.579 172.236C260.579 171.975 260.653 171.676 260.803 171.34L268.363 155.464C268.568 155.016 268.876 154.68 269.287 154.456C269.697 154.213 270.136 154.092 270.603 154.092C271.088 154.092 271.536 154.213 271.947 154.456C272.357 154.699 272.675 155.035 272.899 155.464L280.459 171.34ZM273.907 166.328L270.659 159.048L267.383 166.328H273.907ZM291.58 174.252C289.639 174.252 287.94 173.841 286.484 173.02C285.028 172.199 283.908 171.023 283.124 169.492C282.34 167.961 281.948 166.169 281.948 164.116C281.948 162.063 282.34 160.28 283.124 158.768C283.908 157.237 285.028 156.061 286.484 155.24C287.94 154.419 289.639 154.008 291.58 154.008C294.026 154.008 296.135 154.68 297.908 156.024C298.188 156.248 298.384 156.472 298.496 156.696C298.608 156.92 298.664 157.2 298.664 157.536C298.664 158.021 298.524 158.441 298.244 158.796C297.983 159.132 297.656 159.3 297.264 159.3C297.003 159.3 296.77 159.272 296.564 159.216C296.378 159.141 296.163 159.02 295.92 158.852C295.174 158.367 294.483 158.021 293.848 157.816C293.214 157.592 292.532 157.48 291.804 157.48C290.012 157.48 288.659 158.04 287.744 159.16C286.848 160.261 286.4 161.913 286.4 164.116C286.4 168.559 288.202 170.78 291.804 170.78C292.495 170.78 293.148 170.677 293.764 170.472C294.38 170.248 295.099 169.893 295.92 169.408C296.2 169.24 296.434 169.128 296.62 169.072C296.807 168.997 297.022 168.96 297.264 168.96C297.656 168.96 297.983 169.137 298.244 169.492C298.524 169.828 298.664 170.239 298.664 170.724C298.664 171.06 298.599 171.349 298.468 171.592C298.356 171.816 298.17 172.031 297.908 172.236C296.135 173.58 294.026 174.252 291.58 174.252ZM303.494 174C302.841 174 302.337 173.823 301.982 173.468C301.627 173.113 301.45 172.609 301.45 171.956V156.304C301.45 155.651 301.627 155.147 301.982 154.792C302.337 154.437 302.841 154.26 303.494 154.26H313.406C314.787 154.26 315.478 154.82 315.478 155.94C315.478 157.079 314.787 157.648 313.406 157.648H305.706V162.268H312.846C314.227 162.268 314.918 162.837 314.918 163.976C314.918 165.096 314.227 165.656 312.846 165.656H305.706V170.612H313.406C314.787 170.612 315.478 171.181 315.478 172.32C315.478 173.44 314.787 174 313.406 174H303.494ZM333.525 154.12C334.178 154.12 334.701 154.316 335.093 154.708C335.485 155.1 335.681 155.623 335.681 156.276V171.984C335.681 172.637 335.485 173.169 335.093 173.58C334.701 173.972 334.178 174.168 333.525 174.168C332.871 174.168 332.349 173.972 331.957 173.58C331.583 173.188 331.397 172.656 331.397 171.984V165.712H322.297V171.984C322.297 172.637 322.101 173.169 321.709 173.58C321.317 173.972 320.803 174.168 320.169 174.168C319.515 174.168 318.993 173.972 318.601 173.58C318.209 173.188 318.013 172.656 318.013 171.984V156.276C318.013 155.623 318.209 155.1 318.601 154.708C318.993 154.316 319.515 154.12 320.169 154.12C320.822 154.12 321.335 154.316 321.709 154.708C322.101 155.1 322.297 155.623 322.297 156.276V162.24H331.397V156.276C331.397 155.623 331.583 155.1 331.957 154.708C332.349 154.316 332.871 154.12 333.525 154.12ZM348.651 174.252C346.691 174.252 344.983 173.841 343.527 173.02C342.09 172.18 340.979 171.004 340.195 169.492C339.411 167.961 339.019 166.169 339.019 164.116C339.019 162.063 339.411 160.28 340.195 158.768C340.979 157.237 342.09 156.061 343.527 155.24C344.983 154.419 346.691 154.008 348.651 154.008C350.611 154.008 352.31 154.419 353.747 155.24C355.203 156.061 356.323 157.237 357.107 158.768C357.891 160.28 358.283 162.063 358.283 164.116C358.283 166.169 357.891 167.961 357.107 169.492C356.323 171.004 355.203 172.18 353.747 173.02C352.31 173.841 350.611 174.252 348.651 174.252ZM348.651 170.864C350.294 170.864 351.582 170.285 352.515 169.128C353.467 167.971 353.943 166.3 353.943 164.116C353.943 161.932 353.476 160.271 352.543 159.132C351.61 157.975 350.312 157.396 348.651 157.396C346.99 157.396 345.692 157.975 344.759 159.132C343.844 160.271 343.387 161.932 343.387 164.116C343.387 166.3 343.854 167.971 344.787 169.128C345.72 170.285 347.008 170.864 348.651 170.864ZM363.627 174C362.974 174 362.47 173.823 362.115 173.468C361.76 173.113 361.583 172.609 361.583 171.956V156.276C361.583 155.623 361.779 155.1 362.171 154.708C362.563 154.316 363.095 154.12 363.767 154.12C364.439 154.12 364.971 154.316 365.363 154.708C365.755 155.1 365.951 155.623 365.951 156.276V170.444H373.119C374.482 170.444 375.163 171.041 375.163 172.236C375.163 173.412 374.482 174 373.119 174H363.627ZM379.369 174C378.716 174 378.212 173.823 377.857 173.468C377.503 173.113 377.325 172.609 377.325 171.956V156.304C377.325 155.651 377.503 155.147 377.857 154.792C378.212 154.437 378.716 154.26 379.369 154.26H384.997C387.144 154.26 388.992 154.652 390.541 155.436C392.091 156.22 393.276 157.349 394.097 158.824C394.919 160.299 395.329 162.063 395.329 164.116C395.329 166.169 394.919 167.943 394.097 169.436C393.295 170.911 392.119 172.04 390.569 172.824C389.02 173.608 387.163 174 384.997 174H379.369ZM384.689 170.472C388.889 170.472 390.989 168.353 390.989 164.116C390.989 159.897 388.889 157.788 384.689 157.788H381.693V170.472H384.689ZM400.69 174C400.037 174 399.533 173.823 399.178 173.468C398.823 173.113 398.646 172.609 398.646 171.956V156.304C398.646 155.651 398.823 155.147 399.178 154.792C399.533 154.437 400.037 154.26 400.69 154.26H410.602C411.983 154.26 412.674 154.82 412.674 155.94C412.674 157.079 411.983 157.648 410.602 157.648H402.902V162.268H410.042C411.423 162.268 412.114 162.837 412.114 163.976C412.114 165.096 411.423 165.656 410.042 165.656H402.902V170.612H410.602C411.983 170.612 412.674 171.181 412.674 172.32C412.674 173.44 411.983 174 410.602 174H400.69ZM431.393 171.228C431.673 171.639 431.813 172.04 431.813 172.432C431.813 172.955 431.598 173.384 431.169 173.72C430.758 174.056 430.273 174.224 429.713 174.224C429.358 174.224 429.013 174.14 428.677 173.972C428.341 173.804 428.061 173.543 427.837 173.188L424.141 167.7C423.823 167.215 423.487 166.869 423.133 166.664C422.778 166.44 422.33 166.328 421.789 166.328H419.521V171.984C419.521 172.656 419.325 173.188 418.933 173.58C418.559 173.972 418.046 174.168 417.393 174.168C416.721 174.168 416.189 173.972 415.797 173.58C415.405 173.188 415.209 172.656 415.209 171.984V156.304C415.209 155.651 415.386 155.147 415.741 154.792C416.095 154.437 416.599 154.26 417.253 154.26H424.281C426.595 154.26 428.341 154.773 429.517 155.8C430.711 156.808 431.309 158.273 431.309 160.196C431.309 161.708 430.889 162.968 430.049 163.976C429.209 164.984 428.023 165.647 426.493 165.964C427.053 166.076 427.547 166.3 427.977 166.636C428.425 166.953 428.854 167.42 429.265 168.036L431.393 171.228ZM423.637 163.024C424.887 163.024 425.793 162.809 426.353 162.38C426.913 161.932 427.193 161.241 427.193 160.308C427.193 159.356 426.913 158.665 426.353 158.236C425.793 157.807 424.887 157.592 423.637 157.592H419.465V163.024H423.637Z" fill="white"/>
</svg>
