<svg width="482" height="300" viewBox="0 0 482 300" fill="none" xmlns="http://www.w3.org/2000/svg">
<rect width="482" height="300" rx="2" fill="#F6F7F8"/>
<path d="M161.756 153.632C161.842 153.632 161.919 153.667 161.988 153.736L162.596 154.4C162.127 154.944 161.556 155.368 160.884 155.672C160.218 155.976 159.412 156.128 158.468 156.128C157.642 156.128 156.892 155.987 156.22 155.704C155.548 155.416 154.975 155.016 154.5 154.504C154.026 153.987 153.658 153.368 153.396 152.648C153.135 151.928 153.004 151.136 153.004 150.272C153.004 149.408 153.143 148.616 153.42 147.896C153.703 147.176 154.098 146.557 154.604 146.04C155.111 145.523 155.716 145.123 156.42 144.84C157.13 144.552 157.911 144.408 158.764 144.408C159.607 144.408 160.332 144.539 160.94 144.8C161.554 145.061 162.098 145.416 162.572 145.864L162.068 146.576C162.031 146.629 161.988 146.675 161.94 146.712C161.892 146.744 161.823 146.76 161.732 146.76C161.663 146.76 161.588 146.736 161.508 146.688C161.434 146.635 161.343 146.571 161.236 146.496C161.13 146.421 161.004 146.341 160.86 146.256C160.716 146.171 160.546 146.091 160.348 146.016C160.151 145.941 159.922 145.88 159.66 145.832C159.399 145.779 159.098 145.752 158.756 145.752C158.143 145.752 157.58 145.859 157.068 146.072C156.562 146.28 156.124 146.579 155.756 146.968C155.388 147.357 155.1 147.832 154.892 148.392C154.69 148.952 154.588 149.579 154.588 150.272C154.588 150.987 154.69 151.624 154.892 152.184C155.1 152.744 155.38 153.219 155.732 153.608C156.09 153.992 156.511 154.285 156.996 154.488C157.482 154.691 158.004 154.792 158.564 154.792C158.906 154.792 159.212 154.773 159.484 154.736C159.756 154.693 160.007 154.629 160.236 154.544C160.471 154.459 160.687 154.352 160.884 154.224C161.087 154.091 161.29 153.933 161.492 153.752C161.583 153.672 161.671 153.632 161.756 153.632ZM164.405 156V144.216H165.829V148.984C166.176 148.616 166.56 148.323 166.981 148.104C167.403 147.88 167.888 147.768 168.437 147.768C168.88 147.768 169.269 147.843 169.605 147.992C169.947 148.136 170.229 148.344 170.453 148.616C170.683 148.883 170.856 149.205 170.973 149.584C171.091 149.963 171.149 150.381 171.149 150.84V156H169.725V150.84C169.725 150.227 169.584 149.752 169.301 149.416C169.024 149.075 168.597 148.904 168.021 148.904C167.6 148.904 167.205 149.005 166.837 149.208C166.475 149.411 166.139 149.685 165.829 150.032V156H164.405ZM179.248 156H178.616C178.477 156 178.365 155.979 178.28 155.936C178.195 155.893 178.139 155.803 178.112 155.664L177.952 154.912C177.739 155.104 177.531 155.277 177.328 155.432C177.125 155.581 176.912 155.709 176.688 155.816C176.464 155.917 176.224 155.995 175.968 156.048C175.717 156.101 175.437 156.128 175.128 156.128C174.813 156.128 174.517 156.085 174.24 156C173.968 155.909 173.731 155.776 173.528 155.6C173.325 155.424 173.163 155.203 173.04 154.936C172.923 154.664 172.864 154.344 172.864 153.976C172.864 153.656 172.952 153.349 173.128 153.056C173.304 152.757 173.587 152.493 173.976 152.264C174.371 152.035 174.885 151.848 175.52 151.704C176.155 151.555 176.931 151.469 177.848 151.448V150.816C177.848 150.187 177.712 149.712 177.44 149.392C177.173 149.067 176.776 148.904 176.248 148.904C175.901 148.904 175.608 148.949 175.368 149.04C175.133 149.125 174.928 149.224 174.752 149.336C174.581 149.443 174.432 149.541 174.304 149.632C174.181 149.717 174.059 149.76 173.936 149.76C173.84 149.76 173.755 149.736 173.68 149.688C173.611 149.635 173.555 149.571 173.512 149.496L173.256 149.04C173.704 148.608 174.187 148.285 174.704 148.072C175.221 147.859 175.795 147.752 176.424 147.752C176.877 147.752 177.28 147.827 177.632 147.976C177.984 148.125 178.28 148.333 178.52 148.6C178.76 148.867 178.941 149.189 179.064 149.568C179.187 149.947 179.248 150.363 179.248 150.816V156ZM175.552 155.128C175.803 155.128 176.032 155.104 176.24 155.056C176.448 155.003 176.643 154.931 176.824 154.84C177.011 154.744 177.187 154.629 177.352 154.496C177.523 154.363 177.688 154.211 177.848 154.04V152.352C177.192 152.373 176.635 152.427 176.176 152.512C175.717 152.592 175.344 152.699 175.056 152.832C174.768 152.965 174.557 153.123 174.424 153.304C174.296 153.485 174.232 153.688 174.232 153.912C174.232 154.125 174.267 154.309 174.336 154.464C174.405 154.619 174.499 154.747 174.616 154.848C174.733 154.944 174.872 155.016 175.032 155.064C175.192 155.107 175.365 155.128 175.552 155.128ZM181.405 156V147.896H182.221C182.376 147.896 182.483 147.925 182.541 147.984C182.6 148.043 182.64 148.144 182.661 148.288L182.757 149.552C183.035 148.987 183.376 148.547 183.781 148.232C184.192 147.912 184.672 147.752 185.221 147.752C185.445 147.752 185.648 147.779 185.829 147.832C186.011 147.88 186.179 147.949 186.333 148.04L186.149 149.104C186.112 149.237 186.029 149.304 185.901 149.304C185.827 149.304 185.712 149.28 185.557 149.232C185.403 149.179 185.187 149.152 184.909 149.152C184.413 149.152 183.997 149.296 183.661 149.584C183.331 149.872 183.053 150.291 182.829 150.84V156H181.405ZM190.314 156.128C189.674 156.128 189.181 155.949 188.834 155.592C188.493 155.235 188.322 154.72 188.322 154.048V149.088H187.346C187.261 149.088 187.189 149.064 187.13 149.016C187.072 148.963 187.042 148.883 187.042 148.776V148.208L188.37 148.04L188.698 145.536C188.709 145.456 188.744 145.392 188.802 145.344C188.861 145.291 188.936 145.264 189.026 145.264H189.746V148.056H192.066V149.088H189.746V153.952C189.746 154.293 189.829 154.547 189.994 154.712C190.16 154.877 190.373 154.96 190.634 154.96C190.784 154.96 190.912 154.941 191.018 154.904C191.13 154.861 191.226 154.816 191.306 154.768C191.386 154.72 191.453 154.677 191.506 154.64C191.565 154.597 191.616 154.576 191.658 154.576C191.733 154.576 191.8 154.621 191.858 154.712L192.274 155.392C192.029 155.621 191.733 155.803 191.386 155.936C191.04 156.064 190.682 156.128 190.314 156.128ZM198.849 151.712V156H197.305V144.536H200.689C201.414 144.536 202.044 144.621 202.577 144.792C203.116 144.957 203.561 145.195 203.913 145.504C204.265 145.813 204.526 146.187 204.697 146.624C204.873 147.061 204.961 147.549 204.961 148.088C204.961 148.621 204.868 149.109 204.681 149.552C204.494 149.995 204.22 150.376 203.857 150.696C203.5 151.016 203.054 151.267 202.521 151.448C201.988 151.624 201.377 151.712 200.689 151.712H198.849ZM198.849 150.48H200.689C201.132 150.48 201.521 150.421 201.857 150.304C202.198 150.187 202.484 150.024 202.713 149.816C202.942 149.603 203.116 149.349 203.233 149.056C203.35 148.763 203.409 148.44 203.409 148.088C203.409 147.357 203.182 146.787 202.729 146.376C202.281 145.965 201.601 145.76 200.689 145.76H198.849V150.48ZM208.286 144.216V156H206.862V144.216H208.286ZM216.748 156H216.116C215.977 156 215.865 155.979 215.78 155.936C215.695 155.893 215.639 155.803 215.612 155.664L215.452 154.912C215.239 155.104 215.031 155.277 214.828 155.432C214.625 155.581 214.412 155.709 214.188 155.816C213.964 155.917 213.724 155.995 213.468 156.048C213.217 156.101 212.937 156.128 212.628 156.128C212.313 156.128 212.017 156.085 211.74 156C211.468 155.909 211.231 155.776 211.028 155.6C210.825 155.424 210.663 155.203 210.54 154.936C210.423 154.664 210.364 154.344 210.364 153.976C210.364 153.656 210.452 153.349 210.628 153.056C210.804 152.757 211.087 152.493 211.476 152.264C211.871 152.035 212.385 151.848 213.02 151.704C213.655 151.555 214.431 151.469 215.348 151.448V150.816C215.348 150.187 215.212 149.712 214.94 149.392C214.673 149.067 214.276 148.904 213.748 148.904C213.401 148.904 213.108 148.949 212.868 149.04C212.633 149.125 212.428 149.224 212.252 149.336C212.081 149.443 211.932 149.541 211.804 149.632C211.681 149.717 211.559 149.76 211.436 149.76C211.34 149.76 211.255 149.736 211.18 149.688C211.111 149.635 211.055 149.571 211.012 149.496L210.756 149.04C211.204 148.608 211.687 148.285 212.204 148.072C212.721 147.859 213.295 147.752 213.924 147.752C214.377 147.752 214.78 147.827 215.132 147.976C215.484 148.125 215.78 148.333 216.02 148.6C216.26 148.867 216.441 149.189 216.564 149.568C216.687 149.947 216.748 150.363 216.748 150.816V156ZM213.052 155.128C213.303 155.128 213.532 155.104 213.74 155.056C213.948 155.003 214.143 154.931 214.324 154.84C214.511 154.744 214.687 154.629 214.852 154.496C215.023 154.363 215.188 154.211 215.348 154.04V152.352C214.692 152.373 214.135 152.427 213.676 152.512C213.217 152.592 212.844 152.699 212.556 152.832C212.268 152.965 212.057 153.123 211.924 153.304C211.796 153.485 211.732 153.688 211.732 153.912C211.732 154.125 211.767 154.309 211.836 154.464C211.905 154.619 211.999 154.747 212.116 154.848C212.233 154.944 212.372 155.016 212.532 155.064C212.692 155.107 212.865 155.128 213.052 155.128ZM224.433 149.336C224.391 149.395 224.348 149.44 224.305 149.472C224.263 149.504 224.201 149.52 224.121 149.52C224.041 149.52 223.953 149.488 223.857 149.424C223.767 149.355 223.649 149.28 223.505 149.2C223.361 149.12 223.185 149.048 222.977 148.984C222.775 148.915 222.524 148.88 222.225 148.88C221.831 148.88 221.481 148.952 221.177 149.096C220.873 149.235 220.617 149.437 220.409 149.704C220.207 149.971 220.052 150.293 219.945 150.672C219.844 151.051 219.793 151.475 219.793 151.944C219.793 152.435 219.849 152.872 219.961 153.256C220.073 153.635 220.231 153.955 220.433 154.216C220.636 154.472 220.881 154.669 221.169 154.808C221.463 154.941 221.791 155.008 222.153 155.008C222.5 155.008 222.785 154.968 223.009 154.888C223.233 154.803 223.42 154.709 223.569 154.608C223.719 154.507 223.841 154.416 223.937 154.336C224.033 154.251 224.129 154.208 224.225 154.208C224.348 154.208 224.439 154.253 224.497 154.344L224.897 154.864C224.545 155.296 224.105 155.613 223.577 155.816C223.049 156.013 222.492 156.112 221.905 156.112C221.399 156.112 220.927 156.019 220.489 155.832C220.057 155.645 219.681 155.376 219.361 155.024C219.041 154.667 218.788 154.229 218.601 153.712C218.42 153.195 218.329 152.605 218.329 151.944C218.329 151.341 218.412 150.784 218.577 150.272C218.748 149.76 218.993 149.32 219.313 148.952C219.639 148.579 220.039 148.288 220.513 148.08C220.988 147.872 221.532 147.768 222.145 147.768C222.711 147.768 223.212 147.861 223.649 148.048C224.087 148.229 224.473 148.488 224.809 148.824L224.433 149.336ZM229.582 147.768C230.067 147.768 230.515 147.851 230.926 148.016C231.337 148.176 231.691 148.411 231.99 148.72C232.289 149.024 232.521 149.403 232.686 149.856C232.857 150.304 232.942 150.816 232.942 151.392C232.942 151.616 232.918 151.765 232.87 151.84C232.822 151.915 232.731 151.952 232.598 151.952H227.206C227.217 152.464 227.286 152.909 227.414 153.288C227.542 153.667 227.718 153.984 227.942 154.24C228.166 154.491 228.433 154.68 228.742 154.808C229.051 154.931 229.398 154.992 229.782 154.992C230.139 154.992 230.446 154.952 230.702 154.872C230.963 154.787 231.187 154.696 231.374 154.6C231.561 154.504 231.715 154.416 231.838 154.336C231.966 154.251 232.075 154.208 232.166 154.208C232.283 154.208 232.374 154.253 232.438 154.344L232.838 154.864C232.662 155.077 232.451 155.264 232.206 155.424C231.961 155.579 231.697 155.707 231.414 155.808C231.137 155.909 230.849 155.984 230.55 156.032C230.251 156.085 229.955 156.112 229.662 156.112C229.102 156.112 228.585 156.019 228.11 155.832C227.641 155.64 227.233 155.363 226.886 155C226.545 154.632 226.278 154.179 226.086 153.64C225.894 153.101 225.798 152.483 225.798 151.784C225.798 151.219 225.883 150.691 226.054 150.2C226.23 149.709 226.481 149.285 226.806 148.928C227.131 148.565 227.529 148.283 227.998 148.08C228.467 147.872 228.995 147.768 229.582 147.768ZM229.614 148.816C228.926 148.816 228.385 149.016 227.99 149.416C227.595 149.811 227.35 150.36 227.254 151.064H231.662C231.662 150.733 231.617 150.432 231.526 150.16C231.435 149.883 231.302 149.645 231.126 149.448C230.95 149.245 230.734 149.091 230.478 148.984C230.227 148.872 229.939 148.816 229.614 148.816ZM234.765 156V144.216H236.189V148.984C236.535 148.616 236.919 148.323 237.341 148.104C237.762 147.88 238.247 147.768 238.797 147.768C239.239 147.768 239.629 147.843 239.965 147.992C240.306 148.136 240.589 148.344 240.813 148.616C241.042 148.883 241.215 149.205 241.333 149.584C241.45 149.963 241.509 150.381 241.509 150.84V156H240.085V150.84C240.085 150.227 239.943 149.752 239.661 149.416C239.383 149.075 238.957 148.904 238.381 148.904C237.959 148.904 237.565 149.005 237.197 149.208C236.834 149.411 236.498 149.685 236.189 150.032V156H234.765ZM246.935 147.768C247.527 147.768 248.061 147.867 248.535 148.064C249.015 148.261 249.421 148.541 249.751 148.904C250.087 149.267 250.343 149.707 250.519 150.224C250.701 150.736 250.791 151.309 250.791 151.944C250.791 152.584 250.701 153.16 250.519 153.672C250.343 154.184 250.087 154.621 249.751 154.984C249.421 155.347 249.015 155.627 248.535 155.824C248.061 156.016 247.527 156.112 246.935 156.112C246.343 156.112 245.807 156.016 245.327 155.824C244.853 155.627 244.447 155.347 244.111 154.984C243.775 154.621 243.517 154.184 243.335 153.672C243.154 153.16 243.063 152.584 243.063 151.944C243.063 151.309 243.154 150.736 243.335 150.224C243.517 149.707 243.775 149.267 244.111 148.904C244.447 148.541 244.853 148.261 245.327 148.064C245.807 147.867 246.343 147.768 246.935 147.768ZM246.935 155C247.735 155 248.333 154.733 248.727 154.2C249.122 153.661 249.319 152.912 249.319 151.952C249.319 150.987 249.122 150.235 248.727 149.696C248.333 149.157 247.735 148.888 246.935 148.888C246.53 148.888 246.178 148.957 245.879 149.096C245.581 149.235 245.33 149.435 245.127 149.696C244.93 149.957 244.781 150.28 244.679 150.664C244.583 151.043 244.535 151.472 244.535 151.952C244.535 152.432 244.583 152.861 244.679 153.24C244.781 153.619 244.93 153.939 245.127 154.2C245.33 154.456 245.581 154.653 245.879 154.792C246.178 154.931 246.53 155 246.935 155ZM254.13 144.216V156H252.706V144.216H254.13ZM262.344 156C262.141 156 262.013 155.901 261.96 155.704L261.832 154.72C261.485 155.141 261.088 155.48 260.64 155.736C260.197 155.987 259.688 156.112 259.112 156.112C258.648 156.112 258.226 156.024 257.848 155.848C257.469 155.667 257.146 155.403 256.88 155.056C256.613 154.709 256.408 154.277 256.264 153.76C256.12 153.243 256.048 152.648 256.048 151.976C256.048 151.379 256.128 150.824 256.288 150.312C256.448 149.795 256.677 149.347 256.976 148.968C257.28 148.589 257.648 148.293 258.08 148.08C258.512 147.861 259.002 147.752 259.552 147.752C260.048 147.752 260.472 147.837 260.824 148.008C261.176 148.173 261.49 148.408 261.768 148.712V144.216H263.192V156H262.344ZM259.584 154.96C260.048 154.96 260.453 154.853 260.8 154.64C261.152 154.427 261.474 154.125 261.768 153.736V149.816C261.506 149.464 261.218 149.219 260.904 149.08C260.594 148.936 260.25 148.864 259.872 148.864C259.114 148.864 258.533 149.133 258.128 149.672C257.722 150.211 257.52 150.979 257.52 151.976C257.52 152.504 257.565 152.957 257.656 153.336C257.746 153.709 257.88 154.019 258.056 154.264C258.232 154.504 258.448 154.68 258.704 154.792C258.96 154.904 259.253 154.96 259.584 154.96ZM268.785 147.768C269.271 147.768 269.719 147.851 270.129 148.016C270.54 148.176 270.895 148.411 271.193 148.72C271.492 149.024 271.724 149.403 271.889 149.856C272.06 150.304 272.145 150.816 272.145 151.392C272.145 151.616 272.121 151.765 272.073 151.84C272.025 151.915 271.935 151.952 271.801 151.952H266.409C266.42 152.464 266.489 152.909 266.617 153.288C266.745 153.667 266.921 153.984 267.145 154.24C267.369 154.491 267.636 154.68 267.945 154.808C268.255 154.931 268.601 154.992 268.985 154.992C269.343 154.992 269.649 154.952 269.905 154.872C270.167 154.787 270.391 154.696 270.577 154.6C270.764 154.504 270.919 154.416 271.041 154.336C271.169 154.251 271.279 154.208 271.369 154.208C271.487 154.208 271.577 154.253 271.641 154.344L272.041 154.864C271.865 155.077 271.655 155.264 271.409 155.424C271.164 155.579 270.9 155.707 270.617 155.808C270.34 155.909 270.052 155.984 269.753 156.032C269.455 156.085 269.159 156.112 268.865 156.112C268.305 156.112 267.788 156.019 267.313 155.832C266.844 155.64 266.436 155.363 266.089 155C265.748 154.632 265.481 154.179 265.289 153.64C265.097 153.101 265.001 152.483 265.001 151.784C265.001 151.219 265.087 150.691 265.257 150.2C265.433 149.709 265.684 149.285 266.009 148.928C266.335 148.565 266.732 148.283 267.201 148.08C267.671 147.872 268.199 147.768 268.785 147.768ZM268.817 148.816C268.129 148.816 267.588 149.016 267.193 149.416C266.799 149.811 266.553 150.36 266.457 151.064H270.865C270.865 150.733 270.82 150.432 270.729 150.16C270.639 149.883 270.505 149.645 270.329 149.448C270.153 149.245 269.937 149.091 269.681 148.984C269.431 148.872 269.143 148.816 268.817 148.816ZM273.968 156V147.896H274.784C274.938 147.896 275.045 147.925 275.104 147.984C275.162 148.043 275.202 148.144 275.224 148.288L275.32 149.552C275.597 148.987 275.938 148.547 276.344 148.232C276.754 147.912 277.234 147.752 277.784 147.752C278.008 147.752 278.21 147.779 278.392 147.832C278.573 147.88 278.741 147.949 278.896 148.04L278.712 149.104C278.674 149.237 278.592 149.304 278.464 149.304C278.389 149.304 278.274 149.28 278.12 149.232C277.965 149.179 277.749 149.152 277.472 149.152C276.976 149.152 276.56 149.296 276.224 149.584C275.893 149.872 275.616 150.291 275.392 150.84V156H273.968Z" fill="black"/>
</svg>
