<svg width="31" height="27" viewBox="0 0 31 27" fill="none" xmlns="http://www.w3.org/2000/svg">
<path d="M0.482113 14.9336C0.134113 15.3285 -0.0352205 15.8314 0.00611283 16.3511C0.0474461 16.8708 0.292779 17.3437 0.699446 17.6815L10.5701 25.9267C10.9368 26.232 11.3914 26.3957 11.8688 26.3957C11.9274 26.3957 11.9874 26.3931 12.0474 26.3879C12.5874 26.3412 13.0741 26.0904 13.4181 25.6837L30.3008 5.66068C30.6394 5.2579 30.7981 4.75119 30.7461 4.23278C30.6928 3.71437 30.4381 3.24663 30.0248 2.91532L26.9341 0.441509C26.0821 -0.239308 24.8208 -0.119775 24.1194 0.710458L11.1261 16.1211L5.90478 11.7621C5.06744 11.0656 3.80344 11.1579 3.08478 11.9738L0.482113 14.9336Z" fill="white"/>
</svg>
