<svg width="80" height="80" viewBox="0 0 80 80" fill="none" xmlns="http://www.w3.org/2000/svg">
<path d="M40.0012 3.33447C32.7492 3.33447 25.66 5.48493 19.6302 9.51392C13.6004 13.5429 8.90079 19.2695 6.12557 25.9694C3.35036 32.6694 2.62424 40.0418 4.03903 47.1545C5.45382 54.2671 8.94598 60.8005 14.0739 65.9284C19.2018 71.0563 25.7352 74.5485 32.8478 75.9633C39.9605 77.3781 47.3329 76.6519 54.0329 73.8767C60.7328 71.1015 66.4594 66.4019 70.4884 60.3721C74.5174 54.3423 76.6678 47.2531 76.6678 40.0011C76.6564 30.2801 72.7896 20.9604 65.9157 14.0866C59.0419 7.21271 49.7222 3.34594 40.0012 3.33447ZM40.0012 70.0011C34.0677 70.0011 28.2675 68.2417 23.334 64.9452C18.4006 61.6488 14.5554 56.9634 12.2848 51.4816C10.0141 45.9999 9.42004 39.9679 10.5776 34.1484C11.7352 28.329 14.5924 22.9835 18.788 18.7879C22.9835 14.5924 28.329 11.7351 34.1484 10.5776C39.9679 9.42002 45.9999 10.0141 51.4817 12.2848C56.9634 14.5554 61.6488 18.4006 64.9452 23.334C68.2417 28.2675 70.0012 34.0677 70.0012 40.0011C69.9923 47.9549 66.8288 55.5804 61.2046 61.2046C55.5804 66.8288 47.9549 69.9923 40.0012 70.0011Z" fill="white"/>
<path d="M54.4139 29.2098L36.7673 45.3865L29.0239 37.6431C28.7164 37.3248 28.3486 37.0708 27.9419 36.8961C27.5353 36.7214 27.0979 36.6295 26.6553 36.6256C26.2127 36.6218 25.7737 36.7061 25.3641 36.8737C24.9544 37.0413 24.5823 37.2888 24.2693 37.6018C23.9563 37.9148 23.7088 38.287 23.5412 38.6966C23.3736 39.1063 23.2892 39.5452 23.2931 39.9878C23.2969 40.4304 23.3889 40.8678 23.5636 41.2745C23.7383 41.6812 23.9922 42.049 24.3106 42.3565L34.3106 52.3565C34.918 52.964 35.7366 53.3135 36.5955 53.3322C37.4544 53.3508 38.2874 53.0371 38.9206 52.4565L58.9206 34.1231C59.5721 33.5255 59.9596 32.6935 59.9977 31.8102C60.0359 30.9269 59.7215 30.0647 59.1239 29.4131C58.5263 28.7616 57.6943 28.3741 56.811 28.336C55.9277 28.2979 55.0655 28.6122 54.4139 29.2098Z" fill="white"/>
</svg>
