<svg width="8" height="12" viewBox="0 0 8 12" fill="none" xmlns="http://www.w3.org/2000/svg">
<path fill-rule="evenodd" clip-rule="evenodd" d="M0 5.83652C0 6.05617 0.0735078 6.24443 0.220527 6.40132L5.45804 11.4375C5.64182 11.5944 5.85315 11.6729 6.09206 11.6729C6.33096 11.6729 6.5423 11.5944 6.72607 11.4375C7.13037 11.0924 7.13037 10.7315 6.72607 10.355L2.03987 5.83652L6.72607 1.36513C6.90985 1.20824 7.00173 1.02782 7.00173 0.823857C7.00173 0.619901 6.90985 0.439479 6.72607 0.282586C6.32177 -0.093955 5.8991 -0.093955 5.45804 0.282586L0.220527 5.31878C0.0735078 5.47567 0 5.64825 0 5.83652Z" fill="#747888"/>
</svg>
