<svg width="50" height="50" viewBox="0 0 50 50" fill="none" xmlns="http://www.w3.org/2000/svg">
<circle cx="25" cy="25" r="25" fill="#EDF5FF"/>
<path d="M25 35C19.4681 35 15 30.5319 15 25C15 19.4681 19.4681 15 25 15C30.5319 15 35 19.4681 35 25C35 30.5319 30.5319 35 25 35ZM25 16.6596C20.4043 16.6596 16.6596 20.4043 16.6596 25C16.6596 29.5957 20.4043 33.3404 25 33.3404C29.5957 33.3404 33.3404 29.5957 33.3404 25C33.3404 20.4043 29.5957 16.6596 25 16.6596Z" fill="#1AACFF"/>
<path d="M27.3825 25.851H24.9995C24.5314 25.851 24.1484 25.468 24.1484 25V20.234C24.1484 19.7659 24.5314 19.3829 24.9995 19.3829C25.4676 19.3829 25.8506 19.7659 25.8506 20.234V24.1489H27.425C27.8931 24.1489 28.2761 24.5319 28.2761 25C28.2761 25.468 27.8506 25.851 27.3825 25.851Z" fill="#1AACFF"/>
</svg>
