<svg width="30" height="30" viewBox="0 0 30 30" fill="none" xmlns="http://www.w3.org/2000/svg">
<path d="M29.3058 22.5748L21.7304 14.9994L29.3034 7.42635C30.2292 6.50064 30.2292 4.98702 29.3034 4.06094L25.9335 0.695971C25.0078 -0.227433 23.4942 -0.227433 22.5685 0.695971L14.9951 8.26899L7.42236 0.695971C6.49895 -0.227433 4.98302 -0.227433 4.05694 0.695971L0.694282 4.06094C-0.231427 4.98665 -0.231427 6.50027 0.694282 7.42635L8.26737 14.9994L0.694282 22.5748C-0.231427 23.5005 -0.231427 25.0141 0.694282 25.9397L4.05969 29.3025C4.9854 30.2282 6.50126 30.2282 7.42466 29.3025L14.9978 21.732L22.5704 29.3025C23.4961 30.2282 25.0097 30.2282 25.9403 29.3025L29.3058 25.9397C30.2314 25.014 30.2314 23.5004 29.3058 22.5748Z" fill="white"/>
</svg>
