<svg width="32" height="32" viewBox="0 0 32 32" fill="none" xmlns="http://www.w3.org/2000/svg">
<path opacity="0.9" fill-rule="evenodd" clip-rule="evenodd" d="M0 16C0 7.16344 7.16344 0 16 0V0C24.8366 0 32 7.16344 32 16V16C32 24.8366 24.8366 32 16 32V32C7.16344 32 0 24.8366 0 16V16Z" fill="#5D6174"/>
<path fill-rule="evenodd" clip-rule="evenodd" d="M18.057 16L21.1426 12.9144C21.7106 12.3464 21.7106 11.4254 21.1426 10.8574C20.5746 10.2894 19.6536 10.2894 19.0856 10.8574L16 13.943L12.9144 10.8574C12.3464 10.2894 11.4254 10.2894 10.8574 10.8574C10.2894 11.4254 10.2894 12.3464 10.8574 12.9144L13.943 16L10.8574 19.0856C10.2894 19.6536 10.2894 20.5745 10.8574 21.1425C11.4254 21.7106 12.3464 21.7106 12.9144 21.1425L16 18.057L19.0856 21.1425C19.6536 21.7106 20.5746 21.7106 21.1426 21.1425C21.7106 20.5745 21.7106 19.6536 21.1426 19.0856L18.057 16V16Z" fill="white"/>
</svg>
