<svg width="80" height="80" viewBox="0 0 80 80" fill="none" xmlns="http://www.w3.org/2000/svg">
<circle cx="40" cy="40" r="40" fill="#FFDCD5"/>
<g clip-path="url(#clip0)">
<path d="M56.8065 19.6774V73.871H7.12903V6.12903H44.3871V19.6774H56.8065Z" fill="#E0E0E2"/>
<path d="M66.8762 23.6742L47.7742 55.8776L50.5764 57.5149L69.7374 25.3551L66.8762 23.6742Z" fill="#FF6243"/>
<path d="M50.5764 57.5149L53.4464 59.1935L72.587 26.9395L69.7374 25.3551L50.5764 57.5149Z" fill="#AB2300"/>
<path d="M69.1872 19.7766L66.8762 23.6742L69.7374 25.3551V25.354V25.3551L72.587 26.9395L74.8451 23.1345L69.1872 19.7766Z" fill="#ACABB1"/>
<path d="M56.8065 19.6774L44.3871 6.12903V19.6774H56.8065Z" fill="#ACABB1"/>
<path d="M22.9355 11.7742L15.0323 18.5484H30.8387L22.9355 11.7742Z" fill="#D80027"/>
<path d="M46.7152 63.7097L53.4464 59.1935L47.7742 55.8776L46.7152 63.7097Z" fill="#FFDA44"/>
<path d="M15.0323 26.4516C14.4088 26.4516 13.9032 26.9571 13.9032 27.5806C13.9032 28.2041 14.4088 28.7097 15.0323 28.7097H30.8387C31.4622 28.7097 31.9677 28.2041 31.9677 27.5806C31.9677 26.9571 31.4622 26.4516 30.8387 26.4516H28.5806V19.6774H30.8387C31.3106 19.6769 31.7329 19.3825 31.8966 18.9398C32.0604 18.4966 31.9308 17.9988 31.5725 17.6917L23.6692 10.9175C23.247 10.5559 22.624 10.5559 22.2017 10.9175L14.2985 17.6917C13.9402 17.9988 13.8106 18.4966 13.9743 18.9398C14.1381 19.3825 14.5604 19.6769 15.0323 19.6774H17.2903V26.4516H15.0323ZM22.9355 13.261L27.7901 17.4194H18.0809L22.9355 13.261ZM19.5484 19.6774H26.3226V26.4516H19.5484V19.6774Z" fill="black"/>
<path d="M15.0323 36.6129H48.9032C49.5267 36.6129 50.0323 36.1074 50.0323 35.4839C50.0323 34.8604 49.5267 34.3548 48.9032 34.3548H15.0323C14.4088 34.3548 13.9032 34.8604 13.9032 35.4839C13.9032 36.1074 14.4088 36.6129 15.0323 36.6129Z" fill="black"/>
<path d="M15.0323 45.6452H35.3548C35.9783 45.6452 36.4839 45.1396 36.4839 44.5161C36.4839 43.8926 35.9783 43.3871 35.3548 43.3871H15.0323C14.4088 43.3871 13.9032 43.8926 13.9032 44.5161C13.9032 45.1396 14.4088 45.6452 15.0323 45.6452Z" fill="black"/>
<path d="M39.871 52.4194H15.0323C14.4088 52.4194 13.9032 52.9249 13.9032 53.5484C13.9032 54.1719 14.4088 54.6774 15.0323 54.6774H39.871C40.4945 54.6774 41 54.1719 41 53.5484C41 52.9249 40.4945 52.4194 39.871 52.4194Z" fill="black"/>
<path d="M25.1935 61.4516H15.0323C14.4088 61.4516 13.9032 61.9571 13.9032 62.5806C13.9032 63.2041 14.4088 63.7097 15.0323 63.7097H25.1935C25.8171 63.7097 26.3226 63.2041 26.3226 62.5806C26.3226 61.9571 25.8171 61.4516 25.1935 61.4516Z" fill="black"/>
<path d="M43.2581 43.3871H38.7419C38.1184 43.3871 37.6129 43.8926 37.6129 44.5161C37.6129 45.1396 38.1184 45.6452 38.7419 45.6452H43.2581C43.8816 45.6452 44.3871 45.1396 44.3871 44.5161C44.3871 43.8926 43.8816 43.3871 43.2581 43.3871Z" fill="black"/>
<path d="M75.4206 22.1615L69.7644 18.8047C69.507 18.6504 69.1988 18.6063 68.9088 18.6818C68.6177 18.7551 68.3686 18.9409 68.2153 19.1989L57.9355 36.533V19.6774C57.9344 19.5319 57.9052 19.3885 57.8495 19.254C57.823 19.2022 57.7927 19.1526 57.758 19.1063C57.7249 19.0385 57.6846 18.974 57.6383 18.9144L45.219 5.36605C45.2135 5.35999 45.2058 5.35778 45.2002 5.35227C45.117 5.27178 45.0227 5.20398 44.9202 5.15105C44.8893 5.13562 44.8656 5.1086 44.8342 5.09372C44.6931 5.03253 44.5409 5.00055 44.3871 5H7.12903C6.50553 5 6 5.50553 6 6.12903V73.871C6 74.4945 6.50553 75 7.12903 75H56.8065C57.43 75 57.9355 74.4945 57.9355 73.871V53.8417L75.8159 23.7101C75.9691 23.4526 76.0138 23.1445 75.9399 22.8539C75.8655 22.5634 75.6792 22.3142 75.4206 22.1615ZM70.9927 27.4103L53.0478 57.6522L52.1839 57.1466L70.1288 26.9031L70.9927 27.4103ZM48.6662 57.7067L51.3228 59.2592L48.1717 61.3739L48.6662 57.7067ZM50.2335 56.0077L49.3299 55.4757L67.2781 25.2096L68.1894 25.7504L50.2335 56.0077ZM45.5161 9.03045L54.2402 18.5484H45.5161V9.03045ZM55.6774 72.7419H8.25806V7.25806H43.2581V19.6774C43.2581 20.3009 43.7636 20.8065 44.3871 20.8065H55.6774V40C55.6846 40.086 55.7017 40.1709 55.7281 40.253L46.8034 55.3004C46.7731 55.366 46.7494 55.4338 46.7334 55.5038C46.7014 55.5733 46.6766 55.6455 46.6589 55.7193L45.5999 63.5515C45.5393 63.9925 45.7438 64.4275 46.1214 64.6628C46.4991 64.8977 46.9792 64.8894 47.3486 64.6413L54.0798 60.1252C54.0936 60.1158 54.1002 60.0988 54.1123 60.0899C54.2325 60.0045 54.335 59.8964 54.4139 59.7718L54.4221 59.7625L55.6774 57.6477V72.7419ZM72.1454 25.4703L70.3151 24.3843L68.4353 23.2668L69.5869 21.3247L73.3026 23.5298L72.1454 25.4703Z" fill="black"/>
</g>
<defs>
<clipPath id="clip0">
<rect width="70" height="70" fill="white" transform="translate(6 5)"/>
</clipPath>
</defs>
</svg>
