<svg width="64" height="80" viewBox="0 0 64 80" fill="none" xmlns="http://www.w3.org/2000/svg">
<path d="M8 0V4H60V64H64V0H8Z" fill="#2F344C"/>
<path d="M40 20H16V24H40V20Z" fill="#2F344C"/>
<path d="M48 28H8V32H48V28Z" fill="#2F344C"/>
<path d="M36 36H8V40H36V36Z" fill="#2F344C"/>
<path d="M52 8H4H0V12V68V72H4H28V76C28 77.3867 28.7173 78.6733 29.8973 79.4027C30.5386 79.8 31.2694 80 32 80C32.6106 80 33.2241 79.86 33.788 79.5773L36 78.472L38.2106 79.5773C38.7759 79.86 39.388 80 40 80C40.732 80 41.4614 79.8 42.1027 79.4027C43.2827 78.6733 44 77.3867 44 76V72H52H56V68V12V8H52ZM40 76L36 74L32 76V71.2627C33.2573 71.7106 34.5906 72 36 72C37.4094 72 38.7427 71.7106 40 71.2627V76ZM36 68C31.5814 68 28 64.4186 28 60C28 55.5814 31.5814 52 36 52C40.4186 52 44 55.5814 44 60C44 64.4186 40.4186 68 36 68ZM52 68H44.8786C46.7972 65.872 48 63.0841 48 60C48 53.3827 42.6173 48 36 48C29.3827 48 24 53.3827 24 60C24 63.0841 25.2027 65.872 27.1214 68H4V12H52V68Z" fill="#2F344C"/>
</svg>
