<svg width="250" height="251" viewBox="0 0 250 251" fill="none" xmlns="http://www.w3.org/2000/svg">
<path d="M250 125C250 194.036 194.036 250 125 250C55.9636 250 0 194.036 0 125C0 55.9636 55.9636 0 125 0C194.036 0 250 55.9636 250 125Z" fill="#D1E6FF"/>
<g clip-path="url(#clip0)">
<path d="M4.93246 239.461L60.1932 104.36L146.644 190.81L11.5431 246.071C8.36527 242.893 8.11028 242.639 4.93246 239.461V239.461ZM196.239 109.512C190.791 109.512 186.375 113.928 186.375 119.376C186.375 124.824 190.791 129.24 196.239 129.24C201.687 129.24 206.104 124.824 206.104 119.376C206.104 113.928 201.687 109.512 196.239 109.512Z" fill="#1AACFF"/>
<path d="M126.275 170.442L146.644 190.811L126.768 198.94L36.757 161.657L46.6534 137.462L126.275 170.442ZM58.0295 227.057L92.399 212.999L26.8605 185.852L16.9641 210.048L58.0295 227.057ZM235.204 5.93566C229.756 5.93566 225.339 10.3519 225.339 15.8C225.339 21.2481 229.756 25.6644 235.204 25.6644C240.652 25.6644 245.068 21.2481 245.068 15.8C245.068 10.3519 240.652 5.93566 235.204 5.93566Z" fill="#FC7080"/>
<path d="M235.204 70.5473C229.755 70.5473 225.339 74.9636 225.339 80.4117C225.339 85.8598 229.755 90.276 235.204 90.276C240.652 90.276 245.068 85.8598 245.068 80.4117C245.068 74.964 240.652 70.5473 235.204 70.5473ZM164.673 27.9312C164.673 35.286 158.711 41.2481 151.356 41.2481C144.001 41.2481 138.039 35.286 138.039 27.9312C138.039 20.5763 144.001 14.6142 151.356 14.6142C158.711 14.6142 164.673 20.5768 164.673 27.9312Z" fill="#FFE477"/>
<path d="M228.483 44.9537L198.83 36.9404C195.296 35.9934 191.523 37.004 188.936 39.5914L176.39 52.1375L211.757 61.6793L228.483 44.9537ZM163.439 102.754C166.974 103.701 170.747 102.69 173.334 100.103L190.062 83.375C187.474 85.9629 183.702 86.9735 180.167 86.0261L156.187 79.5841C152.652 78.6371 148.88 79.6477 146.293 82.2352L133.747 94.7812L163.439 102.754ZM121.021 145.441C124.425 146.353 128.057 145.38 130.549 142.888L147.432 126.005C144.844 128.593 141.072 129.604 137.538 128.656L113.333 122.171C109.929 121.259 106.297 122.232 103.804 124.724L91.103 137.424L121.021 145.441Z" fill="white"/>
<path d="M172.207 56.3199L188.936 39.5919C186.348 42.1798 185.337 45.9515 186.284 49.4864L192.714 73.48C193.661 77.0149 192.65 80.787 190.063 83.375L173.489 99.9481C175.981 97.4564 176.955 93.8238 176.042 90.4201L169.556 66.2154C168.609 62.6795 169.62 58.9073 172.207 56.3199V56.3199ZM126.913 108.858L133.411 133.05C134.323 136.454 133.35 140.086 130.858 142.579L147.432 126.005C150.02 123.417 151.03 119.646 150.083 116.11L143.641 92.1301C142.694 88.5952 143.704 84.8231 146.292 82.2356L129.564 98.9632C126.976 101.551 125.966 105.323 126.913 108.858V108.858Z" fill="#FFE477"/>
<path d="M95.3476 32.2573C98.7064 30.8037 101.034 27.6688 101.455 24.0333L103.494 6.41208L75.2721 18.603C71.9132 20.0565 69.5852 23.1914 69.1645 26.8269L67.1251 44.4526L95.3476 32.2573ZM88.6191 92.0596C91.8536 90.6598 94.0953 87.6413 94.5007 84.1405L97.245 60.4225C96.8243 64.0581 94.4963 67.193 91.1374 68.6465L68.1396 78.5982C64.9051 79.9979 62.6634 83.0164 62.258 86.5173L60.1934 104.36L88.6191 92.0596Z" fill="#1AACFF"/>
<path d="M97.2434 60.424L94.5479 83.703C94.9568 80.2031 93.4638 76.754 90.6327 74.6524L70.5133 59.7286C67.5767 57.5436 66.0265 53.9623 66.4438 50.3268L69.1639 26.8259C68.7422 30.4624 70.2939 34.0486 73.2334 36.2277L93.1778 51.0213C96.1134 53.2013 97.6651 56.7875 97.2434 60.424V60.424Z" fill="white"/>
<path d="M172.557 183.115L185.088 154.842L167.442 156.695C163.802 157.078 160.643 159.373 159.154 162.716L146.72 190.803L164.569 188.927C168.08 188.559 171.126 186.342 172.557 183.115V183.115ZM245.065 148.542L227.419 150.395C223.779 150.777 220.62 153.072 219.131 156.416L209.045 179.105C207.556 182.448 204.397 184.744 200.757 185.126L224.285 182.655C227.925 182.272 231.084 179.977 232.573 176.634L245.065 148.542Z" fill="#FC7080"/>
<path d="M200.328 158.391L215.056 178.665C217.127 181.516 220.562 183.046 224.067 182.678L200.757 185.127C197.117 185.509 193.55 183.921 191.399 180.959L176.8 160.863C174.649 157.902 171.082 156.313 167.442 156.695L190.97 154.224C194.609 153.842 198.177 155.43 200.328 158.391V158.391Z" fill="white"/>
<path d="M196.239 104.579C188.08 104.579 181.443 111.217 181.443 119.376C181.443 127.535 188.08 134.173 196.239 134.173C204.398 134.173 211.036 127.535 211.036 119.376C211.036 111.217 204.398 104.579 196.239 104.579ZM196.239 124.308C193.52 124.308 191.307 122.096 191.307 119.376C191.307 116.656 193.52 114.444 196.239 114.444C198.959 114.444 201.171 116.656 201.171 119.376C201.171 122.096 198.959 124.308 196.239 124.308ZM235.204 30.5965C243.362 30.5965 250 23.9588 250 15.8C250 7.64112 243.362 1.00338 235.204 1.00338C227.045 1.00338 220.407 7.64112 220.407 15.8C220.407 23.9588 227.045 30.5965 235.204 30.5965ZM235.204 10.8678C237.923 10.8678 240.136 13.0803 240.136 15.8C240.136 18.5196 237.923 20.7322 235.204 20.7322C232.484 20.7322 230.271 18.5196 230.271 15.8C230.271 13.0803 232.484 10.8678 235.204 10.8678ZM235.204 65.6151C227.045 65.6151 220.407 72.2528 220.407 80.4117C220.407 88.5705 227.045 95.2083 235.204 95.2083C243.362 95.2083 250 88.5705 250 80.4117C250 72.2528 243.362 65.6151 235.204 65.6151ZM235.204 85.3439C232.484 85.3439 230.271 83.1313 230.271 80.4117C230.271 77.6921 232.484 75.4795 235.204 75.4795C237.923 75.4795 240.136 77.6921 240.136 80.4117C240.136 83.1313 237.923 85.3439 235.204 85.3439ZM151.356 46.1808C161.419 46.1808 169.605 37.9943 169.605 27.9317C169.605 17.869 161.419 9.68256 151.356 9.68256C141.294 9.68256 133.107 17.869 133.107 27.9317C133.107 37.9943 141.293 46.1808 151.356 46.1808ZM151.356 19.5469C155.98 19.5469 159.741 23.3082 159.741 27.9317C159.741 32.5551 155.98 36.3164 151.356 36.3164C146.733 36.3164 142.972 32.5551 142.972 27.9317C142.972 23.3082 146.733 19.5469 151.356 19.5469ZM83.8569 179.121C83.8569 181.846 81.6482 184.055 78.9232 184.055C76.1981 184.055 73.9895 181.846 73.9895 179.121C73.9895 176.397 76.1986 174.187 78.9232 174.187C81.6477 174.187 83.8569 176.397 83.8569 179.121V179.121ZM244.549 143.636L226.904 145.489C221.529 146.054 216.824 149.472 214.624 154.413L210.416 163.885L204.318 155.492C201.142 151.12 195.826 148.756 190.455 149.318L166.928 151.79H166.927C161.552 152.355 156.847 155.773 154.648 160.709L145.057 182.248L110.551 147.741L119.532 150.147C124.753 151.546 130.369 150.041 134.191 146.22L150.919 129.491C154.74 125.67 156.246 120.053 154.847 114.833L154.846 114.83L152.159 104.828L162.163 107.517C167.371 108.912 172.973 107.416 176.794 103.615C176.803 103.606 193.55 86.8615 193.55 86.8615C197.372 83.04 198.877 77.4228 197.478 72.202C197.476 72.1942 197.473 72.1868 197.471 72.1794L194.79 62.1734L210.532 66.3914C212.639 66.9433 214.359 66.0521 215.296 65.115L232.024 48.387C235.093 44.8994 232.833 40.9852 229.813 40.1354L200.108 32.1763C194.887 30.7775 189.269 32.2824 185.448 36.1043L168.72 52.8323C164.898 56.6538 163.393 62.2706 164.792 67.4908L167.476 77.5091L157.463 74.8191C152.242 73.4203 146.625 74.9256 142.804 78.7476L126.076 95.4756C122.254 99.297 120.75 104.914 122.149 110.138L124.838 120.147L114.609 117.407C109.519 116.043 104.042 117.51 100.316 121.236L92.1809 129.372L68.8132 106.004L90.3767 96.6731C95.336 94.5271 98.8029 89.8598 99.4243 84.4926C99.4243 84.4916 99.4248 84.4906 99.4248 84.4901L102.144 60.9902C102.765 55.6215 100.456 50.2844 96.1168 47.0622C96.1163 47.0617 96.1153 47.0612 96.1143 47.0607L87.7957 40.8905L97.3064 36.7845C102.267 34.638 105.734 29.9697 106.355 24.601L108.394 6.97972C108.764 3.02459 104.882 0.447029 101.538 1.88476L73.3133 14.0771C68.353 16.2236 64.8857 20.892 64.2647 26.2611L61.5456 49.7611C60.9241 55.1298 63.2334 60.4669 67.5752 63.6911L75.8997 69.8657L66.1804 74.0713C61.3444 76.1641 57.9638 80.7155 57.3582 85.95L55.3715 103.119L0.36717 237.594C-0.384989 239.433 0.0396729 241.543 1.44485 242.949L8.05498 249.559C9.57952 251.066 11.6639 251.32 13.4099 250.636L147.859 195.642L165.023 193.839C170.264 193.288 174.851 189.956 176.994 185.143L181.307 175.458L187.409 183.858C190.275 187.803 195.181 190.591 201.273 190.032L224.8 187.56C224.802 187.56 224.803 187.56 224.804 187.56C230.178 186.994 234.881 183.577 237.08 178.638L249.572 150.545C250.891 147.744 249.069 143.361 244.549 143.636V143.636ZM197.554 41.7043L219.008 47.4533L210.335 56.127L191.842 51.1722L191.049 48.2099C190.066 44.4866 193.344 40.636 197.554 41.7043ZM175.695 59.8074L182.2 53.3019L187.949 74.7564C187.95 74.7623 187.952 74.7683 187.954 74.7742C188.436 76.5961 187.907 78.5542 186.574 79.8874L180.069 86.3929L174.321 64.9379C173.83 63.1105 174.358 61.1451 175.695 59.8074V59.8074ZM154.907 84.3461L170.425 88.5153L171.221 91.4849C172.222 95.3676 168.834 98.9952 164.719 97.9905L149.201 93.8189L148.404 90.8536C147.539 87.408 150.133 83.4001 154.907 84.3461V84.3461ZM133.051 102.451L139.558 95.9436L145.318 117.386C145.808 119.213 145.281 121.179 143.944 122.517L137.437 129.023L131.676 107.581C131.187 105.754 131.713 103.788 133.051 102.451V102.451ZM107.291 128.211C108.533 126.969 110.359 126.48 112.056 126.935L127.794 131.152L128.59 134.114C129.612 138.361 125.892 141.559 122.085 140.62L100.631 134.871L107.291 128.211ZM77.228 23.1312L97.6137 14.3252L96.5558 23.4666C96.3383 25.3457 95.1249 26.9793 93.3928 27.729L78.6391 34.0984L76.1735 32.2695C73.0933 29.9124 73.189 24.9487 77.228 23.1312V23.1312ZM73.4544 55.7699C71.9357 54.642 71.1274 52.7741 71.3449 50.895L72.4028 41.7541L90.2386 54.9828C91.7553 56.1108 92.5627 57.9776 92.3452 59.8553L91.2872 68.9966L73.4544 55.7699ZM67.1569 87.084C67.3592 85.3389 68.4857 83.8218 70.0975 83.1244L85.0514 76.6533L87.516 78.4812C90.4828 80.6543 90.6263 85.6462 86.4581 87.6196L66.0738 96.4403L67.1569 87.084ZM61.95 113.092L105.255 156.397L53.077 134.785L61.95 113.092ZM12.7115 240.265L10.7391 238.292L19.653 216.499L45.0292 227.011L12.7115 240.265ZM57.9821 221.699L23.3877 207.369L29.55 192.304L79.3543 212.934L57.9821 221.699ZM126.629 193.546L101.314 183.06C95.2517 180.55 91.4786 189.659 97.5412 192.17L113.678 198.857L92.3067 207.622L33.2841 183.174L39.4464 168.109L56.5295 175.184C62.5952 177.695 66.3683 168.58 60.3027 166.069L43.1816 158.977L49.3424 143.915L123.481 174.623L137.817 188.958L126.629 193.546ZM167.982 181.13C167.268 182.734 165.739 183.845 163.992 184.029L154.625 185.013L163.659 164.723C165.516 160.616 170.767 160.783 172.809 163.761L174.612 166.243L167.982 181.13ZM200.242 180.221C198.363 180.419 196.502 179.591 195.39 178.061C195.39 178.061 195.39 178.061 195.39 178.06L182.335 160.09L191.485 159.129C193.371 158.934 195.225 159.759 196.337 161.29L209.392 179.26L200.242 180.221ZM228.067 174.627C225.896 178.849 221.099 178.443 218.918 175.588L217.113 173.105L223.636 158.422C224.406 156.693 226.052 155.497 227.934 155.3L237.089 154.338L228.067 174.627Z" fill="#464B61"/>
</g>
<defs>
<clipPath id="clip0">
<rect width="250" height="250" fill="white" transform="translate(0 1)"/>
</clipPath>
</defs>
</svg>
