<svg width="80" height="80" viewBox="0 0 80 80" fill="none" xmlns="http://www.w3.org/2000/svg">
<g clip-path="url(#clip0)">
<path d="M36.8732 78.4347C56.3749 78.4347 72.1841 62.6255 72.1841 43.1238C72.1841 23.6222 56.3749 7.81299 36.8732 7.81299C17.3716 7.81299 1.56238 23.6222 1.56238 43.1238C1.56238 62.6255 17.3716 78.4347 36.8732 78.4347Z" fill="#FF7B79"/>
<path d="M36.8733 68.4351C50.8524 68.4351 62.1846 57.1029 62.1846 43.1238C62.1846 29.1448 50.8524 17.8125 36.8733 17.8125C22.8943 17.8125 11.562 29.1448 11.562 43.1238C11.562 57.1029 22.8943 68.4351 36.8733 68.4351Z" fill="white"/>
<path d="M36.8733 58.4356C45.3298 58.4356 52.1851 51.5803 52.1851 43.1238C52.1851 34.6673 45.3298 27.812 36.8733 27.812C28.4168 27.812 21.5615 34.6673 21.5615 43.1238C21.5615 51.5803 28.4168 58.4356 36.8733 58.4356Z" fill="#FF7B79"/>
<path d="M36.8733 48.436C39.8071 48.436 42.1855 46.0576 42.1855 43.1238C42.1855 40.1899 39.8071 37.8115 36.8733 37.8115C33.9394 37.8115 31.561 40.1899 31.561 43.1238C31.561 46.0576 33.9394 48.436 36.8733 48.436Z" fill="white"/>
<path d="M46.2452 28.3916L61.0491 13.5877L66.4105 18.9491L51.6066 33.753L46.2452 28.3916Z" fill="#66E0F7"/>
<path d="M46.0103 39.3555L40.6576 39.3462L40.6482 33.9934L46.2523 28.3892L51.6146 33.7514L46.0103 39.3555Z" fill="#1AACFF"/>
<path d="M72.3971 20.118L62.0638 17.9396L70.8891 9.11441C72.6166 7.38699 75.4174 7.38699 77.1449 9.11441C78.8723 10.842 78.8723 13.6428 77.1449 15.3702L72.3971 20.118Z" fill="#CCF5FC"/>
<path d="M59.8854 7.60642L62.0637 17.9397L70.8889 9.11447C72.6165 7.38705 72.6165 4.58609 70.8889 2.85867C69.1615 1.13109 66.3605 1.13109 64.6331 2.85867L59.8854 7.60642Z" fill="#CCF5FC"/>
<path d="M72.0749 21.647C72.1819 21.6697 72.2899 21.6806 72.3971 21.6806C72.8071 21.6806 73.2058 21.5191 73.5019 21.223L78.2496 16.4752C80.5836 14.1413 80.5836 10.3436 78.2496 8.00984C77.1192 6.87927 75.616 6.25648 74.0168 6.25648C73.9245 6.25648 73.8325 6.25852 73.7408 6.26273C73.7448 6.17118 73.7469 6.07899 73.7469 5.98665C73.7469 4.38767 73.1244 2.88461 71.9937 1.75388C69.6597 -0.58007 65.8621 -0.58007 63.5281 1.75388L58.7804 6.50163C58.407 6.87521 58.2474 7.41206 58.3563 7.92875L59.4264 13.0051L58.8879 13.5436C52.5585 8.83246 44.7945 6.25039 36.8733 6.25039C27.024 6.25039 17.7643 10.0858 10.8 17.0504C3.83545 24.0147 0 33.2744 0 43.1237C0 52.9729 3.83545 62.2326 10.8 69.197C17.7643 76.1613 27.024 79.9969 36.8733 79.9969C46.7225 79.9969 55.9822 76.1615 62.9466 69.197C69.9111 62.2326 73.7465 52.9729 73.7465 43.1237C73.7465 35.2043 71.1671 27.445 66.4592 21.1163L66.9987 20.5769L72.0749 21.647ZM51.6146 31.5415L48.4621 28.389L60.1962 16.6549L60.5351 18.262C60.6628 18.8678 61.136 19.3409 61.7418 19.4685L63.3489 19.8073L51.6146 31.5415ZM50.6226 43.1237C50.6226 50.705 44.4546 56.873 36.8733 56.873C29.2919 56.873 23.1239 50.705 23.1239 43.1237C23.1239 35.5423 29.2919 29.3743 36.8733 29.3743C38.6565 29.3743 40.4136 29.721 42.0477 30.3841L39.5435 32.8884C39.2499 33.1821 39.085 33.5807 39.0858 33.996L39.0904 36.6179C38.3941 36.3799 37.649 36.249 36.8733 36.249C33.0825 36.249 29.9986 39.3329 29.9986 43.1237C29.9986 46.9144 33.0825 49.9983 36.8733 49.9983C40.664 49.9983 43.748 46.9144 43.748 43.1237C43.748 42.3504 43.6178 41.6075 43.3813 40.9133L46.0077 40.9178H46.0105C46.4249 40.9178 46.8222 40.7533 47.1153 40.4602L49.6169 37.9586C50.2773 39.5902 50.6226 41.3445 50.6226 43.1237ZM45.3644 37.7919L42.2172 37.7864L42.2118 34.6394L46.2524 30.5988L49.4049 33.7513L45.3644 37.7919ZM40.6231 43.1237C40.6231 45.1912 38.9408 46.8735 36.8733 46.8735C34.8057 46.8735 33.1234 45.1912 33.1234 43.1237C33.1234 41.0561 34.8057 39.3738 36.8733 39.3738C37.334 39.3738 37.7754 39.4579 38.1835 39.6105L36.3838 41.4103C35.7736 42.0204 35.7736 43.0098 36.3838 43.6199C36.6889 43.925 37.0887 44.0775 37.4886 44.0775C37.8885 44.0775 38.2882 43.9249 38.5933 43.6199L40.3901 41.8231C40.5406 42.2285 40.6231 42.6667 40.6231 43.1237ZM74.0168 9.38134C74.7812 9.38134 75.4996 9.67898 76.0399 10.2193C77.1554 11.3348 77.1554 13.1499 76.0399 14.2653L71.8908 18.4144L65.2074 17.0055L71.9929 10.2199C71.9932 10.2196 71.9933 10.2194 71.9937 10.2191C72.5343 9.67898 73.2528 9.38134 74.0168 9.38134ZM65.738 3.96362C66.8534 2.84789 68.6688 2.84805 69.7842 3.96362C70.3247 4.50391 70.6222 5.22247 70.6222 5.98665C70.6222 6.75084 70.3247 7.4694 69.7842 8.00968C69.7839 8.01 69.7838 8.01015 69.7835 8.01046L62.998 14.7959L61.589 8.11249L65.738 3.96362ZM70.6217 43.1237C70.6217 61.7326 55.4822 76.8721 36.8733 76.8721C18.2643 76.8721 3.12485 61.7326 3.12485 43.1237C3.12485 24.5147 18.2643 9.37524 36.8733 9.37524C44.0797 9.37524 50.8826 11.5842 56.6542 15.7776L51.7145 20.7174C47.3114 17.7913 42.2077 16.2499 36.8733 16.2499C22.0551 16.2499 9.99953 28.3054 9.99953 43.1237C9.99953 47.6894 11.1656 52.1993 13.3714 56.1662C13.657 56.6799 14.1893 56.9696 14.7382 56.9696C14.9952 56.9696 15.2557 56.906 15.4963 56.7724C16.2503 56.353 16.5217 55.4017 16.1024 54.6475C14.1542 51.1441 13.1244 47.1591 13.1244 43.1237C13.1244 30.0285 23.7779 19.3748 36.8733 19.3748C41.374 19.3748 45.6882 20.6157 49.4546 22.9773L44.4084 28.0234C42.079 26.8605 39.4985 26.2495 36.8733 26.2495C27.5687 26.2495 19.9991 33.8193 19.9991 43.1237C19.9991 52.4281 27.5687 59.9979 36.8733 59.9979C46.1778 59.9979 53.7475 52.4281 53.7475 43.1237C53.7475 40.5028 53.1384 37.9236 51.9787 35.5968L57.0253 30.5503C59.3836 34.3147 60.6222 38.6251 60.6222 43.1237C60.6222 56.2188 49.9686 66.8726 36.8733 66.8726C32.8364 66.8726 28.8504 65.8421 25.346 63.8925C24.5917 63.473 23.6406 63.7443 23.2209 64.4984C22.8014 65.2525 23.0728 66.2038 23.8269 66.6233C27.7948 68.8307 32.3061 69.9974 36.8733 69.9974C51.6915 69.9974 63.747 57.9419 63.747 43.1237C63.747 37.7911 62.2077 32.6917 59.2849 28.2906L64.2232 23.3522C68.3596 29.0748 70.6217 36.0287 70.6217 43.1237Z" fill="black"/>
<path d="M18.9758 59.459C18.5633 59.459 18.1618 59.6262 17.8711 59.9168C17.5807 60.2074 17.4133 60.6105 17.4133 61.0215C17.4133 61.434 17.5805 61.8355 17.8711 62.1262C18.1618 62.4168 18.5635 62.584 18.9758 62.584C19.3868 62.584 19.7899 62.4168 20.0805 62.1262C20.371 61.8355 20.5383 61.4324 20.5383 61.0215C20.5383 60.6105 20.3711 60.2074 20.0805 59.9168C19.7899 59.6262 19.3868 59.459 18.9758 59.459Z" fill="black"/>
</g>
<defs>
<clipPath id="clip0">
<rect width="80" height="80" fill="white"/>
</clipPath>
</defs>
</svg>
