<svg width="150" height="150" viewBox="0 0 150 150" fill="none" xmlns="http://www.w3.org/2000/svg">
<path d="M145.31 26.5629V120.313C145.31 127.188 139.685 132.813 132.81 132.813H17.1849C10.3098 132.813 4.68481 127.188 4.68481 120.313V26.5629H145.31Z" fill="#F3F3F1"/>
<path d="M145.31 17.1869V26.562H4.68481V17.1869C4.68481 10.3119 10.3098 4.68689 17.1849 4.68689H132.81C139.685 4.68689 145.31 10.3119 145.31 17.1869Z" fill="#5EC5FF"/>
<path d="M36.7636 108.824C36.2511 109.38 35.9386 110.124 35.9386 110.936C35.9386 112.661 37.3386 114.061 39.0636 114.061H48.4387V139.062C48.4387 142.512 51.2387 145.312 54.6887 145.312H95.3138C98.7639 145.312 101.564 142.512 101.564 139.062V114.061H110.939C112.664 114.061 114.064 112.661 114.064 110.936C114.064 110.124 113.751 109.38 113.239 108.824L75.0013 67.1863L36.7636 108.824Z" fill="#5EC5FF"/>
<path d="M18.7474 120.313V26.5629H4.68481V120.313C4.68481 127.188 10.3098 132.813 17.1849 132.813H31.2474C24.3724 132.813 18.7474 127.188 18.7474 120.313Z" fill="#D5DBE1"/>
<path d="M31.2474 4.68689H17.1849C10.3098 4.68689 4.68481 10.3119 4.68481 17.1869V26.562H18.7474V17.1869C18.7474 10.3119 24.3724 4.68689 31.2474 4.68689Z" fill="#1AACFF"/>
<path d="M62.5012 139.062V114.061H53.1262C51.4012 114.061 50.0012 112.661 50.0012 110.936C50.0012 110.124 50.3137 109.38 50.8262 108.824L82.0325 74.8426L75.0013 67.1863L36.7636 108.824C36.2511 109.38 35.9386 110.124 35.9386 110.936C35.9386 112.661 37.3386 114.061 39.0636 114.061H48.4386V139.062C48.4386 142.512 51.2387 145.312 54.6887 145.312H68.7512C65.3012 145.312 62.5012 142.512 62.5012 139.062V139.062Z" fill="#1AACFF"/>
<path d="M132.813 137.501H123.438V128.125H132.813C137.119 128.125 140.626 124.619 140.626 120.313V17.1876C140.626 12.8813 137.119 9.37503 132.813 9.37503H17.1876C12.8813 9.37503 9.37504 12.8813 9.37504 17.1876V120.313C9.37504 124.619 12.8813 128.125 17.1876 128.125H26.5626V137.501H17.1876C7.70628 137.501 0 129.794 0 120.313V17.1876C0 7.70628 7.70628 0 17.1876 0H132.813C142.294 0 150.001 7.70628 150.001 17.1876V120.313C150.001 129.794 142.294 137.501 132.813 137.501Z" fill="#2F344C"/>
<path d="M4.68481 21.874H145.31V31.2491H4.68481V21.874Z" fill="#2F344C"/>
<path d="M95.3085 150H54.6833C48.652 150 43.7458 145.094 43.7458 139.062V118.75H39.0583C34.752 118.75 31.2457 115.244 31.2457 110.937C31.2457 108.975 31.977 107.1 33.302 105.656L71.5396 64.0184C73.3209 62.0746 76.6647 62.0746 78.4459 64.0184L116.684 105.656C118.015 107.094 118.746 108.975 118.746 110.937C118.746 115.244 115.24 118.75 110.934 118.75H106.246V139.062C106.246 145.094 101.34 150 95.3085 150ZM42.6145 109.375H48.4333C51.0208 109.375 53.1208 111.475 53.1208 114.062V139.062C53.1208 139.925 53.8208 140.625 54.6833 140.625H95.3085C96.171 140.625 96.871 139.925 96.871 139.062V114.062C96.871 111.475 98.971 109.375 101.559 109.375H107.377L74.9959 74.1122L42.6145 109.375Z" fill="#2F344C"/>
<path d="M93.745 74.9996H103.12V90.6247H93.745V74.9996Z" fill="#2F344C"/>
</svg>
