<svg width="30" height="30" viewBox="0 0 30 30" fill="none" xmlns="http://www.w3.org/2000/svg">
<path d="M30 15C30 23.2843 23.2843 30 15 30C6.71573 30 0 23.2843 0 15C0 6.71573 6.71573 0 15 0C23.2843 0 30 6.71573 30 15Z" fill="#2F344C"/>
<g clip-path="url(#clip0)">
<path d="M22.4927 9.95434L17.9478 14.4997L22.4927 19.0449C23.1687 19.7212 23.1687 20.8167 22.4927 21.493C22.1549 21.8307 21.7121 21.9998 21.2694 21.9998C20.8261 21.9998 20.3832 21.831 20.0457 21.493L15.4998 16.9473L10.9542 21.4929C10.6165 21.8307 10.1736 21.9997 9.73056 21.9997C9.28767 21.9997 8.84508 21.831 8.50704 21.4929C7.83101 20.8169 7.83101 19.7214 8.50704 19.0448L13.0518 14.4997L8.50678 9.95434C7.83075 9.27831 7.83075 8.18255 8.50678 7.50651C9.18268 6.831 10.2778 6.831 10.954 7.50651L15.4997 12.0519L20.0451 7.50651C20.7214 6.831 21.8167 6.831 22.4925 7.50651C23.1687 8.18255 23.1687 9.27831 22.4927 9.95434Z" fill="white"/>
</g>
<defs>
<clipPath id="clip0">
<rect width="15" height="15" fill="white" transform="translate(8 7)"/>
</clipPath>
</defs>
</svg>
