<svg width="70" height="70" viewBox="0 0 70 70" fill="none" xmlns="http://www.w3.org/2000/svg">
<g clip-path="url(#clip0)">
<path d="M1.36719 30.2227L35.0042 68.6297L68.6331 30.2227H1.36719Z" fill="white"/>
<path d="M1.36719 30.2217L35.0042 68.6287L68.6331 30.2217H1.36719Z" fill="#78D2FA"/>
<path d="M12.6303 13.1289L1.36914 30.222H68.6334L57.4238 13.1289H12.6303Z" fill="#78D2FA"/>
<path d="M23.7949 30.222L35.0046 13.1289L46.2142 30.222H23.7949Z" fill="white"/>
<path d="M46.2129 30.222L57.4226 13.1289L68.6322 30.222H46.2129Z" fill="#C8F5FF"/>
<path d="M1.41992 30.222L12.6294 13.1289L23.8391 30.222H1.41992Z" fill="#C8F5FF"/>
<path d="M46.2142 30.2217H23.7949L35.0046 68.492L46.2142 30.2217Z" fill="#C8F5FF"/>
<path d="M13.7293 53.8394C13.7293 49.5523 10.2539 46.0769 5.9668 46.0769C10.2539 46.0769 13.7293 42.6015 13.7293 38.3145C13.7293 42.6015 17.2047 46.0769 21.4918 46.0769C17.2048 46.0769 13.7293 49.5525 13.7293 53.8394Z" fill="#7D9BFF"/>
<path d="M63.1674 12.3075C63.1674 9.28752 60.7192 6.8393 57.6992 6.8393C60.7192 6.8393 63.1674 4.39107 63.1674 1.37109C63.1674 4.39107 65.6156 6.8393 68.6356 6.8393C65.6156 6.83943 63.1674 9.28766 63.1674 12.3075Z" fill="#7D9BFF"/>
<path d="M58.5665 12.3791C58.3137 11.9939 57.8841 11.7617 57.4234 11.7617H12.6298C12.17 11.7617 11.7411 11.9928 11.4882 12.3768L0.260567 29.4191C0.20711 29.4928 0.160762 29.5723 0.122071 29.6574C-0.0995503 30.146 -0.0147846 30.719 0.33877 31.1226L6.02969 37.6204C6.52721 38.1885 7.39072 38.2456 7.95879 37.7483C8.52672 37.2507 8.58387 36.3871 8.08648 35.8193L4.38182 31.5891H22.7706L32.0109 63.1365L21.569 51.214C21.0716 50.6459 20.2078 50.5888 19.64 51.0861C19.0721 51.5837 19.015 52.4473 19.5123 53.0152L33.9758 69.5296C34.2353 69.826 34.6103 69.9961 35.0042 69.9961C35.3982 69.9961 35.773 69.826 36.0325 69.5295L51.4311 51.9431C51.9286 51.375 51.8713 50.5114 51.3031 50.0141C50.7349 49.5166 49.8713 49.5739 49.3742 50.1421L37.9978 63.1349L47.2378 31.5891H65.619L57.1174 41.2989C56.6199 41.8669 56.6772 42.7306 57.2454 43.2278C57.5047 43.455 57.8257 43.5665 58.1454 43.5665C58.5257 43.5665 58.9042 43.4086 59.1743 43.0998L69.6615 31.1226C70.066 30.6606 70.1129 29.9858 69.7762 29.4724L58.5665 12.3791ZM66.1016 28.855H48.745L57.4234 15.6217L66.1016 28.855ZM23.8168 27.6949L15.161 14.496H32.4727L23.8168 27.6949ZM35.0041 15.6217L43.6823 28.855H26.3259L35.0041 15.6217ZM37.5354 14.496H54.8921L46.2138 27.7292L37.5354 14.496ZM12.6271 15.6177L21.308 28.855H3.90645L12.6271 15.6177ZM35.0041 63.6291L25.6194 31.5891H44.3889L35.0041 63.6291Z" fill="black"/>
<path d="M22.8567 46.0768C22.8567 45.3218 22.2445 44.7097 21.4897 44.7097C17.9633 44.7097 15.0942 41.8407 15.0942 38.3143C15.0942 37.5594 14.482 36.9473 13.7272 36.9473C12.9724 36.9473 12.3601 37.5594 12.3601 38.3143C12.3601 41.8407 9.49109 44.7097 5.96471 44.7097C5.20988 44.7097 4.59766 45.3218 4.59766 46.0768C4.59766 46.8318 5.20988 47.4439 5.96471 47.4439C9.49109 47.4439 12.3601 50.3129 12.3601 53.8393C12.3601 54.5942 12.9724 55.2063 13.7272 55.2063C14.482 55.2063 15.0942 54.5942 15.0942 53.8393C15.0942 50.3129 17.9633 47.4439 21.4897 47.4439C22.2448 47.4439 22.8567 46.8319 22.8567 46.0768ZM13.7272 49.0383C12.9819 47.8376 11.9664 46.8222 10.7659 46.0768C11.9664 45.3315 12.9818 44.3161 13.7272 43.1153C14.4724 44.316 15.488 45.3314 16.6885 46.0768C15.488 46.8222 14.4726 47.8375 13.7272 49.0383Z" fill="black"/>
<path d="M57.6971 8.20621C59.9585 8.20621 61.7983 10.046 61.7983 12.3074C61.7983 13.0623 62.4105 13.6744 63.1653 13.6744C63.9202 13.6744 64.5324 13.0623 64.5324 12.3074C64.5324 10.046 66.3722 8.20621 68.6335 8.20621C69.3884 8.20621 70.0006 7.59412 70.0006 6.83916C70.0006 6.0842 69.3884 5.47211 68.6335 5.47211C66.3722 5.47211 64.5324 3.63229 64.5324 1.37096C64.5324 0.615996 63.9202 0.00390625 63.1653 0.00390625C62.4105 0.00390625 61.7983 0.615996 61.7983 1.37096C61.7983 3.63229 59.9585 5.47211 57.6971 5.47211C56.9423 5.47211 56.3301 6.0842 56.3301 6.83916C56.3301 7.59412 56.9423 8.20621 57.6971 8.20621ZM63.1653 5.46787C63.5554 5.98713 64.0174 6.4491 64.5366 6.83916C64.0174 7.22922 63.5553 7.69119 63.1653 8.21045C62.7753 7.69119 62.3133 7.22922 61.794 6.83916C62.3133 6.4491 62.7753 5.98699 63.1653 5.46787Z" fill="black"/>
<path d="M54.1014 45.4512C53.7417 45.4512 53.3906 45.5961 53.135 45.8518C52.8807 46.1061 52.7344 46.4588 52.7344 46.8182C52.7344 47.1777 52.8805 47.5304 53.135 47.7847C53.3893 48.039 53.7419 48.1853 54.1014 48.1853C54.461 48.1853 54.8136 48.039 55.0678 47.7847C55.322 47.5304 55.4685 47.1777 55.4685 46.8182C55.4685 46.4588 55.3222 46.1061 55.0678 45.8518C54.8137 45.5961 54.461 45.4512 54.1014 45.4512Z" fill="black"/>
</g>
<defs>
<clipPath id="clip0">
<rect width="70" height="70" fill="white"/>
</clipPath>
</defs>
</svg>
