<svg width="80" height="80" viewBox="0 0 80 80" fill="none" xmlns="http://www.w3.org/2000/svg">
<circle cx="40" cy="40" r="40" fill="#D3E6F8"/>
<g clip-path="url(#clip0)">
<path d="M6.36787 35.2223L40.0049 73.6293L73.6338 35.2223H6.36787Z" fill="white"/>
<path d="M6.36787 35.2223L40.0049 73.6293L73.6338 35.2223H6.36787Z" fill="#78D2FA"/>
<path d="M17.6309 18.1291L6.36976 35.2222H73.634L62.4244 18.1291H17.6309Z" fill="#78D2FA"/>
<path d="M28.7943 35.2222L40.004 18.1291L51.2136 35.2222H28.7943Z" fill="white"/>
<path d="M51.2124 35.2222L62.4221 18.1291L73.6317 35.2222H51.2124Z" fill="#C8F5FF"/>
<path d="M6.41965 35.2222L17.6291 18.1291L28.8388 35.2222H6.41965Z" fill="#C8F5FF"/>
<path d="M51.2136 35.2223H28.7943L40.004 73.4926L51.2136 35.2223Z" fill="#C8F5FF"/>
<path d="M18.7284 58.8389C18.7284 54.5518 15.253 51.0764 10.9659 51.0764C15.253 51.0764 18.7284 47.601 18.7284 43.3139C18.7284 47.601 22.2038 51.0764 26.4909 51.0764C22.2039 51.0764 18.7284 54.5519 18.7284 58.8389Z" fill="#7D9BFF"/>
<path d="M68.1658 17.3071C68.1658 14.2871 65.7175 11.8389 62.6976 11.8389C65.7175 11.8389 68.1658 9.39067 68.1658 6.37069C68.1658 9.39067 70.614 11.8389 73.634 11.8389C70.614 11.839 68.1658 14.2873 68.1658 17.3071Z" fill="#7D9BFF"/>
<path d="M63.5666 17.3793C63.3138 16.994 62.8842 16.7619 62.4235 16.7619H17.6299C17.1701 16.7619 16.7413 16.9929 16.4883 17.377L5.2607 34.4193C5.20725 34.4929 5.1609 34.5725 5.12221 34.6576C4.90059 35.1462 4.98535 35.7192 5.33891 36.1228L11.0298 42.6206C11.5273 43.1887 12.3909 43.2458 12.9589 42.7484C13.5269 42.2509 13.584 41.3873 13.0866 40.8195L9.38195 36.5893H27.7708L37.011 68.1367L26.5691 56.2141C26.0718 55.6461 25.208 55.5889 24.6402 56.0863C24.0722 56.5838 24.0151 57.4475 24.5125 58.0154L38.976 74.5298C39.2355 74.8262 39.6105 74.9963 40.0044 74.9963C40.3984 74.9963 40.7731 74.8262 41.0326 74.5297L56.4313 56.9433C56.9288 56.3752 56.8715 55.5115 56.3033 55.0143C55.7351 54.5168 54.8714 54.5741 54.3743 55.1423L42.9979 68.1351L52.2379 36.5893H70.6191L62.1175 46.299C61.62 46.8671 61.6773 47.7307 62.2455 48.228C62.5048 48.4552 62.8259 48.5666 63.1455 48.5666C63.5259 48.5666 63.9043 48.4087 64.1745 48.1L74.6616 36.1228C75.0661 35.6608 75.113 34.986 74.7763 34.4726L63.5666 17.3793ZM71.1017 33.8551H53.7451L62.4235 20.6219L71.1017 33.8551ZM28.8169 32.6951L20.1611 19.4961H37.4729L28.8169 32.6951ZM40.0042 20.6219L48.6824 33.8551H31.326L40.0042 20.6219ZM42.5356 19.4961H59.8923L51.2139 32.7294L42.5356 19.4961ZM17.6272 20.6179L26.3081 33.8551H8.90658L17.6272 20.6179ZM40.0042 68.6293L30.6196 36.5893H49.389L40.0042 68.6293Z" fill="black"/>
<path d="M27.8571 51.0764C27.8571 50.3214 27.2449 49.7094 26.4901 49.7094C22.9637 49.7094 20.0946 46.8403 20.0946 43.3139C20.0946 42.559 19.4824 41.9469 18.7276 41.9469C17.9728 41.9469 17.3605 42.559 17.3605 43.3139C17.3605 46.8403 14.4915 49.7094 10.9651 49.7094C10.2103 49.7094 9.59805 50.3214 9.59805 51.0764C9.59805 51.8314 10.2103 52.4435 10.9651 52.4435C14.4915 52.4435 17.3605 55.3125 17.3605 58.8389C17.3605 59.5938 17.9728 60.2059 18.7276 60.2059C19.4824 60.2059 20.0946 59.5938 20.0946 58.8389C20.0946 55.3125 22.9637 52.4435 26.4901 52.4435C27.2452 52.4435 27.8571 51.8315 27.8571 51.0764ZM18.7276 54.0379C17.9823 52.8372 16.9668 51.8218 15.7663 51.0764C16.9668 50.3312 17.9822 49.3157 18.7276 48.1149C19.4728 49.3156 20.4884 50.331 21.6889 51.0764C20.4884 51.8218 19.473 52.8371 18.7276 54.0379Z" fill="black"/>
<path d="M62.6968 13.2059C64.9581 13.2059 66.7979 15.0457 66.7979 17.3071C66.7979 18.062 67.4101 18.6741 68.165 18.6741C68.9198 18.6741 69.532 18.062 69.532 17.3071C69.532 15.0457 71.3718 13.2059 73.6332 13.2059C74.388 13.2059 75.0002 12.5938 75.0002 11.8389C75.0002 11.0839 74.388 10.4718 73.6332 10.4718C71.3718 10.4718 69.532 8.63198 69.532 6.37066C69.532 5.61569 68.9198 5.0036 68.165 5.0036C67.4101 5.0036 66.7979 5.61569 66.7979 6.37066C66.7979 8.63198 64.9581 10.4718 62.6968 10.4718C61.9419 10.4718 61.3297 11.0839 61.3297 11.8389C61.3297 12.5938 61.9419 13.2059 62.6968 13.2059ZM68.165 10.4676C68.555 10.9868 69.017 11.4488 69.5362 11.8389C69.017 12.2289 68.5549 12.6909 68.165 13.2101C67.7749 12.6909 67.3129 12.2289 66.7937 11.8389C67.3129 11.4488 67.7749 10.9867 68.165 10.4676Z" fill="black"/>
<path d="M59.101 50.4511C58.7413 50.4511 58.3902 50.5961 58.1345 50.8517C57.8802 51.106 57.7339 51.4588 57.7339 51.8182C57.7339 52.1776 57.8801 52.5304 58.1345 52.7846C58.3888 53.0389 58.7414 53.1852 59.101 53.1852C59.4605 53.1852 59.8131 53.0389 60.0673 52.7846C60.3216 52.5304 60.468 52.1776 60.468 51.8182C60.468 51.4588 60.3217 51.106 60.0673 50.8517C59.8133 50.5961 59.4605 50.4511 59.101 50.4511Z" fill="black"/>
</g>
<defs>
<clipPath id="clip0">
<rect width="70" height="70" fill="white" transform="translate(5 5)"/>
</clipPath>
</defs>
</svg>
