<svg width="80" height="66" viewBox="0 0 80 66" fill="none" xmlns="http://www.w3.org/2000/svg">
<path d="M42.3324 64.8368C42.3332 64.8368 42.3321 64.8368 42.3329 64.8368C52.4018 64.8368 60.8735 64.3678 67.474 63.7933C71.5426 63.4391 74.0901 59.2585 72.5304 55.5122C68.2039 45.1199 62.8621 34.8538 56.5956 24.897C52.3301 18.1197 48.2123 12.4072 44.7301 7.91265C42.3017 4.77814 37.5507 4.7772 35.1223 7.91156C31.6574 12.3837 27.5617 18.0638 23.3174 24.7995C17.0829 34.6937 11.7613 44.8952 7.44165 55.2236C5.87337 58.9733 8.43056 63.1599 12.5056 63.5154C22.5679 64.3931 32.5677 64.8368 42.3324 64.8368Z" fill="white"/>
<path d="M41.7351 21.2314C40.5679 21.1149 39.4007 21.1149 38.2335 21.2314C36.7568 21.3789 35.6263 22.6029 35.5718 24.075C35.3938 28.8901 35.3938 33.7052 35.5718 38.5204C35.6262 39.9924 36.7568 41.2166 38.2335 41.3639C39.4007 41.4804 40.5679 41.4804 41.7351 41.3639C43.2118 41.2165 44.3423 39.9924 44.3968 38.5204C44.5748 33.7052 44.5748 28.8901 44.3968 24.075C44.3423 22.6029 43.2118 21.3789 41.7351 21.2314Z" fill="#DD636E"/>
<path d="M41.6505 46.6487C40.5398 46.5959 39.429 46.5959 38.3182 46.6487C36.7874 46.7214 35.558 47.9444 35.489 49.4639C35.4216 50.9452 35.4216 52.4266 35.489 53.9081C35.558 55.4275 36.7874 56.6505 38.3182 56.7232C39.429 56.776 40.5398 56.776 41.6505 56.7232C43.1813 56.6505 44.4107 55.4275 44.4798 53.9081C44.5471 52.4267 44.5471 50.9454 44.4798 49.4639C44.4107 47.9444 43.1813 46.7214 41.6505 46.6487Z" fill="#DD636E"/>
<path d="M39.985 42.6143C40.6091 42.6143 41.2333 42.5833 41.853 42.5214C43.8953 42.3175 45.4925 40.6158 45.5684 38.5631C45.7467 33.7422 45.7467 28.8534 45.5684 24.0326C45.4925 21.9799 43.8953 20.2782 41.853 20.0743C40.6134 19.9505 39.3562 19.9505 38.1169 20.0743C36.0745 20.2782 34.4773 21.9799 34.4012 24.0324C34.2231 28.8533 34.2231 33.7422 34.4012 38.5631C34.4772 40.6158 36.0745 42.3175 38.1169 42.5214C38.7367 42.5833 39.3608 42.6143 39.985 42.6143ZM41.6184 22.3889C42.5019 22.4771 43.1931 23.2204 43.2262 24.1179C43.4023 28.8821 43.4023 33.7136 43.2262 38.478C43.1931 39.3754 42.5019 40.1187 41.6184 40.207C40.5344 40.3152 39.4353 40.3152 38.3516 40.207C37.4681 40.1187 36.7767 39.3754 36.7436 38.478C36.5675 33.7137 36.5675 28.8823 36.7436 24.118C36.7767 23.2206 37.4681 22.4773 38.3516 22.389C39.4356 22.2805 40.5347 22.2805 41.6184 22.3889ZM41.7358 21.2315H41.7342H41.7358Z" fill="#5D6174"/>
<path d="M39.9848 57.9258C40.5601 57.9258 41.1355 57.9123 41.7068 57.885C43.858 57.7828 45.5535 56.0957 45.6507 53.9605C45.7193 52.4512 45.7193 50.9207 45.6507 49.4115C45.5535 47.2763 43.858 45.5892 41.7068 45.487C40.564 45.4327 39.4052 45.4327 38.2624 45.487C36.1112 45.5892 34.4157 47.2763 34.3185 49.4115C34.2499 50.9207 34.2499 52.4512 34.3185 53.9605C34.4157 56.0957 36.1112 57.7828 38.2624 57.885C38.834 57.9121 39.4093 57.9258 39.9848 57.9258ZM41.5949 47.8104C42.5148 47.8542 43.2679 48.6035 43.3095 49.5163C43.3749 50.956 43.3749 52.4159 43.3095 53.8555C43.2679 54.7683 42.5148 55.5177 41.5949 55.5614C40.5265 55.6121 39.443 55.6121 38.3746 55.5614C37.4546 55.5177 36.7015 54.7683 36.6599 53.8555C36.5945 52.4159 36.5945 50.956 36.6599 49.5163C36.7015 48.6034 37.4546 47.854 38.3746 47.8104C39.443 47.7597 40.5266 47.7597 41.5949 47.8104ZM41.6509 46.6487H41.6493H41.6509Z" fill="#5D6174"/>
<path d="M38.5033 5.72858C39.6849 6.03688 40.7908 6.77213 41.6086 7.93307C44.803 12.4673 48.5801 18.231 52.4927 25.0687C58.2415 35.1136 63.1418 45.4708 67.1101 55.9544C68.4071 59.3793 66.6096 63.1636 63.4829 64.1097C64.8808 64.0095 66.2112 63.9028 67.4738 63.7935C71.543 63.439 74.0894 59.2592 72.5308 55.5117C68.2041 45.1203 62.8616 34.8539 56.5952 24.8973C52.3294 18.1204 48.2126 12.4067 44.7301 7.91337C43.1926 5.92895 40.7232 5.20022 38.5033 5.72858Z" fill="#DFEAEF"/>
<path d="M11.8145 35.4171V34.9813C11.8145 33.4446 10.6155 32.1703 9.07086 32.065L4.31946 31.7415C2.61758 31.6256 1.17274 32.9646 1.17274 34.6578V35.7404C1.17274 37.4336 2.61758 38.7726 4.31946 38.6567L9.07086 38.3332C10.6155 38.2281 11.8145 36.9538 11.8145 35.4171Z" fill="white"/>
<path d="M15.4803 21.4L15.6998 21.0227C16.474 19.6917 16.0776 17.9933 14.7929 17.1355L10.8411 14.4974C9.4256 13.5525 7.49981 13.9951 6.64684 15.4614L6.10137 16.399C5.24841 17.8653 5.82512 19.742 7.35731 20.4861L11.6351 22.5639C13.0259 23.2394 14.7061 22.7307 15.4803 21.4Z" fill="white"/>
<path d="M25.7176 11.0804L26.0978 10.8625C27.4387 10.0941 27.9511 8.42648 27.2706 7.04609L25.1772 2.80026C24.4273 1.27953 22.5365 0.707126 21.0594 1.55372L20.1147 2.09511C18.6373 2.9417 18.1914 4.85308 19.1434 6.25797L21.8014 10.1803C22.6654 11.4554 24.3769 11.8487 25.7176 11.0804Z" fill="white"/>
<path d="M68.1875 35.4171V34.9813C68.1875 33.4446 69.3864 32.1703 70.9311 32.065L75.6825 31.7415C77.3843 31.6258 78.8291 32.9648 78.8291 34.6578V35.7404C78.8291 37.4336 77.3843 38.7726 75.6824 38.6567L70.931 38.3332C69.3864 38.2281 68.1875 36.9538 68.1875 35.4171Z" fill="white"/>
<path d="M64.5217 21.4L64.3022 21.0227C63.5279 19.6917 63.9244 17.9933 65.209 17.1355L69.1609 14.4974C70.5764 13.5525 72.5022 13.9951 73.3551 15.4614L73.9006 16.399C74.7536 17.8653 74.1769 19.742 72.6447 20.4861L68.3669 22.5639C66.9761 23.2394 65.2959 22.7307 64.5217 21.4Z" fill="white"/>
<path d="M54.2843 11.0804L53.9042 10.8625C52.5632 10.0941 52.0509 8.42648 52.7314 7.04609L54.8248 2.80026C55.5747 1.27953 57.4654 0.707126 58.9426 1.55372L59.8873 2.09511C61.3647 2.9417 61.8106 4.85308 60.8586 6.25797L58.2006 10.1803C57.3367 11.4554 55.6253 11.8487 54.2843 11.0804Z" fill="white"/>
<path d="M42.3325 65.9999C51.1057 65.9999 59.5987 65.6473 67.5772 64.9517C69.8879 64.7511 71.9048 63.5059 73.1104 61.536C74.3193 59.5609 74.5028 57.2034 73.614 55.0677C69.2673 44.6272 63.8762 34.2691 57.5906 24.2809C57.2532 23.7437 56.9153 23.2132 56.5789 22.6888C56.2312 22.147 55.507 21.9874 54.9609 22.3326C54.415 22.6777 54.2543 23.3966 54.602 23.9385C54.9343 24.4565 55.2682 24.9805 55.6021 25.5123C61.8198 35.3922 67.1509 45.6346 71.4481 55.9561C72.0489 57.3996 71.9248 58.9932 71.1076 60.3284C70.2936 61.6584 68.9323 62.499 67.3728 62.6345C59.462 63.3241 51.0379 63.6739 42.3343 63.6739C32.6261 63.6739 22.6254 63.2308 12.6087 62.3571C11.0428 62.2206 9.67667 61.3762 8.86074 60.0403C8.04449 58.7039 7.92199 57.1108 8.52449 55.6692C12.8156 45.4105 18.1273 35.2319 24.3121 25.4163C27.9959 19.57 31.9456 13.9196 36.052 8.622C36.9857 7.41624 38.3976 6.72488 39.9259 6.72473C39.9261 6.72473 39.9262 6.72473 39.9265 6.72473C41.4554 6.72473 42.8681 7.41608 43.802 8.62185C46.6218 12.2602 49.3989 16.1089 52.0564 20.061C52.4156 20.5952 53.1434 20.7395 53.6815 20.3828C54.2198 20.0262 54.3651 19.304 54.0057 18.7698C51.3193 14.7744 48.5114 10.8831 45.6598 7.20378C44.2787 5.42065 42.1887 4.39819 39.9264 4.39819H39.9256C37.6636 4.39835 35.5745 5.42111 34.194 7.20378C30.0422 12.5603 26.0487 18.273 22.325 24.1828C16.0718 34.1067 10.7004 44.4003 6.35965 54.7774C5.46777 56.9115 5.64886 59.2691 6.85652 61.2462C8.06387 63.2229 10.0857 64.4722 12.4034 64.6743C22.4879 65.5539 32.5575 65.9999 42.3325 65.9999Z" fill="#5D6174"/>
<path d="M5.84305 39.7168C5.87008 39.7168 5.89727 39.7158 5.92461 39.714L9.15117 39.4937C11.3018 39.3469 12.9863 37.5558 12.9863 35.4163V34.9821C12.9863 32.8426 11.3018 31.0516 9.15117 30.9047L4.39946 30.5806C3.26414 30.5047 2.13727 30.9019 1.3068 31.6722C0.476641 32.4422 0.000396729 33.5304 0.000396729 34.658V35.7405C0.000396729 36.4023 0.162736 37.058 0.469924 37.6366C0.771643 38.2049 1.48039 38.4231 2.05305 38.1234C2.6257 37.824 2.84508 37.1205 2.54352 36.5522C2.41133 36.3033 2.3443 36.03 2.3443 35.7406V34.6581C2.3443 34.1653 2.54414 33.7086 2.90711 33.372C3.27039 33.0351 3.74383 32.8682 4.23992 32.9015L8.99055 33.2255C9.91695 33.2888 10.6427 34.0605 10.6427 34.9823V35.4165C10.6427 36.3383 9.91695 37.11 8.99039 37.1733L5.76383 37.3935C5.11821 37.4375 4.6307 37.9929 4.67508 38.6337C4.71758 39.247 5.23258 39.7168 5.84305 39.7168Z" fill="#5D6174"/>
<path d="M12.9195 24.0223C14.3501 24.0223 15.739 23.2824 16.4957 21.9816L16.7153 21.6043C17.7931 19.7515 17.2364 17.3646 15.4476 16.1705L11.4957 13.5324C10.5526 12.9026 9.37651 12.6875 8.26948 12.9422C7.16214 13.1967 6.20105 13.9029 5.63277 14.8799L5.0873 15.8175C4.51902 16.7946 4.38324 17.9737 4.7148 19.0527C5.04636 20.1318 5.82198 21.035 6.84292 21.5309L11.1207 23.6087C11.6974 23.8889 12.3123 24.0222 12.9195 24.0223ZM9.20355 15.162C9.5512 15.162 9.89042 15.2644 10.1876 15.4626L14.1395 18.1007C14.9099 18.6149 15.1496 19.643 14.6854 20.441L14.4659 20.8185C14.0017 21.6165 12.9849 21.9242 12.1509 21.5194L7.87308 19.4417C7.42683 19.225 7.10136 18.846 6.95636 18.3744C6.81152 17.9028 6.86839 17.4079 7.11683 16.981L7.66229 16.0433C7.91073 15.6164 8.31401 15.3199 8.79808 15.2087C8.93308 15.1774 9.06901 15.162 9.20355 15.162Z" fill="#5D6174"/>
<path d="M24.2551 12.632C24.9545 12.632 25.6607 12.456 26.3035 12.0877L26.6837 11.8698C28.5506 10.8 29.2707 8.4566 28.3231 6.53483L26.2298 2.289C25.7301 1.2757 24.8201 0.50587 23.7329 0.176786C22.6457 -0.152452 21.4576 -0.0176858 20.4734 0.546502L19.5287 1.08789C18.5443 1.65192 17.8328 2.60583 17.5764 3.7049C17.32 4.80381 17.5367 5.97111 18.171 6.90718L20.829 10.8295C21.6178 11.9936 22.9234 12.632 24.2551 12.632ZM25.1315 10.0732C24.3275 10.5338 23.2917 10.2959 22.7735 9.53116L20.1156 5.60884C19.8384 5.19973 19.7475 4.70998 19.8595 4.22954C19.9715 3.7491 20.2701 3.34883 20.7004 3.10225L21.6451 2.56086C22.0753 2.31428 22.5739 2.25767 23.049 2.40159C23.5242 2.54551 23.906 2.86854 24.1243 3.31145L26.2178 7.55728C26.6259 8.38496 26.3157 9.39438 25.5117 9.85513L25.1315 10.0732Z" fill="#5D6174"/>
<path d="M75.8811 39.8266C76.9193 39.8266 77.9311 39.434 78.6938 38.7271C79.5246 37.9571 80.001 36.8686 80.001 35.7406V34.6579C80.001 33.5299 79.5246 32.4413 78.6938 31.6714C77.863 30.9014 76.7358 30.5039 75.6022 30.5813L70.8508 30.9048C68.7002 31.0512 67.0155 32.8419 67.0155 34.9814V35.4172C67.0155 37.5567 68.7002 39.3474 70.8508 39.4938L75.6022 39.8173C75.6952 39.8235 75.7883 39.8266 75.8811 39.8266ZM75.888 32.8977C76.3375 32.8977 76.7619 33.0635 77.0943 33.3715C77.4572 33.7079 77.6572 34.1648 77.6572 34.6578V35.7404C77.6572 36.2334 77.4572 36.6903 77.0941 37.0268C76.731 37.3632 76.2588 37.5297 75.7625 37.4962L71.0111 37.1727C70.0849 37.1096 69.3593 36.3384 69.3593 35.4169V34.9811C69.3593 34.0596 70.0849 33.2882 71.0111 33.2253L75.7625 32.9018C75.8046 32.899 75.8464 32.8977 75.888 32.8977Z" fill="#5D6174"/>
<path d="M67.0821 24.0222C67.6893 24.0222 68.304 23.889 68.8808 23.6086L73.1586 21.531C74.1796 21.035 74.9552 20.1318 75.2868 19.0528C75.6185 17.9737 75.4825 16.7945 74.9143 15.8176L74.3688 14.88C73.8005 13.903 72.8394 13.1967 71.7321 12.9422C70.6249 12.6874 69.449 12.9028 68.5057 13.5325L64.5538 16.1706C62.765 17.3647 62.2082 19.7514 63.2861 21.6043L63.5057 21.9816C64.2624 23.2825 65.6516 24.0222 67.0821 24.0222ZM70.798 15.1621C70.9325 15.1621 71.0683 15.1774 71.2035 15.2084C71.6875 15.3196 72.0908 15.616 72.3393 16.0431L72.8847 16.9807C73.1332 17.4076 73.19 17.9025 73.0452 18.3741C72.9002 18.8457 72.5747 19.2247 72.1285 19.4414L67.8507 21.5192C67.0168 21.9242 65.9999 21.6164 65.5357 20.8184L65.3161 20.441C64.8519 19.643 65.0916 18.615 65.8622 18.1007L69.8141 15.4626C70.111 15.2643 70.4504 15.1621 70.798 15.1621Z" fill="#5D6174"/>
<path d="M55.7465 12.632C57.0784 12.632 58.3837 11.9937 59.1728 10.8295L61.8307 6.90716C62.4651 5.97109 62.6818 4.80394 62.4254 3.70503C62.169 2.60597 61.4574 1.65206 60.4731 1.08803L59.5284 0.546639C58.5442 -0.0173937 57.356 -0.15216 56.2689 0.176923C55.1817 0.506007 54.2717 1.27583 53.772 2.28914L51.6785 6.53496C50.731 8.45674 51.451 10.8 53.3181 11.8699L53.6982 12.0878C54.3407 12.456 55.0474 12.632 55.7465 12.632ZM54.2842 11.0804H54.2826H54.2842ZM57.4739 2.32388C57.7799 2.32388 58.0821 2.4039 58.3565 2.561L59.3012 3.10239C59.7314 3.34897 60.0301 3.74923 60.1421 4.22968C60.2542 4.70996 60.1632 5.19971 59.886 5.60882L57.2281 9.53114C56.7099 10.2957 55.6743 10.5337 54.8701 10.0732L54.4899 9.85527C53.6859 9.39452 53.3757 8.38525 53.7837 7.55742L55.8771 3.31159C56.0954 2.86883 56.4773 2.54564 56.9524 2.40173C57.1246 2.34977 57.2999 2.32388 57.4739 2.32388Z" fill="#5D6174"/>
</svg>
