<svg width="175" height="214" viewBox="0 0 175 214" fill="none" xmlns="http://www.w3.org/2000/svg">
<path d="M167.88 24.9657V103.433H11.2534V24.9657C11.2591 23.0756 12.0109 21.2645 13.3449 19.9279C14.6788 18.5914 16.4863 17.838 18.3728 17.8324H160.76C162.647 17.838 164.454 18.5914 165.788 19.9279C167.122 21.2645 167.874 23.0756 167.88 24.9657Z" fill="#5AAAE7"/>
<path d="M171.441 196.168V206.868C171.441 207.814 171.065 208.721 170.398 209.39C169.73 210.059 168.825 210.434 167.881 210.434H11.2546C10.3105 210.434 9.40513 210.059 8.73756 209.39C8.06998 208.721 7.69495 207.814 7.69495 206.868V196.168H171.441Z" fill="#ACABB1"/>
<path d="M171.441 196.165H7.69495L29.0531 174.765H150.082L171.441 196.165Z" fill="#C6C5CA"/>
<path d="M167.88 103.433V117.7C167.874 119.59 167.122 121.401 165.788 122.737C164.454 124.074 162.647 124.827 160.76 124.833H18.3728C16.4863 124.827 14.6788 124.074 13.3449 122.737C12.0109 121.401 11.2591 119.59 11.2534 117.7V103.433H167.88Z" fill="#C6C5CA"/>
<path d="M125.164 146.232V160.499H53.9707V146.232H71.7691H107.366H125.164Z" fill="#ACABB1"/>
<path d="M71.7687 124.832H107.366V146.233H71.7687V124.832Z" fill="#C6C5CA"/>
<path d="M71.7687 124.832H107.366V131.966H71.7687V124.832Z" fill="#ACABB1"/>
<path d="M142.963 42.7992V96.2995H50.4108V42.7992L64.6495 32.9194V21.3991H81.2732L86.3992 17.8324H106.974L112.1 21.3991H128.724V32.9194L142.963 42.7992Z" fill="#3D9AE2"/>
<path d="M135.843 37.8687L121.604 46.6428L89.5669 66.4022L43.291 37.8687L89.5669 5.76855L121.604 27.989L128.723 32.9467L135.843 37.8687Z" fill="#EE8700"/>
<path d="M57.5306 14.2653H121.605V89.1657H57.5306V14.2653Z" fill="#E6E7E8"/>
<path d="M135.844 35.6648V89.1651L121.605 74.8983L102.774 56.0305L121.605 44.4388L135.844 35.6648Z" fill="#FF9811"/>
<path d="M135.843 89.1652H43.291L57.5298 74.8985L76.3605 56.0307L89.5669 64.1984L102.773 56.0307L121.604 74.8985L135.843 89.1652Z" fill="#FFA733"/>
<path d="M57.5298 44.4388L43.291 35.6648V89.1651L57.5298 74.8983L76.3605 56.0305L57.5298 44.4388Z" fill="#FF9811"/>
<path d="M128.724 32.9444V42.2535L121.604 46.6405V27.9867L128.724 32.9444Z" fill="#D97B00"/>
<path d="M173.957 193.645L152.599 172.245C151.931 171.576 151.026 171.2 150.082 171.2H43.2914V164.066C43.2914 161.228 42.1663 158.507 40.1636 156.5C38.1609 154.493 35.4446 153.366 32.6124 153.366H11.2543C10.3102 153.366 9.40475 152.99 8.73718 152.321C8.06961 151.653 7.69457 150.745 7.69457 149.799C7.69457 148.853 8.06961 147.946 8.73718 147.277C9.40475 146.608 10.3102 146.233 11.2543 146.233H32.6124C35.4446 146.233 38.1609 145.105 40.1636 143.099C42.1663 141.092 43.2914 138.37 43.2914 135.533V128.399H68.2092V142.666H53.9705C53.0264 142.666 52.121 143.042 51.4534 143.711C50.7858 144.38 50.4108 145.287 50.4108 146.233V160.499C50.4108 161.445 50.7858 162.353 51.4534 163.021C52.121 163.69 53.0264 164.066 53.9705 164.066H125.164C126.108 164.066 127.014 163.69 127.681 163.021C128.349 162.353 128.724 161.445 128.724 160.499V146.233C128.724 145.287 128.349 144.38 127.681 143.711C127.014 143.042 126.108 142.666 125.164 142.666H110.925V128.399H160.761C163.593 128.399 166.31 127.272 168.312 125.265C170.315 123.259 171.44 120.537 171.44 117.699V24.9654C171.44 22.1275 170.315 19.4059 168.312 17.3993C166.31 15.3926 163.593 14.2653 160.761 14.2653H132.284V21.3987H160.761C161.705 21.3987 162.611 21.7745 163.278 22.4434C163.946 23.1122 164.321 24.0194 164.321 24.9654V99.8658H14.8139V24.9654C14.8139 24.0194 15.189 23.1122 15.8565 22.4434C16.5241 21.7745 17.4295 21.3987 18.3736 21.3987H46.8511V14.2653H18.3736C15.5414 14.2653 12.8251 15.3926 10.8224 17.3993C8.81968 19.4059 7.69457 22.1275 7.69457 24.9654V117.699C7.69457 120.537 8.81968 123.259 10.8224 125.265C12.8251 127.272 15.5414 128.399 18.3736 128.399H36.1721V135.533C36.1721 136.479 35.797 137.386 35.1295 138.055C34.4619 138.724 33.5565 139.099 32.6124 139.099H11.2543C8.42199 139.099 5.70573 140.227 3.70302 142.233C1.70031 144.24 0.575195 146.962 0.575195 149.799C0.575195 152.637 1.70031 155.359 3.70302 157.365C5.70573 159.372 8.42199 160.499 11.2543 160.499H32.6124C33.5565 160.499 34.4619 160.875 35.1295 161.544C35.797 162.213 36.1721 163.12 36.1721 164.066V171.2H29.0527C28.1087 171.2 27.2034 171.576 26.536 172.245L5.17787 193.645C4.51025 194.313 4.13508 195.22 4.13488 196.166V206.866C4.13488 208.758 4.88496 210.573 6.2201 211.91C7.55524 213.248 9.36608 214 11.2543 214H167.88C169.769 214 171.579 213.248 172.915 211.91C174.25 210.573 175 208.758 175 206.866V196.166C175 195.22 174.624 194.313 173.957 193.645ZM121.605 156.933H57.5302V149.799H121.605V156.933ZM103.806 142.666H75.3286V128.399H103.806V142.666ZM14.8139 117.699V106.999H164.321V117.699C164.321 118.645 163.946 119.552 163.278 120.221C162.611 120.89 161.705 121.266 160.761 121.266H18.3736C17.4295 121.266 16.5241 120.89 15.8565 120.221C15.189 119.552 14.8139 118.645 14.8139 117.699ZM30.5264 178.333H148.608L162.847 192.6H16.2876L30.5264 178.333ZM11.2543 206.866V199.733H167.88V206.866H11.2543Z" fill="#464B61"/>
<path d="M32.6128 181.899H39.7322V189.033H32.6128V181.899Z" fill="#464B61"/>
<path d="M46.851 181.899H53.9703V189.033H46.851V181.899Z" fill="#464B61"/>
<path d="M125.164 181.899H132.284V189.033H125.164V181.899Z" fill="#464B61"/>
<path d="M61.0891 181.899H118.044V189.033H61.0891V181.899Z" fill="#464B61"/>
<path d="M139.404 181.899H146.523V189.033H139.404V181.899Z" fill="#464B61"/>
<path d="M142.962 110.567H150.082V117.7H142.962V110.567Z" fill="#464B61"/>
<path d="M41.2653 32.7338C40.7921 33.0619 40.4054 33.5 40.1382 34.0106C39.871 34.5212 39.7313 35.0891 39.7311 35.6657V89.1659C39.7311 90.1119 40.1061 91.0191 40.7737 91.688C41.4413 92.3569 42.3467 92.7326 43.2908 92.7326H135.843C136.787 92.7326 137.692 92.3569 138.36 91.688C139.027 91.0191 139.402 90.1119 139.402 89.1659V35.6657C139.402 35.0891 139.262 34.5212 138.995 34.0106C138.728 33.5 138.341 33.0619 137.868 32.7338L125.164 23.917V14.2655C125.164 13.3196 124.789 12.4124 124.121 11.7435C123.453 11.0746 122.548 10.6989 121.604 10.6989H106.091L91.5922 0.633666C90.997 0.221045 90.2904 0 89.5667 0C88.8429 0 88.1364 0.221045 87.5412 0.633666L73.0426 10.6989H57.5295C56.5854 10.6989 55.68 11.0746 55.0124 11.7435C54.3449 12.4124 53.9698 13.3196 53.9698 14.2655V23.917L41.2653 32.7338ZM132.283 42.0465V80.5667L108.49 56.7091L132.283 42.0465ZM102.261 60.5611L127.25 85.5993H51.8838L76.8728 60.5611L87.7014 67.238C88.2624 67.5838 88.9081 67.7668 89.5667 67.7668C90.2253 67.7668 90.871 67.5838 91.432 67.238L102.261 60.5611ZM46.8505 80.556V42.0358L70.6434 56.7091L46.8505 80.556ZM49.7979 35.4909L53.9698 32.5947V38.0625L49.7979 35.4909ZM129.336 35.4909L125.164 38.0625V32.5947L129.336 35.4909ZM89.5667 7.90614L93.5927 10.6989H85.5407L89.5667 7.90614ZM118.044 17.8322V42.4424L89.5667 60.0012L61.0892 42.4424V17.8322H118.044Z" fill="#464B61"/>
<path d="M75.3286 27.168H103.806V34.3013H75.3286V27.168Z" fill="#464B61"/>
<path d="M75.3286 41.4333H103.806V48.5667H75.3286V41.4333Z" fill="#464B61"/>
</svg>
