<svg width="80" height="80" viewBox="0 0 80 80" fill="none" xmlns="http://www.w3.org/2000/svg">
<path d="M72.2464 43.8143C72.2464 63.1118 56.3548 78.7557 36.7541 78.7557C31.9458 78.7557 27.362 77.8146 23.1817 76.108C11.7543 71.448 3.33738 61.0806 1.5972 48.6166C1.3765 47.0474 1.26367 45.4434 1.26367 43.8143C1.26367 24.515 17.1534 8.87109 36.7541 8.87109C56.3548 8.87109 72.2464 24.515 72.2464 43.8143Z" fill="#92D8F1"/>
<path d="M36.7535 8.87109C34.877 8.87109 33.0351 9.01575 31.2373 9.29163C48.2187 11.9009 61.214 26.3625 61.214 43.8143C61.214 61.2637 48.22 75.7247 31.2404 78.3346C33.037 78.6105 34.8776 78.7557 36.7535 78.7557C56.3542 78.7557 72.2458 63.1118 72.2458 43.8143C72.2458 24.515 56.3542 8.87109 36.7535 8.87109Z" fill="#92D8F1"/>
<path d="M76.6772 41.2312L56.4101 54.4441C54.9663 55.3859 53.2174 55.7594 51.5076 55.4902C49.7941 55.2217 48.0409 55.5903 46.5933 56.5339L43.8811 58.3033L28.6919 36.2605L32.4184 20.4103C32.7085 19.1767 32.8517 17.9261 32.8517 16.6804C32.8517 13.4578 31.8945 10.2766 30.0582 7.54589C29.6069 6.8745 29.3912 6.11461 29.3912 5.3651C29.3912 4.08275 30.0229 2.82543 31.1903 2.06432C32.7637 1.03771 34.8492 1.22875 36.2037 2.52208L38.6178 4.82433C41.379 7.46166 43.5085 10.6727 44.8463 14.2237L46.1556 17.6936L59.6363 8.92467C61.7893 7.52147 64.7024 8.13488 66.0769 10.3059C67.4029 12.3976 66.7222 15.1612 64.633 16.5229C64.6076 16.5394 64.6064 16.5657 64.6144 16.5858C64.6262 16.6072 64.6516 16.6224 64.6801 16.6108C65.2127 16.4082 65.77 16.3105 66.323 16.3105C67.2051 16.3105 68.0799 16.5608 68.8282 17.0369C69.3433 17.3652 69.7996 17.8016 70.1604 18.3369C70.856 19.3721 71.0637 20.586 70.8361 21.714C70.4784 23.4919 69.1666 24.4075 68.9087 24.5802C68.8647 24.6101 68.853 24.6693 68.8833 24.7145C68.8833 24.7163 68.8852 24.7175 68.8871 24.7175C68.9156 24.7578 68.9745 24.7694 69.0166 24.7425C69.3836 24.6547 69.7574 24.6131 70.1319 24.6131C71.0444 24.6131 71.9527 24.8689 72.7245 25.3529C73.2465 25.6813 73.7083 26.1158 74.0654 26.6481C75.4671 28.7312 74.8875 31.5394 72.7697 32.9194C72.7177 32.9542 72.6656 32.989 72.6135 33.022C72.5831 33.0458 72.5745 33.0836 72.59 33.1105C72.5931 33.1166 72.5999 33.1233 72.6067 33.1269C72.6303 33.1453 72.6675 33.1465 72.6978 33.1233C74.0133 32.682 75.4454 32.8828 76.5979 33.6177C77.1286 33.9527 77.5985 34.4038 77.9704 34.958C79.3721 37.0436 78.7931 39.8512 76.6772 41.2312Z" fill="white"/>
<path d="M44.075 62.4863L35.5253 68.0606L23.1817 76.1087C11.7543 71.4481 3.33734 61.0812 1.59717 48.6166L15.9222 39.277L24.6423 33.5916C25.6459 32.9361 27.0005 33.2083 27.6657 34.1983L44.6912 59.5071C45.357 60.4977 45.0805 61.8295 44.075 62.4863Z" fill="#DFEAEF"/>
<path d="M44.0747 62.4863L35.525 68.0606L15.9219 39.277L24.642 33.5916C25.6457 32.9361 27.0002 33.2083 27.6654 34.1983L44.6909 59.5071C45.3567 60.4977 45.0802 61.8295 44.0747 62.4863Z" fill="#DFEAEF"/>
<path d="M68.8277 17.0369L62.084 20.5897C61.1268 21.0927 59.9409 20.8302 59.2974 19.9727L64.614 16.5858C64.6258 16.6078 64.6512 16.6224 64.6797 16.6108C65.2122 16.4082 65.7696 16.3105 66.3225 16.3105C67.2053 16.3105 68.0795 16.5614 68.8277 17.0369Z" fill="#FAFFC5" fill-opacity="0.666667"/>
<path d="M72.7243 25.353L66.1275 28.8259C65.1703 29.3301 63.9843 29.0682 63.3408 28.2107L68.6574 24.8239L68.8868 24.7177C68.9153 24.7579 68.9742 24.7695 69.0164 24.7427C69.384 24.6548 69.7578 24.6133 70.1317 24.6133C71.0448 24.6133 71.953 24.8684 72.7243 25.353Z" fill="#FAFFC5" fill-opacity="0.666667"/>
<path d="M76.5972 33.618L70.7865 36.6783C69.8318 37.1806 68.6452 36.9188 68.0005 36.0613L72.606 33.1273C72.6296 33.1456 72.6668 33.1468 72.6972 33.1236C74.0127 32.6824 75.4447 32.8832 76.5972 33.618Z" fill="#FAFFC5" fill-opacity="0.666667"/>
<path d="M79.024 34.2718C78.1815 33.0193 76.9044 32.1563 75.4196 31.8292C76.3774 30.0256 76.3384 27.7752 75.1183 25.9619C74.2504 24.671 72.9411 23.8372 71.5158 23.5217C71.77 23.0444 71.9579 22.5292 72.0701 21.986C72.3813 20.4754 72.0775 18.9361 71.2127 17.6513C70.3702 16.3983 69.0931 15.5352 67.6084 15.2087C68.5662 13.4051 68.5271 11.1547 67.3071 9.34076C65.5235 6.68879 61.8795 5.95941 59.1852 7.71601L53.3516 11.5197C50.2419 9.96698 46.9345 8.8653 43.5019 8.23786C42.417 6.61615 41.1554 5.10858 39.7432 3.76093L37.3298 1.45807C35.5623 -0.228939 32.7906 -0.482235 30.7386 0.856266C28.3109 2.43891 27.6438 5.67133 29.2513 8.06147C29.3146 8.15607 29.3766 8.25128 29.4379 8.3465C21.5269 9.92243 14.3169 14.0557 8.98047 20.1122C3.1896 26.6851 0 35.1031 0 43.8152C0 45.4852 0.115929 47.1581 0.345307 48.7866C2.11276 61.4459 10.6779 72.3553 22.6973 77.2582C27.1547 79.0771 31.8842 79.9999 36.7526 79.9999C44.4628 79.9999 51.8432 77.6751 58.0966 73.2775C64.2142 68.9745 68.7912 63.0364 71.3336 56.1053C71.571 55.4595 71.2307 54.746 70.5748 54.5129C69.9183 54.2797 69.1942 54.6142 68.9573 55.2606C66.5898 61.715 62.3265 67.2448 56.6273 71.253C50.8055 75.3478 43.9328 77.5121 36.7526 77.5121C33.0404 77.5121 29.4156 76.9354 25.9464 75.7977L36.2263 69.0954C36.2269 69.0948 36.2275 69.0948 36.2281 69.0942C36.2288 69.0942 36.2288 69.0936 36.2294 69.093L44.7728 63.5229H44.7734C45.5403 63.0224 46.0641 62.2582 46.2476 61.3702C46.4311 60.4821 46.2526 59.5764 45.7443 58.8214L45.6314 58.6529L47.291 57.5707C48.4751 56.7986 49.8991 56.4959 51.3014 56.7175C53.3317 57.0385 55.3936 56.5991 57.1072 55.4815L70.8723 46.5069C70.7781 47.6824 70.6231 48.8513 70.4068 50.0005C70.2791 50.6762 70.7322 51.3256 71.4185 51.4507C71.496 51.4654 71.5741 51.4721 71.6504 51.4721C72.2474 51.4721 72.778 51.0534 72.8909 50.4547C73.2411 48.5998 73.4426 46.6998 73.4947 44.7973L77.3737 42.268C78.6786 41.4172 79.5695 40.1165 79.8807 38.6065C80.1926 37.0959 79.8882 35.5566 79.024 34.2718ZM50.8984 13.1188L47.0381 15.6359L46.278 13.6199C45.9606 12.7789 45.5967 11.9543 45.1937 11.1474C47.1521 11.6363 49.0591 12.2955 50.8984 13.1188ZM10.8893 21.7425C16.0181 15.9216 23.0042 12.0086 30.6468 10.6518C31.8731 13.5766 32.1669 16.8444 31.4341 19.959L28.3537 33.0615C27.8695 32.5524 27.2409 32.2015 26.5329 32.0599C25.6302 31.8786 24.7109 32.055 23.944 32.5555L15.2183 38.244C15.2177 38.244 15.2177 38.244 15.2171 38.2446C15.2171 38.2446 15.2165 38.2446 15.2165 38.2452L2.63165 46.4501C2.56284 45.5761 2.52688 44.6954 2.52688 43.8152C2.52688 35.7025 5.49702 27.8631 10.8893 21.7425ZM43.7716 60.874C43.7226 61.1108 43.5825 61.3152 43.3773 61.4489H43.3779L35.8742 66.3409L21.9472 45.8923C21.5585 45.3216 20.7736 45.1696 20.194 45.5523C19.615 45.935 19.46 46.7071 19.8487 47.2778L33.767 67.7148L23.055 74.699C12.4106 70.1153 4.79339 60.4351 2.96208 49.1711L15.5618 40.9832L17.0118 43.1133C17.2561 43.471 17.6553 43.6645 18.0626 43.6645C18.3044 43.6645 18.5493 43.5967 18.765 43.4539C19.3447 43.0712 19.4996 42.2985 19.1109 41.7278L17.6708 39.613L25.3395 34.6295C25.5435 34.4958 25.7883 34.4494 26.0289 34.4976C26.2694 34.5458 26.4771 34.6838 26.6129 34.8852L43.6377 60.1952C43.7728 60.3961 43.8206 60.6371 43.7716 60.874ZM77.4047 38.1109C77.2274 38.9703 76.7209 39.71 75.9782 40.194L71.5437 43.0853C71.5425 43.0859 71.5413 43.0871 71.5394 43.0877L55.7117 53.4075C54.5276 54.1796 53.1036 54.483 51.7013 54.2608C49.6716 53.9404 47.6097 54.3792 45.8955 55.4968L44.2359 56.5789L30.2922 35.8495L33.8965 20.5206C34.8246 16.5716 34.3355 12.4121 32.5674 8.78839C32.5513 8.75055 32.5339 8.71393 32.5141 8.67792C32.1744 7.99311 31.7887 7.32843 31.3579 6.68756C30.5197 5.44123 30.8675 3.75605 32.1341 2.93024C33.2041 2.23261 34.6498 2.36444 35.571 3.24396L37.9844 5.54743C40.595 8.03949 42.6439 11.1303 43.9086 14.486L45.2229 17.9717C45.2254 17.9785 45.2278 17.9839 45.2303 17.9901C45.2334 17.998 45.2371 18.0065 45.2402 18.0145C45.2495 18.0358 45.2582 18.0554 45.2675 18.0718C45.2929 18.1243 45.3208 18.1762 45.3543 18.2256C45.7399 18.7988 46.5235 18.9556 47.105 18.576L60.5807 9.79059C62.1132 8.79145 64.1857 9.20587 65.2005 10.7147C66.2153 12.2235 65.7944 14.2639 64.2619 15.263L63.0921 16.0259C63.0921 16.0259 63.0915 16.0259 63.0908 16.0266L60.4815 17.7282C60.4778 17.7307 60.4753 17.7331 60.4716 17.7349C60.4567 17.7453 60.4424 17.7551 60.4307 17.7648C59.8913 18.1548 59.7518 18.8964 60.1257 19.4518C60.5106 20.025 61.2949 20.1818 61.877 19.8022L64.4882 18.0993C65.2303 17.6165 66.1186 17.4462 66.9909 17.6208C67.8632 17.7954 68.6151 18.294 69.1061 19.0252C69.5977 19.7558 69.7713 20.6317 69.594 21.4904C69.4167 22.3498 68.9102 23.0895 68.1675 23.5735L64.3871 26.0388C63.805 26.4178 63.6457 27.1893 64.0313 27.7624C64.2743 28.1237 64.676 28.3196 65.0858 28.3196C65.3251 28.3196 65.5675 28.2525 65.782 28.1127L66.3672 27.7313L68.392 26.4111C69.9251 25.4119 71.9969 25.8264 73.0118 27.3351C74.0266 28.8445 73.6057 30.8843 72.0732 31.8841L70.1848 33.1152C70.1749 33.1213 70.165 33.128 70.1551 33.1347L68.2928 34.3487C67.7106 34.7277 67.5513 35.4998 67.9369 36.0729C68.1799 36.4343 68.5817 36.6302 68.9914 36.6302C69.2307 36.6302 69.4731 36.563 69.6876 36.4233L70.2729 36.0418C70.2729 36.0418 70.2729 36.0412 70.2735 36.0412L72.2982 34.7216C73.0403 34.2376 73.9293 34.0667 74.8022 34.2419C75.675 34.4158 76.4264 34.9151 76.918 35.6457C77.409 36.3763 77.582 37.2521 77.4047 38.1109Z" fill="#5D6174"/>
</svg>
