<svg width="80" height="80" viewBox="0 0 80 80" fill="none" xmlns="http://www.w3.org/2000/svg">
<path d="M40.0004 78.8186C61.4394 78.8186 78.8191 61.4389 78.8191 39.9999C78.8191 18.5609 61.4394 1.18115 40.0004 1.18115C18.5614 1.18115 1.18164 18.5609 1.18164 39.9999C1.18164 61.4389 18.5614 78.8186 40.0004 78.8186Z" fill="white"/>
<path d="M63.2051 8.87842C68.0395 15.3515 70.902 23.3833 70.902 32.0837C70.902 53.5228 53.5223 70.9025 32.0832 70.9025C23.3828 70.9025 15.3511 68.04 8.87793 63.2056C15.9561 72.6831 27.2612 78.819 39.9998 78.819C61.4389 78.819 78.8186 61.4394 78.8186 40.0003C78.8186 27.2617 72.6826 15.9565 63.2051 8.87842Z" fill="#DFEAEF"/>
<path d="M51.5969 24.8235C46.6865 24.6399 42.374 27.2679 40.1374 31.2246C40.0765 31.3324 39.9238 31.3324 39.8629 31.2246C37.6263 27.2677 33.3135 24.6396 28.4029 24.8235C21.8879 25.0674 16.5832 30.3362 16.298 36.8495C16.076 41.924 18.8568 46.3721 23.0119 48.5659C26.1135 50.2032 29.0454 52.1434 31.6699 54.4699L32.6487 55.3376C35.0144 57.4348 37.1535 59.7746 39.0305 62.3185L39.6199 63.1173C39.8088 63.3732 40.1915 63.3732 40.3804 63.1173L40.9698 62.3185C42.8468 59.7746 44.9857 57.4349 47.3515 55.3378L48.3302 54.4701C50.9548 52.1435 53.8868 50.2034 56.9884 48.5659C61.1437 46.3721 63.9244 41.9238 63.7021 36.849C63.4168 30.3356 58.1119 25.0671 51.5969 24.8235Z" fill="#FB5252"/>
<path d="M63.7086 37.0398C63.5805 32.6309 61.1244 28.7408 57.5302 26.5894C58.6006 28.3772 59.2427 30.4429 59.3066 32.6378C59.4508 37.5954 56.7303 41.9319 52.6781 44.1145C49.4277 45.8653 46.3505 47.9203 43.5877 50.3694L42.9486 50.9359C40.583 53.0329 38.4441 55.3726 36.5672 57.9164L36.02 58.6579C37.086 59.8239 38.0908 61.0456 39.03 62.3186L39.6194 63.1173C39.8083 63.3732 40.191 63.3732 40.3799 63.1173L40.9692 62.3186C42.8461 59.775 44.9849 57.4353 47.3503 55.3384L47.9897 54.7715C50.7524 52.3225 53.8295 50.2675 57.08 48.5167C61.1324 46.3339 63.8528 41.9975 63.7086 37.0398Z" fill="#FB5252"/>
<path d="M68.2844 11.7158C60.7292 4.16078 50.6844 0 40 0C29.3156 0 19.2708 4.16078 11.7156 11.7158C4.16078 19.2708 0 29.3156 0 40C0 47.0863 1.87766 54.0489 5.43016 60.1353C8.87703 66.0408 13.812 70.9992 19.7017 74.4742C20.2634 74.8058 20.9878 74.6191 21.3192 74.0572C21.6508 73.4953 21.4641 72.7711 20.9022 72.4395C9.46656 65.692 2.3625 53.262 2.3625 40C2.3625 19.2466 19.2466 2.3625 40 2.3625C60.7534 2.3625 77.6375 19.2466 77.6375 40C77.6375 60.7534 60.7534 77.6375 40 77.6375C35.1358 77.6375 30.4025 76.7234 25.9319 74.9206C25.327 74.6761 24.6388 74.9694 24.3945 75.5744C24.1506 76.1794 24.4433 76.8677 25.0483 77.1117C29.8011 79.0281 34.8316 80 40 80C50.6844 80 60.7292 75.8392 68.2844 68.2842C75.8392 60.7292 80 50.6844 80 40C80 29.3156 75.8392 19.2708 68.2844 11.7158Z" fill="#5D6174"/>
<path d="M56.5771 47.4456C55.734 47.9059 54.9129 48.3773 54.1369 48.8465C53.5788 49.1841 53.3999 49.9104 53.7376 50.4685C53.9596 50.8356 54.3497 51.0387 54.7494 51.0387C54.9577 51.0387 55.1685 50.9837 55.3597 50.8681C56.106 50.4167 56.8965 49.9629 57.7091 49.5192C62.3491 46.9859 65.0985 42.1288 64.8843 36.8432C64.5951 29.7092 58.779 23.9109 51.6435 23.6427C47.0172 23.4687 42.6871 25.5918 39.9986 29.2645C39.0894 28.029 37.9735 26.9413 36.7129 26.0699C36.1761 25.6992 35.4404 25.8334 35.0694 26.3699C34.6986 26.9065 34.8329 27.6423 35.3694 28.0132C36.7888 28.9943 37.9869 30.3057 38.8347 31.8062C39.0722 32.2259 39.5188 32.4867 40.0001 32.4865C40.4815 32.4863 40.928 32.2257 41.1652 31.8057C43.2793 28.0654 47.2635 25.8445 51.5546 26.0034C57.4658 26.2254 62.284 31.0288 62.5233 36.9387C62.7013 41.3202 60.4225 45.346 56.5771 47.4456Z" fill="#5D6174"/>
<path d="M28.2461 26.0129C29.0499 25.969 29.8547 26.0082 30.6399 26.1292C31.2844 26.2281 31.8878 25.7863 31.9872 25.1415C32.0864 24.4968 31.6442 23.8935 30.9994 23.7943C30.0534 23.6487 29.0834 23.6016 28.1178 23.654C21.003 24.0412 15.4133 29.7042 15.1163 36.8265C15.0047 39.4956 15.6566 42.1137 17.0013 44.3976C18.3038 46.6101 20.1913 48.4126 22.4602 49.6102C25.6538 51.2962 28.4888 53.2287 30.8858 55.3535L31.8647 56.2212C34.1639 58.2595 36.2549 60.5467 38.0795 63.0195L38.6689 63.8181C38.9792 64.2388 39.4769 64.4901 39.9997 64.4901C40.5225 64.4901 41.02 64.2388 41.3305 63.8182L41.9199 63.0195C43.7442 60.5468 45.8353 58.2596 48.1345 56.2215L48.7736 55.6551C49.4688 55.0387 50.2103 54.4284 50.9773 53.8412C51.4953 53.4446 51.5936 52.7032 51.1972 52.1851C50.8006 51.6671 50.0594 51.5687 49.5411 51.9652C48.7294 52.5868 47.9438 53.2334 47.2064 53.887L46.5675 54.4534C44.1445 56.6012 41.9414 59.0112 40.0188 61.6166L39.9995 61.6427L39.9805 61.617C38.058 59.0113 35.8545 56.6012 33.4317 54.4535L32.4528 53.5859C29.9145 51.3357 26.9234 49.2952 23.5628 47.5212C19.6227 45.441 17.2905 41.3809 17.4764 36.9249C17.7227 31.0248 22.3527 26.3337 28.2461 26.0129Z" fill="#5D6174"/>
</svg>
