<svg width="55" height="55" viewBox="0 0 55 55" fill="none" xmlns="http://www.w3.org/2000/svg">
<g clip-path="url(#clip0)">
<path d="M48.2093 17.9777H44.2447V10.1758C44.2447 8.83975 43.7134 7.59451 42.8439 6.68411L40.2821 4.00351C38.1081 1.76355 37.8337 1.13072 36.5389 0.502197C35.9373 0.201953 35.1447 0 34.3454 0H15.6334C12.8459 0 10.579 2.268 10.579 5.05441V32.3114H9.51304C7.90493 32.3114 6.59707 33.6193 6.59707 35.2274C6.59707 36.0277 6.92106 36.7524 7.44377 37.2794C6.92106 37.8064 6.59707 38.531 6.59707 39.3313C6.59707 39.6316 6.63918 39.8098 6.65433 39.9081C0.326537 40.5518 -2.19423 48.3839 2.43684 52.6348C3.83547 53.9189 5.69194 54.6468 7.70502 54.5647C8.37029 54.5647 22.0668 54.5594 22.0841 54.5594C23.6911 54.5594 25.0001 53.2515 25.0001 51.6434C25.0001 50.8431 24.6761 50.1184 24.1534 49.5914C24.6448 49.0957 24.9601 48.4272 24.9958 47.6841H26.0898V48.2684C26.0898 51.9804 29.1095 55 32.8214 55H48.2093C51.9213 55 54.9409 51.9804 54.9409 48.2684V24.7093C54.941 20.9973 51.9213 17.9777 48.2093 17.9777ZM41.3309 7.60321C41.3309 7.60321 41.3319 7.60321 41.333 7.60536C41.3341 7.60536 41.3341 7.60536 41.3341 7.60536C41.3352 7.60751 41.3373 7.60966 41.3384 7.61073L41.3395 7.61181C41.3416 7.61503 41.3438 7.61718 41.3459 7.61825C41.347 7.61933 41.348 7.6204 41.3491 7.62255C41.3502 7.62362 41.3513 7.62362 41.3513 7.6247C41.3523 7.62577 41.3534 7.62577 41.3545 7.62792C41.3566 7.62899 41.3577 7.63114 41.3588 7.63222H37.029V3.05529C40.4226 6.642 41.1872 7.45089 41.3309 7.60321ZM9.51304 34.0394H22.0842C22.7387 34.0394 23.2722 34.573 23.2722 35.2274C23.2722 35.883 22.7386 36.4154 22.0842 36.4154H9.51304C8.85852 36.4154 8.32506 35.883 8.32506 35.2274C8.32495 34.5729 8.85852 34.0394 9.51304 34.0394ZM9.51304 38.1434H22.0842C22.7387 38.1434 23.2722 38.6769 23.2722 39.3313C23.2722 39.9869 22.7386 40.5193 22.0842 40.5193H13.401C13.0478 40.3573 12.6817 40.2255 12.3069 40.124C11.7474 39.9717 11.1685 39.8853 10.5789 39.8702C10.4094 39.8659 10.2397 39.8669 10.0702 39.8745H8.45784C8.37254 39.7114 8.32495 39.5267 8.32495 39.3312C8.32495 38.6769 8.85852 38.1434 9.51304 38.1434ZM23.2722 43.4354C23.2722 44.091 22.7386 44.6234 22.0842 44.6234H17.249C16.9207 43.7496 16.4261 42.945 15.7824 42.2474H22.0842C22.7386 42.2474 23.2722 42.7809 23.2722 43.4354ZM5.30962 41.8845C4.78369 42.3835 4.31597 42.9764 3.9488 43.6298H2.94226C3.6 42.8144 4.41759 42.2344 5.30962 41.8845ZM2.02316 45.2497H3.28139C3.25335 45.3707 3.1107 45.8362 3.04592 46.5447H1.71647C1.76835 46.0998 1.87094 45.6656 2.02316 45.2497ZM2.16248 49.532C1.97138 49.0978 1.8342 48.6389 1.75643 48.1647H3.07621C3.31276 49.5061 3.32565 49.275 3.38505 49.532H2.16248ZM3.24035 51.1519C3.77059 51.1509 4.07846 51.1541 4.15075 51.1498C4.47367 51.6595 4.86243 52.1315 5.31285 52.5559C4.52985 52.2482 3.83332 51.7784 3.24035 51.1519ZM10.6124 52.9459C7.45129 53.082 4.77498 50.6336 4.64103 47.4649C4.42393 42.4203 10.4492 39.515 14.2433 42.998C17.9835 46.4313 15.7068 52.7363 10.6124 52.9459ZM22.0842 52.8314H15.1107C15.8828 52.1779 16.5168 51.369 16.9672 50.4554H22.0842C22.7387 50.4554 23.2722 50.989 23.2722 51.6434C23.2722 52.2989 22.7386 52.8314 22.0842 52.8314ZM23.2625 47.6841C23.1912 48.2716 22.6901 48.7274 22.0842 48.7274H17.5633C17.72 47.9779 17.7642 47.17 17.6681 46.3515H22.0842C22.8121 46.3514 23.3553 47.0027 23.2625 47.6841ZM26.0898 45.956H24.5303C24.4213 45.7865 24.2948 45.6299 24.1534 45.4874C25.2819 44.349 25.283 42.5217 24.1534 41.3834C24.6761 40.8564 25.0001 40.1317 25.0001 39.3314C25.0001 38.5312 24.6761 37.8065 24.1534 37.2795C25.9699 35.4478 24.6718 32.3115 22.0841 32.3115H12.3069V5.05441C12.3069 3.22062 13.7994 1.72799 15.6333 1.72799H35.3012V8.49632C35.3012 8.9737 35.6878 9.36031 36.1652 9.36031H42.414C42.5944 10.0602 42.4831 9.82899 42.5166 17.9776H32.8214C29.1095 17.9776 26.0898 20.9972 26.0898 24.7092V45.956ZM53.321 48.2684C53.321 51.0872 51.0282 53.3801 48.2093 53.3801H32.8215C30.0039 53.3801 27.7099 51.0873 27.7099 48.2684V24.7093C27.7099 21.8905 30.0038 19.5976 32.8215 19.5976H48.2094C51.0282 19.5976 53.3211 21.8904 53.3211 24.7093V48.2684H53.321Z" fill="#A3A5B0"/>
<path d="M48.1522 21.4348H32.8788C31.3769 21.4348 30.1594 22.6523 30.1594 24.1542V27.1188C30.1594 28.6207 31.3769 29.8382 32.8788 29.8382H35.8174C36.2647 29.8382 36.6274 29.4756 36.6274 29.0283C36.6274 28.5809 36.2647 28.2183 35.8174 28.2183H32.8788C32.2741 28.2183 31.7793 27.7235 31.7793 27.1188V24.1542C31.7793 23.5495 32.2741 23.0547 32.8788 23.0547H48.1522C48.7591 23.0547 49.2516 23.5483 49.2516 24.1542V27.1188C49.2516 27.7247 48.7591 28.2183 48.1522 28.2183H39.3103C38.863 28.2183 38.5003 28.5809 38.5003 29.0283C38.5003 29.4756 38.863 29.8382 39.3103 29.8382H48.1522C49.6523 29.8382 50.8715 28.6178 50.8715 27.1188V24.1542C50.8715 22.6552 49.6522 21.4348 48.1522 21.4348Z" fill="#A3A5B0"/>
<path d="M34.623 38.5029H31.855C30.9207 38.5029 30.1594 39.2633 30.1594 40.1985V42.9654C30.1594 43.9008 30.9208 44.661 31.855 44.661H34.623C35.5583 44.661 36.3186 43.9007 36.3186 42.9654V40.1985C36.3186 39.2633 35.5582 38.5029 34.623 38.5029ZM34.6985 42.9654C34.6985 43.0076 34.6639 43.0411 34.6229 43.0411H31.8549C31.8138 43.0411 31.7792 43.0076 31.7792 42.9654V40.1985C31.7792 40.1564 31.8138 40.1229 31.8549 40.1229H34.6229C34.6639 40.1229 34.6985 40.1564 34.6985 40.1985V42.9654Z" fill="#A3A5B0"/>
<path d="M49.2634 31.2671H46.4964C45.5611 31.2671 44.8009 32.0274 44.8009 32.9626V35.7296C44.8009 36.6649 45.5612 37.4252 46.4964 37.4252H49.2634C50.1987 37.4252 50.959 36.6648 50.959 35.7296V32.9626C50.959 32.0274 50.1986 31.2671 49.2634 31.2671ZM49.339 35.7296C49.339 35.7717 49.3055 35.8052 49.2634 35.8052H46.4964C46.4554 35.8052 46.4208 35.7717 46.4208 35.7296C46.4543 32.9919 46.3506 32.887 46.4964 32.887H49.2634C49.3055 32.887 49.339 32.9205 49.339 32.9626V35.7296Z" fill="#A3A5B0"/>
<path d="M34.623 31.2671H31.855C30.9207 31.2671 30.1594 32.0274 30.1594 32.9626V35.7296C30.1594 36.6649 30.9208 37.4252 31.855 37.4252H34.623C35.5583 37.4252 36.3186 36.6648 36.3186 35.7296V32.9626C36.3186 32.0274 35.5582 31.2671 34.623 31.2671ZM34.6985 35.7296C34.6985 35.7717 34.6639 35.8052 34.6229 35.8052H31.8549C31.8138 35.8052 31.7792 35.7717 31.7792 35.7296V32.9626C31.7792 32.9205 31.8138 32.887 31.8549 32.887H34.6229C34.6639 32.887 34.6985 32.9205 34.6985 32.9626V35.7296Z" fill="#A3A5B0"/>
<path d="M35.892 45.956C35.5809 45.6062 35.1274 45.3848 34.623 45.3848H31.855C31.3506 45.3848 30.897 45.6062 30.5871 45.956C29.9985 46.6159 30.1983 47.3352 30.1594 47.684V49.8473C30.1594 50.7826 30.9208 51.5428 31.855 51.5428H34.623C35.5583 51.5428 36.3186 50.7825 36.3186 49.8473V47.684C36.2797 47.3428 36.4773 46.6159 35.892 45.956ZM34.623 49.9229C31.8885 49.8894 31.7793 49.9932 31.7793 49.8473C31.7793 46.9172 31.7469 47.0047 31.855 47.0047H34.623C34.7559 47.0047 34.6738 47.1893 34.6986 47.684C34.6985 47.6841 34.7688 49.9229 34.623 49.9229Z" fill="#A3A5B0"/>
<path d="M48.8335 38.5029H46.9263C45.7545 38.5029 44.8008 39.4566 44.8008 40.6284V49.2219C44.8008 50.5017 45.8419 51.5429 47.1207 51.5429H48.6392C49.919 51.5429 50.9591 50.5017 50.9591 49.2219V40.6284C50.959 39.4566 50.0065 38.5029 48.8335 38.5029ZM48.6392 49.9228H47.1207C46.7352 49.9228 46.4208 49.6085 46.4208 49.2219V40.6284C46.4208 40.3497 46.6476 40.123 46.9263 40.123H48.8335C49.1122 40.123 49.339 40.3497 49.339 40.6284V49.2219C49.3391 49.6085 49.0258 49.9228 48.6392 49.9228Z" fill="#A3A5B0"/>
<path d="M20.9093 23.5285C19.9217 23.1656 19.2082 22.9035 19.2082 21.9885C19.2082 21.1546 19.7621 20.7317 20.8542 20.7317C22.0136 20.7317 22.3258 21.2421 22.7342 21.2421C23.1787 21.2421 23.4246 20.7704 23.4246 20.4442C23.4246 19.7693 22.3239 19.4347 21.3399 19.3464V18.738C21.3399 18.3147 20.9956 17.9705 20.5723 17.9705C20.1491 17.9705 19.8048 18.3147 19.8048 18.738V19.4434C18.4594 19.7629 17.7201 20.6922 17.7201 22.0691C17.7201 23.9544 19.108 24.4759 20.2234 24.8952C21.3155 25.3055 22.1782 25.6297 22.1782 26.8766C22.1782 27.9064 21.6064 28.4286 20.4783 28.4286C18.8275 28.4286 18.812 27.314 18.1823 27.314C17.7924 27.314 17.4783 27.7506 17.4783 28.1119C17.4783 28.7502 18.4288 29.5892 19.8048 29.807V30.3949C19.8048 30.8181 20.1491 31.1624 20.5723 31.1624C20.9956 31.1624 21.3399 30.8181 21.3399 30.3949V29.7912C22.8199 29.5126 23.6664 28.4258 23.6664 26.7959C23.6663 24.5415 22.1377 23.9799 20.9093 23.5285Z" fill="#A3A5B0"/>
<path d="M43.0751 45.86C42.7705 45.5662 42.3558 45.3848 41.9 45.3848H39.1319C38.6276 45.3848 38.1739 45.6062 37.863 45.956C37.2765 46.617 37.4753 47.3352 37.4364 47.684V49.8473C37.4364 50.7826 38.1967 51.5428 39.1319 51.5428H41.9C42.8342 51.5428 43.5944 50.7825 43.5944 49.8473V47.0792C43.5944 46.6009 43.3946 46.1678 43.0751 45.86ZM41.9 49.9229C39.1654 49.8894 39.0563 49.9932 39.0563 49.8473V47.0792C39.0563 47.0382 39.0909 47.0047 39.1319 47.0047H41.9C41.941 47.0047 41.9745 47.0382 41.9745 47.0792C41.9421 49.8203 42.0436 49.9229 41.9 49.9229Z" fill="#A3A5B0"/>
<path d="M41.9 31.2671H39.1319C38.1966 31.2671 37.4364 32.0274 37.4364 32.9626V35.7296C37.4364 36.6649 38.1967 37.4252 39.1319 37.4252H41.9C42.1182 37.4252 42.3255 37.3841 42.5167 37.3085C43.1474 37.0612 43.5946 36.4467 43.5946 35.7295V32.9625C43.5945 32.0241 42.8298 31.2671 41.9 31.2671ZM41.9 35.8052H39.1319C39.0909 35.8052 39.0563 35.7717 39.0563 35.7296V32.9626C39.0563 32.8169 39.1568 32.9195 41.9 32.887C41.941 32.887 41.9745 32.9205 41.9745 32.9626V35.7296C41.9745 35.7717 41.941 35.8052 41.9 35.8052Z" fill="#A3A5B0"/>
<path d="M42.5167 38.6196C42.3256 38.544 42.1182 38.5029 41.9 38.5029H39.1319C38.1966 38.5029 37.4364 39.2633 37.4364 40.1985V42.9654C37.4364 43.9008 38.1967 44.661 39.1319 44.661H41.9C42.8342 44.661 43.5945 43.9007 43.5945 42.9654V40.1985C43.5945 39.4814 43.1474 38.8669 42.5167 38.6196ZM41.9745 42.9654C41.9745 43.0076 41.941 43.0411 41.9 43.0411H39.1319C39.0909 43.0411 39.0563 43.0076 39.0563 42.9654V40.1985C39.0563 40.1564 39.0909 40.1229 39.1319 40.1229H41.9C41.941 40.1229 41.9745 40.1564 41.9745 40.1985V42.9654Z" fill="#A3A5B0"/>
<path d="M37.2247 11.0688H35.19C34.7429 11.0688 34.38 11.4317 34.38 11.8788C34.38 12.327 34.7429 12.6888 35.19 12.6888H37.2247C37.6718 12.6888 38.0346 12.327 38.0346 11.8788C38.0347 11.4317 37.6718 11.0688 37.2247 11.0688Z" fill="#A3A5B0"/>
<path d="M31.9499 11.0688H17.586C17.1389 11.0688 16.7761 11.4317 16.7761 11.8788C16.7761 12.327 17.1389 12.6888 17.586 12.6888H31.95C32.3971 12.6888 32.76 12.327 32.76 11.8788C32.76 11.4317 32.3971 11.0688 31.9499 11.0688Z" fill="#A3A5B0"/>
<path d="M20.1607 15.0898H17.586C17.1389 15.0898 16.7761 15.4527 16.7761 15.8998C16.7761 16.3469 17.1389 16.7098 17.586 16.7098H20.1607C20.6078 16.7098 20.9707 16.3469 20.9707 15.8998C20.9707 15.4527 20.6078 15.0898 20.1607 15.0898Z" fill="#A3A5B0"/>
<path d="M37.2247 15.0898H23.4007C22.9536 15.0898 22.5907 15.4527 22.5907 15.8998C22.5907 16.3469 22.9536 16.7098 23.4007 16.7098H37.2247C37.6718 16.7098 38.0346 16.3469 38.0346 15.8998C38.0347 15.4527 37.6718 15.0898 37.2247 15.0898Z" fill="#A3A5B0"/>
<path d="M9.90782 45.6715C9.90782 45.4679 9.9828 45.4095 10.0529 45.3706C10.2706 45.2501 10.7699 45.2147 11.2273 45.45C11.3488 45.5124 11.4865 45.5832 11.6657 45.5832C12.4646 45.5832 13.0964 44.0987 11.1881 43.7705V43.7195C11.1881 43.2669 10.8198 42.8987 10.3673 42.8987C9.9147 42.8987 9.54645 43.2669 9.54645 43.7195V43.8753C8.7468 44.1653 8.29445 44.8248 8.29445 45.7199C8.29445 47.1013 9.29809 47.4785 10.0311 47.7538C10.7301 48.0165 10.9718 48.1314 10.9718 48.6069C10.9718 48.9041 10.8918 49.1792 10.3108 49.1792C9.46406 49.1792 9.56547 48.51 8.93179 48.51C8.48394 48.51 8.14911 48.9529 8.14911 49.3489C8.14911 49.9101 8.73262 50.4427 9.54645 50.6586V50.7201C9.54645 51.1726 9.9147 51.5409 10.3673 51.5409C10.8198 51.5409 11.1881 51.1727 11.1881 50.7201V50.6371C12.0687 50.3541 12.5853 49.5958 12.5853 48.5585C12.5853 46.0972 9.90782 46.4668 9.90782 45.6715Z" fill="#A3A5B0"/>
</g>
<defs>
<clipPath id="clip0">
<rect width="55" height="55" fill="white"/>
</clipPath>
</defs>
</svg>
