<svg width="40" height="40" viewBox="0 0 40 40" fill="none" xmlns="http://www.w3.org/2000/svg">
<g clip-path="url(#clip0)">
<path d="M39.1058 9.1647L35.7725 7.08204C35.6665 7.01537 35.5365 6.97937 35.4031 6.97937H6.95312V12.1487H35.4031C35.5365 12.1487 35.6665 12.1127 35.7725 12.046L39.1058 9.96337C39.4278 9.76404 39.4278 9.36604 39.1058 9.1647Z" fill="#DFE2E7"/>
<path d="M35.4038 12.8167H6.95378C6.58578 12.8167 6.28711 12.5181 6.28711 12.1501V6.98008C6.28711 6.61142 6.58578 6.31342 6.95378 6.31342H35.4038C35.6631 6.31342 35.9125 6.38408 36.1265 6.51675L39.4598 8.59942C40.1805 9.04942 40.1811 10.0801 39.4598 10.5307L36.1265 12.6134C35.9118 12.7467 35.6625 12.8167 35.4038 12.8167ZM7.62044 11.4827H35.4031L38.4871 9.56475L35.4198 7.64875L7.62044 7.64675V11.4827ZM38.7531 9.73075H38.7598H38.7531Z" fill="#5D6174"/>
<path d="M8.62046 8.64731H35.1305L35.1505 8.65998C35.9971 9.18865 37.0978 9.05931 37.7978 8.34798L35.7725 7.08265C35.6665 7.01598 35.5365 6.97998 35.4031 6.97998H6.95312V9.87398H7.39379C8.07112 9.87398 8.62046 9.32465 8.62046 8.64731Z" fill="white"/>
<path d="M35.1312 10.482H11.5599C10.6392 10.482 9.89258 11.2286 9.89258 12.1493H35.4032C35.5366 12.1493 35.6666 12.1133 35.7726 12.0466L36.2906 11.7233L36.3672 11.4926C36.6132 10.7486 35.8119 10.0933 35.1312 10.482Z" fill="#DFE2E7"/>
<path d="M3.32268 0.8459L0.790682 3.58723C0.710016 3.67457 0.666016 3.78123 0.666016 3.89123V38.8306C0.666016 39.1079 0.940016 39.3332 1.27735 39.3332H6.34202C6.67935 39.3332 6.95268 39.1086 6.95268 38.8306V3.89123C6.95268 3.78123 6.90868 3.67457 6.82802 3.58723L4.29602 0.8459C4.05135 0.581233 3.56735 0.581233 3.32268 0.8459Z" fill="#DFE2E7"/>
<path d="M2.33335 4.37472L3.80935 2.77672C4.25735 3.26206 5.01402 3.29206 5.49935 2.84339L5.84602 2.52339L4.29602 0.846057C4.03402 0.562057 3.58535 0.562057 3.32268 0.846057L0.790682 3.58739C0.710016 3.67472 0.666016 3.78139 0.666016 3.89139V35.9881C1.58668 35.9881 2.33335 35.2414 2.33335 34.3207V4.37472ZM2.01535 4.71939L2.01602 4.71806L2.01535 4.71939Z" fill="white"/>
<path d="M6.95395 38.8307V6.20599C6.03328 6.20599 5.28661 6.95266 5.28661 7.87333V37.6653H5.28061C4.35995 37.6653 3.61328 38.412 3.61328 39.3327H6.34261C6.68061 39.3333 6.95395 39.108 6.95395 38.8307Z" fill="#DFE2E7"/>
<path d="M35.0477 32.2214H11.759C11.301 32.2214 10.9297 31.8501 10.9297 31.3921V18.1954C10.9297 17.7374 11.301 17.3661 11.759 17.3661H35.0477C35.5057 17.3661 35.877 17.7374 35.877 18.1954V31.3914C35.877 31.8501 35.5057 32.2214 35.0477 32.2214Z" fill="white"/>
<path d="M12.597 19.0334H30.5124C31.433 19.0334 32.1797 18.2868 32.1797 17.3661H11.7597C11.3017 17.3661 10.9297 17.7374 10.9297 18.1961V28.3314C11.8504 28.3314 12.597 27.5848 12.597 26.6641V19.0334Z" fill="white"/>
<path d="M35.8782 31.3913V20.6606C34.9575 20.6606 34.2108 21.4073 34.2108 22.328V30.554H15.4662C14.5455 30.554 13.7988 31.3006 13.7988 32.2213H35.0482C35.5068 32.2213 35.8782 31.85 35.8782 31.3913Z" fill="white"/>
<path d="M39.4593 8.59933L36.126 6.51666C35.9127 6.38333 35.6627 6.31333 35.4033 6.31333H7.62V3.89133C7.62 3.61333 7.51267 3.34466 7.31867 3.13466L4.78667 0.393994C4.30267 -0.130672 3.31867 -0.131339 2.834 0.393994L0.302 3.13399C0.107333 3.34466 0 3.61333 0 3.89133V38.8307C0 39.4753 0.573333 40 1.278 40H6.34267C7.04733 40 7.62067 39.4753 7.62067 38.8307V12.8167H14.7893V16.6993H11.76C10.9347 16.6993 10.2633 17.3707 10.2633 18.196V31.3913C10.2633 32.2167 10.9347 32.888 11.76 32.888H35.048C35.8733 32.888 36.5447 32.2167 36.5447 31.3913V18.196C36.5447 17.3707 35.8733 16.6993 35.048 16.6993H30.0267V12.8167H35.404C35.6627 12.8167 35.912 12.7467 36.1267 12.6133L39.46 10.5307C40.18 10.08 40.1807 9.04933 39.4593 8.59933ZM6.28667 38.666L1.334 38.6633V3.98333L3.81067 1.30266L6.28667 3.98333V38.666ZM35.0473 18.0333C35.1373 18.0333 35.21 18.106 35.21 18.196V31.3913C35.21 31.4813 35.1373 31.554 35.0473 31.554H11.76C11.67 31.554 11.5973 31.4813 11.5973 31.3913V18.196C11.5973 18.106 11.67 18.0333 11.76 18.0333H35.0473ZM16.1227 16.6993V12.8167H28.692V16.6993H16.1227ZM35.4033 11.4827H7.62V7.64666L35.4193 7.64799L38.4867 9.56399L35.4033 11.4827Z" fill="#5D6174"/>
<path d="M16.7996 24.2819C16.059 23.9953 15.833 23.7879 15.833 23.3959C15.833 23.0993 16.0556 22.7539 16.683 22.7539C17.1063 22.7539 17.431 22.8819 17.6283 22.9899L17.8023 23.0846L18.1023 22.1973L17.9823 22.1293C17.7936 22.0226 17.377 21.8433 16.707 21.8433C15.5803 21.8433 14.7943 22.5146 14.7943 23.4759C14.7943 24.2446 15.297 24.7959 16.327 25.1613C17.0883 25.4539 17.237 25.7193 17.237 26.0793C17.237 26.5446 16.8683 26.8333 16.275 26.8333C15.8803 26.8333 15.4463 26.7106 15.113 26.5059L14.929 26.3926L14.6543 27.3026L14.757 27.3712C15.085 27.5906 15.6896 27.7439 16.227 27.7439C17.6476 27.7439 18.2836 26.8799 18.2836 26.0233C18.2836 25.2039 17.8396 24.6833 16.7996 24.2819Z" fill="#5D6174"/>
<path d="M20.7755 21.9321L18.8281 27.6641H19.9021L20.4628 25.9661H22.1368L22.7135 27.6641H23.8115L21.8555 21.9321H20.7755ZM21.8795 25.0881H20.7195L21.1741 23.7427C21.2155 23.6134 21.2555 23.4794 21.2955 23.3361C21.3341 23.4707 21.3768 23.6094 21.4255 23.7541L21.8795 25.0881Z" fill="#5D6174"/>
<path d="M25.6355 21.9321H24.6055V27.6641H27.9421V26.7461H25.6355V21.9321Z" fill="#5D6174"/>
<path d="M29.8132 26.7461V25.1327H31.9112V24.2227H29.8132V22.8501H32.0319V21.9321H28.7832V27.6641H32.1519V26.7461H29.8132Z" fill="#5D6174"/>
</g>
<defs>
<clipPath id="clip0">
<rect width="40" height="40" fill="white"/>
</clipPath>
</defs>
</svg>
