<svg width="58" height="58" viewBox="0 0 58 58" fill="none" xmlns="http://www.w3.org/2000/svg">
<path d="M15.3789 28.5456C15.13 25.0438 12.5329 22.1891 9.0223 22.1891C5.51172 22.1891 2.91463 25.0438 2.66575 28.5456C2.51747 30.6334 2.66575 33.9941 1.75769 35.8102C1.75769 35.8102 2.66575 37.6264 6.01469 38.5369L12.0483 38.5344C15.3789 37.6264 16.2869 35.8102 16.2869 35.8102C15.3789 33.9941 15.5271 30.6334 15.3789 28.5456Z" fill="white"/>
<path d="M8.11424 28.5457C4.61476 26.796 5.335 23.3678 7.82821 22.3068C4.93591 22.8711 2.88541 25.4546 2.66575 28.5457C2.51747 30.6335 2.66575 33.9942 1.75769 35.8104C1.75769 35.8104 2.66575 37.6265 6.01469 38.537L8.88274 38.5359L8.11424 28.5457Z" fill="#E6F1FE"/>
<path d="M15.689 40.7203L12.7504 39.2511C12.135 38.9434 11.7464 38.3145 11.7464 37.6265L11.7465 34.9021H6.2981V37.6265C6.2981 38.3144 5.90943 38.9432 5.2942 39.2509L2.35546 40.7202C1.43255 41.1817 0.849609 42.1249 0.849609 43.1568V49.4313H17.195V43.1569C17.195 42.1251 16.612 41.1818 15.689 40.7203Z" fill="white"/>
<path d="M17.195 43.1571C17.195 42.1252 16.6119 41.1819 15.689 40.7204L12.7504 39.2512C12.5813 39.1667 12.434 39.0539 12.3026 38.9264L11.2604 40.0864C10.0295 41.4564 8.01522 41.4563 6.78431 40.0864L5.74201 38.9263C5.61049 39.0538 5.46322 39.1665 5.29432 39.251L2.35547 40.7204C1.43268 41.1818 0.849731 42.1251 0.849731 43.1569V49.4315H17.1951L17.195 43.1571Z" fill="#E6F1FE"/>
<path d="M9.02224 36.7184C6.94115 36.7184 5.1325 35.5516 4.21492 33.8365C3.5912 32.6706 3.99788 31.208 5.07892 30.4467C5.28634 30.3005 5.50067 30.1339 5.71148 29.9457C6.36081 29.3663 6.7411 28.7553 6.95542 28.3075C7.13905 27.9239 7.56216 27.7073 7.97428 27.8123C11.1805 28.6293 13.3609 30.2992 14.1466 30.9756C14.3554 31.1554 14.4756 31.42 14.4544 31.6947C14.2377 34.5053 11.8885 36.7184 9.02224 36.7184Z" fill="white"/>
<path d="M14.1457 30.9747C13.3594 30.2978 11.1807 28.6301 7.97788 27.8131C7.56372 27.7074 7.1388 27.9254 6.95404 28.3108C6.79148 28.6496 6.52289 29.0814 6.12426 29.5221C6.12414 29.5231 6.12392 29.5241 6.1238 29.5251C6.0001 29.6654 5.86835 29.8058 5.71169 29.9457C5.50948 30.1261 5.30603 30.2893 5.10484 30.4284C3.82329 31.315 3.63082 32.9411 4.4162 34.1763C5.24248 35.4758 6.60729 36.3989 8.19628 36.6419C7.10912 35.9023 6.29814 34.8995 6.29814 33.0862V32.3846C6.50443 32.2323 6.71207 32.0804 6.92085 31.8942C7.42552 31.4438 7.86618 30.9229 8.21951 30.362C10.6655 31.1253 12.3237 32.3966 12.9523 32.9372C13.1244 33.088 13.3656 33.3012 13.8653 33.77C14.1858 33.2643 14.4095 32.2798 14.4545 31.6936C14.4757 31.4191 14.3541 31.1541 14.1457 30.9747Z" fill="white"/>
<path d="M1.40321 41.52C1.0534 41.9841 0.849609 42.5538 0.849609 43.1569V49.4314H4.48197V44.8558C4.48197 44.3041 4.23117 43.7822 3.80036 43.4376L1.40321 41.52Z" fill="white"/>
<path d="M16.6415 41.52C16.9913 41.9841 17.1951 42.5538 17.1951 43.1569V49.4314H13.5627V44.8558C13.5627 44.3041 13.8135 43.7822 14.2444 43.4376L16.6415 41.52Z" fill="white"/>
<path d="M41.7131 25.8215V26.4588C41.7131 27.2397 41.839 28.0153 42.0859 28.756L43.5293 33.0861H46.2534V23.0973H44.4373C42.9328 23.0972 41.7131 24.3169 41.7131 25.8215Z" fill="#E6F1FE"/>
<path d="M54.2165 27.4633L52.6099 33.0861L45.3453 26.7295C44.3423 26.7295 43.5292 25.9164 43.5292 24.9134C43.5292 23.4088 44.7489 22.1892 46.2534 22.1892H54.426V25.9665C54.4262 26.4726 54.3556 26.9765 54.2165 27.4633Z" fill="white"/>
<path d="M50.7942 35.8102H45.3453V41.259H50.7942V35.8102Z" fill="white"/>
<path d="M55.1745 39.2648L50.7936 38.0132L48.0696 41.2587L45.3454 38.0132L40.9647 39.2648C39.7952 39.599 38.9889 40.6679 38.9889 41.8842V49.4314H57.1504V41.8843C57.1504 40.6679 56.344 39.599 55.1745 39.2648Z" fill="#E6F1FE"/>
<path d="M48.0697 36.7184C45.0606 36.7184 42.6212 34.279 42.6212 31.2699C42.6212 30.107 43.0832 28.9918 43.9054 28.1695L44.7997 27.2751C45.1484 26.9264 45.6252 26.7259 46.118 26.7414C49.0208 26.833 51.5903 27.4549 52.9948 28.8266C53.3386 29.1624 53.5181 29.6322 53.5181 30.1127V31.2697C53.5182 34.279 51.0788 36.7184 48.0697 36.7184Z" fill="white"/>
<path d="M45.3454 31.2699C45.3454 30.2223 46.2251 29.3897 47.2705 29.4563C49.1037 29.5732 51.824 29.8797 53.4928 30.6825C53.4383 30.2994 53.2737 29.0992 52.9947 28.8266C51.5903 27.4549 49.0208 26.833 46.118 26.7414H46.1179C45.6251 26.7259 45.1483 26.9265 44.7996 27.2751L43.9052 28.1695C43.0829 28.9918 42.6211 30.1069 42.6211 31.2699C42.6211 33.7546 44.286 35.8467 46.5599 36.5018C45.803 35.5679 45.3453 34.3826 45.3453 33.086V31.2699H45.3454Z" fill="white"/>
<path d="M53.5179 44.5901C53.5179 43.8676 53.805 43.1746 54.3159 42.6637L56.6535 40.3262C56.9659 40.7727 57.1503 41.3104 57.1503 41.8842V49.4314H53.5179V44.5901Z" fill="white"/>
<path d="M42.0463 39.4812L34.4485 36.7184L29 38.5345L23.5515 36.7184L15.9538 39.4812C14.5183 40.0032 13.5627 41.3674 13.5627 42.8948V49.4314H44.4373V42.8948C44.4373 41.3674 43.4818 40.0032 42.0463 39.4812Z" fill="#E6F1FE"/>
<path d="M43.4599 40.4202C44.0731 41.0783 44.4373 41.9548 44.4373 42.895V49.4317H38.9888V46.3959C38.9888 45.4325 39.3714 44.5086 40.0526 43.8274L43.4599 40.4202Z" fill="white"/>
<path d="M38.9888 17.9913V10.3841C38.9888 9.38113 38.1757 8.56799 37.1727 8.56799H26.2757C22.2636 8.56799 19.0111 11.8205 19.0111 15.8326V17.9913C19.0111 18.9673 19.1685 19.9369 19.4771 20.8629L19.7794 21.7697C19.8719 22.0474 19.9192 22.3383 19.9192 22.6312V23.0972H38.0808V22.6312C38.0808 22.3383 38.128 22.0474 38.2206 21.7697L38.5228 20.8629C38.8315 19.937 38.9888 18.9673 38.9888 17.9913Z" fill="#E6F1FE"/>
<path d="M23.5515 12.2571C23.5515 14.2945 25.2032 15.9462 27.2406 15.9462H27.7514L27.998 23.0973H38.0808V22.6313C38.0808 22.3385 38.1281 22.0477 38.2206 21.7698L38.5229 20.863C38.8316 19.937 38.9889 18.9674 38.9889 17.9914V10.3841C38.9889 9.38101 38.1758 8.56799 37.1728 8.56799H27.2407C25.2032 8.56799 23.5515 10.2196 23.5515 12.2571Z" fill="white"/>
<path d="M34.4477 30.3613H23.5511V38.5334H34.4477V30.3613Z" fill="white"/>
<path d="M23.5515 34.4717C25.1825 35.3225 27.0331 35.8104 29 35.8104C30.9669 35.8104 32.8175 35.3225 34.4485 34.4717V30.3619H23.5515V34.4717Z" fill="#E6F1FE"/>
<path d="M29.0001 38.5345L26.1039 41.4306C25.7147 41.8199 25.0713 41.776 24.7384 41.3375L21.7355 37.3807L22.521 35.7254C22.7527 35.237 23.3573 35.058 23.8177 35.3416L29.0001 38.5345Z" fill="white"/>
<path d="M29 38.5345L31.8961 41.4306C32.2854 41.8199 32.9288 41.776 33.2616 41.3375L36.2646 37.3807L35.4791 35.7254C35.2473 35.237 34.6428 35.058 34.1824 35.3416L29 38.5345Z" fill="white"/>
<path d="M29 33.0862C23.9849 33.0862 19.9193 29.0206 19.9193 24.0054V23.0974L21.4305 22.09C22.1883 21.5847 22.6436 20.7341 22.6436 19.8232V16.7408C22.6436 16.7408 29.9083 14.0165 35.3567 18.5571C35.3567 18.5571 35.3567 19.1754 35.3567 19.8228C35.3567 20.7337 35.8119 21.5846 36.5698 22.09L38.0809 23.0974V24.0054C38.0808 29.0205 34.0152 33.0862 29 33.0862Z" fill="white"/>
<path d="M14.5401 40.4202C13.9269 41.0783 13.5627 41.9548 13.5627 42.895V49.4317H19.0112V46.3959C19.0112 45.4325 18.6286 44.5086 17.9474 43.8274L14.5401 40.4202Z" fill="white"/>
<path d="M26.9651 18.9234C28.9397 18.6758 32.3961 18.5336 35.3566 19.8226C35.3566 19.4585 35.3566 18.5569 35.3566 18.5569C29.9081 14.0164 22.6435 16.7407 22.6435 16.7407V19.8231C22.6435 20.734 22.1883 21.5845 21.4304 22.0898L19.9193 23.0973V24.0053C19.9193 28.6483 23.406 32.4706 27.9027 33.0134H27.9029C26.3359 31.3817 25.3678 29.1705 25.3678 26.7296V20.7273C25.3677 19.807 26.052 19.0379 26.9651 18.9234Z" fill="white"/>
<path d="M50.4115 28.397C50.5335 28.4581 50.6631 28.4869 50.7908 28.4869C51.1024 28.4869 51.4025 28.3147 51.5514 28.0171C51.7613 27.5974 51.5911 27.0871 51.1714 26.8771C49.1978 25.8905 45.4975 25.879 45.3409 25.879C44.8717 25.879 44.4913 26.2594 44.4913 26.7286C44.4913 27.1978 44.8717 27.5782 45.3409 27.5782C46.2958 27.5784 49.0681 27.7254 50.4115 28.397Z" fill="#1AACFF"/>
<path d="M55.4072 38.9734L51.8983 37.9708C51.7469 37.9276 51.6411 37.7873 51.6411 37.6297V36.4585C51.9265 36.2607 52.1989 36.0394 52.4534 35.7923C53.687 34.5952 54.3664 32.9894 54.3664 31.2707V29.6545L54.7057 28.9761C55.078 28.2312 55.2748 27.3974 55.2748 26.5648V22.1864C55.2748 21.7172 54.8944 21.3368 54.4252 21.3368H46.2493C43.2764 21.3368 40.8576 23.7556 40.8576 26.7286V26.7792C40.8576 27.4716 41.0213 28.165 41.3309 28.7842L41.766 29.6544V31.0421C41.766 33.2413 42.8498 35.2146 44.4913 36.402L44.4915 37.6295C44.4915 37.8188 44.4916 37.8972 43.79 38.0977L42.0779 38.5868L37.1251 36.7859C37.1429 36.5522 37.064 36.3145 36.8936 36.1354L35.3109 34.4727V31.6814C35.4782 31.5436 35.6432 31.402 35.803 31.2522C37.7996 29.3808 38.9446 26.7387 38.9446 24.0032V21.7741C39.5475 20.4622 39.853 19.0739 39.853 17.6442V8.56018C39.853 8.09097 39.4726 7.71057 39.0034 7.71057H26.2854C21.8097 7.71057 18.1685 11.3519 18.1685 15.8275V17.6444C18.1685 19.0742 18.474 20.4624 19.0769 21.7743V23.6923C19.0769 26.8682 20.4891 29.7295 22.7106 31.6159V34.4728L21.128 36.1356C20.9575 36.3147 20.8786 36.5523 20.8964 36.786L15.6691 38.6868C15.2903 38.8245 14.9383 39.0111 14.6187 39.2371L13.7979 38.8267C16.2414 37.7631 17.0154 36.2672 17.0526 36.1929C17.1722 35.9537 17.1722 35.6721 17.0526 35.433C16.4401 34.208 16.3659 31.9626 16.3063 30.1585C16.2864 29.5579 16.2676 28.9905 16.2317 28.4852C15.9421 24.41 12.8441 21.3368 9.02534 21.3368C5.20663 21.3368 2.1085 24.4099 1.81896 28.4852C1.78305 28.9906 1.76424 29.558 1.74442 30.1587C1.68483 31.9627 1.61052 34.2078 0.998121 35.4329C0.878496 35.672 0.878496 35.9536 0.998121 36.1928C1.03528 36.2671 1.80774 37.7599 4.25609 38.8247L1.97608 39.9647C0.757172 40.5745 0 41.7996 0 43.1624V49.4392C0 49.9084 0.380398 50.2888 0.849609 50.2888C1.31882 50.2888 1.69922 49.9084 1.69922 49.4392V43.1624C1.69922 42.4474 2.0965 41.8045 2.73597 41.4847L5.57514 40.0652L6.56272 41.0037C7.25329 41.6599 8.13914 41.9879 9.02534 41.9879C9.91132 41.9879 10.7976 41.6597 11.488 41.0037L12.4754 40.0653L13.4012 40.5281C12.9653 41.2256 12.7179 42.0435 12.7179 42.9003V49.4394C12.7179 49.9086 13.0983 50.289 13.5675 50.289C14.0367 50.289 14.4171 49.9086 14.4171 49.4394V42.9003C14.4171 41.7339 15.1535 40.6824 16.2497 40.2838L21.7611 38.2797L24.0554 41.7213C24.3487 42.1613 24.8187 42.4435 25.3449 42.4956C25.4035 42.5014 25.4619 42.5042 25.5201 42.5042C25.9843 42.5042 26.429 42.3215 26.7613 41.9893L28.161 40.5896V49.4395C28.161 49.9087 28.5414 50.2891 29.0106 50.2891C29.4799 50.2891 29.8603 49.9087 29.8603 49.4395V40.5896L31.26 41.9893C31.5922 42.3216 32.0368 42.5043 32.5012 42.5043C32.5593 42.5043 32.6178 42.5015 32.6763 42.4957C33.2026 42.4436 33.6726 42.1614 33.9659 41.7215L36.2603 38.28L41.7716 40.284C42.8677 40.6827 43.6042 41.7341 43.6042 42.9005V49.4396C43.6042 49.9089 43.9846 50.2893 44.4538 50.2893C44.923 50.2893 45.3034 49.9089 45.3034 49.4396V42.9005C45.3034 41.7192 44.8341 40.6113 44.0468 39.7919L44.2567 39.732C44.4684 39.6715 44.7573 39.5887 45.0473 39.4465L47.2165 41.6158V49.4396C47.2165 49.9089 47.5969 50.2893 48.0661 50.2893C48.5354 50.2893 48.9158 49.9089 48.9158 49.4396V41.6158L51.0699 39.4616C51.1844 39.5198 51.3047 39.569 51.4314 39.6051L54.9404 40.6077C55.7413 40.8365 56.3008 41.5782 56.3008 42.4112V49.4396C56.3008 49.9089 56.6812 50.2893 57.1504 50.2893C57.6196 50.2893 58 49.9089 58 49.4396V42.4112C58 40.8231 56.9338 39.4096 55.4072 38.9734ZM12.6002 37.4756L12.6003 36.4623C13.5887 35.7818 14.3745 34.8246 14.8434 33.6926C14.9452 34.4242 15.0955 35.1173 15.3271 35.7224C14.9887 36.1346 14.1878 36.9039 12.6002 37.4756ZM3.51398 28.6058C3.62251 27.0792 4.23253 25.6724 5.23167 24.6445C6.23976 23.6073 7.58713 23.0362 9.02557 23.0362C10.464 23.0362 11.8113 23.6073 12.8195 24.6445C13.8186 25.6724 14.4286 27.0792 14.5372 28.6058C14.5707 29.0789 14.589 29.6306 14.6083 30.2147C14.61 30.2649 14.6117 30.3157 14.6134 30.3663C13.689 28.9421 12.2614 27.8925 10.4169 27.2998C8.7128 26.7524 7.24717 26.7862 7.18532 26.7878C6.96283 26.794 6.75168 26.8872 6.59727 27.0473L5.06435 28.6371C4.73867 28.9749 4.74841 29.5128 5.08621 29.8385C5.42402 30.1642 5.96188 30.1543 6.28756 29.8166L7.56311 28.4938C8.6616 28.5475 12.1956 28.9585 13.5701 31.985C13.2242 34.2154 11.3073 35.8717 9.0258 35.8717C6.48875 35.8717 4.42488 33.8077 4.42488 31.2708C4.42488 30.8016 4.04448 30.4212 3.57527 30.4212C3.52769 30.4212 3.48125 30.4261 3.43582 30.4337C3.43831 30.3606 3.44069 30.2874 3.44318 30.215C3.4621 29.6308 3.48034 29.079 3.51398 28.6058ZM2.72385 35.7222C2.95585 35.1157 3.10629 34.421 3.20812 33.6878C3.67666 34.8112 4.46136 35.7702 5.45053 36.4544V37.4727C3.8613 36.9009 3.06414 36.1385 2.72385 35.7222ZM7.73337 39.772L6.94323 39.0212C7.07657 38.7714 7.14986 38.4882 7.14986 38.1915V37.2859C7.74255 37.4711 8.37262 37.5711 9.02557 37.5711C9.67773 37.5711 10.3075 37.4707 10.9012 37.2865L10.9011 38.1914C10.9011 38.4882 10.9742 38.7715 11.1077 39.0214L10.3177 39.7721C9.593 40.4606 8.4578 40.4605 7.73337 39.772ZM20.7761 23.6922V21.5842C20.7761 21.4563 20.7472 21.33 20.6916 21.2148C20.1449 20.0827 19.8677 18.8815 19.8677 17.6444V15.8275C19.8677 12.2887 22.7468 9.40979 26.2854 9.40979H38.1538V17.6444C38.1538 18.8815 37.8766 20.0827 37.3299 21.2148C37.2743 21.33 37.2454 21.4563 37.2454 21.5842V24.0034C37.2454 26.3042 36.3205 28.4383 34.641 30.0126C34.4313 30.209 34.2137 30.3932 33.9887 30.5648C33.9837 30.5682 33.9789 30.572 33.9741 30.5755C32.4007 31.77 30.4736 32.3506 28.461 32.2202C24.1517 31.9412 20.7761 28.1952 20.7761 23.6922ZM28.351 33.9158C28.575 33.9303 28.7976 33.9374 29.0195 33.9374C30.6441 33.9374 32.2076 33.5491 33.6117 32.812V34.364L29.0108 37.5089L24.4098 34.364V32.778C25.6003 33.4216 26.9333 33.8241 28.351 33.9158ZM25.5599 40.7876C25.554 40.7935 25.5403 40.8074 25.5125 40.8044C25.4849 40.8017 25.474 40.7855 25.4694 40.7785L22.8271 36.815L23.6774 35.9216L27.6858 38.6615L25.5599 40.7876ZM32.5522 40.7786C32.5475 40.7856 32.5366 40.8018 32.509 40.8046C32.4812 40.8081 32.4677 40.7935 32.4617 40.7877L30.3357 38.6617L34.3442 35.9217L35.1946 36.8151L32.5522 40.7786ZM43.4652 31.0423V29.454C43.4652 29.322 43.4345 29.192 43.3755 29.0741L42.8507 28.0244C42.6584 27.6398 42.5568 27.2093 42.5568 26.7793V26.7287C42.5568 24.6926 44.2133 23.0362 46.2493 23.0362H53.5756V26.5649C53.5756 27.1351 53.4408 27.7062 53.1858 28.2163L52.7569 29.0741C52.6979 29.1921 52.6672 29.322 52.6672 29.454V31.2708C52.6672 32.526 52.171 33.6987 51.2701 34.573C50.3696 35.4468 49.18 35.9083 47.9241 35.8696C45.4654 35.7958 43.4652 33.6302 43.4652 31.0423ZM47.873 37.568C47.9385 37.57 48.0034 37.5709 48.0686 37.5709C48.7134 37.5709 49.3428 37.4735 49.9419 37.2876V37.6297C49.9419 37.7992 49.9631 37.9653 50.0032 38.1249L48.0661 40.0619L46.1381 38.134C46.1717 37.9811 46.1908 37.8138 46.1907 37.6293L46.1905 37.2707C46.7256 37.4463 47.2895 37.5506 47.873 37.568Z" fill="#1AACFF"/>
<path d="M53.5167 43.139C53.0475 43.139 52.6671 43.5194 52.6671 43.9886V49.4392C52.6671 49.9084 53.0475 50.2888 53.5167 50.2888C53.9859 50.2888 54.3663 49.9084 54.3663 49.4392V43.9886C54.3663 43.5194 53.9859 43.139 53.5167 43.139Z" fill="#1AACFF"/>
<path d="M4.48328 44.2621C4.01407 44.2621 3.63367 44.6425 3.63367 45.1117V49.4391C3.63367 49.9084 4.01407 50.2888 4.48328 50.2888C4.95249 50.2888 5.33289 49.9084 5.33289 49.4391V45.1117C5.33289 44.6425 4.95249 44.2621 4.48328 44.2621Z" fill="#1AACFF"/>
<path d="M23.5013 17.504C23.5013 17.4751 23.5204 17.4504 23.5458 17.4466C24.6408 17.2815 26.8139 17.0268 29.0654 17.1769C31.7148 17.3533 33.6338 18.0184 34.769 19.1537C35.1008 19.4855 35.6388 19.4855 35.9704 19.1537C36.3023 18.8219 36.3023 18.2839 35.9704 17.9522C32.7571 14.7389 26.034 15.3532 23.2923 15.7665C22.4288 15.8966 21.8021 16.6274 21.8021 17.5041V19.4614C21.8021 19.9306 22.1825 20.311 22.6517 20.311C23.1209 20.311 23.5013 19.9306 23.5013 19.4614V17.504Z" fill="#1AACFF"/>
<path d="M19.0181 44.9559C18.5489 44.9559 18.1685 45.3363 18.1685 45.8055V49.4393C18.1685 49.9085 18.5489 50.2889 19.0181 50.2889C19.4873 50.2889 19.8677 49.9085 19.8677 49.4393V45.8055C19.8677 45.3363 19.4873 44.9559 19.0181 44.9559Z" fill="#1AACFF"/>
<path d="M39.0034 44.9559C38.5342 44.9559 38.1538 45.3363 38.1538 45.8055V49.4393C38.1538 49.9085 38.5342 50.2889 39.0034 50.2889C39.4726 50.2889 39.853 49.9085 39.853 49.4393V45.8055C39.853 45.3363 39.4726 44.9559 39.0034 44.9559Z" fill="#1AACFF"/>
</svg>
