<svg width="40" height="40" viewBox="0 0 40 40" fill="none" xmlns="http://www.w3.org/2000/svg">
<g clip-path="url(#clip0)">
<path fill-rule="evenodd" clip-rule="evenodd" d="M24.8286 8.69284C23.6886 9.06229 21.1914 10.9646 19.7547 12.9643C18.8471 14.2251 18.36 15.5258 18.8981 16.5013C19.5621 17.7091 20.6291 17.6339 21.7846 16.8817L25.0123 14.7803L31.8328 21.4938L34.735 18.5917C34.5801 18.5053 34.4339 18.397 34.3033 18.2642L25.1585 9.1287C25.0256 8.99597 24.9171 8.84987 24.8286 8.69284Z" fill="white"/>
<path fill-rule="evenodd" clip-rule="evenodd" d="M14.838 9.12866L5.69523 18.2643C5.50484 18.4545 5.28352 18.5983 5.04883 18.6957L7.59687 21.2417C8.42258 20.5914 9.63125 20.6466 10.3905 21.4076C11.2096 22.2261 11.2096 23.5644 10.3905 24.385L11.2937 23.4825C12.1128 22.6641 13.4522 22.6641 14.2734 23.4825C15.0926 24.301 15.0926 25.6415 14.2734 26.4599L12.5777 28.1521C13.399 27.3336 14.7383 27.3336 15.5596 28.1521C16.3787 28.9705 16.3787 30.3111 15.5596 31.1295C16.3787 30.3111 17.718 30.3111 18.5392 31.1295C18.9289 31.5188 19.1326 32.0276 19.1524 32.5408L19.9804 33.5008C20.7397 34.3767 22.141 34.3192 22.9623 33.5008C23.7814 32.6823 23.7814 31.3418 22.9623 30.5233L23.8567 31.417C24.6757 32.2377 26.0173 32.2377 26.8363 31.417C27.6575 30.5986 27.6555 29.2581 26.8363 28.4396L27.7109 29.3134C28.6493 30.2513 29.9157 30.3111 30.6905 29.3134C31.4011 28.3976 31.5096 27.1545 30.6905 26.336L29.4573 25.1039C30.2765 25.9223 31.618 25.9223 32.437 25.1039C33.2561 24.2854 33.3291 22.967 32.5034 22.1552L31.8327 21.4938L25.0121 14.7803L21.7845 16.8817C20.6288 17.6339 19.5619 17.7091 18.8979 16.5012C18.3598 15.5258 18.8469 14.2251 19.7545 12.9643L15.2695 8.48273C15.1723 8.71718 15.0283 8.93835 14.838 9.12866Z" fill="white"/>
<path fill-rule="evenodd" clip-rule="evenodd" d="M7.41108 21.4076L6.35733 22.4605C5.53827 23.2791 5.53601 24.6195 6.35733 25.438C7.1764 26.2563 8.51569 26.2563 9.33702 25.438L10.3908 24.385C11.2098 23.5644 11.2098 22.226 10.3908 21.4076C9.63148 20.6466 8.42272 20.5913 7.5971 21.2417C7.5328 21.2926 7.47085 21.3479 7.41108 21.4076Z" fill="white"/>
<path fill-rule="evenodd" clip-rule="evenodd" d="M10.3909 24.3854L9.33719 25.4384L8.4893 26.2834C7.67023 27.1017 7.67023 28.4423 8.4893 29.263C9.30836 30.0813 10.6499 30.0813 11.469 29.263L11.4977 29.2341L12.578 28.1525L14.2738 26.4603C15.093 25.6419 15.093 24.3014 14.2738 23.4829C13.4525 22.6645 12.1132 22.6645 11.2941 23.4829L10.3909 24.3854Z" fill="white"/>
<path fill-rule="evenodd" clip-rule="evenodd" d="M12.5782 28.1526L11.4979 29.2342C10.6789 30.0527 10.6767 31.3931 11.4979 32.2116C12.3171 33.0302 13.6586 33.0302 14.4776 32.2116L14.5042 32.1851L15.5601 31.1299C16.3793 30.3115 16.3793 28.971 15.5601 28.1525C14.7389 27.3341 13.3996 27.3341 12.5782 28.1526Z" fill="white"/>
<path fill-rule="evenodd" clip-rule="evenodd" d="M15.5589 31.1295L14.503 32.1846C13.6839 33.0031 13.6839 34.3413 14.503 35.162C15.322 35.9804 16.6636 35.9804 17.4827 35.162L18.5386 34.1068C18.9681 33.6777 19.1718 33.107 19.1518 32.5407C19.132 32.0275 18.9283 31.5187 18.5386 31.1295C17.7173 30.311 16.3781 30.311 15.5589 31.1295Z" fill="white"/>
<path fill-rule="evenodd" clip-rule="evenodd" d="M10.5127 4.80658L1.36988 13.9423C0.592852 14.7165 0.592852 15.984 1.36988 16.7604L2.87527 18.2645C3.46191 18.8485 4.32746 18.9924 5.04918 18.696C5.28387 18.5986 5.5052 18.4549 5.69559 18.2645L14.8383 9.12892C15.0286 8.93869 15.1726 8.71752 15.27 8.48298C15.5667 7.76181 15.4228 6.89697 14.8383 6.31072L13.333 4.80658C12.556 4.03017 11.2875 4.03017 10.5127 4.80658Z" fill="#D4FFF0"/>
<path fill-rule="evenodd" clip-rule="evenodd" d="M25.1594 6.31072C24.5175 6.95447 24.4068 7.93439 24.8296 8.69314C24.9181 8.85017 25.0266 8.99619 25.1594 9.12892L34.3044 18.2645C34.4349 18.3974 34.5812 18.5056 34.7361 18.592C35.4954 19.0167 36.4783 18.9082 37.1225 18.2645L38.63 16.7604C39.0151 16.3755 39.21 15.8667 39.2123 15.3602V15.3424C39.2101 14.8337 39.0151 14.3271 38.63 13.9422L29.4851 4.80658C28.7102 4.03017 27.4418 4.03017 26.6669 4.80658L25.1594 6.31072Z" fill="#D4FFF0"/>
<path d="M39.187 13.3849L37.093 11.2922C36.7852 10.9846 36.2863 10.9848 35.9788 11.2926C35.6712 11.6004 35.6713 12.0992 35.9791 12.4068L38.0733 14.4995C38.5427 14.9685 38.5423 15.7329 38.0737 16.2025L36.5656 17.7071C36.0959 18.1766 35.3313 18.1768 34.8613 17.7071L25.7164 8.57151C25.6558 8.51097 25.6031 8.44456 25.5576 8.37401C25.5379 8.32894 25.514 8.28675 25.4871 8.24722C25.4088 8.08534 25.3662 7.90636 25.3662 7.71979C25.3662 7.39612 25.4905 7.09362 25.7159 6.86847L27.2247 5.36315C27.4505 5.13683 27.7528 5.01214 28.076 5.01214C28.3991 5.01214 28.7016 5.13683 28.9286 5.36425L31.0184 7.45011C31.3263 7.75753 31.8252 7.75698 32.1326 7.44909C32.44 7.14112 32.4395 6.64222 32.1316 6.33487L30.0429 4.25003C29.5191 3.72526 28.8206 3.43636 28.0759 3.43644C27.3313 3.43644 26.633 3.72542 26.1106 4.24886L24.6027 5.75339C24.079 6.27675 23.7905 6.97503 23.7905 7.71979C23.7905 7.90948 23.8095 8.09605 23.846 8.27761C22.6597 8.92136 20.9623 10.2567 19.6827 11.7778L16.157 8.2548C16.1906 8.0805 16.208 7.90159 16.208 7.71987C16.208 6.97511 15.9197 6.27675 15.396 5.75347L13.8906 4.24917C13.366 3.72495 12.6672 3.43628 11.9227 3.43628C11.1779 3.43628 10.4793 3.72519 9.95648 4.24917L7.86453 6.33956C7.5568 6.64714 7.55656 7.14597 7.86414 7.45378C8.17164 7.76151 8.67047 7.76167 8.97836 7.45417L11.0711 5.363C11.297 5.13667 11.5995 5.01198 11.9228 5.01198C12.2466 5.01198 12.5498 5.1369 12.7769 5.36378L14.2822 6.86784C14.508 7.09347 14.6323 7.39597 14.6323 7.71964C14.6323 8.04331 14.5079 8.34581 14.2822 8.57143L5.13938 17.7071C4.66898 18.1773 3.90344 18.1773 3.43289 17.7071L1.92758 16.2029C1.70047 15.976 1.57555 15.6729 1.57578 15.3494C1.57602 15.0271 1.70063 14.7254 1.92758 14.4994L4.01961 12.409C4.32734 12.1014 4.32758 11.6026 4.02 11.2948C3.71242 10.9871 3.21359 10.9867 2.90578 11.2944L0.81461 13.3839C0.289845 13.9069 0.00054765 14.6045 7.7476e-07 15.3484C-0.0005461 16.0934 0.288438 16.7928 0.813751 17.3177L2.31906 18.8217C2.86141 19.3638 3.57367 19.6348 4.28609 19.6347C4.46586 19.6347 4.6457 19.6173 4.82274 19.5828L6.4732 21.2319L5.80125 21.9034C5.25508 22.4492 4.95461 23.1769 4.95516 23.9525C4.9557 24.7267 5.25649 25.4524 5.80133 25.9954C6.20602 26.3998 6.71102 26.6689 7.26125 26.7808C6.88977 27.8046 7.1132 28.9985 7.93313 29.8201C8.47805 30.3646 9.20492 30.6644 9.97984 30.6644C10.0191 30.6644 10.058 30.6631 10.097 30.6616C10.0965 30.683 10.0954 30.7043 10.0955 30.7258C10.096 31.5 10.3967 32.2257 10.9416 32.7687C11.4865 33.3132 12.2134 33.6131 12.9883 33.6131C13.0269 33.6131 13.0652 33.6117 13.1035 33.6103C13.0873 34.3717 13.3681 35.1387 13.9478 35.7196C14.4927 36.264 15.2196 36.5639 15.9945 36.5639C16.7695 36.5639 17.4963 36.264 18.0413 35.7195L19.0972 34.6643C19.2554 34.5063 19.3923 34.3325 19.5079 34.1471C19.9803 34.6228 20.6152 34.8969 21.3157 34.9225C21.3515 34.9238 21.3873 34.9244 21.423 34.9244C22.2053 34.9244 22.9643 34.6124 23.5203 34.0582C23.918 33.6608 24.1855 33.1664 24.3009 32.6272C24.6299 32.7542 24.9834 32.8205 25.3475 32.8205H25.3477C26.123 32.8205 26.8502 32.5198 27.3937 31.9752C27.783 31.5871 28.0477 31.1064 28.1675 30.5815C28.5785 30.7661 29.0116 30.8498 29.4449 30.8225C30.1719 30.7769 30.8356 30.4126 31.3141 29.7965C32.1473 28.7226 32.2798 27.4193 31.7198 26.4034C32.1872 26.275 32.6286 26.0277 32.9952 25.6614C33.5589 25.0981 33.8804 24.3278 33.8773 23.548C33.8742 22.8047 33.583 22.1107 33.0573 21.594L32.952 21.4903L34.922 19.5202C35.1799 19.5963 35.4467 19.6343 35.7136 19.6343C36.4254 19.6343 37.1372 19.3636 37.6789 18.8223L39.1877 17.317C40.2711 16.2315 40.2707 14.4675 39.187 13.3849ZM7.84727 25.2641C7.49352 25.2641 7.1625 25.128 6.91438 24.8801C6.66734 24.6339 6.53117 24.3042 6.53094 23.9515C6.5307 23.5974 6.66719 23.2659 6.91516 23.0181L7.96961 21.9643C8.21688 21.7166 8.54789 21.5802 8.9018 21.5802C9.25563 21.5802 9.58672 21.7166 9.83469 21.9651C10.3457 22.4757 10.3472 23.3064 9.84109 23.8208L8.765 24.8953C8.51844 25.1328 8.19375 25.2641 7.84727 25.2641ZM10.9416 28.6767C10.9416 28.6768 10.9414 28.6769 10.9413 28.6771L10.913 28.7054C10.6656 28.9525 10.3343 29.0887 9.98 29.0887C9.6257 29.0887 9.29438 28.9526 9.04781 28.7063C8.53352 28.191 8.53313 27.354 9.0468 26.8408L9.86359 26.0253C9.87391 26.0153 9.88469 26.0057 9.89484 25.9956L10.9493 24.9419C10.9534 24.9377 10.9573 24.9333 10.9615 24.9291L11.8518 24.0402C12.0991 23.793 12.4302 23.6569 12.7839 23.6569C13.138 23.6569 13.4699 23.7933 13.7177 24.0402C13.9649 24.2872 14.101 24.618 14.101 24.9716C14.101 25.3252 13.9649 25.656 13.7177 25.9029L12.0656 27.5537C12.0509 27.5678 12.0359 27.5813 12.0214 27.5957L10.9416 28.6767ZM13.9213 31.654C13.674 31.9012 13.3427 32.0374 12.9884 32.0374C12.6341 32.0374 12.3029 31.9012 12.0548 31.6533C11.8078 31.4071 11.6716 31.0774 11.6713 30.7247C11.6711 30.371 11.8072 30.04 12.0551 29.7918L13.1588 28.6889C13.4045 28.4555 13.7263 28.3264 14.0698 28.3264C14.4241 28.3264 14.7562 28.4628 15.004 28.7097C15.2512 28.9567 15.3873 29.2875 15.3873 29.6411C15.3873 29.9946 15.2513 30.3253 15.0042 30.5722C15.0041 30.5723 15.0041 30.5724 15.0039 30.5725L14.3166 31.2593L13.9213 31.654ZM17.9835 33.5497L16.9277 34.6049C16.6802 34.8521 16.3489 34.9882 15.9946 34.9882C15.6403 34.9882 15.3091 34.8521 15.0625 34.6057C14.5488 34.091 14.5484 33.2549 15.0617 32.7421L16.1177 31.687C16.3651 31.4398 16.6962 31.3037 17.0498 31.3037C17.404 31.3037 17.7359 31.44 17.9836 31.6871C18.2308 31.934 18.3669 32.2648 18.3669 32.6184C18.3669 32.9719 18.2307 33.3027 17.9835 33.5497ZM31.8813 24.5468C31.3677 25.06 30.5321 25.0608 30.0176 24.5488L30.0157 24.5469C30.0156 24.5468 30.0156 24.5468 30.0155 24.5467L28.3552 22.8877C28.0473 22.5801 27.5484 22.5803 27.2409 22.8881C26.9334 23.1959 26.9335 23.6947 27.2413 24.0023L28.9017 25.6614L30.1348 26.8935C30.6942 27.4524 30.505 28.2692 30.0695 28.8303C29.8667 29.0914 29.6234 29.2325 29.3462 29.25C28.9973 29.272 28.6048 29.0919 28.269 28.7563L27.3945 27.8825L25.3755 25.8651C25.0677 25.5575 24.5689 25.5578 24.2612 25.8656C23.9538 26.1734 23.9539 26.6722 24.2617 26.9798L26.2807 28.9971C26.5287 29.2449 26.6651 29.5763 26.6648 29.9304C26.6646 30.2832 26.5284 30.613 26.2799 30.8607C26.0327 31.1084 25.7015 31.2449 25.3477 31.2449C24.9938 31.2449 24.6628 31.1085 24.4148 30.8599L23.5209 29.9667C23.5207 29.9665 23.5206 29.9664 23.5205 29.9662L22.3694 28.816C22.0616 28.5083 21.5627 28.5086 21.2551 28.8164C20.9476 29.1242 20.9477 29.6231 21.2555 29.9307L22.4066 31.0809C22.6539 31.3279 22.7901 31.6587 22.7901 32.0123C22.7901 32.3659 22.6539 32.6967 22.4074 32.943C22.1391 33.2103 21.7543 33.3612 21.3733 33.3479C21.0525 33.3362 20.7697 33.2073 20.5783 32.9865L19.9149 32.2173C19.8297 31.5953 19.547 31.0217 19.0966 30.5717C18.5508 30.0277 17.8238 29.728 17.0498 29.728C17.0201 29.728 16.9905 29.7292 16.9609 29.7302C16.9617 29.7005 16.963 29.6709 16.963 29.641C16.963 28.8663 16.6628 28.1396 16.117 27.5942C15.7859 27.2643 15.3879 27.025 14.9534 26.8871C15.4209 26.3594 15.6769 25.686 15.6769 24.9714C15.6769 24.1967 15.3766 23.47 14.8308 22.9246C14.2848 22.3806 13.558 22.081 12.7839 22.081C12.4162 22.081 12.0595 22.1493 11.7277 22.2786C11.6143 21.7549 11.3553 21.2569 10.9493 20.8511C10.4043 20.3051 9.67711 20.0044 8.9018 20.0044C8.48828 20.0044 8.08891 20.0907 7.7232 20.2532L6.27188 18.803L15.3781 9.70401L18.7411 13.0644C18.522 13.4192 18.3362 13.7761 18.1954 14.1296C17.7771 15.1799 17.7817 16.1057 18.2088 16.8811C18.5854 17.5661 19.0984 17.9942 19.7338 18.1534C20.4731 18.3389 21.3079 18.133 22.2156 17.5422L24.9123 15.7866L31.9524 22.7173C32.2394 22.9994 32.3006 23.3282 32.3016 23.5544C32.303 23.9168 32.1499 24.2785 31.8813 24.5468ZM25.5661 14.2191C25.3023 13.9595 24.8937 13.9183 24.5835 14.1203L21.3559 16.2215C20.8452 16.5539 20.4053 16.6971 20.1168 16.6248C20.0448 16.6067 19.826 16.5519 19.5892 16.1213C19.4002 15.7779 19.4237 15.304 19.6592 14.7125C19.8206 14.3072 20.0663 13.8842 20.367 13.4614C20.3846 13.4399 20.4007 13.4175 20.4157 13.3946C21.5548 11.8237 23.4341 10.2713 24.5794 9.66159C24.5873 9.66964 24.5947 9.67808 24.6027 9.68605L33.5697 18.6439L31.8291 20.3846L25.5661 14.2191Z" fill="#1ACA8E"/>
<path d="M5.9403 10.1626C6.1403 10.1626 6.34045 10.0871 6.49413 9.9361C6.80444 9.63111 6.80882 9.13228 6.50381 8.82189C6.19881 8.5115 5.69998 8.5072 5.38959 8.8122L5.3874 8.81439C5.07709 9.11939 5.07381 9.61712 5.37881 9.92751C5.5328 10.0842 5.73647 10.1626 5.9403 10.1626Z" fill="#1ACA8E"/>
<path d="M33.5073 9.93582C33.6605 10.0864 33.8592 10.1614 34.058 10.1614C34.2619 10.1614 34.4658 10.0825 34.6204 9.92535C34.9254 9.61512 34.9201 9.11512 34.6098 8.81004C34.2995 8.50488 33.8007 8.50918 33.4956 8.81941C33.1905 9.12965 33.1948 9.62848 33.505 9.93364L33.5073 9.93582Z" fill="#1ACA8E"/>
</g>
<defs>
<clipPath id="clip0">
<rect width="40" height="40" fill="white"/>
</clipPath>
</defs>
</svg>
