<svg width="125" height="125" viewBox="0 0 125 125" fill="none" xmlns="http://www.w3.org/2000/svg">
<path d="M62.5 0C34.2302 0 11.2305 22.9998 11.2305 51.2695C11.2305 74.0623 26.2499 94.0456 47.9593 100.447L59.2241 122.975C59.845 124.216 61.1124 125 62.5 125C63.8866 125 65.155 124.216 65.7749 122.975L77.0397 100.447C98.7501 94.0466 113.77 74.0623 113.77 51.2695C113.77 22.9998 90.7698 0 62.5 0V0ZM73.5731 93.8082C72.5489 94.0733 71.6906 94.7685 71.2175 95.7146L62.5 113.15L53.7825 95.7146C53.3094 94.7685 52.4511 94.0733 51.4278 93.8082C32.0721 88.7842 18.5547 71.2929 18.5547 51.2695C18.5547 27.0376 38.2681 7.32422 62.5 7.32422C86.7319 7.32422 106.445 27.0376 106.445 51.2695C106.445 71.2929 92.9279 88.7852 73.5731 93.8082Z" fill="white"/>
<path d="M86.2783 43.5154L64.3047 30.9985C63.1631 30.3471 61.7622 30.3585 60.6311 31.0261L38.6737 43.9808C36.9323 45.0089 36.3534 47.2538 37.3805 48.9962C38.0643 50.154 39.285 50.7977 40.5382 50.7977C41.1714 50.7977 41.8123 50.6337 42.3959 50.2894L44.2584 49.1908V68.3596C44.2584 70.3824 45.8978 72.0217 47.9205 72.0217H77.2174C79.2402 72.0217 80.8795 70.3824 80.8795 68.3596V48.8694L82.6534 49.8793C84.41 50.8797 86.6464 50.2675 87.6478 48.5098C88.6491 46.7522 88.0359 44.5168 86.2783 43.5154ZM73.5553 64.6975H51.5827V44.8687L62.5242 38.4133L73.5553 44.697V64.6975Z" fill="white"/>
</svg>
