<svg width="22" height="22" viewBox="0 0 22 22" fill="none" xmlns="http://www.w3.org/2000/svg">
<path fill-rule="evenodd" clip-rule="evenodd" d="M9.34791 11L6.21657 8.91183C5.19632 8.23258 4.58398 7.08766 4.58398 5.86116C4.58398 5.30383 4.58398 4.67224 4.58398 4.12499C4.58398 2.85908 5.60973 1.83333 6.87565 1.83333H15.1257C16.3916 1.83333 17.4173 2.85908 17.4173 4.12499V5.86116C17.4173 7.08766 16.805 8.23258 15.7847 8.91183L12.6534 11L15.7847 13.0872C16.805 13.7674 17.4173 14.9123 17.4173 16.1379V17.875C17.4173 19.1409 16.3916 20.1667 15.1257 20.1667C13.0118 20.1667 8.98857 20.1667 6.87565 20.1667C5.60973 20.1667 4.58398 19.1409 4.58398 17.875C4.58398 17.3268 4.58398 16.6952 4.58398 16.1379C4.58398 14.9123 5.19632 13.7674 6.21657 13.0872L9.34791 11ZM11.0007 12.1018L7.23315 14.6126C6.72348 14.9527 6.41732 15.5256 6.41732 16.1379V17.875C6.41732 18.128 6.62265 18.3333 6.87565 18.3333H15.1257C15.3787 18.3333 15.584 18.128 15.584 17.875C15.584 17.3268 15.584 16.6952 15.584 16.1379C15.584 15.5256 15.2778 14.9527 14.7672 14.6126L11.0007 12.1018ZM11.0007 9.89815L14.7672 7.38649C15.2778 7.04641 15.584 6.47441 15.584 5.86116C15.584 5.30383 15.584 4.67224 15.584 4.12499C15.584 3.87199 15.3787 3.66666 15.1257 3.66666C13.0118 3.66666 8.98857 3.66666 6.87565 3.66666C6.62265 3.66666 6.41732 3.87199 6.41732 4.12499V5.86116C6.41732 6.47441 6.72348 7.04641 7.23315 7.38649L11.0007 9.89815Z" fill="#A3A5B0"/>
</svg>
