<svg width="60" height="60" viewBox="0 0 60 60" fill="none" xmlns="http://www.w3.org/2000/svg">
<path d="M50.2556 18.7561L29.2106 4.75671L8.16553 18.7561V54.8398H50.2651V18.7561H50.2556Z" fill="#F6F7F8"/>
<path d="M50.2552 18.7561L29.2102 4.75671L24.8909 7.62991L44.9916 21.0011H45.0012V54.8398H50.2647V18.7561H50.2552Z" fill="#E6F1FE"/>
<path d="M4.22928 24.3769L28.8588 7.99307C29.0743 7.84963 29.3549 7.84963 29.5705 7.99307L54.2001 24.3769C54.8937 24.8382 55.7964 24.8382 56.49 24.3769C57.7197 23.5589 57.7197 21.7525 56.49 20.9345L29.5705 3.0275C29.355 2.88406 29.0745 2.88406 28.8588 3.0275L1.93944 20.9345C0.709801 21.7525 0.709801 23.5589 1.93944 24.3769C2.63296 24.8382 3.53577 24.8382 4.22928 24.3769Z" fill="#E6F1FE"/>
<path d="M29.2145 22.5237C31.727 22.5237 33.7638 20.4869 33.7638 17.9744C33.7638 15.4619 31.727 13.425 29.2145 13.425C26.702 13.425 24.6652 15.4619 24.6652 17.9744C24.6652 20.4869 26.702 22.5237 29.2145 22.5237Z" fill="#F6F7F8"/>
<path d="M36.479 35.1635H21.9501V57.0822H36.479V35.1635Z" fill="#F6F7F8"/>
<path d="M36.4794 35.1633H29.215V57.0821H36.4794V35.1633Z" fill="#F6F7F8"/>
<path d="M54.4131 53.6179H4.01696C3.06071 53.6179 2.2854 54.3931 2.2854 55.3495C2.2854 56.3057 3.06059 57.081 4.01696 57.081H54.413C55.3693 57.081 56.1446 56.3058 56.1446 55.3495C56.1446 54.3932 55.3694 53.6179 54.4131 53.6179Z" fill="#1AACFF"/>
<path d="M57.2925 23.3479C57.3058 23.3099 57.3195 23.272 57.3306 23.2334C57.3368 23.2117 57.3412 23.1898 57.3467 23.168C57.3565 23.1292 57.3669 23.0907 57.3744 23.0514C57.3786 23.0296 57.3809 23.0076 57.3842 22.9857C57.3917 22.9352 57.3996 22.8847 57.4032 22.8336C57.4067 22.7831 57.4114 22.7328 57.412 22.6822C57.4122 22.661 57.4106 22.6397 57.4102 22.6185C57.4095 22.5762 57.4088 22.5338 57.4056 22.4915C57.4039 22.4709 57.4008 22.4504 57.3984 22.4298C57.3938 22.3869 57.3889 22.3442 57.3817 22.3017C57.3783 22.282 57.3736 22.2625 57.3697 22.243C57.361 22.1998 57.3518 22.1568 57.3404 22.1142C57.3354 22.0954 57.3294 22.077 57.3238 22.0584C57.311 22.0154 57.2973 21.9727 57.2816 21.9304C57.275 21.9127 57.2676 21.8953 57.2606 21.8776C57.2435 21.8351 57.2253 21.7932 57.2053 21.7518C57.1972 21.7351 57.1886 21.7185 57.1801 21.702C57.1588 21.6607 57.1359 21.62 57.1117 21.58C57.1068 21.5721 57.103 21.5636 57.0981 21.5558C57.0978 21.5562 57.0975 21.5566 57.0972 21.5569C56.9479 21.3187 56.7472 21.1046 56.491 20.9342L53.8016 19.1451L53.5004 19.6077C52.974 20.4159 51.8894 20.6394 51.0864 20.1052L29.5713 5.79365C29.3558 5.65033 29.0752 5.65033 28.8596 5.79365L4.23006 22.1774C3.53643 22.6388 2.63374 22.6388 1.94011 22.1774C1.68429 22.0073 1.4825 21.7939 1.33308 21.556C0.764023 22.4626 0.96664 23.7312 1.94257 24.3786C2.64652 24.8454 3.57042 24.8157 4.27366 24.3479L28.8596 7.99301C29.0751 7.84969 29.3557 7.84969 29.5713 7.99301L54.2008 24.3768C54.8945 24.8382 55.7972 24.8382 56.4908 24.3768C56.544 24.3414 56.5942 24.3035 56.6427 24.2644C56.6595 24.2508 56.676 24.2369 56.6922 24.2229C56.7231 24.1965 56.7528 24.1693 56.7818 24.1414C56.7992 24.1246 56.8172 24.1082 56.8339 24.091C56.8687 24.055 56.902 24.0181 56.9338 23.9804L56.9355 23.9776C57.0399 23.8526 57.1268 23.7179 57.1968 23.5763L57.2013 23.5695C57.2089 23.554 57.2148 23.5379 57.2219 23.5222C57.2388 23.4855 57.2556 23.4489 57.2701 23.4115C57.2783 23.3905 57.285 23.3691 57.2925 23.3479Z" fill="#E6F1FE"/>
<path d="M56.1333 55.1574C56.1319 55.1446 56.1293 55.1323 56.1276 55.1197C56.1207 55.0675 56.1119 55.0161 56.1004 54.9656C56.0983 54.9566 56.0957 54.9479 56.0936 54.939C56.0801 54.8837 56.0641 54.8295 56.0454 54.7764C56.0442 54.773 56.043 54.7696 56.0417 54.7662C56.0208 54.708 55.997 54.6514 55.9702 54.5962V54.5961C55.6898 54.0178 55.0989 53.618 54.413 53.618H50.881V54.3908C50.881 55.0443 50.3512 55.5741 49.6976 55.5741H4.01695C3.33117 55.5741 2.7402 55.1744 2.45977 54.5961C2.3202 54.884 2.25516 55.2147 2.29887 55.5653C2.40797 56.4404 3.18164 57.0812 4.06347 57.0812H54.4131C55.3695 57.0812 56.1447 56.3059 56.1447 55.3496C56.1446 55.2844 56.1403 55.2206 56.1333 55.1574Z" fill="#1AACFF"/>
<path d="M40.3843 57.081H35.7538V24.7402C35.7538 23.4616 36.7903 22.4249 38.069 22.4249C39.3477 22.4249 40.3843 23.4616 40.3843 24.7402V57.081Z" fill="#E6F1FE"/>
<path d="M38.0693 22.4249C37.6471 22.4249 37.2525 22.5398 36.9117 22.7372C37.6031 23.1377 38.0693 23.8838 38.0693 24.7402V57.0811H40.3846V24.7402C40.3845 23.4614 39.3479 22.4249 38.0693 22.4249Z" fill="#E6F1FE"/>
<path d="M57.8463 45.602H18.2923C17.489 45.602 16.8379 44.9508 16.8379 44.1476V29.0395C16.8379 28.2362 17.4891 27.5851 18.2923 27.5851H57.8462C58.6495 27.5851 59.3006 28.2363 59.3006 29.0395V44.1476C59.3007 44.9508 58.6495 45.602 57.8463 45.602Z" fill="#F6F7F8"/>
<path d="M57.8463 27.5851H54.0373V41.9349C54.0373 42.7382 53.3861 43.3894 52.5829 43.3894H16.8379V44.1477C16.8379 44.951 17.4891 45.6022 18.2923 45.6022H57.8462C58.6495 45.6022 59.3006 44.951 59.3006 44.1477V29.0395C59.3007 28.2362 58.6495 27.5851 57.8463 27.5851Z" fill="#E6F1FE"/>
<path d="M26.2107 34.3191C26.2107 33.722 26.7207 33.3612 27.6162 33.3612C28.661 33.3612 28.9471 33.834 29.3326 33.834C29.7804 33.834 29.9795 33.2618 29.9795 32.9757C29.9795 32.1547 28.3501 31.9806 27.6162 31.9806C26.1858 31.9806 24.5937 32.615 24.5937 34.4682C24.5937 37.4161 28.5864 36.8441 28.5864 38.7098C28.5864 39.4561 27.9395 39.792 27.1934 39.792C25.9246 39.792 25.5887 38.8342 25.0789 38.8342C24.6932 38.8342 24.3699 39.3566 24.3699 39.7049C24.3699 40.4263 25.6137 41.2472 27.2431 41.2472C28.9595 41.2472 30.2033 40.3267 30.2033 38.5481C30.2035 35.3265 26.2107 35.8614 26.2107 34.3191Z" fill="#1AACFF"/>
<path d="M35.4269 32.5159C35.315 32.1426 34.8547 31.9685 34.3822 31.9685C33.9219 31.9685 33.4617 32.1426 33.3497 32.5159L30.9492 40.3396C30.9367 40.3891 30.9243 40.4391 30.9243 40.4639C30.9243 40.862 31.5088 41.1356 31.9442 41.1356C32.2178 41.1356 32.4292 41.0484 32.4915 40.8122L32.9642 39.158H35.8126L36.2853 40.8122C36.3474 41.0484 36.5589 41.1356 36.8326 41.1356C37.2679 41.1356 37.8524 40.8494 37.8524 40.4639C37.8524 40.4265 37.84 40.3892 37.8276 40.3396L35.4269 32.5159ZM33.2999 37.8892L34.3822 34.0706L35.4643 37.8892H33.2999Z" fill="#1AACFF"/>
<path d="M43.611 39.7177H40.5761V32.5408C40.5761 32.1925 40.1657 32.0433 39.7676 32.0433C39.3572 32.0433 38.9591 32.1925 38.9591 32.5408V40.6257C38.9591 40.9615 39.3074 41.1357 39.6681 41.1357H43.611C43.9343 41.1357 44.096 40.7749 44.096 40.4266C44.096 40.066 43.9343 39.7177 43.611 39.7177Z" fill="#1AACFF"/>
<path d="M50.364 33.4612C50.6873 33.4612 50.874 33.1253 50.874 32.7397C50.874 32.4039 50.7122 32.0432 50.364 32.0432H45.9359C45.5752 32.0432 45.2269 32.2174 45.2269 32.5532V40.6256C45.2269 40.9614 45.5752 41.1356 45.9359 41.1356H50.364C50.7122 41.1356 50.874 40.7747 50.874 40.439C50.874 40.0533 50.6873 39.7176 50.364 39.7176H46.8439V37.2174H48.7345C49.0827 37.2174 49.2445 36.8817 49.2445 36.5955C49.2445 36.2597 49.0578 35.9486 48.7345 35.9486H46.8439V33.4609H50.364V33.4612Z" fill="#1AACFF"/>
<path d="M57.6868 26.7266H41.0835V24.7401C41.0835 24.5761 41.071 24.4148 41.0469 24.2575C40.8137 22.7358 39.4958 21.5665 37.9098 21.5665C36.3238 21.5665 35.0059 22.7358 34.7727 24.2575C34.7485 24.4148 34.736 24.5761 34.736 24.7401V26.7266H18.1329C16.9373 26.7266 15.9507 27.6385 15.8321 28.8034C15.8242 28.8811 15.8201 28.9598 15.8201 29.0395V44.1476C15.8201 45.423 16.8577 46.4605 18.1329 46.4605H20.9331V52.7594H8.8645V22.2189L29.0559 8.78747L49.2473 22.219V24.6133C49.2473 25.0875 49.6315 25.4717 50.1057 25.4717C50.5798 25.4717 50.9641 25.0875 50.9641 24.6133V23.3611L53.5658 25.0918C54.5501 25.7465 55.8223 25.7467 56.8065 25.0917C57.6238 24.5481 58.1118 23.6373 58.1118 22.6557C58.1116 21.6742 57.6238 20.7635 56.8065 20.22L29.8873 2.31277C29.3823 1.9768 28.7297 1.9768 28.2247 2.31277L13.2604 12.2672C12.8657 12.5297 12.7585 13.0626 13.0211 13.4574C13.2837 13.8519 13.8167 13.9593 14.2113 13.6966L29.0559 3.82167L55.8558 21.6493C56.1985 21.8773 56.395 22.2441 56.3951 22.6556C56.3951 23.0673 56.1984 23.4342 55.8557 23.6623C55.449 23.9327 54.9233 23.9327 54.5167 23.6623L50.5812 21.0443L29.8873 7.27846C29.3823 6.9426 28.7297 6.94236 28.2247 7.27846L3.59506 23.6623C3.18842 23.9326 2.66284 23.9328 2.25608 23.6621C1.91331 23.4342 1.71679 23.0674 1.71679 22.6557C1.71679 22.2441 1.91331 21.8773 2.25608 21.6492L9.74938 16.6646C10.1441 16.4021 10.2513 15.8692 9.98867 15.4744C9.72606 15.0798 9.19321 14.9726 8.79852 15.2352L1.30523 20.2198C0.487967 20.7634 0 21.6739 0 22.6557C0 23.6375 0.487967 24.5481 1.30523 25.0916C1.79753 25.4191 2.36144 25.5828 2.92569 25.5828C3.48971 25.5827 4.05397 25.419 4.54604 25.0916L7.14771 23.361V52.7594H3.85791C2.42976 52.7594 1.26796 53.9214 1.26796 55.3494C1.26796 56.7776 2.42976 57.9393 3.85791 57.9393H35.5947H40.2253H54.2541C55.6822 57.9393 56.844 56.7774 56.844 55.3494C56.844 53.9212 55.6821 52.7594 54.2541 52.7594H50.9643V48.5286C50.9643 48.0545 50.58 47.6702 50.1059 47.6702C49.6318 47.6702 49.2475 48.0545 49.2475 48.5286V52.7594H41.0838V46.4605H57.6871C58.9624 46.4605 60 45.423 60 44.1476V29.0395C59.9998 27.7642 58.9622 26.7266 57.6868 26.7266ZM36.453 24.7401C36.453 23.9368 37.1066 23.2833 37.9099 23.2833C38.7132 23.2833 39.3668 23.9368 39.3668 24.7401V26.7266H36.453V24.7401V24.7401ZM34.7362 56.2226H3.85791C3.37651 56.2226 2.98475 55.8309 2.98475 55.3494C2.98475 54.8679 3.37639 54.4762 3.85791 54.4762H8.0061H21.7915H34.7362V56.2226ZM34.7362 52.7594H22.6499V46.4605H34.7362V52.7594V52.7594ZM39.3668 53.6178V56.2226H36.453V53.6178V46.4605H39.3668V53.6178ZM50.1058 54.4762H54.254C54.7355 54.4762 55.1271 54.8679 55.1271 55.3494C55.1271 55.8309 54.7355 56.2226 54.254 56.2226H41.0835V54.4762H50.1058ZM58.283 44.1476C58.283 44.4763 58.0157 44.7437 57.6868 44.7437H40.2252H35.5946H21.7915H18.1329C17.8042 44.7437 17.5369 44.4764 17.5369 44.1476V29.0395C17.5369 28.7109 17.8042 28.4435 18.1329 28.4435H35.5946H40.2252C40.2259 28.4435 40.2267 28.4434 40.2274 28.4434H57.6868C58.0156 28.4434 58.283 28.7107 58.283 29.0395V44.1476Z" fill="#1AACFF"/>
<path d="M23.6484 17.9744C23.6484 20.9562 26.0743 23.3822 29.0562 23.3822C32.0379 23.3822 34.4639 20.9563 34.4639 17.9744C34.4639 14.9927 32.038 12.5667 29.0562 12.5667C26.0743 12.5667 23.6484 14.9925 23.6484 17.9744ZM28.1978 21.5635C26.8499 21.2411 25.7875 20.1776 25.4663 18.8291H28.1978V21.5635ZM28.1978 17.1124H25.468C25.7912 15.7673 26.8523 14.7072 28.1978 14.3854V17.1124ZM29.9146 14.3854C31.2601 14.7072 32.3213 15.7674 32.6443 17.1124H29.9146V14.3854ZM29.9146 18.8291H32.646C32.3249 20.1776 31.2625 21.241 29.9146 21.5635V18.8291V18.8291Z" fill="#1AACFF"/>
</svg>
