<svg width="150" height="104" viewBox="0 0 150 104" fill="none" xmlns="http://www.w3.org/2000/svg">
<path d="M69.1406 103.191C67.9276 103.191 66.9434 104.174 66.9434 105.389V109.831C66.9434 111.045 67.9276 112.028 69.1406 112.028C70.3537 112.028 71.3379 111.045 71.3379 109.831V105.389C71.3379 104.174 70.3537 103.191 69.1406 103.191Z" fill="#EFF1F3"/>
<path d="M37.2346 70.4774H28.6836C26.6649 70.4774 25.0215 72.1196 25.0215 74.1395V96.1969C25.0215 98.2167 26.6649 99.859 28.6836 99.859H37.2346C39.2533 99.859 40.8967 98.2167 40.8967 96.1969V74.1395C40.8967 72.1196 39.2533 70.4774 37.2346 70.4774ZM36.5022 95.4644H29.416V74.8719H36.5022V95.4644Z" fill="#EFF1F3"/>
<path d="M121.317 70.4774H112.766C110.747 70.4774 109.104 72.1196 109.104 74.1395V96.1969C109.104 98.2167 110.747 99.859 112.766 99.859H121.317C123.335 99.859 124.979 98.2167 124.979 96.1969V74.1395C124.979 72.1196 123.335 70.4774 121.317 70.4774ZM120.584 95.4644H113.498V74.8719H120.584V95.4644Z" fill="#EFF1F3"/>
<path d="M75.9575 52.7928H74.0417C69.2879 52.7928 65.4209 56.6609 65.4209 61.4148V69.7667C65.4209 71.5097 66.8388 72.9276 68.5818 72.9276H81.4174C83.1604 72.9276 84.5783 71.5097 84.5783 69.7667V61.4148C84.5783 56.6609 80.7113 52.7928 75.9575 52.7928V52.7928ZM69.8143 68.5331V61.4148C69.8143 59.0837 71.7106 57.1874 74.0417 57.1874H75.9575C78.2875 57.1874 80.1838 59.0837 80.1838 61.4148V68.5331H69.8143Z" fill="#EFF1F3"/>
<path d="M147.803 125.137H137.474V60.2829H146.338C147.529 60.2829 148.549 59.7221 149.067 58.7826C149.585 57.843 149.514 56.6803 148.877 55.6732L130.903 27.2369C130.076 25.9266 128.349 24.9756 126.799 24.9756H80.5286L77.6264 21.4748C76.9627 20.6738 76.0048 20.2148 75 20.2148C73.9941 20.2148 73.0373 20.6738 72.3736 21.4748L69.4714 24.9756H23.2006C21.6499 24.9756 19.9242 25.9266 19.0956 27.2369L1.12267 55.6732C0.486374 56.6814 0.415421 57.843 0.932694 58.7826C1.45111 59.7221 2.47078 60.2829 3.66211 60.2829H12.5256V107.156C10.3157 109.269 8.93555 112.241 8.93555 115.534C8.93555 116.137 8.98476 116.729 9.07402 117.308H8.14133C6.12259 117.308 4.47922 118.951 4.47922 120.97V125.137H2.19727C0.984192 125.137 0 126.121 0 127.334C0 128.548 0.984192 129.531 2.19727 129.531H147.803C149.016 129.531 150 128.548 150 127.334C150 126.121 149.016 125.137 147.803 125.137ZM138.784 47.929H99.5579L96.6442 44.4134H136.561L138.784 47.929ZM131.561 36.5032L133.784 40.0188H93.0004L90.0856 36.5032H131.561ZM126.777 29.3701C126.897 29.3907 127.12 29.5143 127.201 29.6047L128.784 32.1087H86.4418L84.1724 29.3701H126.777ZM18.4387 36.5032H33.1055C34.3185 36.5032 35.3027 35.519 35.3027 34.306C35.3027 33.0917 34.3185 32.1087 33.1055 32.1087H21.2151L22.7989 29.6036C22.8802 29.5143 23.1033 29.3907 23.2224 29.3701H65.8276L63.5571 32.1087H43.3594C42.1463 32.1087 41.1621 33.0917 41.1621 34.306C41.1621 35.519 42.1463 36.5032 43.3594 36.5032H59.9144L56.9996 40.0188H16.2163L18.4387 36.5032ZM13.4388 44.4134H53.3558L50.441 47.929H11.2164L13.4388 44.4134ZM6.18553 55.8884L8.43887 52.3235H46.7983L43.8423 55.8884H6.18553ZM48.5664 103.819C46.9025 102.87 44.9902 102.328 42.9749 102.328C39.0163 102.328 35.3462 104.436 33.2977 107.737C32.7484 107.629 32.1865 107.576 31.6154 107.576C30.7949 107.576 30.0007 107.691 29.2465 107.904C27.0779 105.442 23.9101 103.935 20.533 103.935C19.2719 103.935 18.0576 104.141 16.9201 104.515V60.2829H40.1985C39.4009 61.2465 39.2052 62.4161 39.6732 63.4129C40.1424 64.4108 41.1701 65.007 42.4221 65.007H48.5664V103.819ZM22.9214 117.308H13.5555C13.4113 116.74 13.3301 116.146 13.3301 115.534C13.3301 111.562 16.5619 108.33 20.533 108.33C22.3469 108.33 24.0635 109.031 25.367 110.209C23.8197 111.789 22.8642 113.95 22.8642 116.33C22.8642 116.661 22.8848 116.987 22.9214 117.308ZM48.5664 125.137H8.87375V121.702H48.5664V125.137ZM48.5676 117.308H27.3731C27.2999 116.994 27.2587 116.667 27.2587 116.33C27.2587 113.926 29.2133 111.97 31.6154 111.97C32.2655 111.97 32.8915 112.111 33.4763 112.387C34.029 112.649 34.6642 112.667 35.2318 112.442C35.7994 112.215 36.2457 111.762 36.4666 111.192C37.4977 108.519 40.115 106.723 42.976 106.723C45.2339 106.723 47.2824 107.831 48.5676 109.55V117.308ZM45.6345 60.6125L75 25.1919L104.366 60.6125H100.491L76.6914 31.9073C76.2737 31.4049 75.6535 31.1131 75 31.1131C74.3454 31.1131 73.7251 31.4049 73.3086 31.9084L49.5094 60.6125H45.6345ZM84.304 125.137H65.696V91.0343H84.304V125.137ZM133.08 125.137H101.434V98.6034C101.434 97.3904 100.449 96.4062 99.2363 96.4062C98.0232 96.4062 97.039 97.3904 97.039 98.6034V125.137H88.6986V90.3019C88.6986 88.2832 87.0564 86.6398 85.0365 86.6398H64.9635C62.9436 86.6398 61.3014 88.2832 61.3014 90.3019V125.137H52.961V63.335L75 36.7527L97.039 63.335V88.203C97.039 89.4173 98.0232 90.4003 99.2363 90.4003C100.449 90.4003 101.434 89.4173 101.434 88.203V65.007H107.577C108.829 65.007 109.856 64.4108 110.326 63.4129C110.795 62.4161 110.598 61.2465 109.801 60.2829H118.359C119.572 60.2829 120.557 59.2999 120.557 58.0856C120.557 56.8726 119.572 55.8884 118.359 55.8884H106.158L103.202 52.3235H141.561L143.814 55.8884H128.906C127.693 55.8884 126.709 56.8726 126.709 58.0856C126.709 59.2999 127.693 60.2829 128.906 60.2829H133.08V125.137Z" fill="#EFF1F3"/>
</svg>
