<svg width="80" height="81" viewBox="0 0 80 81" fill="none" xmlns="http://www.w3.org/2000/svg">
<path d="M77.9995 76.9983H71.9996V44.9985H75.9995C77.6169 44.9985 79.0755 44.0238 79.6955 42.5291C80.3141 41.0344 79.9728 39.3144 78.8288 38.1691L42.829 2.16934C42.0477 1.38934 41.0238 0.998718 39.9998 0.998718C38.9757 0.998718 37.9518 1.38934 37.1718 2.17074L25.9998 13.3413V8.99867C25.9998 6.78931 24.2092 4.99869 21.9999 4.99869H17.9999C15.7905 4.99869 13.9999 6.78931 13.9999 8.99867V25.3412L1.17202 38.1691C0.0279686 39.3132 -0.314686 41.0332 0.305311 42.5291C0.923901 44.0238 2.38264 44.9985 3.99998 44.9985H7.99995V76.9983H1.99999C0.894682 76.9983 0 77.893 0 78.9983C0 80.1036 0.894682 80.9983 1.99999 80.9983H77.9995C79.1048 80.9983 79.9995 80.1036 79.9995 78.9983C79.9995 77.893 79.1048 76.9983 77.9995 76.9983ZM17.9999 8.99867H21.9999V17.3413L17.9999 21.3413V8.99867ZM45.9997 76.9983H33.9998V48.9984H45.9997V76.9983ZM67.9996 76.9983H49.9997V48.9984C49.9997 46.7891 48.2091 44.9985 45.9997 44.9985H33.9998C31.7904 44.9985 29.9998 46.7891 29.9998 48.9984V76.9983H11.9999V40.9985H3.99998L39.9998 4.99869L75.9995 40.9985H67.9996V76.9983Z" fill="#2F344C"/>
</svg>
