<svg width="48" height="48" viewBox="0 0 48 48" fill="none" xmlns="http://www.w3.org/2000/svg">
<g clip-path="url(#clip0)">
<path d="M34.9968 22.0029C27.8249 22.0029 21.9937 27.8342 21.9937 35.0061C21.9937 42.1779 27.8343 47.9998 34.9968 47.9998C42.1593 47.9998 47.9999 42.1686 47.9999 34.9967C47.9999 27.8248 42.1687 22.0029 34.9968 22.0029ZM34.753 33.4967H35.2499C37.3218 33.4967 38.9999 35.1748 38.9999 37.2467C38.9999 38.8686 37.9499 40.2467 36.4968 40.7623V41.4936C36.4968 42.3186 35.8218 42.9936 34.9968 42.9936C34.1718 42.9936 33.4968 42.3186 33.4968 41.4936V40.9967H32.4937C31.6687 40.9967 30.9937 40.3217 30.9937 39.4967C30.9937 38.6717 31.6687 37.9967 32.4937 37.9967H35.2499C35.6624 37.9967 35.9999 37.6592 35.9999 37.2467C35.9999 36.8342 35.6624 36.4967 35.2499 36.4967H34.753C32.6812 36.4967 31.003 34.8186 31.003 32.7467C31.003 31.1248 32.053 29.7467 33.5062 29.2311V28.4998C33.5062 27.6748 34.1812 26.9998 35.0062 26.9998C35.8312 26.9998 36.5062 27.6748 36.5062 28.4998V28.9967H37.4999C38.3249 28.9967 38.9999 29.6717 38.9999 30.4967C38.9999 31.3217 38.3249 31.9967 37.4999 31.9967H34.753C34.3405 31.9967 34.003 32.3342 34.003 32.7467C34.003 33.1592 34.3405 33.4967 34.753 33.4967Z" fill="#FF4D61"/>
<path d="M34.0031 11.9157V4.00322C34.0031 2.89697 33.1031 2.00635 32.0062 2.00635C30.9094 2.00635 30 2.89697 30 4.00322V8.00635L22.3969 0.571973C21.6187 -0.187402 20.3813 -0.187402 19.6031 0.571973L0.88125 18.872C0.31875 19.4345 0 20.2126 0 21.0001C0 22.6501 1.35 24.0001 3 24.0001H6V34.997C6 37.7532 8.24063 39.9939 10.9969 39.9939H15.9938C17.1 39.9939 17.9906 39.1032 17.9906 37.997C17.9906 36.8907 17.0906 36.0001 15.9938 36.0001H10.9969C10.4438 36.0001 9.99375 35.5501 9.99375 34.997V22.0032C9.99375 20.897 9.09375 20.0063 7.99688 20.0063H5.44687L21 4.8001L34.1062 17.6157C34.8937 18.3938 36.1594 18.3751 36.9375 17.5876C37.7062 16.8001 37.6969 15.5345 36.9094 14.7563L34.0031 11.9157Z" fill="#5D6174"/>
</g>
<defs>
<clipPath id="clip0">
<rect width="48" height="48" fill="white"/>
</clipPath>
</defs>
</svg>
