<svg width="73" height="73" viewBox="0 0 73 73" fill="none" xmlns="http://www.w3.org/2000/svg">
<path d="M53.6223 65.8778C54.1163 63.0174 56.6165 60.8335 59.6168 60.8335C62.0124 60.8335 64.088 62.2253 65.0797 64.2425C65.2756 64.1027 65.4849 63.9785 65.7002 63.8666V43.8001C65.7002 43.1286 66.2452 42.5835 66.9168 42.5835C67.5883 42.5835 68.1334 43.1286 68.1334 43.8001V63.2667C70.8173 63.2667 73 65.4495 73 68.1335C73 70.8175 70.8173 73.0001 68.1334 73.0001H54.7501C52.7377 73.0001 51.1001 71.3625 51.1001 69.3501C51.1001 67.7307 52.1599 66.3547 53.6223 65.8778ZM54.7501 70.5667H68.1334C69.4753 70.5667 70.5668 69.4754 70.5668 68.1334C70.5668 66.7913 69.4753 65.7001 68.1334 65.7001C66.9982 65.7001 65.9896 66.3595 65.6235 67.3426C65.4179 67.8938 64.8484 68.2186 64.2668 68.114C63.6877 68.0093 63.2668 67.5056 63.2668 66.9167C63.2668 64.9044 61.6291 63.2667 59.6168 63.2667C57.6045 63.2667 55.9668 64.9044 55.9668 66.9167C55.9668 67.5883 55.4217 68.1334 54.7502 68.1334C54.0798 68.1334 53.5336 68.6796 53.5336 69.35C53.5336 70.0204 54.0797 70.5667 54.7501 70.5667Z" fill="#5D6174"/>
<path d="M1.21687 9.73338H24.3335C25.0051 9.73338 25.5502 10.2785 25.5502 10.95C25.5502 11.6215 25.0051 12.1666 24.3335 12.1666H2.43362V38.4297L35.64 5.22321C35.8785 4.98467 36.1912 4.86676 36.5038 4.86676C36.8165 4.86676 37.1292 4.98482 37.3677 5.22321L70.5666 38.4284V12.1666H57.1833C56.5118 12.1666 55.9667 11.6215 55.9667 10.95V6.08338C55.9667 5.41184 56.5118 4.86676 57.1833 4.86676H58.4001V2.43338H51.1001V4.86676H52.3167C52.9882 4.86676 53.5333 5.41184 53.5333 6.08338V10.95C53.5333 11.6215 52.9882 12.1666 52.3167 12.1666H48.6667C47.9952 12.1666 47.4501 11.6215 47.4501 10.95C47.4501 10.2785 47.9952 9.73338 48.6667 9.73338H51.1001V7.3H49.8835C49.2119 7.3 48.6668 6.75492 48.6668 6.08338V1.21662C48.6668 0.545076 49.2119 0 49.8835 0H59.6167C60.2882 0 60.8333 0.545076 60.8333 1.21662V6.08324C60.8333 6.75478 60.2882 7.29986 59.6167 7.29986H58.4001V9.73324H71.7834C72.1058 9.73324 72.416 9.86099 72.6436 10.0897C72.8723 10.3174 73 10.6276 73 10.95L72.9952 41.3666C72.9952 41.8594 72.6983 42.3022 72.2432 42.4908C72.0924 42.5529 71.9354 42.5834 71.7784 42.5834C71.4609 42.5834 71.1493 42.4593 70.9182 42.2269L36.5038 7.80002L2.07718 42.2268C1.84478 42.4592 1.53339 42.5832 1.21701 42.5832C1.06003 42.5832 0.901909 42.5529 0.751068 42.4907C0.297241 42.3021 0.000396729 41.8581 0.000396729 41.3665V10.95C0.00025177 10.2785 0.545326 9.73338 1.21687 9.73338Z" fill="#5D6174"/>
<path d="M4.86655 63.2667V43.8001C4.86655 43.1286 5.41162 42.5835 6.08316 42.5835C6.75471 42.5835 7.29978 43.1286 7.29978 43.8001V63.8666C7.51508 63.9785 7.72438 64.1025 7.92028 64.2425C8.91191 62.2253 10.9876 60.8335 13.3831 60.8335C16.3834 60.8335 18.8836 63.0174 19.3777 65.8778C20.8401 66.3547 21.8999 67.7307 21.8999 69.3501C21.8999 69.7796 21.8123 70.1848 21.6747 70.5667H42.5832C43.2547 70.5667 43.7998 71.1118 43.7998 71.7834C43.7998 72.4549 43.2547 73 42.5832 73H18.2499H13.3833H4.8667C2.18267 73.0001 -4.95911e-05 70.8174 -4.95911e-05 68.1335C-4.95911e-05 65.4496 2.18267 63.2667 4.86655 63.2667ZM4.86655 70.5667H13.3831H18.2499C18.9203 70.5667 19.4665 70.0205 19.4665 69.3501C19.4665 68.6797 18.9203 68.1335 18.2499 68.1335C17.5784 68.1335 17.0333 67.5884 17.0333 66.9169C17.0333 64.9045 15.3956 63.2669 13.3833 63.2669C11.3709 63.2669 9.7333 64.9045 9.7333 66.9169C9.7333 67.5057 9.31227 68.0095 8.73326 68.1141C8.15539 68.2199 7.58223 67.8938 7.37664 67.3428C7.01049 66.3597 6.00175 65.7003 4.8667 65.7003C3.52475 65.7003 2.43332 66.7916 2.43332 68.1336C2.43332 69.4757 3.52461 70.5667 4.86655 70.5667Z" fill="#5D6174"/>
<path d="M31.6333 24.3334C31.6333 21.6494 33.816 19.4668 36.4999 19.4668C39.1839 19.4668 41.3665 21.6495 41.3665 24.3334C41.3665 27.0173 39.1839 29.2 36.4999 29.2C33.8158 29.2 31.6333 27.0173 31.6333 24.3334ZM38.9332 24.3334C38.9332 22.9915 37.8419 21.9 36.4999 21.9C35.1579 21.9 34.0665 22.9913 34.0665 24.3334C34.0665 25.6754 35.1578 26.7668 36.4999 26.7668C37.8418 26.7667 38.9332 25.6754 38.9332 24.3334Z" fill="#5D6174"/>
<path d="M13.3832 41.3667H23.1165C23.7881 41.3667 24.3331 41.9118 24.3331 42.5833V55.9667H25.5497C26.2213 55.9667 26.7664 56.5118 26.7664 57.1833C26.7664 57.8549 26.2213 58.3999 25.5497 58.3999H10.9498C10.2782 58.3999 9.73318 57.8549 9.73318 57.1833C9.73318 56.5118 10.2782 55.9667 10.9498 55.9667H12.1664V42.5833C12.1664 41.9118 12.7115 41.3667 13.3832 41.3667ZM14.5998 55.9667H21.8998V51.1001H14.5998V55.9667ZM14.5998 48.6667H21.8998V43.8001H14.5998V48.6667Z" fill="#5D6174"/>
<path d="M24.3332 66.9166C24.3332 66.245 24.8783 65.6999 25.5499 65.6999H29.1998V42.5833C29.1998 41.9118 29.7449 41.3667 30.4165 41.3667H42.583C43.2546 41.3667 43.7997 41.9118 43.7997 42.5833V65.6999H47.4496C48.1212 65.6999 48.6663 66.245 48.6663 66.9166V71.7832C48.6663 72.4547 48.1212 72.9998 47.4496 72.9998C46.7781 72.9998 46.233 72.4547 46.233 71.7832V68.1332H25.5499C24.8783 68.1333 24.3332 67.5882 24.3332 66.9166ZM31.6332 53.5333H32.8498C33.5214 53.5333 34.0665 54.0784 34.0665 54.7499C34.0665 55.4215 33.5214 55.9666 32.8498 55.9666H31.6332V65.6999H41.3666V43.7999H31.6332V53.5333Z" fill="#5D6174"/>
<path d="M49.8832 41.3667H59.6164C60.2879 41.3667 60.833 41.9118 60.833 42.5833V55.9667H62.0497C62.7213 55.9667 63.2664 56.5118 63.2664 57.1833C63.2664 57.8549 62.7213 58.4001 62.0497 58.4001H47.4498C46.7783 58.4001 46.2332 57.855 46.2332 57.1835C46.2332 56.5119 46.7783 55.9668 47.4498 55.9668H48.6664V42.5835C48.6664 41.9118 49.2115 41.3667 49.8832 41.3667ZM51.0998 55.9667H58.3998V51.1001H51.0998V55.9667ZM51.0998 48.6667H58.3998V43.8001H51.0998V48.6667Z" fill="#5D6174"/>
</svg>
