<svg width="70" height="70" viewBox="0 0 70 70" fill="none" xmlns="http://www.w3.org/2000/svg">
<g clip-path="url(#clip0)">
<path d="M12.0332 31.7188H57.9684V67.8107H12.0332V31.7188Z" fill="#ECE2E2"/>
<path d="M57.9686 31.7188V62.3422H24.0641C20.4399 62.3422 17.502 59.4043 17.502 55.78V31.7188H57.9686Z" fill="#F2F2F2"/>
<path d="M67.8092 31.7192H2.1875C11.144 23.6574 4.43723 29.6938 34.9983 2.18945C55.5245 20.6625 57.6111 22.5401 67.8092 31.7192Z" fill="#C79A83"/>
<path d="M61.7362 26.2507H25.7345C19.5909 26.2507 16.6836 18.6744 21.2502 14.5647L35.0008 2.18945L61.7362 26.2507Z" fill="#E0B7A3"/>
<path d="M48.1243 46.3742C48.1243 52.3143 40.2593 57.919 35 60.3735C32.1239 59.0313 28.0088 56.3803 25.37 53.6008C20.6544 48.6358 21.2155 43.9754 24.074 41.2817C27.3703 38.1687 32.7693 38.9592 35 42.9837C36.2308 40.7633 38.6082 39.313 41.3024 39.3773C45.0945 39.4719 48.1243 42.5747 48.1243 46.3742Z" fill="#EA8692"/>
<path d="M48.1196 46.6057C46.8803 48.245 45.2599 49.7101 43.6476 50.9363C39.9564 53.7434 34.6665 53.9576 30.6246 50.8588C28.674 49.3638 26.7095 47.5098 25.4442 45.4127C23.8609 42.7888 25.7376 39.375 28.8747 39.375C31.5105 39.375 33.8059 40.831 34.9994 42.9842C37.2594 38.9069 42.7891 38.1402 46.073 41.4243C47.4568 42.808 48.1881 44.6889 48.1196 46.6057Z" fill="#FE929F"/>
<path d="M22.9701 2.18945V13.017L12.0332 22.8603V2.18945H22.9701Z" fill="#A07765"/>
<path d="M22.9701 2.18945V5.36117L12.0332 15.2044V2.18945H22.9701Z" fill="#C79A83"/>
<path d="M69.2737 30.0932L36.4629 0.56348C35.6311 -0.185291 34.3682 -0.185154 33.5363 0.56348L25.1564 8.10546V4.37678C26.3644 4.37678 27.3438 3.39752 27.3438 2.18939C27.3438 0.981271 26.3644 0.00200441 25.1564 0.00200441C21.6692 0.00200441 13.1124 0.00200441 9.84468 0.00200441C8.6367 0.00200441 7.65729 0.981271 7.65729 2.18939C7.65729 3.39752 8.6367 4.37678 9.84468 4.37678V21.886L0.725593 30.0932C-0.75937 31.4297 0.186949 33.9065 2.18896 33.9065H9.84482V65.6237H6.56373C5.35575 65.6237 4.37635 66.6029 4.37635 67.8111C4.37635 69.0192 5.35575 69.9985 6.56373 69.9985H63.4358C64.644 69.9985 65.6232 69.0192 65.6232 67.8111C65.6232 66.6029 64.644 65.6237 63.4358 65.6237H60.1548V33.9065H67.8106C69.8078 33.9065 70.7624 31.4329 69.2737 30.0932ZM14.2195 4.37678H20.7816V12.0428L14.2195 17.9487V4.37678ZM55.7798 65.6237H14.2195V33.9065H55.7798V65.6237ZM7.88902 29.5318L34.9997 5.13211L62.1103 29.5318C58.9125 29.5318 11.0968 29.5318 7.88902 29.5318Z" fill="black"/>
<path d="M27.1082 58.0629C30.5394 60.6935 33.9334 62.2892 34.0763 62.3557C34.6621 62.6293 35.3399 62.6294 35.9263 62.3557C36.069 62.2892 39.4631 60.6933 42.8943 58.0629C59.7342 45.1522 43.8672 31.6041 35.0013 39.5272C26.1451 31.6121 10.2795 45.1645 27.1082 58.0629ZM28.8766 41.5622C30.6257 41.5622 32.2394 42.5133 33.0881 44.0444C33.9195 45.5442 36.0821 45.5457 36.9144 44.0444C37.7631 42.5133 39.3769 41.5622 41.126 41.5622C43.7737 41.5622 45.9382 43.7035 45.9382 46.3744C45.9382 51.2284 38.7514 55.9769 35.0096 57.9279C30.838 55.7244 24.0643 51.0721 24.0643 46.3744C24.0643 43.721 26.2231 41.5622 28.8766 41.5622Z" fill="black"/>
</g>
<defs>
<clipPath id="clip0">
<rect width="70" height="70" fill="white"/>
</clipPath>
</defs>
</svg>
