<svg width="58" height="55" viewBox="0 0 58 55" fill="none" xmlns="http://www.w3.org/2000/svg">
<path fill-rule="evenodd" clip-rule="evenodd" d="M1 12C1 14.335 3.028 16.22 5.41 15.979C7.486 15.769 9 13.897 9 11.811V1H3.89C2.294 1 1 2.294 1 3.89V12Z" fill="white"/>
<path fill-rule="evenodd" clip-rule="evenodd" d="M1 12C1 14.335 3.028 16.22 5.41 15.979C7.486 15.769 9 13.897 9 11.811V1H3.89C2.294 1 1 2.294 1 3.89V12Z" stroke="#1AACFF" stroke-width="2" stroke-linecap="round" stroke-linejoin="round"/>
<path fill-rule="evenodd" clip-rule="evenodd" d="M9 12C9 14.2 10.8 16 13 16C15.2 16 17 14.2 17 12V1H9V12Z" fill="#D0E8F9"/>
<path fill-rule="evenodd" clip-rule="evenodd" d="M9 12C9 14.2 10.8 16 13 16C15.2 16 17 14.2 17 12V1H9V12Z" stroke="#1AACFF" stroke-width="2" stroke-linecap="round" stroke-linejoin="round"/>
<path fill-rule="evenodd" clip-rule="evenodd" d="M17 12C17 14.2 18.8 16 21 16C23.2 16 25 14.2 25 12V1H17V12Z" fill="white"/>
<path fill-rule="evenodd" clip-rule="evenodd" d="M17 12C17 14.2 18.8 16 21 16C23.2 16 25 14.2 25 12V1H17V12Z" stroke="#1AACFF" stroke-width="2" stroke-linecap="round" stroke-linejoin="round"/>
<path fill-rule="evenodd" clip-rule="evenodd" d="M25 12C25 14.2 26.8 16 29 16C31.2 16 33 14.2 33 12V1H25V12Z" fill="#D0E8F9"/>
<path fill-rule="evenodd" clip-rule="evenodd" d="M25 12C25 14.2 26.8 16 29 16C31.2 16 33 14.2 33 12V1H25V12Z" stroke="#1AACFF" stroke-width="2" stroke-linecap="round" stroke-linejoin="round"/>
<path fill-rule="evenodd" clip-rule="evenodd" d="M33 12C33 14.2 34.8 16 37 16C39.2 16 41 14.2 41 12V1H33V12Z" fill="white"/>
<path fill-rule="evenodd" clip-rule="evenodd" d="M33 12C33 14.2 34.8 16 37 16C39.2 16 41 14.2 41 12V1H33V12Z" stroke="#1AACFF" stroke-width="2" stroke-linecap="round" stroke-linejoin="round"/>
<path fill-rule="evenodd" clip-rule="evenodd" d="M41 12C41 14.2 42.8 16 45 16C47.2 16 49 14.2 49 12V1H41V12Z" fill="#D0E8F9"/>
<path fill-rule="evenodd" clip-rule="evenodd" d="M41 12C41 14.2 42.8 16 45 16C47.2 16 49 14.2 49 12V1H41V12Z" stroke="#1AACFF" stroke-width="2" stroke-linecap="round" stroke-linejoin="round"/>
<path fill-rule="evenodd" clip-rule="evenodd" d="M49 12C49 14.335 51.028 16.22 53.41 15.979C55.486 15.769 57 13.897 57 11.811V3.89C57 2.294 55.706 1 54.11 1H49V12Z" fill="white"/>
<path fill-rule="evenodd" clip-rule="evenodd" d="M49 12C49 14.335 51.028 16.22 53.41 15.979C55.486 15.769 57 13.897 57 11.811V3.89C57 2.294 55.706 1 54.11 1H49V12Z" stroke="#1AACFF" stroke-width="2" stroke-linecap="round" stroke-linejoin="round"/>
<path fill-rule="evenodd" clip-rule="evenodd" d="M49 12C49 14.2 47.2 16 45 16C42.8 16 41 14.2 41 12C41 14.2 39.2 16 37 16C34.8 16 33 14.2 33 12C33 14.2 31.2 16 29 16C26.8 16 25 14.2 25 12C25 14.2 23.2 16 21 16C18.8 16 17 14.2 17 12C17 14.2 15.2 16 13 16C10.8 16 9 14.2 9 12C9 14.2 7.2 16 5 16C4.653 16 4.322 15.941 4 15.857V22H54V15.857C53.678 15.941 53.347 16 53 16C50.8 16 49 14.2 49 12Z" fill="white"/>
<path fill-rule="evenodd" clip-rule="evenodd" d="M49 12C49 14.2 47.2 16 45 16C42.8 16 41 14.2 41 12C41 14.2 39.2 16 37 16C34.8 16 33 14.2 33 12C33 14.2 31.2 16 29 16C26.8 16 25 14.2 25 12C25 14.2 23.2 16 21 16C18.8 16 17 14.2 17 12C17 14.2 15.2 16 13 16C10.8 16 9 14.2 9 12C9 14.2 7.2 16 5 16C4.653 16 4.322 15.941 4 15.857V22H54V15.857C53.678 15.941 53.347 16 53 16C50.8 16 49 14.2 49 12Z" stroke="#1AACFF" stroke-width="2" stroke-linecap="round" stroke-linejoin="round"/>
<path fill-rule="evenodd" clip-rule="evenodd" d="M9 53.9998H23V25.9998H9V53.9998Z" stroke="#1AACFF" stroke-width="2" stroke-linecap="round" stroke-linejoin="round"/>
<path fill-rule="evenodd" clip-rule="evenodd" d="M4 53.9998H54V21.9998H4V53.9998Z" stroke="#1AACFF" stroke-width="2" stroke-linecap="round" stroke-linejoin="round"/>
<path d="M20 42H23" stroke="#1AACFF" stroke-width="2" stroke-linecap="round" stroke-linejoin="round"/>
<path fill-rule="evenodd" clip-rule="evenodd" d="M28 47.9998H50V25.9998H28V47.9998Z" stroke="#1AACFF" stroke-width="2" stroke-linecap="round" stroke-linejoin="round"/>
<path fill-rule="evenodd" clip-rule="evenodd" d="M33 48C33 43.025 30.764 39 28 39C31.316 39 34 33.186 34 26H28V48H33Z" fill="#D0E8F9"/>
<path fill-rule="evenodd" clip-rule="evenodd" d="M33 48C33 43.025 30.764 39 28 39C31.316 39 34 33.186 34 26H28V48H33Z" stroke="#1AACFF" stroke-width="2" stroke-linecap="round" stroke-linejoin="round"/>
<path fill-rule="evenodd" clip-rule="evenodd" d="M45 48C45 43.025 47.236 39 50 39C46.684 39 44 33.186 44 26H50V48H45Z" fill="#D0E8F9"/>
<path fill-rule="evenodd" clip-rule="evenodd" d="M45 48C45 43.025 47.236 39 50 39C46.684 39 44 33.186 44 26H50V48H45Z" stroke="#1AACFF" stroke-width="2" stroke-linecap="round" stroke-linejoin="round"/>
<path d="M39 43V48" stroke="#1AACFF" stroke-width="2" stroke-linecap="round" stroke-linejoin="round"/>
<path d="M36 43H42" stroke="#1AACFF" stroke-width="2" stroke-linecap="round" stroke-linejoin="round"/>
<path fill-rule="evenodd" clip-rule="evenodd" d="M13 35.9998H19V29.9998H13V35.9998Z" fill="#D0E8F9"/>
<path fill-rule="evenodd" clip-rule="evenodd" d="M13 35.9998H19V29.9998H13V35.9998Z" stroke="#1AACFF" stroke-width="2" stroke-linecap="round" stroke-linejoin="round"/>
</svg>
