<svg width="24" height="24" viewBox="0 0 24 24" fill="none" xmlns="http://www.w3.org/2000/svg">
<path d="M14.7115 14.726C15.9808 13.4567 16.6154 11.9327 16.6154 10.1538C16.6154 8.37499 15.9832 6.85337 14.7188 5.58894C13.4543 4.32451 11.9327 3.69231 10.1538 3.69231C8.37499 3.69231 6.85337 4.32451 5.58894 5.58894C4.32451 6.85337 3.69231 8.37499 3.69231 10.1538C3.69231 11.9327 4.32451 13.4543 5.58894 14.7188C6.85337 15.9832 8.37499 16.6154 10.1538 16.6154C11.9327 16.6154 13.4519 15.9856 14.7115 14.726ZM24 22.1538C24 22.6538 23.8173 23.0865 23.4519 23.4519C23.0865 23.8173 22.6538 24 22.1538 24C21.6346 24 21.2019 23.8173 20.8558 23.4519L15.9087 18.5192C14.1875 19.7115 12.2692 20.3077 10.1538 20.3077C8.77884 20.3077 7.46395 20.0409 6.20914 19.5072C4.95432 18.9736 3.8726 18.2524 2.96394 17.3438C2.05528 16.4351 1.33414 15.3534 0.800481 14.0986C0.266824 12.8437 0 11.5289 0 10.1538C0 8.77884 0.266824 7.46395 0.800481 6.20914C1.33414 4.95432 2.05528 3.8726 2.96394 2.96394C3.8726 2.05528 4.95432 1.33414 6.20914 0.800481C7.46395 0.266824 8.77884 0 10.1538 0C11.5289 0 12.8437 0.266824 14.0986 0.800481C15.3534 1.33414 16.4351 2.05528 17.3438 2.96394C18.2524 3.8726 18.9736 4.95432 19.5072 6.20914C20.0409 7.46395 20.3077 8.77884 20.3077 10.1538C20.3077 12.2692 19.7115 14.1875 18.5192 15.9087L23.4663 20.8558C23.8221 21.2115 24 21.6442 24 22.1538Z" fill="white"/>
</svg>
