<svg width="25" height="25" viewBox="0 0 25 25" fill="none" xmlns="http://www.w3.org/2000/svg">
<path d="M0.52194 4.64629C3.95309 7.5521 9.9737 12.6643 11.7432 14.2583C11.9808 14.4734 12.2356 14.5828 12.5001 14.5828C12.764 14.5828 13.0184 14.4745 13.2554 14.2604C15.0264 12.6648 21.047 7.5521 24.4782 4.64629C24.6919 4.46572 24.7244 4.14834 24.5515 3.92759C24.1517 3.41748 23.5556 3.125 22.9167 3.125H2.08341C1.4446 3.125 0.848453 3.41748 0.448697 3.92764C0.275748 4.14834 0.308317 4.46572 0.52194 4.64629Z" fill="#334164"/>
<path d="M24.6979 6.22098C24.5133 6.13504 24.2961 6.16502 24.1425 6.29627C20.3374 9.52196 15.4811 13.6566 13.9531 15.0334C13.0956 15.8076 11.9054 15.8076 11.0458 15.0324C9.41719 13.565 3.96367 8.92889 0.85752 6.29623C0.702881 6.16498 0.485205 6.13602 0.3021 6.22093C0.118018 6.30643 0 6.49056 0 6.69349V19.7916C0 20.9407 0.934326 21.875 2.08335 21.875H22.9167C24.0657 21.875 25 20.9407 25 19.7916V6.69349C25 6.49056 24.882 6.30594 24.6979 6.22098Z" fill="#334164"/>
</svg>
