<svg width="25" height="25" viewBox="0 0 25 25" fill="none" xmlns="http://www.w3.org/2000/svg">
<g clip-path="url(#clip0)">
<path d="M10.7823 0C8.11365 0 5.9425 2.17109 5.9425 4.8398C5.9425 7.5084 8.11365 9.67954 10.7823 9.67954C13.451 9.67954 15.622 7.50845 15.622 4.8398C15.622 2.17109 13.451 0 10.7823 0Z" fill="#334164"/>
<path d="M13.6385 10.6984H7.92609C5.9068 10.6984 4.26398 12.3412 4.26398 14.3605V21.5377C4.26398 22.7493 5.24967 23.735 6.46124 23.735H10.7061C10.0038 22.7184 9.59171 21.4866 9.59171 20.1603C9.59171 16.6839 12.4199 13.8557 15.8963 13.8557C16.3728 13.8557 16.8369 13.9092 17.2834 14.0098C17.1063 12.1545 15.5394 10.6984 13.6385 10.6984Z" fill="#334164"/>
<path d="M15.8963 15.3206C13.2277 15.3206 11.0566 17.4917 11.0566 20.1603C11.0566 22.829 13.2277 25.0001 15.8963 25.0001C18.565 25.0001 20.7361 22.829 20.7361 20.1603C20.7361 17.4917 18.565 15.3206 15.8963 15.3206ZM17.6367 20.8927H16.6287V21.9008C16.6287 22.3053 16.3008 22.6332 15.8963 22.6332C15.4918 22.6332 15.1638 22.3053 15.1638 21.9008V20.8927H14.1558C13.7513 20.8927 13.4234 20.5648 13.4234 20.1603C13.4234 19.7558 13.7513 19.4279 14.1558 19.4279H15.1638V18.4198C15.1638 18.0153 15.4918 17.6874 15.8963 17.6874C16.3008 17.6874 16.6287 18.0153 16.6287 18.4198V19.4279H17.6367C18.0412 19.4279 18.3692 19.7558 18.3692 20.1603C18.3692 20.5648 18.0412 20.8927 17.6367 20.8927Z" fill="#334164"/>
</g>
<defs>
<clipPath id="clip0">
<rect width="25" height="25" fill="white"/>
</clipPath>
</defs>
</svg>
