<svg width="136" height="88" viewBox="0 0 136 88" fill="none" xmlns="http://www.w3.org/2000/svg">
<path d="M85.5 41.3103V35.654C85.5 33.9236 84.7529 32.2775 83.4506 31.1381L52.9506 4.45606C50.6886 2.4772 47.3114 2.47719 45.0494 4.45605L14.5494 31.1381C13.2471 32.2775 12.5 33.9236 12.5 35.654V80C12.5 83.3137 15.1863 86 18.5 86H55.4231" stroke="#5D6174" stroke-width="4" stroke-miterlimit="10" stroke-linecap="round"/>
<path d="M95.5 41.5L54 5.40732C52.2559 3.85747 51.3266 3 48.981 3C46.6354 3 45.7441 3.85747 44 5.40732L2 42" stroke="#5D6174" stroke-width="4" stroke-linecap="round" stroke-linejoin="round"/>
<path d="M87.8416 54.0562L91.8947 61.9972H98.8026C99.1822 61.9896 99.5553 62.0958 99.8735 62.3019C100.192 62.508 100.44 62.8045 100.587 63.1529C100.734 63.5014 100.772 63.8857 100.696 64.2559C100.621 64.6262 100.435 64.9653 100.163 65.2292L93.8239 71.4315L97.3347 79.463C97.4885 79.8307 97.5225 80.2371 97.432 80.6251C97.3414 81.013 97.131 81.3629 96.8301 81.6255C96.5293 81.8882 96.1532 82.0503 95.7549 82.0891C95.3566 82.1279 94.9561 82.0414 94.6098 81.8418L86.117 77.081L77.6242 81.8418C77.2779 82.0414 76.8774 82.1279 76.4791 82.0891C76.0808 82.0503 75.7048 81.8882 75.4039 81.6255C75.1031 81.3629 74.8926 81.013 74.8021 80.6251C74.7116 80.2371 74.7456 79.8307 74.8994 79.463L78.4134 71.4315L72.0706 65.2195C71.799 64.9556 71.6134 64.6165 71.5378 64.2462C71.4623 63.876 71.5004 63.4917 71.6471 63.1432C71.7938 62.7948 72.0424 62.4983 72.3606 62.2922C72.6787 62.0861 73.0518 61.9799 73.4314 61.9875H80.3393L84.3957 54.0562C84.5565 53.7386 84.8026 53.4717 85.1069 53.2852C85.4111 53.0987 85.7613 53 86.1186 53C86.4759 53 86.8262 53.0987 87.1304 53.2852C87.4346 53.4717 87.6808 53.7386 87.8416 54.0562V54.0562Z" stroke="#30B4FF" stroke-width="4" stroke-linecap="round" stroke-linejoin="round"/>
<path d="M106.869 59.8467C107.162 59.8451 107.448 59.9245 107.697 60.0761C107.946 60.2277 108.148 60.4454 108.278 60.7046L111.59 67.1701H117.234C117.544 67.1639 117.849 67.2503 118.109 67.4181C118.369 67.5859 118.572 67.8273 118.692 68.111C118.812 68.3947 118.843 68.7076 118.781 69.0091C118.719 69.3105 118.568 69.5866 118.346 69.8015L113.163 74.8513L116.024 81.3905C116.15 81.6899 116.177 82.0208 116.103 82.3366C116.029 82.6525 115.858 82.9374 115.612 83.1512C115.366 83.3651 115.059 83.4971 114.733 83.5286C114.408 83.5602 114.081 83.4898 113.798 83.3273L106.869 79.4511L105.033 80.4748" stroke="#A3DEFF" stroke-width="4" stroke-linecap="round" stroke-linejoin="round"/>
<path d="M125.222 67.5488C125.425 67.5477 125.623 67.6029 125.796 67.7082C125.969 67.8135 126.108 67.9646 126.199 68.1446L128.494 72.6345H132.406C132.621 72.6302 132.832 72.6902 133.013 72.8068C133.193 72.9233 133.334 73.091 133.417 73.288C133.5 73.485 133.521 73.7023 133.478 73.9116C133.436 74.1209 133.331 74.3127 133.177 74.4619L129.585 77.9687L131.567 82.5098C131.655 82.7177 131.674 82.9475 131.623 83.1669C131.571 83.3862 131.452 83.584 131.282 83.7325C131.111 83.881 130.898 83.9727 130.673 83.9946C130.447 84.0166 130.22 83.9677 130.024 83.8548L125.222 81.163L123.949 81.8739" stroke="#D1EEFF" stroke-width="4" stroke-linecap="round" stroke-linejoin="round"/>
<path d="M37.5 50C37.5 46.6863 40.1863 44 43.5 44H55.5C58.8137 44 61.5 46.6863 61.5 50V85C61.5 85.5523 61.0523 86 60.5 86H38.5C37.9477 86 37.5 85.5523 37.5 85V50Z" stroke="#5D6174" stroke-width="4" stroke-miterlimit="10" stroke-linecap="round"/>
</svg>
