<svg width="76" height="86" viewBox="0 0 76 86" fill="none" xmlns="http://www.w3.org/2000/svg">
<path d="M12.6667 0H2.53333C1.13406 0 0 1.12788 0 2.51953V83.4805C0 84.8721 1.13406 86 2.53333 86H12.6667C14.0659 86 15.2 84.8721 15.2 83.4805V15.2852H30.4V20.3242H27.8667C23.6761 20.3242 20.2667 23.7151 20.2667 27.8828V68.1953C20.2667 72.363 23.6761 75.7539 27.8667 75.7539H68.4C72.5906 75.7539 76 72.363 76 68.1953V27.8828C76 23.7151 72.5906 20.3242 68.4 20.3242H65.8667V15.2852H73.4667C74.8659 15.2852 76 14.1573 76 12.7656C76 11.374 74.8659 10.2461 73.4667 10.2461H15.2V2.51953C15.2 1.12788 14.0659 0 12.6667 0ZM70.9333 27.8828V68.1953C70.9333 69.5843 69.7966 70.7148 68.4 70.7148H27.8667C26.47 70.7148 25.3333 69.5843 25.3333 68.1953V27.8828C25.3333 26.4938 26.47 25.3633 27.8667 25.3633H68.4C69.7966 25.3633 70.9333 26.4938 70.9333 27.8828ZM60.8 20.3242H35.4667V15.2852H60.8V20.3242ZM10.1333 80.9609H5.06667V5.03906H10.1333V80.9609Z" fill="#2F344C"/>
<path d="M46.3426 31.1405L31.1426 46.2577C30.153 47.2412 30.153 48.8363 31.1426 49.8204C32.1315 50.8046 33.7359 50.8046 34.7249 49.8204L35.4671 49.0823V63.1562C35.4671 64.5479 36.6018 65.6758 38.0004 65.6758H58.2671C59.6663 65.6758 60.8004 64.5479 60.8004 63.1562V49.083L61.5426 49.8204C62.5322 50.8046 64.1359 50.8046 65.1255 49.8204C66.1145 48.8369 66.1145 47.2419 65.1255 46.2577L49.9255 31.1405C48.9359 30.1563 47.3315 30.1563 46.3426 31.1405ZM55.7337 60.6367H50.6671V53.0781C50.6671 51.6865 49.533 50.5586 48.1337 50.5586C46.7345 50.5586 45.6004 51.6865 45.6004 53.0781V60.6367H40.5337V44.0439L48.1337 36.4853L55.7337 44.0439V60.6367Z" fill="#2F344C"/>
<path d="M50.6663 43C50.6663 44.3916 49.5322 45.5195 48.1329 45.5195C46.7337 45.5195 45.5996 44.3916 45.5996 43C45.5996 41.6084 46.7337 40.4805 48.1329 40.4805C49.5322 40.4805 50.6663 41.6084 50.6663 43Z" fill="#2F344C"/>
</svg>
