<svg width="86" height="86" viewBox="0 0 86 86" fill="none" xmlns="http://www.w3.org/2000/svg">
<path d="M85.9778 31.3305C85.9778 28.4376 84.3191 25.824 81.7615 24.5431C82.3747 21.4081 82.0363 18.0927 80.6538 15.0743C80.3087 14.3208 79.6114 13.7828 78.7884 13.6349C77.9653 13.4867 77.1213 13.7476 76.53 14.3329L68.7497 22.0321L65.7189 19.0329L73.5017 11.331C74.0927 10.7463 74.3559 9.91216 74.2063 9.09885C74.0566 8.28555 73.5131 7.59654 72.7518 7.25523C66.7641 4.56941 59.6182 5.85538 54.97 10.4552C51.3985 13.9894 49.7769 18.8518 50.4718 23.7234H46.8713L45.9126 22.7745C45.109 21.9794 44.0406 21.5413 42.9039 21.5413C42.0537 21.5413 41.2418 21.7862 40.5503 22.2424L37.141 18.8686C37.9265 17.3943 37.6924 15.5117 36.4497 14.2822L25.8109 3.75392C20.843 -1.16253 12.7577 -1.2628 7.78705 3.53018C5.32392 5.90526 3.95518 9.08609 3.93293 12.487C3.93005 12.9188 3.94941 13.3475 3.98967 13.7716C1.55609 15.1012 0.0224215 17.6349 0.0224215 20.4294L0 80.7869C0 82.6751 1.02035 84.3319 2.54399 85.2465C3.33706 85.7244 4.26773 86 5.26226 86H80.7377C81.7323 86 82.6629 85.7244 83.456 85.2465C84.9798 84.3319 86 82.6751 86 80.7869L85.9778 31.3305ZM5.11872 80.816V38.9106H80.8814V80.816H5.11872ZM79.9605 29.3685C80.5317 29.8472 80.8813 30.5589 80.8813 31.3305V33.8709H76.0571C76.5296 33.4982 76.9852 33.0969 77.4204 32.6664C78.4265 31.6708 79.2749 30.559 79.9605 29.3685ZM55.0646 26.5224C55.6955 25.8983 55.9501 24.9931 55.7359 24.1363C54.8182 20.4675 55.8796 16.6847 58.5751 14.0171C60.7539 11.8613 63.7395 10.777 66.719 10.9133L60.3141 17.2516C59.3198 18.2355 59.3198 19.8299 60.3141 20.8138L66.9473 27.3781C68.0825 28.3291 69.5379 28.233 70.5523 27.3781L76.9528 21.0441C77.0893 23.992 75.9941 26.9479 73.8153 29.1041C71.1205 31.7708 67.2993 32.8206 63.5938 31.9134C62.7263 31.7011 61.8101 31.9532 61.1786 32.5782L59.8722 33.8709H47.6807L55.0646 26.5224ZM11.3451 7.13832C14.3282 4.26186 19.2004 4.34147 22.2061 7.31603L32.1578 17.1644C31.3585 18.6543 31.5885 20.5036 32.8449 21.7467L37.4831 26.3366C38.2867 27.1318 39.3551 27.5699 40.4918 27.5699C41.342 27.5699 42.1539 27.3248 42.8454 26.8688L45.1778 29.177L40.4589 33.8709H31.1052C30.9831 33.6114 30.8166 33.3673 30.6002 33.1532L25.9624 28.5634C24.7192 27.333 22.8164 27.1009 21.3257 27.8774L11.2724 17.9286C9.81263 16.4839 9.01616 14.563 9.02941 12.5195C9.04249 10.4767 9.86495 8.56555 11.3451 7.13832ZM7.66713 21.4909L18.4138 32.126C19.6708 33.3697 21.5397 33.5979 23.0462 32.8076L24.1208 33.8709H5.11872V20.4294C5.11872 19.8581 5.30897 19.3196 5.6407 18.8835C6.19207 19.8238 6.86862 20.7008 7.66713 21.4909Z" fill="#2F344C"/>
</svg>
