<svg width="46" height="48" viewBox="0 0 46 48" fill="none" xmlns="http://www.w3.org/2000/svg">
<circle cx="9.8995" cy="29.5771" r="3" transform="rotate(-45 9.8995 29.5771)" stroke="#5D6174" stroke-width="2"/>
<circle cx="14.1421" cy="33.8198" r="3" transform="rotate(-45 14.1421 33.8198)" stroke="#5D6174" stroke-width="2"/>
<circle cx="18.3848" cy="38.0624" r="3" transform="rotate(-45 18.3848 38.0624)" stroke="#5D6174" stroke-width="2"/>
<path d="M7.77817 27.4558L2.82843 22.506L15.5563 9.77812L17.2132 11.435C17.9633 12.1851 18.9808 12.6066 20.0416 12.6066H22.6274M22.6274 12.6066L26.6274 12.6066C27.6883 12.6066 28.7057 12.1851 29.4558 11.435L31.1127 9.77812L43.1335 21.7989L36.7696 28.1629L29.4558 20.8492C28.7057 20.099 27.6883 19.6776 26.6274 19.6776H24.0416L20.5061 23.2132C19.3345 24.3847 17.435 24.3847 16.2635 23.2132V23.2132C15.0919 22.0416 15.0919 20.1421 16.2635 18.9705L22.6274 12.6066Z" stroke="#5D6174" stroke-width="2"/>
<path d="M20.8596 40.5373L22.981 42.6586C23.9573 43.6349 25.5402 43.6349 26.5165 42.6586V42.6586C27.4928 41.6823 27.4928 40.0994 26.5165 39.1231L24.7487 37.3553" stroke="#5D6174" stroke-width="2"/>
<path d="M24.3952 37.0017L26.5165 39.1231C27.4928 40.0994 29.0757 40.0994 30.052 39.1231V39.1231C31.0283 38.1467 31.0283 36.5638 30.052 35.5875L28.2843 33.8198" stroke="#5D6174" stroke-width="2"/>
<path d="M27.9307 33.4662L30.052 35.5875C31.0283 36.5638 32.6113 36.5638 33.5876 35.5875V35.5875C34.5639 34.6112 34.5639 33.0283 33.5876 32.052L31.8198 30.2842" stroke="#5D6174" stroke-width="2"/>
<path d="M31.4663 29.9307L33.5876 32.052C34.5639 33.0283 36.1468 33.0283 37.1231 32.052V32.052C38.0994 31.0757 38.0994 29.4928 37.1231 28.5165L35.3553 26.7487" stroke="#5D6174" stroke-width="2"/>
</svg>
