<svg width="24" height="24" viewBox="0 0 24 24" fill="none" xmlns="http://www.w3.org/2000/svg">
<path d="M22 0H2C1.46957 0 0.960859 0.210714 0.585786 0.585786C0.210714 0.960859 0 1.46957 0 2L0 22C0 22.5304 0.210714 23.0391 0.585786 23.4142C0.960859 23.7893 1.46957 24 2 24H22C22.5304 24 23.0391 23.7893 23.4142 23.4142C23.7893 23.0391 24 22.5304 24 22V2C24 1.46957 23.7893 0.960859 23.4142 0.585786C23.0391 0.210714 22.5304 0 22 0V0ZM22 21.5C22 21.6326 21.9473 21.7598 21.8536 21.8536C21.7598 21.9473 21.6326 22 21.5 22H2.5C2.36739 22 2.24021 21.9473 2.14645 21.8536C2.05268 21.7598 2 21.6326 2 21.5V2.5C2 2.36739 2.05268 2.24021 2.14645 2.14645C2.24021 2.05268 2.36739 2 2.5 2H21.5C21.6326 2 21.7598 2.05268 21.8536 2.14645C21.9473 2.24021 22 2.36739 22 2.5V21.5Z" fill="#A3A5B0"/>
<path d="M10.5 5H5C4.58579 5 4.25 5.33579 4.25 5.75V6.25C4.25 6.66421 4.58579 7 5 7H10.5C10.9142 7 11.25 6.66421 11.25 6.25V5.75C11.25 5.33579 10.9142 5 10.5 5Z" fill="#A3A5B0"/>
<path d="M10.5 10H5C4.58579 10 4.25 10.3358 4.25 10.75V11.25C4.25 11.6642 4.58579 12 5 12H10.5C10.9142 12 11.25 11.6642 11.25 11.25V10.75C11.25 10.3358 10.9142 10 10.5 10Z" fill="#A3A5B0"/>
<path d="M10.5 15H5C4.58579 15 4.25 15.3358 4.25 15.75V16.25C4.25 16.6642 4.58579 17 5 17H10.5C10.9142 17 11.25 16.6642 11.25 16.25V15.75C11.25 15.3358 10.9142 15 10.5 15Z" fill="#A3A5B0"/>
<path d="M19 18H13.5C13.0858 18 12.75 18.3358 12.75 18.75V19.25C12.75 19.6642 13.0858 20 13.5 20H19C19.4142 20 19.75 19.6642 19.75 19.25V18.75C19.75 18.3358 19.4142 18 19 18Z" fill="#A3A5B0"/>
<path d="M19 8H13.5C13.0858 8 12.75 8.33579 12.75 8.75V9.25C12.75 9.66421 13.0858 10 13.5 10H19C19.4142 10 19.75 9.66421 19.75 9.25V8.75C19.75 8.33579 19.4142 8 19 8Z" fill="#A3A5B0"/>
<path d="M19 13H13.5C13.0858 13 12.75 13.3358 12.75 13.75V14.25C12.75 14.6642 13.0858 15 13.5 15H19C19.4142 15 19.75 14.6642 19.75 14.25V13.75C19.75 13.3358 19.4142 13 19 13Z" fill="#A3A5B0"/>
</svg>
