<svg width="25" height="25" viewBox="0 0 25 25" fill="none" xmlns="http://www.w3.org/2000/svg">
<path d="M0.86249 13.8917C0.590615 14.2083 0.458324 14.6114 0.490615 15.0281C0.522907 15.4448 0.714574 15.8239 1.03228 16.0948L8.74374 22.7052C9.0302 22.95 9.38541 23.0812 9.75832 23.0812C9.80416 23.0812 9.85103 23.0792 9.89791 23.075C10.3198 23.0375 10.7 22.8364 10.9687 22.5104L24.1583 6.45728C24.4229 6.13436 24.5469 5.72811 24.5062 5.31249C24.4646 4.89686 24.2656 4.52186 23.9427 4.25624L21.5281 2.2729C20.8625 1.72707 19.8771 1.8229 19.3292 2.48853L9.17811 14.8437L5.09895 11.3489C4.44478 10.7906 3.45728 10.8646 2.89582 11.5187L0.86249 13.8917Z" fill="white"/>
<path d="M0.86249 13.8917C0.590615 14.2083 0.458324 14.6114 0.490615 15.0281C0.522907 15.4448 0.714574 15.8239 1.03228 16.0948L8.74374 22.7052C9.0302 22.95 9.38541 23.0812 9.75832 23.0812C9.80416 23.0812 9.85103 23.0792 9.89791 23.075C10.3198 23.0375 10.7 22.8364 10.9687 22.5104L24.1583 6.45728C24.4229 6.13436 24.5469 5.72811 24.5062 5.31249C24.4646 4.89686 24.2656 4.52186 23.9427 4.25624L21.5281 2.2729C20.8625 1.72707 19.8771 1.8229 19.3292 2.48853L9.17811 14.8437L5.09895 11.3489C4.44478 10.7906 3.45728 10.8646 2.89582 11.5187L0.86249 13.8917Z" fill="white"/>
</svg>
