<svg width="32" height="32" viewBox="0 0 32 32" fill="none" xmlns="http://www.w3.org/2000/svg">
<path d="M10.7135 13.7195C10.232 12.705 9.19747 12 7.99997 12H3.99999C2.34299 12 1 13.343 1 15V17.8365C1 18.5496 1.40285 19.2014 2.0406 19.5203V19.5203C2.63531 19.8176 3.02904 20.4067 3.07641 21.0699L3.18981 22.6574C3.36458 25.1042 5.40057 27 7.85361 27H8.99997" stroke="#181E39" stroke-width="2" stroke-linecap="round" stroke-linejoin="round"/>
<path d="M5.99999 9.00002C7.65684 9.00002 8.99998 7.65688 8.99998 6.00002C8.99998 4.34317 7.65684 3.00002 5.99999 3.00002C4.34314 3.00002 3 4.34317 3 6.00002C3 7.65688 4.34314 9.00002 5.99999 9.00002Z" stroke="#181E39" stroke-width="2" stroke-linecap="round" stroke-linejoin="round"/>
<path d="M21.2866 13.7195C21.7681 12.705 22.8026 12 24.0001 12H28.0001C29.6571 12 31.0001 13.343 31.0001 15V17.8365C31.0001 18.5496 30.5972 19.2014 29.9595 19.5203V19.5203C29.3648 19.8176 28.971 20.4067 28.9237 21.0699L28.8103 22.6574C28.6355 25.1042 26.5995 27 24.1465 27H23.0001" stroke="#181E39" stroke-width="2" stroke-linecap="round" stroke-linejoin="round"/>
<path d="M26 9.00002C27.6568 9.00002 29 7.65688 29 6.00002C29 4.34317 27.6568 3.00002 26 3.00002C24.3431 3.00002 23 4.34317 23 6.00002C23 7.65688 24.3431 9.00002 26 9.00002Z" stroke="#181E39" stroke-width="2" stroke-linecap="round" stroke-linejoin="round"/>
<path d="M19.1871 28.0058C19.0819 29.6888 17.6863 31 16 31V31C14.3137 31 12.918 29.6888 12.8129 28.0058L12.577 24.2315C12.5316 23.5054 12.0034 22.9006 11.29 22.758V22.758C10.5399 22.6079 10 21.9493 10 21.1844V16C10 13.791 11.791 12 14 12H18C20.209 12 22 13.791 22 16V21.1844C22 21.9493 21.46 22.6079 20.7099 22.758V22.758C19.9965 22.9006 19.4684 23.5054 19.423 24.2315L19.1871 28.0058Z" stroke="#181E39" stroke-width="2" stroke-linecap="round" stroke-linejoin="round"/>
<path d="M16 9C18.2091 9 20 7.20914 20 5C20 2.79086 18.2091 1 16 1C13.7909 1 12 2.79086 12 5C12 7.20914 13.7909 9 16 9Z" stroke="#181E39" stroke-width="2" stroke-linecap="round" stroke-linejoin="round"/>
</svg>
