<svg width="113" height="38" viewBox="0 0 113 38" fill="none" xmlns="http://www.w3.org/2000/svg">
<path d="M1.14142 38H111.741C112.041 38 112.341 37.8 112.541 37.6C112.741 37.3 112.741 37 112.741 36.7C110.041 27.7 102.341 21.1 93.1414 19.6C93.1414 19.4 93.1414 19.2 93.1414 19C93.1414 12.5 87.9414 7.3 81.4414 7.3C81.0414 7.3 80.7414 7.3 80.3414 7.4C77.2414 2.8 72.1414 0 66.4414 0C59.8414 0 53.8414 4 51.1414 10C49.0414 9.1 46.8414 8.7 44.5414 8.7C36.5414 8.7 29.6414 14.2 27.8414 21.9C25.7414 21.3 23.6414 21 21.5414 21C11.6414 21 3.04142 27.3 0.0414183 36.7C-0.0585817 37 0.0414244 37.3 0.141424 37.6C0.441424 37.8 0.741424 38 1.14142 38ZM21.6414 23C23.9414 23 26.1414 23.4 28.3414 24.1C28.6414 24.2 28.9414 24.2 29.1414 24C29.4414 23.8 29.5414 23.6 29.6414 23.3C30.8414 15.9 37.1414 10.6 44.5414 10.6C46.8414 10.6 49.0414 11.1 51.2414 12.2C51.5414 12.3 51.7414 12.3 52.0414 12.2C52.3414 12.1 52.5414 11.9 52.6414 11.6C54.7414 5.8 60.3414 1.9 66.4414 1.9C71.5414 1.9 76.2414 4.5 78.9414 8.9C79.1414 9.2 79.5414 9.4 79.9414 9.4C80.5414 9.3 80.9414 9.3 81.4414 9.3C86.8414 9.3 91.1414 13.7 91.1414 19C91.1414 19.4 91.1414 19.8 91.0414 20.3C91.0414 20.6 91.0414 20.8 91.2414 21C91.4414 21.2 91.6414 21.3 91.9414 21.4C100.341 22.4 107.441 28 110.441 35.9H2.54142C5.64142 28.2 13.1414 23 21.6414 23Z" fill="#444A67"/>
</svg>
