<svg width="19" height="15" viewBox="0 0 19 15" fill="none" xmlns="http://www.w3.org/2000/svg">
<path d="M17.5291 0.7091C17.0814 0.249914 16.5476 0.0203247 15.9277 0.0203247C15.3078 0.0203247 14.7797 0.249914 14.3435 0.7091L6.38815 9.02739L4.3907 6.9434C3.95448 6.48422 3.42642 6.25463 2.80652 6.25463C2.18662 6.25463 1.65282 6.48422 1.20512 6.9434C0.768891 7.40259 0.550781 7.9589 0.550781 8.61236C0.550781 9.26581 0.768891 9.82213 1.20512 10.2813L4.78675 14.0254C5.23446 14.4846 5.76825 14.7142 6.38815 14.7142C7.00805 14.7142 7.53611 14.4846 7.97234 14.0254L17.5291 4.04701C17.9653 3.57605 18.1834 3.0168 18.1834 2.36923C18.1834 1.72166 17.9653 1.16829 17.5291 0.7091Z" fill="white"/>
</svg>
