<svg width="25" height="25" viewBox="0 0 25 25" fill="none" xmlns="http://www.w3.org/2000/svg">
<g clip-path="url(#clip0)">
<path d="M12.4999 9.09088C10.6192 9.09088 9.09082 10.6193 9.09082 12.5C9.09082 14.3807 10.6192 15.9091 12.4999 15.9091C14.3806 15.9091 15.909 14.3807 15.909 12.5C15.909 10.6193 14.3806 9.09088 12.4999 9.09088Z" fill="white"/>
<path d="M12.5 3.97729C6.81819 3.97729 1.96593 7.51135 0 12.5C1.96593 17.4886 6.81819 21.0228 12.5 21.0228C18.1875 21.0228 23.0341 17.4886 25.0001 12.5C23.0341 7.51135 18.1875 3.97729 12.5 3.97729ZM12.5 18.1818C9.36366 18.1818 6.81819 15.6363 6.81819 12.5C6.81819 9.36361 9.36366 6.81819 12.5 6.81819C15.6364 6.81819 18.1819 9.36366 18.1819 12.5C18.1819 15.6364 15.6364 18.1818 12.5 18.1818Z" fill="white"/>
</g>
<defs>
<clipPath id="clip0">
<rect width="25" height="25" fill="white"/>
</clipPath>
</defs>
</svg>
