<svg width="173" height="311" viewBox="0 0 173 311" fill="none" xmlns="http://www.w3.org/2000/svg">
<path d="M151.675 306.359H21.3264C12.5759 306.359 5.48242 299.266 5.48242 290.515V20.4853C5.48242 11.7348 12.5759 4.64136 21.3264 4.64136H151.674C160.425 4.64136 167.518 11.7348 167.518 20.4853V290.516C167.519 299.266 160.425 306.359 151.675 306.359Z" fill="#898890"/>
<path d="M67.2445 306.359H21.3252C12.5759 306.359 5.48486 299.268 5.48486 290.519V20.4866C5.48486 11.7373 12.5759 4.64624 21.3252 4.64624H67.2445C58.4952 4.64624 51.3975 11.7373 51.3975 20.4866V290.519C51.3975 299.268 58.4952 306.359 67.2445 306.359Z" fill="#787680"/>
<path d="M167.517 49.1022V264.992C167.517 272.869 161.137 279.255 153.26 279.255H19.7412C11.8641 279.255 5.48438 272.869 5.48438 264.992V49.1022C5.48438 41.2252 11.8641 34.8394 19.7412 34.8394H153.26C161.137 34.8394 167.517 41.2252 167.517 49.1022Z" fill="#E3E9ED"/>
<path d="M133.701 85.7237C133.701 167.055 79.6383 235.758 5.48486 257.854V49.1047C5.48486 41.2276 11.8646 34.8418 19.7417 34.8418H126.387C131.145 50.9731 133.701 68.0514 133.701 85.7237Z" fill="#D7D7FF"/>
<path d="M131.152 105.502H38.705C32.0343 105.502 26.6265 110.91 26.6265 117.581V160.535C26.6265 167.206 32.0343 172.614 38.705 172.614H49.2839V174.196C49.2839 182.329 42.6673 188.945 34.5351 188.945H33.8074C31.2447 188.945 29.1667 191.023 29.1667 193.585C29.1667 196.148 31.2447 198.226 33.8074 198.226H34.5351C47.7854 198.226 58.5659 187.445 58.5659 174.195V172.613H131.152C137.823 172.613 143.231 167.206 143.231 160.535V117.58C143.231 110.91 137.823 105.502 131.152 105.502Z" fill="#FFEB99"/>
<path d="M132.611 105.59C129.963 129.691 122.544 152.35 111.32 172.615H58.5631V174.193C58.5631 187.447 47.7838 198.227 34.536 198.227H33.8058C31.2443 198.227 29.1651 196.147 29.1651 193.586C29.1651 191.024 31.2443 188.945 33.8058 188.945H34.536C42.6669 188.945 49.2811 182.33 49.2811 174.194V172.616H38.7065C32.0364 172.616 26.6279 167.208 26.6279 160.537V117.582C26.6279 110.912 32.0358 105.504 38.7065 105.504H131.151C131.646 105.503 132.135 105.534 132.611 105.59Z" fill="#FFE477"/>
<path d="M151.675 0H56.8886C54.3259 0 52.2479 2.07799 52.2479 4.6407C52.2479 7.20342 54.3259 9.28141 56.8886 9.28141H151.674C157.852 9.28141 162.877 14.3072 162.877 20.4847V32.836C160 31.1352 156.685 30.198 153.259 30.198H19.7405C16.2302 30.198 12.9422 31.1638 10.1232 32.8384V20.4853C10.1232 14.3072 15.149 9.28201 21.3265 9.28201H38.3252C40.8879 9.28201 42.9659 7.20402 42.9659 4.64131C42.9659 2.0786 40.8885 0 38.3258 0H21.3271C10.0315 0 0.841797 9.18968 0.841797 20.4853V290.515C0.841797 301.811 10.0315 311.001 21.3271 311.001H151.675C162.971 311.001 172.16 301.811 172.16 290.515V20.4853C172.16 9.18968 162.971 0 151.675 0ZM162.878 290.515C162.878 296.703 157.863 301.718 151.675 301.718H21.3271C15.1393 301.718 10.1238 296.703 10.1238 290.515V281.255C12.9435 282.93 16.2308 283.895 19.7411 283.895H125.292C127.834 283.895 130.05 281.937 130.125 279.397C130.204 276.769 128.098 274.614 125.487 274.614H19.7411C14.4389 274.614 10.1256 270.297 10.1256 264.991C10.1256 254.636 10.1256 57.374 10.1256 49.1016C10.1256 43.7963 14.4389 39.4794 19.7411 39.4794H153.26C156.059 39.4794 157.818 40.4063 159.129 41.5203C161.558 43.5837 162.878 46.6676 162.878 49.856C162.877 82.887 162.875 263.096 162.875 264.991C162.875 270.297 158.561 274.614 153.26 274.614H144.244C141.703 274.614 139.486 276.571 139.411 279.112C139.332 281.739 141.438 283.895 144.049 283.895C150.808 283.487 156.273 285.178 162.878 281.254V290.515Z" fill="#0E2A47"/>
<path d="M31.9594 253.19C35.0182 253.19 37.4978 250.71 37.4978 247.651C37.4978 244.592 35.0182 242.113 31.9594 242.113C28.9006 242.113 26.4209 244.592 26.4209 247.651C26.4209 250.71 28.9006 253.19 31.9594 253.19Z" fill="#0E2A47"/>
<path d="M49.4027 253.19C52.4615 253.19 54.9412 250.71 54.9412 247.651C54.9412 244.592 52.4615 242.113 49.4027 242.113C46.3439 242.113 43.8643 244.592 43.8643 247.651C43.8643 250.71 46.3439 253.19 49.4027 253.19Z" fill="#0E2A47"/>
<path d="M66.8461 253.19C69.9049 253.19 72.3846 250.71 72.3846 247.651C72.3846 244.592 69.9049 242.113 66.8461 242.113C63.7873 242.113 61.3076 244.592 61.3076 247.651C61.3076 250.71 63.7873 253.19 66.8461 253.19Z" fill="#0E2A47"/>
<path d="M147.872 160.536V129.8C147.872 127.238 145.794 125.16 143.231 125.16C140.668 125.16 138.59 127.238 138.59 129.8V160.536C138.59 164.637 135.253 167.974 131.152 167.974H38.7052C34.6039 167.974 31.2668 164.637 31.2668 160.536V117.582C31.2668 113.48 34.6039 110.143 38.7052 110.143H131.152C133.796 110.143 136.263 111.566 137.592 113.856C138.879 116.073 141.72 116.827 143.936 115.541C146.153 114.255 146.907 111.414 145.621 109.197C142.638 104.056 137.094 100.861 131.153 100.861H38.7052C29.4864 100.861 21.9854 108.362 21.9854 117.581V160.535C21.9854 169.754 29.4858 177.255 38.7052 177.255H48.9634C46.3849 189.427 33.8696 188.922 33.8076 188.945C31.2449 188.945 29.1669 191.023 29.1669 193.585C29.1669 196.148 31.2449 198.226 33.8076 198.226C33.8696 198.201 55.6578 198.447 58.3644 177.255H131.152C140.371 177.255 147.872 169.755 147.872 160.536Z" fill="#0E2A47"/>
<path d="M59.7903 147.323C56.1944 147.323 55.0342 144.462 53.2168 144.462C51.7475 144.462 50.5879 146.395 50.5879 147.71C50.5879 153.5 69.5716 156.504 69.5716 144.153C69.5716 134.409 57.3151 135.144 57.3151 131.277C57.3151 130.079 58.4364 128.957 61.1819 128.957C64.3527 128.957 65.087 130.427 66.4793 130.427C68.18 130.427 68.8761 128.3 68.8761 127.256C68.8761 124.24 63.2314 123.853 61.1819 123.853C56.3487 123.853 51.284 126.058 51.284 131.857C51.284 140.904 63.5406 140.093 63.5406 144.771C63.5406 146.627 61.5689 147.323 59.7903 147.323Z" fill="#0E2A47"/>
<path d="M92.8869 152.349C94.3951 152.349 95.9028 151.73 95.9028 150.494V127.103C95.9028 124.898 94.4334 124.087 92.8869 124.087C90.7221 124.087 89.7939 124.319 88.2085 127.103L84.2263 134.062L80.244 127.103C78.6586 124.319 77.7305 124.087 75.5657 124.087C74.0574 124.087 72.5498 124.899 72.5498 127.103V150.494C72.5498 151.731 74.058 152.35 75.5657 152.35C77.0739 152.35 78.5815 151.731 78.5815 150.494V135.608L82.2546 142.335C82.7187 143.225 83.4536 143.457 84.1491 143.457C84.8835 143.457 85.6574 143.186 86.1597 142.335L89.8717 135.995V150.494C89.871 151.73 91.3799 152.349 92.8869 152.349Z" fill="#0E2A47"/>
<path d="M107.929 147.323C104.332 147.323 103.173 144.462 101.356 144.462C99.8866 144.462 98.7271 146.395 98.7271 147.71C98.7271 150.262 102.98 152.736 108.045 152.736C113.651 152.736 117.711 149.72 117.711 144.153C117.711 134.409 105.454 135.144 105.454 131.277C105.454 130.079 106.576 128.957 109.32 128.957C112.491 128.957 113.226 130.427 114.618 130.427C116.319 130.427 117.015 128.3 117.015 127.256C117.015 124.24 111.371 123.853 109.32 123.853C104.487 123.853 99.4225 126.058 99.4225 131.857C99.4225 140.904 111.679 140.093 111.679 144.771C111.679 146.627 109.707 147.323 107.929 147.323Z" fill="#0E2A47"/>
<path d="M122.542 29.4817C125.601 29.4817 128.08 27.0021 128.08 23.9433C128.08 20.8844 125.601 18.4048 122.542 18.4048C119.483 18.4048 117.003 20.8844 117.003 23.9433C117.003 27.0021 119.483 29.4817 122.542 29.4817Z" fill="#0E2A47"/>
<path d="M49.5601 28.5852H107.725C110.288 28.5852 112.366 26.5072 112.366 23.9445C112.366 21.3818 110.288 19.3038 107.725 19.3038H49.5601C46.9974 19.3038 44.9194 21.3818 44.9194 23.9445C44.9194 26.5072 46.9962 28.5852 49.5601 28.5852Z" fill="#0E2A47"/>
</svg>
