<svg width="26" height="20" viewBox="0 0 26 20" fill="none" xmlns="http://www.w3.org/2000/svg">
<path d="M1 18.9986C1.01332 17.7134 1.27624 16.4433 1.77383 15.2604C2.32168 14.1528 4.59935 13.3914 7.46185 12.3197C8.23569 12.0304 8.10831 9.98823 7.76591 9.60611C7.22031 9.00847 6.80587 8.30098 6.54976 7.53004C6.29366 6.75911 6.20169 5.94215 6.27987 5.13276C6.23082 4.61711 6.28735 4.09677 6.44592 3.60417C6.6045 3.11156 6.86173 2.65725 7.20159 2.26953C7.54145 1.88182 7.95665 1.569 8.42133 1.35059C8.88601 1.13217 9.39021 1.01283 9.90251 1C10.4148 1.01283 10.919 1.13217 11.3837 1.35059C11.8484 1.569 12.2636 1.88182 12.6034 2.26953C12.9433 2.65725 13.2005 3.11156 13.3591 3.60417C13.5177 4.09677 13.5742 4.61711 13.5252 5.13276C13.6035 5.94237 13.5117 6.75959 13.2556 7.53078C12.9994 8.30197 12.5849 9.00969 12.0391 9.60749C11.6967 9.98962 11.5693 12.0318 12.3432 12.3211C15.2057 13.3927 17.4847 14.1584 18.0312 15.2618C18.5288 16.4446 18.7917 17.7147 18.805 19L1 18.9986Z" stroke="#B9BBC4" stroke-width="2" stroke-linecap="round" stroke-linejoin="round"/>
<path d="M15.2607 1.32815C15.7278 1.11013 16.2364 0.998136 16.7509 1.00002C17.2632 1.01285 17.7674 1.13219 18.2321 1.35061C18.6967 1.56903 19.112 1.88184 19.4518 2.26956C19.7917 2.65727 20.0489 3.11159 20.2075 3.60419C20.3661 4.09679 20.4226 4.61713 20.3735 5.13278C20.4519 5.9424 20.36 6.75962 20.1039 7.53081C19.8478 8.30199 19.4333 9.00971 18.8875 9.60752C18.5451 9.98964 18.4177 12.0318 19.1915 12.3212C22.054 13.3928 24.3331 14.1584 24.8796 15.2619C24.922 15.3477 24.9617 15.4363 25.0001 15.5249" stroke="#B9BBC4" stroke-width="2" stroke-linecap="round" stroke-linejoin="round"/>
</svg>
