<svg width="62" height="60" viewBox="0 0 62 60" fill="none" xmlns="http://www.w3.org/2000/svg">
<path fill-rule="evenodd" clip-rule="evenodd" d="M29 17V52.025C29.911 50.801 31.357 50 33 50C34.448 50 35.742 50.625 36.655 51.609C37.357 51.233 38.148 51 39 51C41.145 51 42.959 52.357 43.669 54.254C44.666 52.323 46.677 51 49 51C49.702 51 50.374 51.127 51 51.349V17H29Z" stroke="#99A0B1" stroke-width="2" stroke-linecap="round" stroke-linejoin="round"/>
<path fill-rule="evenodd" clip-rule="evenodd" d="M17 53C17 49.686 19.686 47 23 47C26.012 47 28.499 49.222 28.928 52.115C28.95 52.084 28.977 52.056 29 52.025V17H35V1H8V59H11C11 55.686 13.686 53 17 53Z" fill="#E6E7EC"/>
<path fill-rule="evenodd" clip-rule="evenodd" d="M16.3333 53C16.3333 49.686 19.1188 47 22.5556 47C25.6791 47 28.2582 49.222 28.7031 52.115C28.7259 52.084 28.7539 52.056 28.7778 52.025V17H35V1H7V59H10.1111C10.1111 55.686 12.8966 53 16.3333 53Z" stroke="#99A0B1" stroke-width="2" stroke-linecap="round" stroke-linejoin="round"/>
<path d="M1 59H61" stroke="#99A0B1" stroke-width="2" stroke-linecap="round" stroke-linejoin="round"/>
<path d="M34 21V50" stroke="#99A0B1" stroke-width="2" stroke-linecap="round" stroke-linejoin="round"/>
<path d="M40 21V51.101" stroke="#99A0B1" stroke-width="2" stroke-linecap="round" stroke-linejoin="round"/>
<path d="M46 21V51.805" stroke="#99A0B1" stroke-width="2" stroke-linecap="round" stroke-linejoin="round"/>
<path d="M12 5V55" stroke="#99A0B1" stroke-width="2" stroke-linecap="round" stroke-linejoin="round"/>
<path d="M18 5V49" stroke="#99A0B1" stroke-width="2" stroke-linecap="round" stroke-linejoin="round"/>
<path d="M24 5V47" stroke="#99A0B1" stroke-width="2" stroke-linecap="round" stroke-linejoin="round"/>
<path d="M30 5V13" stroke="#99A0B1" stroke-width="2" stroke-linecap="round" stroke-linejoin="round"/>
<path fill-rule="evenodd" clip-rule="evenodd" d="M54.651 59C54.873 58.374 55 57.702 55 57C55 53.686 52.313 51 49 51C46.677 51 44.666 52.323 43.669 54.254C42.959 52.357 41.144 51 39 51C36.238 51 34 53.239 34 56C34 57.131 34.389 58.162 35.022 59H42.973H54.651Z" fill="#E6E7EC"/>
<path fill-rule="evenodd" clip-rule="evenodd" d="M54.651 59C54.873 58.374 55 57.702 55 57C55 53.686 52.313 51 49 51C46.677 51 44.666 52.323 43.669 54.254C42.959 52.357 41.144 51 39 51C36.238 51 34 53.239 34 56C34 57.131 34.389 58.162 35.022 59H42.973H54.651Z" stroke="#99A0B1" stroke-width="2" stroke-linecap="round" stroke-linejoin="round"/>
<path fill-rule="evenodd" clip-rule="evenodd" d="M30.0265 59H35.0425C34.4025 58.163 34.0005 57.135 34.0005 56C34.0005 54.091 35.0825 52.452 36.6555 51.609C35.7425 50.625 34.4485 50 33.0005 50C31.3155 50 29.8335 50.839 28.9275 52.115C28.4985 49.222 26.0125 47 23.0005 47C19.6865 47 17.0005 49.686 17.0005 53C13.6865 53 11.0005 55.686 11.0005 59H23.0005H30.0265Z" fill="#F6F7F8"/>
<path fill-rule="evenodd" clip-rule="evenodd" d="M30.0265 59H35.0425C34.4025 58.163 34.0005 57.135 34.0005 56C34.0005 54.091 35.0825 52.452 36.6555 51.609C35.7425 50.625 34.4485 50 33.0005 50C31.3155 50 29.8335 50.839 28.9275 52.115C28.4985 49.222 26.0125 47 23.0005 47C19.6865 47 17.0005 49.686 17.0005 53C13.6865 53 11.0005 55.686 11.0005 59H23.0005H30.0265Z" stroke="#99A0B1" stroke-width="2" stroke-linecap="round" stroke-linejoin="round"/>
</svg>
