<svg width="28" height="30" viewBox="0 0 28 30" fill="none" xmlns="http://www.w3.org/2000/svg">
<path d="M19.4707 15.0173C23.3372 15.0173 26.4443 18.1243 26.4443 21.9908C26.4443 25.8574 23.3373 28.9644 19.4707 28.9644C17.0196 28.9644 14.8792 27.7216 13.6364 25.8228C12.9115 24.7181 12.4972 23.4063 12.4972 21.9908C12.4972 19.3326 13.9816 17.0196 16.1566 15.8458C17.1577 15.328 18.2624 15.0173 19.4707 15.0173Z" fill="#1ACA8E"/>
<path d="M10.9091 12.7043C7.42236 12.7043 4.55695 9.83891 4.55695 6.35209C4.55695 4.66049 5.2474 3.03794 6.42115 1.8642C7.62952 0.655958 9.21751 0 10.9091 0C12.6007 0 14.2233 0.655958 15.397 1.8642C16.6053 3.0725 17.2612 4.66049 17.2612 6.35209C17.2612 8.04369 16.6053 9.66624 15.397 10.84C14.2233 12.0138 12.6007 12.7043 10.9091 12.7043ZM10.9091 2.07135C9.76986 2.07135 8.69966 2.52015 7.8711 3.31415C7.0771 4.10815 6.62837 5.21291 6.62837 6.35216C6.62837 8.69972 8.56162 10.633 10.9092 10.633C12.0484 10.633 13.1531 10.1842 13.9472 9.39017C14.7412 8.59617 15.19 7.49141 15.19 6.35216C15.19 5.21291 14.7412 4.1427 13.9472 3.31415C13.1186 2.52015 12.0484 2.07135 10.9091 2.07135Z" fill="white"/>
<path d="M19.4707 13.9816C18.366 13.9816 17.2613 14.2233 16.2256 14.6721C14.9483 14.0852 13.6364 13.809 12.2555 13.809H9.59726C4.3153 13.809 0 18.1243 0 23.4063V25.8228C0 26.4097 0.448803 26.8585 1.03564 26.8585H13.1186C14.6376 28.8263 16.9506 30 19.4707 30C23.8896 30 27.4799 26.4097 27.4799 21.9908C27.4799 17.572 23.8896 13.9816 19.4707 13.9816ZM2.07135 23.4062C2.07135 19.2635 5.45455 15.8803 9.59726 15.8803H12.2555C12.8424 15.8803 13.4638 15.9494 14.0507 16.0875C12.4281 17.5719 11.4615 19.7123 11.4615 21.9908C11.4615 22.9575 11.634 23.8896 11.9793 24.7871H2.07135V23.4062ZM19.4707 27.9287C17.4684 27.9287 15.6042 26.9275 14.4995 25.2704C13.8781 24.3038 13.5328 23.1646 13.5328 21.9908C13.5328 19.8159 14.7066 17.8136 16.6398 16.7778C17.5374 16.2946 18.504 16.0529 19.4707 16.0529C22.7503 16.0529 25.4085 18.7112 25.4085 21.9908C25.4085 25.2704 22.7503 27.9287 19.4707 27.9287Z" fill="white"/>
<path d="M22.336 20.9551H20.5063V19.1254C20.5063 18.5385 20.0575 18.0898 19.4707 18.0898C18.8838 18.0898 18.435 18.5386 18.435 19.1254V20.9551H16.6053C16.0184 20.9551 15.5697 21.4039 15.5697 21.9908C15.5697 22.5776 16.0185 23.0264 16.6053 23.0264H18.435V24.8561C18.435 25.443 18.8838 25.8918 19.4707 25.8918C20.0576 25.8918 20.5063 25.443 20.5063 24.8561V23.0264H22.336C22.9229 23.0264 23.3717 22.5776 23.3717 21.9908C23.3717 21.4039 22.9229 20.9551 22.336 20.9551Z" fill="white"/>
</svg>
