<svg width="24" height="24" viewBox="0 0 24 24" fill="none" xmlns="http://www.w3.org/2000/svg">
<path d="M15.6673 11.7636L13.4028 9.49904C13.2841 9.35981 13.1366 9.24799 12.9705 9.17132C12.8043 9.09464 12.6236 9.05493 12.4406 9.05493C12.2577 9.05493 12.0769 9.09464 11.9108 9.17132C11.7447 9.24799 11.5972 9.35981 11.4785 9.49904C10.4234 10.5541 12.8474 14.5836 11.7894 15.6416C11.6648 15.771 11.5154 15.8739 11.35 15.9442C11.1847 16.0146 11.0069 16.0508 10.8273 16.0508C10.6476 16.0508 10.4698 16.0146 10.3045 15.9442C10.1392 15.8739 9.98974 15.771 9.86513 15.6416L7.60059 13.377" stroke="#FF4D61" stroke-width="2" stroke-linecap="round" stroke-linejoin="round"/>
<path d="M14.0537 10.1503L15.2632 8.9408" stroke="#FF4D61" stroke-width="2" stroke-linecap="round" stroke-linejoin="round"/>
<path d="M8.00293 16.2007L9.21342 14.9902" stroke="#FF4D61" stroke-width="2" stroke-linecap="round" stroke-linejoin="round"/>
<path d="M18.1053 7.00857C18.8856 7.00857 19.5182 6.37599 19.5182 5.59566C19.5182 4.81532 18.8856 4.18274 18.1053 4.18274C17.325 4.18274 16.6924 4.81532 16.6924 5.59566C16.6924 6.37599 17.325 7.00857 18.1053 7.00857Z" stroke="#5D6174" stroke-width="2" stroke-linecap="round" stroke-linejoin="round"/>
<path d="M21.4893 1H12.3236C12.1171 0.999914 11.9128 1.04212 11.7233 1.12402C11.5338 1.20592 11.363 1.32577 11.2216 1.47619L1.40859 11.9103C1.26994 12.0575 1.16244 12.2312 1.09255 12.4209C1.02266 12.6107 0.99181 12.8126 1.00185 13.0146C1.0119 13.2166 1.06263 13.4145 1.151 13.5964C1.23937 13.7782 1.36357 13.9404 1.51615 14.0732L11.3243 22.6279C11.6198 22.8851 12.0035 23.0178 12.3947 22.9981C12.786 22.9784 13.1544 22.8079 13.4226 22.5223L22.5932 12.7277C22.8544 12.4492 22.9998 12.0818 23 11.7V2.50581C22.9997 2.30773 22.9605 2.11163 22.8844 1.92874C22.8083 1.74584 22.697 1.57973 22.5567 1.43989C22.4164 1.30005 22.2499 1.18922 22.0668 1.11374C21.8836 1.03827 21.6874 0.999617 21.4893 1V1Z" stroke="#5D6174" stroke-width="2" stroke-linecap="round" stroke-linejoin="round"/>
</svg>
