<svg width="24" height="26" viewBox="0 0 24 26" fill="none" xmlns="http://www.w3.org/2000/svg">
<path d="M21.5667 10.2615L21.5816 10.2744L21.5969 10.2867C21.8672 10.5033 22 10.7647 22 11.1688C22 11.4979 21.8961 11.7555 21.6661 11.9937C21.4433 12.2245 21.2047 12.3247 20.8931 12.3247H19.8648H18.8648V13.3247V19.8182C18.8648 20.1668 18.7555 20.4283 18.5254 20.6618C18.2854 20.9054 18.0448 21 17.7579 21H5.21701C4.93093 21 4.69821 20.9063 4.46908 20.669C4.2449 20.4368 4.13522 20.1731 4.13522 19.8182V13.3247V12.3247H3.13522H2.08179C1.77072 12.3247 1.5404 12.2252 1.32843 12.0011C1.10437 11.7642 1 11.5043 1 11.1688C1 10.8206 1.11627 10.5401 1.3975 10.2749C2.45296 9.35527 3.81432 8.15299 5.48078 6.66885C7.15248 5.18005 8.56465 3.92532 9.71747 2.90452C10.2944 2.39363 10.7295 2.00802 11.0226 1.74787C11.1691 1.61787 11.2805 1.51878 11.3567 1.45089C11.362 1.44616 11.3678 1.44095 11.3741 1.43537C11.4035 1.40919 11.4421 1.37491 11.4754 1.34412L11.4994 1.32299L11.5278 1.34718C11.559 1.37605 11.5945 1.40778 11.6224 1.43287C11.6287 1.43848 11.6346 1.44375 11.64 1.44859C11.7155 1.51644 11.8262 1.61551 11.9716 1.7455C12.2626 2.00564 12.6945 2.39123 13.2673 2.90212C14.413 3.92399 15.8219 5.17957 17.4941 6.66885C19.1677 8.15932 20.5256 9.35718 21.5667 10.2615Z" stroke="#5D6174" stroke-width="2"/>
<path d="M20.8284 16.1261C19.2664 14.6246 16.7338 14.6246 15.1716 16.1261C13.7641 17.4791 13.6056 20.0267 14.8001 21.5576L18 26L21.1999 21.5576C22.3944 20.0267 22.2359 17.4791 20.8284 16.1261ZM18.039 20.0769C17.3097 20.0769 16.7186 19.5087 16.7186 18.8076C16.7186 18.1066 17.3097 17.5384 18.039 17.5384C18.7682 17.5384 19.3593 18.1066 19.3593 18.8076C19.3593 19.5087 18.7682 20.0769 18.039 20.0769Z" fill="#5D6174"/>
<path d="M7.5 12L11.5 8L15.5 12" stroke="#5D6174" stroke-width="2"/>
</svg>
