<svg width="41" height="40" viewBox="0 0 41 40" fill="none" xmlns="http://www.w3.org/2000/svg">
<ellipse cx="20.5" cy="20" rx="20.5" ry="20" fill="#181E39"/>
<path d="M17.4131 27.7909L15.4 28.1175C14.8363 28.2079 14.29 28.0715 13.8452 27.7465C13.4028 27.4285 13.0999 26.929 13.0182 26.3827L12.8414 25.2077L9.34723 28.7019C9.17359 28.8755 9.11016 29.1316 9.1831 29.3663C9.25605 29.601 9.45268 29.7778 9.69451 29.8222L11.9153 30.2369L12.33 32.4577C12.3752 32.6995 12.5504 32.8969 12.7851 32.9699C13.0198 33.0436 13.2767 32.9802 13.4503 32.805L18.0133 28.242L17.6787 27.9034C17.6081 27.8313 17.5114 27.7909 17.4131 27.7909Z" fill="white"/>
<path d="M23.7862 26.975L25.735 27.2953C26.0609 27.3492 26.3955 27.2707 26.6627 27.0757C26.9291 26.883 27.1083 26.5889 27.1575 26.2622L27.4508 24.3133C27.5103 23.9232 27.7545 23.5863 28.1081 23.4087L29.8715 22.5278C30.1664 22.3787 30.3916 22.1187 30.4931 21.8047C30.5961 21.4907 30.5668 21.1482 30.4154 20.854L29.5099 19.1002C29.3283 18.7529 29.3283 18.3359 29.5099 17.9878L30.4169 16.2348C30.5676 15.9414 30.5969 15.5989 30.4946 15.2841C30.3924 14.9717 30.168 14.7109 29.8722 14.5618L28.1097 13.6801C27.7553 13.5025 27.5119 13.1664 27.4524 12.7763L27.159 10.8274C27.1099 10.5007 26.9307 10.2074 26.6643 10.0139C26.3971 9.81806 26.0625 9.73957 25.7366 9.79269L23.7885 10.1138C23.4008 10.1788 23.006 10.0504 22.7301 9.76969L21.3425 8.36394C21.1174 8.13876 20.8161 8.00952 20.5005 8.00001C20.185 8.01031 19.8829 8.13876 19.6593 8.36394L18.2718 9.76969C17.9958 10.0504 17.601 10.1788 17.2133 10.1138L15.2652 9.79269C14.9385 9.73957 14.6047 9.81806 14.3375 10.0139C14.0711 10.2074 13.8919 10.5007 13.8428 10.8274L13.5494 12.7763C13.4892 13.1664 13.2465 13.5025 12.8913 13.6801L11.1296 14.5618C10.8338 14.7109 10.6095 14.9717 10.5072 15.2849C10.4049 15.5989 10.4334 15.9422 10.5841 16.2356L11.4911 17.9886C11.6727 18.3367 11.6727 18.7529 11.4911 19.101L10.5849 20.8532C10.4342 21.1474 10.4049 21.4899 10.508 21.8039C10.6095 22.1179 10.8346 22.3787 11.1296 22.527L12.8929 23.4079C13.2465 23.5855 13.49 23.9224 13.5502 24.3125L13.8436 26.2614C13.8927 26.5881 14.0719 26.8822 14.3383 27.0749C14.6055 27.2699 14.9401 27.3492 15.266 27.2945L17.2149 26.9742C17.6026 26.9092 17.9974 27.0376 18.2733 27.3199L19.6609 28.7241C19.8837 28.95 20.185 29.0785 20.5005 29.088C20.8161 29.0785 21.1174 28.95 21.3402 28.7241L22.7277 27.3199C23.0036 27.0384 23.3985 26.91 23.7862 26.975ZM20.5005 25.8729C16.3736 25.8523 13.023 22.4905 13.023 18.3589C13.023 14.228 16.3736 10.8654 20.5005 10.844C24.6274 10.8646 27.9789 14.228 27.9789 18.3589C27.9781 22.4905 24.6274 25.8523 20.5005 25.8729Z" fill="white"/>
<path d="M20.5004 11.9287C16.9769 11.9509 14.1178 14.8211 14.1178 18.3486C14.1178 21.8744 16.9769 24.7454 20.5004 24.7676C24.024 24.7462 26.8831 21.8752 26.8831 18.3486C26.8823 14.8219 24.024 11.9509 20.5004 11.9287Z" fill="white"/>
<path d="M31.6538 28.7019L28.1596 25.2077L27.9828 26.3827C27.9004 26.9282 27.5983 27.4277 27.1559 27.7465C26.7103 28.0715 26.1648 28.2079 25.601 28.1175L23.5879 27.7909C23.4896 27.7909 23.3929 27.8313 23.3223 27.9042L22.9877 28.2428L27.5507 32.8058C27.7243 32.981 27.9812 33.0444 28.2159 32.9707C28.4506 32.8977 28.6258 32.7003 28.671 32.4585L29.0849 30.2377L31.3057 29.823C31.5484 29.7778 31.745 29.6018 31.8179 29.3671C31.8909 29.1324 31.8274 28.8755 31.6538 28.7019Z" fill="white"/>
</svg>
