<svg width="311" height="311" viewBox="0 0 311 311" fill="none" xmlns="http://www.w3.org/2000/svg">
<path d="M274.676 193.114H234.1V110.191C234.096 106.729 232.719 103.41 230.27 100.962C227.822 98.5135 224.503 97.1361 221.041 97.1316H208.953V78.9648C208.863 66.2095 203.732 54.0073 194.681 45.0197C185.629 36.0321 173.391 30.9883 160.635 30.9883C147.879 30.9883 135.641 36.0321 126.59 45.0197C117.538 54.0073 112.408 66.2095 112.317 78.9648V97.1316H100.237C96.7745 97.1361 93.4554 98.5135 91.0072 100.962C88.5591 103.41 87.1817 106.729 87.1772 110.191V193.114H46.5868C42.4325 193.118 38.4497 194.771 35.5121 197.708C32.5746 200.646 30.9223 204.629 30.9178 208.783V274.948C30.9223 279.103 32.5746 283.085 35.5121 286.023C38.4497 288.961 42.4325 290.613 46.5868 290.617H274.676C278.831 290.613 282.814 288.961 285.752 286.023C288.69 283.086 290.342 279.103 290.348 274.948V208.783C290.342 204.629 288.69 200.646 285.752 197.708C282.814 194.771 278.831 193.118 274.676 193.114ZM130.598 78.9648C130.562 74.9979 131.313 71.0632 132.806 67.3879C134.3 63.7127 136.506 60.3696 139.299 57.5519C142.091 54.7342 145.414 52.4975 149.076 50.9712C152.738 49.4448 156.666 48.6589 160.633 48.6589C164.6 48.6589 168.528 49.4448 172.189 50.9712C175.851 52.4975 179.174 54.7342 181.967 57.5519C184.759 60.3696 186.966 63.7127 188.459 67.3879C189.952 71.0632 190.703 74.9979 190.667 78.9648V97.1316H130.598V78.9648Z" fill="#E6E7E8"/>
<path d="M265.142 185.278H35.2305C28.5211 185.278 23.082 190.717 23.082 197.427V265.412C23.082 272.121 28.5211 277.56 35.2305 277.56H265.142C271.852 277.56 277.291 272.121 277.291 265.412V197.427C277.291 190.717 271.852 185.278 265.142 185.278Z" fill="#FB4C60"/>
<path d="M83.5812 224.967C84.3144 225.806 84.7055 226.89 84.677 228.004C84.7001 229.133 84.3105 230.231 83.5812 231.092C83.2011 231.527 82.7214 231.862 82.1831 232.071C81.6448 232.279 81.0641 232.353 80.4907 232.288L70.7282 231.802L76.1099 239.873C76.5481 240.52 76.7903 241.279 76.8073 242.06C76.8013 242.628 76.6671 243.188 76.4147 243.697C76.1623 244.206 75.7981 244.651 75.3495 245C74.4614 245.802 73.3072 246.245 72.1107 246.244C71.4029 246.269 70.7035 246.084 70.1008 245.712C69.498 245.34 69.0188 244.798 68.7237 244.154L64.3503 235.488L59.9768 244.154C59.6829 244.806 59.2069 245.36 58.606 245.748C58.0052 246.136 57.305 246.342 56.5898 246.341C55.3932 246.341 54.2392 245.897 53.3511 245.095C52.5892 244.501 52.0862 243.636 51.9472 242.68C51.8082 241.724 52.0439 240.752 52.6051 239.966L57.9748 231.792L48.2123 232.278C47.6437 232.345 47.0675 232.276 46.5308 232.077C45.994 231.878 45.512 231.555 45.1241 231.134C44.39 230.294 43.9988 229.209 44.0284 228.094C44.0037 226.965 44.3935 225.867 45.1241 225.006C45.5041 224.572 45.9835 224.237 46.5213 224.029C47.0591 223.821 47.6393 223.746 48.2123 223.811L57.9748 224.297L52.5954 216.242C52.1396 215.604 51.8957 214.839 51.8981 214.055C51.9005 213.495 52.032 212.943 52.2823 212.442C52.5326 211.941 52.895 211.505 53.3413 211.167C54.2427 210.393 55.3921 209.968 56.5801 209.971C57.2881 209.947 57.9874 210.133 58.59 210.505C59.1927 210.877 59.6718 211.419 59.9671 212.063L64.3405 220.73L68.714 212.063C69.0072 211.39 69.4969 210.821 70.1191 210.431C70.7412 210.04 71.4668 209.847 72.2006 209.876C73.3646 209.89 74.4826 210.333 75.3397 211.12C75.788 211.469 76.1519 211.915 76.4042 212.424C76.6566 212.933 76.7911 213.492 76.7975 214.06C76.7999 214.844 76.556 215.609 76.1002 216.247L70.7185 224.316L80.481 223.83C81.0508 223.762 81.6285 223.83 82.1673 224.027C82.706 224.225 83.1905 224.547 83.5812 224.967Z" fill="white"/>
<path d="M128.608 224.967C129.341 225.806 129.732 226.89 129.704 228.004C129.727 229.133 129.337 230.231 128.608 231.092C128.228 231.527 127.748 231.862 127.21 232.071C126.672 232.279 126.091 232.353 125.518 232.288L115.755 231.802L121.137 239.873C121.575 240.52 121.816 241.279 121.832 242.06C121.828 242.627 121.696 243.186 121.446 243.695C121.196 244.204 120.835 244.65 120.389 245C119.501 245.802 118.346 246.245 117.15 246.244C116.442 246.269 115.743 246.084 115.14 245.712C114.537 245.34 114.058 244.798 113.763 244.154L109.389 235.488L105.016 244.154C104.722 244.806 104.246 245.36 103.645 245.748C103.044 246.136 102.344 246.342 101.629 246.341C100.432 246.341 99.2784 245.897 98.3902 245.095C97.6284 244.501 97.1253 243.636 96.9859 242.68C96.8465 241.725 97.0815 240.752 97.6419 239.966L103.004 231.792L93.2417 232.278C92.6732 232.345 92.0969 232.276 91.5602 232.077C91.0234 231.878 90.5414 231.555 90.1536 231.134C89.4186 230.295 89.0265 229.209 89.0554 228.094C89.0314 226.965 89.4221 225.866 90.1536 225.006C90.5336 224.572 91.0129 224.237 91.5507 224.029C92.0885 223.821 92.6687 223.746 93.2417 223.811L103.004 224.297L97.6224 216.242C97.1674 215.604 96.9243 214.839 96.9275 214.055C96.93 213.495 97.0614 212.943 97.3117 212.442C97.562 211.941 97.9244 211.505 98.3708 211.167C99.2721 210.393 100.422 209.968 101.61 209.971C102.317 209.947 103.017 210.133 103.619 210.505C104.222 210.877 104.701 211.419 104.997 212.063L109.37 220.73L113.743 212.063C114.037 211.39 114.526 210.821 115.149 210.431C115.771 210.04 116.496 209.847 117.23 209.876C118.394 209.89 119.512 210.333 120.369 211.12C120.815 211.471 121.176 211.917 121.426 212.426C121.676 212.935 121.808 213.493 121.812 214.06C121.816 214.844 121.573 215.609 121.118 216.247L115.736 224.316L125.498 223.83C126.07 223.761 126.649 223.827 127.19 224.025C127.73 224.223 128.216 224.546 128.608 224.967Z" fill="white"/>
<path d="M173.635 224.967C174.37 225.806 174.762 226.89 174.733 228.004C174.757 229.133 174.367 230.232 173.635 231.092C173.256 231.527 172.776 231.863 172.238 232.071C171.701 232.279 171.12 232.354 170.547 232.288L160.785 231.802L166.166 239.873C166.604 240.52 166.845 241.279 166.861 242.06C166.857 242.627 166.725 243.186 166.475 243.695C166.226 244.204 165.864 244.65 165.418 245C164.53 245.801 163.376 246.244 162.179 246.244C161.471 246.269 160.772 246.084 160.169 245.712C159.567 245.34 159.087 244.798 158.792 244.154L154.419 235.488L150.045 244.154C149.751 244.806 149.275 245.36 148.675 245.748C148.074 246.136 147.374 246.342 146.658 246.341C145.462 246.341 144.308 245.897 143.42 245.095C142.658 244.501 142.155 243.636 142.015 242.68C141.876 241.725 142.111 240.752 142.671 239.966L148.034 231.792L138.271 232.278C137.703 232.345 137.126 232.276 136.59 232.077C136.053 231.878 135.571 231.555 135.183 231.134C134.447 230.295 134.055 229.21 134.085 228.094C134.061 226.965 134.451 225.866 135.183 225.006C135.563 224.572 136.042 224.237 136.58 224.029C137.118 223.821 137.698 223.746 138.271 223.811L148.034 224.297L142.652 216.242C142.197 215.604 141.954 214.839 141.957 214.055C141.959 213.495 142.091 212.943 142.341 212.442C142.591 211.941 142.954 211.505 143.4 211.167C144.301 210.393 145.451 209.968 146.639 209.971C147.347 209.947 148.046 210.133 148.649 210.505C149.251 210.877 149.731 211.419 150.026 212.063L154.399 220.73L158.773 212.063C159.066 211.39 159.556 210.821 160.178 210.431C160.8 210.04 161.526 209.847 162.259 209.876C163.423 209.89 164.541 210.333 165.399 211.12C165.844 211.471 166.205 211.917 166.455 212.426C166.705 212.935 166.837 213.493 166.842 214.06C166.845 214.844 166.602 215.609 166.147 216.247L160.765 224.316L170.528 223.83C171.099 223.761 171.678 223.828 172.218 224.026C172.758 224.223 173.244 224.546 173.635 224.967Z" fill="white"/>
<path d="M218.672 224.967C219.407 225.806 219.799 226.89 219.77 228.004C219.794 229.133 219.403 230.232 218.672 231.092C218.292 231.527 217.813 231.863 217.275 232.071C216.737 232.279 216.157 232.354 215.584 232.288L205.821 231.802L211.203 239.873C211.641 240.52 211.882 241.279 211.898 242.06C211.894 242.627 211.762 243.186 211.512 243.695C211.262 244.204 210.901 244.65 210.455 245C209.566 245.801 208.412 246.244 207.216 246.244C206.508 246.269 205.809 246.084 205.206 245.712C204.603 245.34 204.124 244.798 203.829 244.154L199.455 235.488L195.082 244.154C194.788 244.806 194.312 245.359 193.711 245.747C193.11 246.135 192.41 246.341 191.695 246.341C190.498 246.341 189.344 245.897 188.456 245.095C187.695 244.501 187.191 243.636 187.052 242.68C186.913 241.725 187.148 240.752 187.708 239.966L193.063 231.792L183.3 232.278C182.732 232.345 182.156 232.276 181.619 232.077C181.082 231.878 180.6 231.555 180.212 231.134C179.477 230.295 179.084 229.21 179.114 228.094C179.09 226.965 179.481 225.866 180.212 225.006C180.592 224.572 181.072 224.237 181.61 224.029C182.147 223.821 182.727 223.746 183.3 223.811L193.063 224.297L187.681 216.242C187.226 215.604 186.983 214.839 186.986 214.055C186.989 213.495 187.12 212.943 187.371 212.442C187.621 211.941 187.983 211.505 188.43 211.167C189.331 210.393 190.48 209.968 191.668 209.971C192.376 209.947 193.076 210.133 193.678 210.505C194.281 210.877 194.76 211.419 195.055 212.063L199.429 220.73L203.802 212.063C204.095 211.39 204.585 210.821 205.207 210.431C205.829 210.04 206.555 209.847 207.289 209.876C208.453 209.89 209.571 210.333 210.428 211.12C210.874 211.471 211.235 211.917 211.485 212.426C211.735 212.935 211.867 213.493 211.871 214.06C211.874 214.844 211.631 215.609 211.176 216.247L205.795 224.316L215.557 223.83C216.129 223.76 216.71 223.826 217.251 224.024C217.793 224.222 218.28 224.545 218.672 224.967Z" fill="white"/>
<path d="M222.316 257.593C221.828 257.137 221.445 256.58 221.196 255.96C220.946 255.341 220.835 254.674 220.871 254.007C220.837 253.331 220.949 252.657 221.198 252.028C221.448 251.399 221.829 250.831 222.316 250.362C223.537 249.379 225.088 248.898 226.651 249.019H247.172C248.735 248.898 250.284 249.379 251.504 250.362C251.994 250.83 252.378 251.397 252.629 252.026C252.881 252.655 252.994 253.33 252.962 254.007C252.997 254.675 252.884 255.342 252.632 255.962C252.38 256.582 251.995 257.139 251.504 257.593C250.27 258.546 248.727 259.007 247.172 258.888H226.639C225.088 259.003 223.549 258.542 222.316 257.593Z" fill="white"/>
<path d="M182.832 89.2983V68.5172C182.757 59.9076 179.285 51.6758 173.171 45.614C167.056 39.5522 158.795 36.1511 150.185 36.1511C141.575 36.1511 133.314 39.5522 127.199 45.614C121.085 51.6758 117.613 59.9076 117.539 68.5172V89.2983H104.477V68.5172C104.477 62.5151 105.659 56.5718 107.956 51.0267C110.253 45.4815 113.619 40.443 117.863 36.199C122.107 31.9549 127.146 28.5883 132.691 26.2914C138.236 23.9945 144.179 22.8123 150.181 22.8123C156.183 22.8123 162.127 23.9945 167.672 26.2914C173.217 28.5883 178.256 31.9549 182.5 36.199C186.744 40.443 190.11 45.4815 192.407 51.0267C194.704 56.5718 195.886 62.5151 195.886 68.5172V89.2983H182.832Z" fill="#D1EEFF"/>
<path d="M211.31 89.2983H89.0626C86.485 89.2983 84.013 90.3222 82.1904 92.1448C80.3678 93.9675 79.3439 96.4395 79.3439 99.017V185.271H221.029V99.017C221.029 96.4395 220.005 93.9675 218.182 92.1448C216.359 90.3222 213.887 89.2983 211.31 89.2983Z" fill="#48BDFF"/>
<path d="M211.31 89.2983H89.0626C86.485 89.2983 84.013 90.3222 82.1904 92.1448C80.3678 93.9675 79.3439 96.4395 79.3439 99.017V106.306C79.3439 103.729 80.3678 101.257 82.1904 99.4339C84.013 97.6113 86.485 96.5873 89.0626 96.5873H211.31C213.887 96.5873 216.359 97.6113 218.182 99.4339C220.005 101.257 221.029 103.729 221.029 106.306V99.017C221.029 96.4395 220.005 93.9675 218.182 92.1448C216.359 90.3222 213.887 89.2983 211.31 89.2983Z" fill="white"/>
<path d="M265.14 182.849H223.458V99.0243C223.454 95.8036 222.173 92.7158 219.896 90.4384C217.618 88.1609 214.531 86.8798 211.31 86.8759H198.321V68.5172C198.321 55.7505 193.249 43.5066 184.222 34.4792C175.194 25.4518 162.951 20.3802 150.184 20.3802C137.417 20.3802 125.173 25.4518 116.146 34.4792C107.118 43.5066 102.047 55.7505 102.047 68.5172V86.8686H89.0626C85.8418 86.8725 82.7541 88.1536 80.4766 90.4311C78.1992 92.7085 76.918 95.7963 76.9142 99.0171V182.841H35.2305C31.3653 182.845 27.6595 184.382 24.9264 187.115C22.1933 189.848 20.6562 193.554 20.6523 197.419V265.402C20.6562 269.267 22.1933 272.973 24.9264 275.706C27.6595 278.439 31.3653 279.976 35.2305 279.98H74.5112C75.1556 279.98 75.7736 279.724 76.2293 279.269C76.6849 278.813 76.9409 278.195 76.9409 277.551C76.9409 276.906 76.6849 276.288 76.2293 275.832C75.7736 275.377 75.1556 275.121 74.5112 275.121H35.2305C32.6529 275.121 30.1809 274.097 28.3583 272.274C26.5357 270.452 25.5117 267.98 25.5117 265.402V197.427C25.5117 194.849 26.5357 192.377 28.3583 190.554C30.1809 188.732 32.6529 187.708 35.2305 187.708H265.14C267.717 187.708 270.189 188.732 272.012 190.554C273.834 192.377 274.858 194.849 274.858 197.427V265.409C274.858 267.987 273.834 270.459 272.012 272.282C270.189 274.104 267.717 275.128 265.14 275.128H112.575C111.93 275.128 111.312 275.384 110.857 275.84C110.401 276.295 110.145 276.913 110.145 277.558C110.145 278.202 110.401 278.82 110.857 279.276C111.312 279.731 111.93 279.987 112.575 279.987H265.14C269.005 279.984 272.711 278.446 275.444 275.713C278.177 272.98 279.714 269.275 279.718 265.409V197.427C279.714 193.562 278.177 189.856 275.444 187.123C272.711 184.39 269.005 182.852 265.14 182.849ZM106.906 68.5172C106.992 57.0957 111.589 46.1712 119.696 38.1251C127.802 30.0791 138.761 25.5639 150.183 25.5639C161.604 25.5639 172.563 30.0791 180.67 38.1251C188.776 46.1712 193.373 57.0957 193.459 68.5172V86.8686H185.264V68.5172C185.264 59.2141 181.568 50.292 174.99 43.7137C168.411 37.1354 159.489 33.4398 150.186 33.4398C140.883 33.4398 131.961 37.1354 125.383 43.7137C118.805 50.292 115.109 59.2141 115.109 68.5172V86.8686H106.906V68.5172ZM119.966 86.8686V68.5172C119.966 60.5029 123.149 52.8168 128.816 47.1498C134.483 41.4828 142.17 38.2992 150.184 38.2992C158.198 38.2992 165.884 41.4828 171.551 47.1498C177.218 52.8168 180.402 60.5029 180.402 68.5172V86.8686H119.966ZM81.7711 182.841V99.0171C81.7711 97.0839 82.5391 95.2299 83.9061 93.8629C85.273 92.4959 87.127 91.728 89.0602 91.728H211.31C213.243 91.728 215.097 92.4959 216.464 93.8629C217.831 95.2299 218.599 97.0839 218.599 99.0171V182.841H81.7711Z" fill="#3A2C60"/>
<path d="M103.138 275.128H84.23C83.5856 275.128 82.9676 275.384 82.5119 275.84C82.0563 276.295 81.8003 276.913 81.8003 277.558C81.8003 278.202 82.0563 278.82 82.5119 279.276C82.9676 279.731 83.5856 279.987 84.23 279.987H103.138C103.782 279.987 104.4 279.731 104.856 279.276C105.312 278.82 105.568 278.202 105.568 277.558C105.568 276.913 105.312 276.295 104.856 275.84C104.4 275.384 103.782 275.128 103.138 275.128Z" fill="#3A2C60"/>
<path d="M150.186 115.85C146.884 115.852 143.681 116.974 141.1 119.034C138.519 121.094 136.714 123.969 135.98 127.188C135.246 130.408 135.627 133.781 137.06 136.756C138.493 139.73 140.894 142.13 143.869 143.563V160.901C143.869 162.577 144.535 164.183 145.719 165.368C146.904 166.553 148.511 167.218 150.186 167.218C151.862 167.218 153.468 166.553 154.653 165.368C155.838 164.183 156.503 162.577 156.503 160.901V143.563C159.479 142.13 161.879 139.73 163.313 136.756C164.746 133.781 165.127 130.408 164.393 127.188C163.659 123.969 161.854 121.094 159.273 119.034C156.692 116.974 153.488 115.852 150.186 115.85Z" fill="#3A2C60"/>
</svg>
