<svg width="25" height="23" viewBox="0 0 25 23" fill="none" xmlns="http://www.w3.org/2000/svg">
<path d="M19.5606 11.7676C16.5613 11.7676 14.1212 14.2076 14.1212 17.207C14.1212 20.2063 16.5613 22.6465 19.5606 22.6465C22.5599 22.6465 25 20.2065 25 17.207C25 14.2076 22.5597 11.7676 19.5606 11.7676ZM21.1296 17.9394H20.293V18.7759C20.293 19.1805 19.9651 19.5084 19.5606 19.5084C19.156 19.5084 18.8282 19.1805 18.8282 18.7759V17.9394H17.9916C17.5871 17.9394 17.2592 17.6115 17.2592 17.207C17.2592 16.8026 17.5871 16.4745 17.9916 16.4745H18.8282V15.638C18.8282 15.2336 19.156 14.9055 19.5606 14.9055C19.9651 14.9055 20.293 15.2336 20.293 15.638V16.4745H21.1296C21.5341 16.4745 21.862 16.8026 21.862 17.207C21.862 17.6115 21.5341 17.9394 21.1296 17.9394Z" fill="#334164"/>
<path d="M7.79308 10.8789C10.7924 10.8789 13.2325 8.43868 13.2325 5.43938C13.2325 2.44007 10.7922 0 7.79308 0C4.79378 0 2.35352 2.44007 2.35352 5.43938C2.35352 8.43887 4.79378 10.8789 7.79308 10.8789Z" fill="#334164"/>
<path d="M14.2311 12.8223C13.6808 12.0169 12.9837 11.3188 12.1782 10.7683C10.985 11.7521 9.45683 12.3438 7.79305 12.3438C6.12926 12.3438 4.6011 11.7521 3.40767 10.7683C1.35212 12.1729 0 14.535 0 17.207V19.9528C0 21.4382 1.20831 22.6465 2.69356 22.6465H12.8922C13.5475 22.6465 14.1487 22.4112 14.6162 22.0207C13.4043 20.776 12.6562 19.0773 12.6562 17.207C12.6562 15.5436 13.2477 14.0156 14.2311 12.8223Z" fill="#334164"/>
</svg>
