<svg width="25" height="30" viewBox="0 0 25 30" fill="none" xmlns="http://www.w3.org/2000/svg">
<path d="M21.6815 4.37718C22.768 4.37718 23.6487 5.25787 23.6487 6.34439C23.6487 7.43091 22.768 8.3116 21.6815 8.3116H2.68376C1.59751 8.3116 0.716552 7.43091 0.716552 6.34439C0.716552 5.25787 1.59751 4.37718 2.68376 4.37718H21.6815Z" fill="#9699A7"/>
<path d="M21.6393 8.33986V26.2412C21.6393 28.004 20.381 29.2623 18.829 29.2623H5.53637C3.9844 29.2623 2.72607 28.004 2.72607 26.2412V8.3116H21.6393V8.33986Z" fill="#B9BBC4"/>
<path d="M16.3278 10.8691C15.9398 10.8691 15.6253 11.1836 15.6253 11.5717V24.8503C15.6253 25.2381 15.9398 25.5529 16.3278 25.5529C16.7156 25.5529 17.0304 25.2381 17.0304 24.8503V11.5717C17.0304 11.1836 16.7156 10.8691 16.3278 10.8691Z" fill="#2F344C"/>
<path d="M8.03767 10.8691C7.64961 10.8691 7.33509 11.1836 7.33509 11.5717V24.8503C7.33509 25.2381 7.64961 25.5529 8.03767 25.5529C8.42546 25.5529 8.74025 25.2381 8.74025 24.8503V11.5717C8.74025 11.1836 8.42546 10.8691 8.03767 10.8691Z" fill="#2F344C"/>
<path d="M1.99547 8.93129V26.2412C1.99547 27.2644 2.37036 28.2249 3.02601 28.9146C3.67808 29.6059 4.58594 29.9984 5.53634 30H18.829C19.7794 29.9984 20.6872 29.6059 21.3393 28.9146C21.995 28.2249 22.3701 27.2644 22.3701 26.2412V8.93211C22.8271 8.8045 23.2445 8.56354 23.584 8.23173C24.3436 7.46137 24.5676 6.31036 24.1524 5.31111C23.7371 4.31187 22.7637 3.65869 21.6815 3.65348H18.0844V2.77526C18.0885 2.03673 17.7965 1.32757 17.2734 0.805857C16.7506 0.284415 16.0406 -0.00594543 15.3021 9.23125e-05H9.0632C8.32468 -0.00594543 7.61469 0.284415 7.09188 0.805857C6.56879 1.32757 6.27679 2.03673 6.28118 2.77526V3.65348H2.68378C1.20727 3.66885 0.014271 4.86267 0 6.33918C0.00713548 7.55359 0.823329 8.61403 1.99547 8.93129V8.93129ZM18.829 28.5949H5.53634C4.33483 28.5949 3.40062 27.5629 3.40062 26.2412V8.99304H20.965V26.2412C20.965 27.5629 20.0305 28.5949 18.829 28.5949ZM7.68632 2.77526C7.68166 2.40943 7.82547 2.05732 8.08482 1.79907C8.34444 1.54082 8.69737 1.39893 9.0632 1.40524H15.3021C15.6679 1.39893 16.0209 1.54082 16.2805 1.79907C16.5399 2.05704 16.6837 2.40943 16.6793 2.77526V3.65348H7.68632V2.77526ZM1.78909 5.4401C2.02484 5.19914 2.34676 5.06192 2.68378 5.05862H21.6815C22.3816 5.06439 22.9462 5.63386 22.9462 6.33396C22.9459 6.66823 22.8122 6.98851 22.5749 7.22398C22.3372 7.45945 22.0158 7.59036 21.6815 7.58789H2.68378C1.98669 7.58954 1.42052 7.02556 1.41914 6.32875C1.4186 5.99475 1.5517 5.67475 1.78909 5.4401V5.4401Z" fill="#2F344C"/>
<path d="M12.1828 10.8691C11.7947 10.8691 11.4802 11.1836 11.4802 11.5717V24.8503C11.4802 25.2381 11.7947 25.5529 12.1828 25.5529C12.5705 25.5529 12.8853 25.2381 12.8853 24.8503V11.5717C12.8853 11.1836 12.5705 10.8691 12.1828 10.8691Z" fill="#2F344C"/>
</svg>
