<svg width="35" height="35" viewBox="0 0 35 35" fill="none" xmlns="http://www.w3.org/2000/svg">
<path d="M19.0007 18.9812H7.63728C4.24228 18.9812 1.48013 21.7431 1.48013 25.1381V29.6752C1.48013 30.2116 1.91619 30.6477 2.45292 30.6477H24.1851C24.7218 30.6477 25.1576 30.2116 25.1576 29.6752V25.1381C25.1576 21.7431 22.3957 18.9812 19.0007 18.9812Z" fill="#1AACFF"/>
<path d="M24.7918 24.0852H24.427C23.0198 24.0852 21.875 25.23 21.875 26.6375V31.7415C21.875 33.149 23.0198 34.2937 24.427 34.2937H32.448C33.8552 34.2937 35 33.149 35 31.7415V26.6375C35 25.23 33.8552 24.0852 32.448 24.0852H24.7918Z" fill="#FA4B5F"/>
<path d="M20.4168 8.04371C20.4168 12.0708 17.1521 15.3352 13.125 15.3352C9.09795 15.3352 5.83325 12.0708 5.83325 8.04371C5.83325 4.01665 9.09795 0.751953 13.125 0.751953C17.1521 0.751953 20.4168 4.01665 20.4168 8.04371Z" fill="#1AACFF"/>
<path d="M13.125 15.3352C9.10435 15.3352 5.83325 12.0644 5.83325 8.04371C5.83325 4.02306 9.10435 0.751953 13.125 0.751953C17.1457 0.751953 20.4168 4.02306 20.4168 8.04371C20.4168 12.0644 17.1457 15.3352 13.125 15.3352ZM13.125 2.93945C10.3105 2.93945 8.02075 5.22896 8.02075 8.04371C8.02075 10.8582 10.3105 13.1477 13.125 13.1477C15.9395 13.1477 18.2293 10.8582 18.2293 8.04371C18.2293 5.22896 15.9395 2.93945 13.125 2.93945Z" fill="black"/>
<path d="M32.448 34.2937H24.427C23.0198 34.2937 21.875 33.149 21.875 31.7415V26.6375C21.875 25.23 23.0198 24.0852 24.427 24.0852H32.448C33.8552 24.0852 35 25.23 35 26.6375V31.7415C35 33.149 33.8552 34.2937 32.448 34.2937ZM24.427 26.2727C24.2259 26.2727 24.0625 26.4361 24.0625 26.6375V31.7415C24.0625 31.9428 24.2259 32.1062 24.427 32.1062H32.448C32.6491 32.1062 32.8125 31.9428 32.8125 31.7415V26.6375C32.8125 26.4361 32.6491 26.2727 32.448 26.2727H24.427Z" fill="black"/>
<path d="M30.9895 26.2727H25.8855C25.2817 26.2727 24.7917 25.7827 24.7917 25.1789V21.8977C24.7917 19.8883 26.4278 18.252 28.4375 18.252C30.4472 18.252 32.0832 19.8883 32.0832 21.8977V25.1789C32.0832 25.7827 31.5932 26.2727 30.9895 26.2727ZM26.9792 24.0852H29.8957V21.8977C29.8957 21.0942 29.241 20.4395 28.4375 20.4395C27.634 20.4395 26.9792 21.0942 26.9792 21.8977V24.0852Z" fill="black"/>
<path d="M18.2293 31.377H1.09375C0.489998 31.377 0 30.887 0 30.2832V25.1789C0 21.3596 3.10768 18.252 6.92699 18.252H19.6875C20.9068 18.252 22.1068 18.5743 23.157 19.1852C23.679 19.4886 23.8553 20.158 23.5522 20.68C23.2489 21.2037 22.5794 21.3786 22.0558 21.0752C21.3399 20.6598 20.5201 20.4395 19.6875 20.4395H6.92699C4.31385 20.4395 2.1875 22.5658 2.1875 25.1789V29.1895H18.2293C18.833 29.1895 19.323 29.6795 19.323 30.2832C19.323 30.887 18.833 31.377 18.2293 31.377Z" fill="black"/>
</svg>
