<svg width="94" height="76" viewBox="0 0 94 76" fill="none" xmlns="http://www.w3.org/2000/svg">
<path d="M40.619 14.4567L35.4987 9.297C34.8949 8.57763 33.8205 8.48246 33.0988 9.08427C32.3771 9.68608 32.2816 10.757 32.8854 11.4764C32.9457 11.5482 33.012 11.6151 33.0836 11.6763L38.204 16.836C38.9184 17.4462 39.994 17.3634 40.6062 16.6512C41.1477 16.0212 41.1533 15.0931 40.619 14.4567Z" fill="#5D6174"/>
<path d="M84.032 9.5636C83.4282 8.84423 82.3539 8.74906 81.6321 9.35087C81.5601 9.41105 81.4929 9.47706 81.4316 9.54844L76.255 14.6522C75.5333 15.254 75.4378 16.3249 76.0416 17.0443C76.6454 17.7636 77.7198 17.8588 78.4415 17.257C78.5136 17.1968 78.5807 17.1308 78.6421 17.0594L83.8186 11.9557C84.5401 11.3539 84.6358 10.283 84.032 9.5636Z" fill="#5D6174"/>
<path d="M53.1842 8.50086C53.1737 8.45141 53.161 8.40266 53.1461 8.35437L51.2739 1.33789C51.0792 0.42561 50.1794 -0.156608 49.2641 0.0372312C48.3489 0.231071 47.7648 1.12819 47.9592 2.04047C47.9698 2.08993 47.9824 2.13868 47.9974 2.18696L49.8695 9.20344C50.0642 10.1157 50.9641 10.6979 51.8793 10.5041C52.7946 10.3103 53.3789 9.41314 53.1842 8.50086Z" fill="#5D6174"/>
<path d="M76.4623 44.6305C76.144 44.3133 75.8133 44.0024 75.47 43.6975L75.7509 43.1936C76.0993 42.5552 76.4117 41.8979 76.6869 41.2249C80.6744 31.2985 75.8337 20.0295 65.875 16.0549C65.8562 16.0475 65.8377 16.04 65.819 16.0328C56.8158 12.4557 46.5446 16.0384 41.743 24.4302C30.0068 21.1631 17.8356 27.9976 14.5577 39.6959C14.0122 41.6425 13.7386 43.6546 13.7447 45.6755C13.7447 45.9555 13.7447 46.2477 13.7447 46.5526C5.59684 47.1285 -0.540125 54.1791 0.0376724 62.3005C0.583643 69.9764 6.96094 75.9423 14.6808 75.9994H14.7276H63.4039C73.5834 76.0169 81.8497 67.8061 81.8675 57.6598C81.8759 52.773 79.9307 48.0842 76.4623 44.6305ZM52.7232 19.1865C56.5195 17.6817 60.7497 17.6817 64.5459 19.1865C72.7757 22.4593 76.7925 31.7566 73.523 39.9653C73.2862 40.5305 73.0175 41.0819 72.7179 41.6168V41.7661C68.0186 39.043 62.3536 38.5242 57.2351 40.3479C56.2904 36.591 54.3656 33.1499 51.6561 30.3736C53.5491 26.8705 57.7664 25.3252 61.485 26.7721C62.3738 27.0634 63.3314 26.5813 63.6237 25.6954C63.8919 24.8827 63.5078 23.9984 62.7299 23.6371C57.681 21.6205 51.9081 23.4992 49.0257 28.097C47.7482 27.1397 46.3705 26.3231 44.9163 25.6618C46.7445 22.7159 49.4846 20.443 52.7232 19.1865ZM66.9599 72.1928C65.8012 72.4688 64.6138 72.6067 63.4226 72.6034H14.7463C8.4547 72.5978 3.35889 67.5092 3.36451 61.238C3.36732 58.2324 4.56527 55.3507 6.69603 53.2241L6.67731 53.2334C8.81087 51.1033 11.7078 49.9078 14.7276 49.9118H15.1395H15.5046C16.4381 49.9752 17.2466 49.2722 17.31 48.3417C17.3201 48.1959 17.311 48.0492 17.2831 47.9057C17.2457 47.5822 17.2146 47.2309 17.1895 46.8514C17.1895 46.4968 17.1895 46.105 17.1895 45.6664C17.3283 35.3922 25.7968 27.1754 36.1047 27.3137C45.162 27.4352 52.8243 34.0209 54.2771 42.9326C54.4112 43.8556 55.2705 44.4957 56.1968 44.362C56.3756 44.3362 56.5492 44.282 56.7109 44.2016C57.7474 43.6849 58.8405 43.2904 59.9685 43.0259C68.049 41.1015 76.1646 46.0709 78.0953 54.1252C80.0259 62.1792 75.0404 70.2684 66.9599 72.1928Z" fill="#5D6174"/>
<path d="M92.9255 25.5663C92.6671 24.731 91.8118 24.2305 90.9539 24.4122L83.9145 26.2782C83.0107 26.5115 82.4666 27.4294 82.6976 28.3309C82.9309 29.2341 83.8546 29.7779 84.761 29.5453C84.7629 29.5448 84.7647 29.5444 84.7664 29.5439L91.8057 27.6778C92.7001 27.403 93.2014 26.4576 92.9255 25.5663Z" fill="#5D6174"/>
<path d="M91.7313 42.0754L84.7107 40.1627C83.8085 39.9049 82.8678 40.4251 82.6092 41.3243C82.3506 42.2235 82.8724 43.1612 83.7746 43.419L90.7952 45.3317C91.6974 45.5895 92.6381 45.0693 92.8967 44.1701C93.1551 43.2709 92.6335 42.3332 91.7313 42.0754Z" fill="#5D6174"/>
<path d="M67.8066 0.204664C66.9044 -0.0530895 65.9637 0.467082 65.7051 1.3663L63.7861 8.36412C63.5184 9.25774 64.0281 10.1987 64.9246 10.4656C64.9443 10.4714 64.9642 10.477 64.9843 10.4821C65.882 10.7455 66.824 10.2337 67.0882 9.33892C67.0924 9.32516 67.0961 9.31116 67.0999 9.29717L68.972 2.29934C69.2304 1.40012 68.7087 0.462417 67.8066 0.204664Z" fill="#5D6174"/>
</svg>
