<svg width="9" height="99" viewBox="0 0 9 99" fill="none" xmlns="http://www.w3.org/2000/svg">
<ellipse cx="4.99501" cy="4" rx="3.99501" ry="4" fill="#1AACFF"/>
<ellipse cx="4.63032" cy="56" rx="1.9975" ry="2" fill="#E6F1FE"/>
<ellipse cx="4.63032" cy="64" rx="1.9975" ry="2" fill="#E6F1FE"/>
<ellipse cx="4.63032" cy="72" rx="1.9975" ry="2" fill="#E6F1FE"/>
<ellipse cx="4.63032" cy="80" rx="1.9975" ry="2" fill="#E6F1FE"/>
<ellipse cx="4.63032" cy="24" rx="1.9975" ry="2" fill="#E6F1FE"/>
<ellipse cx="4.63032" cy="32" rx="1.9975" ry="2" fill="#E6F1FE"/>
<ellipse cx="4.63032" cy="16" rx="1.9975" ry="2" fill="#E6F1FE"/>
<ellipse cx="4.63032" cy="40" rx="1.9975" ry="2" fill="#E6F1FE"/>
<ellipse cx="4.63032" cy="48" rx="1.9975" ry="2" fill="#E6F1FE"/>
<path d="M8.62673 92C8.62673 94.2091 6.83811 99 4.63172 99C2.42534 99 0.636719 94.2091 0.636719 92C0.636719 89.7909 2.42534 88 4.63172 88C6.83811 88 8.62673 89.7909 8.62673 92Z" fill="#1AACFF"/>
<ellipse cx="4.63032" cy="92" rx="1.9975" ry="2" fill="#FAFBFA"/>
</svg>
