<svg width="70" height="52" viewBox="0 0 70 52" fill="none" xmlns="http://www.w3.org/2000/svg">
<path d="M18.5607 25.1458C18.2603 20.9194 15.1259 17.4741 10.889 17.4741C6.65206 17.4741 3.51765 20.9194 3.21728 25.1458C3.03831 27.6655 3.21728 31.7216 2.12134 33.9134C2.12134 33.9134 3.21728 36.1053 7.25909 37.2043L14.541 37.2013C18.5607 36.1053 19.6566 33.9134 19.6566 33.9134C18.5607 31.7216 18.7396 27.6655 18.5607 25.1458Z" fill="#694B4B"/>
<path d="M9.79304 25.1459C5.56952 23.0341 6.43878 18.8966 9.44782 17.6161C5.95712 18.2972 3.48237 21.4152 3.21728 25.1459C3.03831 27.6656 3.21728 31.7216 2.12134 33.9135C2.12134 33.9135 3.21728 36.1054 7.25909 37.2043L10.7205 37.203L9.79304 25.1459Z" fill="#5A4146"/>
<path d="M18.935 39.8394L15.3884 38.0662C14.6457 37.6948 14.1766 36.9358 14.1766 36.1055L14.1768 32.8174H7.60115V36.1055C7.60115 36.9356 7.13207 37.6946 6.38955 38.0659L2.84279 39.8393C1.72895 40.3963 1.02539 41.5346 1.02539 42.7799V50.3527H20.7525V42.7801C20.7525 41.5348 20.049 40.3964 18.935 39.8394Z" fill="#E6AF78"/>
<path d="M20.7525 42.7802C20.7525 41.5349 20.0488 40.3964 18.935 39.8394L15.3884 38.0662C15.1842 37.9642 15.0065 37.8282 14.8479 37.6742L13.5901 39.0742C12.1045 40.7277 9.67352 40.7275 8.18793 39.0742L6.92999 37.6741C6.77126 37.828 6.59352 37.9641 6.38967 38.066L2.84278 39.8394C1.72907 40.3963 1.02551 41.5347 1.02551 42.78V50.3528H20.7527L20.7525 42.7802Z" fill="#D5DCED"/>
<path d="M10.889 35.0095C8.37731 35.0095 6.19446 33.6013 5.08704 31.5313C4.33427 30.1242 4.82509 28.3591 6.1298 27.4402C6.38013 27.2638 6.6388 27.0627 6.89323 26.8356C7.6769 26.1363 8.13587 25.3988 8.39454 24.8584C8.61616 24.3954 9.12681 24.134 9.62419 24.2608C13.4937 25.2468 16.1253 27.2622 17.0736 28.0785C17.3256 28.2955 17.4706 28.6149 17.445 28.9464C17.1835 32.3385 14.3482 35.0095 10.889 35.0095Z" fill="#F0C087"/>
<path d="M17.0723 28.0774C16.1234 27.2605 13.4939 25.2477 9.62842 24.2617C9.12857 24.1342 8.61574 24.3972 8.39275 24.8623C8.19656 25.2713 7.8724 25.7924 7.39129 26.3243C7.39115 26.3255 7.39088 26.3267 7.39074 26.328C7.24144 26.4972 7.08244 26.6667 6.89336 26.8356C6.64931 27.0533 6.40377 27.2503 6.16096 27.4182C4.61426 28.4881 4.38197 30.4507 5.32984 31.9415C6.32707 33.5098 7.97426 34.6239 9.89201 34.9172C8.57992 34.0245 7.60115 32.8143 7.60115 30.6258V29.779C7.85012 29.5953 8.10072 29.4119 8.35269 29.1872C8.96178 28.6436 9.49361 28.0149 9.92004 27.338C12.8721 28.2592 14.8734 29.7935 15.632 30.4459C15.8397 30.628 16.1309 30.8853 16.734 31.4511C17.1207 30.8408 17.3908 29.6525 17.445 28.945C17.4706 28.6138 17.3239 28.294 17.0723 28.0774Z" fill="#E6AF78"/>
<path d="M1.69354 40.8046C1.27135 41.3647 1.02539 42.0523 1.02539 42.7801V50.3527H5.40928V44.8305C5.40928 44.1647 5.10658 43.5348 4.58664 43.1189L1.69354 40.8046Z" fill="#C7CFE2"/>
<path d="M20.0845 40.8046C20.5067 41.3647 20.7527 42.0523 20.7527 42.7801V50.3527H16.3688V44.8305C16.3688 44.1647 16.6715 43.5348 17.1914 43.1189L20.0845 40.8046Z" fill="#C7CFE2"/>
<path d="M50.3434 21.858V22.6272C50.3434 23.5696 50.4953 24.5057 50.7933 25.3997L52.5353 30.6257H55.8231V18.5702H53.6312C51.8154 18.5701 50.3434 20.0421 50.3434 21.858Z" fill="#5A4146"/>
<path d="M65.4337 23.8395L63.4948 30.6256L54.7272 22.9539C53.5166 22.9539 52.5353 21.9726 52.5353 20.7621C52.5353 18.9462 54.0073 17.4742 55.8231 17.4742H65.6867V22.033C65.6868 22.6439 65.6016 23.252 65.4337 23.8395Z" fill="#694B4B"/>
<path d="M61.3033 33.9133H54.7271V40.4895H61.3033V33.9133Z" fill="#E6AF78"/>
<path d="M66.59 38.0828L61.3027 36.5721L58.0151 40.4891L54.7273 36.5721L49.4403 38.0828C48.0288 38.4861 47.0556 39.7761 47.0556 41.2441V50.3527H68.9746V41.2442C68.9746 39.7761 68.0015 38.4861 66.59 38.0828Z" fill="#D5DCED"/>
<path d="M58.0151 35.0094C54.3834 35.0094 51.4393 32.0653 51.4393 28.4336C51.4393 27.0302 51.9969 25.6842 52.9892 24.6918L54.0686 23.6124C54.4894 23.1916 55.0648 22.9496 55.6596 22.9683C59.163 23.0788 62.264 23.8294 63.9592 25.4849C64.3742 25.8901 64.5907 26.4571 64.5907 27.037V28.4335C64.5909 32.0653 61.6468 35.0094 58.0151 35.0094Z" fill="#F0C087"/>
<path d="M54.7272 28.4336C54.7272 27.1694 55.7889 26.1645 57.0506 26.2449C59.2631 26.386 62.5461 26.7558 64.5603 27.7247C64.4945 27.2624 64.2958 25.8138 63.9591 25.4849C62.2641 23.8294 59.163 23.0788 55.6596 22.9683H55.6595C55.0647 22.9496 54.4893 23.1917 54.0685 23.6124L52.9891 24.6918C51.9966 25.6842 51.4392 27.0301 51.4392 28.4336C51.4392 31.4324 53.4486 33.9573 56.1929 34.748C55.2795 33.6209 54.727 32.1904 54.727 30.6255V28.4336H54.7272Z" fill="#E6AF78"/>
<path d="M64.5907 44.5097C64.5907 43.6377 64.9372 42.8014 65.5538 42.1848L68.375 39.3636C68.752 39.9026 68.9746 40.5515 68.9746 41.2441V50.3527H64.5907V44.5097Z" fill="#C7CFE2"/>
<path d="M50.7455 38.344L41.5757 35.0095L35 37.2014L28.4242 35.0095L19.2545 38.344C17.522 38.974 16.3688 40.6205 16.3688 42.4638V50.3528H53.6312V42.4638C53.6312 40.6205 52.478 38.974 50.7455 38.344Z" fill="#FB4C60"/>
<path d="M52.4516 39.4771C53.1917 40.2714 53.6312 41.3292 53.6312 42.4639V50.353H47.0555V46.6891C47.0555 45.5264 47.5173 44.4114 48.3394 43.5893L52.4516 39.4771Z" fill="#DD4354"/>
<path d="M47.0554 12.4077V3.22667C47.0554 2.01616 46.0741 1.03479 44.8636 1.03479H31.712C26.8699 1.03479 22.9444 4.96026 22.9444 9.80243V12.4077C22.9444 13.5857 23.1343 14.7559 23.5069 15.8734L23.8716 16.9679C23.9833 17.3031 24.0403 17.6542 24.0403 18.0076V18.5701H45.9595V18.0076C45.9595 17.6542 46.0165 17.3031 46.1282 16.9679L46.493 15.8734C46.8655 14.756 47.0554 13.5857 47.0554 12.4077Z" fill="#5A4146"/>
<path d="M28.4242 5.48717C28.4242 7.94606 30.4176 9.93956 32.8766 9.93956H33.4931L33.7907 18.5702H45.9596V18.0077C45.9596 17.6543 46.0166 17.3034 46.1283 16.968L46.4931 15.8736C46.8657 14.756 47.0556 13.5858 47.0556 12.4079V3.22667C47.0556 2.01602 46.0742 1.03479 44.8637 1.03479H32.8767C30.4176 1.03479 28.4242 3.02815 28.4242 5.48717Z" fill="#694B4B"/>
<path d="M41.5748 27.3372H28.4238V37.2H41.5748V27.3372Z" fill="#E6AF78"/>
<path d="M28.4242 32.2978C30.3927 33.3247 32.6261 33.9135 35 33.9135C37.3738 33.9135 39.6073 33.3247 41.5758 32.2978V27.3378H28.4242V32.2978Z" fill="#D29B6E"/>
<path d="M35 37.2013L31.5046 40.6967C31.0349 41.1664 30.2583 41.1135 29.8566 40.5843L26.2324 35.8088L27.1804 33.8111C27.4601 33.2216 28.1898 33.0056 28.7454 33.3479L35 37.2013Z" fill="#DD4354"/>
<path d="M35 37.2013L38.4954 40.6967C38.9651 41.1664 39.7417 41.1135 40.1434 40.5843L43.7676 35.8088L42.8196 33.8111C42.5399 33.2216 41.8102 33.0056 41.2546 33.3479L35 37.2013Z" fill="#DD4354"/>
<path d="M35 30.6257C28.9472 30.6257 24.0405 25.719 24.0405 19.6662V18.5702L25.8643 17.3544C26.779 16.7446 27.3284 15.718 27.3284 14.6186V10.8985C27.3284 10.8985 36.0962 7.61056 42.6718 13.0905C42.6718 13.0905 42.6718 13.8367 42.6718 14.6181C42.6718 15.7174 43.2212 16.7445 44.136 17.3544L45.9596 18.5702V19.6662C45.9595 25.7188 41.0528 30.6257 35 30.6257Z" fill="#F0C087"/>
<path d="M17.5484 39.4771C16.8083 40.2714 16.3688 41.3292 16.3688 42.4639V50.353H22.9445V46.6891C22.9445 45.5264 22.4827 44.4114 21.6606 43.5893L17.5484 39.4771Z" fill="#DD4354"/>
<path d="M32.544 13.5327C34.9271 13.2338 39.0987 13.0622 42.6717 14.618C42.6717 14.1785 42.6717 13.0904 42.6717 13.0904C36.096 7.61044 27.3283 10.8984 27.3283 10.8984V14.6185C27.3283 15.7179 26.779 16.7443 25.8642 17.3542L24.0405 18.5701V19.666C24.0405 25.2696 28.2486 29.8827 33.6756 30.5379H33.6759C31.7847 28.5686 30.6163 25.8998 30.6163 22.954V15.7098C30.6161 14.5991 31.442 13.6709 32.544 13.5327Z" fill="#E6AF78"/>
<path d="M60.8415 24.9664C60.9888 25.04 61.1452 25.0748 61.2993 25.0748C61.6754 25.0748 62.0375 24.867 62.2172 24.5078C62.4705 24.0013 62.2652 23.3853 61.7586 23.132C59.3767 21.9412 54.9108 21.9274 54.7218 21.9274C54.1556 21.9274 53.6965 22.3865 53.6965 22.9528C53.6965 23.519 54.1556 23.9782 54.7218 23.9782C55.8743 23.9783 59.2202 24.1557 60.8415 24.9664Z" fill="black"/>
<path d="M66.8708 37.731L62.6359 36.521C62.4531 36.4688 62.3254 36.2995 62.3254 36.1093V34.6958C62.67 34.4571 62.9986 34.1899 63.3058 33.8918C64.7947 32.4469 65.6146 30.5089 65.6146 28.4346V26.4841L66.0241 25.6653C66.4735 24.7663 66.711 23.7599 66.711 22.7551V17.4709C66.711 16.9046 66.2519 16.4455 65.6856 16.4455H55.8182C52.2301 16.4455 49.3109 19.3647 49.3109 22.9528V23.0139C49.3109 23.8495 49.5085 24.6863 49.8821 25.4337L50.4072 26.4839V28.1587C50.4072 30.813 51.7152 33.1945 53.6964 34.6276L53.6967 36.1091C53.6967 36.3375 53.6967 36.4321 52.85 36.6741L50.7836 37.2645L44.8062 35.0909C44.8276 34.8089 44.7325 34.522 44.5267 34.3059L42.6166 32.2991V28.9304C42.8185 28.764 43.0176 28.5931 43.2105 28.4123C45.6202 26.1537 47.0021 22.9649 47.0021 19.6636V16.9732C47.7297 15.3899 48.0985 13.7144 48.0985 11.9889V1.02539C48.0985 0.459102 47.6394 0 47.0731 0H31.7238C26.3221 0 21.9275 4.39469 21.9275 9.79631V11.9891C21.9275 13.7147 22.2962 15.3902 23.0238 16.9735V19.2883C23.0238 23.1213 24.7282 26.5746 27.4094 28.8512V32.2993L25.4993 34.306C25.2935 34.5222 25.1984 34.809 25.2198 35.0911L18.9109 37.3851C18.4538 37.5513 18.029 37.7765 17.6433 38.0492L16.6526 37.5539C19.6016 36.2703 20.5358 34.4649 20.5807 34.3752C20.7251 34.0866 20.7251 33.7467 20.5807 33.4581C19.8414 31.9796 19.7519 29.2697 19.68 27.0923C19.6561 26.3674 19.6334 25.6826 19.59 25.0728C19.2404 20.1545 15.5014 16.4455 10.8927 16.4455C6.28387 16.4455 2.54475 20.1544 2.19529 25.0728C2.15195 25.6828 2.12926 26.3676 2.10533 27.0926C2.03342 29.2698 1.94373 31.9795 1.20463 33.4579C1.06025 33.7466 1.06025 34.0864 1.20463 34.3751C1.24947 34.4647 2.18176 36.2664 5.13666 37.5516L2.38492 38.9274C0.913828 39.6633 0 41.1419 0 42.7867V50.3621C0 50.9284 0.459102 51.3875 1.02539 51.3875C1.59168 51.3875 2.05078 50.9284 2.05078 50.3621V42.7867C2.05078 41.9237 2.53025 41.1478 3.30203 40.7619L6.72861 39.0486L7.92053 40.1814C8.75396 40.9734 9.8231 41.3692 10.8927 41.3692C11.9619 41.3692 13.0316 40.9731 13.8648 40.1814L15.0566 39.0488L16.1738 39.6074C15.6477 40.4492 15.3491 41.4363 15.3491 42.4703V50.3624C15.3491 50.9287 15.8082 51.3878 16.3745 51.3878C16.9408 51.3878 17.3999 50.9287 17.3999 50.3624V42.4703C17.3999 41.0627 18.2887 39.7936 19.6118 39.3125L26.2634 36.8938L29.0324 41.0475C29.3863 41.5785 29.9536 41.9191 30.5886 41.982C30.6595 41.9889 30.7299 41.9923 30.8001 41.9923C31.3604 41.9923 31.897 41.7718 32.2982 41.3708L33.9875 39.6815V50.3625C33.9875 50.9288 34.4466 51.3879 35.0129 51.3879C35.5791 51.3879 36.0382 50.9288 36.0382 50.3625V39.6815L37.7275 41.3708C38.1285 41.772 38.6652 41.9925 39.2256 41.9925C39.2957 41.9925 39.3662 41.9891 39.4369 41.9821C40.0721 41.9192 40.6394 41.5786 40.9933 41.0476L43.7624 36.8941L50.4139 39.3128C51.7368 39.7939 52.6258 41.0629 52.6258 42.4706V50.3627C52.6258 50.929 53.0849 51.3881 53.6512 51.3881C54.2175 51.3881 54.6766 50.929 54.6766 50.3627V42.4706C54.6766 41.0449 54.1101 39.7078 53.1599 38.7189L53.4133 38.6466C53.6688 38.5736 54.0174 38.4736 54.3674 38.302L56.9855 40.9201V50.3627C56.9855 50.929 57.4446 51.3881 58.0109 51.3881C58.5772 51.3881 59.0363 50.929 59.0363 50.3627V40.9201L61.6361 38.3202C61.7743 38.3905 61.9195 38.4498 62.0724 38.4934L66.3074 39.7034C67.274 39.9796 67.9492 40.8747 67.9492 41.8801V50.3627C67.9492 50.929 68.4083 51.3881 68.9746 51.3881C69.5409 51.3881 70 50.929 70 50.3627V41.8801C70 39.9634 68.7132 38.2575 66.8708 37.731ZM15.2071 35.9233L15.2072 34.7003C16.4001 33.879 17.3485 32.7238 17.9144 31.3577C18.0373 32.2406 18.2187 33.077 18.4982 33.8074C18.0898 34.3049 17.1232 35.2334 15.2071 35.9233ZM4.24102 25.2183C4.37199 23.3759 5.10822 21.6781 6.31408 20.4375C7.53074 19.1857 9.15688 18.4964 10.8929 18.4964C12.629 18.4964 14.255 19.1857 15.4718 20.4375C16.6776 21.6781 17.4139 23.3759 17.5448 25.2183C17.5853 25.7894 17.6075 26.4552 17.6307 27.1601C17.6328 27.2207 17.6348 27.2821 17.6369 27.3431C16.5212 25.6242 14.7983 24.3575 12.5721 23.6422C10.5154 22.9815 8.74658 23.0223 8.67193 23.0243C8.40342 23.0318 8.14857 23.1442 7.96223 23.3375L6.11215 25.2562C5.71908 25.6639 5.73084 26.313 6.13854 26.7061C6.54623 27.0992 7.19537 27.0873 7.58844 26.6797L9.12789 25.0832C10.4537 25.148 14.7189 25.6441 16.3777 29.2968C15.9603 31.9886 13.6467 33.9876 10.8932 33.9876C7.83125 33.9876 5.34037 31.4966 5.34037 28.4348C5.34037 27.8685 4.88127 27.4094 4.31498 27.4094C4.25756 27.4094 4.2015 27.4153 4.14668 27.4244C4.14969 27.3362 4.15256 27.2479 4.15557 27.1605C4.1784 26.4555 4.20041 25.7895 4.24102 25.2183ZM3.2874 33.8071C3.5674 33.0751 3.74896 32.2368 3.87188 31.3518C4.43734 32.7076 5.38439 33.8651 6.57822 34.6909V35.9198C4.6602 35.2297 3.69811 34.3096 3.2874 33.8071ZM9.33338 38.6948L8.37977 37.7887C8.54068 37.4872 8.62914 37.1454 8.62914 36.7873V35.6944C9.34445 35.9179 10.1049 36.0385 10.8929 36.0385C11.68 36.0385 12.44 35.9174 13.1566 35.6951L13.1564 36.7872C13.1564 37.1454 13.2448 37.4873 13.4058 37.7889L12.4523 38.695C11.5778 39.5259 10.2077 39.5258 9.33338 38.6948ZM25.0746 19.2881V16.7441C25.0746 16.5897 25.0398 16.4373 24.9726 16.2982C24.3128 14.9319 23.9783 13.4821 23.9783 11.9891V9.79631C23.9783 5.52535 27.453 2.05078 31.7238 2.05078H46.0477V11.9891C46.0477 13.4821 45.7131 14.9319 45.0533 16.2982C44.9862 16.4373 44.9513 16.5897 44.9513 16.7441V19.6637C44.9513 22.4406 43.835 25.0162 41.808 26.9162C41.555 27.1533 41.2923 27.3756 41.0208 27.5827C41.0148 27.5868 41.0091 27.5913 41.0032 27.5956C39.1043 29.0373 36.7784 29.738 34.3495 29.5806C29.1486 29.2439 25.0746 24.7229 25.0746 19.2881ZM34.2167 31.627C34.487 31.6445 34.7557 31.6531 35.0235 31.6531C36.9842 31.6531 38.8712 31.1845 40.5658 30.2948V32.1679L35.013 35.9635L29.4602 32.1679V30.2538C30.8969 31.0305 32.5057 31.5163 34.2167 31.627ZM30.8481 39.9205C30.841 39.9276 30.8245 39.9444 30.791 39.9409C30.7576 39.9376 30.7445 39.918 30.7389 39.9096L27.5499 35.1261L28.5761 34.0478L33.4139 37.3546L30.8481 39.9205ZM39.2871 39.9097C39.2815 39.9182 39.2684 39.9377 39.235 39.941C39.2015 39.9453 39.1851 39.9276 39.1779 39.9206L36.612 37.3548L41.4498 34.0479L42.4762 35.1262L39.2871 39.9097ZM52.458 28.159V26.2421C52.458 26.0828 52.421 25.9258 52.3497 25.7835L51.7163 24.5167C51.4843 24.0525 51.3617 23.533 51.3617 23.014V22.9529C51.3617 20.4955 53.3609 18.4964 55.8182 18.4964H64.6602V22.7552C64.6602 23.4434 64.4975 24.1326 64.1897 24.7483L63.6721 25.7835C63.6009 25.926 63.5638 26.0828 63.5638 26.2421V28.4348C63.5638 29.9496 62.965 31.3649 61.8777 32.4201C60.7909 33.4748 59.3552 34.0318 57.8394 33.985C54.8721 33.896 52.458 31.2823 52.458 28.159ZM57.7778 36.0348C57.8568 36.0373 57.9351 36.0384 58.0139 36.0384C58.7921 36.0384 59.5517 35.9208 60.2746 35.6964V36.1093C60.2746 36.3139 60.3004 36.5143 60.3487 36.7069L58.0109 39.0447L55.6839 36.7179C55.7245 36.5334 55.7475 36.3315 55.7473 36.1088L55.7472 35.6761C56.3929 35.888 57.0735 36.0138 57.7778 36.0348Z" fill="black"/>
<path d="M64.5891 42.7585C64.0228 42.7585 63.5637 43.2176 63.5637 43.7839V50.3622C63.5637 50.9284 64.0228 51.3876 64.5891 51.3876C65.1554 51.3876 65.6145 50.9284 65.6145 50.3622V43.7839C65.6145 43.2176 65.1554 42.7585 64.5891 42.7585Z" fill="black"/>
<path d="M5.41092 44.1139C4.84463 44.1139 4.38553 44.573 4.38553 45.1393V50.3621C4.38553 50.9284 4.84463 51.3875 5.41092 51.3875C5.97721 51.3875 6.43631 50.9284 6.43631 50.3621V45.1393C6.43631 44.573 5.97721 44.1139 5.41092 44.1139Z" fill="black"/>
<path d="M28.3636 11.8196C28.3636 11.7847 28.3866 11.7549 28.4172 11.7503C29.7389 11.5511 32.3616 11.2438 35.0789 11.4249C38.2764 11.6378 40.5925 12.4404 41.9625 13.8106C42.363 14.2111 43.0123 14.2111 43.4126 13.8106C43.813 13.4102 43.813 12.7609 43.4126 12.3606C39.5344 8.48245 31.4203 9.22387 28.1114 9.72262C27.0692 9.87971 26.3129 10.7617 26.3129 11.8197V14.182C26.3129 14.7483 26.772 15.2074 27.3383 15.2074C27.9045 15.2074 28.3636 14.7483 28.3636 14.182V11.8196Z" fill="black"/>
<path d="M22.9529 44.9513C22.3866 44.9513 21.9275 45.4104 21.9275 45.9767V50.3622C21.9275 50.9285 22.3866 51.3876 22.9529 51.3876C23.5192 51.3876 23.9783 50.9285 23.9783 50.3622V45.9767C23.9783 45.4104 23.5192 44.9513 22.9529 44.9513Z" fill="black"/>
<path d="M47.0731 44.9513C46.5068 44.9513 46.0477 45.4104 46.0477 45.9767V50.3622C46.0477 50.9285 46.5068 51.3876 47.0731 51.3876C47.6393 51.3876 48.0984 50.9285 48.0984 50.3622V45.9767C48.0984 45.4104 47.6393 44.9513 47.0731 44.9513Z" fill="black"/>
</svg>
