<svg width="58" height="58" viewBox="0 0 58 58" fill="none" xmlns="http://www.w3.org/2000/svg">
<g clip-path="url(#clip0)">
<path d="M15.0086 13.737C17.8185 13.737 20.0963 11.4591 20.0963 8.64924C20.0963 5.83937 17.8185 3.56152 15.0086 3.56152C12.1987 3.56152 9.9209 5.83937 9.9209 8.64924C9.9209 11.4591 12.1987 13.737 15.0086 13.737Z" fill="#E6E7EC"/>
<path d="M19.0787 16.7896H10.9383C8.14006 16.7896 5.85059 19.079 5.85059 21.8773V34.0878C5.85059 35.7667 7.22427 37.1404 8.90322 37.1404V43.2457H10.9383V56.4738C10.9383 57.3387 11.5997 58.0001 12.4646 58.0001C13.3295 58.0001 13.9909 57.3387 13.9909 56.4738V43.2457H16.026V56.4738C16.026 57.3387 16.6874 58.0001 17.5523 58.0001C18.4173 58.0001 19.0787 57.3387 19.0787 56.4738V43.2457H21.1137V37.1404C22.7927 37.1404 24.1664 35.7667 24.1664 34.0878V21.8773C24.1664 19.079 21.8769 16.7896 19.0787 16.7896Z" fill="#E6E7EC"/>
<path d="M39.4295 13.737C42.2394 13.737 44.5172 11.4591 44.5172 8.64924C44.5172 5.83937 42.2394 3.56152 39.4295 3.56152C36.6196 3.56152 34.3418 5.83937 34.3418 8.64924C34.3418 11.4591 36.6196 13.737 39.4295 13.737Z" fill="#E6E7EC"/>
<path d="M43.4996 16.7896H35.3592C32.561 16.7896 30.2715 19.079 30.2715 21.8773V34.0878C30.2715 35.7667 31.6452 37.1404 33.3241 37.1404V43.2457H35.3592V56.4738C35.3592 57.3387 36.0206 58.0001 36.8855 58.0001C37.7504 58.0001 38.4118 57.3387 38.4118 56.4738V43.2457H40.4469V56.4738C40.4469 57.3387 41.1083 58.0001 41.9732 58.0001C42.8382 58.0001 43.4996 57.3387 43.4996 56.4738V43.2457H45.5346V37.1404C47.2136 37.1404 48.5873 35.7667 48.5873 34.0878V21.8773C48.5873 19.079 46.2978 16.7896 43.4996 16.7896Z" fill="#E6E7EC"/>
<path d="M45.5349 57.9999H8.90327C8.03836 57.9999 7.37695 57.3385 7.37695 56.4736C7.37695 55.6087 8.03836 54.9473 8.90327 54.9473H45.5349C46.3998 54.9473 47.0612 55.6087 47.0612 56.4736C47.0612 57.3385 46.3998 57.9999 45.5349 57.9999Z" fill="#99A0B1"/>
<path d="M50.6222 57.9999C50.5204 57.9999 50.4187 57.9999 50.3169 57.9491C50.2152 57.9491 50.1134 57.8982 50.0117 57.8473C49.9099 57.7964 49.859 57.7455 49.7573 57.6947C49.6555 57.6438 49.6047 57.5929 49.5029 57.4912C49.452 57.4403 49.3503 57.3385 49.2994 57.2877C49.2485 57.1859 49.1976 57.135 49.1468 57.0333C49.0959 56.9315 49.0959 56.8298 49.045 56.728C49.045 56.6263 48.9941 56.5245 48.9941 56.4227C48.9941 56.0157 49.1468 55.6087 49.452 55.3543C49.5029 55.3035 49.6047 55.2017 49.7064 55.1508C49.8082 55.0999 49.859 55.0491 49.9608 54.9982C50.0626 54.9473 50.1643 54.9473 50.2661 54.8964C50.4696 54.8456 50.6731 54.8456 50.8766 54.8964C50.9783 54.8964 51.0801 54.9473 51.1818 54.9982C51.2836 55.0491 51.3854 55.0999 51.4362 55.1508C51.538 55.2017 51.5889 55.2526 51.6906 55.3543C51.9959 55.6596 52.1485 56.0157 52.1485 56.4227C52.1485 56.5245 52.1485 56.6263 52.0976 56.728C52.0976 56.8298 52.0468 56.9315 51.9959 57.0333C51.945 57.135 51.8941 57.2368 51.8433 57.2877C51.7924 57.3894 51.7415 57.4403 51.6397 57.4912C51.5889 57.542 51.4871 57.6438 51.3854 57.6947C51.2836 57.7455 51.2327 57.7964 51.131 57.8473C51.0292 57.8982 50.9275 57.8982 50.8257 57.9491C50.8257 57.9999 50.724 57.9999 50.6222 57.9999Z" fill="#99A0B1"/>
<path d="M22.6404 40.7018H15.5176V50.8772H22.6404V40.7018Z" fill="#E6E7EC"/>
<path d="M27.2195 32.0527H33.3248V53.4212C33.3248 55.1001 31.9511 56.4738 30.2721 56.4738C28.5932 56.4738 27.2195 55.1001 27.2195 53.4212C27.2195 55.1001 25.8458 56.4738 24.1669 56.4738C22.4879 56.4738 21.1143 55.1001 21.1143 53.4212V32.0527H27.2195Z" fill="#F6F7F8"/>
<path d="M23.1492 16.7896H31.2895C34.0878 16.7896 36.3772 19.079 36.3772 21.8773V37.1404H27.2193H21.1141H15.5176L17.5018 21.2667C17.8071 18.7229 19.9948 16.7896 22.5386 16.7896H23.1492Z" fill="#F6F7F8"/>
<path d="M26.2008 27.9824C25.8956 27.6771 25.7429 27.2192 25.7938 26.7613L26.6587 19.842C26.7096 19.5368 26.964 19.3333 27.2184 19.3333C27.5236 19.3333 27.778 19.5368 27.778 19.842L28.6429 26.7613C28.6938 27.2192 28.5412 27.6262 28.2359 27.9824C27.6763 28.542 26.7605 28.542 26.2008 27.9824Z" fill="#E6E7EC"/>
<path d="M33.3238 37.1403V40.5999C32.9677 40.6508 32.6624 40.7017 32.3063 40.7017H21.1133V37.1403H33.3238Z" fill="#E6E7EC"/>
<path d="M15.5171 38.6667C15.4663 38.6667 15.4154 38.6667 15.3136 38.6667C14.4996 38.5649 13.8891 37.8018 13.9908 36.9877L15.975 21.1141C16.3821 17.7562 19.2312 15.2632 22.5382 15.2632H23.1487C24.0136 15.2632 24.675 15.9246 24.675 16.7895C24.675 17.6544 24.0136 18.3158 23.1487 18.3158H22.5382C20.7575 18.3158 19.2312 19.6386 19.0277 21.4193L17.0435 37.3439C16.9417 38.107 16.2803 38.6667 15.5171 38.6667Z" fill="#99A0B1"/>
<path d="M24.1666 58C21.6227 58 19.5876 55.9649 19.5876 53.4211V37.1403C19.5876 36.2754 20.249 35.614 21.114 35.614C21.9789 35.614 22.6403 36.2754 22.6403 37.1403V53.4211C22.6403 54.286 23.3017 54.9474 24.1666 54.9474C25.0315 54.9474 25.6929 54.286 25.6929 53.4211V37.1403C25.6929 36.2754 26.3543 35.614 27.2192 35.614C28.0841 35.614 28.7455 36.2754 28.7455 37.1403V53.4211C28.7455 55.9649 26.7105 58 24.1666 58Z" fill="#99A0B1"/>
<path d="M15.5175 50.8772C14.6526 50.8772 13.9912 50.2158 13.9912 49.3509V42.2281C13.9912 41.3632 14.6526 40.7018 15.5175 40.7018C16.3824 40.7018 17.0438 41.3632 17.0438 42.2281V49.3509C17.0438 50.2158 16.3824 50.8772 15.5175 50.8772Z" fill="#99A0B1"/>
<path d="M33.3241 42.1264C32.4592 42.1264 31.7978 41.465 31.7978 40.6V37.1404C31.7978 36.2755 32.4592 35.6141 33.3241 35.6141H34.8504V24.9299C34.8504 22.4369 34.3925 18.3158 31.289 18.3158C30.4241 18.3158 29.7627 17.6544 29.7627 16.7895C29.7627 15.9246 30.4241 15.2632 31.289 15.2632C37.4452 15.2632 37.903 22.6404 37.903 24.9299V37.1404C37.903 38.0053 37.2416 38.6667 36.3767 38.6667H34.8504V40.6C34.8504 41.465 34.189 42.1264 33.3241 42.1264Z" fill="#99A0B1"/>
<path d="M27.2186 11.7018C30.0285 11.7018 32.3063 9.42396 32.3063 6.61409C32.3063 3.80422 30.0285 1.52637 27.2186 1.52637C24.4087 1.52637 22.1309 3.80422 22.1309 6.61409C22.1309 9.42396 24.4087 11.7018 27.2186 11.7018Z" fill="#F6F7F8"/>
<path d="M27.2195 13.2281C23.5563 13.2281 20.6055 10.2772 20.6055 6.61404C20.6055 2.95088 23.5563 0 27.2195 0C30.8827 0 33.8336 2.95088 33.8336 6.61404C33.8336 10.2772 30.8827 13.2281 27.2195 13.2281ZM27.2195 3.05263C25.2353 3.05263 23.6581 4.62982 23.6581 6.61404C23.6581 8.59825 25.2353 10.1754 27.2195 10.1754C29.2037 10.1754 30.7809 8.59825 30.7809 6.61404C30.7809 4.62982 29.2037 3.05263 27.2195 3.05263Z" fill="#99A0B1"/>
<path d="M30.2723 57.9999C27.7284 57.9999 25.6934 55.9649 25.6934 53.421C25.6934 52.5561 26.3548 51.8947 27.2197 51.8947C28.0846 51.8947 28.746 52.5561 28.746 53.421C28.746 54.2859 29.4074 54.9473 30.2723 54.9473C31.1372 54.9473 31.7986 54.2859 31.7986 53.421V40.1929C31.7986 39.328 32.46 38.6666 33.3249 38.6666C34.1898 38.6666 34.8513 39.328 34.8513 40.1929V53.421C34.8513 55.9649 32.8162 57.9999 30.2723 57.9999Z" fill="#99A0B1"/>
</g>
<defs>
<clipPath id="clip0">
<rect width="58" height="58" fill="white"/>
</clipPath>
</defs>
</svg>
