<svg width="25" height="25" viewBox="0 0 25 25" fill="none" xmlns="http://www.w3.org/2000/svg">
<g clip-path="url(#clip0)">
<path d="M24.1471 8.39922L18.488 2.74009C18.021 2.27314 17.5474 2.03638 17.0803 2.03638C16.439 2.03638 15.6901 2.52417 15.6901 3.89897V5.82559C11.5786 6.00479 7.73897 7.69097 4.81045 10.6193C1.70869 13.7209 0.000292969 17.8447 0 22.2311C0 22.5462 0.201562 22.8261 0.500488 22.9259C0.576807 22.9513 0.654932 22.9636 0.732324 22.9636C0.958252 22.9636 1.17695 22.8587 1.31797 22.671C4.77593 18.0682 9.98198 15.348 15.6901 15.1333V17.0303C15.6901 18.405 16.439 18.8929 17.0803 18.8929H17.0804C17.5475 18.8929 18.0211 18.6561 18.488 18.1892L24.1471 12.53C24.6971 11.9801 25 11.2466 25 10.4646C25 9.68271 24.6971 8.94917 24.1471 8.39922Z" fill="white"/>
</g>
<defs>
<clipPath id="clip0">
<rect width="25" height="25" fill="white"/>
</clipPath>
</defs>
</svg>
