<svg width="28" height="17" viewBox="0 0 28 17" fill="none" xmlns="http://www.w3.org/2000/svg">
<path fill-rule="evenodd" clip-rule="evenodd" d="M0.0859375 16.0046V14H27.9947C27.7887 6.23204 21.6019 0 14 0C6.26801 0 0 6.4471 0 14.4C0 14.9424 0.0291538 15.4778 0.0859375 16.0046Z" fill="#EFF1F3"/>
<path fill-rule="evenodd" clip-rule="evenodd" d="M5.60699 2.87354C2.29916 5.42583 0.12596 9.44936 0.00529671 14H12.5301L5.60699 2.87354Z" fill="#FFC24D"/>
<path d="M21 14C17.5 14 17.866 14 14 14C10.134 14 10.5 14 7 14C7 10.134 10.134 7 14 7C17.866 7 21 10.134 21 14Z" fill="white"/>
</svg>
