<svg width="25" height="25" viewBox="0 0 25 25" fill="none" xmlns="http://www.w3.org/2000/svg">
<path d="M1 24C1.01928 22.3577 1.36109 20.7351 2.006 19.2246C2.7102 17.8144 5.6549 16.8369 9.35122 15.4684C10.35 15.0976 10.1862 12.4871 9.74356 11.9998C9.03841 11.236 8.50278 10.3316 8.17187 9.34605C7.84096 8.3605 7.72225 7.31607 7.82354 6.28137C7.76022 5.62282 7.83307 4.95828 8.03757 4.32911C8.24206 3.69994 8.57383 3.11959 9.01222 2.62419C9.45061 2.12879 9.98623 1.72894 10.5858 1.44952C11.1853 1.17009 11.8359 1.01708 12.4971 1C13.1588 1.01631 13.8101 1.16875 14.4103 1.44783C15.0105 1.72691 15.5468 2.12665 15.9858 2.62213C16.4248 3.11762 16.7571 3.69823 16.9619 4.32779C17.1668 4.95734 17.2398 5.62235 17.1765 6.28137C17.2777 7.31607 17.159 8.3605 16.8281 9.34605C16.4972 10.3316 15.9616 11.236 15.2564 11.9998C14.8138 12.4871 14.65 15.0976 15.6488 15.4684C19.3451 16.8369 22.2898 17.8144 22.994 19.2246C23.6389 20.7351 23.9807 22.3577 24 24H1Z" stroke="#2F344C" stroke-width="2" stroke-linecap="round" stroke-linejoin="round"/>
</svg>
