<svg width="29" height="27" viewBox="0 0 29 27" fill="none" xmlns="http://www.w3.org/2000/svg">
<path d="M1 14.0818L13.1307 1.57697C13.3105 1.39307 13.5237 1.24747 13.7581 1.14847C13.9925 1.04948 14.2436 0.99903 14.497 1.00001C14.7504 1.001 15.0011 1.05339 15.2348 1.15421C15.4685 1.25502 15.6806 1.40228 15.859 1.58756L28 14.0818" stroke="#A3A5B0" stroke-width="2" stroke-linecap="round" stroke-linejoin="round"/>
<path d="M24.1426 10.1131V26H4.85693V10.1064" stroke="#A3A5B0" stroke-width="2" stroke-linecap="round" stroke-linejoin="round"/>
<path d="M18.3574 25.9999V20.0408C18.3574 18.9872 17.951 17.9767 17.2276 17.2317C16.5043 16.4867 15.5232 16.0681 14.5002 16.0681C13.4772 16.0681 12.4962 16.4867 11.7728 17.2317C11.0494 17.9767 10.6431 18.9872 10.6431 20.0408V25.9999" stroke="#A3A5B0" stroke-width="2" stroke-linecap="round" stroke-linejoin="round"/>
<path d="M14.5001 12.0954C15.8315 12.0954 16.9108 10.9838 16.9108 9.61247C16.9108 8.24118 15.8315 7.12952 14.5001 7.12952C13.1687 7.12952 12.0894 8.24118 12.0894 9.61247C12.0894 10.9838 13.1687 12.0954 14.5001 12.0954Z" stroke="#A3A5B0" stroke-width="2" stroke-linecap="round" stroke-linejoin="round"/>
</svg>
