<svg width="35" height="27" viewBox="0 0 35 27" fill="none" xmlns="http://www.w3.org/2000/svg">
<path fill-rule="evenodd" clip-rule="evenodd" d="M33 0.333333L35 0V2.02759V24.0625L28.3503 25.1708C21.1663 26.3681 13.8337 26.3681 6.64967 25.1708L0 24.0625V2.02759V0L2 0.333333L6.64967 1.10828C13.8337 2.30561 21.1663 2.30561 28.3503 1.10828L33 0.333333ZM28.7083 3.0762L33 2.36092V8.44915C30.5856 8.1799 28.7083 6.1321 28.7083 3.64583V3.0762ZM26.7083 3.37991C21.0835 4.1487 15.3863 4.20979 9.75 3.5632V3.64583C9.75 7.41978 6.69061 10.4792 2.91667 10.4792V8.47917C5.58604 8.47917 7.75 6.31521 7.75 3.64583V3.30366C7.27305 3.23456 6.79664 3.16036 6.32087 3.08107L2 2.36092V22.3682L6.97847 23.198C7.23545 23.2408 7.49263 23.2821 7.74998 23.3217C7.74373 20.6577 5.58218 18.5 2.91667 18.5V16.5C6.69061 16.5 9.75 19.5594 9.75 23.3333V23.5978C14.8976 24.2258 20.1024 24.2258 25.25 23.5978V23.3333C25.25 19.5594 28.3094 16.5 32.0833 16.5V18.5C29.4178 18.5 27.2563 20.6577 27.25 23.3217C27.5074 23.2821 27.7646 23.2408 28.0215 23.198L33 22.3682V10.458C29.4793 10.1819 26.7083 7.23747 26.7083 3.64583V3.37991ZM16.7708 8.47917H16.8646V5.83333H18.8646V8.47917H21.1458V10.4792H17.8646H16.7708C16.115 10.4792 15.5833 11.0108 15.5833 11.6667C15.5833 12.3225 16.115 12.8542 16.7708 12.8542H18.2292C19.9896 12.8542 21.4167 14.2813 21.4167 16.0417C21.4167 17.5845 20.3205 18.8713 18.8646 19.1658V21.1458H16.8646V19.2292H13.8542V17.2292H17.8646H18.2292C18.885 17.2292 19.4167 16.6975 19.4167 16.0417C19.4167 15.3858 18.885 14.8542 18.2292 14.8542H16.7708C15.0104 14.8542 13.5833 13.4271 13.5833 11.6667C13.5833 9.90626 15.0104 8.47917 16.7708 8.47917Z" fill="#454A61"/>
</svg>
