<svg width="36" height="25" viewBox="0 0 36 25" fill="none" xmlns="http://www.w3.org/2000/svg">
<path d="M1 24C1.01928 22.3577 1.36109 20.7351 2.006 19.2246C2.7102 17.8144 5.6549 16.8369 9.35122 15.4684C10.35 15.0976 10.1862 12.4871 9.74356 11.9998C9.03841 11.236 8.50278 10.3316 8.17187 9.34605C7.84096 8.3605 7.72225 7.31607 7.82354 6.28137C7.76022 5.62282 7.83307 4.95828 8.03757 4.32911C8.24206 3.69994 8.57383 3.11959 9.01222 2.62419C9.45061 2.12879 9.98623 1.72894 10.5858 1.44952C11.1853 1.17009 11.8359 1.01708 12.4971 1C13.1588 1.01631 13.8101 1.16875 14.4103 1.44783C15.0105 1.72691 15.5468 2.12665 15.9858 2.62213C16.4248 3.11762 16.7571 3.69823 16.9619 4.32779C17.1668 4.95734 17.2398 5.62235 17.1765 6.28137C17.2777 7.31607 17.159 8.3605 16.8281 9.34605C16.4972 10.3316 15.9616 11.236 15.2564 11.9998C14.8138 12.4871 14.65 15.0976 15.6488 15.4684C19.3451 16.8369 22.2898 17.8144 22.994 19.2246C23.6389 20.7351 23.9807 22.3577 24 24H1Z" stroke="#A3A5B0" stroke-width="2" stroke-linecap="round" stroke-linejoin="round"/>
<path fill-rule="evenodd" clip-rule="evenodd" d="M25.5218 4.0003C25.505 3.99989 25.4882 3.9999 25.4714 4.00033C24.7879 4.01799 24.1155 4.17614 23.4958 4.46495C22.8761 4.75375 22.3225 5.16702 21.8695 5.67902C21.4164 6.19102 21.0735 6.7908 20.8622 7.44103C20.661 8.05995 20.5831 8.71198 20.6325 9.36026C20.5512 10.3243 20.668 11.2951 20.9762 12.2129C21.2838 13.1292 21.7755 13.9726 22.4207 14.6914C22.4321 14.7264 22.4465 14.7797 22.4605 14.852C22.4948 15.0287 22.515 15.256 22.5087 15.4865C23.1787 15.7101 23.8155 16.0063 24.4097 16.3657C24.4691 16.1032 24.4971 15.8375 24.5063 15.5931C24.5208 15.2065 24.4903 14.8129 24.4238 14.4705C24.3905 14.2992 24.3449 14.1236 24.2828 13.9593C24.2265 13.8104 24.1304 13.599 23.9627 13.4144L23.9627 13.4144L23.9572 13.4084C23.4704 12.8811 23.1006 12.2567 22.8721 11.5763C22.6437 10.8958 22.5617 10.1747 22.6316 9.46031C22.6379 9.39608 22.638 9.33139 22.6318 9.26716C22.5926 8.85969 22.6377 8.44852 22.7642 8.05924C22.8908 7.66996 23.096 7.31091 23.3672 7.00442C23.6384 6.69794 23.9698 6.45058 24.3407 6.27773C24.7039 6.10844 25.0975 6.01416 25.4978 6.00043C25.8984 6.01369 26.2923 6.10763 26.656 6.27672C27.0273 6.44936 27.3591 6.69664 27.6307 7.00318C27.9023 7.30972 28.1078 7.66894 28.2346 8.05845C28.3613 8.44797 28.4065 8.85943 28.3673 9.26719C28.3611 9.33141 28.3612 9.39609 28.3675 9.46031C28.4374 10.1747 28.3554 10.8958 28.127 11.5763C27.8985 12.2567 27.5287 12.8811 27.0419 13.4084L27.0418 13.4084L27.0364 13.4144C26.8687 13.599 26.7726 13.8104 26.7163 13.9593C26.6542 14.1236 26.6086 14.2992 26.5753 14.4705C26.5088 14.8129 26.4783 15.2065 26.4928 15.5931C26.5071 15.9725 26.5668 16.4031 26.7183 16.7936C26.8634 17.1674 27.1611 17.67 27.7526 17.8896L27.7535 17.89C28.0159 17.9871 28.2716 18.0811 28.5201 18.1725L28.5204 18.1726L28.5204 18.1726C29.7452 18.6231 30.7981 19.0103 31.6436 19.3992C32.1474 19.631 32.5368 19.8456 32.8205 20.0496C33.0898 20.2434 33.212 20.3909 33.2636 20.4826C33.6036 21.2879 33.8284 22.1353 33.9328 23H28.8817C28.9592 23.4886 28.9995 23.9896 28.9995 24.5C28.9995 24.6677 28.9951 24.8344 28.9866 25H34.9996C35.2668 25 35.5229 24.893 35.7108 24.7029C35.8987 24.5129 36.0026 24.2555 35.9995 23.9883C35.982 22.5005 35.6724 21.0307 35.0882 19.6625C35.0804 19.6442 35.072 19.6261 35.0632 19.6084C34.8171 19.1156 34.4144 18.7325 33.9883 18.426C33.5569 18.1157 33.0382 17.8393 32.4795 17.5823C31.5553 17.1571 30.4099 16.7362 29.1861 16.2864L29.1838 16.2855C28.9845 16.2123 28.7831 16.1383 28.5803 16.0633C28.5376 15.95 28.5006 15.7615 28.4914 15.518C28.4824 15.2768 28.5027 15.0367 28.5386 14.852C28.5526 14.7797 28.567 14.7264 28.5784 14.6914C29.2236 13.9726 29.7153 13.1292 30.023 12.2129C30.3311 11.2951 30.4479 10.3243 30.3666 9.36024C30.416 8.71147 30.3379 8.05896 30.1364 7.43963C29.9247 6.78901 29.5813 6.18895 29.1276 5.67687C28.6739 5.16478 28.1196 4.75163 27.4992 4.46317C26.8789 4.17472 26.2057 4.01716 25.5218 4.0003ZM22.4047 14.6492C22.4048 14.6491 22.4059 14.6514 22.408 14.6565C22.4057 14.6519 22.4046 14.6493 22.4047 14.6492ZM28.6056 16.1208C28.6088 16.1252 28.6102 16.1277 28.6102 16.1279C28.6101 16.1281 28.6085 16.126 28.6056 16.1208ZM28.5944 14.6492C28.5945 14.6493 28.5934 14.6519 28.5911 14.6565C28.5932 14.6514 28.5943 14.6491 28.5944 14.6492Z" fill="#A3A5B0"/>
</svg>
