<svg width="35" height="29" viewBox="0 0 35 29" fill="none" xmlns="http://www.w3.org/2000/svg">
<path d="M7.64962 0.283813C3.43164 0.283813 0 3.71538 0 7.9335C0 9.57269 0.510576 11.1348 1.47677 12.4525L7.64962 21.6162L13.8225 12.4525C14.7887 11.1348 15.2992 9.57283 15.2992 7.9335C15.2992 3.71538 11.8675 0.283813 7.64962 0.283813ZM7.64962 11.8279C5.44824 11.8279 3.65736 10.0369 3.65736 7.83568C3.65736 5.63437 5.44831 3.84342 7.64962 3.84342C9.85093 3.84342 11.6419 5.63444 11.6419 7.83568C11.6419 10.0369 9.85093 11.8279 7.64962 11.8279Z" fill="#50556C"/>
<path d="M10.492 24.6119L9.04094 23.1608L7.71429 24.4875L6.38764 23.1608L4.93664 24.6119L6.26322 25.9385L4.93664 27.2651L6.38764 28.7162L7.71429 27.3895L9.04094 28.7162L10.492 27.2651L9.16542 25.9385L10.492 24.6119Z" fill="#50556C"/>
<path d="M30.1016 24.6119L28.6505 23.1608L27.3239 24.4875L25.9973 23.1608L24.5462 24.6119L25.8729 25.9385L24.5462 27.2651L25.9973 28.7162L27.3239 27.3895L28.6505 28.7162L30.1016 27.2651L28.7749 25.9385L30.1016 24.6119Z" fill="#50556C"/>
<path d="M23.6793 24.8869H11.3663V26.9391H23.6793V24.8869Z" fill="#50556C"/>
<path d="M27.3504 0.283903C23.1324 0.283903 19.7008 3.71548 19.7008 7.93352C19.7008 9.57271 20.2113 11.1348 21.1775 12.4526L27.3504 21.6162L33.5232 12.4526C34.4894 11.1349 35 9.57278 35 7.93352C35 3.71541 31.5684 0.283903 27.3504 0.283903ZM27.3504 11.8279C25.149 11.8279 23.3581 10.0369 23.3581 7.8357C23.3581 5.63439 25.1491 3.84344 27.3504 3.84344C29.5517 3.84344 31.3426 5.63446 31.3426 7.8357C31.3427 10.0369 29.5518 11.8279 27.3504 11.8279Z" fill="#50556C"/>
</svg>
