<svg width="35" height="35" viewBox="0 0 35 35" fill="none" xmlns="http://www.w3.org/2000/svg">
<path d="M24.0937 15.0391C24.0937 14.284 23.4816 13.6719 22.7266 13.6719H8.64453C7.88943 13.6719 7.27734 14.284 7.27734 15.0391C7.27734 15.7942 7.88943 16.4062 8.64453 16.4062H22.7266C23.4816 16.4062 24.0937 15.7942 24.0937 15.0391Z" fill="#50556C"/>
<path d="M8.64453 19.1406C7.88943 19.1406 7.27734 19.7527 7.27734 20.5078C7.27734 21.2629 7.88943 21.875 8.64453 21.875H17.1971C17.9522 21.875 18.5642 21.2629 18.5642 20.5078C18.5642 19.7527 17.9522 19.1406 17.1971 19.1406H8.64453Z" fill="#50556C"/>
<path d="M11.8576 32.2656H7.28516C5.77742 32.2656 4.55078 31.039 4.55078 29.5312V5.46875C4.55078 3.96102 5.77742 2.73438 7.28516 2.73438H24.094C25.6017 2.73438 26.8284 3.96102 26.8284 5.46875V13.877C26.8284 14.6321 27.4404 15.2441 28.1955 15.2441C28.9506 15.2441 29.5627 14.6321 29.5627 13.877V5.46875C29.5627 2.45328 27.1094 0 24.094 0H7.28516C4.26969 0 1.81641 2.45328 1.81641 5.46875V29.5312C1.81641 32.5467 4.26969 35 7.28516 35H11.8576C12.6127 35 13.2248 34.3879 13.2248 33.6328C13.2248 32.8777 12.6127 32.2656 11.8576 32.2656Z" fill="#50556C"/>
<path d="M31.9843 19.7949C30.3851 18.1957 27.783 18.1956 26.1849 19.7938L18.6788 27.2833C18.5194 27.4423 18.4018 27.6382 18.3363 27.8537L16.7016 33.2353C16.5567 33.7124 16.683 34.2305 17.0312 34.5874C17.2921 34.8548 17.6464 34.9999 18.0099 34.9999C18.1315 34.9999 18.2543 34.9837 18.3748 34.9502L23.8931 33.4216C24.1202 33.3588 24.3272 33.2382 24.494 33.0717L31.9843 25.5955C33.5835 23.9963 33.5835 21.3942 31.9843 19.7949ZM22.8167 30.8825L20.0405 31.6515L20.853 28.9767L25.9176 23.9233L27.8515 25.8571L22.8167 30.8825ZM30.0518 23.6612L29.7869 23.9255L27.8534 21.992L28.1174 21.7285C28.6504 21.1954 29.5178 21.1954 30.0509 21.7285C30.5839 22.2616 30.5839 23.1289 30.0518 23.6612Z" fill="#50556C"/>
<path d="M22.7266 8.20312H8.64453C7.88943 8.20312 7.27734 8.81521 7.27734 9.57031C7.27734 10.3254 7.88943 10.9375 8.64453 10.9375H22.7266C23.4816 10.9375 24.0937 10.3254 24.0937 9.57031C24.0937 8.81521 23.4816 8.20312 22.7266 8.20312Z" fill="#50556C"/>
</svg>
