<svg width="99" height="95" viewBox="0 0 99 95" fill="none" xmlns="http://www.w3.org/2000/svg">
<path d="M97.3373 42.2569L88.9739 34.6364V9.3676C88.9739 7.75982 87.6705 6.45619 86.0625 6.45619H65.9309C64.3231 6.45619 63.0195 7.75962 63.0195 9.3676V10.9868L52.9191 1.78346C50.9695 0.00668454 48.0295 0.00687799 46.0806 1.78327L1.66247 42.2571C0.100904 43.6802 -0.415172 45.8729 0.347824 47.843C1.11101 49.8132 2.9692 51.086 5.08204 51.086H12.1762V91.6376C12.1762 93.2453 13.4796 94.549 15.0876 94.549H39.4341C41.0419 94.549 42.3455 93.2455 42.3455 91.6376V67.016H56.6543V91.6378C56.6543 93.2455 57.9577 94.5492 59.5657 94.5492H83.9112C85.519 94.5492 86.8226 93.2457 86.8224 91.6378V51.0862H93.9181C96.0307 51.0862 97.8891 49.8132 98.6523 47.8432C99.4151 45.8729 98.8992 43.6802 97.3373 42.2569ZM83.9112 45.2634C82.3034 45.2634 80.9998 46.5668 80.9998 48.1748V88.7263H62.4773V64.1045C62.4773 62.4968 61.1737 61.1931 59.5659 61.1931H39.4341C37.8263 61.1931 36.5227 62.4966 36.5227 64.1045V88.7263H17.9988V48.1748C17.9988 46.567 16.6954 45.2634 15.0874 45.2634H7.00828L49.5002 6.54513L63.9704 19.7305C64.8227 20.507 66.0531 20.7072 67.1075 20.2417C68.162 19.7757 68.8425 18.7312 68.8425 17.5784V12.279H83.1515V35.9222C83.1515 36.7415 83.4964 37.5225 84.102 38.0743L91.9917 45.2634H83.9112Z" fill="#AAB0BB"/>
</svg>
