<svg width="20" height="26" viewBox="0 0 20 26" fill="none" xmlns="http://www.w3.org/2000/svg">
<path d="M15.9296 7.38453C15.8511 7.33266 15.7579 7.30748 15.664 7.31273C15.57 7.31798 15.4803 7.35338 15.408 7.41368C15.3358 7.47397 15.2849 7.55595 15.263 7.64745C15.241 7.73895 15.2491 7.83509 15.2861 7.92161C15.5751 8.56039 15.705 9.25968 15.6648 9.95964C15.6245 10.6596 15.4153 11.3394 15.055 11.9408C13.6267 5.07904 10.4826 1.08759 10.3433 0.913251C10.294 0.852933 10.2298 0.806595 10.157 0.77886C10.0842 0.751124 10.0054 0.74296 9.92846 0.755182C9.85152 0.768257 9.77948 0.801645 9.71977 0.851894C9.66006 0.902143 9.61485 0.967428 9.58883 1.041C9.57216 1.08843 7.87383 5.8101 4.05008 8.71331C0.194608 11.6409 0.368953 15.4876 0.377484 15.6247C0.374786 16.8903 0.621724 18.1439 1.10416 19.3139C1.5866 20.4839 2.29507 21.5473 3.189 22.4431C4.08293 23.339 5.14478 24.0497 6.31375 24.5346C7.48272 25.0196 8.73585 25.2692 10.0014 25.2692C11.267 25.2692 12.5201 25.0196 13.6891 24.5346C14.858 24.0497 15.9199 23.339 16.8138 22.4431C17.7078 21.5473 18.4162 20.4839 18.8987 19.3139C19.3811 18.1439 19.628 16.8903 19.6253 15.6247V15.6153C19.5009 9.81222 16.0752 7.48109 15.9296 7.38453ZM10.0003 24.375C8.95632 24.3739 7.95547 23.9586 7.2173 23.2205C6.47912 22.4823 6.06391 21.4815 6.06275 20.4375C6.06275 17.2075 9.52727 13.3096 9.67471 13.1451C9.71688 13.1013 9.76744 13.0664 9.82337 13.0427C9.87931 13.0189 9.93947 13.0066 10.0003 13.0066C10.061 13.0066 10.1212 13.0189 10.1771 13.0427C10.2331 13.0664 10.2836 13.1013 10.3258 13.1451C10.4732 13.3094 13.9378 17.2073 13.9378 20.4375C13.9366 21.4815 13.5214 22.4823 12.7832 23.2205C12.045 23.9586 11.0442 24.3739 10.0003 24.375Z" fill="#FA4B5F"/>
</svg>
