<svg width="40" height="40" viewBox="0 0 40 40" fill="none" xmlns="http://www.w3.org/2000/svg">
<g clip-path="url(#clip0)">
<path d="M32.6016 13.2035C32.6016 16.8769 31.0094 20.1737 28.4801 22.4589C27.7991 23.0735 27.2637 23.8175 26.8989 24.636C26.5341 25.4548 26.3394 26.3486 26.3394 27.2657H13.8149C13.8149 25.4227 13.0196 23.679 11.6528 22.4393C8.68371 19.7465 7.01511 15.6541 7.70921 11.1994C8.5611 5.73553 13.1419 1.39105 18.6476 0.782528C26.2048 -0.0518225 32.6016 5.83014 32.6016 13.2035Z" fill="white"/>
<path d="M26.3409 32.8906C26.3409 34.6164 24.9389 36.0156 23.2098 36.0156H16.9475C15.2184 36.0156 13.8164 34.6164 13.8164 32.8906C13.8164 31.925 13.8164 28.7695 13.8164 27.2656H26.3409V32.8906Z" fill="#D4FFF0"/>
<path d="M27.9056 13.2034C27.9056 17.518 24.4008 21.0156 20.0778 21.0156C15.7548 21.0156 12.25 17.518 12.25 13.2034C12.25 8.88855 15.7548 5.39093 20.0778 5.39093C24.4008 5.39093 27.9056 8.88855 27.9056 13.2034Z" fill="#D4FFF0"/>
<path d="M16.9473 36.0156H23.2095C23.2095 37.7414 21.8075 39.1406 20.0784 39.1406C18.3492 39.1406 16.9473 37.7414 16.9473 36.0156Z" fill="#D4FFF0"/>
<path d="M20.0972 30.0781C19.6652 30.0781 19.3145 30.4282 19.3145 30.8594C19.3145 31.2906 19.6652 31.6406 20.0972 31.6406C20.5293 31.6406 20.88 31.2906 20.88 30.8594C20.88 30.4282 20.5293 30.0781 20.0972 30.0781Z" fill="#1ACA8E"/>
<path d="M13.0331 32.8908C13.0331 34.8006 14.4136 36.3936 16.2309 36.7305C16.5684 38.5442 18.1646 39.9221 20.0781 39.9221C21.9916 39.9221 23.5878 38.5442 23.9253 36.7305C25.7425 36.3936 27.1231 34.8006 27.1231 32.8908V27.2658C27.1231 25.6563 27.8044 24.1234 29.0064 23.0382C31.7892 20.5239 33.3853 16.9393 33.3853 13.2036C33.3853 5.37129 26.5901 -0.880235 18.5627 0.00599523C12.6973 0.654189 7.84044 5.28248 6.93688 11.0796C6.2174 15.6945 7.88723 20.0786 11.1275 23.0175C12.3384 24.1161 13.0331 25.6646 13.0331 27.2658V32.8908ZM20.0977 38.3675C19.0773 38.3675 18.2071 37.7065 17.8839 36.7971H22.3115C21.9883 37.7065 21.118 38.3675 20.0977 38.3675ZM23.2092 35.2346H16.947C15.6499 35.2346 14.5986 34.1854 14.5986 32.8908V31.6408H16.9225C17.3151 31.6408 17.6655 31.3631 17.7215 30.9755C17.7909 30.4924 17.4173 30.0783 16.947 30.0783H14.5986V28.0471H25.5575V30.0783H23.2337C22.8411 30.0783 22.4906 30.356 22.4347 30.7439C22.3653 31.2267 22.7389 31.6408 23.2092 31.6408H25.5575V32.8908C25.5575 34.1854 24.506 35.2346 23.2092 35.2346ZM12.1999 21.8612C9.27054 19.2043 7.88845 15.2636 8.50336 11.3198C9.29623 6.2328 13.6073 2.12788 18.7544 1.55903C25.9743 0.761305 31.839 6.41987 31.839 13.2036C31.839 16.4989 30.431 19.6611 27.9756 21.8795C26.6042 23.1179 25.8028 24.7789 25.619 26.4846H14.5748C14.3809 24.7292 13.5394 23.0764 12.1999 21.8612Z" fill="#1ACA8E"/>
<path d="M20.0969 21.7969C24.8446 21.7969 28.7075 17.9419 28.7075 13.2034C28.7075 8.46466 24.8446 4.60968 20.0969 4.60968C15.3492 4.60968 11.4863 8.46466 11.4863 13.2034C11.4863 17.9419 15.3489 21.7969 20.0969 21.7969ZM20.0969 6.17218C23.9814 6.17218 27.1419 9.32648 27.1419 13.2034C27.1419 17.0804 23.9814 20.2347 20.0969 20.2347C16.2124 20.2347 13.0519 17.0804 13.0519 13.2034C13.0519 9.32648 16.2124 6.17218 20.0969 6.17218Z" fill="#1ACA8E"/>
<path d="M20.0769 13.9845C20.6138 13.9845 21.0263 14.5268 20.793 15.0917C20.7214 15.2647 20.582 15.4054 20.4089 15.478C20.0814 15.616 19.7381 15.5403 19.5127 15.3068C19.3103 15.0972 19.003 15.0181 18.7299 15.12C18.1331 15.3428 18.0285 16.0356 18.4165 16.4228C18.6685 16.6743 18.9678 16.8614 19.2941 16.9764V17.902C19.2941 18.2115 19.4763 18.4996 19.7653 18.6119C20.327 18.8301 20.8596 18.4224 20.8596 17.8907V16.9752C21.7708 16.6526 22.4252 15.7841 22.4252 14.7657C22.4252 13.4663 21.3602 12.4104 20.0558 12.422C19.7512 12.4247 19.4699 12.2389 19.3568 11.9569C19.0965 11.3063 19.69 10.6892 20.3395 10.9025C20.4514 10.9391 20.5493 11.0087 20.6334 11.0917C21.0122 11.4656 21.6788 11.3746 21.9179 10.8189C22.0372 10.5418 21.9662 10.2168 21.7546 10.001C21.499 9.74072 21.1935 9.54754 20.8596 9.43005V8.50445C20.8596 8.195 20.6774 7.90692 20.3884 7.79461C19.8267 7.5761 19.2941 7.98382 19.2941 8.51574V9.43127C18.3829 9.75384 17.7285 10.6224 17.7285 11.6407C17.7285 12.9329 18.7819 13.9845 20.0769 13.9845Z" fill="#1ACA8E"/>
</g>
<defs>
<clipPath id="clip0">
<rect width="40" height="40" fill="white"/>
</clipPath>
</defs>
</svg>
