<svg width="562" height="288" viewBox="0 0 562 288" fill="none" xmlns="http://www.w3.org/2000/svg">
<path d="M562 0H0V288H562V0Z" fill="white"/>
<path d="M343.382 178.831L386.303 202.052C376.045 221.013 360.945 236.918 342.541 248.146C324.138 259.375 303.087 265.526 281.533 265.974C259.979 266.421 238.691 261.149 219.837 250.695C200.983 240.24 185.236 224.976 174.199 206.457C163.163 187.937 157.23 166.824 157.007 145.267C156.783 123.709 162.275 102.477 172.925 83.7328C183.575 64.9883 199.002 49.4005 217.635 38.5566C236.268 27.7128 257.441 22 279 22V70.8C266.065 70.8 253.361 74.2277 242.181 80.734C231.001 87.2403 221.745 96.593 215.355 107.84C208.965 119.086 205.67 131.825 205.804 144.76C205.938 157.695 209.498 170.362 216.12 181.474C222.742 192.586 232.19 201.744 243.502 208.017C254.815 214.29 267.587 217.453 280.52 217.184C293.452 216.916 306.083 213.225 317.125 206.488C328.167 199.751 337.227 190.208 343.382 178.831V178.831Z" fill="#FF5E70" stroke="white" stroke-width="2" stroke-miterlimit="10" stroke-linecap="round"/>
<path d="M275 70.786V74.786H279C290.985 74.786 302.764 77.8977 313.185 83.8165C323.605 89.7352 332.309 98.2579 338.445 108.55C344.58 118.842 347.936 130.55 348.185 142.529C348.434 154.507 345.567 166.344 339.864 176.882L337.96 180.401L341.479 182.304L384.4 205.518L387.918 207.421L389.821 203.904C400.205 184.716 405.426 163.161 404.973 141.349C404.52 119.538 398.408 98.2183 387.236 79.478C376.065 60.7376 360.216 45.2193 341.243 34.4425C322.269 23.6658 300.822 18 279 18H275V22V70.786Z" fill="#1AACFF" stroke="white" stroke-width="8" stroke-miterlimit="10" stroke-linecap="round"/>
<path d="M121.753 226.985C122.2 227.117 122.545 227.348 122.787 227.678C123.036 228.001 123.161 228.4 123.161 228.877C123.161 229.53 122.919 230.047 122.435 230.428C121.958 230.809 121.298 231 120.455 231H117.573C117.316 231 117.118 230.93 116.979 230.791C116.84 230.652 116.77 230.454 116.77 230.197V224.048C116.77 223.791 116.84 223.593 116.979 223.454C117.118 223.315 117.316 223.245 117.573 223.245H120.345C121.152 223.245 121.79 223.425 122.259 223.784C122.736 224.143 122.974 224.635 122.974 225.258C122.974 225.661 122.864 226.017 122.644 226.325C122.431 226.626 122.134 226.846 121.753 226.985ZM118.442 226.402H120.059C120.499 226.402 120.822 226.329 121.027 226.182C121.24 226.028 121.346 225.797 121.346 225.489C121.346 225.166 121.24 224.932 121.027 224.785C120.822 224.631 120.499 224.554 120.059 224.554H118.442V226.402ZM120.257 229.691C120.712 229.691 121.042 229.614 121.247 229.46C121.452 229.306 121.555 229.057 121.555 228.712C121.555 228.367 121.452 228.114 121.247 227.953C121.042 227.792 120.712 227.711 120.257 227.711H118.442V229.691H120.257ZM127.629 231.099C126.544 231.099 125.715 230.82 125.143 230.263C124.579 229.698 124.296 228.877 124.296 227.799V224.037C124.296 223.78 124.373 223.575 124.527 223.421C124.681 223.267 124.887 223.19 125.143 223.19C125.4 223.19 125.602 223.267 125.748 223.421C125.902 223.575 125.979 223.78 125.979 224.037V227.876C125.979 228.492 126.119 228.961 126.397 229.284C126.683 229.607 127.094 229.768 127.629 229.768C128.165 229.768 128.575 229.607 128.861 229.284C129.147 228.954 129.29 228.485 129.29 227.876V224.037C129.29 223.78 129.364 223.575 129.51 223.421C129.664 223.267 129.87 223.19 130.126 223.19C130.383 223.19 130.588 223.267 130.742 223.421C130.896 223.575 130.973 223.78 130.973 224.037V227.799C130.973 228.87 130.687 229.687 130.115 230.252C129.543 230.817 128.715 231.099 127.629 231.099ZM137.287 223.465C137.449 223.274 137.639 223.179 137.859 223.179C138.065 223.179 138.248 223.26 138.409 223.421C138.578 223.575 138.662 223.755 138.662 223.96C138.662 224.143 138.593 224.316 138.453 224.477L136.044 227.337V230.208C136.044 230.487 135.964 230.699 135.802 230.846C135.641 230.993 135.439 231.066 135.197 231.066C134.941 231.066 134.732 230.993 134.57 230.846C134.409 230.699 134.328 230.487 134.328 230.208V227.337L131.941 224.477C131.802 224.33 131.732 224.158 131.732 223.96C131.732 223.755 131.809 223.575 131.963 223.421C132.125 223.26 132.308 223.179 132.513 223.179C132.733 223.179 132.924 223.274 133.085 223.465L135.186 226.028L137.287 223.465ZM140.241 231C139.984 231 139.786 230.93 139.647 230.791C139.507 230.652 139.438 230.454 139.438 230.197V224.048C139.438 223.791 139.507 223.593 139.647 223.454C139.786 223.315 139.984 223.245 140.241 223.245H144.135C144.677 223.245 144.949 223.465 144.949 223.905C144.949 224.352 144.677 224.576 144.135 224.576H141.11V226.391H143.915C144.457 226.391 144.729 226.615 144.729 227.062C144.729 227.502 144.457 227.722 143.915 227.722H141.11V229.669H144.135C144.677 229.669 144.949 229.893 144.949 230.34C144.949 230.78 144.677 231 144.135 231H140.241ZM152.302 229.911C152.412 230.072 152.467 230.23 152.467 230.384C152.467 230.589 152.383 230.758 152.214 230.89C152.053 231.022 151.862 231.088 151.642 231.088C151.503 231.088 151.367 231.055 151.235 230.989C151.103 230.923 150.993 230.82 150.905 230.681L149.453 228.525C149.329 228.334 149.197 228.199 149.057 228.118C148.918 228.03 148.742 227.986 148.529 227.986H147.638V230.208C147.638 230.472 147.561 230.681 147.407 230.835C147.261 230.989 147.059 231.066 146.802 231.066C146.538 231.066 146.329 230.989 146.175 230.835C146.021 230.681 145.944 230.472 145.944 230.208V224.048C145.944 223.791 146.014 223.593 146.153 223.454C146.293 223.315 146.491 223.245 146.747 223.245H149.508C150.418 223.245 151.103 223.447 151.565 223.85C152.035 224.246 152.269 224.822 152.269 225.577C152.269 226.171 152.104 226.666 151.774 227.062C151.444 227.458 150.979 227.718 150.377 227.843C150.597 227.887 150.792 227.975 150.96 228.107C151.136 228.232 151.305 228.415 151.466 228.657L152.302 229.911ZM149.255 226.688C149.747 226.688 150.102 226.604 150.322 226.435C150.542 226.259 150.652 225.988 150.652 225.621C150.652 225.247 150.542 224.976 150.322 224.807C150.102 224.638 149.747 224.554 149.255 224.554H147.616V226.688H149.255ZM156.384 231.099C155.805 231.099 155.266 231.033 154.767 230.901C154.268 230.762 153.861 230.567 153.546 230.318C153.436 230.237 153.355 230.153 153.304 230.065C153.26 229.97 153.238 229.852 153.238 229.713C153.238 229.53 153.293 229.368 153.403 229.229C153.52 229.09 153.652 229.02 153.799 229.02C153.88 229.02 153.957 229.035 154.03 229.064C154.111 229.086 154.206 229.13 154.316 229.196C154.631 229.394 154.95 229.541 155.273 229.636C155.596 229.724 155.951 229.768 156.34 229.768C156.824 229.768 157.194 229.687 157.451 229.526C157.708 229.365 157.836 229.134 157.836 228.833C157.836 228.606 157.715 228.422 157.473 228.283C157.238 228.144 156.817 228.012 156.208 227.887C155.526 227.748 154.98 227.579 154.569 227.381C154.166 227.183 153.869 226.937 153.678 226.644C153.495 226.351 153.403 225.995 153.403 225.577C153.403 225.115 153.535 224.701 153.799 224.334C154.07 223.96 154.441 223.67 154.91 223.465C155.387 223.252 155.922 223.146 156.516 223.146C157.557 223.146 158.415 223.406 159.09 223.927C159.2 224.015 159.277 224.107 159.321 224.202C159.372 224.29 159.398 224.4 159.398 224.532C159.398 224.715 159.339 224.877 159.222 225.016C159.112 225.155 158.984 225.225 158.837 225.225C158.756 225.225 158.679 225.214 158.606 225.192C158.54 225.17 158.445 225.122 158.32 225.049C158.019 224.858 157.741 224.715 157.484 224.62C157.235 224.525 156.916 224.477 156.527 224.477C156.08 224.477 155.728 224.565 155.471 224.741C155.214 224.91 155.086 225.144 155.086 225.445C155.086 225.621 155.134 225.768 155.229 225.885C155.332 225.995 155.497 226.094 155.724 226.182C155.959 226.27 156.289 226.362 156.714 226.457C157.711 226.677 158.426 226.959 158.859 227.304C159.299 227.649 159.519 228.122 159.519 228.723C159.519 229.192 159.387 229.607 159.123 229.966C158.866 230.325 158.5 230.604 158.023 230.802C157.554 231 157.007 231.099 156.384 231.099Z" fill="black"/>
<path d="M401.164 72.099C400.584 72.099 400.045 72.033 399.547 71.901C399.048 71.7617 398.641 71.5673 398.326 71.318C398.216 71.2373 398.135 71.153 398.084 71.065C398.04 70.9697 398.018 70.8523 398.018 70.713C398.018 70.5297 398.073 70.3683 398.183 70.229C398.3 70.0897 398.432 70.02 398.579 70.02C398.659 70.02 398.736 70.0347 398.81 70.064C398.89 70.086 398.986 70.13 399.096 70.196C399.411 70.394 399.73 70.5407 400.053 70.636C400.375 70.724 400.731 70.768 401.12 70.768C401.604 70.768 401.974 70.6873 402.231 70.526C402.487 70.3647 402.616 70.1337 402.616 69.833C402.616 69.6057 402.495 69.4223 402.253 69.283C402.018 69.1437 401.596 69.0117 400.988 68.887C400.306 68.7477 399.759 68.579 399.349 68.381C398.945 68.183 398.648 67.9373 398.458 67.644C398.274 67.3507 398.183 66.995 398.183 66.577C398.183 66.115 398.315 65.7007 398.579 65.334C398.85 64.96 399.22 64.6703 399.69 64.465C400.166 64.2523 400.702 64.146 401.296 64.146C402.337 64.146 403.195 64.4063 403.87 64.927C403.98 65.015 404.057 65.1067 404.101 65.202C404.152 65.29 404.178 65.4 404.178 65.532C404.178 65.7153 404.119 65.8767 404.002 66.016C403.892 66.1553 403.763 66.225 403.617 66.225C403.536 66.225 403.459 66.214 403.386 66.192C403.32 66.17 403.224 66.1223 403.1 66.049C402.799 65.8583 402.52 65.7153 402.264 65.62C402.014 65.5247 401.695 65.477 401.307 65.477C400.859 65.477 400.507 65.565 400.251 65.741C399.994 65.9097 399.866 66.1443 399.866 66.445C399.866 66.621 399.913 66.7677 400.009 66.885C400.111 66.995 400.276 67.094 400.504 67.182C400.738 67.27 401.068 67.3617 401.494 67.457C402.491 67.677 403.206 67.9593 403.639 68.304C404.079 68.6487 404.299 69.1217 404.299 69.723C404.299 70.1923 404.167 70.6067 403.903 70.966C403.646 71.3253 403.279 71.604 402.803 71.802C402.333 72 401.787 72.099 401.164 72.099ZM406.324 72C406.067 72 405.869 71.9303 405.73 71.791C405.591 71.6517 405.521 71.4537 405.521 71.197V65.048C405.521 64.7913 405.591 64.5933 405.73 64.454C405.869 64.3147 406.067 64.245 406.324 64.245H410.218C410.761 64.245 411.032 64.465 411.032 64.905C411.032 65.3523 410.761 65.576 410.218 65.576H407.193V67.391H409.998C410.541 67.391 410.812 67.6147 410.812 68.062C410.812 68.502 410.541 68.722 409.998 68.722H407.193V70.669H410.218C410.761 70.669 411.032 70.8927 411.032 71.34C411.032 71.78 410.761 72 410.218 72H406.324ZM412.831 72C412.574 72 412.376 71.9303 412.237 71.791C412.097 71.6517 412.028 71.4537 412.028 71.197V65.037C412.028 64.7803 412.105 64.575 412.259 64.421C412.413 64.267 412.622 64.19 412.886 64.19C413.15 64.19 413.359 64.267 413.513 64.421C413.667 64.575 413.744 64.7803 413.744 65.037V70.603H416.56C417.095 70.603 417.363 70.8377 417.363 71.307C417.363 71.769 417.095 72 416.56 72H412.831ZM419.015 72C418.758 72 418.56 71.9303 418.421 71.791C418.282 71.6517 418.212 71.4537 418.212 71.197V65.037C418.212 64.7803 418.289 64.575 418.443 64.421C418.597 64.267 418.806 64.19 419.07 64.19C419.334 64.19 419.543 64.267 419.697 64.421C419.851 64.575 419.928 64.7803 419.928 65.037V70.603H422.744C423.279 70.603 423.547 70.8377 423.547 71.307C423.547 71.769 423.279 72 422.744 72H419.015ZM425.2 72C424.943 72 424.745 71.9303 424.606 71.791C424.466 71.6517 424.397 71.4537 424.397 71.197V65.048C424.397 64.7913 424.466 64.5933 424.606 64.454C424.745 64.3147 424.943 64.245 425.2 64.245H429.094C429.636 64.245 429.908 64.465 429.908 64.905C429.908 65.3523 429.636 65.576 429.094 65.576H426.069V67.391H428.874C429.416 67.391 429.688 67.6147 429.688 68.062C429.688 68.502 429.416 68.722 428.874 68.722H426.069V70.669H429.094C429.636 70.669 429.908 70.8927 429.908 71.34C429.908 71.78 429.636 72 429.094 72H425.2ZM437.261 70.911C437.371 71.0723 437.426 71.23 437.426 71.384C437.426 71.5893 437.342 71.758 437.173 71.89C437.012 72.022 436.821 72.088 436.601 72.088C436.462 72.088 436.326 72.055 436.194 71.989C436.062 71.923 435.952 71.8203 435.864 71.681L434.412 69.525C434.288 69.3343 434.156 69.1987 434.016 69.118C433.877 69.03 433.701 68.986 433.488 68.986H432.597V71.208C432.597 71.472 432.52 71.681 432.366 71.835C432.22 71.989 432.018 72.066 431.761 72.066C431.497 72.066 431.288 71.989 431.134 71.835C430.98 71.681 430.903 71.472 430.903 71.208V65.048C430.903 64.7913 430.973 64.5933 431.112 64.454C431.252 64.3147 431.45 64.245 431.706 64.245H434.467C435.377 64.245 436.062 64.4467 436.524 64.85C436.994 65.246 437.228 65.8217 437.228 66.577C437.228 67.171 437.063 67.666 436.733 68.062C436.403 68.458 435.938 68.7183 435.336 68.843C435.556 68.887 435.751 68.975 435.919 69.107C436.095 69.2317 436.264 69.415 436.425 69.657L437.261 70.911ZM434.214 67.688C434.706 67.688 435.061 67.6037 435.281 67.435C435.501 67.259 435.611 66.9877 435.611 66.621C435.611 66.247 435.501 65.9757 435.281 65.807C435.061 65.6383 434.706 65.554 434.214 65.554H432.575V67.688H434.214ZM441.343 72.099C440.763 72.099 440.224 72.033 439.726 71.901C439.227 71.7617 438.82 71.5673 438.505 71.318C438.395 71.2373 438.314 71.153 438.263 71.065C438.219 70.9697 438.197 70.8523 438.197 70.713C438.197 70.5297 438.252 70.3683 438.362 70.229C438.479 70.0897 438.611 70.02 438.758 70.02C438.838 70.02 438.915 70.0347 438.989 70.064C439.069 70.086 439.165 70.13 439.275 70.196C439.59 70.394 439.909 70.5407 440.232 70.636C440.554 70.724 440.91 70.768 441.299 70.768C441.783 70.768 442.153 70.6873 442.41 70.526C442.666 70.3647 442.795 70.1337 442.795 69.833C442.795 69.6057 442.674 69.4223 442.432 69.283C442.197 69.1437 441.775 69.0117 441.167 68.887C440.485 68.7477 439.938 68.579 439.528 68.381C439.124 68.183 438.827 67.9373 438.637 67.644C438.453 67.3507 438.362 66.995 438.362 66.577C438.362 66.115 438.494 65.7007 438.758 65.334C439.029 64.96 439.399 64.6703 439.869 64.465C440.345 64.2523 440.881 64.146 441.475 64.146C442.516 64.146 443.374 64.4063 444.049 64.927C444.159 65.015 444.236 65.1067 444.28 65.202C444.331 65.29 444.357 65.4 444.357 65.532C444.357 65.7153 444.298 65.8767 444.181 66.016C444.071 66.1553 443.942 66.225 443.796 66.225C443.715 66.225 443.638 66.214 443.565 66.192C443.499 66.17 443.403 66.1223 443.279 66.049C442.978 65.8583 442.699 65.7153 442.443 65.62C442.193 65.5247 441.874 65.477 441.486 65.477C441.038 65.477 440.686 65.565 440.43 65.741C440.173 65.9097 440.045 66.1443 440.045 66.445C440.045 66.621 440.092 66.7677 440.188 66.885C440.29 66.995 440.455 67.094 440.683 67.182C440.917 67.27 441.247 67.3617 441.673 67.457C442.67 67.677 443.385 67.9593 443.818 68.304C444.258 68.6487 444.478 69.1217 444.478 69.723C444.478 70.1923 444.346 70.6067 444.082 70.966C443.825 71.3253 443.458 71.604 442.982 71.802C442.512 72 441.966 72.099 441.343 72.099Z" fill="black"/>
<path d="M275.934 120.499V122.56H275.627C274.232 122.58 273.118 122.963 272.284 123.708C271.45 124.453 270.954 125.509 270.797 126.876C271.597 126.036 272.619 125.615 273.863 125.615C275.182 125.615 276.222 126.08 276.98 127.01C277.746 127.939 278.129 129.139 278.129 130.609C278.129 132.126 277.681 133.357 276.785 134.3C275.897 135.237 274.728 135.705 273.279 135.705C271.788 135.705 270.578 135.155 269.649 134.054C268.726 132.954 268.264 131.511 268.264 129.727V128.876C268.264 126.258 268.9 124.207 270.172 122.724C271.45 121.24 273.285 120.499 275.678 120.499H275.934ZM273.258 127.625C272.711 127.625 272.209 127.779 271.751 128.086C271.3 128.394 270.968 128.804 270.756 129.317V130.076C270.756 131.183 270.989 132.065 271.453 132.721C271.918 133.371 272.52 133.695 273.258 133.695C273.996 133.695 274.581 133.418 275.012 132.865C275.442 132.311 275.658 131.583 275.658 130.681C275.658 129.778 275.439 129.043 275.001 128.476C274.564 127.909 273.983 127.625 273.258 127.625ZM288.52 130.178H290.376V132.178H288.52V135.5H286.029V132.178H279.579L279.507 130.66L285.947 120.57H288.52V130.178ZM282.122 130.178H286.029V123.944L285.844 124.272L282.122 130.178ZM291.898 123.441C291.898 122.539 292.189 121.801 292.77 121.227C293.351 120.646 294.113 120.355 295.057 120.355C296.014 120.355 296.779 120.646 297.354 121.227C297.935 121.801 298.225 122.556 298.225 123.493V124.231C298.225 125.126 297.935 125.861 297.354 126.436C296.779 127.01 296.021 127.297 295.077 127.297C294.154 127.297 293.392 127.017 292.791 126.456C292.196 125.889 291.898 125.126 291.898 124.169V123.441ZM293.642 124.231C293.642 124.703 293.772 125.085 294.031 125.379C294.298 125.667 294.647 125.81 295.077 125.81C295.501 125.81 295.843 125.667 296.103 125.379C296.362 125.085 296.492 124.689 296.492 124.19V123.441C296.492 122.97 296.359 122.587 296.092 122.293C295.833 121.999 295.487 121.852 295.057 121.852C294.626 121.852 294.281 122.002 294.021 122.303C293.768 122.597 293.642 122.987 293.642 123.472V124.231ZM299.076 131.839C299.076 130.923 299.374 130.182 299.968 129.614C300.563 129.047 301.322 128.763 302.245 128.763C303.174 128.763 303.933 129.047 304.521 129.614C305.116 130.182 305.413 130.947 305.413 131.911V132.639C305.413 133.528 305.126 134.263 304.552 134.844C303.984 135.418 303.222 135.705 302.265 135.705C301.308 135.705 300.536 135.421 299.948 134.854C299.367 134.28 299.076 133.524 299.076 132.588V131.839ZM300.819 132.639C300.819 133.104 300.953 133.487 301.219 133.788C301.493 134.082 301.841 134.229 302.265 134.229C302.703 134.229 303.044 134.088 303.291 133.808C303.544 133.521 303.67 133.121 303.67 132.608V131.839C303.67 131.361 303.537 130.978 303.27 130.691C303.003 130.404 302.662 130.26 302.245 130.26C301.821 130.26 301.476 130.404 301.209 130.691C300.949 130.978 300.819 131.375 300.819 131.88V132.639ZM295.59 134.382L294.308 133.644L301.599 121.975L302.88 122.713L295.59 134.382Z" fill="#2F344C"/>
<rect x="246.186" y="122.5" width="12" height="12" rx="6" fill="#FF5E70"/>
<path d="M271.064 156.157H272.581C273.347 156.15 273.952 155.952 274.396 155.562C274.847 155.173 275.073 154.609 275.073 153.87C275.073 153.159 274.885 152.609 274.509 152.219C274.14 151.823 273.573 151.625 272.807 151.625C272.137 151.625 271.587 151.82 271.156 152.209C270.725 152.592 270.51 153.094 270.51 153.717H268.018C268.018 152.951 268.22 152.254 268.623 151.625C269.034 150.996 269.601 150.507 270.326 150.158C271.057 149.803 271.874 149.625 272.776 149.625C274.266 149.625 275.435 150.001 276.283 150.753C277.138 151.498 277.565 152.537 277.565 153.87C277.565 154.54 277.349 155.173 276.919 155.767C276.495 156.355 275.945 156.8 275.268 157.1C276.088 157.381 276.71 157.822 277.134 158.423C277.565 159.025 277.78 159.742 277.78 160.576C277.78 161.916 277.319 162.983 276.396 163.776C275.48 164.569 274.273 164.965 272.776 164.965C271.341 164.965 270.165 164.582 269.249 163.817C268.333 163.051 267.875 162.032 267.875 160.761H270.367C270.367 161.417 270.585 161.95 271.023 162.361C271.467 162.771 272.062 162.976 272.807 162.976C273.579 162.976 274.188 162.771 274.632 162.361C275.076 161.95 275.299 161.356 275.299 160.576C275.299 159.79 275.066 159.185 274.601 158.761C274.137 158.338 273.446 158.126 272.53 158.126H271.064V156.157ZM287.844 149.759V151.82H287.536C286.142 151.84 285.027 152.223 284.193 152.968C283.359 153.713 282.864 154.769 282.706 156.136C283.506 155.296 284.528 154.875 285.772 154.875C287.092 154.875 288.131 155.34 288.89 156.27C289.655 157.199 290.038 158.399 290.038 159.869C290.038 161.386 289.59 162.617 288.695 163.56C287.806 164.497 286.637 164.965 285.188 164.965C283.698 164.965 282.488 164.415 281.558 163.314C280.635 162.214 280.174 160.771 280.174 158.987V158.136C280.174 155.518 280.81 153.467 282.081 151.984C283.359 150.5 285.195 149.759 287.587 149.759H287.844ZM285.167 156.885C284.621 156.885 284.118 157.039 283.66 157.346C283.209 157.654 282.877 158.064 282.665 158.577V159.336C282.665 160.443 282.898 161.325 283.363 161.981C283.828 162.631 284.429 162.955 285.167 162.955C285.906 162.955 286.49 162.678 286.921 162.125C287.352 161.571 287.567 160.843 287.567 159.941C287.567 159.038 287.348 158.303 286.911 157.736C286.473 157.169 285.892 156.885 285.167 156.885ZM291.898 152.701C291.898 151.799 292.189 151.061 292.77 150.487C293.351 149.906 294.113 149.615 295.057 149.615C296.014 149.615 296.779 149.906 297.354 150.487C297.935 151.061 298.225 151.816 298.225 152.753V153.491C298.225 154.386 297.935 155.121 297.354 155.696C296.779 156.27 296.021 156.557 295.077 156.557C294.154 156.557 293.392 156.277 292.791 155.716C292.196 155.149 291.898 154.386 291.898 153.429V152.701ZM293.642 153.491C293.642 153.963 293.772 154.345 294.031 154.639C294.298 154.927 294.647 155.07 295.077 155.07C295.501 155.07 295.843 154.927 296.103 154.639C296.362 154.345 296.492 153.949 296.492 153.45V152.701C296.492 152.23 296.359 151.847 296.092 151.553C295.833 151.259 295.487 151.112 295.057 151.112C294.626 151.112 294.281 151.262 294.021 151.563C293.768 151.857 293.642 152.247 293.642 152.732V153.491ZM299.076 161.099C299.076 160.183 299.374 159.442 299.968 158.874C300.563 158.307 301.322 158.023 302.245 158.023C303.174 158.023 303.933 158.307 304.521 158.874C305.116 159.442 305.413 160.207 305.413 161.171V161.899C305.413 162.788 305.126 163.523 304.552 164.104C303.984 164.678 303.222 164.965 302.265 164.965C301.308 164.965 300.536 164.681 299.948 164.114C299.367 163.54 299.076 162.784 299.076 161.848V161.099ZM300.819 161.899C300.819 162.364 300.953 162.747 301.219 163.048C301.493 163.342 301.841 163.489 302.265 163.489C302.703 163.489 303.044 163.348 303.291 163.068C303.544 162.781 303.67 162.381 303.67 161.868V161.099C303.67 160.621 303.537 160.238 303.27 159.951C303.003 159.664 302.662 159.52 302.245 159.52C301.821 159.52 301.476 159.664 301.209 159.951C300.949 160.238 300.819 160.635 300.819 161.14V161.899ZM295.59 163.642L294.308 162.904L301.599 151.235L302.88 151.973L295.59 163.642Z" fill="#2F344C"/>
<rect x="246.186" y="151.76" width="12" height="12" rx="6" fill="#1AACFF"/>
</svg>
