<svg width="858" height="289" viewBox="0 0 858 289" fill="none" xmlns="http://www.w3.org/2000/svg">
<path d="M857.687 0H8.3736V284H857.687V0Z" fill="white"/>
<path d="M32.9058 268.948V5.96368" stroke="black" stroke-opacity="0.1" stroke-width="0.514575" stroke-miterlimit="10" stroke-linecap="round"/>
<path d="M168.828 268.948V5.96368" stroke="black" stroke-opacity="0.1" stroke-width="0.514575" stroke-miterlimit="10" stroke-linecap="round"/>
<path d="M305.555 268.948V5.96368" stroke="black" stroke-opacity="0.1" stroke-width="0.514575" stroke-miterlimit="10" stroke-linecap="round"/>
<path d="M441.476 268.948V5.96368" stroke="black" stroke-opacity="0.1" stroke-width="0.514575" stroke-miterlimit="10" stroke-linecap="round"/>
<path d="M578.2 268.948V5.96368" stroke="black" stroke-opacity="0.1" stroke-width="0.514575" stroke-miterlimit="10" stroke-linecap="round"/>
<path d="M714.126 268.948V5.96368" stroke="black" stroke-opacity="0.1" stroke-width="0.514575" stroke-miterlimit="10" stroke-linecap="round"/>
<path d="M850.851 268.948V5.96368" stroke="black" stroke-opacity="0.1" stroke-width="0.514575" stroke-miterlimit="10" stroke-linecap="round"/>
<path d="M32.9058 268.948H850.852" stroke="black" stroke-opacity="0.1" stroke-width="0.514575" stroke-miterlimit="10" stroke-linecap="round"/>
<path d="M32.9058 236.004H850.852" stroke="black" stroke-opacity="0.1" stroke-width="0.514575" stroke-miterlimit="10" stroke-linecap="round"/>
<path d="M32.9058 203.06H850.852" stroke="black" stroke-opacity="0.1" stroke-width="0.514575" stroke-miterlimit="10" stroke-linecap="round"/>
<path d="M32.9058 170.116H850.852" stroke="black" stroke-opacity="0.1" stroke-width="0.514575" stroke-miterlimit="10" stroke-linecap="round"/>
<path d="M32.9058 137.74H850.852" stroke="black" stroke-opacity="0.1" stroke-width="0.514575" stroke-miterlimit="10" stroke-linecap="round"/>
<path d="M32.9058 104.796H850.852" stroke="black" stroke-opacity="0.1" stroke-width="0.514575" stroke-miterlimit="10" stroke-linecap="round"/>
<path d="M32.9058 71.8524H850.852" stroke="black" stroke-opacity="0.1" stroke-width="0.514575" stroke-miterlimit="10" stroke-linecap="round"/>
<path d="M32.9058 38.908H850.852" stroke="black" stroke-opacity="0.1" stroke-width="0.514575" stroke-miterlimit="10" stroke-linecap="round"/>
<path d="M32.9058 5.96368H850.852" stroke="black" stroke-opacity="0.1" stroke-width="0.514575" stroke-miterlimit="10" stroke-linecap="round"/>
<path d="M65.6867 269V212H136.687V269H65.6867Z" fill="#1AACFF" stroke="#67B7DC" stroke-opacity="0.9" stroke-width="0.514575" stroke-miterlimit="10" stroke-linecap="round"/>
<path d="M201.687 269V167H272.687V269H201.687Z" fill="#1AACFF" stroke="#67B7DC" stroke-opacity="0.9" stroke-width="0.514575" stroke-miterlimit="10" stroke-linecap="round"/>
<path d="M337.687 268.948V103.092H408.687V268.948H337.687Z" fill="#1AACFF" stroke="#67B7DC" stroke-opacity="0.9" stroke-width="0.514575" stroke-miterlimit="10" stroke-linecap="round"/>
<path d="M473.687 268.948V112.748H544.687V268.948H473.687Z" fill="#1AACFF" stroke="#67B7DC" stroke-opacity="0.9" stroke-width="0.514575" stroke-miterlimit="10" stroke-linecap="round"/>
<path d="M610.687 268.948V94.5721H681.687V268.948H610.687Z" fill="#1AACFF" stroke="#67B7DC" stroke-opacity="0.9" stroke-width="0.514575" stroke-miterlimit="10" stroke-linecap="round"/>
<path d="M746.687 268.948V37.2039H817.687V268.948H746.687Z" fill="#67B7DC" fill-opacity="0.2" stroke="#67B7DC" stroke-opacity="0.9" stroke-width="0.514575" stroke-miterlimit="10" stroke-linecap="round" stroke-dasharray="2.57 2.57"/>
<path d="M99.5027 283.635C99.5027 285.201 99.2567 286.351 98.7647 287.086C98.2757 287.816 97.5167 288.181 96.4847 288.181C95.4377 288.181 94.6727 287.81 94.1877 287.068C93.7077 286.326 93.4677 285.185 93.4677 283.646C93.4677 282.096 93.7117 280.951 94.1997 280.213C94.6877 279.471 95.4497 279.099 96.4847 279.099C97.5317 279.099 98.2957 279.476 98.7757 280.23C99.2607 280.98 99.5027 282.115 99.5027 283.635ZM97.9617 286.295C98.0987 285.978 98.1897 285.607 98.2367 285.181C98.2877 284.752 98.3127 284.236 98.3127 283.635C98.3127 283.041 98.2877 282.525 98.2367 282.088C98.1897 281.65 98.0967 281.279 97.9557 280.974C97.8187 280.674 97.6317 280.447 97.3937 280.295C97.1587 280.142 96.8557 280.066 96.4847 280.066C96.1177 280.066 95.8127 280.142 95.5707 280.295C95.3327 280.447 95.1437 280.678 95.0027 280.986C94.8697 281.275 94.7777 281.652 94.7267 282.117C94.6807 282.582 94.6567 283.092 94.6567 283.646C94.6567 284.256 94.6787 284.765 94.7217 285.176C94.7647 285.586 94.8557 285.953 94.9967 286.277C95.1257 286.582 95.3077 286.814 95.5417 286.974C95.7797 287.135 96.0947 287.215 96.4847 287.215C96.8517 287.215 97.1567 287.138 97.3987 286.986C97.6417 286.834 97.8287 286.603 97.9617 286.295ZM106.645 288H101.923V287.109H103.739V281.262H101.923V280.465C102.169 280.465 102.433 280.445 102.714 280.406C102.995 280.363 103.208 280.303 103.352 280.224C103.532 280.127 103.673 280.004 103.774 279.855C103.88 279.703 103.94 279.5 103.956 279.246H104.864V287.109H106.645V288Z" fill="#5D6174"/>
<path d="M235.485 283.635C235.485 285.201 235.239 286.351 234.747 287.086C234.258 287.816 233.499 288.181 232.467 288.181C231.42 288.181 230.655 287.81 230.17 287.068C229.69 286.326 229.45 285.185 229.45 283.646C229.45 282.096 229.694 280.951 230.182 280.213C230.67 279.471 231.432 279.099 232.467 279.099C233.514 279.099 234.278 279.476 234.758 280.23C235.243 280.98 235.485 282.115 235.485 283.635ZM233.944 286.295C234.081 285.978 234.172 285.607 234.219 285.181C234.27 284.752 234.295 284.236 234.295 283.635C234.295 283.041 234.27 282.525 234.219 282.088C234.172 281.65 234.079 281.279 233.938 280.974C233.801 280.674 233.614 280.447 233.375 280.295C233.141 280.142 232.838 280.066 232.467 280.066C232.1 280.066 231.795 280.142 231.553 280.295C231.315 280.447 231.125 280.678 230.985 280.986C230.852 281.275 230.76 281.652 230.709 282.117C230.663 282.582 230.639 283.092 230.639 283.646C230.639 284.256 230.661 284.765 230.704 285.176C230.747 285.586 230.838 285.953 230.979 286.277C231.108 286.582 231.29 286.814 231.524 286.974C231.762 287.135 232.077 287.215 232.467 287.215C232.834 287.215 233.139 287.138 233.381 286.986C233.624 286.834 233.811 286.603 233.944 286.295ZM243.125 288H237.219V286.775C237.629 286.424 238.04 286.072 238.45 285.721C238.864 285.369 239.249 285.019 239.604 284.672C240.354 283.945 240.868 283.369 241.145 282.943C241.422 282.513 241.561 282.051 241.561 281.555C241.561 281.101 241.411 280.748 241.11 280.494C240.813 280.236 240.397 280.107 239.862 280.107C239.506 280.107 239.122 280.17 238.708 280.295C238.293 280.42 237.889 280.611 237.495 280.869H237.436V279.638C237.713 279.502 238.083 279.377 238.543 279.263C239.008 279.15 239.458 279.094 239.891 279.094C240.786 279.094 241.487 279.31 241.995 279.744C242.502 280.174 242.756 280.758 242.756 281.496C242.756 281.828 242.713 282.138 242.627 282.428C242.545 282.713 242.422 282.984 242.258 283.242C242.106 283.484 241.926 283.722 241.719 283.957C241.516 284.191 241.268 284.451 240.975 284.736C240.557 285.146 240.125 285.545 239.68 285.931C239.235 286.314 238.819 286.67 238.432 286.998H243.125V288Z" fill="#5D6174"/>
<path d="M372.225 283.635C372.225 285.201 371.979 286.351 371.487 287.086C370.999 287.816 370.239 288.181 369.208 288.181C368.161 288.181 367.395 287.81 366.911 287.068C366.43 286.326 366.19 285.185 366.19 283.646C366.19 282.096 366.434 280.951 366.922 280.213C367.411 279.471 368.172 279.099 369.208 279.099C370.254 279.099 371.018 279.476 371.499 280.23C371.983 280.98 372.225 282.115 372.225 283.635ZM370.684 286.295C370.821 285.978 370.913 285.607 370.96 285.181C371.01 284.752 371.036 284.236 371.036 283.635C371.036 283.041 371.01 282.525 370.96 282.088C370.913 281.65 370.819 281.279 370.678 280.974C370.542 280.674 370.354 280.447 370.116 280.295C369.881 280.142 369.579 280.066 369.208 280.066C368.84 280.066 368.536 280.142 368.294 280.295C368.055 280.447 367.866 280.678 367.725 280.986C367.592 281.275 367.501 281.652 367.45 282.117C367.403 282.582 367.379 283.092 367.379 283.646C367.379 284.256 367.401 284.765 367.444 285.176C367.487 285.586 367.579 285.953 367.719 286.277C367.848 286.582 368.03 286.814 368.264 286.974C368.503 287.135 368.817 287.215 369.208 287.215C369.575 287.215 369.879 287.138 370.122 286.986C370.364 286.834 370.551 286.603 370.684 286.295ZM379.098 283.799C379.286 283.967 379.44 284.178 379.561 284.431C379.682 284.685 379.743 285.013 379.743 285.416C379.743 285.814 379.671 286.18 379.526 286.512C379.381 286.844 379.178 287.133 378.917 287.379C378.624 287.652 378.278 287.855 377.879 287.988C377.485 288.117 377.051 288.181 376.579 288.181C376.094 288.181 375.618 288.123 375.149 288.006C374.68 287.892 374.296 287.767 373.995 287.631V286.406H374.083C374.415 286.625 374.805 286.806 375.254 286.951C375.704 287.096 376.137 287.168 376.555 287.168C376.801 287.168 377.063 287.127 377.34 287.045C377.618 286.963 377.842 286.842 378.014 286.681C378.194 286.51 378.327 286.32 378.413 286.113C378.503 285.906 378.547 285.644 378.547 285.328C378.547 285.015 378.497 284.758 378.395 284.555C378.297 284.347 378.161 284.185 377.985 284.068C377.809 283.947 377.596 283.865 377.346 283.822C377.096 283.775 376.827 283.752 376.538 283.752H376.01V282.779H376.421C377.014 282.779 377.487 282.656 377.838 282.41C378.194 282.16 378.372 281.797 378.372 281.32C378.372 281.109 378.327 280.926 378.237 280.769C378.147 280.609 378.022 280.478 377.862 280.377C377.694 280.275 377.514 280.205 377.323 280.166C377.131 280.127 376.915 280.107 376.672 280.107C376.301 280.107 375.907 280.174 375.489 280.306C375.071 280.439 374.676 280.627 374.305 280.869H374.247V279.644C374.524 279.508 374.893 279.383 375.354 279.269C375.819 279.152 376.268 279.094 376.702 279.094C377.128 279.094 377.503 279.133 377.827 279.211C378.151 279.289 378.444 279.414 378.706 279.586C378.987 279.773 379.2 280 379.344 280.265C379.489 280.531 379.561 280.842 379.561 281.197C379.561 281.681 379.389 282.105 379.046 282.469C378.706 282.828 378.303 283.055 377.838 283.148V283.23C378.026 283.262 378.241 283.328 378.483 283.43C378.725 283.527 378.93 283.65 379.098 283.799Z" fill="#5D6174"/>
<path d="M508.207 283.635C508.207 285.201 507.961 286.351 507.469 287.086C506.981 287.816 506.221 288.181 505.189 288.181C504.143 288.181 503.377 287.81 502.893 287.068C502.412 286.326 502.172 285.185 502.172 283.646C502.172 282.096 502.416 280.951 502.904 280.213C503.393 279.471 504.154 279.099 505.189 279.099C506.236 279.099 507 279.476 507.481 280.23C507.965 280.98 508.207 282.115 508.207 283.635ZM506.666 286.295C506.803 285.978 506.895 285.607 506.941 285.181C506.992 284.752 507.018 284.236 507.018 283.635C507.018 283.041 506.992 282.525 506.941 282.088C506.895 281.65 506.801 281.279 506.66 280.974C506.523 280.674 506.336 280.447 506.098 280.295C505.863 280.142 505.561 280.066 505.189 280.066C504.822 280.066 504.518 280.142 504.275 280.295C504.037 280.447 503.848 280.678 503.707 280.986C503.574 281.275 503.482 281.652 503.432 282.117C503.385 282.582 503.361 283.092 503.361 283.646C503.361 284.256 503.383 284.765 503.426 285.176C503.469 285.586 503.561 285.953 503.701 286.277C503.83 286.582 504.012 286.814 504.246 286.974C504.484 287.135 504.799 287.215 505.189 287.215C505.557 287.215 505.861 287.138 506.104 286.986C506.346 286.834 506.533 286.603 506.666 286.295ZM516.047 285.545H514.752V288H513.627V285.545H509.449V284.197L513.674 279.275H514.752V284.607H516.047V285.545ZM513.627 284.607V280.67L510.246 284.607H513.627Z" fill="#5D6174"/>
<path d="M644.948 283.635C644.948 285.201 644.702 286.351 644.21 287.086C643.722 287.816 642.962 288.181 641.931 288.181C640.884 288.181 640.118 287.81 639.634 287.068C639.153 286.326 638.913 285.185 638.913 283.646C638.913 282.096 639.157 280.951 639.645 280.213C640.134 279.471 640.895 279.099 641.931 279.099C642.978 279.099 643.741 279.476 644.222 280.23C644.706 280.98 644.948 282.115 644.948 283.635ZM643.407 286.295C643.544 285.978 643.636 285.607 643.683 285.181C643.733 284.752 643.759 284.236 643.759 283.635C643.759 283.041 643.733 282.525 643.683 282.088C643.636 281.65 643.542 281.279 643.401 280.974C643.265 280.674 643.077 280.447 642.839 280.295C642.604 280.142 642.302 280.066 641.931 280.066C641.563 280.066 641.259 280.142 641.017 280.295C640.778 280.447 640.589 280.678 640.448 280.986C640.315 281.275 640.224 281.652 640.173 282.117C640.126 282.582 640.103 283.092 640.103 283.646C640.103 284.256 640.124 284.765 640.167 285.176C640.21 285.586 640.302 285.953 640.442 286.277C640.571 286.582 640.753 286.814 640.987 286.974C641.226 287.135 641.54 287.215 641.931 287.215C642.298 287.215 642.603 287.138 642.845 286.986C643.087 286.834 643.274 286.603 643.407 286.295ZM652.519 285.228C652.519 285.635 652.444 286.023 652.296 286.394C652.147 286.765 651.944 287.078 651.687 287.332C651.405 287.605 651.069 287.816 650.679 287.965C650.292 288.109 649.843 288.181 649.331 288.181C648.854 288.181 648.395 288.131 647.954 288.029C647.513 287.931 647.14 287.812 646.835 287.672V286.435H646.917C647.237 286.638 647.612 286.812 648.042 286.957C648.472 287.097 648.894 287.168 649.308 287.168C649.585 287.168 649.853 287.129 650.11 287.051C650.372 286.972 650.604 286.836 650.808 286.64C650.979 286.472 651.108 286.271 651.194 286.037C651.284 285.803 651.329 285.531 651.329 285.222C651.329 284.922 651.276 284.668 651.171 284.461C651.069 284.254 650.927 284.088 650.743 283.963C650.54 283.814 650.292 283.711 649.999 283.652C649.71 283.59 649.386 283.558 649.026 283.558C648.683 283.558 648.351 283.582 648.03 283.629C647.714 283.676 647.44 283.722 647.21 283.769V279.275H652.46V280.301H648.341V282.621C648.509 282.605 648.681 282.594 648.856 282.586C649.032 282.578 649.185 282.574 649.313 282.574C649.786 282.574 650.2 282.615 650.556 282.697C650.911 282.775 651.237 282.916 651.534 283.119C651.847 283.334 652.089 283.611 652.261 283.951C652.433 284.291 652.519 284.717 652.519 285.228Z" fill="#5D6174"/>
<path d="M780.929 283.635C780.929 285.201 780.683 286.351 780.191 287.086C779.703 287.816 778.943 288.181 777.912 288.181C776.865 288.181 776.099 287.81 775.615 287.068C775.134 286.326 774.894 285.185 774.894 283.646C774.894 282.096 775.138 280.951 775.626 280.213C776.115 279.471 776.876 279.099 777.912 279.099C778.959 279.099 779.722 279.476 780.203 280.23C780.687 280.98 780.929 282.115 780.929 283.635ZM779.388 286.295C779.525 285.978 779.617 285.607 779.664 285.181C779.714 284.752 779.74 284.236 779.74 283.635C779.74 283.041 779.714 282.525 779.664 282.088C779.617 281.65 779.523 281.279 779.382 280.974C779.246 280.674 779.058 280.447 778.82 280.295C778.585 280.142 778.283 280.066 777.912 280.066C777.544 280.066 777.24 280.142 776.998 280.295C776.759 280.447 776.57 280.678 776.429 280.986C776.296 281.275 776.205 281.652 776.154 282.117C776.107 282.582 776.084 283.092 776.084 283.646C776.084 284.256 776.105 284.765 776.148 285.176C776.191 285.586 776.283 285.953 776.423 286.277C776.552 286.582 776.734 286.814 776.968 286.974C777.207 287.135 777.521 287.215 777.912 287.215C778.279 287.215 778.584 287.138 778.826 286.986C779.068 286.834 779.255 286.603 779.388 286.295ZM788.699 285.17C788.699 286.056 788.406 286.781 787.82 287.344C787.238 287.902 786.523 288.181 785.675 288.181C785.246 288.181 784.855 288.115 784.503 287.982C784.152 287.849 783.841 287.652 783.572 287.39C783.236 287.066 782.976 286.637 782.793 286.101C782.613 285.566 782.523 284.922 782.523 284.168C782.523 283.394 782.605 282.709 782.769 282.111C782.937 281.513 783.203 280.982 783.566 280.517C783.91 280.076 784.353 279.732 784.896 279.486C785.439 279.236 786.072 279.111 786.794 279.111C787.025 279.111 787.218 279.121 787.375 279.14C787.531 279.16 787.689 279.195 787.849 279.246V280.365H787.791C787.681 280.306 787.515 280.252 787.293 280.201C787.074 280.146 786.849 280.119 786.619 280.119C785.779 280.119 785.109 280.383 784.609 280.91C784.109 281.433 783.818 282.142 783.736 283.037C784.064 282.838 784.386 282.687 784.703 282.586C785.023 282.48 785.392 282.428 785.81 282.428C786.181 282.428 786.507 282.463 786.789 282.533C787.074 282.599 787.365 282.736 787.662 282.943C788.005 283.181 788.263 283.482 788.435 283.846C788.611 284.209 788.699 284.65 788.699 285.17ZM787.509 285.217C787.509 284.853 787.455 284.553 787.345 284.314C787.24 284.076 787.064 283.869 786.818 283.693C786.638 283.568 786.439 283.486 786.22 283.447C786.001 283.408 785.773 283.388 785.535 283.388C785.203 283.388 784.894 283.428 784.609 283.506C784.324 283.584 784.031 283.705 783.73 283.869C783.722 283.955 783.716 284.039 783.712 284.121C783.709 284.199 783.707 284.299 783.707 284.42C783.707 285.037 783.769 285.525 783.894 285.885C784.023 286.24 784.199 286.521 784.421 286.728C784.601 286.9 784.794 287.027 785.001 287.109C785.212 287.187 785.441 287.226 785.687 287.226C786.253 287.226 786.699 287.055 787.023 286.711C787.347 286.363 787.509 285.865 787.509 285.217Z" fill="#5D6174"/>
<path d="M12.8731 266.628L8.92381 274.046H7.66991L11.8711 266.347H6.9024V265.321H12.8731V266.628ZM21.8145 274.046H20.3086L16.8574 270.161L15.9903 271.087V274.046H14.8301V265.321H15.9903V269.874L20.2266 265.321H21.6328L17.7363 269.423L21.8145 274.046Z" fill="#5D6174"/>
<path d="M12.8379 203.256C12.8379 204.017 12.75 204.709 12.5742 205.33C12.4024 205.951 12.1406 206.48 11.7891 206.918C11.4336 207.363 10.9883 207.707 10.4531 207.949C9.91801 208.191 9.28911 208.312 8.56641 208.312C8.36331 208.312 8.17191 208.301 7.99221 208.277C7.81251 208.258 7.65241 208.224 7.51171 208.178V207.058H7.57031C7.68361 207.117 7.84381 207.174 8.05081 207.228C8.25781 207.279 8.48831 207.305 8.74221 207.305C9.60551 207.305 10.2813 207.047 10.7695 206.531C11.2617 206.012 11.5469 205.297 11.625 204.387C11.2617 204.605 10.9199 204.762 10.5996 204.855C10.2793 204.949 9.92971 204.996 9.55081 204.996C9.19141 204.996 8.86531 204.961 8.57231 204.891C8.28321 204.82 7.99221 204.683 7.69921 204.48C7.35551 204.242 7.09571 203.939 6.91991 203.572C6.74811 203.205 6.66211 202.766 6.66211 202.254C6.66211 201.363 6.95511 200.639 7.54101 200.08C8.12701 199.521 8.84181 199.242 9.68561 199.242C10.1074 199.242 10.4981 199.308 10.8574 199.441C11.2168 199.57 11.5313 199.766 11.8008 200.027C12.1328 200.351 12.3887 200.769 12.5684 201.281C12.7481 201.789 12.8379 202.447 12.8379 203.256ZM11.6543 203.004C11.6543 202.398 11.5918 201.912 11.4668 201.545C11.3418 201.178 11.1699 200.892 10.9512 200.689C10.7676 200.514 10.5703 200.389 10.3594 200.314C10.1485 200.236 9.91991 200.197 9.67381 200.197C9.11131 200.197 8.66601 200.373 8.33791 200.724C8.01371 201.076 7.85161 201.57 7.85161 202.207C7.85161 202.578 7.90431 202.881 8.00981 203.115C8.11531 203.349 8.29301 203.555 8.54301 203.73C8.71881 203.851 8.91211 203.933 9.12311 203.976C9.33401 204.016 9.56841 204.035 9.82621 204.035C10.1309 204.035 10.4395 203.994 10.752 203.912C11.0645 203.83 11.3574 203.711 11.6309 203.555C11.6348 203.473 11.6387 203.392 11.6426 203.314C11.6504 203.232 11.6543 203.129 11.6543 203.004ZM21.8145 208.142H20.3086L16.8574 204.258L15.9903 205.183V208.142H14.8301V199.418H15.9903V203.971L20.2266 199.418H21.6328L17.7363 203.519L21.8145 208.142Z" fill="#5D6174"/>
<path d="M4.7227 142.807H0V141.916H1.8164V136.069H0V135.272C0.2461 135.272 0.5098 135.252 0.791 135.213C1.0723 135.17 1.2852 135.11 1.4297 135.032C1.6094 134.934 1.75 134.811 1.8516 134.662C1.957 134.51 2.0176 134.307 2.0332 134.053H2.9414V141.916H4.7227V142.807ZM12.3516 142.807H7.6289V141.916H9.4453V136.069H7.6289V135.272C7.875 135.272 8.1387 135.252 8.4199 135.213C8.7012 135.17 8.9141 135.11 9.0586 135.032C9.2383 134.934 9.3789 134.811 9.4805 134.662C9.586 134.51 9.6465 134.307 9.6621 134.053H10.5703V141.916H12.3516V142.807ZM21.8145 142.807H20.3086L16.8574 138.922L15.9903 139.848V142.807H14.8301V134.082H15.9903V138.635L20.2266 134.082H21.6328L17.7363 138.184L21.8145 142.807Z" fill="#5D6174"/>
<path d="M4.7227 76.9035H0V76.0129H1.8164V70.1652H0V69.3683C0.2461 69.3683 0.5098 69.3488 0.791 69.3098C1.0723 69.2668 1.2852 69.2062 1.4297 69.1281C1.6094 69.0305 1.75 68.9074 1.8516 68.759C1.957 68.6066 2.0176 68.4035 2.0332 68.1496H2.9414V76.0129H4.7227V76.9035ZM12.082 72.7023C12.2695 72.8703 12.4238 73.0812 12.5449 73.3351C12.666 73.5891 12.7266 73.9172 12.7266 74.3195C12.7266 74.718 12.6543 75.0832 12.5098 75.4152C12.3653 75.7473 12.1621 76.0363 11.9004 76.2824C11.6074 76.5558 11.2617 76.759 10.8633 76.8918C10.4688 77.0207 10.0352 77.0851 9.5625 77.0851C9.0781 77.0851 8.6016 77.0266 8.1328 76.9094C7.6641 76.7961 7.2793 76.6711 6.9785 76.5344V75.3098H7.0664C7.3985 75.5285 7.7891 75.7101 8.2383 75.8547C8.6875 75.9992 9.1211 76.0715 9.5391 76.0715C9.7852 76.0715 10.0469 76.0305 10.3242 75.9484C10.6016 75.8664 10.8262 75.7453 10.9981 75.5851C11.1778 75.4133 11.3106 75.2238 11.3965 75.0168C11.4863 74.8098 11.5313 74.548 11.5313 74.2316C11.5313 73.9191 11.4805 73.6613 11.3789 73.4582C11.2813 73.2512 11.1445 73.0891 10.9688 72.9719C10.793 72.8508 10.5801 72.7687 10.3301 72.7258C10.0801 72.6789 9.8106 72.6555 9.5215 72.6555H8.9942V71.6828H9.4043C9.9981 71.6828 10.4707 71.5598 10.8223 71.3137C11.1778 71.0637 11.3555 70.7004 11.3555 70.2238C11.3555 70.0129 11.3106 69.8293 11.2207 69.673C11.1309 69.5129 11.0059 69.382 10.8457 69.2805C10.6778 69.1789 10.4981 69.1086 10.3067 69.0695C10.1153 69.0305 9.8985 69.0109 9.6563 69.0109C9.2852 69.0109 8.8906 69.0773 8.4727 69.2101C8.0547 69.343 7.6602 69.5305 7.2891 69.7726H7.2305V68.548C7.5078 68.4113 7.877 68.2863 8.3379 68.173C8.8028 68.0558 9.252 67.9973 9.6856 67.9973C10.1113 67.9973 10.4863 68.0363 10.8106 68.1144C11.1348 68.1926 11.4278 68.3176 11.6895 68.4894C11.9707 68.6769 12.1836 68.9035 12.3281 69.1691C12.4727 69.4348 12.5449 69.7453 12.5449 70.1008C12.5449 70.5851 12.3731 71.009 12.0293 71.3723C11.6895 71.7316 11.2871 71.9582 10.8223 72.0519V72.134C11.0098 72.1652 11.2246 72.2316 11.4668 72.3332C11.709 72.4308 11.9141 72.5539 12.082 72.7023ZM21.8145 76.9035H20.3086L16.8574 73.0187L15.9903 73.9445V76.9035H14.8301V68.1789H15.9903V72.7316L20.2266 68.1789H21.6328L17.7363 72.2805L21.8145 76.9035Z" fill="#5D6174"/>
<path d="M4.7227 15H0V14.1094H1.8164V8.26172H0V7.46484C0.2461 7.46484 0.5098 7.44531 0.791 7.40625C1.0723 7.36328 1.2852 7.30273 1.4297 7.22461C1.6094 7.12695 1.75 7.00391 1.8516 6.85547C1.957 6.70312 2.0176 6.5 2.0332 6.24609H2.9414V14.1094H4.7227V15ZM12.7793 12.2285C12.7793 12.6348 12.7051 13.0234 12.5567 13.3945C12.4082 13.7656 12.2051 14.0781 11.9473 14.332C11.666 14.6055 11.3301 14.8164 10.9395 14.9648C10.5528 15.1094 10.1035 15.1816 9.5918 15.1816C9.1153 15.1816 8.6563 15.1309 8.2149 15.0293C7.7735 14.9316 7.4004 14.8125 7.0957 14.6719V13.4355H7.1778C7.4981 13.6387 7.8731 13.8125 8.3028 13.957C8.7324 14.0977 9.1543 14.168 9.5684 14.168C9.8457 14.168 10.1133 14.1289 10.3711 14.0508C10.6328 13.9727 10.8653 13.8359 11.0684 13.6406C11.2403 13.4727 11.3692 13.2715 11.4551 13.0371C11.5449 12.8027 11.5899 12.5312 11.5899 12.2227C11.5899 11.9219 11.5371 11.668 11.4317 11.4609C11.3301 11.2539 11.1875 11.0879 11.0039 10.9629C10.8008 10.8145 10.5528 10.7109 10.2598 10.6523C9.9707 10.5898 9.6465 10.5586 9.2871 10.5586C8.9434 10.5586 8.6113 10.582 8.291 10.6289C7.9746 10.6758 7.7012 10.7227 7.4707 10.7695V6.27539H12.7207V7.30078H8.6016V9.62109C8.7695 9.60547 8.9414 9.59375 9.1172 9.58594C9.293 9.57812 9.4453 9.57422 9.5742 9.57422C10.0469 9.57422 10.461 9.61523 10.8164 9.69727C11.1719 9.77539 11.4981 9.91602 11.7949 10.1191C12.1074 10.334 12.3496 10.6113 12.5215 10.9512C12.6934 11.291 12.7793 11.7168 12.7793 12.2285ZM21.8145 15H20.3086L16.8574 11.1152L15.9903 12.041V15H14.8301V6.27539H15.9903V10.8281L20.2266 6.27539H21.6328L17.7363 10.377L21.8145 15Z" fill="#5D6174"/>
</svg>
