<svg width="72" height="72" viewBox="0 0 72 72" fill="none" xmlns="http://www.w3.org/2000/svg">
<path d="M30.1874 72.0001C13.5421 72.0001 0 58.4578 0 41.8121C0 25.1664 13.5421 11.624 30.1874 11.624C31.3195 11.624 32.4394 11.6874 33.5352 11.8082L36.5358 12.1372L35.8747 18.1386L32.8741 17.8096C31.9926 17.713 31.0961 17.6616 30.1874 17.6616C16.8718 17.6616 6.03749 28.4961 6.03749 41.8121C6.03749 55.128 16.8718 65.9625 30.1874 65.9625C43.5031 65.9625 54.3374 55.128 54.3374 41.8121C54.3374 40.9034 54.2861 40.0038 54.1895 39.1223L53.8604 36.1216L59.8617 35.4605L60.1907 38.4612C60.3115 39.5631 60.3749 40.68 60.3749 41.8121C60.3749 58.4578 46.8328 72.0001 30.1874 72.0001Z" fill="#5D6174"/>
<path d="M30.1877 59.9249C20.1986 59.9249 12.0752 51.8013 12.0752 41.8121C12.0752 31.8228 20.1986 23.6992 30.1877 23.6992C40.1767 23.6992 48.3001 31.8228 48.3001 41.8121C48.3001 51.8013 40.1767 59.9249 30.1877 59.9249ZM30.1877 29.7368C23.5283 29.7368 18.1127 35.1526 18.1127 41.8121C18.1127 48.4715 23.5283 53.8873 30.1877 53.8873C36.847 53.8873 42.2626 48.4715 42.2626 41.8121C42.2626 35.1526 36.847 29.7368 30.1877 29.7368Z" fill="#FF4D61"/>
<path d="M58.1711 30.176L72 16.3438L62.9438 13.325L68.5466 7.72211L64.2781 3.45351L58.6753 9.05642L55.6565 0L41.8277 13.8291L44.8464 22.8886L31.733 36.0023C31.2349 35.8694 30.7247 35.7759 30.1874 35.7759C26.8517 35.7759 24.1499 38.4777 24.1499 41.8135C24.1499 45.1493 26.8517 47.8511 30.1874 47.8511C33.5231 47.8511 36.2249 45.1493 36.2249 41.8135C36.2249 41.2761 36.1313 40.7659 36.0015 40.2678L49.1149 27.1542L58.1711 30.176Z" fill="#5D6174"/>
</svg>
