<svg width="175" height="144" viewBox="0 0 175 144" fill="none" xmlns="http://www.w3.org/2000/svg">
<path d="M0 6C0 2.68629 2.68629 0 6 0H169C172.314 0 175 2.68629 175 6V138C175 141.314 172.314 144 169 144H6C2.68629 144 0 141.314 0 138V6Z" fill="#F6F7F8"/>
<path d="M97.1263 69.75C96.6787 69.75 96.2494 69.5722 95.933 69.2557C95.6165 68.9393 95.4387 68.51 95.4387 68.0625C95.4387 65.9739 94.609 63.9709 93.132 62.494C91.6551 61.0172 89.652 60.1875 87.5633 60.1875H86.4383C84.3496 60.1875 82.3465 61.0172 80.8696 62.494C79.3927 63.9709 78.5629 65.9739 78.5629 68.0625C78.5629 68.51 78.3851 68.9393 78.0686 69.2557C77.7522 69.5722 77.3229 69.75 76.8754 69.75H63.4018C63.1034 69.75 62.8172 69.8685 62.6062 70.0795C62.3952 70.2905 62.2767 70.5766 62.2767 70.875V96.75C62.2767 97.3467 62.5138 97.919 62.9357 98.341C63.3577 98.7629 63.93 99 64.5268 99H82.5006C82.799 99 83.0851 98.8814 83.2961 98.6705C83.5071 98.4595 83.6257 98.1733 83.6257 97.875V91.125C83.6257 90.2299 83.9812 89.3714 84.6142 88.7385C85.2472 88.1056 86.1057 87.75 87.0008 87.75C87.896 87.75 88.7544 88.1056 89.3874 88.7385C90.0204 89.3714 90.376 90.2299 90.376 91.125V97.875C90.376 98.1733 90.4945 98.4595 90.7055 98.6705C90.9165 98.8814 91.2026 99 91.501 99H109.527C110.123 99 110.696 98.7629 111.118 98.341C111.54 97.919 111.777 97.3467 111.777 96.75V70.875C111.777 70.5766 111.658 70.2905 111.447 70.0795C111.236 69.8685 110.95 69.75 110.652 69.75H97.1263ZM67.875 76.5C67.875 76.2016 67.9935 75.9155 68.2045 75.7045C68.4155 75.4935 68.7016 75.375 69 75.375H75.7503C76.0487 75.375 76.3348 75.4935 76.5458 75.7045C76.7568 75.9155 76.8754 76.2016 76.8754 76.5V81C76.8754 81.2984 76.7568 81.5845 76.5458 81.7955C76.3348 82.0065 76.0487 82.125 75.7503 82.125H69C68.7016 82.125 68.4155 82.0065 68.2045 81.7955C67.9935 81.5845 67.875 81.2984 67.875 81V76.5ZM76.9024 93.375C76.9024 93.6733 76.7838 93.9595 76.5728 94.1705C76.3618 94.3815 76.0757 94.5 75.7773 94.5H69.027C68.7286 94.5 68.4425 94.3815 68.2315 94.1705C68.0205 93.9595 67.902 93.6733 67.902 93.375V88.875C67.902 88.5766 68.0205 88.2905 68.2315 88.0795C68.4425 87.8685 68.7286 87.75 69.027 87.75H75.7773C76.0757 87.75 76.3618 87.8685 76.5728 88.0795C76.7838 88.2905 76.9024 88.5766 76.9024 88.875V93.375ZM90.376 76.5C90.376 76.7984 90.2574 77.0845 90.0464 77.2955C89.8354 77.5065 89.5493 77.625 89.2509 77.625H84.7507C84.4523 77.625 84.1662 77.5065 83.9552 77.2955C83.7442 77.0845 83.6257 76.7984 83.6257 76.5V69.75C83.6257 68.8549 83.9812 67.9964 84.6142 67.3635C85.2472 66.7306 86.1057 66.375 87.0008 66.375C87.896 66.375 88.7544 66.7306 89.3874 67.3635C90.0204 67.9964 90.376 68.8549 90.376 69.75V76.5ZM106.1 93.375C106.1 93.6733 105.981 93.9595 105.77 94.1705C105.559 94.3815 105.273 94.5 104.975 94.5H98.2243C97.9259 94.5 97.6398 94.3815 97.4288 94.1705C97.2178 93.9595 97.0993 93.6733 97.0993 93.375V88.875C97.0993 88.5766 97.2178 88.2905 97.4288 88.0795C97.6398 87.8685 97.9259 87.75 98.2243 87.75H104.975C105.273 87.75 105.559 87.8685 105.77 88.0795C105.981 88.2905 106.1 88.5766 106.1 88.875V93.375ZM106.127 81C106.127 81.2984 106.008 81.5845 105.797 81.7955C105.586 82.0065 105.3 82.125 105.002 82.125H98.2513C97.9529 82.125 97.6668 82.0065 97.4558 81.7955C97.2448 81.5845 97.1263 81.2984 97.1263 81V76.5C97.1263 76.2016 97.2448 75.9155 97.4558 75.7045C97.6668 75.4935 97.9529 75.375 98.2513 75.375H105.002C105.3 75.375 105.586 75.4935 105.797 75.7045C106.008 75.9155 106.127 76.2016 106.127 76.5V81Z" fill="#A3A5B0"/>
<path d="M111.751 66.375C112.126 66.3748 112.496 66.2807 112.826 66.1013C113.155 65.9218 113.435 65.6627 113.639 65.3476C113.843 65.0325 113.965 64.6714 113.993 64.2971C114.022 63.9228 113.957 63.5473 113.803 63.2048L113.776 63.153L105.174 46.3298C104.997 45.9343 104.709 45.5983 104.345 45.3624C103.982 45.1265 103.558 45.0007 103.124 45H70.8758C70.4518 44.9977 70.0359 45.1165 69.6771 45.3425C69.3183 45.5685 69.0316 45.8923 68.8507 46.2758L60.1968 63.2048C60.0433 63.5473 59.9779 63.9228 60.0066 64.2971C60.0353 64.6714 60.1572 65.0325 60.3612 65.3476C60.5651 65.6627 60.8447 65.9218 61.1744 66.1013C61.5041 66.2807 61.8735 66.3748 62.2489 66.375H74.3859C74.6394 66.3746 74.8853 66.2886 75.0838 66.131C75.2823 65.9733 75.4217 65.7533 75.4795 65.5065C76.0598 63.035 77.4576 60.8319 79.4465 59.254C81.4353 57.676 83.8987 56.8158 86.4375 56.8125H87.5625C90.1013 56.8158 92.5647 57.676 94.5535 59.254C96.5424 60.8319 97.9402 63.035 98.5205 65.5065C98.5783 65.7533 98.7177 65.9733 98.9162 66.131C99.1147 66.2886 99.3606 66.3746 99.6141 66.375H111.751Z" fill="#A3A5B0"/>
</svg>
