<svg width="60" height="60" viewBox="0 0 60 60" fill="none" xmlns="http://www.w3.org/2000/svg">
<circle cx="30" cy="30" r="30" fill="#EFF1F3"/>
<mask id="mask0" mask-type="alpha" maskUnits="userSpaceOnUse" x="0" y="0" width="60" height="60">
<circle cx="30" cy="30" r="30" fill="#E6E7EC"/>
</mask>
<g mask="url(#mask0)">
<path d="M41.4865 43.7982C41.4456 43.7937 35.5229 43.9748 34.6423 37.3959C35.6208 36.6882 36.5226 35.7694 37.3171 34.6546C38.8627 32.4859 39.8586 29.7652 40.2133 26.8224C40.3352 26.7082 40.4361 26.566 40.504 26.3984C41.1459 24.8135 41.4714 23.1212 41.4714 21.3683C41.4714 14.6404 36.5753 9.16675 30.5568 9.16675C28.9828 9.16675 27.4557 9.54258 26.0134 10.2848C25.4633 10.3283 24.9241 10.4286 24.4071 10.5834C21.9353 11.3237 19.9238 13.2234 18.7431 15.9328C17.5969 18.5634 17.371 21.6602 18.1072 24.6528C18.2628 25.2849 18.4605 25.9062 18.6951 26.4997C18.7586 26.6603 18.8533 26.7972 18.9669 26.9099C19.5415 31.5032 21.65 35.3089 24.5249 37.3867C23.6415 43.9768 17.7209 43.7939 17.6801 43.7985C13.4211 43.9482 10 47.584 10 52.0346V61.2992C10 61.9625 10.5186 62.5001 11.1585 62.5001H21.3314H37.835H48.0081C48.6478 62.5001 49.1667 61.9625 49.1667 61.2992V52.0346C49.1666 47.5838 45.7458 43.9479 41.4865 43.7982ZM25.0503 12.8908C25.4731 12.7641 25.9196 12.689 26.3774 12.6677C26.5474 12.6598 26.7135 12.6132 26.8641 12.5311C28.037 11.8924 29.2794 11.5685 30.5569 11.5685C35.2975 11.5685 39.1544 15.9647 39.1544 21.3683C39.1544 21.5305 39.15 21.6918 39.1432 21.8526C38.2237 20.8846 36.9461 20.2831 35.5353 20.2831H27.6395C27.1697 20.2831 26.7238 20.1302 26.3499 19.8408C26.0306 19.5938 25.7838 19.2618 25.6364 18.8808C25.4081 18.2914 24.8451 17.9228 24.2323 17.9627C23.6173 18.0033 23.0998 18.446 22.9444 19.0646C22.4869 20.8871 21.5745 22.5659 20.3228 23.9272C19.1581 18.9586 21.2601 14.0259 25.0503 12.8908ZM24.0424 33.6604C22.5349 31.7515 21.5477 29.1737 21.2347 26.3515C22.6966 25.001 23.8523 23.3204 24.6046 21.4562C24.7188 21.5654 24.8387 21.6686 24.9639 21.7656C25.7413 22.3669 26.6664 22.6849 27.6396 22.6849H35.5354C36.6526 22.6849 37.6155 23.3795 38.0452 24.3736C38.0451 24.3821 38.0439 24.3903 38.0439 24.3988C38.0439 31.1777 34.2493 36.6928 29.585 36.6928C27.5551 36.6929 25.5866 35.616 24.0424 33.6604ZM26.7043 38.566C27.6227 38.9104 28.5888 39.0947 29.585 39.0947C30.5734 39.0947 31.539 38.9164 32.4634 38.5723C32.8876 40.863 34.1163 42.8596 35.8326 44.2341L29.7493 53.2141C29.7097 53.2727 29.6545 53.3024 29.5853 53.3024C29.5163 53.3024 29.4611 53.2726 29.4215 53.2142L23.3367 44.2321C25.0531 42.8561 26.2815 40.858 26.7043 38.566ZM46.8495 60.0982H37.835H21.3314H12.317V52.0344C12.317 48.8133 14.845 46.1928 17.9525 46.1928C17.9947 46.1928 19.8589 46.1458 21.3319 45.452L27.5252 54.5943C27.9959 55.2893 28.766 55.7042 29.5852 55.7042C29.5852 55.7042 29.5852 55.7042 29.5853 55.7042C30.4045 55.7042 31.1747 55.2893 31.6454 54.5943L37.8376 45.4534C39.5175 46.1929 41.1719 46.1929 41.2141 46.1929C44.3215 46.1929 46.8495 48.8134 46.8495 52.0345V60.0982Z" fill="#D1D2D7"/>
</g>
</svg>
