<svg width="175" height="95" viewBox="0 0 175 95" fill="none" xmlns="http://www.w3.org/2000/svg">
<path d="M0 6C0 2.68629 2.68629 0 6 0H169C172.314 0 175 2.68629 175 6V89C175 92.3137 172.314 95 169 95H6C2.68629 95 0 92.3137 0 89V6Z" fill="#F6F7F8"/>
<path d="M66.9808 41.0628L85.8525 25.4733C86.0331 25.324 86.2603 25.2422 86.4948 25.2422C86.7293 25.2422 86.9565 25.324 87.1371 25.4733L106.009 41.0628C106.32 41.3207 106.679 41.5137 107.066 41.6303C107.453 41.7469 107.859 41.7848 108.261 41.7417C108.663 41.6985 109.052 41.5753 109.405 41.3792C109.758 41.1832 110.069 40.9183 110.317 40.6003C110.829 39.9522 111.068 39.1303 110.983 38.3092C110.898 37.4881 110.496 36.7323 109.863 36.2024L90.9911 20.613C89.7252 19.5703 88.1356 19 86.4948 19C84.854 19 83.2644 19.5703 81.9984 20.613L63.1372 36.2024C62.5036 36.7323 62.1017 37.4881 62.0168 38.3092C61.9319 39.1303 62.1707 39.9522 62.6825 40.6003C62.9317 40.9163 63.2415 41.1794 63.5939 41.3742C63.9462 41.569 64.3339 41.6915 64.7343 41.7346C65.1346 41.7777 65.5396 41.7404 65.9254 41.6251C66.3111 41.5097 66.6699 41.3185 66.9808 41.0628V41.0628Z" fill="#A3A5B0"/>
<path d="M107.935 64.8334V50.2502C107.918 49.6235 107.773 49.0068 107.511 48.4375C107.248 47.8681 106.872 47.3579 106.406 46.9377L89.0968 32.3546C88.3698 31.7403 87.4484 31.4032 86.4962 31.4032C85.544 31.4032 84.6226 31.7403 83.8956 32.3546L66.5859 46.9502C66.1208 47.3685 65.7452 47.8765 65.4817 48.4437C65.2183 49.0108 65.0725 49.6253 65.0531 50.2502V64.8334C65.0425 65.9265 65.4666 66.9792 66.2321 67.7604C66.9977 68.5416 68.0422 68.9874 69.1365 69H80.369C80.9162 68.994 81.4387 68.7712 81.8215 68.3805C82.2043 67.9899 82.4163 67.4634 82.4107 66.9167V55.4585C82.4057 54.912 82.6178 54.3858 83.0005 53.9953C83.3833 53.6048 83.9054 53.3818 84.4524 53.3752H88.5358C89.0829 53.3818 89.605 53.6048 89.9877 53.9953C90.3704 54.3858 90.5825 54.912 90.5775 55.4585V66.9167C90.572 67.4634 90.7839 67.9899 91.1667 68.3805C91.5496 68.7712 92.072 68.994 92.6192 69H103.852C104.946 68.9874 105.991 68.5416 106.756 67.7604C107.522 66.9792 107.946 65.9265 107.935 64.8334V64.8334Z" fill="#A3A5B0"/>
</svg>
