<svg width="100" height="100" viewBox="0 0 100 100" fill="none" xmlns="http://www.w3.org/2000/svg">
<rect width="100" height="100" rx="6" fill="#C4C4C4"/>
<path d="M30.2992 21.5676C21.8633 21.5676 15 28.4307 15 36.8669C15 40.1453 16.0212 43.2695 17.9535 45.905L30.2992 64.2323L42.6449 45.905C44.5773 43.2696 45.5985 40.1456 45.5985 36.8669C45.5983 28.4307 38.7351 21.5676 30.2992 21.5676ZM30.2992 44.6557C25.8965 44.6557 22.3147 41.0738 22.3147 36.6713C22.3147 32.2687 25.8966 28.6868 30.2992 28.6868C34.7019 28.6868 38.2838 32.2688 38.2838 36.6713C38.2838 41.0738 34.7019 44.6557 30.2992 44.6557Z" fill="white"/>
<path d="M35.984 70.2237L33.0819 67.3216L30.4286 69.9749L27.7753 67.3216L24.8733 70.2237L27.5264 72.8769L24.8733 75.5302L27.7753 78.4324L30.4286 75.779L33.0819 78.4324L35.984 75.5302L33.3308 72.8769L35.984 70.2237Z" fill="white"/>
<path d="M75.2033 70.2237L72.301 67.3216L69.6477 69.9749L66.9946 67.3216L64.0925 70.2237L66.7458 72.8769L64.0925 75.5302L66.9946 78.4324L69.6477 75.779L72.301 78.4324L75.2033 75.5302L72.5499 72.8769L75.2033 70.2237Z" fill="white"/>
<path d="M62.3586 70.7739H37.7325V74.8782H62.3586V70.7739Z" fill="white"/>
<path d="M69.7008 21.5677C61.2648 21.5677 54.4016 28.4308 54.4016 36.8669C54.4016 40.1453 55.4227 43.2695 57.3551 45.905L69.7008 64.2323L82.0465 45.905C83.9789 43.2696 85 40.1455 85 36.8669C85 28.4307 78.1367 21.5677 69.7008 21.5677ZM69.7008 44.6557C65.298 44.6557 61.7163 41.0738 61.7163 36.6713C61.7163 32.2687 65.2982 28.6868 69.7008 28.6868C74.1034 28.6868 77.6853 32.2688 77.6853 36.6713C77.6854 41.0738 74.1035 44.6557 69.7008 44.6557Z" fill="white"/>
</svg>
