<svg width="50" height="50" viewBox="0 0 50 50" fill="none" xmlns="http://www.w3.org/2000/svg">
<circle cx="25" cy="25" r="25" fill="#C4C4C4"/>
<path d="M29.9785 32.4082C29.9785 31.2832 29.5801 30.416 28.7832 29.8066C27.998 29.1973 26.5742 28.582 24.5117 27.9609C22.4492 27.3398 20.8086 26.6484 19.5898 25.8867C17.2578 24.4219 16.0918 22.5117 16.0918 20.1562C16.0918 18.0938 16.9297 16.3945 18.6055 15.0586C20.293 13.7227 22.4785 13.0547 25.1621 13.0547C26.9434 13.0547 28.5312 13.3828 29.9258 14.0391C31.3203 14.6953 32.416 15.6328 33.2129 16.8516C34.0098 18.0586 34.4082 19.4004 34.4082 20.877H29.9785C29.9785 19.541 29.5566 18.498 28.7129 17.748C27.8809 16.9863 26.6855 16.6055 25.127 16.6055C23.6738 16.6055 22.543 16.916 21.7344 17.5371C20.9375 18.1582 20.5391 19.0254 20.5391 20.1387C20.5391 21.0762 20.9727 21.8613 21.8398 22.4941C22.707 23.1152 24.1367 23.7246 26.1289 24.3223C28.1211 24.9082 29.7207 25.582 30.9277 26.3438C32.1348 27.0938 33.0195 27.9609 33.582 28.9453C34.1445 29.918 34.4258 31.0605 34.4258 32.373C34.4258 34.5059 33.6055 36.2051 31.9648 37.4707C30.3359 38.7246 28.1211 39.3516 25.3203 39.3516C23.4688 39.3516 21.7637 39.0117 20.2051 38.332C18.6582 37.6406 17.4512 36.6914 16.584 35.4844C15.7285 34.2773 15.3008 32.8711 15.3008 31.2656H19.748C19.748 32.7188 20.2285 33.8438 21.1895 34.6406C22.1504 35.4375 23.5273 35.8359 25.3203 35.8359C26.8672 35.8359 28.0273 35.5254 28.8008 34.9043C29.5859 34.2715 29.9785 33.4395 29.9785 32.4082Z" fill="white"/>
</svg>
