<svg width="250" height="250" viewBox="0 0 250 250" fill="none" xmlns="http://www.w3.org/2000/svg">
<path d="M250 125C250 194.036 194.036 250 125 250C55.9636 250 0 194.036 0 125C0 55.9636 55.9636 0 125 0C194.036 0 250 55.9636 250 125Z" fill="#D1E6FF"/>
<path d="M111.515 229.306V196.362C111.515 190.824 107.026 186.332 101.487 186.332H39.3107C33.7721 186.332 29.2832 190.824 29.2832 196.362V229.306H111.515Z" fill="#FD919E"/>
<path d="M111.514 232.929H29.2824C27.2821 232.929 25.6592 231.308 25.6592 229.306V196.362C25.6592 188.835 31.7827 182.709 39.3098 182.709H101.487C109.014 182.709 115.137 188.833 115.137 196.362V229.306C115.137 231.308 113.514 232.929 111.514 232.929ZM32.9056 225.683H107.891V196.362C107.891 192.829 105.018 189.956 101.487 189.956H39.3098C35.7786 189.956 32.9056 192.829 32.9056 196.362V225.683Z" fill="#4C4372"/>
<path d="M70.3973 182.815C67.168 182.815 64.1086 182.096 61.3652 180.813V191.649C61.3652 196.638 65.4107 200.681 70.3973 200.681C75.3886 200.681 79.4316 196.636 79.4316 191.649V180.813C76.6883 182.096 73.6289 182.815 70.3973 182.815Z" fill="#D3E6F8"/>
<path d="M70.3972 182.815C58.6053 182.815 49.0449 173.255 49.0449 161.463V149.817C49.0449 138.023 58.6053 128.463 70.3972 128.463C82.1914 128.463 91.7518 138.023 91.7518 149.817V161.463C91.7518 173.257 82.1914 182.815 70.3972 182.815Z" fill="white"/>
<path d="M70.3998 204.304C63.4199 204.304 57.7422 198.629 57.7422 191.649V180.813C57.7422 179.574 58.3767 178.421 59.4193 177.756C60.4643 177.093 61.7782 177.008 62.8986 177.529C67.6187 179.737 73.1785 179.739 77.8962 177.529C79.019 177.008 80.3329 177.093 81.3755 177.756C82.4204 178.421 83.055 179.574 83.055 180.813V191.649C83.055 198.629 77.3772 204.304 70.3998 204.304ZM64.9886 185.854V191.649C64.9886 194.633 67.4158 197.058 70.3998 197.058C73.3837 197.058 75.8086 194.631 75.8086 191.649V185.854C72.2845 186.634 68.515 186.634 64.9886 185.854Z" fill="#4C4372"/>
<path d="M49.0518 149.532C52.7174 151.509 56.9091 152.632 61.3649 152.632C72.7322 152.632 82.3893 145.324 85.9111 135.152C82.0166 131.036 76.5087 128.465 70.397 128.465C58.7018 128.465 49.2051 137.872 49.0518 149.532Z" fill="#A4CFF2"/>
<path d="M61.3649 156.255C56.4703 156.255 51.6182 155.033 47.3345 152.721C46.148 152.082 45.4144 150.834 45.4309 149.485C45.6102 135.896 56.81 124.842 70.3993 124.842C77.3296 124.842 83.774 127.621 88.5436 132.664C89.473 133.645 89.7773 135.063 89.3361 136.339C85.2129 148.251 73.9706 156.255 61.3649 156.255ZM52.8519 147.326C55.5362 148.43 58.44 149.008 61.3649 149.008C70.1139 149.008 77.9901 143.904 81.6274 136.098C78.4689 133.499 74.558 132.088 70.3993 132.088C61.5159 132.088 54.0714 138.743 52.8519 147.326Z" fill="#4C4372"/>
<path d="M70.3993 186.439C56.6283 186.439 45.4238 175.236 45.4238 161.463V149.817C45.4238 136.046 56.6283 124.84 70.3993 124.84C84.1702 124.84 95.3748 136.044 95.3748 149.817V161.463C95.3748 175.236 84.1702 186.439 70.3993 186.439ZM70.3993 132.088C60.6219 132.088 52.6702 140.04 52.6702 149.817V161.465C52.6702 171.24 60.6219 179.194 70.3993 179.194C80.1744 179.194 88.1284 171.24 88.1284 161.465V149.817C88.1284 140.04 80.1744 132.088 70.3993 132.088Z" fill="#4C4372"/>
<path d="M220.717 229.306V196.362C220.717 190.824 216.228 186.332 210.69 186.332H148.513C142.974 186.332 138.485 190.824 138.485 196.362V229.306H220.717Z" fill="#FD919E"/>
<path d="M210.689 186.332H199.459C204.998 186.332 209.486 190.824 209.486 196.362V229.306H220.717V196.362C220.717 190.824 216.226 186.332 210.689 186.332Z" fill="#E8677D"/>
<path d="M220.717 232.929H138.485C136.485 232.929 134.862 231.308 134.862 229.306V196.362C134.862 188.835 140.986 182.709 148.513 182.709H210.69C218.217 182.709 224.34 188.833 224.34 196.362V229.306C224.34 231.308 222.718 232.929 220.717 232.929ZM142.109 225.683H217.094V196.362C217.094 192.829 214.221 189.956 210.69 189.956H148.513C144.982 189.956 142.109 192.829 142.109 196.362V225.683Z" fill="#4C4372"/>
<path d="M179.603 182.815C176.371 182.815 173.314 182.096 170.568 180.813V191.649C170.568 196.638 174.611 200.681 179.603 200.681C184.592 200.681 188.635 196.636 188.635 191.649V180.813C185.891 182.096 182.832 182.815 179.603 182.815Z" fill="#D3E6F8"/>
<path d="M179.603 182.815C167.808 182.815 158.248 173.255 158.248 161.463V149.817C158.248 138.023 167.808 128.463 179.603 128.463C191.395 128.463 200.955 138.023 200.955 149.817V161.463C200.953 173.257 191.395 182.815 179.603 182.815Z" fill="white"/>
<path d="M179.601 204.304C172.623 204.304 166.945 198.629 166.945 191.649V180.813C166.945 179.574 167.577 178.421 168.622 177.756C169.667 177.093 170.979 177.008 172.102 177.529C176.822 179.739 182.382 179.737 187.099 177.529C188.222 177.008 189.534 177.093 190.579 177.756C191.624 178.421 192.256 179.574 192.256 180.813V191.649C192.258 198.629 186.58 204.304 179.601 204.304ZM174.192 185.854V191.649C174.192 194.633 176.617 197.058 179.601 197.058C182.584 197.058 185.009 194.631 185.009 191.649V185.854C181.488 186.632 177.718 186.632 174.192 185.854Z" fill="#4C4372"/>
<path d="M158.255 149.532C161.921 151.509 166.112 152.632 170.568 152.632C181.935 152.632 191.592 145.324 195.114 135.152C191.22 131.036 185.712 128.465 179.6 128.465C167.905 128.465 158.408 137.872 158.255 149.532Z" fill="#A4CFF2"/>
<path d="M170.568 156.255C165.674 156.255 160.822 155.033 156.536 152.721C155.349 152.082 154.616 150.834 154.632 149.482C154.811 135.896 166.011 124.842 179.6 124.842C186.531 124.842 192.975 127.621 197.747 132.664C198.676 133.645 198.981 135.063 198.537 136.339C194.414 148.251 183.174 156.255 170.568 156.255ZM162.053 147.326C164.74 148.43 167.644 149.008 170.568 149.008C179.315 149.008 187.191 143.904 190.829 136.098C187.672 133.499 183.759 132.088 179.603 132.088C170.719 132.088 163.275 138.743 162.053 147.326Z" fill="#4C4372"/>
<path d="M179.6 186.439C165.83 186.439 154.625 175.236 154.625 161.463V149.817C154.625 136.046 165.83 124.84 179.6 124.84C193.371 124.84 204.576 136.044 204.576 149.817V161.463C204.576 175.236 193.371 186.439 179.6 186.439ZM179.6 132.088C169.825 132.088 161.871 140.04 161.871 149.817V161.465C161.871 171.24 169.823 179.194 179.6 179.194C189.378 179.194 197.33 171.24 197.33 161.465V149.817C197.33 140.04 189.378 132.088 179.6 132.088Z" fill="#4C4372"/>
<path d="M170.479 229.306V192.864C170.479 186.738 165.513 181.773 159.387 181.773H90.6128C84.4869 181.773 79.5215 186.738 79.5215 192.864V229.306H170.479Z" fill="#A4CFF2"/>
<path d="M159.388 181.773H146.966C153.092 181.773 158.057 186.738 158.057 192.864V229.306H170.479V192.864C170.479 186.738 165.513 181.773 159.388 181.773Z" fill="#7BABF1"/>
<path d="M101.386 181.773H148.615V229.306H101.386V181.773Z" fill="white"/>
<path d="M170.479 232.929H79.5216C77.5213 232.929 75.8984 231.308 75.8984 229.306V192.864C75.8984 184.752 82.4985 178.15 90.6129 178.15H159.387C167.5 178.15 174.102 184.752 174.102 192.864V229.306C174.102 231.308 172.479 232.929 170.479 232.929ZM83.1448 225.683H166.856V192.864C166.856 188.748 163.506 185.396 159.387 185.396H90.6129C86.4944 185.396 83.1448 188.745 83.1448 192.864V225.683Z" fill="#4C4372"/>
<path d="M148.614 232.929H101.385C99.3846 232.929 97.7617 231.308 97.7617 229.306V181.775C97.7617 179.772 99.3846 178.152 101.385 178.152H148.614C150.614 178.152 152.237 179.772 152.237 181.775V229.306C152.237 231.308 150.614 232.929 148.614 232.929ZM105.008 225.683H144.991V185.398H105.008V225.683Z" fill="#4C4372"/>
<path d="M134.992 191.503V175.668C131.956 177.088 128.571 177.885 125 177.885C121.429 177.885 118.044 177.088 115.008 175.668V191.503L125 204.333L134.992 191.503Z" fill="#D3E6F8"/>
<path d="M125 177.883C111.956 177.883 101.381 167.311 101.381 154.266V141.385C101.381 128.34 111.956 117.765 125 117.765C138.044 117.765 148.617 128.34 148.617 141.385V154.266C148.617 167.311 138.044 177.883 125 177.883Z" fill="white"/>
<path d="M125 207.956C123.882 207.956 122.828 207.442 122.141 206.559L112.149 193.73C111.654 193.095 111.385 192.31 111.385 191.503V175.668C111.385 174.432 112.019 173.279 113.062 172.613C114.109 171.948 115.418 171.863 116.541 172.387C121.865 174.875 128.133 174.875 133.456 172.387C134.582 171.863 135.891 171.948 136.936 172.613C137.981 173.279 138.613 174.432 138.613 175.668V191.503C138.613 192.31 138.344 193.093 137.849 193.73L127.859 206.559C127.173 207.442 126.118 207.956 125 207.956ZM118.631 190.258L125 198.436L131.367 190.258V180.758C127.227 181.754 122.771 181.754 118.631 180.758V190.258ZM134.992 191.503H135.004H134.992Z" fill="#4C4372"/>
<path d="M101.391 141.068C105.443 143.255 110.081 144.498 115.008 144.498C127.583 144.498 138.264 136.414 142.159 125.165C137.854 120.613 131.761 117.768 125 117.768C112.062 117.765 101.56 128.173 101.391 141.068Z" fill="#A4CFF2"/>
<path d="M115.008 148.121C109.658 148.121 104.353 146.784 99.6705 144.258C98.484 143.618 97.7504 142.371 97.7669 141.021C97.9627 126.201 110.179 114.145 125 114.145C132.56 114.145 139.589 117.173 144.79 122.674C145.72 123.658 146.024 125.073 145.583 126.349C141.075 139.37 128.788 148.121 115.008 148.121ZM105.169 138.87C108.264 140.186 111.623 140.873 115.008 140.873C124.934 140.873 133.862 135.023 137.891 126.102C134.291 123.049 129.791 121.391 125 121.391C114.88 121.391 106.417 129.048 105.169 138.87Z" fill="#4C4372"/>
<path d="M125 181.506C109.979 181.506 97.7578 169.287 97.7578 154.266V141.385C97.7578 126.363 109.979 114.142 125 114.142C140.021 114.142 152.24 126.363 152.24 141.385V154.266C152.24 169.287 140.021 181.506 125 181.506ZM125 121.391C113.975 121.391 105.004 130.359 105.004 141.385V154.266C105.004 165.291 113.975 174.262 125 174.262C136.025 174.262 144.994 165.291 144.994 154.266V141.385C144.994 130.359 136.025 121.391 125 121.391Z" fill="#4C4372"/>
<path d="M153.551 49.2433C153.551 32.8705 139.769 19.7176 123.174 20.7484C108.568 21.6566 96.8518 33.8282 96.4579 48.4554C96.1748 58.9594 101.57 68.2178 109.79 73.4026C111.326 74.3697 112.208 76.1011 112.208 77.9127V93.2688C112.208 100.334 117.933 106.058 124.998 106.058C132.062 106.058 137.787 100.334 137.787 93.2688V77.8938C137.787 76.0775 138.691 74.3626 140.226 73.3908C148.232 68.3334 153.551 59.4123 153.551 49.2433Z" fill="white"/>
<path d="M125.001 109.684C115.95 109.684 108.588 102.32 108.588 93.2711V77.9151C108.588 77.3065 108.309 76.7521 107.861 76.4714C98.289 70.4352 92.5334 59.6647 92.8377 48.3611C93.2811 31.8751 106.507 18.156 122.951 17.1347C131.945 16.5756 140.491 19.6515 147.03 25.7963C153.477 31.8562 157.175 40.4023 157.175 49.2456C157.175 60.344 151.564 70.5177 142.166 76.4549C141.701 76.7474 141.413 77.2994 141.413 77.8962V93.2711C141.413 102.322 134.051 109.684 125.001 109.684ZM125.015 24.315C124.479 24.315 123.941 24.3339 123.401 24.3669C110.668 25.1571 100.426 35.7837 100.082 48.5545C99.8434 57.4473 104.196 65.5901 111.727 70.3384C114.298 71.9637 115.834 74.7943 115.834 77.9151V93.2711C115.834 98.3238 119.946 102.438 125.001 102.438C130.056 102.438 134.167 98.3238 134.167 93.2711V77.8938C134.167 74.7896 135.71 71.959 138.295 70.3266C145.579 65.7245 149.929 57.8413 149.929 49.2433C149.929 42.2918 147.136 35.838 142.069 31.0731C137.396 26.6833 131.391 24.315 125.015 24.315Z" fill="#4C4372"/>
<path d="M125 85.1119C123 85.1119 121.377 83.4914 121.377 81.4887V59.0136C121.377 57.011 123 55.3904 125 55.3904C127 55.3904 128.623 57.011 128.623 59.0136V81.4887C128.623 83.4914 127 85.1119 125 85.1119Z" fill="#4C4372"/>
<path d="M132.466 62.6345H117.535C112.603 62.6345 108.588 58.6197 108.588 53.6874V52.9302C108.588 50.9299 110.211 49.307 112.211 49.307C114.211 49.307 115.834 50.9299 115.834 52.9302V53.6874C115.834 54.6262 116.599 55.3881 117.535 55.3881H132.466C133.403 55.3881 134.167 54.6262 134.167 53.6874V52.9302C134.167 50.9299 135.79 49.307 137.79 49.307C139.791 49.307 141.414 50.9299 141.414 52.9302V53.6874C141.414 58.6197 137.399 62.6345 132.466 62.6345Z" fill="#4C4372"/>
<path d="M125 106.061C132.064 106.061 137.789 100.334 137.789 93.2711V81.4887H112.21V93.2711C112.21 100.334 117.935 106.061 125 106.061Z" fill="#7BABF1"/>
<path d="M125 109.684C115.949 109.684 108.587 102.32 108.587 93.2712V81.4887C108.587 79.4861 110.21 77.8655 112.21 77.8655H137.789C139.79 77.8655 141.413 79.4861 141.413 81.4887V93.2712C141.413 102.322 134.051 109.684 125 109.684ZM115.833 85.1119V93.2712C115.833 98.3262 119.945 102.438 125 102.438C130.055 102.438 134.166 98.3262 134.166 93.2712V85.1119H115.833Z" fill="#4C4372"/>
<path d="M125 232.929C123 232.929 121.377 231.308 121.377 229.306V204.333C121.377 202.33 123 200.71 125 200.71C127 200.71 128.623 202.33 128.623 204.333V229.306C128.623 231.308 127 232.929 125 232.929Z" fill="#4C4372"/>
</svg>
