<svg width="90" height="81" viewBox="0 0 90 81" fill="none" xmlns="http://www.w3.org/2000/svg">
<path d="M76.5657 70.5533H4.41539C2.75496 70.5533 1.40918 69.2075 1.40918 67.5471V4.41545C1.40918 2.75502 2.75496 1.40924 4.41539 1.40924H76.5657C78.2261 1.40924 79.5719 2.75502 79.5719 4.41545V67.5469C79.5719 69.2074 78.2261 70.5533 76.5657 70.5533Z" fill="#E4EAF8"/>
<path d="M73.5594 45C62.7673 45 54.0187 53.7488 54.0187 64.5407C54.0187 66.6401 54.3585 68.658 54.9709 70.5533H76.5656C78.2259 70.5533 79.5718 69.2072 79.5718 67.5471V45.9526C77.6764 45.3398 75.6588 45 73.5594 45Z" fill="#D5DCED"/>
<path d="M76.5657 1.40924H4.41539C2.75496 1.40924 1.40918 2.75537 1.40918 4.41545V13.4343H79.5721V4.41545C79.5719 2.75537 78.2259 1.40924 76.5657 1.40924Z" fill="#C7CFE2"/>
<path d="M73.5595 79.572C81.8611 79.572 88.5908 72.8423 88.5908 64.5407C88.5908 56.2392 81.8611 49.5095 73.5595 49.5095C65.258 49.5095 58.5283 56.2392 58.5283 64.5407C58.5283 72.8423 65.258 79.572 73.5595 79.572Z" fill="#FB4C60"/>
<path d="M16.4404 29.9688C18.1007 29.9688 19.4466 28.6229 19.4466 26.9626C19.4466 25.3023 18.1007 23.9564 16.4404 23.9564C14.7801 23.9564 13.4342 25.3023 13.4342 26.9626C13.4342 28.6229 14.7801 29.9688 16.4404 29.9688Z" fill="#FB4C60"/>
<path d="M16.4404 45.0001C18.1007 45.0001 19.4466 43.6542 19.4466 41.9939C19.4466 40.3336 18.1007 38.9877 16.4404 38.9877C14.7801 38.9877 13.4342 40.3336 13.4342 41.9939C13.4342 43.6542 14.7801 45.0001 16.4404 45.0001Z" fill="#FB4C60"/>
<path d="M16.4404 60.0315C18.1007 60.0315 19.4466 58.6855 19.4466 57.0253C19.4466 55.365 18.1007 54.019 16.4404 54.019C14.7801 54.019 13.4342 55.365 13.4342 57.0253C13.4342 58.6855 14.7801 60.0315 16.4404 60.0315Z" fill="#FB4C60"/>
<path d="M79.572 73.5595C71.2704 73.5595 64.5407 66.8297 64.5407 58.5283C64.5407 55.9235 65.2045 53.4745 66.3701 51.3386C61.6984 53.8882 58.5283 58.8438 58.5283 64.5408C58.5283 72.8425 65.2581 79.5721 73.5597 79.5721C79.2566 79.5721 84.2122 76.402 86.7618 71.7303C84.6255 72.8959 82.1765 73.5595 79.572 73.5595Z" fill="#FB4C60"/>
<path d="M52.5157 69.1441H4.41545C3.53479 69.1441 2.8183 68.4276 2.8183 67.5469V14.8435H58.5283C59.3067 14.8435 59.9375 14.2126 59.9375 13.4343C59.9375 12.6561 59.3068 12.025 58.5283 12.025H2.8183V4.41545C2.8183 3.53479 3.53479 2.8183 4.41545 2.8183H76.5657C77.4464 2.8183 78.1629 3.53479 78.1629 4.41545V12.025H73.5595C72.7812 12.025 72.1503 12.6559 72.1503 13.4343C72.1503 14.2124 72.781 14.8435 73.5595 14.8435H78.1629V43.4969C78.1629 44.2751 78.7936 44.9061 79.5721 44.9061C80.3507 44.9061 80.9814 44.2753 80.9814 43.4969V4.41545C80.9814 1.9807 79.0007 0 76.5659 0H4.41545C1.9807 0 0 1.98088 0 4.41545V67.5469C0 69.9817 1.9807 71.9624 4.41545 71.9624H52.5157C53.2941 71.9624 53.9249 71.3315 53.9249 70.5532C53.9248 69.7751 53.2941 69.1441 52.5157 69.1441Z" fill="black"/>
<path d="M67.5474 12.0252H64.5403C63.762 12.0252 63.1311 12.6561 63.1311 13.4344C63.1311 14.2126 63.7618 14.8437 64.5403 14.8437H67.5474C68.3258 14.8437 68.9567 14.2128 68.9567 13.4344C68.9567 12.6561 68.326 12.0252 67.5474 12.0252Z" fill="black"/>
<path d="M7.42158 6.01257C6.64322 6.01257 6.0199 6.64345 6.0199 7.42181C6.0199 8.20017 6.65816 8.83105 7.43652 8.83105C8.21488 8.83105 8.84576 8.20017 8.84576 7.42181C8.84576 6.64345 8.21505 6.01257 7.43652 6.01257H7.42158Z" fill="black"/>
<path d="M19.4467 6.01257C18.6684 6.01257 18.045 6.64345 18.045 7.42181C18.045 8.20017 18.6833 8.83105 19.4617 8.83105C20.24 8.83105 20.8709 8.20017 20.8709 7.42181C20.8709 6.64345 20.2402 6.01257 19.4617 6.01257H19.4467Z" fill="black"/>
<path d="M13.4191 6.01257C12.6408 6.01257 12.0175 6.64345 12.0175 7.42181C12.0175 8.20017 12.6557 8.83105 13.4341 8.83105C14.2124 8.83105 14.8433 8.20017 14.8433 7.42181C14.8433 6.64345 14.2126 6.01257 13.4341 6.01257H13.4191Z" fill="black"/>
<path d="M74.9689 7.42181C74.9689 6.64363 74.3382 6.01257 73.5597 6.01257H25.4594C24.6811 6.01257 24.0502 6.64345 24.0502 7.42181C24.0502 8.20017 24.6809 8.83105 25.4594 8.83105H73.5597C74.338 8.83087 74.9689 8.2 74.9689 7.42181Z" fill="black"/>
<path d="M73.5595 48.1002C64.4941 48.1002 57.119 55.4753 57.119 64.5407C57.119 73.6061 64.4941 80.9812 73.5595 80.9812C82.6249 80.9812 89.9999 73.6061 89.9999 64.5407C89.9999 55.4753 82.6249 48.1002 73.5595 48.1002ZM73.5595 78.1629C66.0482 78.1629 59.9373 72.052 59.9373 64.5407C59.9373 57.0294 66.0482 50.9185 73.5595 50.9185C81.0708 50.9185 87.1816 57.0294 87.1816 64.5407C87.1816 72.052 81.0708 78.1629 73.5595 78.1629Z" fill="black"/>
<path d="M81.0753 63.1317H74.9688V57.0252C74.9688 56.247 74.3381 55.616 73.5596 55.616C72.781 55.616 72.1503 56.2468 72.1503 57.0252V63.1317H66.0439C65.2655 63.1317 64.6346 63.7626 64.6346 64.5409C64.6346 65.3191 65.2653 65.9501 66.0439 65.9501H72.1503V72.0566C72.1503 72.8348 72.781 73.4659 73.5596 73.4659C74.3381 73.4659 74.9688 72.835 74.9688 72.0566V65.9501H81.0753C81.8536 65.9501 82.4845 65.3193 82.4845 64.5409C82.4844 63.7626 81.8536 63.1317 81.0753 63.1317Z" fill="black"/>
<path d="M16.4405 22.5471C14.0057 22.5471 12.025 24.5278 12.025 26.9626C12.025 29.3973 14.0057 31.378 16.4405 31.378C18.8752 31.378 20.8559 29.3973 20.8559 26.9626C20.8559 24.5278 18.8752 22.5471 16.4405 22.5471ZM16.4405 28.5595C15.5598 28.5595 14.8433 27.8431 14.8433 26.9624C14.8433 26.0817 15.5598 25.3652 16.4405 25.3652C17.3211 25.3652 18.0376 26.0817 18.0376 26.9624C18.0376 27.8431 17.3211 28.5595 16.4405 28.5595Z" fill="black"/>
<path d="M67.5471 22.5471H25.4594C24.6811 22.5471 24.0502 23.178 24.0502 23.9564C24.0502 24.7347 24.6809 25.3656 25.4594 25.3656H67.5471C68.3254 25.3656 68.9563 24.7347 68.9563 23.9564C68.9563 23.178 68.3256 22.5471 67.5471 22.5471Z" fill="black"/>
<path d="M25.4594 31.378H28.4656C29.244 31.378 29.8749 30.7472 29.8749 29.9688C29.8749 29.1904 29.2442 28.5596 28.4656 28.5596H25.4594C24.6811 28.5596 24.0502 29.1904 24.0502 29.9688C24.0502 30.7472 24.6811 31.378 25.4594 31.378Z" fill="black"/>
<path d="M46.503 31.378C47.2813 31.378 47.9122 30.7472 47.9122 29.9688C47.9122 29.1904 47.2815 28.5596 46.503 28.5596H43.4968C42.7184 28.5596 42.0875 29.1904 42.0875 29.9688C42.0875 30.7472 42.7182 31.378 43.4968 31.378H46.503Z" fill="black"/>
<path d="M37.4843 31.378C38.2627 31.378 38.8935 30.7472 38.8935 29.9688C38.8935 29.1904 38.2628 28.5596 37.4843 28.5596H34.4781C33.6997 28.5596 33.0688 29.1904 33.0688 29.9688C33.0688 30.7472 33.6996 31.378 34.4781 31.378H37.4843Z" fill="black"/>
<path d="M16.4405 37.5784C14.0057 37.5784 12.025 39.5591 12.025 41.9938C12.025 44.4286 14.0057 46.4093 16.4405 46.4093C18.8752 46.4093 20.8559 44.4286 20.8559 41.9938C20.8559 39.5591 18.8752 37.5784 16.4405 37.5784ZM16.4405 43.591C15.5598 43.591 14.8433 42.8745 14.8433 41.9938C14.8433 41.1132 15.5598 40.3967 16.4405 40.3967C17.3211 40.3967 18.0376 41.1132 18.0376 41.9938C18.0376 42.8745 17.3211 43.591 16.4405 43.591Z" fill="black"/>
<path d="M68.9563 38.9876C68.9563 38.2094 68.3256 37.5784 67.5471 37.5784H25.4594C24.6811 37.5784 24.0502 38.2092 24.0502 38.9876C24.0502 39.766 24.6809 40.3968 25.4594 40.3968H67.5471C68.3256 40.3968 68.9563 39.7658 68.9563 38.9876Z" fill="black"/>
<path d="M25.4594 43.5909C24.6811 43.5909 24.0502 44.2218 24.0502 45.0002C24.0502 45.7784 24.6809 46.4094 25.4594 46.4094H28.4656C29.244 46.4094 29.8749 45.7785 29.8749 45.0002C29.8749 44.222 29.2442 43.5909 28.4656 43.5909H25.4594Z" fill="black"/>
<path d="M43.4968 43.5909C42.7184 43.5909 42.0875 44.2218 42.0875 45.0002C42.0875 45.7784 42.7182 46.4094 43.4968 46.4094H46.503C47.2813 46.4094 47.9122 45.7785 47.9122 45.0002C47.9122 44.222 47.2815 43.5909 46.503 43.5909H43.4968Z" fill="black"/>
<path d="M34.4781 43.5909C33.6997 43.5909 33.0688 44.2218 33.0688 45.0002C33.0688 45.7784 33.6996 46.4094 34.4781 46.4094H37.4843C38.2627 46.4094 38.8935 45.7785 38.8935 45.0002C38.8935 44.222 38.2628 43.5909 37.4843 43.5909H34.4781Z" fill="black"/>
<path d="M16.4405 52.6097C14.0057 52.6097 12.025 54.5904 12.025 57.0252C12.025 59.4599 14.0057 61.4406 16.4405 61.4406C18.8752 61.4406 20.8559 59.4599 20.8559 57.0252C20.8559 54.5904 18.8752 52.6097 16.4405 52.6097ZM16.4405 58.6222C15.5598 58.6222 14.8433 57.9057 14.8433 57.025C14.8433 56.1444 15.5598 55.4279 16.4405 55.4279C17.3211 55.4279 18.0376 56.1444 18.0376 57.025C18.0376 57.9059 17.3211 58.6222 16.4405 58.6222Z" fill="black"/>
<path d="M54.0189 52.6097H25.4594C24.6811 52.6097 24.0502 53.2406 24.0502 54.019C24.0502 54.7972 24.6809 55.4282 25.4594 55.4282H54.0189C54.7973 55.4282 55.4282 54.7973 55.4282 54.019C55.4282 53.2406 54.7973 52.6097 54.0189 52.6097Z" fill="black"/>
<path d="M28.4656 61.4407C29.244 61.4407 29.8749 60.8098 29.8749 60.0314C29.8749 59.2532 29.2442 58.6222 28.4656 58.6222H25.4594C24.6811 58.6222 24.0502 59.2531 24.0502 60.0314C24.0502 60.8096 24.6809 61.4407 25.4594 61.4407H28.4656Z" fill="black"/>
<path d="M46.503 61.4407C47.2813 61.4407 47.9122 60.8098 47.9122 60.0314C47.9122 59.2532 47.2815 58.6222 46.503 58.6222H43.4968C42.7184 58.6222 42.0875 59.2531 42.0875 60.0314C42.0875 60.8096 42.7182 61.4407 43.4968 61.4407H46.503Z" fill="black"/>
<path d="M37.4843 61.4407C38.2627 61.4407 38.8935 60.8098 38.8935 60.0314C38.8935 59.2532 38.2628 58.6222 37.4843 58.6222H34.4781C33.6997 58.6222 33.0688 59.2531 33.0688 60.0314C33.0688 60.8096 33.6996 61.4407 34.4781 61.4407H37.4843Z" fill="black"/>
</svg>
