<svg width="80" height="80" viewBox="0 0 80 80" fill="none" xmlns="http://www.w3.org/2000/svg">
<g clip-path="url(#clip0)">
<path d="M58.3322 36.6672C46.3855 36.6672 36.6655 46.3872 36.6655 58.3339C36.6655 70.2806 46.3855 80.0006 58.3322 80.0006C70.2788 80.0006 79.9988 70.2806 79.9988 58.3339C79.9988 46.3872 70.2788 36.6672 58.3322 36.6672ZM61.6655 70.0006C61.6655 71.8406 60.1755 73.3339 58.3322 73.3339C56.4889 73.3339 54.9989 71.8406 54.9989 70.0006V58.3339C54.9989 56.4939 56.4889 55.0006 58.3322 55.0006C60.1755 55.0006 61.6655 56.4939 61.6655 58.3339V70.0006ZM58.3322 50.0006C56.4922 50.0006 54.9989 48.5072 54.9989 46.6672C54.9989 44.8272 56.4922 43.3339 58.3322 43.3339C60.1722 43.3339 61.6655 44.8272 61.6655 46.6672C61.6655 48.5072 60.1722 50.0006 58.3322 50.0006Z" fill="#2F344C"/>
<path d="M56.6667 19.86V6.66667C56.6667 4.82667 55.1767 3.33333 53.3333 3.33333C51.49 3.33333 50 4.82667 50 6.66667V13.34L37.33 0.95C36.0333 -0.316667 33.9633 -0.316667 32.67 0.95L1.49 31.43C0.543333 32.3667 0 33.67 0 35C0 37.7567 2.24333 40 5 40H10V58.3333C10 62.9267 13.7367 66.6667 18.3333 66.6667H26.6667C28.51 66.6667 30 65.1733 30 63.3333C30 61.4933 28.51 60 26.6667 60H18.3333C17.4167 60 16.6667 59.2533 16.6667 58.3333V36.6667C16.6667 34.8267 15.1767 33.3333 13.3333 33.3333H9.08333L35 7.99333L56.8367 29.3467C58.1567 30.6367 60.2667 30.61 61.55 29.2933C62.84 27.9767 62.8133 25.8667 61.4967 24.58L56.6667 19.86Z" fill="#2F344C"/>
</g>
<defs>
<clipPath id="clip0">
<rect width="80" height="80" fill="white"/>
</clipPath>
</defs>
</svg>
