<svg width="80" height="80" viewBox="0 0 80 80" fill="none" xmlns="http://www.w3.org/2000/svg">
<path d="M80 67.7344V12.2656H61.2159C56.9777 4.93969 49.055 0 40 0C30.945 0 23.0223 4.93969 18.7841 12.2656H0V67.7344H32.9688V75.3125H21.0938V80H58.9062V75.3125H47.0312V67.7344H80ZM40 4.6875C50.9203 4.6875 59.8047 13.5717 59.8047 24.4922C59.8047 35.4127 50.9203 44.2969 40 44.2969C29.0797 44.2969 20.1953 35.4127 20.1953 24.4922C20.1953 13.5717 29.0797 4.6875 40 4.6875ZM16.6966 16.9531C15.9259 19.3292 15.5078 21.8627 15.5078 24.4922C15.5078 37.9973 26.495 48.9844 40 48.9844C53.505 48.9844 64.4922 37.9973 64.4922 24.4922C64.4922 21.8627 64.0739 19.3292 63.3034 16.9531H75.3125V53.6719H4.6875V16.9531H16.6966ZM4.6875 63.0469V58.3594H75.3125V63.0469H4.6875ZM42.3438 75.3125H37.6562V67.7344H42.3438V75.3125Z" fill="#2F344C"/>
<path d="M37.3487 28.136V37.8124H47.5103V33.1249H42.0362V19.8741H37.3487V21.1068C37.3487 22.7206 36.0359 24.0334 34.4222 24.0334H32.4897V28.7209H34.4222C35.4587 28.7209 36.4473 28.5127 37.3487 28.136Z" fill="#2F344C"/>
<path d="M37.3488 10.4993H42.0363V15.1868H37.3488V10.4993Z" fill="#2F344C"/>
</svg>
