<svg width="80" height="80" viewBox="0 0 80 80" fill="none" xmlns="http://www.w3.org/2000/svg">
<g clip-path="url(#clip0)">
<path d="M49.3064 1.29028H12.8529L1.29102 16.2619H61.4347L49.8734 1.29028H49.3064Z" fill="#DFEAEF"/>
<path d="M10.2246 4.90987H52.8172L49.8737 1.29028H12.8538L10.2246 4.90987Z" fill="white"/>
<path d="M5.41211 10.3396H57.0603L54.6838 7.323H8.04127L5.41211 10.3396Z" fill="white"/>
<path d="M4.44727 16.262H58.2773V42.2341H4.44727V16.262Z" fill="white"/>
<path d="M58.2766 43.5237H4.44657C3.73463 43.5237 3.15625 42.946 3.15625 42.2334V16.2613C3.15625 15.5487 3.73463 14.9709 4.44657 14.9709H58.2766C58.9885 14.9709 59.5669 15.5487 59.5669 16.2613V42.2334C59.5669 42.946 58.9885 43.5237 58.2766 43.5237ZM5.7369 40.9431H56.9863V17.5516H5.7369V40.9431Z" fill="#5D6174"/>
<path d="M61.4338 17.5517H1.29013C0.798068 17.5517 0.348849 17.2719 0.132116 16.8303C-0.0846183 16.3886 -0.0316947 15.8619 0.268834 15.4732L11.8313 0.501512C12.0758 0.185232 12.4526 0 12.8526 0H49.8725C50.2726 0 50.6494 0.185232 50.8938 0.501512L62.4551 15.4725C62.7556 15.8619 62.8085 16.3886 62.5918 16.8296C62.3751 17.2719 61.9258 17.5517 61.4338 17.5517V17.5517ZM3.9174 14.971H58.8071L49.2387 2.58065H13.4864L3.9174 14.971Z" fill="#5D6174"/>
<path d="M14.3827 42.2336H28.3721L28.3683 24.2649C28.3683 23.7148 27.9235 23.27 27.3741 23.27H15.3731C14.8237 23.27 14.3789 23.7155 14.3789 24.2655L14.3827 42.2336Z" fill="#DFEAEF"/>
<path d="M28.3714 43.5239H14.382C13.6694 43.5239 13.0917 42.9461 13.0917 42.2335L13.0879 24.2648C13.0879 23.6549 13.3242 23.0809 13.7564 22.6487C14.1879 22.2172 14.7619 21.979 15.3724 21.979H27.3734C28.6335 21.979 29.6579 23.0041 29.6579 24.2642L29.6617 42.2335C29.6617 42.5757 29.5263 42.9039 29.2843 43.1458C29.0418 43.3878 28.7135 43.5239 28.3714 43.5239ZM15.6723 40.9432H27.0811L27.0773 24.5596H15.6685L15.6723 40.9432Z" fill="#5D6174"/>
<path d="M17.8027 29.915H20.3834V32.7509H17.8027V29.915Z" fill="#5D6174"/>
<path d="M26.3776 20.2754H36.3461C36.8974 20.2754 37.3428 19.8299 37.3428 19.2774V13.2674C37.3428 12.7149 36.8974 12.2688 36.3461 12.2688H26.3776C25.8276 12.2688 25.3809 12.7149 25.3809 13.2674V19.2774C25.3809 19.8299 25.8269 20.2754 26.3776 20.2754Z" fill="#FA4B5F"/>
<path d="M36.3473 21.5662H26.3788C25.1175 21.5662 24.0918 20.5399 24.0918 19.2779V13.2679C24.0918 12.006 25.1175 10.979 26.3788 10.979H36.348C37.6093 10.979 38.635 12.006 38.635 13.2679V19.2779C38.6344 20.5399 37.6087 21.5662 36.3473 21.5662ZM26.6724 18.9856H36.0544V13.5596H26.6724V18.9856Z" fill="#5D6174"/>
<path d="M50.9992 34.6176H39.8633V25.2124H50.9992V34.6176Z" fill="#DFEAEF"/>
<path d="M50.9999 35.908H39.8645C39.152 35.908 38.5742 35.3296 38.5742 34.6177V25.2124C38.5742 24.4999 39.152 23.9221 39.8645 23.9221H50.9999C51.7124 23.9221 52.2902 24.4999 52.2902 25.2124V34.6177C52.2902 35.3303 51.7124 35.908 50.9999 35.908ZM41.1549 33.3274H49.7096V26.5028H41.1549V33.3274Z" fill="#5D6174"/>
<path d="M45.4329 35.908C44.7203 35.908 44.1426 35.3296 44.1426 34.6177V25.2124C44.1426 24.4999 44.7203 23.9221 45.4329 23.9221C46.1448 23.9221 46.7232 24.4999 46.7232 25.2124V34.6177C46.7232 35.3303 46.1448 35.908 45.4329 35.908Z" fill="#5D6174"/>
<path d="M78.1534 74.8468L74.8375 78.1551C74.0865 78.9049 72.8642 78.8923 72.1283 78.1274L57.3262 62.7393L62.7029 57.3745L78.1263 72.1445C78.8925 72.8779 78.9051 74.097 78.1534 74.8468V74.8468Z" fill="#DFEAEF"/>
<path d="M73.4977 79.9999C73.487 79.9999 73.4756 79.9999 73.4643 79.9993C72.6017 79.9904 71.7972 79.6433 71.198 79.0221L55.5176 62.7204L62.6837 55.5701L79.0174 71.2121C79.6418 71.81 79.9896 72.6145 79.999 73.4777C80.0079 74.3415 79.6758 75.1517 79.0641 75.7603L75.7488 79.0687C75.1465 79.6697 74.3482 79.9999 73.4977 79.9999V79.9999ZM59.134 62.7569L73.0585 77.2327C73.2116 77.3928 73.3943 77.418 73.4901 77.4192C73.6004 77.418 73.7686 77.3984 73.9255 77.2416L77.2414 73.9332C77.397 73.7789 77.4184 73.5974 77.4178 73.5035C77.4171 73.4097 77.3913 73.2282 77.2319 73.0757L62.7196 59.1796L59.134 62.7569Z" fill="#5D6174"/>
<path d="M61.6594 38.7461C68.0115 45.0843 68.0115 55.3596 61.6594 61.6972C55.3067 68.0348 45.0087 68.0354 38.6566 61.6972C32.3046 55.359 32.3046 45.0837 38.6566 38.7461C45.0087 32.4092 55.3067 32.4085 61.6594 38.7461Z" fill="white"/>
<path d="M50.1576 67.7332C45.661 67.7332 41.167 66.0258 37.7446 62.6109C34.428 59.302 32.6016 54.9018 32.6016 50.2218C32.6016 45.5419 34.428 41.1423 37.7446 37.8327C44.5887 31.0043 55.7259 31.0043 62.5694 37.8327C65.8866 41.1423 67.7124 45.5419 67.7124 50.2218C67.7124 54.9018 65.886 59.302 62.5694 62.6109C59.1483 66.0251 54.6523 67.7332 50.1576 67.7332ZM50.1576 35.2899C46.3226 35.2899 42.4869 36.7465 39.5673 39.6592C36.7397 42.4805 35.1822 46.2318 35.1822 50.2212C35.1822 54.2112 36.7397 57.9619 39.5673 60.7832C45.4065 66.6098 54.9075 66.6098 60.7474 60.7832C63.575 57.9619 65.1318 54.2112 65.1318 50.2212C65.1318 46.2318 63.5743 42.4805 60.7474 39.6592C57.8277 36.7465 53.9921 35.2899 50.1576 35.2899V35.2899Z" fill="#5D6174"/>
<path d="M50.1585 63.2253C46.6737 63.2253 43.3981 61.8719 40.9359 59.4142C38.4744 56.9583 37.1191 53.694 37.1191 50.2219C37.1191 46.7497 38.4744 43.4861 40.9359 41.0302C43.3988 38.5724 46.6743 37.2197 50.1591 37.2197C53.6432 37.2197 56.9188 38.5731 59.3822 41.0302C61.8426 43.4861 63.1984 46.7497 63.1984 50.2219C63.1984 53.694 61.8426 56.9583 59.3816 59.4142C56.9182 61.8719 53.6426 63.2253 50.1585 63.2253V63.2253Z" fill="#DFEAEF"/>
<path d="M44.0462 58.8974C43.7167 58.8974 43.3872 58.772 43.1345 58.5206C40.9136 56.3042 39.6895 53.3568 39.6895 50.2217C39.6895 47.0873 40.913 44.1393 43.1345 41.9235C43.6385 41.4201 44.4557 41.422 44.9597 41.9254C45.4631 42.4294 45.4619 43.2472 44.9579 43.7506C43.2259 45.4788 42.2707 47.7772 42.2707 50.2217C42.2707 52.6663 43.2259 54.9647 44.9579 56.6935C45.4625 57.1969 45.4631 58.0141 44.9597 58.5188C44.7084 58.7708 44.3776 58.8974 44.0462 58.8974V58.8974Z" fill="white"/>
</g>
<defs>
<clipPath id="clip0">
<rect width="80" height="80" fill="white"/>
</clipPath>
</defs>
</svg>
