<svg width="80" height="80" viewBox="0 0 80 80" fill="none" xmlns="http://www.w3.org/2000/svg">
<g clip-path="url(#clip0)">
<path d="M71.1334 43.7837C70.0634 42.7272 68.6203 42.1348 67.1167 42.1348C65.6131 42.1348 64.17 42.7272 63.1 43.7837L53.5 53.3337H52.4834C52.5286 53.0579 52.5564 52.7796 52.5667 52.5003C52.5668 51.7287 52.4137 50.9646 52.1164 50.2525C51.8191 49.5404 51.3834 48.8944 50.8347 48.3518C50.2859 47.8092 49.6349 47.381 48.9195 47.0918C48.2041 46.8026 47.4383 46.6582 46.6667 46.667H28.8667C28.1334 46.6682 27.4089 46.8265 26.7419 47.1313C26.0749 47.436 25.481 47.8801 25 48.4337L17.7 56.967L16.2 55.467C16.0451 55.3108 15.8608 55.1868 15.6577 55.1022C15.4546 55.0176 15.2367 54.974 15.0167 54.974C14.7967 54.974 14.5788 55.0176 14.3757 55.1022C14.1726 55.1868 13.9883 55.3108 13.8334 55.467L7.1667 62.1337C7.01049 62.2886 6.8865 62.4729 6.80188 62.676C6.71727 62.8791 6.67371 63.097 6.67371 63.317C6.67371 63.537 6.71727 63.7549 6.80188 63.958C6.8865 64.1611 7.01049 64.3454 7.1667 64.5003L22.1667 79.5003C22.3216 79.6566 22.506 79.7805 22.7091 79.8652C22.9122 79.9498 23.13 79.9933 23.35 79.9933C23.5701 79.9933 23.7879 79.9498 23.991 79.8652C24.1941 79.7805 24.3784 79.6566 24.5334 79.5003L31.2 72.8337C31.3563 72.6787 31.4802 72.4944 31.5649 72.2913C31.6495 72.0882 31.693 71.8704 31.693 71.6503C31.693 71.4303 31.6495 71.2125 31.5649 71.0094C31.4802 70.8063 31.3563 70.6219 31.2 70.467L29.6334 68.9003L31.8834 66.667H53.9667C54.7134 66.6701 55.4532 66.5244 56.1429 66.2382C56.8326 65.952 57.4583 65.5312 57.9834 65.0003L71.2 51.867C71.7388 51.3408 72.1668 50.7121 72.4591 50.018C72.7514 49.324 72.902 48.5784 72.902 47.8253C72.902 47.0722 72.7514 46.3267 72.4591 45.6326C72.1668 44.9386 71.7388 44.3099 71.2 43.7837H71.1334ZM23.3334 75.9837L10.6834 63.3337L15 59.017L27.65 71.667L23.3334 75.9837ZM68.85 49.5003L55.6334 62.6503C55.1866 63.0844 54.5896 63.3292 53.9667 63.3337H31.2C30.9807 63.3324 30.7633 63.3744 30.5602 63.4574C30.3571 63.5403 30.1724 63.6625 30.0167 63.817L27.25 66.567L20 59.3003C20 59.3003 20.1667 59.3003 20.2167 59.1337L27.5 50.617C27.6708 50.4229 27.8811 50.2675 28.1168 50.1611C28.3525 50.0548 28.6081 49.9999 28.8667 50.0003H46.6667C47.3297 50.0003 47.9656 50.2637 48.4345 50.7326C48.9033 51.2014 49.1667 51.8373 49.1667 52.5003C49.1667 53.1634 48.9033 53.7993 48.4345 54.2681C47.9656 54.7369 47.3297 55.0003 46.6667 55.0003H38.3334C37.8913 55.0003 37.4674 55.1759 37.1549 55.4885C36.8423 55.8011 36.6667 56.225 36.6667 56.667C36.6667 57.109 36.8423 57.533 37.1549 57.8455C37.4674 58.1581 37.8913 58.3337 38.3334 58.3337H46.6667C48.1891 58.3367 49.651 57.7376 50.7334 56.667H54.0667C54.286 56.6683 54.5035 56.6262 54.7065 56.5433C54.9096 56.4603 55.0943 56.3381 55.25 56.1837L65.3334 46.1837C65.7787 45.748 66.377 45.504 67 45.504C67.6231 45.504 68.2213 45.748 68.6667 46.1837C68.8905 46.3997 69.0685 46.6587 69.1901 46.945C69.3116 47.2314 69.3743 47.5393 69.3743 47.8503C69.3743 48.1614 69.3116 48.4693 69.1901 48.7557C69.0685 49.042 68.8905 49.3009 68.6667 49.517L68.85 49.5003Z" fill="#2F344C"/>
<path d="M40 43.3336C53.8333 43.3336 56.6666 37.3336 56.6666 28.3336C56.7676 25.5332 56.0279 22.7666 54.5427 20.3903C53.0575 18.014 50.8948 16.1367 48.3333 15.0003V12.817C48.3219 12.2551 48.1947 11.7015 47.9595 11.191C47.7244 10.6806 47.3863 10.2241 46.9666 9.85031C47.7623 8.09849 48.3227 6.24912 48.6333 4.35031C48.6341 3.81763 48.5266 3.29035 48.3175 2.80045C48.1083 2.31054 47.8019 1.86822 47.4166 1.50031C46.9019 1.00424 46.2932 0.616019 45.6263 0.358433C44.9595 0.100846 44.2479 -0.0209104 43.5333 0.000312137H36.2166C34.9863 -0.091708 33.7695 0.307258 32.8325 1.10995C31.8955 1.91264 31.3146 3.05373 31.2166 4.28365C31.4864 6.27184 32.048 8.20937 32.8833 10.0336C32.1305 10.7674 31.694 11.7661 31.6666 12.817V15.0003C29.1051 16.1367 26.9425 18.014 25.4573 20.3903C23.9721 22.7666 23.2323 25.5332 23.3333 28.3336C23.3333 37.3336 26.1666 43.3336 40 43.3336ZM34.5 4.35031C34.5 3.76698 35.25 3.33365 36.1666 3.33365H43.4833C44.0291 3.3003 44.5667 3.47948 44.9833 3.83365C45.0493 3.88795 45.1018 3.9569 45.1365 4.03501C45.1712 4.11312 45.1872 4.19826 45.1833 4.28365C44.896 5.70317 44.4603 7.08856 43.8833 8.41698C43.5227 8.39092 43.1606 8.39092 42.8 8.41698H37.15C36.7012 8.41462 36.2537 8.46497 35.8166 8.56698C35.2221 7.21484 34.7805 5.80051 34.5 4.35031ZM35 12.817C35 12.3503 35.8333 11.667 37.15 11.667H42.85C44.1666 11.667 45 12.3503 45 12.817V13.9003C41.7094 13.145 38.2905 13.145 35 13.9003V12.817ZM40 16.667C48.1 16.667 53.3333 21.2503 53.3333 28.3336C53.3333 36.2336 51.3333 40.0003 40 40.0003C28.6666 40.0003 26.6666 36.2336 26.6666 28.3336C26.6666 21.2503 31.9 16.667 40 16.667Z" fill="#2F344C"/>
<path d="M36.6667 31.6663C36.2246 31.6663 35.8007 31.8419 35.4882 32.1545C35.1756 32.4671 35 32.891 35 33.333C35 33.775 35.1756 34.199 35.4882 34.5115C35.8007 34.8241 36.2246 34.9997 36.6667 34.9997H38.3333V36.6663C38.3333 37.1084 38.5089 37.5323 38.8215 37.8449C39.134 38.1574 39.558 38.333 40 38.333C40.442 38.333 40.866 38.1574 41.1785 37.8449C41.4911 37.5323 41.6667 37.1084 41.6667 36.6663V34.9997C42.5507 34.9997 43.3986 34.6485 44.0237 34.0234C44.6488 33.3982 45 32.5504 45 31.6663V29.9997C45 29.1156 44.6488 28.2678 44.0237 27.6427C43.3986 27.0175 42.5507 26.6663 41.6667 26.6663H38.3333V24.9997H43.3333C43.7754 24.9997 44.1993 24.8241 44.5118 24.5115C44.8244 24.199 45 23.775 45 23.333C45 22.891 44.8244 22.4671 44.5118 22.1545C44.1993 21.8419 43.7754 21.6663 43.3333 21.6663H41.6667V19.9997C41.6667 19.5576 41.4911 19.1337 41.1785 18.8212C40.866 18.5086 40.442 18.333 40 18.333C39.558 18.333 39.134 18.5086 38.8215 18.8212C38.5089 19.1337 38.3333 19.5576 38.3333 19.9997V21.6663C37.4493 21.6663 36.6014 22.0175 35.9763 22.6427C35.3512 23.2678 35 24.1156 35 24.9997V26.6663C35 27.5504 35.3512 28.3982 35.9763 29.0234C36.6014 29.6485 37.4493 29.9997 38.3333 29.9997H41.6667V31.6663H36.6667Z" fill="#2F344C"/>
</g>
<defs>
<clipPath id="clip0">
<rect width="80" height="80" fill="white"/>
</clipPath>
</defs>
</svg>
