<svg width="49" height="48" viewBox="0 0 49 48" fill="none" xmlns="http://www.w3.org/2000/svg">
<path d="M27.7993 31.4073C26.6274 30.5931 25.3712 29.9193 24.0587 29.4139C25.8024 27.8323 26.9649 25.6143 27.1618 23.1343C29.8056 20.5607 33.2743 19.1476 36.9962 19.1476C39.9024 19.1476 42.6868 20.0179 45.0587 21.6744C45.9118 22.264 47.0743 22.0581 47.6649 21.2065C48.2556 20.3548 48.0493 19.1944 47.1962 18.6048C46.0243 17.7906 44.7681 17.1261 43.4556 16.6114C45.3774 14.8614 46.5962 12.3439 46.5962 9.54572C46.5962 4.27686 42.3118 0 37.0337 0C31.7649 0 27.4712 4.28621 27.4712 9.54572C27.4712 12.3346 28.6712 14.8427 30.5837 16.5833C30.3212 16.6863 30.0587 16.7892 29.8056 16.9015C28.6337 17.4163 27.5274 18.0526 26.5056 18.792C25.0899 15.2825 21.6493 12.8025 17.6274 12.8025C12.3587 12.8025 8.06493 17.0887 8.06493 22.3482C8.06493 25.1277 9.25556 27.6264 11.1587 29.3765C6.07743 31.2763 1.95243 35.366 0.27431 40.5693C-0.278816 42.3006 0.0118095 44.1256 1.08056 45.5948C2.14931 47.0641 3.80868 47.9064 5.62743 47.9064H21.9399C22.9712 47.9064 23.8149 47.0641 23.8149 46.0347C23.8149 45.0053 22.9712 44.163 21.9399 44.163H5.62743C5.01806 44.163 4.46493 43.8822 4.10868 43.3956C3.75243 42.9089 3.65868 42.3006 3.84618 41.7204C5.70243 35.9649 11.3462 31.9501 17.5899 31.9501C20.4962 31.9501 23.2806 32.8204 25.6524 34.4769C26.5056 35.0665 27.6681 34.8606 28.2587 34.009C28.8493 33.1667 28.6431 31.9969 27.7993 31.4073ZM37.0337 3.74342C40.2399 3.74342 42.8462 6.3451 42.8462 9.54572C42.8462 12.7463 40.2399 15.348 37.0337 15.348C33.8274 15.348 31.2212 12.7463 31.2212 9.54572C31.2212 6.3451 33.8274 3.74342 37.0337 3.74342ZM17.6274 16.5553C20.8337 16.5553 23.4399 19.1569 23.4399 22.3576C23.4399 25.5582 20.8337 28.1599 17.6274 28.1599C14.4212 28.1599 11.8149 25.5582 11.8149 22.3576C11.8149 19.1569 14.4306 16.5553 17.6274 16.5553ZM48.0024 39.0158C48.0024 40.0452 47.1587 40.8875 46.1274 40.8875H40.9712V46.0347C40.9712 47.0641 40.1274 47.9064 39.0962 47.9064C38.0649 47.9064 37.2212 47.0641 37.2212 46.0347V40.8875H32.0649C31.0337 40.8875 30.1899 40.0452 30.1899 39.0158C30.1899 37.9863 31.0337 37.1441 32.0649 37.1441H37.2212V31.9969C37.2212 30.9674 38.0649 30.1252 39.0962 30.1252C40.1274 30.1252 40.9712 30.9674 40.9712 31.9969V37.1441H46.1274C47.1587 37.1441 48.0024 37.9863 48.0024 39.0158Z" fill="#5D6174"/>
<path d="M48.0024 39.1094C48.0024 40.1388 47.1587 40.9811 46.1274 40.9811H40.9712V46.1283C40.9712 47.1577 40.1274 48 39.0962 48C38.0649 48 37.2212 47.1577 37.2212 46.1283V40.9811H32.0649C31.0337 40.9811 30.1899 40.1388 30.1899 39.1094C30.1899 38.0799 31.0337 37.2377 32.0649 37.2377H37.2212V32.0905C37.2212 31.061 38.0649 30.2188 39.0962 30.2188C40.1274 30.2188 40.9712 31.061 40.9712 32.0905V37.2377H46.1274C47.1587 37.2377 48.0024 38.0799 48.0024 39.1094Z" fill="#FF4D61"/>
</svg>
