<svg width="70" height="70" viewBox="0 0 70 70" fill="none" xmlns="http://www.w3.org/2000/svg">
<path d="M67.8125 26.25V67.8125H2.1875V26.25L35 53.5938L67.8125 26.25Z" fill="#F3D4B7"/>
<path d="M54.6875 2.1875V37.1875L35 53.5938L15.3125 37.1875V2.1875H54.6875Z" fill="#CECCCC"/>
<path d="M54.6875 2.1875V28.4375L35 44.8438L15.3125 28.4375V2.1875H54.6875Z" fill="#E2E0E0"/>
<path d="M46.4082 19.4633C46.4082 21.402 45.6672 23.1479 44.5639 24.6736C41.3346 29.1375 34.999 31.7188 34.999 31.7188C34.999 31.7188 23.5898 27.0703 23.5898 19.4633C23.5898 16.8369 25.2182 14.5824 27.5383 13.6213C28.3094 13.3014 29.157 13.125 30.0471 13.125C32.0363 13.125 33.8137 14.0068 34.999 15.3945C36.1844 14.0068 37.9617 13.125 39.951 13.125C43.518 13.125 46.4082 15.9633 46.4082 19.4633Z" fill="#F79CAF"/>
<path d="M67.8125 60.1562V67.8125H2.1875V26.25L9.84375 32.6307V54.6875C9.84375 57.7078 12.2922 60.1562 15.3125 60.1562H67.8125Z" fill="#E1C3A7"/>
<path d="M67.8125 26.25L54.6875 37.1875V15.3125L67.8125 26.25Z" fill="#E1C3A7"/>
<path d="M15.3125 15.3125V37.1875L2.1875 26.25L15.3125 15.3125Z" fill="#E1C3A7"/>
<path d="M41.9225 27.4779C38.7273 30.2 34.999 31.7189 34.999 31.7189C34.999 31.7189 23.5898 27.0705 23.5898 19.4635C23.5898 16.8371 25.2182 14.5826 27.5383 13.6215C28.0865 13.3945 28.6744 13.2387 29.2883 13.1689C28.7934 14.0658 28.5117 15.0926 28.5117 16.1822C28.5117 23.7893 39.9209 28.4377 39.9209 28.4377C39.9209 28.4377 40.7316 28.1068 41.9225 27.4779Z" fill="#E3889B"/>
<path d="M70 26.2613C70 25.6982 69.7912 25.1552 69.3924 24.7383C69.2621 24.6021 70.1345 25.3375 56.875 14.2881V2.1875C56.875 0.979453 55.8957 0 54.6875 0H15.3125C14.1043 0 13.125 0.979453 13.125 2.1875V14.2879C-0.253066 25.4364 0.698359 24.6184 0.49916 24.8608C0.182109 25.2446 0 25.7324 0 26.262V67.8125C0 69.0205 0.979316 70 2.1875 70H67.8125C69.0207 70 70 69.0205 70 67.8125C70 65.4371 70 28.7678 70 26.2613ZM64.3955 26.25L56.875 32.5171V19.9829L64.3955 26.25ZM52.5 4.375V36.1629L35 50.7463L17.5 36.1629C17.5 32.9308 17.5 8.36199 17.5 4.375H52.5ZM13.125 32.5171L5.60451 26.25L13.125 19.9829V32.5171ZM65.625 65.625H4.375V30.9204C46.8031 66.2773 -12.0184 17.2594 33.5996 55.2743C34.4109 55.9502 35.5893 55.9502 36.4004 55.2743C40.6474 51.7351 57.4488 37.7338 65.625 30.9204V65.625Z" fill="black"/>
<path d="M34.1742 33.7444C34.7032 33.9598 35.2957 33.96 35.8249 33.7444C36.3464 33.5319 48.5968 28.4378 48.5968 19.4635C48.5968 12.5461 40.6698 8.56144 34.9996 12.473C29.3277 8.56035 21.4023 12.5476 21.4023 19.4635C21.4023 28.4378 33.6526 33.532 34.1742 33.7444ZM33.3361 16.8149C34.2089 17.8367 35.7901 17.8369 36.663 16.8149C39.2104 13.8322 44.2218 15.5877 44.2218 19.4637C44.2218 24.0358 38.1783 27.8285 34.9997 29.3272C31.8187 27.8273 25.7773 24.035 25.7773 19.4637C25.7773 15.5869 30.7892 13.8326 33.3361 16.8149Z" fill="black"/>
</svg>
