<svg width="80" height="80" viewBox="0 0 80 80" fill="none" xmlns="http://www.w3.org/2000/svg">
<g clip-path="url(#clip0)">
<path d="M79.347 31.5288L64.6497 16.261V6.12472C64.6497 2.83285 61.9716 0.154724 58.6797 0.154724H21.3203C18.0284 0.154724 15.3503 2.83285 15.3503 6.12472V16.2319L0.652969 31.5288C0.377344 31.8152 0 32.2868 0 33.1519V73.3938C0 76.9922 2.26562 79.8454 6.4225 79.8454H73.5777C77.4394 79.8454 80.0002 77.9297 80.0002 73.3938V33.1519C80 32.4332 79.6966 31.8783 79.347 31.5288ZM64.6497 22.9866L74.0767 32.8074L64.6497 39.4522V22.9866ZM20.0378 6.12472C20.0378 5.41754 20.6131 4.84222 21.3203 4.84222H58.6797C59.3869 4.84222 59.9622 5.41754 59.9622 6.12472V42.756L40.0017 56.8254L20.0378 42.7172V6.12472ZM15.3503 22.9868V39.4522L5.92328 32.8074L15.3503 22.9868ZM4.6875 70.8643V37.6713L23.5564 50.9711L4.6875 70.8643ZM7.07562 75.1579L27.4284 53.7004L38.6241 61.5918C39.4402 62.1355 40.5598 62.1485 41.3503 61.6099L52.5995 53.6808L72.9708 75.1579H7.07562ZM75.3125 70.8153L56.4714 50.9516L75.3125 37.6713V70.8153Z" fill="#2F344C"/>
<path d="M40.2952 29.8236C40.6521 29.4042 40.8331 28.875 40.8331 28.2502C40.8331 27.6489 40.6526 27.1203 40.2963 26.6788C39.9362 26.233 39.5121 26.0071 39.0363 26.0071H35.6773V22.4808C35.6773 21.9836 35.4512 21.5403 35.0051 21.1635C34.5624 20.79 34.0034 20.6006 33.3435 20.6006C32.7079 20.6006 32.1493 20.7896 31.6835 21.1621C31.2126 21.5389 30.974 21.9827 30.974 22.4806V26.0069H27.5791C27.0538 26.0069 26.623 26.2281 26.2991 26.6642C25.9801 27.0931 25.8184 27.6266 25.8184 28.2499C25.8184 28.8966 25.9805 29.4308 26.3004 29.8377C26.6241 30.2503 27.0545 30.4594 27.5793 30.4594H30.9741V34.0231C30.9741 34.5727 31.2077 35.0233 31.6682 35.3625C32.1207 35.6964 32.6845 35.8656 33.3437 35.8656C34.0271 35.8656 34.5913 35.696 35.0207 35.3613C35.4563 35.0214 35.6773 34.5711 35.6773 34.0231V30.4594H39.0363C39.5117 30.4597 39.9352 30.2456 40.2952 29.8236Z" fill="#2F344C"/>
<path d="M42.1155 17.7853C42.4407 17.7853 42.7565 17.6844 43.0518 17.4872L43.9709 16.9167V35.0001C43.9709 35.5778 44.2616 36.0286 44.8349 36.3398C45.3919 36.6429 46.0673 36.7968 46.8416 36.7968C47.6154 36.7968 48.2904 36.6431 48.848 36.3398C49.4216 36.0283 49.7124 35.5775 49.7124 35.0001V12.2294C49.7124 11.7029 49.4415 11.2592 48.9071 10.9108C48.3826 10.5697 47.796 10.3969 47.1638 10.3969C46.7215 10.3969 46.358 10.4853 46.0852 10.6589L41.3601 13.5225C40.6455 13.9417 40.2832 14.6026 40.2832 15.4875C40.2832 16.0758 40.457 16.6094 40.7998 17.0733C41.1474 17.5458 41.5901 17.7853 42.1155 17.7853Z" fill="#2F344C"/>
</g>
<defs>
<clipPath id="clip0">
<rect width="80" height="80" fill="white"/>
</clipPath>
</defs>
</svg>
