<svg width="80" height="80" viewBox="0 0 80 80" fill="none" xmlns="http://www.w3.org/2000/svg">
<path d="M61.5385 9.23077H18.4616C17.6119 9.23077 16.9231 9.91954 16.9231 10.7692V46.1538C16.9231 47.0034 17.6119 47.6923 18.4616 47.6923H61.5385C62.388 47.6923 63.0769 47.0034 63.0769 46.1538V10.7692C63.0769 9.91954 62.388 9.23077 61.5385 9.23077ZM60 44.6154H20V12.3077H60V44.6154Z" fill="#2F344C"/>
<path d="M76.7607 67.0042L69.2308 51.9445V4.6153C69.2308 3.76561 68.5419 3.07684 67.6923 3.07684H12.3077C11.458 3.07684 10.7693 3.76561 10.7693 4.6153V51.9447C2.73219 68.0225 3.21726 67.0327 3.16219 67.1912C3.13173 67.2792 3.10142 67.3968 3.0868 67.5224C3.06788 67.6955 3.0808 67.2255 3.07696 75.3845C3.07696 76.2341 3.76573 76.923 4.61542 76.923H75.3847C76.2342 76.923 76.9231 76.2341 76.9231 75.3845V67.6922C76.9231 67.4684 76.8653 67.2135 76.7607 67.0042ZM13.2586 53.8461H66.7417L72.8956 66.1538H7.1048L13.2586 53.8461ZM13.8462 6.15377H66.1539V50.7692H13.8462V6.15377ZM6.15388 73.8461V69.2307H73.8462V73.8461H6.15388Z" fill="#2F344C"/>
<path d="M20 61.5384H40C40.8495 61.5384 41.5385 60.8495 41.5385 59.9999C41.5385 59.1504 40.8495 58.4615 40 58.4615H20C19.1503 58.4615 18.4615 59.1504 18.4615 59.9999C18.4615 60.8495 19.1505 61.5384 20 61.5384Z" fill="#2F344C"/>
<path d="M49.2308 61.5384H56.9231C57.7727 61.5384 58.4616 60.8495 58.4616 59.9999C58.4616 59.1504 57.7727 58.4615 56.9231 58.4615H49.2308C48.3813 58.4615 47.6924 59.1504 47.6924 59.9999C47.6924 60.8495 48.3813 61.5384 49.2308 61.5384Z" fill="#2F344C"/>
<path d="M27.6924 38.4614H30.7693V41.5383H27.6924V38.4614Z" fill="#2F344C"/>
<path d="M35.3846 38.4614H38.4616V41.5383H35.3846V38.4614Z" fill="#2F344C"/>
<path d="M43.077 38.4614H46.1539V41.5383H43.077V38.4614Z" fill="#2F344C"/>
<path d="M50.7692 38.4614H53.8461V41.5383H50.7692V38.4614Z" fill="#2F344C"/>
<path d="M30.0841 27.4337L32.3076 25.9514V32.3075C32.3076 33.1572 32.9964 33.846 33.8461 33.846H46.1538C47.0033 33.846 47.6922 33.1572 47.6922 32.3075V25.9514L49.9158 27.4337C50.6196 27.9029 51.5759 27.717 52.0492 27.007C52.5204 26.3001 52.3295 25.3449 51.6226 24.8737L47.0432 21.8207L40.923 17.2306C40.3761 16.8203 39.6239 16.8203 39.0769 17.2306L32.9561 21.8212L28.3775 24.8737C27.6705 25.3449 27.4795 26.3001 27.9509 27.007C28.4233 27.716 29.3792 27.9038 30.0841 27.4337ZM39.9999 20.3844L44.6153 23.846V30.769H35.3845V23.846L39.9999 20.3844Z" fill="#2F344C"/>
</svg>
