<svg width="40" height="40" viewBox="0 0 40 40" fill="none" xmlns="http://www.w3.org/2000/svg">
<g clip-path="url(#clip0)">
<path d="M24.6875 0.78125H7.5C6.63666 0.78125 5.9375 1.48041 5.9375 2.34375V37.6562C5.9375 38.5196 6.63666 39.2188 7.5 39.2188H32.5C33.3633 39.2188 34.0625 38.5196 34.0625 37.6562V10.1562L24.6875 0.78125Z" fill="white"/>
<path d="M34.0625 10.1562H24.6875V0.78125L34.0625 10.1562Z" fill="#D4FFF0"/>
<path d="M10.625 6.25C11.0562 6.25 11.4062 5.89996 11.4062 5.46875C11.4062 5.03754 11.0562 4.6875 10.625 4.6875C10.1938 4.6875 9.84375 5.03754 9.84375 5.46875C9.84375 5.89996 10.1938 6.25 10.625 6.25Z" fill="#1ACA8E"/>
<path d="M10.625 10.9375C11.0562 10.9375 11.4062 10.5875 11.4062 10.1562C11.4062 9.72504 11.0562 9.375 10.625 9.375C10.1938 9.375 9.84375 9.72504 9.84375 10.1562C9.84375 10.5875 10.1938 10.9375 10.625 10.9375Z" fill="#1ACA8E"/>
<path d="M7.5 40H32.5C33.7924 40 34.8438 38.9487 34.8438 37.6562V10.1562C34.8438 9.94385 34.7556 9.74426 34.6149 9.60388L25.2399 0.228882C25.0998 0.0888062 24.9002 0 24.6875 0H7.5C6.20758 0 5.15625 1.05133 5.15625 2.34375V37.6562C5.15625 38.9487 6.20758 40 7.5 40ZM25.4688 2.66754L32.1765 9.375H25.4688V2.66754ZM6.71875 2.34375C6.71875 1.91284 7.06909 1.5625 7.5 1.5625H23.9062V10.1562C23.9062 10.5878 24.256 10.9375 24.6875 10.9375H33.2812V37.6562C33.2812 38.0872 32.9309 38.4375 32.5 38.4375H7.5C7.06909 38.4375 6.71875 38.0872 6.71875 37.6562V2.34375Z" fill="#1ACA8E"/>
<path d="M10.625 16.0938H29.375C29.8065 16.0938 30.1562 15.744 30.1562 15.3125C30.1562 14.881 29.8065 14.5312 29.375 14.5312H10.625C10.1935 14.5312 9.84375 14.881 9.84375 15.3125C9.84375 15.744 10.1935 16.0938 10.625 16.0938Z" fill="#1ACA8E"/>
<path d="M10.625 20.7812H29.375C29.8065 20.7812 30.1562 20.4315 30.1562 20C30.1562 19.5685 29.8065 19.2188 29.375 19.2188H10.625C10.1935 19.2188 9.84375 19.5685 9.84375 20C9.84375 20.4315 10.1935 20.7812 10.625 20.7812Z" fill="#1ACA8E"/>
<path d="M13.75 6.25H20C20.4315 6.25 20.7812 5.90027 20.7812 5.46875C20.7812 5.03723 20.4315 4.6875 20 4.6875H13.75C13.3185 4.6875 12.9688 5.03723 12.9688 5.46875C12.9688 5.90027 13.3185 6.25 13.75 6.25Z" fill="#1ACA8E"/>
<path d="M13.75 10.9375H20C20.4315 10.9375 20.7812 10.5878 20.7812 10.1562C20.7812 9.72473 20.4315 9.375 20 9.375H13.75C13.3185 9.375 12.9688 9.72473 12.9688 10.1562C12.9688 10.5878 13.3185 10.9375 13.75 10.9375Z" fill="#1ACA8E"/>
<path d="M27.8116 28.5938C27.3807 28.5938 27.0304 28.2434 27.0304 27.8125C27.0304 27.3816 27.3807 27.0312 27.8116 27.0312C28.0884 27.0312 28.3805 27.1725 28.6567 27.4396C28.9667 27.7396 29.4611 27.7313 29.7614 27.4216C30.0614 27.1115 30.0532 26.6168 29.7431 26.3168C29.3467 25.9329 28.95 25.7159 28.5929 25.5975V24.6875C28.5929 24.256 28.2432 23.9062 27.8116 23.9062C27.3801 23.9062 27.0304 24.256 27.0304 24.6875V25.603C26.121 25.9256 25.4679 26.7941 25.4679 27.8125C25.4679 29.1049 26.5192 30.1562 27.8116 30.1562C28.2426 30.1562 28.5929 30.5066 28.5929 30.9375C28.5929 31.3684 28.2426 31.7188 27.8116 31.7188C27.4778 31.7188 27.1177 31.5088 26.7972 31.1276C26.5195 30.7974 26.0267 30.7547 25.6965 31.0324C25.3663 31.3101 25.3235 31.803 25.6013 32.1332C26.0187 32.63 26.5101 32.9761 27.0304 33.1506V34.0625C27.0304 34.494 27.3801 34.8438 27.8116 34.8438C28.2432 34.8438 28.5929 34.494 28.5929 34.0625V33.147C29.5023 32.8244 30.1554 31.9559 30.1554 30.9375C30.1554 29.6451 29.1041 28.5938 27.8116 28.5938Z" fill="#1ACA8E"/>
<path d="M10.625 25.4688H21.5625C21.994 25.4688 22.3438 25.119 22.3438 24.6875C22.3438 24.256 21.994 23.9062 21.5625 23.9062H10.625C10.1935 23.9062 9.84375 24.256 9.84375 24.6875C9.84375 25.119 10.1935 25.4688 10.625 25.4688Z" fill="#1ACA8E"/>
<path d="M10.625 30.1562H21.5625C21.994 30.1562 22.3438 29.8065 22.3438 29.375C22.3438 28.9435 21.994 28.5938 21.5625 28.5938H10.625C10.1935 28.5938 9.84375 28.9435 9.84375 29.375C9.84375 29.8065 10.1935 30.1562 10.625 30.1562Z" fill="#1ACA8E"/>
<path d="M10.625 34.8438H21.5625C21.994 34.8438 22.3438 34.494 22.3438 34.0625C22.3438 33.631 21.994 33.2812 21.5625 33.2812H10.625C10.1935 33.2812 9.84375 33.631 9.84375 34.0625C9.84375 34.494 10.1935 34.8438 10.625 34.8438Z" fill="#1ACA8E"/>
</g>
<defs>
<clipPath id="clip0">
<rect width="40" height="40" fill="white"/>
</clipPath>
</defs>
</svg>
