<svg width="42" height="41" viewBox="0 0 42 41" fill="none" xmlns="http://www.w3.org/2000/svg">
<path d="M42 5.50393C42 4.39986 41.505 3.35297 40.6491 2.64704L37.5 0.0495737V12.2982L23.3479 0.837455C21.9787 -0.271379 20.0143 -0.279963 18.6353 0.816862L1.82334 14.1885C0.670712 15.1052 0 16.4914 0 17.9569V38.7664C0 40.6481 2.20529 41.6834 3.67248 40.4906L19.2173 27.852C20.3458 26.9345 21 25.5636 21 24.1163V20.8351L4.5 34.0399V30.2371C4.5 29.3525 4.89724 28.5138 5.58374 27.9491L19.2389 16.7162C20.3545 15.7985 21 14.4357 21 12.9982V9.69999L4.5 23.0904V19.3159C4.5 18.4181 4.90906 17.5685 5.61297 17.0041L20.292 5.23555C20.7048 4.90462 21.2947 4.90524 21.7068 5.23704L38.3358 18.6269C39.8048 19.8098 42 18.7729 42 16.8961V5.50393Z" fill="#FA4B5F"/>
</svg>
