<svg width="80" height="80" viewBox="0 0 80 80" fill="none" xmlns="http://www.w3.org/2000/svg">
<path d="M21.3613 1.1748H58.6369L52.3398 15.6451H27.6587L21.3613 1.1748Z" fill="#DFEAEF"/>
<path d="M21.3613 1.1748L27.6587 15.6451H32.2776L25.434 1.1748H21.3613Z" fill="#5D6174"/>
<path d="M58.6368 1.1748L52.3396 15.6451H47.7207L54.5641 1.1748H58.6368Z" fill="#5D6174"/>
<path d="M39.9998 78.8251C49.9883 78.8251 58.0856 70.7278 58.0856 60.7393C58.0856 50.7508 49.9883 42.6536 39.9998 42.6536C30.0113 42.6536 21.9141 50.7508 21.9141 60.7393C21.9141 70.7278 30.0113 78.8251 39.9998 78.8251Z" fill="white"/>
<path d="M39.9988 42.6541C39.3641 42.6541 38.7371 42.6872 38.1191 42.7509C47.2241 43.6912 54.3249 51.3859 54.3249 60.7397C54.3249 70.0934 47.224 77.7881 38.1191 78.7284C38.7371 78.7922 39.3641 78.8253 39.9988 78.8253C49.9873 78.8253 58.0843 70.7281 58.0843 60.7398C58.0843 50.7516 49.9873 42.6541 39.9988 42.6541Z" fill="#DFEAEF"/>
<path d="M39.4171 42.6645L21.3616 1.1748L10.0449 14.8692L26.3552 48.869C29.5521 45.1975 34.2065 42.8293 39.4171 42.6645Z" fill="white"/>
<path d="M35.5254 43.2142C36.7762 42.8957 38.0787 42.7068 39.4184 42.6643L21.3627 1.1748L18.7871 4.29168L35.5254 43.2142Z" fill="#DFEAEF"/>
<path d="M40.0002 74.1008C47.3796 74.1008 53.3618 68.1186 53.3618 60.7393C53.3618 53.3599 47.3796 47.3777 40.0002 47.3777C32.6208 47.3777 26.6387 53.3599 26.6387 60.7393C26.6387 68.1186 32.6208 74.1008 40.0002 74.1008Z" fill="#DFEAEF"/>
<path d="M39.3363 53.6093L37.5838 57.1604C37.476 57.3787 37.2681 57.5298 37.0273 57.5646L33.1084 58.134C32.502 58.222 32.2599 58.9671 32.6987 59.3948L35.5343 62.1588C35.7085 62.3287 35.7881 62.5734 35.7468 62.813L35.0773 66.716C34.9737 67.3199 35.6074 67.7804 36.1498 67.4952L39.6549 65.6526C39.8702 65.5393 40.1276 65.5393 40.3429 65.6526L43.8481 67.4952C44.3904 67.7804 45.0242 67.3198 44.9206 66.716L44.251 62.813C44.2098 62.5732 44.2895 62.3285 44.4635 62.1588L47.2992 59.3948C47.7379 58.9671 47.4957 58.222 46.8895 58.134L42.9706 57.5646C42.7298 57.5296 42.5216 57.3784 42.414 57.1604L40.6615 53.6093C40.3909 53.0599 39.6074 53.0599 39.3363 53.6093Z" fill="#FA4B5F"/>
<path d="M40.582 42.6645L58.6377 1.1748L69.9544 14.8692L53.6441 48.869C50.4472 45.1975 45.7928 42.8293 40.582 42.6645Z" fill="white"/>
<path d="M67.1037 11.4194L50.9121 46.3177C51.9084 47.0726 52.8246 47.9277 53.6445 48.8691L69.9545 14.8693L67.1037 11.4194Z" fill="#DFEAEF"/>
<path d="M34.5514 62.8406L33.9209 66.5179C33.7969 67.2414 34.0886 67.9586 34.6823 68.39C35.0178 68.6337 35.4102 68.7575 35.8055 68.7575C36.1095 68.7575 36.4155 68.6842 36.6978 68.5356L40.0003 66.7995L43.3027 68.5356C43.952 68.877 44.7245 68.8215 45.3183 68.39C45.912 67.9586 46.2038 67.2414 46.0797 66.5179L45.4491 62.8404L48.1209 60.2362C48.6463 59.724 48.8319 58.9723 48.6053 58.2743C48.3784 57.5764 47.7864 57.0772 47.0602 56.9717L43.368 56.4351L41.7169 53.0895C41.3922 52.4312 40.7345 52.0225 40.0006 52.0225C39.2666 52.0225 38.6091 52.4314 38.2844 53.0895L36.6333 56.4351L32.9411 56.9717C32.2147 57.0772 31.6227 57.5764 31.3959 58.2743C31.1691 58.9723 31.3547 59.7242 31.8803 60.2364L34.5514 62.8406ZM37.197 58.7275C37.8206 58.637 38.3597 58.2454 38.6384 57.6804L40.0003 54.9209L41.3622 57.6804C41.6409 58.2454 42.18 58.6368 42.8034 58.7275L45.8486 59.17L43.6452 61.3179C43.1939 61.7576 42.9883 62.3911 43.0947 63.012L43.6147 66.0453L40.8906 64.6131C40.6119 64.4665 40.3061 64.3932 40 64.3932C39.6942 64.3932 39.3881 64.4665 39.1092 64.6131L36.3853 66.0451L36.9053 63.0122C37.012 62.3911 36.8061 61.7576 36.3548 61.3179L34.1512 59.17L37.197 58.7275Z" fill="#5D6174"/>
<path d="M40.0002 46.2041C37.4459 46.2041 34.9334 46.8763 32.7342 48.1479C32.1725 48.4725 31.9803 49.1913 32.3052 49.753C32.63 50.3147 33.3492 50.5066 33.9103 50.1819C35.7525 49.1168 37.8584 48.5536 40.0002 48.5536C46.7194 48.5536 52.1861 54.02 52.1861 60.7394C52.1861 67.4589 46.7197 72.9254 40.0002 72.9254C33.2806 72.9254 27.8142 67.4589 27.8142 60.7394C27.8142 57.9054 28.8086 55.1452 30.6139 52.9674C31.0281 52.4679 30.9589 51.7272 30.4595 51.3133C29.9598 50.8993 29.2191 50.9683 28.8053 51.4679C26.6511 54.0663 25.4648 57.3589 25.4648 60.7394C25.4648 68.7544 31.9855 75.275 40.0005 75.275C48.0155 75.275 54.5361 68.7546 54.5361 60.7394C54.5358 52.7247 48.015 46.2041 40.0002 46.2041Z" fill="#5D6174"/>
<path d="M70.8607 14.1208L59.544 0.426563C59.5438 0.426406 59.5437 0.42625 59.5435 0.426094C59.5113 0.387188 59.4769 0.350781 59.4405 0.316719C59.4309 0.307656 59.4201 0.300313 59.4101 0.291563C59.3827 0.267656 59.3554 0.24375 59.326 0.222656C59.3104 0.211406 59.2934 0.202188 59.2773 0.191875C59.2521 0.175625 59.2273 0.158437 59.201 0.144062C59.183 0.134219 59.1638 0.126719 59.1452 0.117813C59.1195 0.105469 59.0941 0.0923438 59.0674 0.0817188C59.0471 0.07375 59.0257 0.068125 59.0051 0.0614063C58.9793 0.0529688 58.9537 0.0434375 58.9273 0.0367187C58.9041 0.0307813 58.8801 0.0276563 58.8566 0.023125C58.8318 0.0184375 58.8071 0.0126563 58.7819 0.00953125C58.756 0.00640625 58.7294 0.0059375 58.7032 0.00453125C58.6815 0.00296875 58.6602 0 58.6382 0H21.3627C21.3409 0 21.3191 0.00296875 21.2974 0.0040625C21.2715 0.00546875 21.2452 0.00578125 21.2195 0.0090625C21.1934 0.0123437 21.1679 0.0182813 21.1423 0.023125C21.1196 0.0275 21.0966 0.0304687 21.0743 0.03625C21.0465 0.0432812 21.0195 0.053125 20.9923 0.0621875C20.9729 0.0685938 20.953 0.07375 20.9341 0.0810937C20.9059 0.0921875 20.8787 0.106094 20.8513 0.119531C20.8346 0.127656 20.817 0.134375 20.8007 0.143437C20.7727 0.15875 20.7462 0.176875 20.7195 0.194375C20.7051 0.203906 20.6898 0.212031 20.6755 0.222188C20.6452 0.244063 20.6166 0.268906 20.5885 0.293594C20.5796 0.301406 20.5698 0.308125 20.561 0.31625C20.5245 0.350312 20.4901 0.386875 20.4579 0.425625C20.4577 0.425781 20.4576 0.425937 20.4574 0.426094L9.14039 14.1209C8.84852 14.4741 8.78852 14.9644 8.9868 15.3773L14.2277 26.3023C14.5082 26.8873 15.2104 27.1339 15.7951 26.8534C16.3799 26.5727 16.6266 25.8711 16.346 25.2861L11.4302 15.0386L21.049 3.39859L37.6823 41.6195C34.809 41.9659 32.1287 42.9472 29.7859 44.4189C29.7568 44.4372 29.7273 44.4553 29.6982 44.4737C29.5265 44.583 29.3568 44.6945 29.1888 44.8086C29.1012 44.868 29.0145 44.9289 28.9279 44.9897C28.8655 45.0336 28.8038 45.0781 28.7421 45.1228C28.0195 45.6427 27.329 46.2105 26.6812 46.8297L18.433 29.6359C18.1526 29.0509 17.4505 28.8045 16.8657 29.0848C16.2809 29.3655 16.034 30.0672 16.3146 30.6522L24.9749 48.7052C22.3273 52.0045 20.7404 56.1898 20.7404 60.7397C20.7404 71.3598 29.3805 80 40.0007 80C50.6209 80 59.261 71.3598 59.261 60.7397C59.261 56.19 57.6743 52.0044 55.0263 48.7052L66.5234 24.7392C66.804 24.1542 66.5574 23.4523 65.9723 23.1719C65.3871 22.8913 64.6854 23.138 64.4049 23.723L53.3201 46.8297C52.6745 46.2125 51.9863 45.6464 51.2665 45.1281C51.201 45.0808 51.1355 45.0334 51.0695 44.987C50.9849 44.9277 50.9002 44.8683 50.8148 44.8103C50.6452 44.6948 50.474 44.5822 50.3005 44.4723C50.2734 44.4552 50.2459 44.4381 50.2187 44.4211C47.8749 42.9483 45.1937 41.9662 42.319 41.6197L58.9518 3.39844L68.5707 15.0384L66.431 19.4989C66.1502 20.0839 66.397 20.7858 66.9821 21.0663C67.5673 21.3469 68.269 21.1002 68.5495 20.5152L71.0141 15.3773C71.2126 14.9644 71.1526 14.4741 70.8607 14.1208ZM56.7832 2.34969L51.051 14.4703H28.9501L23.2177 2.34969H56.7832V2.34969ZM50.5487 16.8198L40.0005 41.0586L29.4523 16.8198C29.4523 16.8198 50.5487 16.8198 50.5487 16.8198ZM40.0005 77.6503C30.676 77.6503 23.0898 70.0642 23.0898 60.7395C23.0898 54.7706 26.1982 49.5144 30.8813 46.5041C33.4284 44.8748 36.3927 43.9355 39.4554 43.8384H39.4555C39.6366 43.8327 39.8182 43.8287 40.0007 43.8287C40.1832 43.8287 40.3648 43.8327 40.5459 43.8384H40.546C43.6096 43.9355 46.5751 44.8755 49.1227 46.5056C53.8043 49.5162 56.9116 54.7717 56.9116 60.7395C56.9113 70.0642 49.3251 77.6503 40.0005 77.6503Z" fill="#5D6174"/>
</svg>
