<svg width="19" height="19" viewBox="0 0 19 19" fill="none" xmlns="http://www.w3.org/2000/svg">
<path id="messages" fill-rule="evenodd" clip-rule="evenodd" d="M19 3C19 1.34315 17.6569 0 16 0H3C1.34315 0 0 1.34315 0 3V19L3.5625 15.4375H16C17.6569 15.4375 19 14.0944 19 12.4375V3ZM4.48435 7.15494H4.48436H4.48437C4.66885 7.14085 4.87672 7.12497 5.14583 7.12497C5.07986 7.12497 5.36024 7.24042 5.9375 7.12497C5.86486 7.48816 5.88363 7.73383 5.90753 8.04682V8.04683C5.92162 8.23132 5.9375 8.43919 5.9375 8.7083C5.9375 8.64233 5.82205 8.92271 5.9375 9.49997C5.36024 9.38452 5.07986 9.49997 5.14583 9.49997C4.87672 9.49997 4.66884 9.48409 4.48435 9.47C4.17136 9.4461 3.92569 9.42733 3.5625 9.49997C3.67795 8.92271 3.5625 8.64233 3.5625 8.7083C3.5625 8.43919 3.57838 8.23131 3.59247 8.04682C3.61637 7.73383 3.63514 7.48816 3.5625 7.12497C3.92569 7.19761 4.17136 7.17884 4.48435 7.15494ZM9.89583 7.12497C9.62672 7.12497 9.41884 7.14085 9.23435 7.15494C8.92136 7.17884 8.67569 7.19761 8.3125 7.12497C8.38514 7.48816 8.36637 7.73383 8.34247 8.04682C8.32838 8.23131 8.3125 8.43919 8.3125 8.7083C8.3125 8.64233 8.42795 8.92271 8.3125 9.49997C8.67569 9.42733 8.92136 9.4461 9.23435 9.47C9.41884 9.48409 9.62672 9.49997 9.89583 9.49997C9.82986 9.49997 10.1102 9.38452 10.6875 9.49997C10.5721 8.92271 10.6875 8.64233 10.6875 8.7083C10.6875 8.43919 10.6716 8.23131 10.6575 8.04682C10.6336 7.73383 10.6149 7.48816 10.6875 7.12497C10.1102 7.24042 9.82986 7.12497 9.89583 7.12497ZM13.9844 7.15494C14.1688 7.14085 14.3767 7.12497 14.6458 7.12497C14.5799 7.12497 14.8602 7.24042 15.4375 7.12497C15.3649 7.48816 15.3836 7.73383 15.4075 8.04682C15.4216 8.23131 15.4375 8.43919 15.4375 8.7083C15.4375 8.64233 15.3221 8.92271 15.4375 9.49997C14.8602 9.38452 14.5799 9.49997 14.6458 9.49997C14.3767 9.49997 14.1688 9.48409 13.9844 9.47C13.6714 9.4461 13.4257 9.42733 13.0625 9.49997C13.1779 8.92271 13.0625 8.64233 13.0625 8.7083C13.0625 8.43919 13.0784 8.23131 13.0925 8.04682C13.1164 7.73383 13.1351 7.48816 13.0625 7.12497C13.4257 7.19761 13.6714 7.17884 13.9844 7.15494Z" fill="white"/>
</svg>
