<svg width="250" height="250" viewBox="0 0 250 250" fill="none" xmlns="http://www.w3.org/2000/svg">
<path d="M250 125C250 194.036 194.036 250 125 250C55.9636 250 0 194.036 0 125C0 55.9636 55.9636 0 125 0C194.036 0 250 55.9636 250 125Z" fill="#D1E6FF"/>
<path d="M58.5938 23.4375H191.406V242.188H58.5938V23.4375Z" fill="#E0E0E2"/>
<path d="M89.8438 7.8125H160.156V23.4375H89.8438V7.8125Z" fill="#FA4B5F"/>
<path d="M58.5938 23.4375H191.406V46.875H58.5938V23.4375Z" fill="white"/>
<path d="M113.281 203.125H136.719V242.188H113.281V203.125Z" fill="#D1E6FF"/>
<path d="M113.281 164.062H136.719V187.5H113.281V164.062Z" fill="#D1E6FF"/>
<path d="M74.2188 164.062H97.6562V187.5H74.2188V164.062Z" fill="#D1E6FF"/>
<path d="M152.344 164.062H175.781V187.5H152.344V164.062Z" fill="#D1E6FF"/>
<path d="M74.2188 203.125H97.6562V226.562H74.2188V203.125Z" fill="#D1E6FF"/>
<path d="M152.344 203.125H175.781V226.562H152.344V203.125Z" fill="#D1E6FF"/>
<path d="M113.281 128.906H136.719V152.344H113.281V128.906Z" fill="#D1E6FF"/>
<path d="M74.2188 128.906H97.6562V152.344H74.2188V128.906Z" fill="#D1E6FF"/>
<path d="M152.344 128.906H175.781V152.344H152.344V128.906Z" fill="#D1E6FF"/>
<path d="M113.281 93.75H136.719V117.188H113.281V93.75Z" fill="#D1E6FF"/>
<path d="M74.2188 93.75H97.6562V117.188H74.2188V93.75Z" fill="#D1E6FF"/>
<path d="M152.344 93.75H175.781V117.188H152.344V93.75Z" fill="#D1E6FF"/>
<path d="M113.281 58.5938H136.719V82.0312H113.281V58.5938Z" fill="#D1E6FF"/>
<path d="M74.2188 58.5938H97.6562V82.0312H74.2188V58.5938Z" fill="#D1E6FF"/>
<path d="M152.344 58.5938H175.781V82.0312H152.344V58.5938Z" fill="#D1E6FF"/>
<path d="M27.3438 207.031C38.1306 207.031 46.875 196.538 46.875 183.594C46.875 170.65 38.1306 160.156 27.3438 160.156C16.5569 160.156 7.8125 170.65 7.8125 183.594C7.8125 196.538 16.5569 207.031 27.3438 207.031Z" fill="#1ACA8E"/>
<path d="M15.625 222.656L27.3438 230.469Z" fill="#E0E0E2"/>
<path d="M222.656 207.031C233.443 207.031 242.188 196.538 242.188 183.594C242.188 170.65 233.443 160.156 222.656 160.156C211.869 160.156 203.125 170.65 203.125 183.594C203.125 196.538 211.869 207.031 222.656 207.031Z" fill="#1ACA8E"/>
<path d="M210.938 222.656L222.656 230.469Z" fill="#E0E0E2"/>
<path d="M242.188 238.281H226.562V210.552C237.632 208.374 246.094 197.119 246.094 183.594C246.094 168.516 235.581 156.25 222.656 156.25C209.731 156.25 199.219 168.516 199.219 183.594C199.219 197.119 207.681 208.374 218.75 210.552V223.169L213.105 219.404C212.243 218.829 211.187 218.621 210.171 218.824C209.155 219.027 208.261 219.626 207.686 220.488C207.111 221.351 206.902 222.406 207.105 223.423C207.308 224.439 207.907 225.333 208.77 225.908L218.75 232.559V238.281H195.312V23.4375C195.312 22.4015 194.901 21.4079 194.168 20.6754C193.436 19.9428 192.442 19.5312 191.406 19.5312H164.062V7.8125C164.062 6.7765 163.651 5.78293 162.918 5.05036C162.186 4.3178 161.192 3.90625 160.156 3.90625H89.8438C88.8077 3.90625 87.8142 4.3178 87.0816 5.05036C86.349 5.78293 85.9375 6.7765 85.9375 7.8125V19.5312H58.5938C57.5577 19.5312 56.5642 19.9428 55.8316 20.6754C55.0991 21.4079 54.6875 22.4015 54.6875 23.4375V238.281H31.25V210.552C42.3193 208.374 50.7812 197.119 50.7812 183.594C50.7812 168.516 40.2686 156.25 27.3438 156.25C14.4189 156.25 3.90625 168.516 3.90625 183.594C3.90625 197.119 12.3682 208.374 23.4375 210.552V223.169L17.793 219.404C17.3659 219.12 16.887 218.922 16.3835 218.822C15.88 218.723 15.3618 218.723 14.8585 218.824C14.3552 218.924 13.8767 219.123 13.4502 219.409C13.0238 219.694 12.6577 220.061 12.373 220.488C12.0883 220.915 11.8905 221.394 11.7909 221.898C11.6913 222.401 11.6919 222.919 11.7925 223.423C11.8932 223.926 12.092 224.405 12.3776 224.831C12.6632 225.257 13.03 225.624 13.457 225.908L23.4375 232.559V238.281H7.8125C6.7765 238.281 5.78293 238.693 5.05036 239.425C4.3178 240.158 3.90625 241.151 3.90625 242.188C3.90625 243.224 4.3178 244.217 5.05036 244.95C5.78293 245.682 6.7765 246.094 7.8125 246.094H242.188C243.224 246.094 244.217 245.682 244.95 244.95C245.682 244.217 246.094 243.224 246.094 242.188C246.094 241.151 245.682 240.158 244.95 239.425C244.217 238.693 243.224 238.281 242.188 238.281ZM27.3438 179.688C26.3077 179.688 25.3142 180.099 24.5816 180.832C23.8491 181.564 23.4375 182.558 23.4375 183.594V202.505C16.7041 200.332 11.7188 192.676 11.7188 183.594C11.7188 172.822 18.7256 164.062 27.3438 164.062C35.9619 164.062 42.9688 172.822 42.9688 183.594C42.9688 192.676 37.9834 200.332 31.25 202.505V183.594C31.25 182.558 30.8384 181.564 30.1059 180.832C29.3733 180.099 28.3798 179.688 27.3438 179.688ZM93.75 11.7188H156.25V19.5312H93.75V11.7188ZM121.094 238.281H117.188V207.031H121.094V238.281ZM132.812 238.281H128.906V207.031H132.812V238.281ZM187.5 238.281H140.625V203.125C140.625 202.089 140.213 201.095 139.481 200.363C138.748 199.63 137.755 199.219 136.719 199.219H113.281C112.245 199.219 111.252 199.63 110.519 200.363C109.787 201.095 109.375 202.089 109.375 203.125V238.281H62.5V50.7812H187.5V238.281ZM187.5 42.9688H62.5V27.3438H187.5V42.9688ZM222.656 179.688C221.62 179.688 220.627 180.099 219.894 180.832C219.162 181.564 218.75 182.558 218.75 183.594V202.505C212.017 200.332 207.031 192.676 207.031 183.594C207.031 172.822 214.038 164.062 222.656 164.062C231.274 164.062 238.281 172.822 238.281 183.594C238.281 192.676 233.296 200.332 226.562 202.505V183.594C226.562 182.558 226.151 181.564 225.418 180.832C224.686 180.099 223.692 179.688 222.656 179.688Z" fill="black"/>
<path d="M136.719 160.156H113.281C112.245 160.156 111.252 160.568 110.519 161.3C109.787 162.033 109.375 163.026 109.375 164.062V187.5C109.375 188.536 109.787 189.53 110.519 190.262C111.252 190.995 112.245 191.406 113.281 191.406H136.719C137.755 191.406 138.748 190.995 139.481 190.262C140.213 189.53 140.625 188.536 140.625 187.5V164.062C140.625 163.026 140.213 162.033 139.481 161.3C138.748 160.568 137.755 160.156 136.719 160.156ZM132.812 183.594H117.188V167.969H132.812V183.594Z" fill="black"/>
<path d="M97.6562 160.156H74.2188C73.1827 160.156 72.1892 160.568 71.4566 161.3C70.724 162.033 70.3125 163.026 70.3125 164.062V187.5C70.3125 188.536 70.724 189.53 71.4566 190.262C72.1892 190.995 73.1827 191.406 74.2188 191.406H97.6562C98.6923 191.406 99.6858 190.995 100.418 190.262C101.151 189.53 101.562 188.536 101.562 187.5V164.062C101.562 163.026 101.151 162.033 100.418 161.3C99.6858 160.568 98.6923 160.156 97.6562 160.156ZM93.75 183.594H78.125V167.969H93.75V183.594Z" fill="black"/>
<path d="M175.781 160.156H152.344C151.308 160.156 150.314 160.568 149.582 161.3C148.849 162.033 148.438 163.026 148.438 164.062V187.5C148.438 188.536 148.849 189.53 149.582 190.262C150.314 190.995 151.308 191.406 152.344 191.406H175.781C176.817 191.406 177.811 190.995 178.543 190.262C179.276 189.53 179.688 188.536 179.688 187.5V164.062C179.688 163.026 179.276 162.033 178.543 161.3C177.811 160.568 176.817 160.156 175.781 160.156ZM171.875 183.594H156.25V167.969H171.875V183.594Z" fill="black"/>
<path d="M97.6562 199.219H74.2188C73.1827 199.219 72.1892 199.63 71.4566 200.363C70.724 201.095 70.3125 202.089 70.3125 203.125V226.562C70.3125 227.599 70.724 228.592 71.4566 229.325C72.1892 230.057 73.1827 230.469 74.2188 230.469H97.6562C98.6923 230.469 99.6858 230.057 100.418 229.325C101.151 228.592 101.562 227.599 101.562 226.562V203.125C101.562 202.089 101.151 201.095 100.418 200.363C99.6858 199.63 98.6923 199.219 97.6562 199.219ZM93.75 222.656H78.125V207.031H93.75V222.656Z" fill="black"/>
<path d="M175.781 199.219H152.344C151.308 199.219 150.314 199.63 149.582 200.363C148.849 201.095 148.438 202.089 148.438 203.125V226.562C148.438 227.599 148.849 228.592 149.582 229.325C150.314 230.057 151.308 230.469 152.344 230.469H175.781C176.817 230.469 177.811 230.057 178.543 229.325C179.276 228.592 179.688 227.599 179.688 226.562V203.125C179.688 202.089 179.276 201.095 178.543 200.363C177.811 199.63 176.817 199.219 175.781 199.219ZM171.875 222.656H156.25V207.031H171.875V222.656Z" fill="black"/>
<path d="M136.719 125H113.281C112.245 125 111.252 125.412 110.519 126.144C109.787 126.877 109.375 127.87 109.375 128.906V152.344C109.375 153.38 109.787 154.373 110.519 155.106C111.252 155.838 112.245 156.25 113.281 156.25H136.719C137.755 156.25 138.748 155.838 139.481 155.106C140.213 154.373 140.625 153.38 140.625 152.344V128.906C140.625 127.87 140.213 126.877 139.481 126.144C138.748 125.412 137.755 125 136.719 125V125ZM132.812 148.438H117.188V132.812H132.812V148.438Z" fill="black"/>
<path d="M97.6562 125H74.2188C73.1827 125 72.1892 125.412 71.4566 126.144C70.724 126.877 70.3125 127.87 70.3125 128.906V152.344C70.3125 153.38 70.724 154.373 71.4566 155.106C72.1892 155.838 73.1827 156.25 74.2188 156.25H97.6562C98.6923 156.25 99.6858 155.838 100.418 155.106C101.151 154.373 101.562 153.38 101.562 152.344V128.906C101.562 127.87 101.151 126.877 100.418 126.144C99.6858 125.412 98.6923 125 97.6562 125V125ZM93.75 148.438H78.125V132.812H93.75V148.438Z" fill="black"/>
<path d="M175.781 125H152.344C151.308 125 150.314 125.412 149.582 126.144C148.849 126.877 148.438 127.87 148.438 128.906V152.344C148.438 153.38 148.849 154.373 149.582 155.106C150.314 155.838 151.308 156.25 152.344 156.25H175.781C176.817 156.25 177.811 155.838 178.543 155.106C179.276 154.373 179.688 153.38 179.688 152.344V128.906C179.688 127.87 179.276 126.877 178.543 126.144C177.811 125.412 176.817 125 175.781 125V125ZM171.875 148.438H156.25V132.812H171.875V148.438Z" fill="black"/>
<path d="M136.719 89.8438H113.281C112.245 89.8438 111.252 90.2553 110.519 90.9879C109.787 91.7204 109.375 92.714 109.375 93.75V117.188C109.375 118.224 109.787 119.217 110.519 119.95C111.252 120.682 112.245 121.094 113.281 121.094H136.719C137.755 121.094 138.748 120.682 139.481 119.95C140.213 119.217 140.625 118.224 140.625 117.188V93.75C140.625 92.714 140.213 91.7204 139.481 90.9879C138.748 90.2553 137.755 89.8438 136.719 89.8438ZM132.812 113.281H117.188V97.6562H132.812V113.281Z" fill="black"/>
<path d="M97.6562 89.8438H74.2188C73.1827 89.8438 72.1892 90.2553 71.4566 90.9879C70.724 91.7204 70.3125 92.714 70.3125 93.75V117.188C70.3125 118.224 70.724 119.217 71.4566 119.95C72.1892 120.682 73.1827 121.094 74.2188 121.094H97.6562C98.6923 121.094 99.6858 120.682 100.418 119.95C101.151 119.217 101.562 118.224 101.562 117.188V93.75C101.562 92.714 101.151 91.7204 100.418 90.9879C99.6858 90.2553 98.6923 89.8438 97.6562 89.8438ZM93.75 113.281H78.125V97.6562H93.75V113.281Z" fill="black"/>
<path d="M175.781 89.8438H152.344C151.308 89.8438 150.314 90.2553 149.582 90.9879C148.849 91.7204 148.438 92.714 148.438 93.75V117.188C148.438 118.224 148.849 119.217 149.582 119.95C150.314 120.682 151.308 121.094 152.344 121.094H175.781C176.817 121.094 177.811 120.682 178.543 119.95C179.276 119.217 179.688 118.224 179.688 117.188V93.75C179.688 92.714 179.276 91.7204 178.543 90.9879C177.811 90.2553 176.817 89.8438 175.781 89.8438ZM171.875 113.281H156.25V97.6562H171.875V113.281Z" fill="black"/>
<path d="M136.719 54.6875H113.281C112.245 54.6875 111.252 55.0991 110.519 55.8316C109.787 56.5642 109.375 57.5577 109.375 58.5938V82.0312C109.375 83.0673 109.787 84.0608 110.519 84.7934C111.252 85.526 112.245 85.9375 113.281 85.9375H136.719C137.755 85.9375 138.748 85.526 139.481 84.7934C140.213 84.0608 140.625 83.0673 140.625 82.0312V58.5938C140.625 57.5577 140.213 56.5642 139.481 55.8316C138.748 55.0991 137.755 54.6875 136.719 54.6875ZM132.812 78.125H117.188V62.5H132.812V78.125Z" fill="black"/>
<path d="M97.6562 54.6875H74.2188C73.1827 54.6875 72.1892 55.0991 71.4566 55.8316C70.724 56.5642 70.3125 57.5577 70.3125 58.5938V82.0312C70.3125 83.0673 70.724 84.0608 71.4566 84.7934C72.1892 85.526 73.1827 85.9375 74.2188 85.9375H97.6562C98.6923 85.9375 99.6858 85.526 100.418 84.7934C101.151 84.0608 101.562 83.0673 101.562 82.0312V58.5938C101.562 57.5577 101.151 56.5642 100.418 55.8316C99.6858 55.0991 98.6923 54.6875 97.6562 54.6875ZM93.75 78.125H78.125V62.5H93.75V78.125Z" fill="black"/>
<path d="M175.781 54.6875H152.344C151.308 54.6875 150.314 55.0991 149.582 55.8316C148.849 56.5642 148.438 57.5577 148.438 58.5938V82.0312C148.438 83.0673 148.849 84.0608 149.582 84.7934C150.314 85.526 151.308 85.9375 152.344 85.9375H175.781C176.817 85.9375 177.811 85.526 178.543 84.7934C179.276 84.0608 179.688 83.0673 179.688 82.0312V58.5938C179.688 57.5577 179.276 56.5642 178.543 55.8316C177.811 55.0991 176.817 54.6875 175.781 54.6875ZM171.875 78.125H156.25V62.5H171.875V78.125Z" fill="black"/>
</svg>
