<svg width="80" height="80" viewBox="0 0 80 80" fill="none" xmlns="http://www.w3.org/2000/svg">
<path d="M40.0001 25.9918C40.0001 25.9918 38.061 9.21851 17.459 1.17163V25.9918H40.0001Z" fill="#DFEAEF"/>
<path d="M40 25.9918C40 25.9918 41.9391 9.21851 62.5411 1.17163V25.9918H40Z" fill="white"/>
<path d="M40.2484 25.9917C31.2527 9.9184 9.70055 4.97949 9.70055 4.97949L5.41992 9.32918L35.042 29.035L40.2484 25.9917Z" fill="white"/>
<path d="M39.752 25.9917C48.7476 9.9184 70.2998 4.97949 70.2998 4.97949L74.5804 9.32918L44.9584 29.0351L39.752 25.9917Z" fill="#DFEAEF"/>
<path d="M77.7966 60.5259L47.5884 77.5181C46.5468 78.104 45.2598 77.3514 45.2598 76.1562L43.6973 51.3278L45.2598 26.9054C45.2598 26.3409 45.5643 25.8203 46.0562 25.5435L76.2645 8.55136C77.306 7.96542 78.593 8.71808 78.593 9.91323V59.1639C78.5932 59.7285 78.2887 60.2492 77.7966 60.5259V60.5259Z" fill="white"/>
<path d="M76.2645 8.5516L72.343 10.7574V59.1639C72.343 59.7285 72.0385 60.2491 71.5466 60.5258L45.2598 75.3122V76.1561C45.2598 77.3511 46.5468 78.1038 47.5884 77.518L77.7966 60.5258C78.2887 60.2491 78.593 59.7285 78.593 59.1639V9.91332C78.593 8.71832 77.306 7.96567 76.2645 8.5516V8.5516Z" fill="#DFEAEF"/>
<path d="M32.4109 77.5181L2.20266 60.5259C1.71063 60.2492 1.40625 59.7285 1.40625 59.1642V9.91339C1.40625 8.71839 2.69328 7.96574 3.73484 8.55152L33.9431 25.5437C34.4352 25.8204 34.7395 26.341 34.7395 26.9056V76.1562C34.7395 77.3514 33.4525 78.104 32.4109 77.5181V77.5181Z" fill="white"/>
<path d="M33.943 25.5438L3.73469 8.5516C2.69313 7.96567 1.40625 8.71832 1.40625 9.91332V10.7574L27.6931 25.5438C28.1852 25.8205 28.4895 26.3411 28.4895 26.9057V75.3124L32.4109 77.5182C33.4525 78.1041 34.7395 77.3514 34.7395 76.1563L36.302 51.4061L34.7395 26.9057C34.7395 26.3411 34.435 25.8205 33.943 25.5438Z" fill="#DFEAEF"/>
<path d="M72.8642 29.0359L50.9883 41.5359V33.9812L72.8642 21.4812V29.0359Z" fill="white"/>
<path d="M43.6985 78.8278H36.3027C35.4398 78.8278 34.7402 78.1283 34.7402 77.2653V27.5542C34.7402 26.6912 35.4398 25.9917 36.3027 25.9917H43.6985C44.5615 25.9917 45.261 26.6912 45.261 27.5542V77.2653C45.261 78.1283 44.5615 78.8278 43.6985 78.8278Z" fill="white"/>
<path d="M43.6992 25.9917H38.3867C39.2497 25.9917 39.9492 26.6912 39.9492 27.5542V77.2653C39.9492 78.1283 39.2497 78.8278 38.3867 78.8278H43.6992C44.5622 78.8278 45.2617 78.1283 45.2617 77.2653V27.5542C45.2617 26.6912 44.5622 25.9917 43.6992 25.9917Z" fill="#DFEAEF"/>
<path d="M34.7402 31.4421H45.261V36.6504H34.7402V31.4421Z" fill="#FA4B5F"/>
<path d="M34.7402 68.1689H45.261V73.3772H34.7402V68.1689Z" fill="#FA4B5F"/>
<path d="M40 44.207C39.3528 44.207 38.8281 44.7316 38.8281 45.3789V59.4414C38.8281 60.0888 39.3528 60.6133 40 60.6133C40.6472 60.6133 41.1719 60.0888 41.1719 59.4414V45.3789C41.1719 44.7316 40.6472 44.207 40 44.207Z" fill="#5D6174"/>
<path d="M78.5938 46.5506C79.2409 46.5506 79.7656 46.026 79.7656 45.3787V9.91339C79.7656 7.88026 77.4752 6.52651 75.6906 7.53011L74.8944 7.97792L71.1347 4.15761C70.8492 3.86776 70.4337 3.74667 70.0377 3.83729C69.8847 3.87229 67.3641 4.45995 63.7128 5.85261V1.17167C63.7128 0.784482 63.5216 0.422294 63.2019 0.204013C62.8822 -0.0141121 62.4752 -0.0603621 62.1147 0.0801067C51.1602 4.35886 45.4206 11.1018 42.5348 16.0049C41.3634 17.9954 40.555 19.8426 40 21.3878C39.445 19.8426 38.6366 17.9954 37.4652 16.0049C34.5794 11.1018 28.8398 4.35886 17.8853 0.0801067C17.5248 -0.0603621 17.1178 -0.0142683 16.7981 0.204013C16.4784 0.422294 16.2872 0.784638 16.2872 1.17167V5.85198C12.6439 4.46276 10.1242 3.87448 9.96219 3.83745C9.56547 3.74683 9.15047 3.86776 8.86516 4.15776L5.10547 7.97808L4.30922 7.53011C2.53719 6.5337 0.234375 7.86604 0.234375 9.91339V59.164C0.234375 60.1504 0.768438 61.0634 1.62813 61.5473L31.8364 78.5395C32.4945 78.8342 33.3205 78.9865 34.015 78.7598C34.5039 79.5054 35.3458 79.9998 36.302 79.9998H43.6978C44.6541 79.9998 45.4959 79.5054 45.9848 78.7598C46.7264 78.9956 47.4525 78.9221 48.1634 78.5395L78.3719 61.5471C79.2314 61.0634 79.7655 60.1504 79.7655 59.164V52.8785C79.7655 51.3634 77.4217 51.3634 77.4217 52.8785V59.164C77.4217 59.305 77.3453 59.4354 77.2227 59.5045L47.0142 76.4967C46.69 76.6059 46.4959 76.4923 46.432 76.1562V27.5543C46.3889 27.3206 46.3805 26.7064 46.6311 26.5653L76.8394 9.57308C77.1638 9.46401 77.3578 9.57745 77.4217 9.91354V45.3789C77.4219 46.0259 77.9464 46.5506 78.5938 46.5506V46.5506ZM61.3691 2.92214V6.79839C60.262 7.26995 59.0897 7.80495 57.8764 8.40933C53.597 10.5409 48.2447 13.85 43.7766 18.5995C44.0145 18.1417 44.2728 17.6723 44.5547 17.1937C47.11 12.8521 52.0755 6.96104 61.3691 2.92214V2.92214ZM44.0884 35.4787H35.9114V32.6142H44.0884V35.4787ZM35.9114 37.8224H44.0884V66.9971H35.9114V37.8224ZM35.9114 69.3409H44.0884V72.2056H35.9114V69.3409ZM44.0884 30.2704H35.9114V27.5542C35.9114 27.3387 36.0867 27.1635 36.302 27.1635H43.6978C43.9131 27.1635 44.0884 27.3387 44.0884 27.5542V30.2704ZM10.0639 6.28089C11.768 6.73573 16.7367 8.20089 22.2877 11.1268C23.5809 11.8084 24.7178 9.75839 23.3805 9.05339C21.7192 8.17776 20.1167 7.4312 18.6308 6.79808V2.92214C27.8716 6.93776 32.827 12.7837 35.3848 17.0917C35.6837 17.5951 35.9562 18.0887 36.2069 18.5704C34.3669 16.6126 32.2597 14.7728 29.8905 13.066C28.6614 12.1801 27.2911 14.082 28.5205 14.9676C32.5669 17.8826 35.8028 21.1906 38.1677 24.8201C36.8075 24.7087 35.6441 25.1564 34.5173 24.5226L7.22219 9.1687L10.0639 6.28089ZM33.3742 76.4935C33.2447 76.4957 33.1152 76.4968 32.9855 76.4968L2.77719 59.5046C2.65438 59.4356 2.57797 59.3051 2.57797 59.164V9.91339C2.57797 9.6012 2.92297 9.43979 3.16016 9.57292L33.3684 26.565C33.6192 26.7064 33.6108 27.3201 33.5677 27.5542V76.1562C33.5677 76.3512 33.4464 76.4512 33.3742 76.4935ZM44.0884 77.2654C44.0884 77.4809 43.9131 77.656 43.6978 77.656H36.302C36.0867 77.656 35.9114 77.4809 35.9114 77.2654V74.5493H44.0884V77.2654ZM45.4822 24.5223C44.3348 25.1678 43.2195 24.7242 41.8337 24.8198C46.4227 17.7904 53.5234 13.2025 58.8688 10.5334C63.9298 8.0062 68.3489 6.70542 69.9361 6.28104L72.7777 9.16854L45.4822 24.5223Z" fill="#5D6174"/>
<path d="M72.2828 20.4637L50.4069 32.9637C50.0419 33.1722 49.8164 33.5605 49.8164 33.9811V41.536C49.8164 42.4202 50.802 42.9924 51.5697 42.5535L73.4455 30.0535C73.8106 29.8449 74.0359 29.4566 74.0359 29.036V21.4812C74.0359 20.6604 73.0917 20.001 72.2828 20.4637V20.4637ZM71.6922 28.3558L52.1602 39.5165V34.6612L71.6922 23.5004V28.3558Z" fill="#5D6174"/>
</svg>
