<svg width="55" height="49" viewBox="0 0 55 49" fill="none" xmlns="http://www.w3.org/2000/svg">
<path d="M20.9906 28.2893H5.97414C5.52958 28.2893 5.16916 28.6497 5.16916 29.0943C5.16916 29.5388 5.52958 29.8993 5.97414 29.8993H20.9906C21.4351 29.8993 21.7955 29.5388 21.7955 29.0943C21.7955 28.6497 21.4351 28.2893 20.9906 28.2893Z" fill="#A3A5B0"/>
<path d="M32.6217 28.2893H25.1135C24.6689 28.2893 24.3085 28.6497 24.3085 29.0943C24.3085 29.5388 24.6689 29.8993 25.1135 29.8993H32.6217C33.0662 29.8993 33.4266 29.5388 33.4266 29.0943C33.4266 28.6497 33.0662 28.2893 32.6217 28.2893Z" fill="#A3A5B0"/>
<path d="M20.9906 32.4961H5.97414C5.52958 32.4961 5.16916 32.8565 5.16916 33.3011C5.16916 33.7456 5.52958 34.106 5.97414 34.106H20.9906C21.4351 34.106 21.7955 33.7456 21.7955 33.3011C21.7955 32.8565 21.4351 32.4961 20.9906 32.4961Z" fill="#A3A5B0"/>
<path d="M30.2051 32.4961H25.1135C24.6689 32.4961 24.3085 32.8565 24.3085 33.3011C24.3085 33.7456 24.6689 34.106 25.1135 34.106H30.2051C30.6497 34.106 31.0101 33.7456 31.0101 33.3011C31.0101 32.8565 30.6497 32.4961 30.2051 32.4961Z" fill="#A3A5B0"/>
<path d="M20.9906 36.7026H5.97414C5.52958 36.7026 5.16916 37.0631 5.16916 37.5076C5.16916 37.9522 5.52958 38.3126 5.97414 38.3126H20.9906C21.4351 38.3126 21.7955 37.9522 21.7955 37.5076C21.7955 37.0631 21.4351 36.7026 20.9906 36.7026Z" fill="#A3A5B0"/>
<path d="M29.0715 36.7026H25.1135C24.6689 36.7026 24.3085 37.0631 24.3085 37.5076C24.3085 37.9522 24.6689 38.3126 25.1135 38.3126H29.0715C29.5161 38.3126 29.8765 37.9522 29.8765 37.5076C29.8765 37.0631 29.5161 36.7026 29.0715 36.7026Z" fill="#A3A5B0"/>
<path d="M20.9906 40.9094H5.97414C5.52958 40.9094 5.16916 41.2698 5.16916 41.7144C5.16916 42.159 5.52958 42.5194 5.97414 42.5194H20.9906C21.4351 42.5194 21.7955 42.159 21.7955 41.7144C21.7955 41.2698 21.4351 40.9094 20.9906 40.9094Z" fill="#A3A5B0"/>
<path d="M29.0715 40.9094H25.1135C24.6689 40.9094 24.3085 41.2698 24.3085 41.7144C24.3085 42.159 24.6689 42.5194 25.1135 42.5194H29.0715C29.5161 42.5194 29.8765 42.159 29.8765 41.7144C29.8765 41.2698 29.5161 40.9094 29.0715 40.9094Z" fill="#A3A5B0"/>
<path d="M32.3569 43.2272C32.0726 43.2272 31.7996 43.12 31.5881 42.9211C31.3329 42.6813 31.2054 42.3436 31.2384 41.9948L31.5691 38.4961C31.5981 38.1901 31.7987 37.9273 32.0862 37.8187C32.3738 37.7101 32.6981 37.775 32.922 37.9854L36.4328 41.2871C36.6567 41.4977 36.7411 41.8174 36.6504 42.1111C36.5597 42.4049 36.3096 42.6212 36.006 42.6688L32.5342 43.2134C32.4748 43.2226 32.4156 43.2272 32.3569 43.2272ZM33.0171 40.285L32.8998 41.5264L34.1316 41.3332L33.0171 40.285Z" fill="#A3A5B0"/>
<path d="M29.2271 15.2568C29.2271 9.78172 24.7729 5.32739 19.2977 5.32739C13.8226 5.32739 9.36836 9.78161 9.36836 15.2568C9.36836 20.7319 13.8226 25.1861 19.2977 25.1861C24.7729 25.1861 29.2271 20.7318 29.2271 15.2568ZM10.9784 15.2568C10.9784 10.6695 14.7104 6.93735 19.2979 6.93735C23.8853 6.93735 27.6173 10.6693 27.6173 15.2568C27.6173 19.8442 23.8853 23.5762 19.2979 23.5762C14.7104 23.5762 10.9784 19.8441 10.9784 15.2568Z" fill="#A3A5B0"/>
<path d="M23.1668 19.9394V17.0166C23.1668 16.0991 22.7533 15.278 22.1047 14.7245C22.5711 14.1233 22.8498 13.3696 22.8498 12.5515C22.8498 10.5927 21.2563 8.99927 19.2976 8.99927C17.339 8.99927 15.7454 10.5928 15.7454 12.5515C15.7454 13.3692 16.0239 14.1228 16.4901 14.7239C15.8414 15.2773 15.4284 16.099 15.4284 17.0166V19.9394C15.4284 20.7711 16.105 21.4476 16.9366 21.4476H21.6585C22.4903 21.4476 23.1668 20.7711 23.1668 19.9394ZM19.2976 10.6092C20.3687 10.6092 21.2399 11.4805 21.2399 12.5515C21.2399 13.6224 20.3686 14.4937 19.2976 14.4937C18.2267 14.4937 17.3554 13.6224 17.3554 12.5515C17.3554 11.4805 18.2267 10.6092 19.2976 10.6092ZM21.5568 19.8376H17.0383V17.0166C17.0383 16.4749 17.3468 16.0046 17.7968 15.77C18.2531 15.9836 18.7615 16.1037 19.2976 16.1037C19.8329 16.1037 20.3405 15.984 20.7961 15.7711C21.2471 16.005 21.5568 16.4743 21.5568 17.0166V19.8376Z" fill="#A3A5B0"/>
<path d="M53.6341 26.5433L54.115 26.0319C55.3483 24.7206 55.2847 22.6503 53.9734 21.4169L51.6791 19.2592C51.0438 18.6616 50.2137 18.3473 49.3423 18.3741C48.4706 18.4009 47.6616 18.7654 47.0641 19.4007L46.5832 19.912L46.4144 19.7533C45.8308 19.2045 44.9096 19.2329 44.361 19.8163L42.7276 21.5531C42.313 21.9941 42.2283 22.6274 42.4631 23.1475L38.5958 27.2597V7.32957C38.5958 7.30874 38.5941 7.28814 38.5925 7.26753C38.592 7.2613 38.5921 7.25519 38.5915 7.24896C38.588 7.21354 38.5816 7.17866 38.5736 7.14421C38.5714 7.1353 38.5687 7.1266 38.5664 7.1178C38.559 7.09054 38.5501 7.06381 38.5399 7.03752C38.5365 7.02893 38.5335 7.02035 38.5299 7.01187C38.5159 6.97935 38.5002 6.94768 38.482 6.9172C38.4787 6.91162 38.4747 6.90636 38.4713 6.90089C38.4552 6.87534 38.4377 6.85087 38.4187 6.82726C38.4124 6.81942 38.4061 6.81159 38.3995 6.80386C38.3755 6.77617 38.3503 6.74934 38.3225 6.72486L31.6626 0.869439C31.6363 0.846256 31.6081 0.825756 31.5794 0.806329C31.573 0.802036 31.5668 0.797742 31.5604 0.793771C31.5323 0.775954 31.5032 0.759854 31.4732 0.745687C31.4675 0.743004 31.4617 0.740857 31.456 0.738281C31.4288 0.72626 31.401 0.715742 31.3727 0.706833C31.367 0.705008 31.3613 0.702862 31.3556 0.701252C31.3239 0.692022 31.2916 0.685045 31.2589 0.679786C31.2517 0.678605 31.2446 0.677747 31.2373 0.676888C31.2062 0.672702 31.1748 0.670019 31.1432 0.669589C31.1403 0.669589 31.1375 0.66916 31.1346 0.66916C31.1334 0.66916 31.1322 0.669053 31.1312 0.669053H10.1734C9.72888 0.669053 9.36847 1.02947 9.36847 1.47403C9.36847 1.9186 9.72888 2.27901 10.1734 2.27901H30.3261V6.16589C30.3261 7.25143 31.2093 8.13465 32.2948 8.13465H36.9858V28.9718L32.1537 34.11C32.1107 34.1558 32.0747 34.2055 32.0444 34.2575C32.0407 34.2641 32.0371 34.2707 32.0335 34.2774C32.0195 34.3029 32.0071 34.329 31.9961 34.3556C31.9941 34.3607 31.9917 34.3655 31.9897 34.3706C31.9774 34.4024 31.9672 34.4349 31.959 34.4677C31.9575 34.4736 31.9565 34.4796 31.9552 34.4856C31.9489 34.514 31.9442 34.5425 31.941 34.5713C31.9404 34.5761 31.939 34.5807 31.9386 34.5857L31.2383 41.9947C31.2052 42.3435 31.3327 42.6812 31.5878 42.9212C31.7994 43.1201 32.0724 43.2273 32.3568 43.2273C32.4155 43.2273 32.4748 43.2228 32.5341 43.2134L36.9858 42.5151V46.6674C36.9858 46.6971 36.9618 46.7211 36.9322 46.7211H1.66363C1.634 46.7211 1.60996 46.6971 1.60996 46.6674V2.33257C1.60996 2.30295 1.634 2.27891 1.66363 2.27891H6.38349C6.82806 2.27891 7.18847 1.91849 7.18847 1.47393C7.18847 1.02936 6.82806 0.668945 6.38349 0.668945H1.66363C0.74627 0.668945 0 1.41522 0 2.33257V46.6673C0 47.5847 0.74627 48.331 1.66363 48.331H36.9322C37.8495 48.331 38.5958 47.5847 38.5958 46.6673V42.2625L39.8863 42.0601C39.8903 42.0594 39.8941 42.058 39.898 42.0574C39.9652 42.0459 40.0309 42.0259 40.0938 41.9974C40.1008 41.9942 40.1075 41.9907 40.1144 41.9874C40.1392 41.9753 40.1634 41.9619 40.1871 41.9471C40.1933 41.9433 40.1996 41.9396 40.2059 41.9356C40.2341 41.9168 40.2617 41.8966 40.2879 41.8739C40.2892 41.8729 40.2902 41.8716 40.2915 41.8704C40.3109 41.8533 40.3299 41.8355 40.348 41.8163L45.882 35.9318C46.1866 35.6079 46.171 35.0985 45.8472 34.7939C45.5232 34.4893 45.0137 34.5049 44.7092 34.8288L39.7266 40.1268L38.67 39.1332L48.3526 28.8375L49.4093 29.8311L47.1684 32.2139C46.8638 32.5378 46.8795 33.0472 47.2033 33.3518C47.5272 33.6563 48.0367 33.6407 48.3412 33.3169L50.657 30.8545C50.8201 30.9167 50.9942 30.9498 51.1732 30.9498C51.1885 30.9498 51.2037 30.9496 51.219 30.9492C51.6067 30.9373 51.9667 30.775 52.2326 30.4924L53.8659 28.7556C54.4147 28.172 54.3865 27.2509 53.8029 26.7022L53.6341 26.5433ZM32.2948 6.52459C32.097 6.52459 31.936 6.36359 31.936 6.16578V3.25358L35.6562 6.52459H32.2948ZM43.5605 24.3307L44.6172 25.3244L34.9345 35.6201L33.8779 34.6264L43.5605 24.3307ZM32.8998 41.5263L33.0171 40.2849L34.1316 41.3331L32.8998 41.5263ZM36.1458 41.0171L33.209 38.2552L33.3867 36.3744L35.6994 38.5494L38.012 40.7243L36.1458 41.0171ZM37.4973 38.0302L36.8023 37.3767L36.1073 36.7231L45.7898 26.4275L46.4848 27.081L47.1798 27.7345L37.4973 38.0302ZM51.1675 29.2747L51.0987 29.21C51.0986 29.21 51.0986 29.2099 51.0986 29.2099L49.7892 27.9785L48.8694 27.1134L48.8693 27.1133L48.498 26.7641L44.0082 22.5417L45.426 21.034L52.5854 27.7672L51.1675 29.2747ZM52.9423 24.929L52.4614 25.4403L50.1087 23.2277L47.756 21.0151L48.2369 20.5038C48.8621 19.8391 49.9115 19.8069 50.576 20.432L52.8703 22.5897C53.5351 23.2149 53.5674 24.2643 52.9423 24.929Z" fill="#A3A5B0"/>
</svg>
