<svg width="80" height="80" viewBox="0 0 80 80" fill="none" xmlns="http://www.w3.org/2000/svg">
<path d="M79.3133 0.686483C78.3981 -0.228828 76.9139 -0.228828 75.9986 0.686483L69.1721 7.51303C68.7524 7.31303 68.3096 7.15194 67.8472 7.03647L46.6331 1.79539C44.2509 1.19992 41.6921 1.90851 39.9557 3.64492L2.05626 41.482C-0.685137 44.2236 -0.685137 48.6845 2.05626 51.4262L28.5739 77.9437C31.3154 80.6852 35.7764 80.6854 38.5181 77.9437L76.3552 40.0441C78.0916 38.3077 78.8003 35.7489 78.2046 33.3666L72.9636 12.1526C72.848 11.6904 72.6871 11.2474 72.4871 10.8277L79.3136 4.00116C80.2286 3.08585 80.2286 1.60179 79.3133 0.686483ZM73.6566 34.5038C73.8552 35.2978 73.6189 36.1506 73.0402 36.7295L35.2031 74.629C34.2892 75.5429 32.8021 75.5429 31.8882 74.629L5.37079 48.1114C4.45688 47.1975 4.45688 45.7105 5.37079 44.7966L43.2704 6.9596C43.7137 6.51632 44.3177 6.27397 44.9331 6.27397C45.1212 6.27397 45.3104 6.29663 45.4962 6.34304L65.4227 11.2622L59.7782 16.9068C57.1649 15.6621 53.9369 16.1186 51.7766 18.279C49.0349 21.0207 49.0349 25.4814 51.7766 28.2232C53.1473 29.5939 54.948 30.2794 56.7487 30.2794C58.5491 30.2794 60.3499 29.5941 61.7205 28.2232C63.8813 26.0625 64.3377 22.8347 63.0927 20.2214L68.7372 14.5769L73.6566 34.5038ZM58.406 24.9086C57.4923 25.8224 56.0052 25.8225 55.0913 24.9086C54.1776 23.9949 54.1776 22.5077 55.0913 21.5939C55.5483 21.1369 56.1483 20.9086 56.7487 20.9086C57.3487 20.9086 57.949 21.1371 58.4057 21.5938L58.4058 21.5939L58.406 21.5941C59.3199 22.5079 59.3198 23.9949 58.406 24.9086Z" fill="#2F344C"/>
<path d="M38.5177 28.2232C35.7762 25.4816 31.3152 25.4816 28.5735 28.2232C25.8321 30.9647 25.8321 35.4257 28.5735 38.1674C31.3151 40.9089 35.7762 40.9089 38.5177 38.1674C41.2594 35.4257 41.2594 30.9649 38.5177 28.2232ZM35.2032 34.8525C34.2893 35.7664 32.8022 35.7664 31.8885 34.8525C30.9748 33.9386 30.9744 32.4516 31.8883 31.5378C32.8022 30.6241 34.2891 30.6239 35.2032 31.5378C36.1169 32.4516 36.1169 33.9386 35.2032 34.8525Z" fill="#2F344C"/>
<path d="M41.8324 51.4263C39.0844 48.6784 34.6368 48.678 31.8883 51.4263C29.1466 54.168 29.1466 58.6288 31.8883 61.3705C34.6365 64.1185 39.0841 64.119 41.8324 61.3705C44.5741 58.6288 44.5741 54.168 41.8324 51.4263ZM38.5177 58.0559C37.6019 58.9718 36.119 58.972 35.203 58.0559C34.2893 57.1421 34.2893 55.6549 35.203 54.7412C36.119 53.8252 37.6018 53.8251 38.5177 54.7412C39.4314 55.6549 39.4314 57.1418 38.5177 58.0559Z" fill="#2F344C"/>
<path d="M52.4488 42.8807C52.3059 41.5942 51.1468 40.667 49.8604 40.81L20.0283 44.1246C18.7417 44.2676 17.8145 45.4263 17.9575 46.713C18.0908 47.9116 19.1054 48.7984 20.2842 48.7984C20.3706 48.7984 20.4581 48.7935 20.5459 48.7838L50.3782 45.4691C51.6648 45.326 52.5919 44.1673 52.4488 42.8807Z" fill="#2F344C"/>
</svg>
