<svg width="56" height="80" viewBox="0 0 56 80" fill="none" xmlns="http://www.w3.org/2000/svg">
<path d="M1.17212 1.17188H54.8287V73.7773H1.17212V1.17188Z" fill="white"/>
<path d="M14.5127 48.1372C13.1915 48.5467 12.291 49.769 12.291 51.1523V61.2758C12.291 65.8811 13.8255 70.2522 16.5588 73.7773H39.4414C42.1747 70.2522 43.7091 65.8811 43.7091 61.2758V51.1523C43.7091 49.7689 42.8085 48.5467 41.4875 48.1372L28.9347 44.2454C28.326 44.0567 27.6744 44.0567 27.0656 44.2454L14.5127 48.1372Z" fill="#DFEAEF"/>
<path d="M10.6399 5.90698H45.3589V10.6421H10.6399V5.90698Z" fill="#DFEAEF"/>
<path d="M51.6729 1.17188H54.8296V73.7773H51.6729V1.17188Z" fill="#DFEAEF"/>
<path d="M23.2506 75.7164C18.3648 72.5157 15.4478 67.1172 15.4478 61.2757V51.1524L28.0005 47.2605L40.5533 51.1524V61.2757C40.5533 67.1172 37.6364 72.5157 32.7504 75.7164L28.0005 78.8282L23.2506 75.7164Z" fill="#FF4D61"/>
<path d="M37.7847 50.2942V59.5395C37.7847 65.3811 34.8678 70.7795 29.9819 73.9803L25.291 77.0532L28.0003 78.8281L32.7502 75.7164C37.636 72.5156 40.553 67.1172 40.553 61.2756V51.1523L37.7847 50.2942Z" fill="#FF4D61"/>
<path d="M25.8449 71.7554C22.2992 69.4327 20.1824 65.515 20.1824 61.2758V54.6421L28.0007 52.218L35.819 54.6419V61.2757C35.819 65.5147 33.7023 69.4324 30.1565 71.7552L28.0005 73.1675L25.8449 71.7554Z" fill="white"/>
<path d="M46.5307 10.642V5.90698C46.5307 5.25964 46.0062 4.73511 45.359 4.73511H10.64C9.99287 4.73511 9.46826 5.25964 9.46826 5.90698V10.6421C9.46826 11.2895 9.99287 11.814 10.64 11.814H45.359C46.0062 11.8139 46.5307 11.2893 46.5307 10.642ZM44.1873 9.47011H11.8117V7.07886H44.1873V9.47011Z" fill="#5D6174"/>
<path d="M17.4271 14.9946C16.78 14.9946 16.2554 15.5192 16.2554 16.1665C16.2554 16.8138 16.78 17.3384 17.4271 17.3384H38.574C39.2212 17.3384 39.7457 16.8138 39.7457 16.1665C39.7457 15.5192 39.2212 14.9946 38.574 14.9946H17.4271Z" fill="#5D6174"/>
<path d="M7.48517 26.8022H48.5167C49.1639 26.8022 49.6884 26.2777 49.6884 25.6304C49.6884 24.983 49.1639 24.4585 48.5167 24.4585H7.48517C6.83808 24.4585 6.31348 24.983 6.31348 25.6304C6.31348 26.2777 6.83808 26.8022 7.48517 26.8022Z" fill="#5D6174"/>
<path d="M6.31348 20.9017C6.31348 21.5491 6.83808 22.0736 7.48517 22.0736H48.5167C49.1639 22.0736 49.6884 21.5491 49.6884 20.9017C49.6884 20.2544 49.1639 19.7299 48.5167 19.7299H7.48517C6.83808 19.7299 6.31348 20.2544 6.31348 20.9017Z" fill="#5D6174"/>
<path d="M7.48517 31.6873H48.5167C49.1639 31.6873 49.6884 31.1627 49.6884 30.5154C49.6884 29.868 49.1639 29.3435 48.5167 29.3435H7.48517C6.83808 29.3435 6.31348 29.868 6.31348 30.5154C6.31348 31.1627 6.83808 31.6873 7.48517 31.6873Z" fill="#5D6174"/>
<path d="M7.48517 36.5723H28.0009C28.648 36.5723 29.1726 36.0477 29.1726 35.4004C29.1726 34.753 28.6482 34.2285 28.0009 34.2285H7.48517C6.83808 34.2285 6.31348 34.753 6.31348 35.4004C6.31348 36.0477 6.83808 36.5723 7.48517 36.5723Z" fill="#5D6174"/>
<path d="M7.48517 41.4573H16.954C17.6011 41.4573 18.1257 40.9327 18.1257 40.2854C18.1257 39.6381 17.6011 39.1135 16.954 39.1135H7.48517C6.83808 39.1135 6.31348 39.6381 6.31348 40.2854C6.31348 40.9327 6.83808 41.4573 7.48517 41.4573Z" fill="#5D6174"/>
<path d="M48.5154 39.1135H39.0467C38.3995 39.1135 37.875 39.6381 37.875 40.2854C37.875 40.9327 38.3995 41.4573 39.0467 41.4573H48.5154C49.1626 41.4573 49.6871 40.9327 49.6871 40.2854C49.6871 39.6381 49.1626 39.1135 48.5154 39.1135Z" fill="#5D6174"/>
<path d="M54.8285 25.7031C54.1812 25.7031 53.6568 26.2277 53.6568 26.875V72.6055H37.8378C40.3266 69.4155 41.7247 65.4523 41.7247 61.2758V51.1525C41.7247 50.6389 41.3904 50.1853 40.9 50.0331L28.3472 46.1412C28.1212 46.0714 27.8792 46.0714 27.6533 46.1412L15.1005 50.0331C14.6101 50.1853 14.2758 50.6389 14.2758 51.1525V61.2758C14.2758 65.4523 15.6738 69.4155 18.1625 72.6055H2.34339V61.4369C2.34339 60.7895 1.81878 60.265 1.1717 60.265C0.524607 60.265 0 60.7895 0 61.4369V73.7773C0 74.4247 0.524607 74.9492 1.1717 74.9492H20.3423C21.0449 75.5831 21.8012 76.1683 22.6082 76.6969V76.6967L27.3581 79.8084C27.5531 79.9361 27.7767 80 28.0001 80C28.2236 80 28.4472 79.9361 28.6422 79.8083L33.3919 76.6967C34.1988 76.1681 34.9551 75.5831 35.6576 74.9491H54.8283C55.4755 74.9491 56 74.4245 56 73.7772V26.875C56.0002 26.2277 55.4755 25.7031 54.8285 25.7031ZM32.108 74.7363L28.0001 77.4272L23.8921 74.7359C19.338 71.7525 16.619 66.7206 16.619 61.2756V52.0159L28.0001 48.4875L39.3811 52.0161V61.2758C39.3813 66.7208 36.6622 71.7527 32.108 74.7363Z" fill="#5D6174"/>
<path d="M54.8285 0H1.1717C0.524607 0 0 0.524531 0 1.17188V55.9569C0 56.6042 0.524607 57.1287 1.1717 57.1287C1.81878 57.1287 2.34339 56.6042 2.34339 55.9569V2.34375H53.6566V21.4037C53.6566 22.0511 54.1811 22.5756 54.8283 22.5756C55.4755 22.5756 56 22.0511 56 21.4037V1.17188C56.0002 0.524531 55.4755 0 54.8285 0V0Z" fill="#5D6174"/>
<path d="M36.9908 54.6418C36.9908 54.1282 36.6565 53.6746 36.1661 53.5224L28.3476 51.0985C28.1218 51.0287 27.8797 51.0287 27.6538 51.0985L19.8355 53.5224C19.3451 53.6746 19.0107 54.1282 19.0107 54.6418V61.2757C19.0107 65.9115 21.3255 70.1956 25.2031 72.7356L27.3588 74.1479C27.5538 74.2756 27.7774 74.3396 28.0008 74.3396C28.2243 74.3396 28.4479 74.2757 28.6429 74.1479L30.7986 72.7357C34.676 70.1956 36.991 65.9115 36.991 61.2757V54.6418H36.9908ZM34.6474 61.2757C34.6474 65.1184 32.7286 68.6695 29.5146 70.7751L28.0008 71.7668L26.4869 70.7751V70.7749C23.2729 68.6695 21.3541 65.1184 21.3541 61.2757V55.5054L28.0006 53.4449L34.6473 55.5056V61.2757H34.6474Z" fill="#5D6174"/>
</svg>
