<svg width="41" height="42" viewBox="0 0 41 42" fill="none" xmlns="http://www.w3.org/2000/svg">
<path d="M4.16757 18.5327L19.9582 5.43761C20.1093 5.31212 20.2994 5.24346 20.4956 5.24346C20.6919 5.24346 20.8819 5.31212 21.0331 5.43761L36.8237 18.5327C37.0838 18.7494 37.3846 18.9115 37.7083 19.0095C38.032 19.1074 38.372 19.1392 38.7082 19.103C39.0444 19.0668 39.3699 18.9633 39.6655 18.7986C39.961 18.6339 40.2206 18.4114 40.4289 18.1442C40.8571 17.5998 41.057 16.9095 40.9859 16.2197C40.9149 15.53 40.5786 14.8952 40.0485 14.45L24.2579 1.3549C23.1986 0.479016 21.8685 0 20.4956 0C19.1228 0 17.7926 0.479016 16.7334 1.3549L0.951517 14.45C0.421372 14.8952 0.0850928 15.53 0.0140666 16.2197C-0.0569597 16.9095 0.142859 17.5998 0.571104 18.1442C0.779587 18.4097 1.03884 18.6307 1.33364 18.7943C1.62844 18.9579 1.95286 19.0609 2.28786 19.097C2.62286 19.1332 2.9617 19.102 3.28448 19.0051C3.60727 18.9081 3.9075 18.7476 4.16757 18.5327Z" fill="#FF4D61"/>
<path d="M38.4362 38.5003V26.2504C38.4218 25.724 38.3009 25.2059 38.0811 24.7277C37.8612 24.2494 37.5469 23.8209 37.1572 23.4679L22.6736 11.218C22.0652 10.7021 21.2943 10.4189 20.4975 10.4189C19.7008 10.4189 18.9298 10.7021 18.3215 11.218L3.83792 23.4784C3.4487 23.8298 3.13442 24.2565 2.914 24.7329C2.69357 25.2093 2.57157 25.7255 2.55534 26.2504V38.5003C2.54649 39.4185 2.90129 40.3028 3.54187 40.9589C4.18244 41.6151 5.05645 41.9896 5.97207 42.0002H15.3707C15.8286 41.9952 16.2657 41.808 16.5861 41.4799C16.9064 41.1517 17.0837 40.7095 17.0791 40.2503V30.6254C17.0749 30.1663 17.2523 29.7243 17.5726 29.3963C17.8928 29.0682 18.3297 28.8809 18.7874 28.8754H22.2042C22.6619 28.8809 23.0988 29.0682 23.419 29.3963C23.7392 29.7243 23.9167 30.1663 23.9125 30.6254V40.2503C23.9079 40.7095 24.0852 41.1517 24.4055 41.4799C24.7259 41.808 25.163 41.9952 25.6209 42.0002H35.0195C35.9351 41.9896 36.8091 41.6151 37.4497 40.9589C38.0903 40.3028 38.4451 39.4185 38.4362 38.5003Z" fill="#5D6174"/>
</svg>
