<svg width="80" height="58" viewBox="0 0 80 58" fill="none" xmlns="http://www.w3.org/2000/svg">
<path d="M43.7039 27.3431C43.7039 25.6058 42.3049 24.1975 40.5789 24.1975H12.953V7.47086C12.953 3.9964 15.7513 1.17969 19.203 1.17969H72.5791C76.0308 1.17969 78.8291 3.9964 78.8291 7.47086V35.61C78.8291 39.0844 76.0308 41.9012 72.5791 41.9012H65.4721C64.9138 41.9012 64.398 42.2009 64.1189 42.6876L60.8161 48.4459C60.2147 49.4944 58.7113 49.4944 58.1099 48.4459L54.8071 42.6876C54.528 42.2009 54.0121 41.9012 53.4539 41.9012H43.7041V27.3431H43.7039Z" fill="white"/>
<path d="M72.2832 35.6098V7.47085C72.2832 3.9964 69.4849 1.17969 66.0332 1.17969H72.5791C76.0308 1.17969 78.8291 3.9964 78.8291 7.47085V35.61C78.8291 39.0844 76.0308 41.9012 72.5791 41.9012H66.0332C69.485 41.901 72.2832 39.0844 72.2832 35.6098Z" fill="#DFEAEF"/>
<path d="M4.298 24.1973H40.5791C42.305 24.1973 43.7041 25.6055 43.7041 27.3428V47.3425C43.7041 49.0798 42.305 50.4881 40.5791 50.4881H27.8747C27.3164 50.4881 26.8007 50.7878 26.5216 51.2744L23.7918 56.0339C23.1903 57.0825 21.6868 57.0825 21.0853 56.0339L18.3555 51.2744C18.0764 50.7878 17.5605 50.4881 17.0024 50.4881H4.298C2.57207 50.4881 1.173 49.0798 1.173 47.3425V27.3428C1.173 25.6055 2.57207 24.1973 4.298 24.1973Z" fill="white"/>
<path d="M37.1886 47.3425V27.3428C37.1886 25.6055 35.7896 24.1973 34.0636 24.1973H40.5791C42.305 24.1973 43.7041 25.6055 43.7041 27.3428V47.3425C43.7041 49.0798 42.305 50.4881 40.5791 50.4881H34.0636C35.7896 50.4881 37.1886 49.0796 37.1886 47.3425Z" fill="#DFEAEF"/>
<path d="M32.8875 39.8781C31.4964 39.8781 30.3687 38.7429 30.3687 37.3427C30.3687 35.9425 31.4964 34.8074 32.8875 34.8074C34.2786 34.8074 35.4062 35.9425 35.4062 37.3427C35.4062 38.7429 34.2786 39.8781 32.8875 39.8781Z" fill="#FB5252"/>
<path d="M22.4395 39.8781C21.0484 39.8781 19.9208 38.7429 19.9208 37.3427C19.9208 35.9425 21.0484 34.8074 22.4395 34.8074C23.8306 34.8074 24.9583 35.9425 24.9583 37.3427C24.9583 38.7429 23.8306 39.8781 22.4395 39.8781Z" fill="#FB5252"/>
<path d="M11.9915 39.8781C10.6004 39.8781 9.47276 38.7429 9.47276 37.3427C9.47276 35.9425 10.6004 34.8074 11.9915 34.8074C13.3826 34.8074 14.5103 35.9425 14.5103 37.3427C14.5103 38.7429 13.3826 39.8781 11.9915 39.8781Z" fill="#FB5252"/>
<path d="M4.29785 23.0178H11.7813V20.8214C11.7813 20.17 12.3058 19.6418 12.9532 19.6418C13.6005 19.6418 14.125 20.17 14.125 20.8214V23.0178H40.5789C42.9482 23.0178 44.8758 24.958 44.8758 27.343V40.7215H53.4536C54.4272 40.7215 55.3346 41.2487 55.8218 42.0977L59.1246 47.856C59.2227 48.0269 59.3786 48.0526 59.4629 48.0526C59.5471 48.0526 59.703 48.0269 59.8011 47.856L63.1039 42.0977C63.5908 41.2488 64.4982 40.7215 65.4719 40.7215H72.5791C75.3793 40.7215 77.6572 38.4283 77.6572 35.6099V7.47076C77.6572 4.65232 75.3793 2.35919 72.5791 2.35919H19.2032C16.403 2.35919 14.125 4.65232 14.125 7.47076V15.1594C14.125 15.8108 13.6005 16.3389 12.9532 16.3389C12.3058 16.3389 11.7813 15.8108 11.7813 15.1594V7.47076C11.7813 3.35146 15.1108 0 19.2032 0H72.5791C76.6714 0 80.001 3.35146 80.001 7.47076V35.6099C80.001 39.7292 76.6714 43.0807 72.5791 43.0807H65.4721C65.3329 43.0807 65.2033 43.156 65.1338 43.2773L61.831 49.0356C61.3368 49.8973 60.4516 50.4118 59.463 50.4118C58.4744 50.4118 57.5893 49.8973 57.095 49.0356L53.7924 43.2776C53.7227 43.1561 53.593 43.0808 53.4538 43.0808H44.876V47.3428C44.876 49.7277 42.9483 51.6679 40.5791 51.6679H27.8747C27.7355 51.6679 27.606 51.7433 27.5364 51.8645L24.8064 56.6238C24.3122 57.4855 23.4271 58 22.4385 58C21.4499 58 20.5647 57.4855 20.0705 56.6238L17.3408 51.8647C17.2711 51.7433 17.1414 51.6679 17.0024 51.6679H13.2822C12.6349 51.6679 12.1104 51.1398 12.1104 50.4883C12.1104 49.8369 12.6349 49.3088 13.2822 49.3088H17.0024C17.9758 49.3088 18.8832 49.836 19.3703 50.6849L22.1002 55.4444C22.1983 55.6153 22.3543 55.641 22.4385 55.641C22.5227 55.641 22.6786 55.6155 22.7768 55.4444L25.5068 50.6849C25.9936 49.8361 26.901 49.3088 27.8747 49.3088H40.5791C41.6561 49.3088 42.5322 48.4269 42.5322 47.3428V27.3431C42.5322 26.259 41.6561 25.3772 40.5791 25.3772H4.29785C3.22082 25.3772 2.34473 26.259 2.34473 27.3431V47.3428C2.34473 48.4269 3.22082 49.3088 4.29785 49.3088H7.81348C8.46082 49.3088 8.98535 49.8369 8.98535 50.4883C8.98535 51.1398 8.46082 51.6679 7.81348 51.6679H4.29785C1.92863 51.6679 0.000976562 49.7277 0.000976562 47.3428V27.3431C0.000976562 24.958 1.92863 23.0178 4.29785 23.0178Z" fill="#5D6174"/>
<path d="M36.5771 37.3429C36.5771 39.3913 34.9215 41.0578 32.8865 41.0578C30.8515 41.0578 29.1959 39.3913 29.1959 37.3429C29.1959 35.2945 30.8515 33.6279 32.8865 33.6279C34.9215 33.6279 36.5771 35.2945 36.5771 37.3429ZM31.5396 37.3429C31.5396 38.0904 32.1439 38.6986 32.8865 38.6986C33.6292 38.6986 34.2334 38.0904 34.2334 37.3429C34.2334 36.5953 33.6292 35.9871 32.8865 35.9871C32.1439 35.9871 31.5396 36.5953 31.5396 37.3429Z" fill="#5D6174"/>
<path d="M26.1289 37.3429C26.1289 39.3913 24.4733 41.0578 22.4383 41.0578C20.4033 41.0578 18.7477 39.3913 18.7477 37.3429C18.7477 35.2945 20.4033 33.6279 22.4383 33.6279C24.4733 33.6279 26.1289 35.2945 26.1289 37.3429ZM21.0913 37.3429C21.0913 38.0904 21.6955 38.6986 22.4381 38.6986C23.1808 38.6986 23.785 38.0904 23.785 37.3429C23.785 36.5953 23.1808 35.9871 22.4381 35.9871C21.6955 35.9871 21.0913 36.5953 21.0913 37.3429Z" fill="#5D6174"/>
<path d="M11.9912 33.6279C14.026 33.6279 15.6816 35.2945 15.6816 37.3429C15.6816 39.3913 14.026 41.0578 11.9912 41.0578C9.95617 41.0578 8.30054 39.3913 8.30054 37.3429C8.30054 35.2945 9.95617 33.6279 11.9912 33.6279ZM11.9912 38.6986C12.7338 38.6986 13.3379 38.0904 13.3379 37.3429C13.3379 36.5953 12.7338 35.9871 11.9912 35.9871C11.2485 35.9871 10.6443 36.5953 10.6443 37.3429C10.6443 38.0904 11.2485 38.6986 11.9912 38.6986Z" fill="#5D6174"/>
<path d="M27.8869 11.374H52.6572C53.3046 11.374 53.8291 11.9022 53.8291 12.5536C53.8291 13.2051 53.3046 13.7332 52.6572 13.7332H27.8869C27.2396 13.7332 26.715 13.2051 26.715 12.5536C26.715 11.9022 27.2396 11.374 27.8869 11.374Z" fill="#5D6174"/>
<path d="M63.8955 13.7332H58.2822C57.6349 13.7332 57.1104 13.2051 57.1104 12.5536C57.1104 11.9022 57.6349 11.374 58.2822 11.374H63.8955C64.5429 11.374 65.0674 11.9022 65.0674 12.5536C65.0674 13.2051 64.5427 13.7332 63.8955 13.7332Z" fill="#5D6174"/>
<path d="M26.715 18.3756C26.715 17.7242 27.2396 17.196 27.8869 17.196H63.8955C64.5429 17.196 65.0674 17.7242 65.0674 18.3756C65.0674 19.0271 64.5429 19.5552 63.8955 19.5552H27.8869C27.2396 19.5552 26.715 19.0271 26.715 18.3756Z" fill="#5D6174"/>
<path d="M49.3838 23.0178H63.8955C64.5429 23.0178 65.0674 23.546 65.0674 24.1974C65.0674 24.8489 64.5429 25.377 63.8955 25.377H49.3838C48.7364 25.377 48.2119 24.8489 48.2119 24.1974C48.2119 23.546 48.7364 23.0178 49.3838 23.0178Z" fill="#5D6174"/>
<path d="M49.3838 28.8396H63.8955C64.5429 28.8396 65.0674 29.3677 65.0674 30.0192C65.0674 30.6706 64.5429 31.1988 63.8955 31.1988H49.3838C48.7364 31.1988 48.2119 30.6706 48.2119 30.0192C48.2119 29.3677 48.7364 28.8396 49.3838 28.8396Z" fill="#5D6174"/>
</svg>
