<svg width="80" height="68" viewBox="0 0 80 68" fill="none" xmlns="http://www.w3.org/2000/svg">
<path d="M78.8293 14.7412V56.747C78.8293 58.3417 77.5597 59.6361 75.9957 59.6361H67.4978L63.8288 65.7365C62.9722 67.1613 60.9435 67.1613 60.0868 65.7365L56.4177 59.6361H4.00488C2.44082 59.6361 1.17285 58.3417 1.17285 56.747V14.7412C1.17285 13.1447 2.44066 11.8521 4.00488 11.8521H75.9955C77.5597 11.8521 78.8293 13.1447 78.8293 14.7412Z" fill="white"/>
<path d="M72.3247 11.8516V15.9145C72.3247 19.0266 69.8425 21.5592 66.7903 21.5592H13.2102C10.158 21.5592 7.67578 19.0266 7.67578 15.9145V11.8516C7.67578 11.8516 72.3247 11.8516 72.3247 11.8516Z" fill="#DFEAEF"/>
<path d="M78.8289 14.7401V56.746C78.8289 58.342 77.5608 59.635 75.9954 59.635H72.8784C74.4437 59.635 75.7118 58.342 75.7118 56.746V14.7401C75.7118 13.1441 74.4437 11.8511 72.8784 11.8511H75.9954C77.5608 11.8511 78.8289 13.1441 78.8289 14.7401Z" fill="#DFEAEF"/>
<path d="M66.7903 19.0826H13.2107C11.4951 19.0826 10.1045 17.6645 10.1045 15.9154V4.36198C10.1045 2.61272 11.4953 1.19482 13.2107 1.19482H66.7903C68.5059 1.19482 69.8965 2.61287 69.8965 4.36198V15.9151C69.8965 17.6645 68.5057 19.0826 66.7903 19.0826Z" fill="#FBE2A6"/>
<path d="M33.7994 5.72021L35.2402 8.69667L38.4617 9.17398L36.1305 11.4909L36.6808 14.7624L33.7994 13.2177L30.918 14.7624L31.4683 11.4909L29.1372 9.17398L32.3586 8.69667L33.7994 5.72021Z" fill="white"/>
<path d="M46.0933 5.72021L47.5341 8.69667L50.7555 9.17398L48.4244 11.4909L48.9747 14.7624L46.0933 13.2177L43.2119 14.7624L43.7622 11.4909L41.4312 9.17398L44.6526 8.69667L46.0933 5.72021Z" fill="white"/>
<path d="M21.6137 5.72021L23.0543 8.69667L26.2759 9.17398L23.9448 11.4909L24.4951 14.7624L21.6137 13.2177L18.7323 14.7624L19.2824 11.4909L16.9512 9.17398L20.1729 8.69667L21.6137 5.72021Z" fill="white"/>
<path d="M58.3873 5.72021L59.8281 8.69667L63.0496 9.17398L60.7184 11.4909L61.2687 14.7624L58.3873 13.2177L55.5059 14.7624L56.0562 11.4909L53.7251 9.17398L56.9465 8.69667L58.3873 5.72021Z" fill="white"/>
<path d="M27.8909 58.4398H4.00469C3.08891 58.4398 2.34375 57.68 2.34375 56.7462V14.741C2.34375 13.8063 3.08891 13.0459 4.00469 13.0459H8.93219V15.9151C8.93219 18.3204 10.8513 20.2771 13.2103 20.2771H66.7897C69.1488 20.2771 71.068 18.3204 71.068 15.9151V13.0459H75.9945C76.9103 13.0459 77.6555 13.8061 77.6555 14.741V25.4008C77.6555 26.0608 78.18 26.5957 78.8273 26.5957C79.4747 26.5957 79.9992 26.0608 79.9992 25.4008V14.741C79.9992 12.4886 78.2028 10.6562 75.9945 10.6562H71.068V4.36201C71.068 1.95669 69.1488 0 66.7897 0H65.4433C64.7959 0 64.2714 0.534816 64.2714 1.19485C64.2714 1.85489 64.7959 2.3897 65.4433 2.3897H66.7897C67.8564 2.3897 68.7242 3.27453 68.7242 4.36201V15.9153C68.7242 17.0027 67.8564 17.8876 66.7897 17.8876H13.2105C12.1439 17.8876 11.2761 17.0027 11.2761 15.9153V11.8636C11.2761 11.8595 11.2767 11.8555 11.2767 11.8513C11.2767 11.8472 11.2761 11.8432 11.2761 11.8391V4.36233C11.2761 3.27485 12.1439 2.39002 13.2105 2.39002H60.7041C61.3514 2.39002 61.8759 1.85521 61.8759 1.19517C61.8759 0.535134 61.3514 0.000318452 60.7041 0.000318452H13.2105C10.8514 0.000318452 8.93234 1.95701 8.93234 4.36233V10.6566H4.00469C1.79641 10.6566 0 12.4891 0 14.7415V56.7467C0 58.9983 1.79641 60.8299 4.00469 60.8299H27.8909C28.5383 60.8299 29.0628 60.2951 29.0628 59.6351C29.0628 58.975 28.5384 58.4398 27.8909 58.4398Z" fill="#5D6174"/>
<path d="M78.8285 29.0391C78.1812 29.0391 77.6566 29.5739 77.6566 30.2339V56.7472C77.6566 57.6811 76.9113 58.441 75.9954 58.441H67.4985C67.091 58.441 66.7126 58.6569 66.4995 59.0114L62.8305 65.1129C62.5604 65.5624 62.1305 65.6109 61.9582 65.6109C61.7859 65.6109 61.356 65.5623 61.0859 65.1131L57.4171 59.0114C57.2041 58.6569 56.8259 58.441 56.418 58.441H32.6309C31.9835 58.441 31.459 58.9758 31.459 59.6359C31.459 60.2959 31.9835 60.8307 32.6309 60.8307H55.7618L59.0877 66.3619C59.7046 67.3879 60.7777 68.0005 61.9582 68.0005C63.1387 68.0005 64.2116 67.3878 64.8285 66.3618L68.1545 60.8307H75.9952C78.2037 60.8307 80.0002 58.9989 80.0002 56.7472V30.2339C80.0004 29.5739 79.4759 29.0391 78.8285 29.0391Z" fill="#5D6174"/>
<path d="M9.8916 25.8365H17.9332C18.5805 25.8365 19.105 25.3017 19.105 24.6416C19.105 23.9816 18.5805 23.4468 17.9332 23.4468H9.8916C9.24426 23.4468 8.71973 23.9816 8.71973 24.6416C8.71973 25.3017 9.24426 25.8365 9.8916 25.8365Z" fill="#5D6174"/>
<path d="M57.3841 29.7329C57.3841 29.0729 56.8596 28.5381 56.2122 28.5381H9.8916C9.24426 28.5381 8.71973 29.0729 8.71973 29.7329C8.71973 30.393 9.24426 30.9278 9.8916 30.9278H56.2122C56.8596 30.9278 57.3841 30.3928 57.3841 29.7329Z" fill="#5D6174"/>
<path d="M15.3203 40.2735H41.4756C42.123 40.2735 42.6475 39.7387 42.6475 39.0786C42.6475 38.4186 42.123 37.8838 41.4756 37.8838H15.3203C14.673 37.8838 14.1484 38.4186 14.1484 39.0786C14.1484 39.7387 14.673 40.2735 15.3203 40.2735Z" fill="#5D6174"/>
<path d="M15.3203 46.2994H56.7094C57.3567 46.2994 57.8813 45.7646 57.8813 45.1045C57.8813 44.4445 57.3567 43.9097 56.7094 43.9097H15.3203C14.673 43.9097 14.1484 44.4445 14.1484 45.1045C14.1484 45.7646 14.673 46.2994 15.3203 46.2994Z" fill="#5D6174"/>
<path d="M15.3203 52.3267H67.3709C68.0183 52.3267 68.5428 51.7919 68.5428 51.1319C68.5428 50.4718 68.0183 49.937 67.3709 49.937H15.3203C14.673 49.937 14.1484 50.4718 14.1484 51.1319C14.1484 51.7919 14.673 52.3267 15.3203 52.3267Z" fill="#5D6174"/>
<path d="M56.2117 25.8365C56.8591 25.8365 57.3836 25.3017 57.3836 24.6416C57.3836 23.9816 56.8591 23.4468 56.2117 23.4468H23.2549C22.6075 23.4468 22.083 23.9816 22.083 24.6416C22.083 25.3017 22.6075 25.8365 23.2549 25.8365H56.2117Z" fill="#5D6174"/>
<path d="M7.28125 37.9214V40.1547C7.28125 40.8147 7.80578 41.3495 8.45312 41.3495C9.10047 41.3495 9.625 40.8147 9.625 40.1547V37.9214C9.625 37.2614 9.10047 36.7266 8.45312 36.7266C7.80578 36.7266 7.28125 37.2615 7.28125 37.9214Z" fill="#5D6174"/>
<path d="M10.1582 37.9214V40.1547C10.1582 40.8147 10.6827 41.3495 11.3301 41.3495C11.9774 41.3495 12.502 40.8147 12.502 40.1547V37.9214C12.502 37.2614 11.9774 36.7266 11.3301 36.7266C10.6827 36.7266 10.1582 37.2615 10.1582 37.9214Z" fill="#5D6174"/>
<path d="M70.1865 49.481V51.7142C70.1865 52.3743 70.7111 52.9091 71.3584 52.9091C72.0057 52.9091 72.5303 52.3743 72.5303 51.7142V49.481C72.5303 48.8209 72.0057 48.2861 71.3584 48.2861C70.7111 48.2861 70.1865 48.8209 70.1865 49.481Z" fill="#5D6174"/>
<path d="M73.0635 49.481V51.7142C73.0635 52.3743 73.588 52.9091 74.2354 52.9091C74.8827 52.9091 75.4072 52.3743 75.4072 51.7142V49.481C75.4072 48.8209 74.8827 48.2861 74.2354 48.2861C73.588 48.2861 73.0635 48.8209 73.0635 49.481Z" fill="#5D6174"/>
<path d="M51.7727 40.2735C52.42 40.2735 52.9445 39.7387 52.9445 39.0786C52.9445 38.4186 52.42 37.8838 51.7727 37.8838H46.625C45.9777 37.8838 45.4531 38.4186 45.4531 39.0786C45.4531 39.7387 45.9777 40.2735 46.625 40.2735H51.7727Z" fill="#5D6174"/>
<path d="M39.5771 8.80471C39.4393 8.37202 39.0726 8.0569 38.631 7.99158L36.0191 7.6046L34.8512 5.19148C34.6537 4.78364 34.2465 4.52539 33.8002 4.52539C33.3543 4.52539 32.9468 4.78364 32.7493 5.19148L31.5812 7.6046L28.9693 7.99158C28.5279 8.0569 28.161 8.37218 28.0232 8.80471C27.8854 9.23725 28.0004 9.71201 28.3196 10.0295L30.2096 11.908L29.7635 14.5602C29.6882 15.0084 29.869 15.4615 30.2298 15.7288C30.5905 15.996 31.0688 16.0317 31.4638 15.8198L33.7999 14.5677L36.1358 15.8198C36.3074 15.9117 36.4946 15.9569 36.681 15.9569C36.9241 15.9569 37.1658 15.88 37.3699 15.7286C37.7308 15.4613 37.9116 15.0084 37.8362 14.5601L37.3901 11.9078L39.2801 10.0294C39.6001 9.71201 39.7149 9.23709 39.5771 8.80471ZM35.3135 10.6352C35.0373 10.9097 34.9113 11.3051 34.9766 11.6928L35.1254 12.5781L34.3458 12.1602C34.0044 11.9773 33.5968 11.9773 33.2552 12.1602L32.4755 12.5782L32.6243 11.6928C32.6896 11.3051 32.5635 10.9097 32.2874 10.6352L31.6566 10.0082L32.5283 9.87897C32.9101 9.82257 33.2401 9.57802 33.4107 9.2253L33.8005 8.41981L34.1902 9.2253C34.361 9.57802 34.6908 9.82241 35.0726 9.87897L35.9443 10.0082L35.3135 10.6352Z" fill="#5D6174"/>
<path d="M51.8701 8.80471C51.7322 8.37202 51.3655 8.0569 50.924 7.99158L48.3122 7.6046L47.1441 5.19148C46.9466 4.78364 46.5393 4.52539 46.0932 4.52539C45.6471 4.52539 45.2397 4.78364 45.0422 5.19148L43.8741 7.6046L41.2623 7.99158C40.8208 8.0569 40.454 8.37218 40.3162 8.80471C40.1783 9.23725 40.2933 9.71201 40.6126 10.0295L42.5027 11.9078L42.0566 14.5601C41.9812 15.0082 42.1619 15.4613 42.5227 15.7286C42.8835 15.9958 43.3618 16.0315 43.7568 15.8196L46.0929 14.5676L48.429 15.8196C48.6005 15.9115 48.7877 15.9568 48.9741 15.9568C49.2172 15.9568 49.459 15.8798 49.663 15.7285C50.024 15.4612 50.2047 15.0082 50.1291 14.5599L49.683 11.9077L51.573 10.0292C51.8929 9.71201 52.0079 9.23709 51.8701 8.80471ZM47.6063 10.6352C47.3301 10.9097 47.2041 11.3051 47.2694 11.6928L47.4183 12.5781L46.6387 12.1602C46.4679 12.0687 46.2805 12.023 46.0933 12.023C45.9062 12.023 45.7188 12.0687 45.548 12.1602L44.7683 12.5781L44.9173 11.6928C44.9826 11.3051 44.8565 10.9097 44.5804 10.6351L43.9496 10.0082L44.8212 9.87897C45.2029 9.82257 45.5329 9.57802 45.7035 9.2253L46.0933 8.41981L46.4832 9.2253C46.654 9.57802 46.9838 9.82241 47.3655 9.87897L48.2371 10.0082L47.6063 10.6352Z" fill="#5D6174"/>
<path d="M27.3896 8.80471C27.2518 8.37202 26.8851 8.0569 26.4435 7.99158L23.8316 7.6046L22.6635 5.19148C22.466 4.78364 22.0587 4.52539 21.6126 4.52539C21.1665 4.52539 20.7591 4.78364 20.5616 5.19148L19.3937 7.6046L16.7818 7.99158C16.3404 8.0569 15.9735 8.37218 15.8357 8.80471C15.6979 9.23725 15.8129 9.71201 16.1321 10.0295L18.0221 11.908L17.576 14.5602C17.5007 15.0084 17.6815 15.4615 18.0422 15.7288C18.2465 15.88 18.4882 15.9571 18.7312 15.9571C18.9176 15.9571 19.1049 15.9119 19.2763 15.8199L21.6122 14.5679L23.9483 15.8199C24.3433 16.0318 24.8218 15.996 25.1824 15.729C25.5433 15.4616 25.7241 15.0087 25.6487 14.5604L25.2026 11.9081L27.0926 10.0297C27.4124 9.71201 27.5274 9.23709 27.3896 8.80471ZM23.126 10.6352C22.8497 10.9097 22.7238 11.3051 22.7891 11.6928L22.9379 12.5782L22.1582 12.1602C21.9874 12.0687 21.8002 12.023 21.6129 12.023C21.4257 12.023 21.2383 12.0687 21.0676 12.1602L20.288 12.5781L20.4368 11.6928C20.5021 11.3051 20.376 10.9097 20.0999 10.6352L19.4691 10.0082L20.3408 9.87897C20.7226 9.82257 21.0526 9.57802 21.2232 9.2253L21.6129 8.41981L22.0027 9.2253C22.1735 9.57802 22.5033 9.82241 22.8851 9.87897L23.7568 10.0082L23.126 10.6352Z" fill="#5D6174"/>
<path d="M59.4379 5.19148C59.2404 4.78364 58.8331 4.52539 58.387 4.52539C57.9409 4.52539 57.5335 4.78364 57.336 5.19148L56.1679 7.60461L53.5562 7.99158C53.1148 8.0569 52.7479 8.37218 52.6101 8.80472C52.4723 9.23725 52.5873 9.71201 52.9065 10.0295L54.7965 11.908L54.3504 14.5602C54.2749 15.0084 54.4557 15.4615 54.8165 15.7288C55.1773 15.996 55.6556 16.0317 56.0506 15.8198L58.3867 14.5677L60.7228 15.8198C60.8943 15.9117 61.0815 15.9569 61.2679 15.9569C61.511 15.9569 61.7528 15.88 61.9568 15.7287C62.3178 15.4613 62.4985 15.0084 62.4229 14.5601L61.9768 11.9078L63.867 10.0295C64.1864 9.71201 64.3012 9.23709 64.1634 8.80472C64.0256 8.37202 63.6589 8.0569 63.2173 7.99158L60.6054 7.60461L59.4379 5.19148ZM59.9001 10.6352C59.6239 10.9099 59.4979 11.3053 59.5632 11.6929L59.7121 12.5782L58.9324 12.1603C58.7617 12.0689 58.5743 12.0232 58.3871 12.0232C58.1999 12.0232 58.0126 12.0689 57.8418 12.1603L57.0621 12.5782L57.211 11.6929C57.2764 11.3053 57.1503 10.9099 56.8742 10.6354L56.2434 10.0083L57.1149 9.87913C57.4967 9.82273 57.8267 9.57819 57.9973 9.22546L58.3871 8.41997L58.777 9.22546C58.9478 9.57819 59.2776 9.82257 59.6593 9.87913L60.5309 10.0083L59.9001 10.6352Z" fill="#5D6174"/>
</svg>
