<svg width="80" height="80" viewBox="0 0 80 80" fill="none" xmlns="http://www.w3.org/2000/svg">
<path d="M69.4174 2.15764L71.674 6.72671C71.8296 7.04187 72.1304 7.2603 72.4784 7.31077L77.5215 8.04218C78.3976 8.16921 78.7476 9.24578 78.1138 9.86375L74.4657 13.4219C74.214 13.6673 74.0993 14.0209 74.1588 14.3673L75.0216 19.3897C75.1715 20.2622 74.2559 20.9277 73.4723 20.516L68.961 18.1458C68.6498 17.9824 68.278 17.9824 67.9669 18.1461L63.4569 20.5186C62.6735 20.9308 61.7576 20.2656 61.9069 19.3931L62.7671 14.3703C62.8265 14.0239 62.7115 13.6703 62.4597 13.425L58.8097 9.8689C58.1757 9.25125 58.5252 8.17452 59.4011 8.04702L64.444 7.31296C64.7918 7.26234 65.0926 7.04374 65.248 6.72843L67.5021 2.15811C67.8935 1.3642 69.0255 1.36389 69.4174 2.15764Z" fill="#92D8F1"/>
<path d="M40.9561 2.15764L43.2127 6.72671C43.3683 7.04187 43.6691 7.2603 44.0171 7.31077L49.0602 8.04218C49.9363 8.16921 50.2863 9.24578 49.6526 9.86375L46.0043 13.4219C45.7526 13.6673 45.6379 14.0209 45.6974 14.3673L46.5602 19.3897C46.7101 20.2622 45.7944 20.9277 45.0108 20.516L40.4996 18.1458C40.1883 17.9824 39.8166 17.9824 39.5055 18.1461L34.9955 20.5186C34.2121 20.9308 33.2961 20.2656 33.4455 19.3931L34.3057 14.3703C34.365 14.0239 34.25 13.6703 33.9983 13.425L30.3483 9.8689C29.7143 9.25125 30.0638 8.17452 30.9397 8.04702L35.9825 7.31296C36.3304 7.26234 36.6311 7.04374 36.7866 6.72843L39.0407 2.15811C39.4321 1.3642 40.5641 1.36389 40.9561 2.15764Z" fill="#92D8F1"/>
<path d="M12.4949 2.15764L14.7514 6.72671C14.9071 7.04187 15.2079 7.2603 15.5558 7.31077L20.599 8.04218C21.4751 8.16921 21.8251 9.24578 21.1913 9.86375L17.5429 13.4219C17.2911 13.6673 17.1764 14.0209 17.236 14.3673L18.0988 19.3897C18.2486 20.2622 17.333 20.9277 16.5494 20.516L12.0382 18.1458C11.7269 17.9824 11.3552 17.9824 11.0441 18.1461L6.53408 20.5186C5.75065 20.9308 4.83471 20.2656 4.98408 19.3931L5.84424 14.3703C5.90361 14.0239 5.78861 13.6703 5.5369 13.425L1.88689 9.8689C1.25282 9.25125 1.60236 8.17452 2.4783 8.04702L7.52112 7.31296C7.86893 7.26234 8.16971 7.04374 8.32518 6.72843L10.5792 2.15811C10.971 1.3642 12.1028 1.36389 12.4949 2.15764Z" fill="#92D8F1"/>
<path d="M58.6827 78.4371L60.8868 71.4087C61.9843 67.9088 62.5427 64.2622 62.5427 60.5946V47.4103C62.5427 45.3353 60.8607 43.6533 58.7857 43.6533C56.7107 43.6533 55.0287 45.3353 55.0287 47.4103V51.9961V46.4219V44.6419C55.0287 42.5669 53.3466 40.8848 51.2716 40.8848C49.1966 40.8848 47.5146 42.5669 47.5146 44.6419V45.9849V51.9961V42.2622C47.5146 40.1872 45.8325 38.5052 43.7575 38.5052C41.6825 38.5052 40.0005 40.1872 40.0005 42.2622V51.9961V29.948C40.0005 27.873 38.3185 26.1909 36.2435 26.1909C34.1685 26.1909 32.4864 27.873 32.4864 29.948V57.1807L28.0741 49.0103C27.0549 47.123 24.7188 46.3896 22.8038 47.3556C21.1616 48.1841 20.3055 50.0339 20.7369 51.8221L23.5973 63.6786C24.2142 66.2357 25.3308 68.6454 26.8827 70.7691L32.4861 78.4373H58.6827V78.4371Z" fill="white"/>
<path d="M32.4861 43.688C31.6231 43.688 30.9236 44.3877 30.9236 45.2505V50.9989L29.4486 48.2677C28.017 45.6172 24.7887 44.6033 22.0996 45.9605C19.7982 47.1216 18.6131 49.6825 19.2176 52.1883L22.0781 64.0447C22.7467 66.8163 23.9387 69.3888 25.6209 71.6909L31.2247 79.3592C31.5306 79.7779 32.0057 79.9999 32.4875 79.9999C32.8073 79.9999 33.1301 79.902 33.4081 79.6988C34.1048 79.1896 34.257 78.212 33.7478 77.5152L28.144 69.8469C26.7062 67.8794 25.6875 65.6808 25.116 63.3119L22.2556 51.4553C21.9929 50.3671 22.5078 49.2549 23.5073 48.7505C24.6754 48.1611 26.0773 48.6013 26.699 49.7525L31.1114 57.9229C31.4514 58.5524 32.1756 58.8702 32.8692 58.6952C33.5628 58.5199 34.0487 57.8958 34.0487 57.1804V45.2505C34.0486 44.3875 33.349 43.688 32.4861 43.688Z" fill="#5D6174"/>
<path d="M58.7853 42.0906C57.8632 42.0906 56.9953 42.3267 56.2384 42.7412C55.4717 40.7441 53.5349 39.322 51.271 39.322C50.2946 39.322 49.3796 39.5876 48.5923 40.0486C47.7507 38.2176 45.9006 36.9423 43.757 36.9423C42.9746 36.9423 42.232 37.1134 41.5624 37.418V29.9475C41.5624 27.0143 39.1762 24.6279 36.2429 24.6279C33.3096 24.6279 30.9233 27.0142 30.9233 29.9475V32.6559C30.9233 33.5187 31.6229 34.2184 32.4858 34.2184C33.3488 34.2184 34.0483 33.5187 34.0483 32.6559V29.9476C34.0483 28.7376 35.0329 27.7531 36.2429 27.7531C37.4529 27.7531 38.4376 28.7378 38.4376 29.9478V51.9958C38.4376 52.8586 39.1371 53.5583 40.0001 53.5583C40.863 53.5583 41.5626 52.8586 41.5626 51.9958V42.262C41.5626 41.052 42.547 40.0675 43.7571 40.0675C44.9673 40.0675 45.9516 41.052 45.9516 42.262V51.9958C45.9516 52.8586 46.6512 53.5583 47.5142 53.5583C48.3771 53.5583 49.0767 52.8586 49.0767 51.9958V44.6417C49.0767 43.4316 50.061 42.447 51.2712 42.447C52.4814 42.447 53.4657 43.4316 53.4657 44.6417V51.9958C53.4657 52.8586 54.1653 53.5583 55.0282 53.5583C55.8912 53.5583 56.5907 52.8586 56.5907 51.9958V47.41C56.5907 46.2 57.5753 45.2155 58.7853 45.2155C59.9953 45.2155 60.9798 46.2 60.9798 47.41V60.5943C60.9798 64.1074 60.4467 67.5886 59.3954 70.9408L57.1914 77.9693C56.9332 78.7927 57.3914 79.6696 58.2148 79.9277C58.3704 79.9766 58.5278 79.9998 58.6828 79.9998C59.3475 79.9996 59.9639 79.5721 60.1732 78.9043L62.3773 71.8758C63.5236 68.2205 64.1048 64.4247 64.1048 60.5943V47.41C64.1048 44.477 61.7186 42.0906 58.7853 42.0906Z" fill="#5D6174"/>
<path d="M79.8693 8.2858C79.5574 7.32658 78.7435 6.64079 77.7452 6.49595L72.9594 5.80204L70.818 1.46578C70.3716 0.561563 69.4678 0 68.4596 0C68.4594 0 68.4591 0 68.4589 0C67.4502 0.00015625 66.5464 0.562345 66.1003 1.46703L63.9613 5.80423L59.1758 6.50095C58.1777 6.64626 57.3641 7.33251 57.0528 8.29205C56.7414 9.25142 56.9969 10.2846 57.7192 10.9883L61.1831 14.363L60.3669 19.1296C60.1967 20.1238 60.598 21.1096 61.4141 21.7021C61.875 22.0369 62.4142 22.2068 62.957 22.2068C63.3753 22.2068 63.7958 22.1058 64.1842 21.9016L68.4641 19.65L72.7452 21.8994C73.638 22.3688 74.6996 22.2916 75.5154 21.6983C76.3311 21.1052 76.7319 20.1194 76.561 19.1252L75.7422 14.3591L79.2043 10.9827C79.9263 10.2783 80.1811 9.24486 79.8693 8.2858ZM73.3744 12.3033C72.7543 12.9078 72.4718 13.7785 72.6185 14.6319L73.3116 18.6668L69.6875 16.7627C68.9208 16.3596 68.0055 16.36 67.2391 16.7632L63.616 18.6693L64.307 14.6338C64.453 13.7803 64.17 12.9102 63.5497 12.3058L60.6172 9.44892L64.6688 8.85924C65.5255 8.73439 66.2658 8.19627 66.6488 7.41955L68.4597 3.74798L70.2725 7.41845C70.656 8.19502 71.3964 8.73267 72.2536 8.8572L76.3052 9.44486L73.3744 12.3033Z" fill="#5D6174"/>
<path d="M32.7217 14.3628L31.9055 19.1294C31.7353 20.1236 32.1366 21.1094 32.9526 21.7019C33.4136 22.0368 33.9528 22.2066 34.4956 22.2066C34.9139 22.2066 35.3344 22.1057 35.7228 21.9015L40.0028 19.65L44.2839 21.8993C45.1767 22.3686 46.2383 22.2915 47.0541 21.6982C47.8699 21.105 48.2706 20.1193 48.0997 19.125L47.281 14.3589L50.743 10.9825C51.465 10.2783 51.7199 9.24502 51.408 8.2858C51.0961 7.32658 50.2824 6.64064 49.2841 6.49595L44.4983 5.80204L42.3567 1.46578C41.9102 0.561564 41.0066 0 39.9981 0C39.998 0 39.9977 0 39.9973 0C38.9888 0.00015625 38.085 0.562345 37.6389 1.46703L35.4998 5.80423L30.7144 6.50095C29.7162 6.64626 28.9026 7.33251 28.5914 8.29205C28.28 9.25142 28.5355 10.2846 29.2578 10.9883L32.7217 14.3628ZM36.2073 8.85924C37.0641 8.73439 37.8044 8.19627 38.1875 7.41955L39.9984 3.74782L41.8113 7.41845C42.1945 8.19486 42.935 8.73267 43.7924 8.85721L47.8439 9.44486L44.9131 12.3033C44.2931 12.9077 44.0106 13.7782 44.1572 14.6319L44.8503 18.6668L41.2263 16.7627C40.4594 16.3597 39.5439 16.3599 38.7778 16.7632L35.1545 18.6693L35.8456 14.6338C35.9916 13.7802 35.7086 12.91 35.0883 12.3058L32.1559 9.44893L36.2073 8.85924Z" fill="#5D6174"/>
<path d="M19.6387 19.1249L18.8199 14.3588L22.282 10.9824C23.004 10.2781 23.2588 9.24486 22.947 8.28564C22.6351 7.32642 21.8212 6.64064 20.8229 6.49579L16.0371 5.80189L13.8958 1.46578C13.4493 0.561563 12.5457 0 11.5373 0C11.5371 0 11.5368 0 11.5365 0C10.5279 0.00015625 9.62412 0.562345 9.17803 1.46703L7.03896 5.80423L2.25348 6.50095C1.25536 6.64626 0.441916 7.33251 0.130509 8.29189C-0.180898 9.25127 0.074259 10.2844 0.79676 10.9883L4.26067 14.363L3.44442 19.1296C3.27427 20.1238 3.67552 21.1096 4.49161 21.7022C4.95271 22.0369 5.49177 22.2069 6.03474 22.2068C6.45302 22.2068 6.87349 22.1058 7.26193 21.9016L11.5419 19.6502L15.823 21.8994C16.716 22.3685 17.7774 22.2914 18.5932 21.6985C19.4088 21.105 19.8095 20.1189 19.6387 19.1249ZM16.4523 12.3031C15.8321 12.9075 15.5494 13.7782 15.6962 14.6319L16.3893 18.6668L12.7654 16.7627C11.9987 16.3597 11.0832 16.3599 10.3169 16.7632L6.69349 18.6694L7.38443 14.6342C7.53068 13.7808 7.24771 12.9105 6.62724 12.306L3.69505 9.44892L7.74646 8.85924C8.60318 8.73439 9.3435 8.19627 9.72647 7.41955L11.5374 3.74782L13.3502 7.41845C13.7335 8.19486 14.474 8.73267 15.3313 8.8572L19.383 9.44486L16.4523 12.3031Z" fill="#5D6174"/>
<path d="M32.4863 37.5312C32.0754 37.5312 31.6723 37.6983 31.3816 37.9891C31.091 38.2798 30.9238 38.6827 30.9238 39.0938C30.9238 39.5047 31.091 39.9078 31.3816 40.1983C31.6723 40.4889 32.0754 40.6563 32.4863 40.6563C32.8973 40.6563 33.3004 40.4891 33.591 40.1983C33.8816 39.9078 34.0488 39.5047 34.0488 39.0938C34.0488 38.6827 33.8816 38.2797 33.591 37.9891C33.3004 37.6983 32.8974 37.5312 32.4863 37.5312Z" fill="#5D6174"/>
</svg>
