<svg width="25" height="25" viewBox="0 0 25 25" fill="none" xmlns="http://www.w3.org/2000/svg">
<path d="M0 18.4876L6.51235 25L25 6.51235L18.4878 0L0 18.4876ZM6.51235 22.8293L2.17075 18.4876L3.09337 17.565L4.17879 18.6505L5.26412 17.5651L4.17869 16.4797L5.26401 15.3944L7.00068 17.1309L8.0861 16.0455L6.34944 14.309L7.43476 13.2236L8.52009 14.309L9.60541 13.2236L8.52009 12.1383L9.60551 11.0529L11.3421 12.7895L12.4274 11.7042L10.6908 9.96756L11.7763 8.88213L12.8616 9.96756L13.947 8.88224L12.8618 7.79661L13.9472 6.71128L15.6838 8.44784L16.7691 7.36252L15.0325 5.62596L16.118 4.54053L17.2033 5.62586L18.2886 4.54053L17.2033 3.45511L18.4876 2.17075L22.8291 6.51235L6.51235 22.8293ZM20.17 7.14537C19.9103 6.88565 19.9103 6.46456 20.17 6.20474C20.4298 5.94503 20.8509 5.94503 21.1106 6.20474C21.3704 6.46456 21.3704 6.88565 21.1106 7.14537C20.851 7.40519 20.4299 7.40519 20.17 7.14537Z" fill="#DFE2E7"/>
</svg>
