<svg width="37" height="37" viewBox="0 0 37 37" fill="none" xmlns="http://www.w3.org/2000/svg">
<path d="M13.895 31.5732L23.1049 31.5732V5.42769L13.8951 5.42761L13.895 31.5732ZM21.5699 30.0382L15.43 30.0382L15.43 28.7334L16.965 28.7334L16.965 27.1986L15.43 27.1986L15.43 25.6637L17.8859 25.6636L17.8859 24.1286L15.43 24.1287L15.43 22.5938H16.9648L16.9648 21.0589L15.43 21.0589V19.5239L17.8859 19.5239L17.8859 17.9891L15.43 17.989V16.454L16.9649 16.454L16.965 14.9191L15.43 14.9188L15.43 13.3838H17.8859L17.8859 11.849L15.43 11.849V10.3139L16.9649 10.3139L16.9649 8.77907L15.43 8.77899L15.43 6.96264L21.5698 6.96271L21.5699 30.0382ZM20.1371 9.29064C19.7698 9.29064 19.4721 8.99289 19.472 8.62552C19.4721 8.25815 19.7698 7.9604 20.1371 7.9604C20.5046 7.9604 20.8023 8.25815 20.8023 8.62552C20.8024 8.99281 20.5046 9.29057 20.1371 9.29064Z" fill="#DFE2E7"/>
</svg>
