<svg width="37" height="37" viewBox="0 0 37 37" fill="none" xmlns="http://www.w3.org/2000/svg">
<path d="M5.42775 13.8953L5.42775 23.1052H31.5732L31.5733 13.8954L5.42775 13.8953ZM6.9627 21.5702L6.9627 15.4303L8.26748 15.4303L8.26748 16.9653L9.80236 16.9653L9.80236 15.4303L11.3372 15.4303L11.3373 17.8862L12.8723 17.8862L12.8723 15.4303L14.4071 15.4303V16.9651L15.942 16.9651L15.942 15.4303H17.477L17.477 17.8862L19.0118 17.8862L19.0119 15.4303H20.5469L20.5469 16.9652L22.0818 16.9653L22.0821 15.4303L23.6171 15.4303V17.8862L25.1519 17.8862L25.1519 15.4303H26.687L26.687 16.9652L28.2218 16.9652L28.2219 15.4303L30.0383 15.4303L30.0382 21.5701L6.9627 21.5702ZM27.7103 20.1374C27.7103 19.7701 28.008 19.4724 28.3754 19.4723C28.7428 19.4724 29.0405 19.7701 29.0405 20.1374C29.0405 20.5049 28.7428 20.8026 28.3754 20.8026C28.0081 20.8027 27.7103 20.5049 27.7103 20.1374Z" fill="#DFE2E7"/>
</svg>
