<svg width="80" height="80" viewBox="0 0 80 80" fill="none" xmlns="http://www.w3.org/2000/svg">
<path d="M16.5625 0H7.1875C5.89294 0 4.84375 1.04919 4.84375 2.34375V77.6562C4.84375 78.9508 5.89294 80 7.1875 80H16.5625C17.8571 80 18.9062 78.9508 18.9062 77.6562V14.2188H32.9688V18.9062H30.625C26.748 18.9062 23.5938 22.0605 23.5938 25.9375V63.4375C23.5938 67.3145 26.748 70.4688 30.625 70.4688H68.125C72.002 70.4688 75.1562 67.3145 75.1562 63.4375V25.9375C75.1562 22.0605 72.002 18.9062 68.125 18.9062H65.7812V14.2188H72.8125C74.1071 14.2188 75.1562 13.1696 75.1562 11.875C75.1562 10.5804 74.1071 9.53125 72.8125 9.53125H18.9062V2.34375C18.9062 1.04919 17.8571 0 16.5625 0ZM70.4688 25.9375V63.4375C70.4688 64.7296 69.4171 65.7812 68.125 65.7812H30.625C29.3329 65.7812 28.2812 64.7296 28.2812 63.4375V25.9375C28.2812 24.6454 29.3329 23.5938 30.625 23.5938H68.125C69.4171 23.5938 70.4688 24.6454 70.4688 25.9375ZM61.0938 18.9062H37.6562V14.2188H61.0938V18.9062ZM14.2188 75.3125H9.53125V4.6875H14.2188V75.3125Z" fill="#2F344C"/>
<path d="M47.7179 28.9679L33.6554 43.0304C32.7399 43.9453 32.7399 45.4291 33.6554 46.3446C34.5703 47.2601 36.0547 47.2601 36.9696 46.3446L37.6562 45.658V58.75C37.6562 60.0446 38.7061 61.0938 40 61.0938H58.75C60.0446 61.0938 61.0938 60.0446 61.0938 58.75V45.6586L61.7804 46.3446C62.6959 47.2601 64.1797 47.2601 65.0952 46.3446C66.0101 45.4297 66.0101 43.9459 65.0952 43.0304L51.0327 28.9679C50.1172 28.0524 48.6328 28.0524 47.7179 28.9679ZM56.4062 56.4062H51.7188V49.375C51.7188 48.0804 50.6696 47.0312 49.375 47.0312C48.0804 47.0312 47.0312 48.0804 47.0312 49.375V56.4062H42.3438V40.9711L49.375 33.9398L56.4062 40.9711V56.4062Z" fill="#2F344C"/>
<path d="M51.7188 40C51.7188 41.2946 50.6696 42.3438 49.375 42.3438C48.0804 42.3438 47.0312 41.2946 47.0312 40C47.0312 38.7054 48.0804 37.6562 49.375 37.6562C50.6696 37.6562 51.7188 38.7054 51.7188 40Z" fill="#2F344C"/>
</svg>
