<svg width="40" height="40" viewBox="0 0 40 40" fill="none" xmlns="http://www.w3.org/2000/svg">
<g clip-path="url(#clip0)">
<path fill-rule="evenodd" clip-rule="evenodd" d="M33.8745 12.9556L17.3279 0.78125L0.78125 12.9556L2.62451 15.4703L4.18701 14.3207L17.3279 4.6521L30.4688 14.3207L32.0312 15.4703L33.8745 12.9556Z" fill="#DFE2E7"/>
<path fill-rule="evenodd" clip-rule="evenodd" d="M30.4688 14.3207L17.3279 4.6521L4.18701 14.3207V28.9062H12.7982V17.1875C12.7982 16.7578 13.1497 16.4062 13.5794 16.4062H21.0764C21.506 16.4062 21.8576 16.7578 21.8576 17.1875V28.9062C22.5943 24.819 26.1694 21.7184 30.4688 21.7184V14.3207Z" fill="white"/>
<path fill-rule="evenodd" clip-rule="evenodd" d="M21.8578 17.1875C21.8578 16.7578 21.5062 16.4062 21.0765 16.4062H13.5796C13.1499 16.4062 12.7983 16.7578 12.7983 17.1875V28.9062H21.8578V17.1875Z" fill="#DFE2E7"/>
<path fill-rule="evenodd" clip-rule="evenodd" d="M30.4686 21.7185C26.1693 21.7185 22.5941 24.8191 21.8574 28.9063C21.7659 29.4132 21.7183 29.9354 21.7183 30.4685C21.7183 35.3013 25.6358 39.2188 30.4686 39.2188C35.301 39.2188 39.2186 35.3013 39.2186 30.4685C39.2186 25.636 35.301 21.7185 30.4686 21.7185Z" fill="#DFE2E7"/>
<path fill-rule="evenodd" clip-rule="evenodd" d="M32.4888 27.2805C33.0988 26.6705 34.0879 26.6705 34.6983 27.2805C35.3083 27.8906 35.3083 28.88 34.6983 29.49L30.5314 33.6566C29.9213 34.2666 28.9323 34.2666 28.3219 33.6566L26.2388 31.5731C25.6287 30.9631 25.6287 29.9737 26.2388 29.3637C26.8488 28.7536 27.8382 28.7536 28.4483 29.3637L29.4267 30.3424L32.4888 27.2805Z" fill="white"/>
<path d="M31.2514 20.9695V15.8652L31.5697 16.0995C31.7366 16.2225 31.9456 16.2738 32.1507 16.2424C32.3558 16.2109 32.5401 16.0992 32.6628 15.932L34.5061 13.4174C34.7609 13.0698 34.6861 12.5815 34.3388 12.3264L17.7922 0.151978C17.5169 -0.0506592 17.1416 -0.0506592 16.8663 0.151978L11.1098 4.38751C10.7622 4.64294 10.6877 5.13214 10.9434 5.47974C11.1992 5.82733 11.6884 5.90179 12.0357 5.64575L17.3292 1.7511L32.7846 13.1226L31.8651 14.3771L17.7922 4.02283C17.5169 3.82019 17.1416 3.82019 16.8663 4.02283L2.79341 14.3771L1.87391 13.1229L7.00147 9.34998C7.34907 9.09424 7.42353 8.60504 7.1678 8.25775C6.91206 7.91016 6.42317 7.83569 6.07557 8.09143L0.319651 12.3264C-0.0273337 12.5818 -0.102102 13.0698 0.15272 13.4174L1.99568 15.932C2.11836 16.0992 2.30268 16.2109 2.50776 16.2424C2.54713 16.2485 2.5865 16.2515 2.62586 16.2515C2.79157 16.2515 2.95393 16.1987 3.08882 16.0995L3.40711 15.8652V28.9062C3.40711 29.3378 3.75685 29.6875 4.18836 29.6875H20.9712C20.9495 29.9466 20.9385 30.2072 20.9385 30.4688C20.9385 35.7242 25.2141 40 30.4698 40C35.7255 40 40.0014 35.7242 40.0014 30.4688C40.0014 25.4761 36.1427 21.3681 31.2514 20.9695ZM13.5808 28.125V17.1875H21.0777V28.125H13.5808ZM30.4701 38.4375C26.0759 38.4375 22.501 34.8627 22.501 30.4688C22.501 28.6435 23.134 26.86 24.2833 25.4465C24.5555 25.1117 24.5048 24.6194 24.1701 24.3472C23.8353 24.0753 23.3433 24.126 23.0711 24.4608C22.9197 24.6469 22.7763 24.8386 22.6402 25.0348V17.1875C22.6402 16.326 21.9392 15.625 21.0777 15.625H13.5811C12.7196 15.625 12.0186 16.326 12.0186 17.1875V28.125H4.96961V14.7156L17.3292 5.62195L29.6889 14.7156V20.9698C29.4468 20.9894 29.2055 21.0178 28.9668 21.0556C28.5405 21.1234 28.2499 21.5234 28.3174 21.9498C28.3848 22.3758 28.7852 22.6663 29.2113 22.5989C29.6263 22.5333 30.0499 22.4997 30.4698 22.4997C34.864 22.4997 38.4389 26.0745 38.4389 30.4684C38.4389 34.8627 34.864 38.4375 30.4701 38.4375Z" fill="#5D6174"/>
<path d="M19.514 21.875C19.0825 21.875 18.7324 22.2247 18.7324 22.6562C18.7324 23.0878 19.0825 23.4375 19.514 23.4375C19.9452 23.4375 20.2952 23.0878 20.2952 22.6562C20.2952 22.2247 19.9452 21.875 19.514 21.875Z" fill="#5D6174"/>
<path d="M9.05481 7.65025C9.21777 7.65025 9.38226 7.59929 9.52295 7.494L9.52325 7.4937C9.8684 7.2346 9.93829 6.7451 9.6792 6.39995C9.42041 6.0548 8.9306 5.98522 8.58545 6.24401C8.24029 6.50279 8.17041 6.9926 8.4292 7.33775C8.5827 7.54222 8.81708 7.65025 9.05481 7.65025Z" fill="#5D6174"/>
<path d="M26.0939 23.6721C26.2114 23.6721 26.3307 23.6455 26.4427 23.5894C26.8288 23.3965 26.985 22.9272 26.7922 22.5414C26.5993 22.1554 26.1299 21.9991 25.7439 22.192H25.7433C25.3575 22.3852 25.2013 22.8542 25.3942 23.2403C25.5312 23.514 25.8074 23.6721 26.0939 23.6721Z" fill="#5D6174"/>
<path d="M33.5934 26.042C32.9674 26.042 32.3791 26.2855 31.9362 26.7283L29.4268 29.2378L29.0008 28.8115C28.558 28.369 27.9696 28.1251 27.3437 28.1251C26.7174 28.1251 26.1291 28.369 25.6862 28.8115C24.7726 29.7252 24.7726 31.212 25.6862 32.1257L27.7697 34.2091C28.2125 34.6516 28.8009 34.8954 29.4268 34.8954C30.053 34.8954 30.6414 34.6516 31.0839 34.2091L35.2505 30.0425C35.6933 29.5997 35.9371 29.0114 35.9371 28.3854C35.9371 27.7592 35.6933 27.1708 35.2505 26.7283C34.808 26.2858 34.2196 26.042 33.5934 26.042ZM34.1457 28.9378L29.9792 33.1044C29.8318 33.2518 29.6355 33.3333 29.4268 33.3333C29.2184 33.3333 29.0221 33.2518 28.8744 33.1044L26.7913 31.0209C26.4867 30.7167 26.4867 30.2211 26.7913 29.9165C26.9436 29.7642 27.1435 29.6879 27.3437 29.6879C27.5435 29.6879 27.7437 29.7642 27.8957 29.9165L28.8744 30.8949C29.1796 31.2001 29.6743 31.2001 29.9792 30.8949L33.0413 27.8331C33.1887 27.6857 33.3849 27.6045 33.5934 27.6045C33.8021 27.6045 33.9983 27.6857 34.1457 27.8331C34.2934 27.9808 34.3746 28.1767 34.3746 28.3854C34.3746 28.5942 34.2934 28.7901 34.1457 28.9378Z" fill="#5D6174"/>
</g>
<defs>
<clipPath id="clip0">
<rect width="40" height="40" fill="white"/>
</clipPath>
</defs>
</svg>
