<svg width="40" height="40" viewBox="0 0 40 40" fill="none" xmlns="http://www.w3.org/2000/svg">
<g clip-path="url(#clip0)">
<path fill-rule="evenodd" clip-rule="evenodd" d="M33.8745 12.9556L17.3279 0.78125L0.78125 12.9556L2.62451 15.4703L4.18701 14.3207L17.3279 4.6521L30.4688 14.3207L32.0312 15.4703L33.8745 12.9556Z" fill="#D4FFF0"/>
<path fill-rule="evenodd" clip-rule="evenodd" d="M30.4692 14.3207L17.3284 4.6521L4.1875 14.3207V28.9062H12.7986V17.1875C12.7986 16.7578 13.1502 16.4062 13.5799 16.4062H21.0768C21.5065 16.4062 21.8581 16.7578 21.8581 17.1875V28.9062C22.5948 24.819 26.1699 21.7184 30.4692 21.7184V14.3207Z" fill="white"/>
<path fill-rule="evenodd" clip-rule="evenodd" d="M21.8583 17.1875C21.8583 16.7578 21.5067 16.4062 21.077 16.4062H13.5801C13.1504 16.4062 12.7988 16.7578 12.7988 17.1875V28.9062H21.8583V17.1875Z" fill="#D4FFF0"/>
<path fill-rule="evenodd" clip-rule="evenodd" d="M30.4691 21.7185C26.1697 21.7185 22.5946 24.8191 21.8579 28.9063C21.7664 29.4132 21.7188 29.9354 21.7188 30.4685C21.7188 35.3013 25.6363 39.2188 30.4691 39.2188C35.3015 39.2188 39.2191 35.3013 39.2191 30.4685C39.2191 25.636 35.3015 21.7185 30.4691 21.7185Z" fill="#D4FFF0"/>
<path fill-rule="evenodd" clip-rule="evenodd" d="M32.4888 27.2805C33.0988 26.6705 34.0879 26.6705 34.6983 27.2805C35.3083 27.8906 35.3083 28.88 34.6983 29.49L30.5314 33.6566C29.9213 34.2666 28.9323 34.2666 28.3219 33.6566L26.2388 31.5731C25.6287 30.9631 25.6287 29.9737 26.2388 29.3637C26.8488 28.7536 27.8382 28.7536 28.4483 29.3637L29.4267 30.3424L32.4888 27.2805Z" fill="white"/>
<path d="M31.2518 20.9695V15.8652L31.5701 16.0995C31.7371 16.2225 31.9461 16.2738 32.1512 16.2424C32.3563 16.2109 32.5406 16.0992 32.6633 15.932L34.5065 13.4174C34.7614 13.0698 34.6866 12.5815 34.3393 12.3264L17.7927 0.151978C17.5174 -0.0506592 17.142 -0.0506592 16.8668 0.151978L11.1102 4.38751C10.7626 4.64294 10.6882 5.13214 10.9439 5.47974C11.1997 5.82733 11.6889 5.90179 12.0361 5.64575L17.3297 1.7511L32.785 13.1226L31.8655 14.3771L17.7927 4.02283C17.5174 3.82019 17.142 3.82019 16.8668 4.02283L2.79389 14.3771L1.8744 13.1229L7.00196 9.34998C7.34956 9.09424 7.42402 8.60504 7.16828 8.25775C6.91255 7.91016 6.42366 7.83569 6.07606 8.09143L0.320139 12.3264C-0.0268455 12.5818 -0.101614 13.0698 0.153208 13.4174L1.99616 15.932C2.11885 16.0992 2.30317 16.2109 2.50825 16.2424C2.54762 16.2485 2.58699 16.2515 2.62635 16.2515C2.79206 16.2515 2.95442 16.1987 3.0893 16.0995L3.4076 15.8652V28.9062C3.4076 29.3378 3.75733 29.6875 4.18885 29.6875H20.9717C20.95 29.9466 20.939 30.2072 20.939 30.4688C20.939 35.7242 25.2145 40 30.4703 40C35.726 40 40.0018 35.7242 40.0018 30.4688C40.0018 25.4761 36.1432 21.3681 31.2518 20.9695ZM13.5812 28.125V17.1875H21.0782V28.125H13.5812ZM30.4706 38.4375C26.0764 38.4375 22.5015 34.8627 22.5015 30.4688C22.5015 28.6435 23.1345 26.86 24.2838 25.4465C24.556 25.1117 24.5053 24.6194 24.1705 24.3472C23.8358 24.0753 23.3438 24.126 23.0716 24.4608C22.9202 24.6469 22.7768 24.8386 22.6407 25.0348V17.1875C22.6407 16.326 21.9397 15.625 21.0782 15.625H13.5816C12.72 15.625 12.0191 16.326 12.0191 17.1875V28.125H4.9701V14.7156L17.3297 5.62195L29.6893 14.7156V20.9698C29.4473 20.9894 29.2059 21.0178 28.9673 21.0556C28.541 21.1234 28.2504 21.5234 28.3179 21.9498C28.3853 22.3758 28.7857 22.6663 29.2117 22.5989C29.6268 22.5333 30.0504 22.4997 30.4703 22.4997C34.8645 22.4997 38.4393 26.0745 38.4393 30.4684C38.4393 34.8627 34.8645 38.4375 30.4706 38.4375Z" fill="#1ACA8E"/>
<path d="M19.514 21.875H19.5134C19.0818 21.875 18.7324 22.2247 18.7324 22.6562C18.7324 23.0878 19.0825 23.4375 19.514 23.4375C19.9452 23.4375 20.2952 23.0878 20.2952 22.6562C20.2952 22.2247 19.9452 21.875 19.514 21.875Z" fill="#1ACA8E"/>
<path d="M9.0553 7.65025C9.21826 7.65025 9.38275 7.59929 9.52343 7.494L9.52374 7.4937C9.86889 7.2346 9.93878 6.7451 9.67968 6.39995C9.4209 6.0548 8.93109 5.98522 8.58594 6.24401C8.24078 6.50279 8.1709 6.9926 8.42969 7.33775C8.58319 7.54222 8.81756 7.65025 9.0553 7.65025Z" fill="#1ACA8E"/>
<path d="M26.0949 23.6722C26.2124 23.6722 26.3317 23.6457 26.4437 23.5895C26.8298 23.3966 26.986 22.9273 26.7931 22.5415C26.6003 22.1555 26.1309 21.9993 25.7449 22.1921H25.7443C25.3585 22.3853 25.2023 22.8543 25.3951 23.2404C25.5322 23.5141 25.8083 23.6722 26.0949 23.6722Z" fill="#1ACA8E"/>
<path d="M33.5943 26.0419C32.9684 26.0419 32.38 26.2854 31.9372 26.7282L29.4278 29.2377L29.0017 28.8113C28.5589 28.3688 27.9706 28.125 27.3446 28.125C26.7184 28.125 26.13 28.3688 25.6872 28.8113C24.7735 29.725 24.7735 31.2119 25.6872 32.1255L27.7707 34.209C28.2135 34.6515 28.8018 34.8953 29.4278 34.8953C30.054 34.8953 30.6424 34.6515 31.0849 34.209L35.2514 30.0424C35.6942 29.5996 35.9381 29.0112 35.9381 28.3853C35.9381 27.7591 35.6942 27.1707 35.2514 26.7282C34.8089 26.2857 34.2206 26.0419 33.5943 26.0419ZM34.1467 28.9377L29.9801 33.1042C29.8327 33.2516 29.6365 33.3331 29.4278 33.3331C29.2193 33.3331 29.0231 33.2516 28.8754 33.1042L26.7923 31.0208C26.4877 30.7166 26.4877 30.2209 26.7923 29.9164C26.9445 29.7641 27.1444 29.6878 27.3446 29.6878C27.5445 29.6878 27.7447 29.7641 27.8967 29.9164L28.8754 30.8948C29.1806 31.2 29.6753 31.2 29.9801 30.8948L33.0423 27.8329C33.1897 27.6855 33.3859 27.6044 33.5943 27.6044C33.8031 27.6044 33.9993 27.6855 34.1467 27.8329C34.2944 27.9807 34.3756 28.1766 34.3756 28.3853C34.3756 28.5941 34.2944 28.79 34.1467 28.9377Z" fill="#1ACA8E"/>
</g>
<defs>
<clipPath id="clip0">
<rect width="40" height="40" fill="white"/>
</clipPath>
</defs>
</svg>
