<svg width="70" height="70" viewBox="0 0 70 70" fill="none" xmlns="http://www.w3.org/2000/svg">
<path d="M58.6305 21.8815L34.0779 5.54883L9.52539 21.8815V63.979H58.6415V21.8815H58.6305Z" fill="#E1EFFB"/>
<path d="M58.6308 21.8815L34.0782 5.54883L29.0391 8.90089L52.4899 24.5006H52.5012V63.979H58.6419V21.8815H58.6308Z" fill="#CCDFED"/>
<path d="M4.93491 28.4394L33.6694 9.32492C33.9208 9.15758 34.2481 9.15758 34.4997 9.32492L63.2342 28.4394C64.0434 28.9776 65.0965 28.9776 65.9058 28.4394C67.3403 27.4851 67.3403 25.3776 65.9058 24.4233L34.4997 3.53176C34.2483 3.36441 33.921 3.36441 33.6694 3.53176L2.26344 24.4233C0.828854 25.3776 0.828854 27.4851 2.26344 28.4394C3.07254 28.9776 4.12581 28.9776 4.93491 28.4394Z" fill="#FF4C4C"/>
<path d="M34.081 26.2772C37.0122 26.2772 39.3885 23.9009 39.3885 20.9696C39.3885 18.0384 37.0122 15.6621 34.081 15.6621C31.1497 15.6621 28.7734 18.0384 28.7734 20.9696C28.7734 23.9009 31.1497 26.2772 34.081 26.2772Z" fill="#FFB125"/>
<path d="M42.5577 41.0234H25.6074V66.5952H42.5577V41.0234Z" fill="#FFB125"/>
<path d="M42.5592 41.0234H34.084V66.5952H42.5592V41.0234Z" fill="#FF901D"/>
<path d="M63.4817 62.5537H4.68616C3.57054 62.5537 2.66602 63.4581 2.66602 64.5739C2.66602 65.6895 3.57041 66.594 4.68616 66.594H63.4816C64.5972 66.594 65.5017 65.6896 65.5017 64.5739C65.5017 63.4582 64.5973 62.5537 63.4817 62.5537Z" fill="#2D5871"/>
<path d="M66.8405 27.2392C66.8561 27.1949 66.8721 27.1506 66.885 27.1056C66.8922 27.0803 66.8974 27.0547 66.9038 27.0293C66.9152 26.9841 66.9274 26.9391 66.9361 26.8933C66.941 26.8678 66.9438 26.8421 66.9476 26.8166C66.9563 26.7577 66.9655 26.6987 66.9697 26.6391C66.9738 26.5802 66.9793 26.5215 66.98 26.4625C66.9803 26.4377 66.9784 26.413 66.9779 26.3882C66.9771 26.3389 66.9763 26.2894 66.9725 26.24C66.9706 26.216 66.9669 26.192 66.9641 26.168C66.9588 26.1179 66.9531 26.0682 66.9446 26.0186C66.9406 25.9956 66.9352 25.9729 66.9306 25.9501C66.9205 25.8997 66.9097 25.8496 66.8965 25.7998C66.8906 25.7779 66.8836 25.7565 66.8771 25.7347C66.8622 25.6845 66.8462 25.6348 66.8278 25.5854C66.8202 25.5648 66.8116 25.5444 66.8034 25.5238C66.7834 25.4743 66.7622 25.4253 66.7388 25.3771C66.7294 25.3575 66.7194 25.3382 66.7094 25.319C66.6845 25.2707 66.6579 25.2233 66.6296 25.1766C66.624 25.1673 66.6195 25.1575 66.6137 25.1483C66.6135 25.1489 66.613 25.1493 66.6128 25.1497C66.4386 24.8718 66.2044 24.622 65.9055 24.4232L62.7678 22.3359L62.4165 22.8755C61.8023 23.8185 60.537 24.0792 59.6001 23.456L34.4992 6.75919C34.2477 6.59199 33.9204 6.59199 33.6689 6.75919L4.9344 25.8736C4.12517 26.4119 3.07203 26.4119 2.26279 25.8736C1.96434 25.6751 1.72891 25.4262 1.55459 25.1486C0.890689 26.2063 1.12707 27.6864 2.26566 28.4416C3.08693 28.9863 4.16482 28.9516 4.98526 28.4058L33.6689 9.32512C33.9203 9.15792 34.2476 9.15792 34.4992 9.32512L63.2336 28.4396C64.0429 28.9778 65.096 28.9778 65.9053 28.4396C65.9673 28.3983 66.0258 28.354 66.0824 28.3084C66.1021 28.2926 66.1213 28.2763 66.1403 28.26C66.1762 28.2292 66.211 28.1974 66.2447 28.1649C66.2651 28.1453 66.286 28.1262 66.3056 28.1061C66.3462 28.0641 66.385 28.0211 66.4221 27.977L66.4241 27.9738C66.5459 27.828 66.6472 27.6708 66.729 27.5056L66.7342 27.4977C66.7431 27.4797 66.7499 27.4608 66.7582 27.4425C66.7779 27.3997 66.7975 27.357 66.8144 27.3134C66.824 27.2888 66.8318 27.2639 66.8405 27.2392Z" fill="#F33939"/>
<path d="M65.4886 64.3496C65.4869 64.3347 65.4839 64.3204 65.4819 64.3056C65.4738 64.2448 65.4636 64.1848 65.4502 64.1258C65.4477 64.1153 65.4447 64.1052 65.4422 64.0948C65.4265 64.0303 65.4078 63.9671 65.386 63.9052C65.3847 63.9012 65.3832 63.8972 65.3817 63.8933C65.3573 63.8253 65.3296 63.7593 65.2983 63.6949V63.6948C64.9711 63.0201 64.2818 62.5537 63.4815 62.5537H59.3609V63.4552C59.3609 64.2177 58.7428 64.8358 57.9803 64.8358H4.68615C3.88608 64.8358 3.19661 64.3695 2.86944 63.6948C2.70661 64.0307 2.63073 64.4165 2.68173 64.8256C2.80901 65.8464 3.71163 66.594 4.74043 66.594H63.4817C64.5974 66.594 65.5018 65.6895 65.5018 64.5739C65.5017 64.4978 65.4968 64.4233 65.4886 64.3496Z" fill="#1D4859"/>
<path d="M47.1152 66.5942H41.7129V28.8633C41.7129 27.3715 42.9222 26.1621 44.414 26.1621C45.9058 26.1621 47.1152 27.3715 47.1152 28.8633V66.5942Z" fill="#FF6D3A"/>
<path d="M44.415 26.1621C43.9224 26.1621 43.462 26.2961 43.0645 26.5265C43.8711 26.9936 44.415 27.8641 44.415 28.8633V66.5943H47.1161V28.8633C47.116 27.3714 45.9067 26.1621 44.415 26.1621Z" fill="#ED5729"/>
<path d="M67.4858 53.2024H21.3394C20.4022 53.2024 19.6426 52.4426 19.6426 51.5055V33.8794C19.6426 32.9422 20.4023 32.1826 21.3394 32.1826H67.4856C68.4228 32.1826 69.1824 32.9424 69.1824 33.8794V51.5055C69.1826 52.4426 68.4228 53.2024 67.4858 53.2024Z" fill="#61AFF6"/>
<path d="M67.4858 32.1826H63.0419V48.924C63.0419 49.8612 62.2821 50.621 61.3451 50.621H19.6426V51.5057C19.6426 52.4429 20.4023 53.2026 21.3394 53.2026H67.4856C68.4228 53.2026 69.1824 52.4429 69.1824 51.5057V33.8794C69.1826 32.9422 68.4228 32.1826 67.4858 32.1826Z" fill="#55A2F0"/>
<path d="M30.5792 40.0388C30.5792 39.3422 31.1742 38.9212 32.219 38.9212C33.438 38.9212 33.7717 39.4729 34.2215 39.4729C34.7439 39.4729 34.9762 38.8053 34.9762 38.4716C34.9762 37.5137 33.0753 37.3105 32.219 37.3105C30.5502 37.3105 28.6928 38.0507 28.6928 40.2128C28.6928 43.6519 33.3509 42.9846 33.3509 45.1613C33.3509 46.0319 32.5962 46.4238 31.7257 46.4238C30.2455 46.4238 29.8536 45.3064 29.2588 45.3064C28.8088 45.3064 28.4316 45.9159 28.4316 46.3222C28.4316 47.1638 29.8828 48.1215 31.7837 48.1215C33.7862 48.1215 35.2373 47.0476 35.2373 44.9726C35.2375 41.2141 30.5792 41.8381 30.5792 40.0388Z" fill="white"/>
<path d="M41.3311 37.9345C41.2005 37.4991 40.6635 37.2959 40.1123 37.2959C39.5752 37.2959 39.0384 37.4991 38.9078 37.9345L36.1071 47.0621C36.0926 47.1199 36.0781 47.1782 36.0781 47.2072C36.0781 47.6716 36.7601 47.9908 37.268 47.9908C37.5872 47.9908 37.8339 47.8891 37.9065 47.6135L38.458 45.6836H41.7811L42.3326 47.6135C42.405 47.8891 42.6518 47.9908 42.971 47.9908C43.479 47.9908 44.1609 47.657 44.1609 47.2072C44.1609 47.1635 44.1464 47.1201 44.1319 47.0621L41.3311 37.9345ZM38.8497 44.2033L40.1123 39.7483L41.3747 44.2033H38.8497Z" fill="white"/>
<path d="M50.8803 46.3362H47.3396V37.9632C47.3396 37.5569 46.8608 37.3828 46.3963 37.3828C45.9176 37.3828 45.4531 37.5569 45.4531 37.9632V47.3955C45.4531 47.7873 45.8594 47.9905 46.2803 47.9905H50.8803C51.2575 47.9905 51.4462 47.5696 51.4462 47.1632C51.4462 46.7425 51.2575 46.3362 50.8803 46.3362Z" fill="white"/>
<path d="M58.7588 39.0371C59.136 39.0371 59.3538 38.6453 59.3538 38.1953C59.3538 37.8036 59.1651 37.3828 58.7588 37.3828H53.5928C53.172 37.3828 52.7656 37.586 52.7656 37.9778V47.3955C52.7656 47.7873 53.172 47.9905 53.5928 47.9905H58.7588C59.1651 47.9905 59.3538 47.5696 59.3538 47.1779C59.3538 46.7279 59.136 46.3362 58.7588 46.3362H54.6521V43.4193H56.8577C57.2641 43.4193 57.4527 43.0276 57.4527 42.6938C57.4527 42.3021 57.2349 41.9391 56.8577 41.9391H54.6521V39.0368H58.7588V39.0371Z" fill="white"/>
<path d="M67.3013 31.1811H47.9308V28.8635C47.9308 28.6721 47.9162 28.484 47.888 28.3004C47.6159 26.5251 46.0784 25.1609 44.2281 25.1609C42.3777 25.1609 40.8402 26.5251 40.5681 28.3004C40.54 28.484 40.5253 28.6721 40.5253 28.8635V31.1811H21.1551C19.7602 31.1811 18.6091 32.245 18.4708 33.604C18.4616 33.6946 18.4568 33.7865 18.4568 33.8795V51.5056C18.4568 52.9935 19.6673 54.204 21.1551 54.204H24.422V61.5527H10.3419V25.9221L33.8986 10.2521L57.4551 25.9222V28.7156C57.4551 29.2688 57.9034 29.7171 58.4566 29.7171C59.0098 29.7171 59.4581 29.2688 59.4581 28.7156V27.2546L62.4935 29.2738C63.6418 30.0377 65.126 30.0378 66.2743 29.2737C67.2278 28.6395 67.7971 27.5769 67.7971 26.4317C67.7969 25.2866 67.2278 24.2242 66.2743 23.5901L34.8685 2.69828C34.2794 2.3063 33.518 2.3063 32.9289 2.69828L15.4705 14.3118C15.01 14.6181 14.8849 15.2397 15.1913 15.7003C15.4977 16.1606 16.1195 16.2859 16.5798 15.9794L33.8986 4.45866L65.1651 25.2576C65.5649 25.5235 65.7941 25.9514 65.7943 26.4316C65.7943 26.9119 65.5649 27.34 65.165 27.606C64.6905 27.9216 64.0772 27.9216 63.6028 27.606L59.0114 24.5517L34.8685 8.49157C34.2794 8.09974 33.518 8.09947 32.9289 8.49157L4.19424 27.606C3.71983 27.9214 3.10665 27.9217 2.6321 27.6059C2.2322 27.34 2.00292 26.912 2.00292 26.4317C2.00292 25.9514 2.2322 25.5235 2.6321 25.2575L11.3743 19.442C11.8347 19.1358 11.9598 18.5141 11.6535 18.0535C11.3471 17.5932 10.7254 17.4681 10.2649 17.7745L1.52277 23.5898C0.569295 24.224 0 25.2863 0 26.4317C0 27.5772 0.569295 28.6395 1.52277 29.2736C2.09712 29.6557 2.75501 29.8467 3.41331 29.8467C4.07133 29.8466 4.72963 29.6556 5.30371 29.2736L8.33899 27.2545V61.5527H4.5009C2.83472 61.5527 1.47929 62.9083 1.47929 64.5743C1.47929 66.2405 2.83472 67.596 4.5009 67.596H41.5272H46.9295H63.2964C64.9626 67.596 66.318 66.2404 66.318 64.5743C66.318 62.9082 64.9625 61.5527 63.2964 61.5527H59.4583V56.6168C59.4583 56.0636 59.01 55.6153 58.4569 55.6153C57.9037 55.6153 57.4554 56.0636 57.4554 56.6168V61.5527H47.9311V54.204H67.3016C68.7895 54.204 70 52.9935 70 51.5056V33.8795C69.9997 32.3916 68.7892 31.1811 67.3013 31.1811ZM42.5285 28.8635C42.5285 27.9263 43.291 27.1639 44.2282 27.1639C45.1654 27.1639 45.9279 27.9263 45.9279 28.8635V31.1811H42.5285V28.8635ZM40.5256 65.593H4.5009C3.93926 65.593 3.48221 65.1361 3.48221 64.5743C3.48221 64.0126 3.93913 63.5557 4.5009 63.5557H9.34045H25.4234H40.5256V65.593ZM40.5256 61.5527H26.4249V54.204H40.5256V61.5527ZM45.9279 62.5542V65.593H42.5285V62.5542V54.204H45.9279V62.5542ZM58.4567 63.5557H63.2963C63.8581 63.5557 64.315 64.0126 64.315 64.5743C64.315 65.1361 63.8581 65.593 63.2963 65.593H47.9308V63.5557H58.4567ZM67.9968 51.5056C67.9968 51.8891 67.685 52.2011 67.3013 52.2011H46.9293H41.5271H25.4234H21.1551C20.7716 52.2011 20.4597 51.8892 20.4597 51.5056V33.8795C20.4597 33.4961 20.7716 33.1841 21.1551 33.1841H41.5271H46.9293C46.9302 33.1841 46.9311 33.184 46.9319 33.184H67.3013C67.6848 33.184 67.9968 33.4958 67.9968 33.8795V51.5056Z" fill="black"/>
<path d="M27.5898 20.9701C27.5898 24.4489 30.42 27.2793 33.8988 27.2793C37.3775 27.2793 40.2078 24.4491 40.2078 20.9701C40.2078 17.4915 37.3776 14.6611 33.8988 14.6611C30.42 14.6611 27.5898 17.4913 27.5898 20.9701ZM32.8974 25.1574C31.3248 24.7813 30.0854 23.5406 29.7106 21.9674H32.8974V25.1574ZM32.8974 19.9644H29.7127C30.0897 18.3952 31.3277 17.1584 32.8974 16.783V19.9644ZM34.9003 16.783C36.4701 17.1584 37.7081 18.3953 38.085 19.9644H34.9003V16.783ZM34.9003 21.9674H38.0869C37.7123 23.5406 36.4728 24.7812 34.9003 25.1574V21.9674Z" fill="black"/>
</svg>
