<svg width="80" height="80" viewBox="0 0 80 80" fill="none" xmlns="http://www.w3.org/2000/svg">
<g clip-path="url(#clip0)">
<path d="M45.9811 18.2234C44.0428 17.6922 42.0305 17.4228 40 17.4228C27.5511 17.4228 17.4233 27.5506 17.4233 39.9995C17.4233 52.4484 27.5511 62.5762 40 62.5762C52.4489 62.5762 62.5767 52.4484 62.5767 39.9995C62.5767 37.9691 62.3073 35.9567 61.7761 34.0184C61.4111 32.6869 62.1947 31.3116 63.5262 30.9466C64.857 30.5817 66.2331 31.3652 66.5981 32.6967C67.2473 35.0656 67.5767 37.5227 67.5767 39.9995C67.5767 55.2053 55.2058 67.5762 40 67.5762C24.7942 67.5762 12.4233 55.2053 12.4233 39.9995C12.4233 24.7937 24.7942 12.4228 40 12.4228C42.477 12.4228 44.9339 12.752 47.3028 13.4014C48.4133 13.7058 49.1427 14.713 49.1425 15.8114C49.1425 16.03 49.1134 16.2522 49.053 16.4733C48.6881 17.8048 47.313 18.5889 45.9811 18.2234V18.2234ZM75.2528 26.9433C73.9289 27.3353 73.1733 28.7261 73.5653 30.0502C74.5173 33.2658 75 36.6131 75 39.9995C75 59.2986 59.2991 74.9995 40 74.9995C20.7009 74.9995 5 59.2986 5 39.9995C5 20.7005 20.7009 4.99953 40 4.99953C43.3866 4.99953 46.7339 5.48218 49.9489 6.43406C51.273 6.82625 52.6638 6.07031 53.0558 4.74656C53.1258 4.50984 53.1592 4.27125 53.1592 4.0364C53.1595 2.9575 52.4556 1.96171 51.3683 1.63968C47.692 0.551246 43.8673 -0.000473188 40 -0.000473188C29.3156 -0.000473188 19.2706 4.16031 11.7156 11.7152C4.16078 19.2703 0 29.3152 0 39.9995C0 50.6839 4.16078 60.7289 11.7156 68.2839C19.2705 75.8389 29.3156 79.9995 40 79.9995C50.6844 79.9995 60.7292 75.8387 68.2844 68.2839C75.8392 60.7289 80 50.6839 80 39.9995C80 36.1325 79.4481 32.3075 78.3597 28.6308C77.9678 27.3069 76.5766 26.5519 75.2528 26.9433V26.9433ZM40 29.9995C40.3677 29.9995 40.7389 30.0198 41.1036 30.0598C42.4767 30.2109 43.7109 29.2198 43.8613 27.8475C44.0119 26.475 43.0214 25.2403 41.6489 25.0898C41.1036 25.0298 40.5491 24.9995 40 24.9995C31.7289 24.9995 25 31.7284 25 39.9995C25 48.2706 31.7289 54.9995 40 54.9995C48.2711 54.9995 55 48.2706 55 39.9995C55 38.6187 53.8808 37.4995 52.5 37.4995C51.1192 37.4995 50 38.6187 50 39.9995C50 45.5136 45.5141 49.9995 40 49.9995C34.4859 49.9995 30 45.5136 30 39.9995C30 34.4855 34.4859 29.9995 40 29.9995ZM52.7647 23.6997L54.01 11.208C54.0672 10.6333 54.3216 10.0964 54.7298 9.68812L63.6866 0.731714C64.3766 0.0418705 65.4044 -0.183598 66.3198 0.154058C67.235 0.491714 67.8703 1.33109 67.9467 2.30375L68.6569 11.3428L77.6958 12.0528C78.6684 12.1292 79.5078 12.7645 79.8455 13.6797C80.1831 14.595 79.9577 15.6231 79.2678 16.313L70.3113 25.2694C69.9031 25.6777 69.3661 25.932 68.7916 25.9892L56.3002 27.2352L41.7678 41.7673C41.2795 42.2555 40.6398 42.4995 40 42.4995C39.36 42.4995 38.7205 42.2555 38.2323 41.7672C37.2559 40.7909 37.2559 39.208 38.2323 38.2317L52.7647 23.6997ZM57.9544 22.0455L67.4069 21.1027L71.8967 16.6128L66.1361 16.1603C64.9098 16.0639 63.9359 15.0898 63.8395 13.8637L63.387 8.10265L58.8969 12.5927L57.9544 22.0455Z" fill="#2F344C"/>
</g>
<defs>
<clipPath id="clip0">
<rect width="80" height="80" fill="white"/>
</clipPath>
</defs>
</svg>
