<svg width="80" height="80" viewBox="0 0 80 80" fill="none" xmlns="http://www.w3.org/2000/svg">
<g clip-path="url(#clip0)">
<path d="M74.0701 59.0266L64.1245 49.0813C61.3759 46.3327 56.9275 46.3326 54.1788 49.0813L49.658 53.6021C47.5756 55.6843 44.2058 55.6844 42.1233 53.6021C42.1224 53.6012 42.1214 53.6002 42.1205 53.5993L26.3986 37.9301C24.3165 35.8479 24.3162 32.4779 26.3986 30.3954L30.9193 25.8747C33.6679 23.1262 33.668 18.6776 30.9193 15.9289L20.9735 5.98313C18.2249 3.23454 13.7765 3.23439 11.0279 5.98313C11.0149 5.9961 7.71275 9.29828 7.71275 9.29828C-1.96005 18.227 -3.05833 34.9948 7.41306 45.466L34.5888 72.5891C44.0585 82.0588 60.0684 82.9741 70.7545 72.2882C70.7545 72.2882 70.7551 72.2875 70.7553 72.2874L74.0701 68.9725C76.8123 66.2304 76.8123 61.7688 74.0701 59.0266ZM14.3435 9.29859C15.2574 8.38469 16.7446 8.38453 17.6587 9.29859L27.6044 19.2444C28.5205 20.1604 28.5205 21.6433 27.6044 22.5595L25.9468 24.2172L12.6859 10.9562L14.3435 9.29859ZM37.9024 69.2724L10.7268 42.1495C3.12416 34.5468 2.69432 22.4476 9.43399 14.3348L22.6472 27.5481C19.1854 31.4723 19.3073 37.4689 23.0863 41.2481L38.8082 56.9173C42.5653 60.6744 48.5624 60.8318 52.5053 57.3535L65.7195 70.5677C57.6395 77.2944 45.5639 76.9338 37.9024 69.2724ZM70.7551 65.6574L69.0975 67.315L55.8366 54.0541L57.4941 52.3966C58.4103 51.4804 59.893 51.4804 60.8094 52.3966L70.7551 62.3422C71.6692 63.2561 71.6692 64.7435 70.7551 65.6574Z" fill="#2F344C"/>
<path d="M72.9681 0.000366211H44.8373C40.9595 0.000366211 37.8047 3.1552 37.8047 7.03301V25.7867C37.8047 29.6645 40.9595 32.8194 44.8373 32.8194H47.1815V39.852C47.1815 41.9343 49.7117 42.9812 51.1833 41.5097L59.8736 32.8194H72.9679C76.8457 32.8194 80.0005 29.6645 80.0005 25.7867V7.03317C80.0007 3.15536 76.8459 0.000366211 72.9681 0.000366211ZM75.3123 25.7869C75.3123 27.0795 74.2607 28.1311 72.9681 28.1311H58.9028C58.2811 28.1311 57.6848 28.378 57.2453 28.8177L51.8701 34.1928V30.4753C51.8701 29.1806 50.8206 28.1311 49.5259 28.1311H44.8375C43.5448 28.1311 42.4933 27.0795 42.4933 25.7869V7.03317C42.4933 5.74051 43.5448 4.68895 44.8375 4.68895H72.9682C74.2609 4.68895 75.3124 5.74051 75.3124 7.03317V25.7869H75.3123Z" fill="#2F344C"/>
<path d="M68.2774 9.37854H49.5237C48.229 9.37854 47.1794 10.4281 47.1794 11.7228C47.1794 13.0174 48.229 14.067 49.5237 14.067H68.2774C69.5721 14.067 70.6216 13.0174 70.6216 11.7228C70.6216 10.4281 69.5721 9.37854 68.2774 9.37854Z" fill="#2F344C"/>
<path d="M58.9005 18.7556H49.5237C48.229 18.7556 47.1794 19.8051 47.1794 21.0998C47.1794 22.3945 48.229 23.444 49.5237 23.444H58.9005C60.1952 23.444 61.2447 22.3945 61.2447 21.0998C61.2447 19.8051 60.195 18.7556 58.9005 18.7556Z" fill="#2F344C"/>
</g>
<defs>
<clipPath id="clip0">
<rect width="80" height="80" fill="white"/>
</clipPath>
</defs>
</svg>
