<svg width="100" height="100" viewBox="0 0 100 100" fill="none" xmlns="http://www.w3.org/2000/svg">
<g clip-path="url(#clip0)">
<path d="M23.2313 35.1495L2.87291 55.5078C-0.957963 59.3387 -0.957963 65.5499 2.87291 69.3807C6.70379 73.2116 12.9149 73.2116 16.7458 69.3807L9.98427 76.1423C6.15339 79.9732 6.15339 86.1843 9.98427 90.0152C13.8151 93.8461 20.0263 93.8463 23.8572 90.0154L30.6187 83.2539C26.7879 87.0847 26.7879 93.2959 30.6189 97.1268C34.4498 100.958 40.661 100.958 44.4918 97.1268L64.8504 76.7686L23.2313 35.1495Z" fill="url(#paint0_linear)"/>
<path d="M83.1579 16.8421L62.2111 75.5285H34.2563C28.8523 75.5285 24.4714 71.1476 24.4714 65.7437V37.7889L83.1579 16.8421Z" fill="url(#paint1_linear)"/>
<path d="M44.4678 58.1071C43.9389 56.9729 43.0272 56.0611 41.8927 55.532L33.0399 51.4039C31.2883 50.5872 29.2069 51.3511 28.3995 53.1069C27.5981 54.8496 28.3551 56.9121 30.0935 57.7227L38.4025 61.5972L44.8987 75.5282H52.5915L44.4678 58.1071Z" fill="#0099CF"/>
<path d="M41.8907 55.5327L8.75071 40.0793C0.0281951 36.012 1.14294 23.2702 10.4392 20.7791L86.5921 0.373966C94.5043 -1.74615 101.745 5.49409 99.6244 13.4062L79.2192 89.5592C76.7284 98.8556 63.9864 99.9704 59.919 91.2479L44.4656 58.1076C43.9368 56.9734 43.025 56.0616 41.8907 55.5327Z" fill="url(#paint2_linear)"/>
<path d="M56.5122 37.8525L39.8044 54.5604L41.8909 55.5333C43.0252 56.0622 43.9369 56.974 44.4658 58.1082L45.4387 60.1949L62.1467 43.4869C63.7025 41.9309 63.7025 39.4082 62.1467 37.8525C60.5909 36.2967 58.0682 36.2967 56.5122 37.8525Z" fill="#18C9DE"/>
<path d="M58.6102 20.8347C59.5438 19.901 59.3589 18.2024 58.1971 17.0407C57.0354 15.8789 55.3367 15.694 54.4031 16.6276C53.4695 17.5612 53.6544 19.2598 54.8162 20.4216C55.9779 21.5833 57.6766 21.7683 58.6102 20.8347Z" fill="#EAADCD"/>
<path d="M83.3624 45.5924C84.296 44.6587 84.111 42.9601 82.9493 41.7984C81.7875 40.6366 80.0889 40.4517 79.1553 41.3853C78.2217 42.3189 78.4066 44.0175 79.5684 45.1793C80.7301 46.341 82.4288 46.526 83.3624 45.5924Z" fill="#EAADCD"/>
<path d="M64.2938 24.0618C67.5523 24.0618 70.1938 21.4203 70.1938 18.1618C70.1938 14.9033 67.5523 12.2618 64.2938 12.2618C61.0353 12.2618 58.3938 14.9033 58.3938 18.1618C58.3938 21.4203 61.0353 24.0618 64.2938 24.0618Z" fill="white"/>
<path d="M67.8571 22.8288C69.5098 21.8073 70.0214 19.6395 68.9999 17.9868C67.9784 16.3341 65.8106 15.8225 64.1579 16.844C62.5053 17.8655 61.9936 20.0333 63.0151 21.686C64.0366 23.3386 66.2045 23.8503 67.8571 22.8288Z" fill="#3B3B44"/>
<path d="M81.8397 41.6061C85.0982 41.6061 87.7397 38.9646 87.7397 35.7062C87.7397 32.4477 85.0982 29.8062 81.8397 29.8062C78.5812 29.8062 75.9397 32.4477 75.9397 35.7062C75.9397 38.9646 78.5812 41.6061 81.8397 41.6061Z" fill="white"/>
<path d="M83.5163 40.8992C85.4584 40.8992 87.0327 39.3249 87.0327 37.3829C87.0327 35.4408 85.4584 33.8665 83.5163 33.8665C81.5743 33.8665 80 35.4408 80 37.3829C80 39.3249 81.5743 40.8992 83.5163 40.8992Z" fill="#3B3B44"/>
<path d="M71.7705 31.963C70.4207 33.3128 68.4906 33.5714 67.4598 32.5405C66.4289 31.5096 66.6875 29.5796 68.0373 28.2298C69.3871 26.88 71.3171 26.6212 72.348 27.6523C73.3789 28.6831 73.1203 30.6132 71.7705 31.963Z" fill="#3B3B44"/>
<path d="M91.4156 22.958C91.2451 22.958 91.0716 22.9359 90.8989 22.8895C89.8361 22.6046 89.2054 21.5124 89.4903 20.4498L90.0566 18.3365C90.3415 17.2739 91.4329 16.6432 92.4963 16.9279C93.559 17.2128 94.1897 18.305 93.9048 19.3675L93.3385 21.4809C93.1001 22.3709 92.2951 22.958 91.4156 22.958Z" fill="#E3FCFF"/>
<path d="M94.0001 13.0546C93.9344 13.0546 93.868 13.0512 93.8011 13.0446C92.7065 12.936 91.9069 11.9605 92.0155 10.8657C92.0975 10.038 91.7728 9.4187 91.4862 9.04499C90.9686 8.37049 90.1874 7.9681 89.3963 7.9681C88.2961 7.9681 87.4043 7.07607 87.4043 5.97607C87.4043 4.87607 88.2961 3.98404 89.3963 3.98404C91.4176 3.98404 93.3806 4.9693 94.6469 6.6195C95.24 7.3926 96.2019 9.02308 95.98 11.2589C95.8782 12.287 95.0117 13.0546 94.0001 13.0546Z" fill="#E3FCFF"/>
</g>
<defs>
<linearGradient id="paint0_linear" x1="32.4251" y1="95.7084" x2="32.4251" y2="26.0284" gradientUnits="userSpaceOnUse">
<stop stop-color="#F5E5A2"/>
<stop offset="1" stop-color="#FCF7CF"/>
</linearGradient>
<linearGradient id="paint1_linear" x1="47.2011" y1="46.1853" x2="18.3621" y2="46.1853" gradientUnits="userSpaceOnUse">
<stop stop-color="#53AAE6"/>
<stop offset="1" stop-color="#A4D2F0"/>
</linearGradient>
<linearGradient id="paint2_linear" x1="51.3977" y1="94.9222" x2="51.3977" y2="-1.6085" gradientUnits="userSpaceOnUse">
<stop stop-color="#74D2E8"/>
<stop offset="1" stop-color="#BAEAF5"/>
</linearGradient>
<clipPath id="clip0">
<rect width="100" height="100" fill="white"/>
</clipPath>
</defs>
</svg>
