<svg width="80" height="80" viewBox="0 0 80 80" fill="none" xmlns="http://www.w3.org/2000/svg">
<g clip-path="url(#clip0)">
<path d="M75.1159 47.9116L52.7275 62.0096L53.4116 54.4685C50.1023 56.5523 47.3945 61.4571 47.3945 65.3679C47.3945 69.2787 50.1022 70.7734 53.4116 68.6896L75.1159 55.0223C76.7706 53.9802 78.1244 51.528 78.1244 49.5727C78.1244 47.6171 76.7706 46.8698 75.1159 47.9116Z" fill="#DFEAEF"/>
<path d="M30.6744 16.738L10.9844 37.2788L52.0253 63.1235L77.9916 46.5333L30.6744 16.738Z" fill="#DFEAEF"/>
<path d="M51.7723 70.8293C50.9808 70.226 50.1359 69.5102 49.5867 68.639C49.4084 68.6101 49.2433 68.5566 49.0959 68.4754C48.405 68.0938 48.0086 67.0891 48.0086 65.719C48.0086 62.2585 50.4822 57.7776 53.4106 55.9337L76.8881 41.1499C77.5033 40.7627 77.688 39.9499 77.3006 39.3346C77.1948 39.1666 77.0567 39.0321 76.9 38.9312L76.9012 38.9302L32.2897 10.8382L29.8194 9.28271L5.33938 24.6977C2.34547 26.5829 0.00015625 30.8312 0 34.3696C0 37.9079 2.34547 42.1565 5.33969 44.0418L47.4616 70.5521C47.5783 70.6332 47.698 70.7105 47.8236 70.7801C49.0036 71.4313 50.4103 71.4712 51.8913 70.9172C51.8519 70.8879 51.8116 70.8593 51.7723 70.8293Z" fill="white"/>
<path d="M38.1126 31.1583L25.0973 22.9976L14.0176 29.9752L27.2315 38.1913L38.1126 31.1583Z" fill="#FA4B5F"/>
<path d="M78.4476 46.985C77.4608 46.4405 76.2088 46.5601 75.0121 47.3134L52.9073 61.233C52.2921 61.6205 52.1074 62.4331 52.4948 63.0483C52.8823 63.6634 53.6949 63.8481 54.3101 63.4608L76.4149 49.5412C76.8818 49.2473 77.1373 49.2689 77.1751 49.2898C77.2134 49.3109 77.3674 49.5153 77.3674 50.067C77.3674 51.5498 76.2668 53.5437 75.0121 54.3339L53.5826 67.828C52.4432 68.5455 51.4015 68.7427 50.7246 68.3692C50.0479 67.9956 49.6598 67.0091 49.6598 65.6623C49.6598 62.2508 52.0987 57.8328 54.9855 56.0152L79.3854 40.6508C79.7682 40.4098 80.0002 39.9891 80.0002 39.5369C80.0002 39.0847 79.768 38.6639 79.3854 38.423L32.5009 8.89952C32.0723 8.62952 31.5266 8.62952 31.098 8.89952L6.40117 24.4511C2.8918 26.6609 0.142578 31.6408 0.142578 35.7881V36.4901C0.142578 40.6375 2.8918 45.6173 6.40117 47.8272L43.1338 70.9578C43.749 71.3452 44.5618 71.1603 44.9491 70.5453C45.3365 69.9302 45.1518 69.1173 44.5366 68.73L7.80414 45.5994C5.07805 43.883 2.77523 39.7114 2.77523 36.4901V35.7881C2.77523 32.5669 5.07805 28.3953 7.80414 26.6789L31.7995 11.5691L76.2137 39.5366L53.5827 53.7872C49.9066 56.102 47.0271 61.3181 47.0271 65.6623C47.0271 68.0308 47.8884 69.8106 49.4523 70.6741C50.0804 71.0209 50.7732 71.1928 51.5073 71.1928C52.6009 71.1928 53.7863 70.8109 54.9854 70.0556L76.4149 56.5616C78.4254 55.2956 80.0001 52.4428 80.0001 50.067C80.0002 48.6531 79.4343 47.5298 78.4476 46.985Z" fill="#5D6174"/>
<path d="M62.2134 40.8527C62.6508 40.8527 63.0783 40.6348 63.3286 40.2377C63.7159 39.6225 63.5313 38.8097 62.9161 38.4223L32.5003 19.2697C31.885 18.8823 31.0724 19.0672 30.685 19.6822C30.2977 20.2973 30.4824 21.1102 31.0975 21.4975L61.5133 40.6502C61.7311 40.7872 61.9736 40.8527 62.2134 40.8527Z" fill="#5D6174"/>
<path d="M56.9516 44.346C57.3899 44.346 57.8183 44.1273 58.068 43.7287C58.4542 43.1128 58.2681 42.3004 57.652 41.9143L44.8028 33.8576C44.1866 33.4712 43.3744 33.6577 42.9885 34.2735C42.6022 34.8896 42.7883 35.7018 43.4044 36.0879L56.2536 44.1446C56.471 44.281 56.7127 44.346 56.9516 44.346Z" fill="#5D6174"/>
<path d="M39.4395 37.3218C38.8229 36.9368 38.0109 37.1244 37.6257 37.7413C37.2407 38.358 37.4284 39.1699 38.0453 39.5551L50.9931 47.6394C51.21 47.7747 51.4507 47.8393 51.689 47.8393C52.1279 47.8393 52.5573 47.6197 52.8068 47.2199C53.1918 46.6032 53.0042 45.7913 52.3873 45.4061L39.4395 37.3218Z" fill="#5D6174"/>
<path d="M25.6286 22.7147L14.6891 29.6041C14.3052 29.8458 14.0728 30.268 14.0742 30.7217C14.0756 31.1755 14.3103 31.5963 14.6955 31.8358L27.742 39.9477C27.955 40.08 28.1959 40.1461 28.437 40.1461C28.6858 40.1461 28.9342 40.0758 29.1516 39.9353L32.0574 38.0574C32.668 37.6627 32.843 36.848 32.4484 36.2374C32.0539 35.6267 31.2391 35.4519 30.6284 35.8463L28.4238 37.2713L17.8723 30.7108L26.3319 25.3831L36.7297 31.9028L35.5175 32.6863C34.9069 33.081 34.7319 33.8956 35.1264 34.5063C35.5211 35.1169 36.3364 35.2919 36.9464 34.8974L39.895 32.9916C40.2728 32.7472 40.4999 32.3269 40.4969 31.8769C40.4938 31.4271 40.2609 31.0099 39.8798 30.7708L27.0294 22.7133C26.6008 22.4446 26.0564 22.4453 25.6286 22.7147Z" fill="#5D6174"/>
<path d="M47.5457 50.7109C47.9296 50.0934 47.7403 49.2819 47.1228 48.8981L34.076 40.7859C33.4585 40.4019 32.6467 40.5912 32.2631 41.2087C31.8792 41.8262 32.0685 42.6378 32.686 43.0215L45.7328 51.1337C45.9491 51.2684 46.1894 51.3325 46.4266 51.3325C46.8664 51.3325 47.2964 51.112 47.5457 50.7109Z" fill="#5D6174"/>
<path d="M9.53658 33.8652C9.15267 34.4827 9.34189 35.2943 9.95939 35.678L42.1616 55.7004C42.3778 55.8351 42.6182 55.8991 42.8553 55.8991C43.2952 55.8991 43.7252 55.6787 43.9744 55.2777C44.3583 54.6602 44.1691 53.8487 43.5516 53.4649L11.3494 33.4423C10.7319 33.0584 9.92017 33.2479 9.53658 33.8652Z" fill="#5D6174"/>
</g>
<defs>
<clipPath id="clip0">
<rect width="80" height="80" fill="white"/>
</clipPath>
</defs>
</svg>
