<svg width="80" height="80" viewBox="0 0 80 80" fill="none" xmlns="http://www.w3.org/2000/svg">
<path d="M48.0812 72.8657C47.4216 73.0301 46.749 73.1761 46.0814 73.299C44.3363 73.6235 43.1825 75.3019 43.5053 77.0486C43.6647 77.908 44.1528 78.6237 44.8154 79.0909C45.4983 79.5716 46.3674 79.7886 47.253 79.6239C48.0481 79.4763 48.8493 79.3028 49.6355 79.1066C51.3588 78.6777 52.4087 76.9319 51.9788 75.2094C51.5499 73.4854 49.8056 72.4364 48.0812 72.8657Z" fill="#2F344C"/>
<path d="M71.864 29.7587C72.0893 30.4376 72.5194 30.9919 73.0626 31.3748C73.8681 31.9422 74.9221 32.1331 75.928 31.8005C77.6143 31.2405 78.528 29.4221 77.9701 27.7367C77.716 26.9683 77.4339 26.1975 77.1335 25.4471C76.4738 23.7979 74.6031 22.995 72.9531 23.6546C71.3048 24.314 70.5015 26.1852 71.1617 27.8349C71.4141 28.4656 71.6506 29.1131 71.864 29.7587Z" fill="#2F344C"/>
<path d="M58.531 68.2739C57.9636 68.6485 57.3781 69.011 56.7882 69.3506C55.2493 70.2383 54.7222 72.2055 55.6096 73.7437C55.8505 74.1621 56.1714 74.5042 56.5409 74.7656C57.533 75.4636 58.8804 75.5682 60.0022 74.9219C60.7035 74.5174 61.4008 74.0872 62.0765 73.6404C63.5578 72.6617 63.9655 70.6663 62.9863 69.1843C62.0073 67.7018 60.0128 67.2945 58.531 68.2739Z" fill="#2F344C"/>
<path d="M79.9686 38.7409C79.8986 36.9659 78.4035 35.5843 76.6279 35.6536C74.8546 35.7236 73.4719 37.2192 73.5416 38.9936C73.5682 39.672 73.5751 40.3606 73.5595 41.0383C73.5345 42.1514 74.079 43.1437 74.9251 43.7401C75.4291 44.095 76.0408 44.3098 76.7041 44.325C78.4792 44.3643 79.9502 42.9564 79.9896 41.1805C80.0073 40.3707 80.0006 39.5502 79.9686 38.7409Z" fill="#2F344C"/>
<path d="M71.3385 59.8136C69.9151 58.7457 67.9013 59.0356 66.8353 60.4564C66.427 61.0005 65.9971 61.5379 65.5568 62.0554C64.4064 63.407 64.5689 65.4373 65.9206 66.5887C65.9976 66.654 66.0755 66.714 66.1563 66.7704C67.5001 67.7178 69.3677 67.5001 70.4542 66.2251C70.9799 65.6077 71.4924 64.9658 71.9802 64.3159C73.0465 62.8951 72.7579 60.88 71.3385 59.8136Z" fill="#2F344C"/>
<path d="M76.0651 48.1879C74.3704 47.6565 72.5655 48.6 72.0345 50.2947C71.8312 50.9422 71.6059 51.5927 71.3628 52.2299C70.8288 53.6325 71.3404 55.1757 72.5133 56.0027C72.7284 56.1539 72.9654 56.282 73.2228 56.3793C74.8821 57.0125 76.7403 56.18 77.3728 54.52C77.6615 53.7625 77.9294 52.9884 78.1717 52.2187C78.7023 50.5236 77.7595 48.7193 76.0651 48.1879Z" fill="#2F344C"/>
<path d="M34.0496 73.3279C31.1743 72.8117 28.4161 71.9326 25.8006 70.7064C25.7697 70.6902 25.742 70.6718 25.7095 70.6571C25.0931 70.3669 24.4778 70.0562 23.8814 69.7315C23.8794 69.7291 23.8756 69.7276 23.8723 69.7262C22.7781 69.1236 21.7102 68.4569 20.6727 67.7265C5.54422 57.0696 1.90673 36.0915 12.5643 20.9632C14.8818 17.6748 17.6863 14.9314 20.8128 12.757C20.8514 12.7301 20.8899 12.7035 20.9281 12.6765C31.9456 5.08509 46.9057 4.57348 58.6046 12.3743L56.0919 16.0048C55.3934 17.0153 55.8232 17.7516 57.046 17.6416L67.9604 16.6645C69.1848 16.5544 69.917 15.4952 69.5877 14.3128L66.6569 3.75285C66.3287 2.56901 65.4887 2.42731 64.7894 3.43763L62.271 7.07666C53.6856 1.31347 43.3882 -0.884126 33.1676 0.888186C32.1382 1.06635 31.1232 1.2844 30.1222 1.53823C30.1145 1.53961 30.1083 1.54046 30.1021 1.54184C30.0634 1.5513 30.0242 1.56385 29.9865 1.57434C21.1731 3.83763 13.4835 8.97795 7.9965 16.3121C7.95024 16.3669 7.9026 16.4206 7.85892 16.4803C7.67646 16.726 7.49538 16.9774 7.31808 17.2289C7.02814 17.6409 6.74233 18.0633 6.46889 18.4856C6.43467 18.5365 6.40853 18.5883 6.37861 18.6397C1.85067 25.6562 -0.333341 33.768 0.0412074 42.0263C0.0420672 42.0534 0.0405195 42.0808 0.0412074 42.1087C0.0774928 42.9154 0.141465 43.7332 0.22831 44.5384C0.232953 44.5903 0.244475 44.6395 0.253245 44.6915C0.343013 45.5011 0.455653 46.3126 0.596839 47.124C2.03175 55.4022 5.93682 62.8514 11.7884 68.6476C11.802 68.6612 11.8161 68.676 11.8299 68.6901C11.8347 68.6954 11.84 68.6982 11.8446 68.7031C13.4168 70.2538 15.1268 71.688 16.9681 72.9848C21.7867 76.3802 27.1523 78.6246 32.9146 79.6586C34.663 79.9728 36.3332 78.8089 36.6469 77.0614C36.9604 75.3126 35.7975 73.6411 34.0496 73.3279Z" fill="#2F344C"/>
<path d="M38.0269 14.3075C36.5887 14.3075 35.4238 15.4734 35.4238 16.9095V42.8333L59.1332 55.0898C59.5148 55.2873 59.9234 55.3804 60.3255 55.3804C61.2672 55.3804 62.1767 54.8676 62.6391 53.9728C63.2986 52.6958 62.7996 51.1269 61.5226 50.4674L40.6271 39.6646V16.9095C40.6269 15.4734 39.4634 14.3075 38.0269 14.3075Z" fill="#2F344C"/>
</svg>
