<svg width="58" height="49" viewBox="0 0 58 49" fill="none" xmlns="http://www.w3.org/2000/svg">
<path fill-rule="evenodd" clip-rule="evenodd" d="M58 7.17073C58 5.26894 57.2362 3.44503 55.8765 2.10026C54.5169 0.755486 52.6728 0 50.75 0H7.25C5.32718 0 3.48311 0.755486 2.12348 2.10026C0.763837 3.44503 0 5.26894 0 7.17073V41.8293C0 43.7311 0.763837 45.555 2.12348 46.8997C3.48311 48.2445 5.32718 49 7.25 49H50.75C52.6728 49 54.5169 48.2445 55.8765 46.8997C57.2362 45.555 58 43.7311 58 41.8293V7.17073ZM53.1667 41.8293C53.1667 42.4632 52.9121 43.0712 52.4588 43.5194C52.0056 43.9677 51.3909 44.2195 50.75 44.2195H7.25C6.60906 44.2195 5.99437 43.9677 5.54116 43.5194C5.08795 43.0712 4.83333 42.4632 4.83333 41.8293V12.5464C4.83333 12.3879 4.89699 12.2359 5.01029 12.1239C5.12359 12.0118 5.27727 11.9488 5.4375 11.9488H52.5625C52.7227 11.9488 52.8764 12.0118 52.9897 12.1239C53.103 12.2359 53.1667 12.3879 53.1667 12.5464V41.8293ZM24.7708 29.878H45.3125C45.7932 29.878 46.2542 29.6892 46.5941 29.353C46.934 29.0168 47.125 28.5608 47.125 28.0854C47.125 27.6099 46.934 27.1539 46.5941 26.8177C46.2542 26.4816 45.7932 26.2927 45.3125 26.2927H24.7708C24.2901 26.2927 23.8291 26.4816 23.4892 26.8177C23.1493 27.1539 22.9583 27.6099 22.9583 28.0854C22.9583 28.5608 23.1493 29.0168 23.4892 29.353C23.8291 29.6892 24.2901 29.878 24.7708 29.878ZM17.5208 29.878H13.8958C13.4151 29.878 12.9541 29.6892 12.6142 29.353C12.2743 29.0168 12.0833 28.5608 12.0833 28.0854C12.0833 27.6099 12.2743 27.1539 12.6142 26.8177C12.9541 26.4816 13.4151 26.2927 13.8958 26.2927H17.5208C18.0015 26.2927 18.4626 26.4816 18.8025 26.8177C19.1424 27.1539 19.3333 27.6099 19.3333 28.0854C19.3333 28.5608 19.1424 29.0168 18.8025 29.353C18.4626 29.6892 18.0015 29.878 17.5208 29.878Z" fill="#5D6174"/>
<path d="M24.7705 21.5122H45.3122C45.7929 21.5122 46.2539 21.3234 46.5938 20.9872C46.9337 20.651 47.1247 20.195 47.1247 19.7196C47.1247 19.2441 46.9337 18.7881 46.5938 18.4519C46.2539 18.1157 45.7929 17.9269 45.3122 17.9269H24.7705C24.2898 17.9269 23.8288 18.1157 23.4889 18.4519C23.149 18.7881 22.958 19.2441 22.958 19.7196C22.958 20.195 23.149 20.651 23.4889 20.9872C23.8288 21.3234 24.2898 21.5122 24.7705 21.5122Z" fill="#FF4D61"/>
<path d="M13.8955 21.5122H17.5205C18.0012 21.5122 18.4622 21.3234 18.8021 20.9872C19.142 20.651 19.333 20.195 19.333 19.7196C19.333 19.2441 19.142 18.7881 18.8021 18.4519C18.4622 18.1157 18.0012 17.9269 17.5205 17.9269H13.8955C13.4148 17.9269 12.9538 18.1157 12.6139 18.4519C12.274 18.7881 12.083 19.2441 12.083 19.7196C12.083 20.195 12.274 20.651 12.6139 20.9872C12.9538 21.3234 13.4148 21.5122 13.8955 21.5122Z" fill="#FF4D61"/>
<path d="M24.7705 38.2439H45.3122C45.7929 38.2439 46.2539 38.0551 46.5938 37.7189C46.9337 37.3827 47.1247 36.9267 47.1247 36.4513C47.1247 35.9758 46.9337 35.5198 46.5938 35.1836C46.2539 34.8474 45.7929 34.6586 45.3122 34.6586H24.7705C24.2898 34.6586 23.8288 34.8474 23.4889 35.1836C23.149 35.5198 22.958 35.9758 22.958 36.4513C22.958 36.9267 23.149 37.3827 23.4889 37.7189C23.8288 38.0551 24.2898 38.2439 24.7705 38.2439Z" fill="#FF4D61"/>
<path d="M13.8955 38.2439H17.5205C18.0012 38.2439 18.4622 38.0551 18.8021 37.7189C19.142 37.3827 19.333 36.9267 19.333 36.4513C19.333 35.9758 19.142 35.5198 18.8021 35.1836C18.4622 34.8474 18.0012 34.6586 17.5205 34.6586H13.8955C13.4148 34.6586 12.9538 34.8474 12.6139 35.1836C12.274 35.5198 12.083 35.9758 12.083 36.4513C12.083 36.9267 12.274 37.3827 12.6139 37.7189C12.9538 38.0551 13.4148 38.2439 13.8955 38.2439Z" fill="#FF4D61"/>
</svg>
