<svg width="42" height="42" viewBox="0 0 42 42" fill="none" xmlns="http://www.w3.org/2000/svg">
<path d="M14.9814 31.5L8.98145 37.5L4.48145 33L10.4814 27L14.4564 30.975L14.9814 31.5Z" fill="#FF4D61"/>
<path d="M28.4785 9.00293L32.9789 4.50254L37.4793 9.00293L32.9789 13.5033L28.4785 9.00293Z" fill="#FF4D61"/>
<path d="M14.9815 31.4996L8.98152 37.4996L5.56152 34.0796C8.66725 33.5033 11.6668 32.4562 14.4565 30.9746L14.9815 31.4996Z" fill="#FF4D61"/>
<path d="M34.7365 16.5002C34.741 16.8945 34.6649 17.2855 34.5127 17.6493C34.3605 18.013 34.1355 18.3417 33.8515 18.6152L20.0965 32.3702C19.8217 32.6526 19.4928 32.8766 19.1293 33.0287C18.7659 33.1808 18.3754 33.2578 17.9815 33.2552C17.5889 33.2571 17.1999 33.1812 16.8369 33.0319C16.4739 32.8826 16.144 32.6628 15.8665 32.3852L14.4565 30.9602L9.61145 26.1152C9.33118 25.8389 9.10861 25.5096 8.9567 25.1465C8.80479 24.7835 8.72656 24.3938 8.72656 24.0002C8.72656 23.6066 8.80479 23.217 8.9567 22.8539C9.10861 22.4908 9.33118 22.1615 9.61145 21.8852C10.4815 21.0302 23.0215 8.47522 23.5615 7.95022C24.0946 7.48986 24.7771 7.23926 25.4815 7.24522C25.8752 7.24406 26.2652 7.32177 26.6285 7.47377C26.9917 7.62577 27.3209 7.84897 27.5965 8.13022L31.4815 12.0152L33.8515 14.3852C34.1355 14.6587 34.3605 14.9875 34.5127 15.3512C34.6649 15.7149 34.741 16.106 34.7365 16.5002Z" fill="white"/>
<path d="M34.7366 16.4996C34.7411 16.8939 34.665 17.2849 34.5128 17.6487C34.3606 18.0124 34.1356 18.3411 33.8516 18.6146L20.0965 32.3696C19.8218 32.6521 19.4929 32.876 19.1294 33.0281C18.766 33.1802 18.3755 33.2572 17.9815 33.2547C17.589 33.2565 17.2 33.1806 16.837 33.0313C16.474 32.882 16.1441 32.6622 15.8665 32.3846L14.4565 30.9596C22.5865 26.6546 27.9866 19.1396 31.4816 12.0146L33.8516 14.3846C34.1356 14.6582 34.3606 14.9869 34.5128 15.3506C34.665 15.7144 34.7411 16.1054 34.7366 16.4996Z" fill="white"/>
<path d="M37.4816 9.00047L32.9816 13.5005L31.4966 12.0155C32.5766 9.84047 33.4616 7.71047 34.2116 5.73047L37.4816 9.00047Z" fill="#FF4D61"/>
<path d="M41.5421 0.439553C41.4028 0.300206 41.2375 0.189662 41.0556 0.114241C40.8736 0.0388201 40.6785 0 40.4816 0C40.2846 0 40.0895 0.0388201 39.9076 0.114241C39.7256 0.189662 39.5603 0.300206 39.4211 0.439553L35.2316 4.6289L34.0421 3.43955C33.9028 3.30021 33.7375 3.18966 33.5556 3.11424C33.3736 3.03882 33.1785 3 32.9816 3C32.7846 3 32.5895 3.03882 32.4076 3.11424C32.2256 3.18966 32.0603 3.30021 31.9211 3.43955L28.4634 6.89705C27.6087 6.13363 26.4948 5.72541 25.3492 5.7558C24.2036 5.78618 23.1129 6.25289 22.2999 7.06055L8.54207 20.8177C7.72726 21.6271 7.25561 22.7193 7.22511 23.8673C7.1946 25.0154 7.60759 26.1311 8.37827 26.9827L4.48157 30.8789L2.54207 28.9396C2.25916 28.6663 1.88026 28.5151 1.48697 28.5185C1.09367 28.522 0.717452 28.6797 0.43934 28.9578C0.161228 29.2359 0.00347433 29.6122 5.6704e-05 30.0055C-0.00336093 30.3987 0.147831 30.7776 0.421068 31.0606L10.9211 41.5606C11.204 41.8338 11.5829 41.985 11.9762 41.9816C12.3695 41.9781 12.7457 41.8204 13.0238 41.5423C13.3019 41.2642 13.4597 40.8879 13.4631 40.4947C13.4665 40.1014 13.3153 39.7225 13.0421 39.4396L11.1027 37.5001L14.9996 33.6031C15.8517 34.372 16.9668 34.7838 18.1141 34.7534C19.2614 34.7229 20.3531 34.2525 21.1632 33.4396L34.9211 19.6825C35.7359 18.8731 36.2075 17.7809 36.238 16.6328C36.2685 15.4847 35.8555 14.369 35.0849 13.5175L38.5421 10.0606C38.6814 9.92133 38.792 9.75601 38.8674 9.57404C38.9428 9.39208 38.9816 9.19703 38.9816 9.00005C38.9816 8.80307 38.9428 8.60803 38.8674 8.42606C38.792 8.24409 38.6814 8.07878 38.5421 7.93955L37.3527 6.75005L41.5421 2.56055C41.6814 2.42133 41.792 2.25601 41.8674 2.07404C41.9428 1.89208 41.9816 1.69703 41.9816 1.50005C41.9816 1.30307 41.9428 1.10803 41.8674 0.926061C41.792 0.744094 41.6814 0.578775 41.5421 0.439553ZM8.98157 35.3789L6.60272 33.0001L10.4816 29.1212L12.8604 31.5001L8.98157 35.3789ZM32.7999 17.5606L19.0421 31.3177C18.7605 31.5984 18.3792 31.7561 17.9816 31.7561C17.584 31.7561 17.2026 31.5984 16.9211 31.3177L10.6632 25.0598C10.5239 24.9206 10.4134 24.7554 10.338 24.5735C10.2625 24.3916 10.2237 24.1966 10.2237 23.9997C10.2237 23.8028 10.2625 23.6078 10.338 23.4259C10.4134 23.244 10.5239 23.0787 10.6632 22.9396L11.2316 22.3712L12.4211 23.5606C12.704 23.8338 13.0829 23.985 13.4762 23.9816C13.8695 23.9781 14.2457 23.8204 14.5238 23.5423C14.8019 23.2642 14.9597 22.8879 14.9631 22.4947C14.9665 22.1014 14.8153 21.7225 14.5421 21.4396L13.3527 20.2501L14.9816 18.6212L16.1709 19.8106C16.4538 20.0838 16.8327 20.235 17.226 20.2316C17.6193 20.2281 17.9955 20.0704 18.2736 19.7923C18.5518 19.5142 18.7095 19.1379 18.7129 18.7447C18.7163 18.3514 18.5652 17.9725 18.2919 17.6896L17.1029 16.5001L18.7316 14.8714L19.9209 16.0606C20.2038 16.3338 20.5827 16.485 20.976 16.4816C21.3693 16.4781 21.7455 16.3204 22.0236 16.0423C22.3018 15.7642 22.4595 15.3879 22.4629 14.9947C22.4663 14.6014 22.3152 14.2225 22.0419 13.9396L20.8529 12.7501L22.4816 11.1214L23.6708 12.3106C23.9537 12.5838 24.3326 12.735 24.7259 12.7316C25.1192 12.7281 25.4954 12.5704 25.7735 12.2923C26.0516 12.0142 26.2094 11.6379 26.2128 11.2447C26.2162 10.8514 26.065 10.4725 25.7918 10.1896L24.6395 9.0371C24.9227 8.8331 25.2689 8.73573 25.617 8.76219C25.9651 8.78865 26.2926 8.93723 26.5418 9.1817L32.7996 15.4403C32.9389 15.5795 33.0495 15.7447 33.1249 15.9266C33.2003 16.1085 33.2391 16.3035 33.2391 16.5004C33.2391 16.6973 33.2003 16.8923 33.1249 17.0742C33.0495 17.2561 32.9389 17.4214 32.7996 17.5606H32.7999ZM32.9816 11.3789L30.6029 9.00005L32.9816 6.6212L35.3604 9.00005L32.9816 11.3789Z" fill="#5D6174"/>
</svg>
