<svg width="48" height="48" viewBox="0 0 48 48" fill="none" xmlns="http://www.w3.org/2000/svg">
<path d="M45.9387 36.044C41.6444 31.7492 41.9256 32.0211 41.8038 31.9273L30.4304 23.5253L34.8466 19.1086C38.3908 20.3745 42.4132 19.5025 45.1136 16.7924C48.0577 13.848 48.8359 9.34686 47.0357 5.58657C46.6138 4.71449 45.4605 4.51756 44.776 5.20211L41.138 8.84049C40.5942 9.38437 39.6941 9.38437 39.1503 8.84049C38.5971 8.28723 38.5971 7.40577 39.1503 6.85251L42.7883 3.21412C43.4727 2.52958 43.2758 1.3668 42.4038 0.954199C38.644 -0.836861 34.134 -0.0585474 31.1899 2.88592C28.4895 5.58657 27.6176 9.60943 28.874 13.154L23.7827 18.2459C22.7513 17.4395 24.1109 18.8179 14.3596 8.4654L15.3816 7.44327C16.0286 6.79624 15.8973 5.70848 15.1097 5.23961L7.58997 0.719767C5.6116 -0.46177 3.09877 -0.15232 1.47669 1.46995C-0.154772 3.1016 -0.464187 5.61471 0.717215 7.59331L5.23655 15.1233C5.70536 15.911 6.793 16.0422 7.43996 15.3952L8.4057 14.4293C18.1101 24.7256 16.8349 23.3284 17.6038 24.313C17.6225 24.3318 17.6413 24.3599 17.66 24.3786L13.1501 28.8891C9.60586 27.6232 5.58347 28.4953 2.88312 31.2053C-0.0610099 34.1498 -0.839235 38.6509 0.960997 42.4111C1.38293 43.2832 2.5362 43.4802 3.22066 42.7956L6.85863 39.1572C7.40245 38.6133 8.30257 38.6133 8.84639 39.1572C9.39958 39.7105 9.39958 40.5919 8.84639 41.1452L5.20842 44.7836C4.52396 45.4681 4.72086 46.6309 5.59284 47.0435C6.94302 47.6906 8.38695 48 9.82151 48C12.3812 48 14.9034 47.006 16.788 45.1212C19.4884 42.4205 20.3604 38.3977 19.104 34.8531L22.9576 30.999L31.9306 41.9048C31.9962 41.9892 31.7712 41.7547 35.7842 45.7682C37.2469 47.2311 39.1878 47.9906 41.1005 47.9906C42.4976 47.9906 43.8853 47.578 45.0479 46.7434C48.5921 44.1928 49.0141 39.1103 45.9387 36.044ZM9.45584 11.4474C8.91202 10.866 7.99315 10.8566 7.43996 11.4192L6.72736 12.1319L3.1269 6.14921C2.61121 5.2865 2.74248 4.17998 3.45507 3.46731C4.16766 2.75464 5.27405 2.61398 6.13666 3.1391L12.1187 6.7306L11.4061 7.44327C10.8716 7.97778 10.8529 8.84987 11.378 9.40313C22.5919 21.2841 20.8292 19.5025 21.7856 20.2433L19.6478 22.3813C18.9164 21.4248 20.6323 23.3003 9.45584 11.4474ZM16.4599 33.5309C16.0379 33.9528 15.9254 34.5905 16.188 35.1344C17.4725 37.8163 16.9193 41.0327 14.8097 43.1332C13.4595 44.4835 11.6592 45.1962 9.83089 45.1962C9.50272 45.1962 9.17455 45.1774 8.84639 45.1306L10.8341 43.1426C12.4844 41.4922 12.4844 38.829 10.8341 37.1786C9.19331 35.5376 6.51171 35.5376 4.87088 37.1786L2.88312 39.1666C2.58308 37.0192 3.2863 34.7874 4.87088 33.2027C6.97115 31.1021 10.1872 30.5489 12.8688 31.8242C13.4032 32.0774 14.0502 31.9742 14.4721 31.5523L31.5368 14.4856C31.9587 14.0636 32.0713 13.426 31.8087 12.8821C30.5242 10.2002 31.0774 6.98379 33.187 4.88328C34.781 3.28914 37.0031 2.58584 39.1503 2.8953L37.1625 4.8739C36.3656 5.67097 35.9249 6.7306 35.9249 7.85588C35.9249 8.98115 36.3656 10.0408 37.1625 10.8378C38.8034 12.4789 41.485 12.4789 43.1258 10.8378L45.1136 8.84987C45.4136 10.9973 44.7104 13.2291 43.1258 14.8138C41.0255 16.9143 37.8095 17.4676 35.1279 16.1923C34.5935 15.9391 33.9465 16.0422 33.5246 16.4642L16.4599 33.5309ZM24.9547 29.011L28.4239 25.5414L31.9587 28.1483L27.7301 32.3775C24.8609 28.8891 25.0391 29.0954 24.9547 29.011ZM43.4071 44.4648C41.7663 45.6463 39.3472 45.3556 37.7814 43.7896L34.0684 40.0762L29.5303 34.5624L34.2465 29.8456L40.0504 34.131L43.9509 38.032C45.7418 39.8136 45.6199 42.8613 43.4071 44.4648Z" fill="#5D6174"/>
<path d="M41.9452 39.7757L36.3188 34.1493C35.7656 33.5961 34.8748 33.5961 34.3309 34.1493C33.787 34.7026 33.7776 35.5934 34.3309 36.1373L39.9572 41.7637C40.5105 42.3169 41.4013 42.3169 41.9452 41.7637C42.4891 41.2104 42.4891 40.3289 41.9452 39.7757Z" fill="#5D6174"/>
<path d="M41.9452 39.7757L36.3188 34.1493C35.7656 33.5961 34.8748 33.5961 34.3309 34.1493C33.787 34.7026 33.7776 35.5934 34.3309 36.1373L39.9572 41.7637C40.5105 42.3169 41.4013 42.3169 41.9452 41.7637C42.4891 41.2104 42.4891 40.3289 41.9452 39.7757Z" fill="#FF614D"/>
</svg>
