<svg width="70" height="70" viewBox="0 0 70 70" fill="none" xmlns="http://www.w3.org/2000/svg">
<g clip-path="url(#clip0)">
<path fill-rule="evenodd" clip-rule="evenodd" d="M36.1207 14.2902L38.7343 12.1933C39.2696 11.7639 39.753 11.0782 39.2907 10.1015L35.5588 2.2172C35.2689 1.60484 34.6489 1.21423 33.9935 1.42287L30.4184 2.56091C29.763 2.76955 29.4829 3.44658 29.6003 4.1139L31.1127 12.7048C31.3 13.7688 32.0908 14.0491 32.7759 14.09L36.1207 14.2902Z" fill="#FFC144"/>
<path fill-rule="evenodd" clip-rule="evenodd" d="M38.247 20.9756C37.9725 21.063 37.7071 21.1959 37.4619 21.3757L32.4141 25.0827C34.0339 26.032 35.1216 27.7911 35.1216 29.8041C35.1216 29.8241 35.1215 29.8442 35.1208 29.8644L39.9481 26.3194L40.6876 25.7764C41.9028 24.8857 42.1658 23.1783 41.2751 21.9632C40.5641 20.9931 39.333 20.6299 38.247 20.9756Z" fill="#FFDCD5"/>
<path fill-rule="evenodd" clip-rule="evenodd" d="M35.123 29.8037C35.123 27.7907 34.0353 26.0316 32.4155 25.0823C31.605 24.6073 30.6615 24.335 29.6543 24.335C26.634 24.335 24.1855 26.7835 24.1855 29.8037C24.1855 30.8124 24.4586 31.7573 24.9349 32.5684C25.8847 34.1864 27.6426 35.2725 29.6543 35.2725C31.2281 35.2725 32.6465 34.6077 33.6443 33.5437C34.5487 32.5791 35.1075 31.2866 35.1228 29.8636C35.1229 29.8438 35.123 29.8238 35.123 29.8037Z" fill="#FFDCD5"/>
<path fill-rule="evenodd" clip-rule="evenodd" d="M33.6423 33.5445C32.6445 34.6086 31.2261 35.2734 29.6523 35.2734C27.6406 35.2734 25.8827 34.1873 24.9329 32.5693C22.692 35.7973 20.7779 42.1323 21.3248 46.7577H31.3408V39.7592L33.5688 41.5709L37.1195 37.2041L33.6423 33.5445Z" fill="#88DF8E"/>
<path fill-rule="evenodd" clip-rule="evenodd" d="M37.121 37.2035L33.5703 41.5703L34.3421 42.1979C35.1683 42.816 36.3789 43.1632 37.5795 42.7827L44.4817 40.5699C44.4828 40.5695 44.484 40.5693 44.4851 40.5689C45.9164 40.1133 46.7086 38.5842 46.2548 37.152C45.8006 35.7185 44.2703 34.9247 42.8368 35.3789L42.8334 35.38L37.121 37.2035Z" fill="#FFDCD5"/>
<path fill-rule="evenodd" clip-rule="evenodd" d="M23.7871 54.2765C26.4958 54.2765 26.684 52.2257 29.3926 52.2257C32.1012 52.2257 32.2894 54.2765 34.998 54.2765C37.7067 54.2765 37.8948 52.2257 40.6035 52.2257C43.3122 52.2257 43.5003 54.2765 46.209 54.2765C48.9177 54.2765 49.1058 52.2257 51.8145 52.2257C54.5231 52.2257 54.7113 54.2765 57.4199 54.2765C57.8105 54.2765 58.1486 54.2338 58.4494 54.1607C60.2344 52.1995 61.5373 49.7585 62.3417 46.7568H59.6074H37.7324H32.2637H7.6543C8.45807 49.7564 9.77439 52.2026 11.5854 54.1701C11.8764 54.2375 12.2022 54.2765 12.5762 54.2765C15.2848 54.2765 15.473 52.2257 18.1816 52.2257C20.8903 52.2257 21.0786 54.2765 23.7871 54.2765Z" fill="#FFC144"/>
<path fill-rule="evenodd" clip-rule="evenodd" d="M40.6035 60.43C43.3122 60.43 43.5003 62.4807 46.209 62.4807C48.9177 62.4807 49.1058 60.43 51.8145 60.43C54.5231 60.43 54.7113 62.4807 57.4199 62.4807C60.1286 62.4807 60.3167 60.43 63.0254 60.43C65.7341 60.43 65.9222 62.4807 68.6309 62.4807V54.2773C65.9222 54.2773 65.7341 52.2266 63.0254 52.2266C60.3167 52.2266 60.1286 54.2773 57.4199 54.2773C54.7113 54.2773 54.5231 52.2266 51.8145 52.2266C49.1058 52.2266 48.9177 54.2773 46.209 54.2773C43.5003 54.2773 43.3122 52.2266 40.6035 52.2266C37.8948 52.2266 37.7067 54.2773 34.998 54.2773C32.2894 54.2773 32.1012 52.2266 29.3926 52.2266C26.6839 52.2266 26.4958 54.2773 23.7871 54.2773C21.0784 54.2773 20.8903 52.2266 18.1816 52.2266C15.473 52.2266 15.2848 54.2773 12.5762 54.2773C9.8675 54.2773 9.67937 52.2266 6.9707 52.2266C4.26203 52.2266 4.07391 54.2773 1.36523 54.2773V62.4807C4.07391 62.4807 4.26203 60.43 6.9707 60.43C9.67937 60.43 9.8675 62.4807 12.5762 62.4807C15.2848 62.4807 15.473 60.43 18.1816 60.43C20.8903 60.43 21.0784 62.4807 23.7871 62.4807C26.4958 62.4807 26.684 60.43 29.3926 60.43C32.1012 60.43 32.2894 62.4807 34.998 62.4807C37.7067 62.4807 37.895 60.43 40.6035 60.43Z" fill="#99EBFA"/>
<path fill-rule="evenodd" clip-rule="evenodd" d="M46.209 62.4805C43.5003 62.4805 43.3122 60.4297 40.6035 60.4297C37.8948 60.4297 37.7067 62.4805 34.998 62.4805C32.2894 62.4805 32.1012 60.4297 29.3926 60.4297C26.6839 60.4297 26.4958 62.4805 23.7871 62.4805C21.0784 62.4805 20.8903 60.4297 18.1816 60.4297C15.473 60.4297 15.2848 62.4805 12.5762 62.4805C9.8675 62.4805 9.67937 60.4297 6.9707 60.4297C4.26203 60.4297 4.07391 62.4805 1.36523 62.4805V68.6321H68.631V62.4805C65.9223 62.4805 65.7342 60.4297 63.0255 60.4297C60.3169 60.4297 60.1287 62.4805 57.4201 62.4805C54.7114 62.4805 54.5233 60.4297 51.8146 60.4297C49.1058 60.4297 48.9177 62.4805 46.209 62.4805Z" fill="#33D6F5"/>
<path d="M68.6329 52.9098C67.7137 52.9098 67.2786 52.6019 66.6202 52.1357C65.8167 51.5668 64.8167 50.859 63.0275 50.859C62.7545 50.859 62.5017 50.8772 62.2632 50.9072C62.8329 49.7327 63.3013 48.4658 63.6643 47.1112C63.7744 46.7006 63.6872 46.2623 63.4284 45.925C63.1695 45.5877 62.7687 45.39 62.3436 45.39H47.4555L46.1329 41.2346C46.611 40.8726 47.0064 40.4057 47.2908 39.8576C47.7938 38.8878 47.8891 37.7803 47.559 36.7387C47.0221 35.0447 45.4779 33.9446 43.7941 33.8876L41.5503 26.8384C43.326 25.4927 43.7018 22.9581 42.3799 21.1546C41.7332 20.2724 40.7816 19.6947 39.7005 19.5282C39.5364 19.5029 39.3723 19.4887 39.2089 19.4831L37.7085 14.7695L39.5903 13.2597C40.8195 12.2737 41.1695 10.8743 40.5269 9.51659L36.795 1.63231C36.1906 0.355358 34.8385 -0.280383 33.5793 0.120065L30.0044 1.25797C28.7453 1.65869 28.0094 2.95943 28.2545 4.35082L29.7669 12.9418C30.0275 14.4212 31.1221 15.3606 32.6949 15.4547L35.1033 15.5988L36.6034 20.3113L32.2744 23.4904C31.4673 23.1544 30.5828 22.9679 29.6553 22.9679C25.886 22.9679 22.8194 26.0345 22.8194 29.8038C22.8194 30.7525 23.014 31.6565 23.3648 32.4785C21.4276 35.6511 19.781 40.8838 19.8688 45.3899H7.65637C7.23131 45.3899 6.83046 45.5876 6.57165 45.9249C6.31284 46.262 6.22575 46.7005 6.33567 47.111C6.69852 48.4654 7.16924 49.7326 7.74346 50.9078C7.50311 50.8773 7.24827 50.8589 6.97264 50.8589C5.18341 50.8589 4.18345 51.5668 3.37995 52.1356C2.72152 52.6016 2.28648 52.9097 1.36718 52.9097C0.612089 52.9097 0 53.5218 0 54.2769V68.6319C0 69.387 0.612089 69.9991 1.36718 69.9991H68.6328C69.3879 69.9991 70 69.387 70 68.6319V54.277C70.0001 53.5219 69.388 52.9098 68.6329 52.9098ZM60.4814 48.1245C59.809 49.9623 58.9009 51.5348 57.7385 52.8961C57.6393 52.905 57.5344 52.9098 57.422 52.9098C56.5026 52.9098 56.0677 52.6019 55.4093 52.1357C54.6058 51.5668 53.6058 50.859 51.8166 50.859C50.772 50.859 49.9977 51.1007 49.3733 51.4148L48.326 48.1245H60.4814ZM32.7106 42.6325L33.4804 43.2586C33.4947 43.2702 33.5093 43.2814 33.5239 43.2926C34.823 44.2645 36.494 44.561 37.9978 44.0846L43.5988 42.289L44.5859 45.39H32.7106V42.6325ZM44.9525 37.5649C45.0619 37.9101 45.0303 38.2772 44.8635 38.5987C44.6968 38.9201 44.4149 39.1573 44.0653 39.268L37.1675 41.4793C36.571 41.6685 35.9813 41.5481 35.5312 41.3269L37.9257 38.382L43.2506 36.6821C43.9632 36.4564 44.7266 36.8525 44.9525 37.5649ZM36.4444 30.5904L39.2251 28.5483L41.1174 34.493L37.5229 35.6405L35.4367 33.4449C35.9708 32.5996 36.3246 31.6304 36.4444 30.5904ZM40.1746 22.7714C40.6182 23.3767 40.4869 24.23 39.8806 24.6743L36.0789 27.4662C35.7606 26.5945 35.2689 25.8062 34.6469 25.1409L38.2724 22.4785C38.5656 22.2635 38.9254 22.1759 39.2841 22.231C39.6434 22.2862 39.9597 22.4782 40.1746 22.7714ZM32.858 12.7254C32.5013 12.704 32.4907 12.6444 32.4597 12.4678L30.9473 3.87682C30.9442 3.85918 30.9427 3.84318 30.9421 3.82924L34.3001 2.76037C34.3077 2.77213 34.3158 2.78608 34.3234 2.80235L38.0553 10.6866C38.1321 10.8488 38.1579 10.9033 37.8791 11.1271L36.8195 11.9772L36.5305 11.0693C36.3015 10.3499 35.5329 9.95218 34.813 10.1812C34.0935 10.4102 33.6959 11.1791 33.9249 11.8986L34.2139 12.8066L32.858 12.7254ZM29.6551 25.7026C31.9167 25.7026 33.7566 27.5425 33.7566 29.8041C33.7566 32.0657 31.9167 33.9057 29.6551 33.9057C27.3935 33.9057 25.5535 32.0657 25.5535 29.8041C25.5535 27.5425 27.3935 25.7026 29.6551 25.7026ZM25.132 34.9235C26.3383 35.9905 27.9219 36.6402 29.6552 36.6402C31.0989 36.6402 32.4386 36.1891 33.5435 35.4221L35.303 37.274L33.3734 39.6472L32.2062 38.6981C31.7968 38.3653 31.2325 38.2976 30.7563 38.5243C30.28 38.751 29.9765 39.2314 29.9765 39.7589V45.3902H22.6056C22.5334 41.9544 23.6863 37.7677 25.132 34.9235ZM45.4564 48.1245L46.9524 52.8242C46.7382 52.8797 46.4982 52.9098 46.2111 52.9098C45.2918 52.9098 44.8568 52.6019 44.1983 52.1357C43.3949 51.5668 42.3949 50.859 40.6057 50.859C38.8164 50.859 37.8165 51.567 37.013 52.1357C36.3545 52.6018 35.9195 52.9098 35.0002 52.9098C34.0808 52.9098 33.6459 52.6019 32.9874 52.1357C32.1839 51.5668 31.184 50.859 29.3947 50.859C27.6055 50.859 26.6056 51.567 25.8021 52.1357C25.1436 52.6018 24.7086 52.9098 23.7893 52.9098C22.87 52.9098 22.435 52.6019 21.7765 52.1357C20.973 51.5668 19.9731 50.859 18.1838 50.859C16.3946 50.859 15.3946 51.567 14.5911 52.1357C13.9327 52.6018 13.4977 52.9098 12.5784 52.9098C12.4767 52.9098 12.3816 52.9054 12.2907 52.898C11.1132 51.534 10.1959 49.9609 9.52053 48.1244H45.4564V48.1245ZM2.73451 67.2648V63.7207C3.78847 63.4915 4.49243 62.9922 5.08757 62.5692C5.74204 62.1041 6.17434 61.7968 7.0868 61.7968C7.99926 61.7968 8.43157 62.1041 9.08604 62.5692C9.88721 63.1388 10.8842 63.8476 12.6694 63.8476C14.4547 63.8476 15.4518 63.1388 16.2528 62.5692C16.9073 62.1041 17.3397 61.7968 18.2521 61.7968C19.1644 61.7968 19.5968 62.1041 20.2513 62.5692C21.0525 63.1388 22.0495 63.8476 23.8347 63.8476C25.6198 63.8476 26.617 63.1388 27.4181 62.5695C27.9651 62.1807 28.3603 61.8999 29.0128 61.8203C29.7622 61.729 30.2957 61.0472 30.2043 60.2977C30.1129 59.5482 29.4319 59.0148 28.6816 59.1062C27.3414 59.2697 26.5056 59.8636 25.8341 60.3409C25.1794 60.8061 24.7471 61.1133 23.8345 61.1133C22.9222 61.1133 22.4898 60.806 21.8353 60.3409C21.0341 59.7713 20.0371 59.0625 18.2519 59.0625C16.4668 59.0625 15.4697 59.7713 14.6685 60.3407C14.0141 60.806 13.5816 61.1133 12.6692 61.1133C11.7568 61.1133 11.3245 60.806 10.6699 60.3409C9.86875 59.7713 8.87166 59.0625 7.08653 59.0625C5.3014 59.0625 4.30417 59.7713 3.50314 60.3409C3.22478 60.5387 2.98634 60.7077 2.73423 60.8369V55.4876C3.71765 55.247 4.38825 54.7722 4.95974 54.3676C5.61817 53.9016 6.05321 53.5935 6.97251 53.5935C7.8918 53.5935 8.32684 53.9014 8.98528 54.3676C9.78877 54.9365 10.7887 55.6443 12.578 55.6443C14.3672 55.6443 15.3672 54.9364 16.1707 54.3676C16.8291 53.9016 17.2641 53.5935 18.1834 53.5935C19.1029 53.5935 19.5378 53.9014 20.1962 54.3676C20.9997 54.9365 21.9996 55.6443 23.7889 55.6443C25.5781 55.6443 26.5781 54.9364 27.3816 54.3676C28.04 53.9016 28.475 53.5935 29.3943 53.5935C30.3136 53.5935 30.7487 53.9014 31.4071 54.3676C32.2106 54.9365 33.2106 55.6443 34.9998 55.6443C36.789 55.6443 37.789 54.9364 38.5925 54.3676C39.2509 53.9016 39.686 53.5935 40.6053 53.5935C41.5247 53.5935 41.9596 53.9014 42.618 54.3676C43.4215 54.9365 44.4215 55.6443 46.2107 55.6443C47.9999 55.6443 48.9999 54.9364 49.8034 54.3676C50.4618 53.9016 50.8969 53.5935 51.8162 53.5935C52.7355 53.5935 53.1705 53.9014 53.8289 54.3676C54.6324 54.9365 55.6324 55.6443 57.4216 55.6443C59.2109 55.6443 60.2108 54.9364 61.0143 54.3676C61.6728 53.9016 62.1078 53.5935 63.0271 53.5935C63.9464 53.5935 64.3814 53.9014 65.0399 54.3676C65.6113 54.7722 66.2819 55.247 67.2654 55.4876V60.8369C67.0132 60.7077 66.7749 60.5387 66.4965 60.3407C65.6953 59.7713 64.6983 59.0625 62.9131 59.0625C61.1278 59.0625 60.1307 59.7713 59.3297 60.3409C58.6752 60.806 58.2428 61.1133 57.3304 61.1133C56.4181 61.1133 55.9857 60.806 55.3312 60.3409C54.53 59.7713 53.5331 59.0625 51.7478 59.0625C49.9625 59.0625 48.9655 59.7713 48.1644 60.3409C47.5099 60.806 47.0776 61.1133 46.1652 61.1133C45.2527 61.1133 44.8203 60.806 44.1657 60.3409C43.494 59.8634 42.6579 59.2693 41.317 59.106C40.5677 59.015 39.8858 59.5484 39.7947 60.2979C39.7035 61.0474 40.2371 61.7291 40.9866 61.8203C41.6391 61.8997 42.0346 62.1807 42.5817 62.5695C43.3828 63.1389 44.3799 63.8477 46.1652 63.8477C47.9505 63.8477 48.9475 63.1389 49.7486 62.5694C50.403 62.1043 50.8354 61.7969 51.7478 61.7969C52.6601 61.7969 53.0926 62.1043 53.747 62.5694C54.5482 63.1389 55.5452 63.8477 57.3304 63.8477C59.1157 63.8477 60.1128 63.1389 60.9138 62.5694C61.5683 62.1043 62.0007 61.7969 62.9131 61.7969C63.8254 61.7969 64.2578 62.1043 64.9123 62.5694C65.5074 62.9924 66.2114 63.4917 67.2654 63.7208V67.265H2.73451V67.2648Z" fill="black"/>
<path d="M35.0004 61.1133H34.9995C34.2444 61.1133 33.6328 61.7254 33.6328 62.4805C33.6328 63.2356 34.2453 63.8477 35.0004 63.8477C35.7555 63.8477 36.3676 63.2356 36.3676 62.4805C36.3676 61.7254 35.7555 61.1133 35.0004 61.1133Z" fill="black"/>
</g>
<defs>
<clipPath id="clip0">
<rect width="70" height="70" fill="white"/>
</clipPath>
</defs>
</svg>
