<svg width="48" height="48" viewBox="0 0 48 48" fill="none" xmlns="http://www.w3.org/2000/svg">
<path d="M14.3771 11.9248L12.3532 13.9123L14.1289 15.6561L0 42.2811L5.81384 47.9998L32.926 34.1248L34.7017 35.8686L36.7255 33.8811L14.3771 11.9248ZM23.6086 24.9748H12.4296L16.2578 17.7561L23.6086 24.9748ZM6.05251 36.9936H21.1169L6.358 44.5498L3.52267 41.7654L6.05251 36.9936ZM26.6158 34.1811H7.54177L10.9308 27.7873H26.4726L30.7971 32.0342L26.6158 34.1811Z" fill="#5D6174"/>
<path d="M27.1885 13.9215C27.79 14.259 28.4487 14.5027 29.1742 14.6527C28.5155 16.3121 27.4749 17.8215 26.1384 19.0121L28.0573 21.1027C29.957 19.4152 31.3795 17.2027 32.1527 14.8027C37.4129 14.3434 42.1575 10.4621 43.5322 5.45586L40.7637 4.72461C40.2387 6.63711 39.0263 8.42773 37.3556 9.76836C35.9905 10.8559 34.3962 11.5871 32.7637 11.8871C32.9165 10.284 32.7064 8.98086 32.1432 7.90273C31.3031 6.28086 29.6229 5.30586 27.9618 5.46523C25.9475 5.66211 24.3532 7.52773 24.4009 9.62773C24.4391 11.3434 25.5083 12.984 27.1885 13.9215ZM28.2482 8.26836C28.2768 8.26836 28.2959 8.26836 28.3246 8.26836C28.7828 8.26836 29.3174 8.64336 29.5943 9.18711C29.9093 9.79648 29.8807 10.6121 29.8807 11.9246C29.4033 11.8309 28.9737 11.6809 28.611 11.4746C27.8282 11.0434 27.2936 10.2746 27.284 9.57148C27.2554 8.96211 27.7422 8.31523 28.2482 8.26836Z" fill="#5D6174"/>
<path d="M43.9046 22.5744C40.0669 20.5775 35.0454 21.3088 31.9619 24.3182L33.9858 26.315C36.1624 24.1963 39.8569 23.6525 42.5681 25.0682L43.9046 22.5744Z" fill="#FF4D61"/>
<path d="M41.8042 30.1689H44.6682V32.9814H41.8042V30.1689Z" fill="#5D6174"/>
<path d="M31.7327 0H34.5966V2.8125H31.7327V0Z" fill="#FF4D61"/>
<path d="M42.5393 14.4373L46.9403 12.7217L47.9999 15.3373L43.599 17.0623L42.5393 14.4373Z" fill="#5D6174"/>
<path d="M17.8711 3.38477H20.7351V7.64102H17.8711V3.38477Z" fill="#FF4D61"/>
</svg>
